<?xml version="1.0" encoding="UTF-8" standalone="no"?>
<!-- Created with Inkscape (http://www.inkscape.org/) -->

<svg
   width="50.000004mm"
   height="50mm"
   viewBox="0 0 50.000004 50"
   version="1.1"
   id="svg5"
   inkscape:version="1.1 (ce6663b3b7, 2021-05-25)"
   sodipodi:docname="Audi.svg"
   xmlns:inkscape="http://www.inkscape.org/namespaces/inkscape"
   xmlns:sodipodi="http://sodipodi.sourceforge.net/DTD/sodipodi-0.dtd"
   xmlns="http://www.w3.org/2000/svg"
   xmlns:svg="http://www.w3.org/2000/svg">
  <sodipodi:namedview
     id="namedview7"
     pagecolor="#ffffff"
     bordercolor="#666666"
     borderopacity="1.0"
     inkscape:pageshadow="2"
     inkscape:pageopacity="0.0"
     inkscape:pagecheckerboard="0"
     inkscape:document-units="mm"
     showgrid="false"
     inkscape:zoom="0.75187991"
     inkscape:cx="-85.784976"
     inkscape:cy="386.36489"
     inkscape:window-width="1848"
     inkscape:window-height="1016"
     inkscape:window-x="72"
     inkscape:window-y="27"
     inkscape:window-maximized="1"
     inkscape:current-layer="layer1" />
  <defs
     id="defs2" />
  <g
     inkscape:label="Слой 1"
     inkscape:groupmode="layer"
     id="layer1"
     transform="translate(-10.484808,36.671125)">
    <ellipse
       style="fill:none;fill-rule:evenodd;stroke:#fe0000;stroke-width:0.131942;stroke-opacity:1"
       id="path31"
       cx="35.48481"
       cy="11.671125"
       rx="24.934031"
       ry="24.934029"
       transform="scale(1,-1)" />
    <circle
       style="fill:none;stroke:#fe0000;stroke-width:0.128881;stroke-opacity:1"
       id="path1082"
       cx="35.903515"
       cy="-30.095726"
       r="2.4355593" />
    <path
       style="fill:none;stroke:#0000ff;stroke-width:0.043746;stroke-opacity:0.975481"
       d="M 32.721085,2.7175043 C 32.401367,2.6714261 31.990416,2.5534952 31.970728,2.502184 31.958921,2.471334 31.896479,2.4329305 31.832054,2.4168546 31.682028,2.3794198 31.451021,2.2038806 31.377968,2.0718024 31.346724,2.0153551 31.266238,1.8867509 31.199045,1.7860146 31.13185,1.6852753 31.038602,1.4807571 30.991814,1.3315221 30.913569,1.0819733 30.906697,0.92054969 30.906182,-0.67872278 l -6.19e-4,-1.73890732 h 0.82871 0.828707 l 0.01347,1.6076692 0.01347,1.60766918 0.174985,0.26047202 c 0.145804,0.2170444 0.209544,0.2722716 0.382254,0.3312166 0.114,0.038918 0.220628,0.084103 0.236958,0.1004366 0.04841,0.048409 0.977519,0.035043 0.977519,-0.014078 0,-0.024084 0.03686,-0.043747 0.08191,-0.043747 0.136842,0 0.740065,-0.2117099 0.835119,-0.2930946 0.0869,-0.074415 0.08913,-0.1197669 0.08913,-1.81740518 V -2.4195783 l 0.809661,0.011959 0.809662,0.011959 0.0071,2.49352571 0.0073,2.49352569 h -0.71843 -0.718432 L 35.523166,2.4041234 C 35.500326,2.3009924 35.461016,2.2261229 35.435676,2.237485 35.410366,2.248838 35.277904,2.304907 35.14129,2.362096 35.00469,2.419285 34.86688,2.48704 34.83507,2.5126827 34.702058,2.6198403 34.10899,2.7131017 33.486721,2.7247 33.137846,2.73121 32.793345,2.72803 32.721164,2.71759 Z m 1.495588,-0.1714249 c 0.163904,-0.036905 0.357059,-0.094185 0.429241,-0.1273054 0.367739,-0.1687092 0.78539,-0.3305581 0.853013,-0.3305581 0.05292,0 0.09296,0.060035 0.131272,0.1968556 l 0.05512,0.1968587 h 0.584887 0.584889 V 0.07589562 -2.330139 H 36.17703 35.498964 v 1.74666822 1.74666668 l -0.112713,0.08866 c -0.06199,0.048758 -0.253928,0.1321948 -0.426525,0.1854042 -0.172593,0.053208 -0.340984,0.1177083 -0.374194,0.1433359 -0.03609,0.027853 -0.310559,0.046926 -0.681893,0.047441 C 33.297511,1.6289649 33.275906,1.625467 33.03,1.4976435 32.768287,1.3614222 32.661982,1.2471122 32.533997,0.96429138 c -0.06529,-0.14428957 -0.07831,-0.37438693 -0.09726,-1.7195708 l -0.02186,-1.55298388 -0.686931,-0.01211 -0.686932,-0.01211 -0.0032,1.58552471 c -0.002,1.02981912 0.01438,1.67033341 0.04688,1.82750039 0.05955,0.2884776 0.183633,0.5791579 0.328044,0.7684933 0.05787,0.075869 0.105205,0.1586262 0.105205,0.1839253 0,0.059066 0.40119,0.3175899 0.492847,0.3175899 0.03828,0 0.09951,0.029911 0.13607,0.066468 0.18085,0.1808524 1.479663,0.2617481 2.069679,0.12891 z m 6.400583,0.1709919 C 40.148734,2.6296378 39.863581,2.5505465 39.845325,2.5029727 39.833518,2.4720621 39.761146,2.4343549 39.684619,2.4191721 39.52082,2.386657 39.224406,2.1900451 39.156022,2.0685418 39.129622,2.021631 39.040735,1.9177583 38.958486,1.8377118 38.474264,1.3664229 38.263214,0.16875138 38.502065,-0.75236466 38.642828,-1.295205 38.843504,-1.5824657 39.420914,-2.0676583 c 0.09593,-0.080607 0.397227,-0.2187322 0.477133,-0.2187322 0.03227,0 0.07442,-0.026869 0.09365,-0.059702 0.06603,-0.1126827 0.576875,-0.1787166 1.391112,-0.1798261 0.819169,-0.00129 1.337519,0.061564 1.451465,0.1755089 0.03521,0.035209 0.0899,0.064016 0.121523,0.064016 0.03162,0 0.113606,0.029109 0.182176,0.064682 0.117647,0.061034 0.12676,0.059187 0.161451,-0.032803 0.02022,-0.053617 0.03034,-0.5560567 0.02249,-1.1165245 -0.01393,-0.9887351 -0.01166,-1.0196714 0.07322,-1.0405246 0.04812,-0.011807 0.412308,-0.015864 0.809302,-0.00893 l 0.721813,0.012413 0.0112,3.5116833 0.0112,3.5116814 -0.733006,-0.011958 -0.73301,-0.011959 -0.01226,-0.1093676 c -0.0067,-0.060156 -0.02148,-0.152108 -0.03277,-0.2043486 l -0.02053,-0.094987 -0.188878,0.1004214 c -0.103888,0.055236 -0.236778,0.1150744 -0.295317,0.1329668 -0.05855,0.017892 -0.135964,0.058234 -0.172062,0.089628 C 42.6219,2.6265368 42.092052,2.7122128 41.404687,2.72496 41.031751,2.73192 40.677409,2.72829 40.617257,2.71709 Z m 1.640478,-0.1900937 c 0.192483,-0.044655 0.330284,-0.083437 0.306222,-0.086207 -0.02407,-0.00288 0.09866,-0.062881 0.272727,-0.1335874 0.174057,-0.070707 0.361071,-0.1546163 0.415588,-0.1864623 0.191869,-0.1120772 0.270355,-0.073765 0.314242,0.1534098 l 0.04014,0.207794 h 0.626986 0.626986 V -0.90839576 -4.2987209 h -0.699184 -0.69919 l -0.01165,1.1045903 -0.01166,1.1045902 -0.121432,0.013926 c -0.122689,0.014078 -0.621252,-0.1373718 -0.718899,-0.2184007 -0.243714,-0.2022536 -2.239466,-0.1779506 -2.447217,0.029805 -0.03591,0.035906 -0.102087,0.065288 -0.147075,0.065288 -0.04499,0 -0.09261,0.017514 -0.105826,0.038903 -0.01317,0.021374 -0.0782,0.052496 -0.144395,0.069102 -0.0662,0.016636 -0.150042,0.057295 -0.186331,0.090401 -0.539324,0.4920029 -0.67068,0.6292778 -0.728505,0.76135 -0.03751,0.085678 -0.08543,0.1951421 -0.106491,0.24326394 -0.145425,0.33227922 -0.180273,0.54419507 -0.180273,1.0961284 0,0.33634062 0.02009,0.61504565 0.04812,0.66741344 0.02646,0.0494538 0.04812,0.12921273 0.04812,0.17723003 0,0.16958709 0.259752,0.64846289 0.447015,0.82412319 0.103025,0.096622 0.20884,0.2129043 0.235162,0.2583831 0.05389,0.093095 0.438037,0.3169481 0.550526,0.32079 0.04039,0.00129 0.10142,0.030502 0.135616,0.064697 0.03421,0.03421 0.176617,0.083346 0.316468,0.1092011 0.139854,0.025855 0.2642,0.056932 0.276322,0.069042 0.01211,0.01211 0.309124,0.020905 0.660007,0.019542 0.459002,-0.00197 0.736137,-0.025279 0.987931,-0.083695 z M 41.2297,1.6225899 c -0.08421,-0.010899 -0.212169,-0.046426 -0.284349,-0.079093 -0.07218,-0.032666 -0.203393,-0.089099 -0.29158,-0.1253981 -0.257144,-0.1058557 -0.57492,-0.51304233 -0.648214,-0.83060351 -0.05534,-0.23981707 -0.0541,-0.74500313 0.0024,-0.99041499 0.06149,-0.26683277 0.248158,-0.54424206 0.448235,-0.6661434 0.0919,-0.055993 0.190873,-0.1234454 0.219939,-0.1498904 0.121568,-0.1106089 0.819704,-0.2568225 1.063026,-0.2226392 0.0927,0.013018 0.32603,0.044141 0.518513,0.069148 0.382511,0.049711 0.544971,0.08654 0.612975,0.1389763 0.02436,0.018786 0.155096,0.075611 0.290544,0.1262912 0.174231,0.065182 0.253875,0.12052394 0.272285,0.18919924 0.01423,0.0533896 0.02629,0.53417264 0.02661,1.06842248 6.69e-4,1.14925908 0.01806,1.10894828 -0.548467,1.27401238 -0.19125,0.055721 -0.379791,0.1182684 -0.418975,0.1389763 -0.08251,0.043611 -1.036504,0.088281 -1.263009,0.059127 z m 0.984289,-0.1468176 c -0.01527,-0.024734 0.02071,-0.043747 0.08277,-0.043747 0.124308,0 0.550983,-0.1045539 0.7484,-0.1833773 0.279188,-0.1114869 0.28435,-0.1319526 0.28435,-1.12733719 0,-0.6838269 -0.01423,-0.92301124 -0.05831,-0.98335794 -0.06082,-0.0831799 -0.432455,-0.24310197 -0.565072,-0.24316547 -0.04211,-1.97e-5 -0.07655,-0.01656 -0.07655,-0.036754 0,-0.072614 -0.596118,-0.1473019 -1.049905,-0.1315439 -0.415877,0.014381 -0.48847,0.030033 -0.767267,0.1649521 -0.418546,0.20253074 -0.641781,0.4992916 -0.709997,0.94385697 -0.05389,0.35124792 0.0023,0.73094807 0.144956,0.98103889 0.190863,0.33438184 0.613272,0.61569504 0.924508,0.61569504 0.05587,0 0.101572,0.019679 0.101572,0.043747 0,0.026521 0.190427,0.043747 0.483788,0.043747 0.311388,0 0.474156,-0.015592 0.456754,-0.043747 z M 20.97526,2.5059987 c 0,-0.058945 0.05952,-0.1953647 0.132271,-0.3031489 0.07274,-0.1077933 0.126912,-0.2121248 0.120372,-0.2318639 -0.0065,-0.019739 0.03625,-0.1146203 0.09511,-0.2108668 0.05886,-0.096243 0.142534,-0.2438815 0.185972,-0.3280938 0.04343,-0.084209 0.143851,-0.2712272 0.223142,-0.4155893 0.07929,-0.14436531 0.257666,-0.4767036 0.39638,-0.73853801 0.138719,-0.26183592 0.28207,-0.52163283 0.318562,-0.57732933 0.0365,-0.0556904 0.06141,-0.10723325 0.05537,-0.11451433 -0.0061,-0.007266 0.04408,-0.1004517 0.111366,-0.20704918 0.0673,-0.10659747 0.149815,-0.25423846 0.18337,-0.32809531 0.03356,-0.073855 0.138598,-0.27208694 0.233421,-0.44051314 0.09482,-0.1684216 0.222422,-0.4084475 0.28356,-0.5333945 0.06114,-0.124944 0.130787,-0.2392994 0.154765,-0.2541204 0.02398,-0.014835 0.04361,-0.056266 0.04361,-0.092081 0,-0.03583 0.06866,-0.1724663 0.152569,-0.3036423 0.08392,-0.1311806 0.143548,-0.2385032 0.132512,-0.2385032 -0.01105,0 0.0366,-0.093504 0.105856,-0.2077909 0.06925,-0.1142872 0.217476,-0.3878516 0.329384,-0.607925 0.111895,-0.2200688 0.2612,-0.4911643 0.331763,-0.6024332 l 0.128304,-0.2023084 0.861316,0.011807 0.861316,0.011807 0.144562,0.2406076 c 0.07952,0.132331 0.224732,0.398089 0.322723,0.5905715 0.09798,0.1924809 0.235657,0.4437237 0.305932,0.5583198 0.07027,0.11459 0.126806,0.2130209 0.125641,0.2187292 -0.0045,0.022464 0.103857,0.239982 0.22332,0.4478396 0.06913,0.1202968 0.166787,0.3062338 0.216996,0.4131795 0.05021,0.1069456 0.139915,0.2581999 0.19934,0.3361135 0.05943,0.077912 0.109488,0.167586 0.111244,0.1992671 0.002,0.031682 0.04021,0.1166638 0.08542,0.1888389 0.04523,0.072175 0.122401,0.2099797 0.1715,0.30622324 0.04909,0.0962435 0.128562,0.23404069 0.17657,0.30622181 0.04802,0.0721751 0.09836,0.16076813 0.111896,0.19685566 0.02807,0.0748695 0.097,0.20856442 0.315838,0.61244806 0.08474,0.15639343 0.281724,0.5304216 0.437748,0.83117723 0.156022,0.3007526 0.308362,0.5763499 0.338529,0.612442 0.07569,0.090552 0.204512,0.3499703 0.173788,0.3499703 -0.01377,0 0.03491,0.087206 0.108248,0.1938025 0.07334,0.1065974 0.133345,0.2447851 0.133345,0.3070921 V 2.6148001 L 29.189858,2.602993 28.26152,2.5911858 28.058349,2.1974715 C 27.805565,1.7076196 27.650524,1.424558 27.555912,1.280161 l -0.07313,-0.111608 -1.966399,0.011353 -1.9664,0.011353 -0.155371,0.2843498 c -0.08545,0.1563904 -0.179978,0.3138767 -0.210053,0.3499673 -0.03006,0.036088 -0.07973,0.1443652 -0.110321,0.2406042 -0.03061,0.096243 -0.09214,0.2219322 -0.136766,0.2793135 -0.04462,0.057386 -0.08114,0.1290917 -0.08114,0.1593649 0,0.095608 -0.117072,0.1081415 -1.009736,0.1081415 H 20.97525 Z m 1.77579,-0.1228399 c 0.02629,-0.05395 0.08377,-0.1669866 0.127699,-0.2511989 0.04394,-0.084209 0.09695,-0.1884393 0.117814,-0.2316126 0.09653,-0.1997863 0.309458,-0.5818539 0.345108,-0.6192493 0.0218,-0.022842 0.03962,-0.07661 0.03962,-0.1194643 0,-0.044549 0.04216,-0.088145 0.09842,-0.101814 0.05413,-0.01317 1.003803,-0.018437 2.110371,-0.011807 l 2.011944,0.01211 0.206007,0.3499687 c 0.113304,0.192484 0.238149,0.4188697 0.277429,0.503079 0.03928,0.084209 0.08918,0.1826431 0.110882,0.2187291 0.02169,0.036088 0.06827,0.1296063 0.103494,0.2077955 l 0.06403,0.1421704 h 0.813111 0.813115 L 29.879151,2.3185978 c -0.06102,-0.089795 -0.110942,-0.1884938 -0.110942,-0.2193226 0,-0.056871 -0.0876,-0.2335865 -0.135615,-0.2736022 -0.01438,-0.01211 -0.140839,-0.2384168 -0.2809,-0.5030804 -0.294937,-0.55733585 -0.572896,-1.08071402 -0.673752,-1.26863711 -0.03874,-0.07217506 -0.104569,-0.17991086 -0.146272,-0.23940231 -0.0417,-0.0594899 -0.07584,-0.135192 -0.07584,-0.16822935 0,-0.0330449 -0.03978,-0.11593724 -0.0884,-0.18421896 -0.04862,-0.0682848 -0.188448,-0.31739467 -0.310733,-0.55357877 -0.12228,-0.2361902 -0.249827,-0.4605111 -0.283437,-0.4984954 -0.03361,-0.03798 -0.06111,-0.092126 -0.06111,-0.1202968 0,-0.028201 -0.01966,-0.05124 -0.04375,-0.05124 -0.02408,0 -0.04375,-0.030351 -0.04375,-0.067407 0,-0.084452 -0.242377,-0.5642052 -0.378862,-0.7499077 -0.0563,-0.076595 -0.102344,-0.1661646 -0.102344,-0.199049 0,-0.032878 -0.01783,-0.078487 -0.03961,-0.1013448 -0.0218,-0.022873 -0.10351,-0.1596753 -0.181587,-0.3040375 -0.229383,-0.4240936 -0.487996,-0.9111132 -0.539902,-1.0167555 -0.0473,-0.096259 -0.06311,-0.09809 -0.846562,-0.098423 -0.442745,-1.65e-4 -0.798368,0.017136 -0.798368,0.038933 0,0.021601 -0.07874,0.1688878 -0.174982,0.3273021 -0.09624,0.1584173 -0.174987,0.3155055 -0.174987,0.3490848 0,0.033575 -0.02952,0.085557 -0.06562,0.1155134 -0.03609,0.029942 -0.06562,0.077322 -0.06562,0.1052654 0,0.027944 -0.06891,0.1577467 -0.153112,0.288452 -0.08421,0.1307113 -0.153108,0.2620524 -0.153108,0.2918715 0,0.029806 -0.05154,0.12891 -0.114545,0.220202 -0.06299,0.091294 -0.198319,0.336648 -0.300718,0.5452275 -0.102404,0.2085766 -0.224552,0.4349668 -0.271448,0.5030805 -0.04689,0.068118 -0.16936,0.2911737 -0.272138,0.4956858 -0.102783,0.20451522 -0.212204,0.40137239 -0.24316,0.43746295 -0.03094,0.0360875 -0.07086,0.11483222 -0.08869,0.17498214 -0.01783,0.060156 -0.04779,0.12904622 -0.06657,0.15311164 -0.03877,0.0496052 -0.198684,0.33817981 -0.436379,0.7874302 -0.08911,0.16842159 -0.232792,0.43417961 -0.319288,0.59056997 -0.08649,0.1563949 -0.197546,0.3630929 -0.246768,0.4593364 -0.04923,0.096243 -0.127563,0.2340392 -0.174083,0.3062203 -0.04652,0.07219 -0.08603,0.164286 -0.08778,0.2046726 -0.002,0.040386 -0.02962,0.099846 -0.06191,0.1321342 -0.03229,0.032288 -0.0822,0.1026012 -0.110896,0.156236 l -0.05219,0.09753 0.799905,-3.179e-4 c 0.785165,-3.164e-4 0.800786,-0.00227 0.847725,-0.098423 z m 1.303124,-2.45811026 c -0.01332,-0.0348463 0.0035,-0.1185106 0.03753,-0.18592041 0.08989,-0.17818521 0.186596,-0.36524244 0.49305,-0.95374173 0.150345,-0.2887259 0.303672,-0.5840109 0.340713,-0.656192 0.03704,-0.072175 0.129394,-0.2493537 0.205234,-0.3937159 0.07584,-0.1443653 0.179772,-0.3559829 0.23096,-0.4702717 0.07199,-0.1607424 0.115862,-0.2077939 0.193756,-0.2077939 0.06058,0 0.100678,0.026294 0.100678,0.065999 0,0.036299 0.09842,0.2507856 0.21873,0.4766385 0.120296,0.2258543 0.218732,0.4315108 0.218732,0.4570173 0,0.025491 0.04664,0.1151047 0.103645,0.1991112 0.05701,0.084013 0.196765,0.3358744 0.310564,0.5597048 0.113802,0.22383354 0.247281,0.48571037 0.29662,0.58195085 0.179516,0.35017468 0.218534,0.45584878 0.192935,0.52255924 -0.02287,0.0596262 -0.204532,0.0680123 -1.47247,0.0680123 -1.22232,0 -1.450131,-0.009839 -1.470677,-0.06335 z m 2.788537,-0.14444095 c -0.02145,-0.0420971 -0.06589,-0.13561585 -0.09873,-0.20779393 -0.03285,-0.0721751 -0.07181,-0.14108045 -0.08659,-0.15311013 -0.01483,-0.0121099 -0.09201,-0.14982985 -0.171612,-0.30622327 -0.242348,-0.47609966 -0.390814,-0.76224016 -0.43126,-0.83117426 -0.02116,-0.036087 -0.09484,-0.1837346 -0.163705,-0.3280968 -0.06886,-0.1443653 -0.169534,-0.3359077 -0.223717,-0.4256542 -0.05418,-0.08975 -0.101193,-0.2177059 -0.104463,-0.2843498 -0.0059,-0.118223 -0.0065,-0.1185106 -0.02607,-0.011807 -0.01105,0.060156 -0.03577,0.1290463 -0.05492,0.1531147 -0.06417,0.080637 -0.394267,0.7326495 -0.394267,0.7787444 0,0.025052 -0.02667,0.076625 -0.05925,0.1146051 -0.03259,0.03798 -0.113516,0.177336 -0.179845,0.3096686 -0.06633,0.132331 -0.137795,0.2701327 -0.158824,0.3062202 -0.02104,0.036088 -0.06768,0.13112014 -0.103691,0.21116813 -0.036,0.0800465 -0.124869,0.23360318 -0.197508,0.34122546 -0.07263,0.10762682 -0.132059,0.22028076 -0.132059,0.25035269 0,0.0300629 -0.02363,0.0783057 -0.0525,0.1071727 -0.04083,0.0408255 0.250894,0.0524965 1.312755,0.0524965 1.285934,0 1.362982,-0.00439 1.326236,-0.0765498 z M 46.785455,0.0987334 v -2.5163665 h 0.831533 0.831535 l -0.01135,2.50446548 -0.01135,2.50446242 -0.820238,0.011958 -0.820239,0.011959 z m 1.530373,-0.02284232 -0.0021,-2.40603468 h -0.725485 -0.725488 l 0.02638,0.098423 c 0.01453,0.054131 0.02664,1.1368526 0.02697,2.40603467 l 6.71e-4,2.30760823 h 0.700622 0.700629 l -0.0021,-2.40603455 z M 46.805079,-3.0857853 c -0.01211,-0.031728 -0.01665,-0.342223 -0.01,-0.6899923 l 0.01211,-0.6323072 h 0.809303 0.809303 v 0.6780645 0.6780625 l -0.79936,0.011959 c -0.629847,0.00939 -0.804052,-3.164e-4 -0.821493,-0.04576 z m 1.511488,-0.644235 v -0.5686996 h -0.712435 -0.712437 l 0.01256,0.5526494 c 0.0068,0.3039557 0.01256,0.5598683 0.01256,0.5686965 0,0.00878 0.314972,0.016061 0.699937,0.016061 h 0.699939 z M 19.772244,-5.4163709 c -0.264665,-0.030956 -0.569794,-0.079426 -0.678066,-0.1076874 -0.108278,-0.028262 -0.264919,-0.062048 -0.348108,-0.075066 -0.08319,-0.013018 -0.211146,-0.05731 -0.28435,-0.098423 -0.07321,-0.041113 -0.206088,-0.088433 -0.295299,-0.1051594 -0.0892,-0.016727 -0.217164,-0.059081 -0.284346,-0.094124 -0.06718,-0.035043 -0.157222,-0.063834 -0.200082,-0.063986 -0.04285,-1.302e-4 -0.08905,-0.029276 -0.102647,-0.064697 -0.01362,-0.035437 -0.09201,-0.077049 -0.174225,-0.092474 -0.08223,-0.015425 -0.163989,-0.051376 -0.181697,-0.07988 -0.01771,-0.028504 -0.146545,-0.1070213 -0.286314,-0.1744781 -0.139764,-0.067452 -0.305046,-0.1698445 -0.367294,-0.227533 -0.06225,-0.057689 -0.139143,-0.104887 -0.170863,-0.104887 -0.03173,0 -0.07823,-0.038373 -0.103328,-0.085269 -0.02508,-0.046896 -0.09272,-0.1108814 -0.150254,-0.1421703 -0.222059,-0.1207661 -0.808359,-0.6304177 -0.832922,-0.7240318 -0.01423,-0.054131 -0.04345,-0.098423 -0.06499,-0.098423 -0.08238,0 -0.561422,-0.5325409 -0.702859,-0.7813586 -0.03609,-0.063486 -0.09022,-0.1311806 -0.120297,-0.1504202 -0.03009,-0.01924 -0.05469,-0.055766 -0.05469,-0.081182 0,-0.025401 -0.04921,-0.1046751 -0.109368,-0.1761674 -0.06016,-0.071479 -0.109368,-0.1654229 -0.109368,-0.2087522 0,-0.043323 -0.02604,-0.1003911 -0.05785,-0.1267907 -0.03182,-0.026415 -0.142322,-0.2207576 -0.245551,-0.4318818 -0.103237,-0.2111259 -0.205155,-0.4180482 -0.226496,-0.4598292 -0.02134,-0.04178 -0.0388,-0.112319 -0.0388,-0.156756 0,-0.04443 -0.01408,-0.09482 -0.03117,-0.111972 -0.06014,-0.06014 -0.187486,-0.443981 -0.187521,-0.565214 -2.2e-5,-0.06736 -0.02655,-0.175632 -0.05894,-0.240603 -0.03239,-0.06497 -0.09356,-0.376901 -0.135918,-0.693176 -0.118238,-0.88284 -0.04653,-2.418921 0.130711,-2.800014 0.03525,-0.07582 0.06411,-0.186075 0.06411,-0.245012 0,-0.123279 0.06791,-0.355131 0.150541,-0.513934 0.0313,-0.06016 0.0698,-0.18119 0.08557,-0.268973 0.01577,-0.08778 0.06367,-0.205902 0.106461,-0.262479 0.04278,-0.05657 0.133406,-0.230824 0.201379,-0.387215 0.06798,-0.156393 0.150572,-0.315428 0.183545,-0.353414 0.03297,-0.03798 0.05994,-0.09045 0.05994,-0.116588 0,-0.04469 0.09814,-0.175972 0.273416,-0.365769 0.0421,-0.04559 0.06621,-0.08291 0.05356,-0.08291 -0.01272,0 0.0076,-0.05905 0.04487,-0.131241 0.03733,-0.07218 0.08444,-0.131241 0.104675,-0.131241 0.02024,0 0.08598,-0.07382 0.146075,-0.164048 0.157323,-0.236183 1.088834,-1.152956 1.324996,-1.304035 0.07169,-0.04587 0.152852,-0.113258 0.180365,-0.149769 0.02749,-0.03651 0.247337,-0.164808 0.488504,-0.28511 0.250291,-0.124853 0.447672,-0.251588 0.4599,-0.295286 0.01181,-0.04211 0.06147,-0.07655 0.110427,-0.07655 0.04895,0 0.100225,-0.01815 0.113939,-0.04034 0.01377,-0.02219 0.157595,-0.08386 0.319741,-0.137054 0.162147,-0.05319 0.322165,-0.11848 0.355597,-0.145077 0.07399,-0.05885 0.380319,-0.148422 0.704771,-0.206091 0.252128,-0.04481 0.486721,-0.108081 0.634319,-0.171066 0.304959,-0.130151 2.806453,-0.130212 2.974735,-8.8e-5 0.02408,0.0186 0.191388,0.0665 0.371838,0.106431 0.180453,0.03993 0.428258,0.101179 0.550672,0.136085 0.122416,0.03492 0.258049,0.06349 0.301401,0.06349 0.04335,0 0.100679,0.02638 0.127396,0.05861 0.0267,0.03224 0.146999,0.09314 0.267301,0.135358 0.469648,0.164766 0.678062,0.261918 0.678062,0.316069 0,0.03106 0.08366,0.09688 0.185921,0.146272 0.276878,0.133724 0.589922,0.317684 0.692294,0.406825 0.201163,0.175161 0.362232,0.166122 0.544545,-0.03056 0.06391,-0.06895 0.17126,-0.132044 0.56769,-0.333622 0.192481,-0.09788 0.342394,-0.191114 0.333135,-0.207196 -0.0092,-0.01609 0.01044,-0.04192 0.04375,-0.05743 0.03332,-0.01552 0.11963,-0.05793 0.191815,-0.09429 0.07217,-0.03636 0.233074,-0.0993 0.35754,-0.139854 0.12446,-0.04055 0.249909,-0.102193 0.278769,-0.136964 0.02887,-0.03477 0.09435,-0.06312 0.145546,-0.063 0.05119,1.18e-4 0.18166,-0.02797 0.289932,-0.06243 0.108278,-0.03445 0.354344,-0.096 0.546825,-0.136766 0.192484,-0.04077 0.369655,-0.08914 0.393714,-0.107491 0.161219,-0.122946 2.861973,-0.125655 2.952864,-0.0029 0.01211,0.01624 0.179356,0.06461 0.37184,0.107491 0.192481,0.04288 0.438556,0.105961 0.546828,0.140172 0.108262,0.03421 0.234679,0.06211 0.280906,0.06199 0.04623,-1.18e-4 0.11512,0.0269 0.15311,0.06005 0.03798,0.03315 0.197019,0.104342 0.353411,0.158207 0.156393,0.05386 0.303052,0.115332 0.325908,0.136585 0.02287,0.02125 0.07883,0.03865 0.124399,0.03865 0.04556,0 0.09254,0.03704 0.104372,0.08233 0.01181,0.04528 0.09367,0.112895 0.181826,0.150254 0.259249,0.109852 0.682386,0.351815 0.720231,0.411855 0.01922,0.03052 0.09325,0.08563 0.16444,0.122446 0.143805,0.07436 0.275075,0.03401 0.382692,-0.117633 0.03146,-0.04431 0.08394,-0.08055 0.116663,-0.08055 0.03273,0 0.06604,-0.01576 0.07408,-0.03501 0.008,-0.01926 0.162223,-0.110518 0.342675,-0.202823 0.180453,-0.09229 0.343478,-0.194013 0.362273,-0.226029 0.03904,-0.06648 0.296441,-0.186682 0.645243,-0.301303 0.131589,-0.04325 0.254995,-0.105311 0.274234,-0.137932 0.01922,-0.03262 0.08282,-0.05932 0.141292,-0.05932 0.05846,0 0.180522,-0.02785 0.271239,-0.0619 0.09072,-0.03404 0.253518,-0.07419 0.36179,-0.08922 0.188528,-0.02616 0.403243,-0.08373 0.590571,-0.158333 0.31901,-0.127048 2.807577,-0.123823 2.974736,0.0039 0.02407,0.01838 0.191388,0.06609 0.371842,0.106022 0.180453,0.03993 0.428255,0.101163 0.550671,0.136085 0.122416,0.03492 0.248822,0.06349 0.280906,0.06349 0.03208,0 0.0894,0.0254 0.127396,0.05643 0.05767,0.04714 0.567295,0.259703 0.845555,0.352695 0.04211,0.01408 0.07655,0.0544 0.07655,0.08963 0,0.03523 0.03992,0.07672 0.08869,0.09219 0.108611,0.03447 0.711525,0.382139 0.906811,0.522909 0.170715,0.123067 0.240465,0.109912 0.469989,-0.08857 0.09624,-0.08322 0.214354,-0.163829 0.262476,-0.179109 0.04812,-0.01527 0.160922,-0.07413 0.250667,-0.130756 0.08975,-0.05664 0.193101,-0.10298 0.229669,-0.10298 0.03657,0 0.06648,-0.03023 0.06648,-0.06718 0,-0.06781 0.20656,-0.172042 0.651524,-0.328734 0.129757,-0.0457 0.26911,-0.113106 0.309664,-0.149814 0.04055,-0.03669 0.111547,-0.06663 0.15778,-0.06651 0.04623,1.19e-4 0.172634,-0.02778 0.280906,-0.06199 0.108277,-0.03421 0.354343,-0.09679 0.546827,-0.139052 0.192481,-0.04228 0.369654,-0.09061 0.393714,-0.107415 0.175484,-0.122582 2.761779,-0.123551 2.930989,-0.0012 0.02404,0.01741 0.20123,0.06667 0.393714,0.109474 0.558102,0.124081 0.82185,0.198315 0.960672,0.270376 0.07122,0.03698 0.248395,0.107566 0.393714,0.156863 0.145319,0.0493 0.282919,0.1069 0.305778,0.128002 0.02287,0.02109 0.07699,0.03836 0.120297,0.03836 0.07065,0 0.09883,0.04776 0.08392,0.14217 -0.0029,0.01804 0.01545,0.0328 0.04067,0.0328 0.02522,0 0.118723,0.03647 0.207794,0.08103 0.470484,0.23544 0.650743,0.34333 0.722871,0.432662 0.04385,0.05431 0.102904,0.09918 0.131241,0.09971 0.02832,5.08e-4 0.181692,0.126352 0.340811,0.279608 0.15911,0.153252 0.331363,0.301153 0.382776,0.328669 0.05141,0.02752 0.09347,0.06679 0.09347,0.08725 0,0.02048 0.113197,0.158692 0.25154,0.307154 0.385503,0.413686 0.516648,0.578722 0.598149,0.752741 0.04113,0.08781 0.131983,0.215768 0.201904,0.28435 0.06992,0.06857 0.127669,0.156091 0.128335,0.194465 5.16e-4,0.03837 0.04057,0.105402 0.08872,0.148952 0.04814,0.04355 0.08749,0.105341 0.08749,0.137327 0,0.0539 0.153339,0.384612 0.321713,0.693854 0.03928,0.07217 0.07158,0.171594 0.07172,0.220918 0,0.04932 0.01593,0.108383 0.0351,0.131241 0.04649,0.05548 0.129954,0.307383 0.181229,0.546933 0.02289,0.107006 0.0607,0.28315 0.08397,0.39142 0.113879,0.529826 0.145289,0.978871 0.123945,1.771717 -0.01226,0.457146 -0.04123,0.950371 -0.06427,1.096055 -0.04753,0.300216 -0.17957,0.872388 -0.231698,1.003758 -0.01912,0.04812 -0.05978,0.166233 -0.0904,0.262476 -0.03062,0.09624 -0.08115,0.206063 -0.112259,0.244048 -0.03108,0.03798 -0.05657,0.100013 -0.05657,0.137826 0,0.0632 -0.161802,0.3950819 -0.448698,0.920378 -0.06267,0.1147263 -0.174354,0.2848947 -0.248202,0.3781365 -0.07386,0.093246 -0.134269,0.1913047 -0.134269,0.2179178 0,0.026611 -0.01969,0.048394 -0.04376,0.048394 -0.02407,0 -0.04376,0.020208 -0.04376,0.044913 0,0.052512 -0.19762,0.2850945 -0.491644,0.5786115 -0.11456,0.114363 -0.208292,0.2272742 -0.208292,0.2509128 0,0.023645 -0.137811,0.146106 -0.306225,0.2721399 -0.168421,0.1260339 -0.306223,0.2428294 -0.306223,0.2595351 0,0.016712 -0.07383,0.075369 -0.164044,0.1303783 -0.09023,0.054994 -0.189773,0.1353433 -0.221213,0.1785515 -0.03146,0.043202 -0.08619,0.078563 -0.121674,0.078563 -0.03548,0 -0.07605,0.030063 -0.09014,0.066816 -0.01408,0.036738 -0.175888,0.1392791 -0.359532,0.2278494 -0.183639,0.088569 -0.349638,0.1864654 -0.36888,0.2175424 -0.01922,0.031077 -0.07337,0.056493 -0.120297,0.056493 -0.04693,0 -0.124687,0.039372 -0.172811,0.087494 -0.04812,0.048122 -0.121947,0.08816 -0.164047,0.088977 -0.04211,9.279e-4 -0.155299,0.039524 -0.25154,0.086011 -0.09624,0.046487 -0.20965,0.085193 -0.252016,0.086011 -0.04237,9.279e-4 -0.160484,0.038086 -0.262476,0.082817 -0.456806,0.2003373 -1.532384,0.3541089 -2.482115,0.3548582 -0.544023,6.191e-4 -1.505539,-0.090522 -1.881084,-0.1779506 -0.108263,-0.025219 -0.265757,-0.05678 -0.349967,-0.070192 -0.08421,-0.013472 -0.162956,-0.036981 -0.174986,-0.052406 -0.03519,-0.045125 -0.260004,-0.1355099 -0.341092,-0.1371144 -0.04098,-9.279e-4 -0.153239,-0.039524 -0.249479,-0.086011 -0.09624,-0.046487 -0.209435,-0.085193 -0.251541,-0.086011 -0.04211,-9.279e-4 -0.115922,-0.040856 -0.164047,-0.088978 -0.04812,-0.048122 -0.126866,-0.087494 -0.174985,-0.087494 -0.04812,0 -0.08749,-0.017332 -0.08749,-0.03854 0,-0.021192 -0.152565,-0.113485 -0.339032,-0.2050919 -0.186469,-0.091611 -0.364755,-0.2022234 -0.396197,-0.2458145 -0.03144,-0.043596 -0.08487,-0.079259 -0.118768,-0.079259 -0.03388,0 -0.08123,-0.036663 -0.10522,-0.081485 -0.02399,-0.044822 -0.102162,-0.1057347 -0.173702,-0.1353737 -0.11079,-0.045897 -0.149981,-0.042127 -0.264147,0.02531 -0.07373,0.04355 -0.134057,0.095108 -0.134057,0.11459 0,0.019482 -0.04921,0.054116 -0.109367,0.076974 -0.06016,0.022873 -0.109368,0.059868 -0.109368,0.082226 0,0.022373 -0.142715,0.113818 -0.317158,0.2032452 -0.174438,0.089432 -0.348236,0.1897441 -0.38622,0.2229177 -0.038,0.033166 -0.101194,0.060307 -0.140475,0.060307 -0.03928,0 -0.106628,0.034937 -0.149664,0.077655 -0.04305,0.042703 -0.225904,0.1239298 -0.406355,0.1804755 -0.180454,0.056553 -0.396998,0.1327246 -0.481209,0.1692829 -0.08421,0.036557 -0.226933,0.083301 -0.31716,0.1038728 -0.09022,0.020587 -0.247711,0.057174 -0.349968,0.081333 -0.368832,0.087131 -1.291151,0.1739377 -1.848272,0.1739528 -0.582961,1.52e-5 -1.56904,-0.093504 -1.881084,-0.1784077 -0.09624,-0.026203 -0.243803,-0.058339 -0.32792,-0.071448 -0.08412,-0.01317 -0.192385,-0.04956 -0.240602,-0.08097 -0.04823,-0.031425 -0.166412,-0.076928 -0.262652,-0.1011329 -0.275261,-0.069223 -0.602456,-0.1957506 -0.720605,-0.2786854 -0.05949,-0.041764 -0.143154,-0.075929 -0.185922,-0.075929 -0.04276,0 -0.07776,-0.019966 -0.07776,-0.044307 0,-0.024356 -0.113197,-0.097394 -0.251541,-0.1622819 -0.138355,-0.064879 -0.258103,-0.133542 -0.266119,-0.1525455 -0.008,-0.019013 -0.04266,-0.034574 -0.07699,-0.034574 -0.03432,0 -0.09611,-0.039372 -0.137311,-0.087494 -0.0412,-0.048122 -0.09938,-0.087494 -0.129274,-0.087494 -0.02991,0 -0.07299,-0.034453 -0.09577,-0.07655 -0.02278,-0.042112 -0.09997,-0.1107906 -0.171552,-0.152647 -0.114711,-0.067074 -0.136554,-0.06836 -0.184213,-0.010899 -0.02974,0.035845 -0.07646,0.065151 -0.103812,0.065151 -0.02737,0 -0.07433,0.039372 -0.104372,0.087494 -0.03006,0.048122 -0.08189,0.087494 -0.115211,0.087494 -0.03332,0 -0.07124,0.027807 -0.0843,0.061836 -0.01302,0.034014 -0.177563,0.1369479 -0.365585,0.228741 -0.188021,0.091793 -0.357602,0.191933 -0.376843,0.2225181 -0.01922,0.030577 -0.07337,0.055615 -0.120297,0.055615 -0.04693,0 -0.124687,0.039372 -0.17281,0.087494 -0.04812,0.048122 -0.111714,0.087494 -0.141323,0.087494 -0.02962,0 -0.152644,0.037692 -0.273416,0.083755 -0.120766,0.046063 -0.303236,0.1082626 -0.405492,0.1382346 -0.102253,0.029972 -0.185921,0.071025 -0.185921,0.091233 0,0.020208 -0.07758,0.036738 -0.172404,0.036738 -0.09482,0 -0.182931,0.017045 -0.195795,0.037859 -0.05378,0.087025 -1.279375,0.2227935 -2.015966,0.2233355 -0.954481,6.191e-4 -2.065943,-0.1571791 -2.496399,-0.3545994 -0.09782,-0.044867 -0.208394,-0.081575 -0.245707,-0.081575 -0.05731,0 -0.297959,-0.083725 -0.560721,-0.1950921 -0.03609,-0.015289 -0.144365,-0.075626 -0.240607,-0.1340718 -0.09624,-0.058446 -0.283254,-0.1600688 -0.415586,-0.2258196 -0.132332,-0.065757 -0.247167,-0.1351012 -0.255185,-0.1541152 -0.008,-0.018997 -0.04512,-0.034574 -0.08247,-0.034574 -0.03734,0 -0.113348,-0.044292 -0.168887,-0.098438 -0.2369,-0.2308845 -0.394033,-0.3390306 -0.492598,-0.3390306 -0.0376,0 -0.306087,0.2008126 -0.48822,0.3651577 -0.03609,0.03256 -0.198215,0.1237784 -0.360276,0.2026911 -0.162061,0.078911 -0.317036,0.170444 -0.344389,0.2034041 -0.02737,0.032954 -0.0742,0.059914 -0.1041,0.059914 -0.02991,0 -0.101315,0.034877 -0.158691,0.077503 -0.05739,0.042627 -0.251968,0.1234605 -0.432422,0.1796369 -0.180453,0.056175 -0.406839,0.1378107 -0.503084,0.1814382 -0.09624,0.043611 -0.234039,0.089523 -0.30622,0.102026 -0.07217,0.012564 -0.219822,0.043126 -0.328097,0.068088 -0.738429,0.1701896 -2.107253,0.2201611 -3.04035,0.1110024 z m 2.022444,-0.1059163 c 0.162854,-0.023342 0.433899,-0.061564 0.602321,-0.084966 0.45453,-0.063138 0.600641,-0.092277 0.72181,-0.1439263 0.06016,-0.025628 0.14874,-0.06332 0.196855,-0.083725 0.04812,-0.020405 0.166236,-0.056205 0.262477,-0.079532 0.264444,-0.064092 0.503083,-0.151943 0.503083,-0.1851923 0,-0.016318 0.06891,-0.05239 0.153109,-0.080183 0.08421,-0.027777 0.153111,-0.068694 0.153111,-0.090885 0,-0.022207 0.02265,-0.040356 0.05032,-0.040356 0.06659,0 0.536168,-0.2313946 0.554838,-0.2734129 0.008,-0.018059 0.03305,-0.032803 0.05563,-0.032803 0.02258,0 0.163653,-0.094457 0.313512,-0.2098919 0.396415,-0.305362 0.480361,-0.3338763 0.679019,-0.2306545 0.153625,0.079819 0.330148,0.2070583 0.489823,0.3530523 0.10578,0.096713 0.332523,0.2187323 0.406472,0.2187323 0.03545,0 0.0879,0.028261 0.116573,0.062805 0.02867,0.034543 0.109822,0.07549 0.180343,0.090976 0.07052,0.015486 0.128213,0.044958 0.128213,0.065484 0,0.020526 0.03925,0.049787 0.08724,0.065 0.04797,0.015243 0.111956,0.050998 0.142171,0.079502 0.03021,0.028504 0.173052,0.088614 0.317414,0.1335874 0.531964,0.1657272 0.700449,0.2243724 0.721813,0.2512504 0.01211,0.015137 0.09078,0.038086 0.174983,0.050983 0.08421,0.012867 0.281068,0.044625 0.437462,0.070464 0.663624,0.1096855 1.188289,0.1458033 1.771717,0.1219619 0.968025,-0.039554 1.612786,-0.1240508 1.924825,-0.2522251 0.335331,-0.1377351 0.438217,-0.1710994 0.527716,-0.1710994 0.0558,0 0.112547,-0.017968 0.126125,-0.039948 0.01362,-0.021979 0.103328,-0.053223 0.199441,-0.069465 0.09612,-0.016258 0.174755,-0.046411 0.174755,-0.067043 0,-0.039842 0.06633,-0.078699 0.469017,-0.2747042 0.139037,-0.067679 0.282323,-0.1415497 0.318413,-0.1641528 0.03609,-0.022615 0.109913,-0.060247 0.164047,-0.083664 0.05413,-0.023418 0.09842,-0.062729 0.09842,-0.087388 0,-0.024644 0.0205,-0.044822 0.04558,-0.044822 0.02505,0 0.08904,-0.041037 0.142171,-0.091188 0.181264,-0.1711236 0.464607,-0.3129685 0.57155,-0.2861299 0.05593,0.014078 0.2574,0.1462423 0.447697,0.2937713 0.305041,0.2364974 0.817083,0.5210121 0.937655,0.5210121 0.02348,0 0.04266,0.019331 0.04266,0.042915 0,0.023599 0.04945,0.055327 0.109928,0.070495 0.06046,0.015168 0.124429,0.05009 0.14217,0.077579 0.01774,0.027505 0.15036,0.086707 0.294725,0.1315741 0.526839,0.1637472 0.70039,0.2241121 0.721813,0.2510611 0.01211,0.015137 0.09078,0.038086 0.174986,0.050983 0.08421,0.012867 0.281065,0.044216 0.437459,0.069571 0.879016,0.1425034 1.804618,0.1790571 2.394285,0.094563 0.162852,-0.023342 0.443742,-0.063365 0.624194,-0.088963 0.633155,-0.089795 0.67824,-0.098257 0.699938,-0.1312563 0.02938,-0.044701 0.419316,-0.1748156 0.523901,-0.1748156 0.04587,0 0.09461,-0.01818 0.108338,-0.040371 0.01378,-0.022207 0.0859,-0.053768 0.160391,-0.070132 0.07449,-0.016379 0.207148,-0.078563 0.294787,-0.1382195 0.08764,-0.059656 0.267617,-0.1577679 0.399949,-0.2180192 0.458336,-0.2086916 0.539815,-0.2557008 0.677193,-0.3907217 0.07591,-0.074612 0.230722,-0.1899757 0.34401,-0.2563698 0.187945,-0.1101396 0.218344,-0.1158162 0.347011,-0.064833 0.133164,0.052769 0.519154,0.3329574 0.548145,0.3978968 0.0074,0.0165 0.258369,0.1534386 0.557762,0.304272 0.2994,0.1508441 0.544359,0.2902276 0.544359,0.3097564 0,0.019542 0.03445,0.035633 0.07655,0.03577 0.04211,1.332e-4 0.12779,0.02702 0.190422,0.059687 0.06264,0.032682 0.204894,0.073068 0.31614,0.08975 0.111245,0.016697 0.213735,0.048879 0.227746,0.071554 0.01408,0.022676 0.06368,0.041219 0.110382,0.041219 0.0467,0 0.08491,0.019709 0.08491,0.043747 0,0.024038 0.07481,0.043747 0.166236,0.043747 0.09143,0 0.185799,0.019573 0.209705,0.043475 0.0693,0.069299 1.027591,0.1496028 1.789491,0.1499661 0.74015,3.164e-4 1.58267,-0.071933 1.724748,-0.147968 0.04673,-0.025022 0.155158,-0.045473 0.240952,-0.045473 0.08578,0 0.155985,-0.014835 0.155985,-0.032818 0,-0.018059 0.123036,-0.068542 0.273414,-0.1121832 0.150375,-0.043656 0.33247,-0.099786 0.404651,-0.1247321 0.07218,-0.024931 0.178372,-0.056039 0.235972,-0.069102 0.0576,-0.013018 0.137493,-0.056493 0.177517,-0.096531 0.06223,-0.06223 0.494258,-0.2899037 0.702037,-0.3699729 0.114272,-0.044035 0.241974,-0.1352677 0.503079,-0.3594357 0.07218,-0.061972 0.184394,-0.1402177 0.249365,-0.1738862 0.06497,-0.033666 0.133875,-0.085829 0.153112,-0.1158919 0.01922,-0.030078 0.132831,-0.1230064 0.252425,-0.2065027 0.228237,-0.1593618 0.373132,-0.2891861 0.373132,-0.3343258 0,-0.014683 0.1498,-0.1766064 0.332871,-0.359687 0.183079,-0.1830792 0.350364,-0.372793 0.37174,-0.4215853 0.04915,-0.1121832 0.139279,-0.2567695 0.178621,-0.2865265 0.04387,-0.033181 0.226192,-0.3068091 0.30573,-0.4588233 0.03763,-0.071933 0.123067,-0.2292209 0.189857,-0.3495238 0.22146,-0.3989289 0.239244,-0.4369152 0.239516,-0.5114352 0,-0.04069 0.01871,-0.08534 0.04119,-0.09926 0.05508,-0.03404 0.219662,-0.470258 0.289499,-0.767306 0.03108,-0.132331 0.08737,-0.348874 0.125035,-0.481207 0.03768,-0.132331 0.06871,-0.307881 0.069,-0.39011 5.17e-4,-0.08223 0.03324,-0.377039 0.07325,-0.655134 0.06785,-0.471674 0.06783,-0.543891 -5.14e-4,-1.075386 -0.0401,-0.313365 -0.08095,-0.648499 -0.09073,-0.74474 -0.03618,-0.356464 -0.398231,-1.549493 -0.501562,-1.652817 -0.02664,-0.0269 -0.04871,-0.08435 -0.04871,-0.127654 0,-0.04331 -0.01483,-0.07875 -0.03304,-0.07875 -0.0182,0 -0.06001,-0.06397 -0.09293,-0.14217 -0.175848,-0.41758 -0.280003,-0.587726 -0.519251,-0.848264 -0.05413,-0.05895 -0.09842,-0.135147 -0.09842,-0.169303 0,-0.05537 -0.475707,-0.630577 -0.732752,-0.886005 -0.05413,-0.0538 -0.09842,-0.117496 -0.09842,-0.14155 0,-0.02407 -0.01971,-0.04375 -0.04375,-0.04375 -0.0502,0 -0.101618,-0.04238 -0.448252,-0.369332 -0.138265,-0.130424 -0.290831,-0.249641 -0.339033,-0.264939 -0.0482,-0.01529 -0.08763,-0.04617 -0.08763,-0.06862 0,-0.02243 -0.0205,-0.04079 -0.04558,-0.04079 -0.02505,0 -0.08463,-0.03639 -0.132392,-0.08088 -0.04774,-0.04447 -0.243774,-0.157201 -0.435628,-0.250488 -0.191857,-0.09329 -0.349164,-0.189776 -0.349575,-0.214413 -9.28e-4,-0.04844 -0.416669,-0.241463 -0.524205,-0.243311 -0.03609,-6.71e-4 -0.103827,-0.03003 -0.150526,-0.06535 -0.0467,-0.03533 -0.13881,-0.06423 -0.204671,-0.06423 -0.06586,0 -0.14927,-0.02952 -0.185358,-0.06561 -0.08583,-0.08583 -1.164042,-0.32811 -1.460159,-0.32811 -0.126685,0 -0.230328,-0.01968 -0.230328,-0.04375 0,-0.05931 -1.603824,-0.05931 -1.640479,0 -0.01484,0.02407 -0.129531,0.04375 -0.254781,0.04375 -0.310811,0 -1.396088,0.248173 -1.441701,0.329677 -0.01971,0.03523 -0.08899,0.06415 -0.153964,0.0643 -0.06497,1.5e-4 -0.174513,0.02967 -0.24343,0.06562 -0.06892,0.03594 -0.150632,0.06535 -0.181578,0.06535 -0.08731,0 -0.507809,0.204561 -0.500537,0.243505 0.0068,0.03669 -0.509537,0.325195 -0.582081,0.325195 -0.02342,0 -0.112789,0.06166 -0.1986,0.136993 -0.08581,0.07534 -0.253548,0.182176 -0.372746,0.2374 l -0.216723,0.100406 -0.157978,-0.106264 c -0.08689,-0.05845 -0.198162,-0.123854 -0.247273,-0.145349 -0.04898,-0.02149 -0.11512,-0.07036 -0.146847,-0.108581 -0.03173,-0.03822 -0.149028,-0.111623 -0.260678,-0.163101 -0.350673,-0.161687 -0.464093,-0.22393 -0.509996,-0.279881 -0.07208,-0.08786 -0.383396,-0.240312 -0.490719,-0.240312 -0.05449,0 -0.09907,-0.01795 -0.09907,-0.0399 0,-0.02195 -0.08366,-0.05362 -0.18592,-0.07039 -0.102253,-0.01676 -0.217773,-0.05857 -0.256702,-0.0929 -0.09426,-0.0831 -0.988326,-0.284833 -1.372841,-0.309749 -0.168422,-0.0109 -0.328813,-0.03851 -0.356421,-0.06132 -0.06193,-0.05117 -1.643755,-0.04559 -1.612069,0.0056 0.01241,0.02016 -0.120252,0.04462 -0.294932,0.05434 -0.396865,0.02209 -1.13866,0.184732 -1.357913,0.297738 -0.09096,0.04688 -0.199239,0.08537 -0.240603,0.08551 -0.04137,1.48e-4 -0.131589,0.02967 -0.200511,0.06562 -0.06892,0.03594 -0.153363,0.06535 -0.18766,0.06535 -0.08392,0 -0.419495,0.173475 -0.474316,0.245194 -0.02415,0.03158 -0.205898,0.137992 -0.403892,0.236472 -0.197998,0.09848 -0.375169,0.202833 -0.393714,0.231903 -0.01856,0.02906 -0.108777,0.09203 -0.200516,0.139915 -0.09173,0.04788 -0.198135,0.121508 -0.236443,0.163614 -0.07208,0.07921 -0.16916,0.101042 -0.194626,0.04375 -0.02395,-0.05387 -0.332983,-0.273415 -0.384877,-0.273415 -0.02642,0 -0.0589,-0.02831 -0.07217,-0.0629 -0.01332,-0.03459 -0.199558,-0.147787 -0.413961,-0.251538 -0.214402,-0.103752 -0.390744,-0.208324 -0.391867,-0.232385 -0.0032,-0.06863 -0.574128,-0.306859 -0.88965,-0.371231 -0.09316,-0.01901 -0.183225,-0.05698 -0.200153,-0.08436 -0.04194,-0.06786 -0.956631,-0.269567 -1.347503,-0.297147 -0.174437,-0.01226 -0.317158,-0.0399 -0.317158,-0.06134 0,-0.05169 -1.589187,-0.0505 -1.642667,0.0013 -0.02287,0.02212 -0.169516,0.04836 -0.325909,0.05832 -0.375577,0.02393 -1.11704,0.190412 -1.324666,0.297429 -0.09096,0.04688 -0.199238,0.08537 -0.240604,0.08551 -0.04137,1.48e-4 -0.131589,0.02967 -0.200511,0.06562 -0.06892,0.03594 -0.14765,0.06518 -0.174982,0.06497 -0.08724,-6.7e-4 -0.465257,0.194287 -0.466097,0.240361 -3.16e-4,0.0244 -0.152094,0.113258 -0.336996,0.197465 -0.184903,0.08421 -0.386318,0.194761 -0.44759,0.245668 -0.06126,0.05091 -0.213316,0.155063 -0.337878,0.23146 l -0.226486,0.138901 -0.147272,-0.07893 c -0.081,-0.04341 -0.244838,-0.149391 -0.36409,-0.235518 -0.119252,-0.08612 -0.35925,-0.223659 -0.533325,-0.305637 -0.17408,-0.08198 -0.316798,-0.169872 -0.31716,-0.195318 -9.28e-4,-0.06704 -0.578901,-0.308677 -0.853703,-0.356935 -0.07217,-0.01272 -0.16077,-0.04824 -0.196859,-0.07902 -0.117996,-0.100649 -1.117866,-0.327083 -1.444343,-0.327083 -0.117072,0 -0.22501,-0.01968 -0.239881,-0.04375 -0.01641,-0.02652 -0.334981,-0.04375 -0.809303,-0.04375 -0.474323,0 -0.79291,0.01723 -0.809304,0.04375 -0.01483,0.02407 -0.132028,0.04375 -0.260368,0.04375 -0.281787,0 -1.36958,0.240277 -1.465096,0.323616 -0.03747,0.0327 -0.127184,0.06944 -0.199362,0.08164 -0.297373,0.0503 -0.772089,0.261443 -0.919707,0.409062 -0.05835,0.05835 -0.165209,0.117921 -0.237468,0.132362 -0.07225,0.01438 -0.153912,0.05344 -0.181458,0.08662 -0.02757,0.0332 -0.07569,0.06035 -0.106991,0.06035 -0.0313,0 -0.115392,0.04921 -0.186881,0.109367 -0.07148,0.06016 -0.149633,0.109368 -0.173661,0.109368 -0.02405,0 -0.05502,0.02953 -0.06886,0.06562 -0.01378,0.03609 -0.06385,0.06562 -0.111093,0.06562 -0.04726,0 -0.09811,0.03445 -0.113001,0.07655 -0.01483,0.04211 -0.147317,0.174985 -0.294255,0.295286 -0.33322,0.272812 -0.603218,0.537488 -0.603218,0.591332 0,0.02252 -0.04697,0.07175 -0.104387,0.109367 -0.115468,0.07566 -0.464302,0.523117 -0.464302,0.59557 0,0.02525 -0.08466,0.147469 -0.188133,0.27161 -0.103479,0.124142 -0.211601,0.274921 -0.240286,0.335074 -0.0287,0.06016 -0.07034,0.138885 -0.09258,0.174984 -0.02224,0.03609 -0.07296,0.134526 -0.112728,0.21873 -0.03977,0.08421 -0.129667,0.261384 -0.199765,0.393716 -0.0701,0.132331 -0.127775,0.272649 -0.128183,0.311815 -3.17e-4,0.03916 -0.03286,0.147438 -0.07213,0.240604 -0.03927,0.09317 -0.100088,0.306867 -0.135162,0.474892 -0.03507,0.168026 -0.08528,0.345197 -0.111577,0.393714 -0.02629,0.04852 -0.06237,0.255542 -0.08014,0.460056 -0.01777,0.204513 -0.04673,0.516592 -0.06435,0.693507 -0.04196,0.421511 0.05292,1.515979 0.165517,1.909386 0.0482,0.168422 0.101511,0.398136 0.118465,0.510472 0.01695,0.112335 0.05219,0.230452 0.07832,0.262476 0.02613,0.03203 0.06839,0.127124 0.09394,0.211338 0.104872,0.345723 0.210344,0.6000551 0.302501,0.7294798 0.05368,0.075384 0.09761,0.165435 0.09761,0.2000981 0,0.034665 0.03937,0.09865 0.08749,0.1422006 0.04812,0.04355 0.08798,0.1105786 0.08857,0.1489519 6.19e-4,0.038373 0.07442,0.166042 0.164048,0.2836988 0.08963,0.1176629 0.182651,0.2460249 0.20671,0.285258 0.07664,0.1249591 0.259002,0.3721557 0.327506,0.4439266 0.03641,0.038146 0.130666,0.1417616 0.209444,0.2302563 0.07878,0.088493 0.159119,0.1608922 0.178528,0.1608922 0.01942,0 0.06291,0.051603 0.09667,0.1146809 0.03376,0.063078 0.179806,0.2039263 0.32455,0.3129957 0.144744,0.1090649 0.287023,0.227515 0.316176,0.263218 0.02914,0.035694 0.09152,0.086798 0.138613,0.1135304 0.25235,0.1433208 0.483449,0.3176581 0.484852,0.3657768 9.28e-4,0.030063 0.0345,0.054676 0.07472,0.054676 0.04021,0 0.104191,0.025567 0.142171,0.056826 0.03798,0.031274 0.177336,0.105008 0.309667,0.1638955 0.132331,0.058884 0.266616,0.1317558 0.298412,0.1619095 0.03179,0.030154 0.08495,0.054828 0.118132,0.054828 0.03317,0 0.07607,0.026642 0.0953,0.059233 0.01922,0.032576 0.0842,0.06995 0.14435,0.083059 0.06016,0.013018 0.168422,0.043808 0.240603,0.068239 0.07218,0.024417 0.244434,0.078835 0.382781,0.1209023 0.13834,0.042067 0.251538,0.090991 0.251538,0.1087318 0,0.017741 0.08366,0.04299 0.18592,0.056114 0.102253,0.01317 0.313878,0.044428 0.470272,0.069556 0.828405,0.1330728 1.797723,0.1708769 2.350541,0.091672 z m -1.705284,-1.5177743 c -0.138341,-0.010445 -0.251543,-0.035058 -0.251543,-0.054646 0,-0.019588 -0.09258,-0.048303 -0.205741,-0.063819 -0.222633,-0.030517 -0.321939,-0.056447 -0.756671,-0.197605 -0.156394,-0.050786 -0.319697,-0.092323 -0.362893,-0.092323 -0.0432,4.5e-6 -0.124172,-0.044292 -0.179937,-0.098423 -0.05577,-0.054131 -0.276339,-0.1857978 -0.490157,-0.2925845 -0.213818,-0.1067942 -0.420599,-0.2298234 -0.459514,-0.273413 -0.03892,-0.043596 -0.084,-0.079259 -0.100194,-0.079259 -0.07508,0 -0.505963,-0.3633503 -0.508149,-0.4285122 -6.19e-4,-0.016954 -0.08044,-0.089583 -0.177486,-0.1613963 -0.09705,-0.071812 -0.252479,-0.2293012 -0.345409,-0.3499673 -0.09293,-0.1206753 -0.219762,-0.2765934 -0.281851,-0.3465024 -0.06209,-0.069904 -0.112894,-0.1445923 -0.112894,-0.1659557 0,-0.021374 -0.04921,-0.091929 -0.109368,-0.1567976 -0.06016,-0.064864 -0.109368,-0.1600272 -0.109368,-0.2114645 0,-0.05144 -0.0307,-0.118995 -0.06824,-0.150148 -0.122507,-0.101678 -0.435642,-0.82201 -0.502991,-1.1571 -0.01936,-0.09624 -0.07791,-0.312784 -0.130151,-0.481207 -0.08285,-0.267127 -0.09555,-0.415132 -0.09948,-1.159273 -0.0044,-0.838815 0.01989,-1.057481 0.168093,-1.509238 0.03155,-0.09624 0.07068,-0.243885 0.08689,-0.328097 0.01623,-0.08421 0.06956,-0.241697 0.118525,-0.349967 0.04895,-0.108278 0.137357,-0.305129 0.196424,-0.437463 0.05907,-0.132331 0.125474,-0.270131 0.147575,-0.306222 0.02209,-0.03609 0.0538,-0.09515 0.07045,-0.131241 0.01667,-0.03609 0.07558,-0.114635 0.130954,-0.174537 0.05537,-0.0599 0.100679,-0.124687 0.100679,-0.143941 0,-0.04249 0.158903,-0.265624 0.29982,-0.421024 0.236944,-0.261296 0.511344,-0.529131 0.5421,-0.529131 0.01815,0 0.033,-0.02685 0.033,-0.05967 0,-0.03282 0.08366,-0.116482 0.185921,-0.185922 0.102253,-0.06944 0.244502,-0.179684 0.316105,-0.244987 0.0716,-0.0653 0.199557,-0.153889 0.284349,-0.196857 0.208194,-0.105507 0.544465,-0.327222 0.562463,-0.370861 0.008,-0.01945 0.04022,-0.03535 0.07156,-0.03535 0.03133,0 0.113364,-0.02941 0.182275,-0.06535 0.06892,-0.03594 0.165656,-0.06547 0.214981,-0.06562 0.04932,-1.48e-4 0.108566,-0.01915 0.131635,-0.04222 0.02307,-0.02307 0.169731,-0.0744 0.325909,-0.114075 0.156177,-0.03968 0.303646,-0.08716 0.327705,-0.105523 0.02408,-0.01838 0.152019,-0.05922 0.28435,-0.09076 0.132331,-0.03155 0.259305,-0.07346 0.282161,-0.09313 0.05678,-0.04886 2.080127,-0.04575 2.080127,0.0032 0,0.02143 0.06398,0.05003 0.14217,0.06355 0.321849,0.05564 0.42652,0.08413 0.42652,0.116073 0,0.01851 0.148407,0.06862 0.329801,0.111336 0.181392,0.04272 0.340037,0.09423 0.35255,0.114469 0.01256,0.02025 0.06588,0.03693 0.118601,0.03709 0.05271,1.49e-4 0.152231,0.02967 0.22115,0.06562 0.06892,0.03594 0.142519,0.06535 0.163546,0.06535 0.03412,0 0.124898,0.06539 0.273796,0.197196 0.0274,0.02425 0.164436,0.103328 0.304547,0.175729 0.140112,0.0724 0.28641,0.183822 0.325105,0.247594 0.0668,0.110094 0.06494,0.123309 -0.03691,0.261732 -0.05899,0.08018 -0.136388,0.204839 -0.171993,0.27702 -0.0356,0.07218 -0.09647,0.155061 -0.135252,0.18418 -0.03878,0.02912 -0.09532,0.112788 -0.125611,0.18592 -0.03029,0.07314 -0.07239,0.132982 -0.09352,0.132982 -0.02113,0 -0.03843,0.03259 -0.03843,0.07243 0,0.03983 -0.04921,0.136948 -0.109368,0.215812 -0.06016,0.07887 -0.109367,0.176042 -0.109367,0.215958 0,0.03992 -0.03774,0.120554 -0.08386,0.179192 -0.04612,0.05864 -0.09688,0.183647 -0.112789,0.277795 -0.01589,0.09416 -0.05692,0.194407 -0.09111,0.2228 -0.03421,0.02838 -0.0625,0.0935 -0.06287,0.144698 -6.19e-4,0.09514 -0.08397,0.359713 -0.141307,0.448887 -0.01754,0.02728 -0.05144,0.187342 -0.07531,0.3557 -0.02389,0.168361 -0.06556,0.362587 -0.09263,0.431617 -0.07056,0.179935 -0.102193,1.589301 -0.04455,1.984714 0.08536,0.585501 0.223557,1.182837 0.316149,1.366472 0.02107,0.04178 0.0383,0.115664 0.0383,0.164207 0,0.04853 0.03934,0.161635 0.08742,0.251335 0.04808,0.0897 0.09935,0.226729 0.113939,0.304507 0.01453,0.07778 0.054,0.1642123 0.08757,0.1920735 0.03358,0.027868 0.06103,0.087615 0.06103,0.1328003 0,0.045185 0.01644,0.082135 0.03654,0.082135 0.02009,0 0.122946,0.1696462 0.228562,0.3769875 0.105614,0.2073443 0.217129,0.3866225 0.247813,0.3983963 0.0307,0.011807 0.05578,0.048833 0.05578,0.082347 0,0.033514 0.0165,0.060943 0.03671,0.060943 0.02018,0 0.07432,0.078518 0.120297,0.1744826 0.04597,0.095971 0.09836,0.1747097 0.116407,0.1749867 0.01806,3.164e-4 0.03282,0.029351 0.03282,0.064606 0,0.1171482 -0.236362,0.3054406 -0.633425,0.5045896 -0.215873,0.1082777 -0.426385,0.2302684 -0.467801,0.2711046 -0.04142,0.040841 -0.160009,0.095426 -0.263532,0.121311 -0.103524,0.025885 -0.224864,0.067816 -0.269642,0.093201 -0.04478,0.025385 -0.172733,0.06335 -0.28435,0.084376 -0.442693,0.083407 -0.685351,0.1459849 -0.710032,0.18312 -0.02797,0.042097 -1.56321,0.080152 -1.975494,0.048969 z m 0.951477,-0.1458942 c 0.01514,-0.024417 0.224023,-0.044216 0.472852,-0.044792 0.245197,-5.071e-4 0.524558,-0.021798 0.620798,-0.047168 0.09624,-0.02537 0.293101,-0.071509 0.437463,-0.1025255 0.391162,-0.084043 0.856643,-0.2455118 0.830357,-0.2880448 -0.01272,-0.020541 0.05119,-0.069223 0.141974,-0.1081869 0.09078,-0.038949 0.22079,-0.09915 0.288907,-0.1337691 0.06812,-0.034619 0.142776,-0.062941 0.165916,-0.062941 0.02313,0 0.149406,-0.079305 0.28061,-0.1762204 l 0.238538,-0.1762174 -0.117709,-0.1846852 c -0.06474,-0.1015718 -0.154934,-0.2271289 -0.200423,-0.2790047 -0.04549,-0.051876 -0.13716,-0.2038295 -0.203704,-0.3376757 -0.06654,-0.1338448 -0.142291,-0.2690277 -0.168331,-0.3004 -0.07927,-0.095517 -0.315595,-0.5632153 -0.315595,-0.6245826 0,-0.03167 -0.04921,-0.155567 -0.109367,-0.275325 -0.06016,-0.119751 -0.109368,-0.26047 -0.109368,-0.312693 0,-0.05222 -0.02328,-0.137947 -0.05171,-0.190504 -0.02844,-0.05256 -0.07576,-0.223511 -0.105144,-0.379901 -0.0294,-0.156393 -0.08486,-0.438647 -0.123264,-0.627231 -0.04986,-0.244822 -0.06957,-0.582614 -0.06889,-1.181145 9.28e-4,-0.749029 0.01438,-0.904834 0.127517,-1.463616 0.06962,-0.343942 0.145364,-0.649073 0.168314,-0.678062 0.02296,-0.02899 0.06665,-0.158918 0.09711,-0.288723 0.03044,-0.129803 0.08212,-0.287293 0.114818,-0.349969 0.0327,-0.06268 0.05958,-0.140445 0.05973,-0.172825 1.3e-4,-0.03238 0.03621,-0.111123 0.08012,-0.174985 0.04391,-0.06386 0.106219,-0.185018 0.138446,-0.269229 0.03223,-0.08421 0.08488,-0.18419 0.116997,-0.222176 0.03212,-0.03798 0.05842,-0.09135 0.05842,-0.118602 0,-0.02725 0.08858,-0.158296 0.196856,-0.291223 0.108278,-0.132922 0.196859,-0.262964 0.196859,-0.28897 0,-0.02601 0.04923,-0.11182 0.109383,-0.190685 0.103237,-0.135344 0.105083,-0.147 0.0328,-0.207608 -0.111744,-0.0937 -0.397193,-0.26648 -0.715829,-0.433267 -0.05743,-0.03006 -0.13395,-0.0714 -0.170039,-0.09187 -0.225902,-0.128123 -0.506078,-0.222928 -1.028035,-0.347865 -0.120297,-0.02879 -0.238417,-0.06615 -0.262476,-0.083 -0.129273,-0.09055 -0.532816,-0.130757 -1.312384,-0.130757 -0.842008,0 -1.124893,0.03212 -1.412654,0.160389 -0.07921,0.0353 -0.236698,0.08092 -0.349968,0.101375 -0.113273,0.02045 -0.284696,0.06748 -0.380937,0.104523 -0.09624,0.03704 -0.205718,0.06821 -0.243289,0.06927 -0.03757,9.79e-4 -0.110564,0.0413 -0.162218,0.08942 -0.05165,0.04812 -0.120328,0.08749 -0.152613,0.08749 -0.03229,0 -0.0774,0.01788 -0.100255,0.03972 -0.02287,0.02184 -0.13999,0.0939 -0.260287,0.160113 -0.343702,0.189182 -0.373382,0.208611 -0.509975,0.33382 -0.07084,0.06494 -0.167169,0.130242 -0.214064,0.145122 -0.0469,0.01483 -0.08527,0.04543 -0.08527,0.06786 0,0.02243 -0.03015,0.04079 -0.067,0.04079 -0.03684,0 -0.07979,0.03336 -0.09544,0.07414 -0.01565,0.04078 -0.187282,0.233814 -0.381407,0.428961 -0.194121,0.195149 -0.382482,0.404891 -0.418573,0.466098 -0.09223,0.156405 -0.426682,0.660624 -0.480315,0.724109 -0.02455,0.02906 -0.04464,0.08017 -0.04464,0.113576 0,0.07669 -0.123309,0.326601 -0.177754,0.360247 -0.02252,0.01393 -0.04098,0.06423 -0.04098,0.111774 0,0.04755 -0.028,0.130045 -0.0622,0.183338 -0.03421,0.05328 -0.08628,0.224846 -0.11571,0.38124 -0.02943,0.156392 -0.08307,0.343107 -0.119222,0.41492 -0.08527,0.169454 -0.09776,2.168628 -0.01423,2.269335 0.02832,0.03415 0.08161,0.20698 0.11839,0.384075 0.03677,0.177095 0.09523,0.379151 0.129894,0.449014 0.03466,0.06986 0.06303,0.147045 0.06303,0.171528 0,0.0757 0.26229,0.587377 0.329833,0.643433 0.03513,0.02915 0.06388,0.08995 0.06388,0.135101 0,0.06954 0.34966,0.5796635 0.447567,0.6529617 0.01757,0.01317 0.09633,0.1141359 0.174985,0.2243861 0.07865,0.1102456 0.221749,0.2669781 0.31799,0.3483006 0.09624,0.081318 0.272686,0.2411855 0.392102,0.3552518 0.119419,0.1140602 0.234696,0.2073928 0.256179,0.2073928 0.02148,0 0.11079,0.056372 0.198472,0.125277 0.08768,0.068905 0.27752,0.1793659 0.421884,0.2454754 0.376707,0.1725087 0.482346,0.2344373 0.472678,0.2771005 -0.0047,0.020693 0.103585,0.071464 0.240603,0.1128341 0.137024,0.041371 0.288503,0.09143 0.336622,0.1112749 0.04812,0.01983 0.195767,0.058733 0.328098,0.086435 0.132331,0.027701 0.319345,0.068603 0.415588,0.090915 0.09624,0.022297 0.355915,0.041401 0.577051,0.042445 0.221141,9.794e-4 0.414238,0.021586 0.429107,0.045654 0.01484,0.024068 0.07393,0.043747 0.131241,0.043747 0.05731,0 0.116377,-0.019679 0.131241,-0.043747 z m 8.903284,0.1451827 c -0.131801,-0.010596 -0.249923,-0.033484 -0.262476,-0.050937 -0.02313,-0.032122 -0.318851,-0.1064612 -0.728212,-0.1830382 -0.123294,-0.023069 -0.280783,-0.071448 -0.349971,-0.107536 -0.06918,-0.036088 -0.157991,-0.065727 -0.197348,-0.065878 -0.08217,-3.179e-4 -0.300762,-0.1066581 -0.339675,-0.165267 -0.01438,-0.021722 -0.154187,-0.1032218 -0.310577,-0.1810886 -0.366498,-0.1824887 -0.428891,-0.2208968 -0.582426,-0.3585214 -0.107975,-0.096788 -0.122643,-0.1348892 -0.09694,-0.2519043 0.01667,-0.075823 0.06806,-0.1580842 0.114211,-0.18279 0.04617,-0.024704 0.08394,-0.070328 0.08394,-0.1013751 0,-0.031047 0.04921,-0.102692 0.109368,-0.1591983 0.06016,-0.056508 0.109367,-0.1392943 0.109367,-0.1839829 0,-0.04467 0.02952,-0.092565 0.06562,-0.1064158 0.03609,-0.013926 0.06562,-0.05566 0.06562,-0.092928 0,-0.037268 0.04921,-0.1322705 0.109367,-0.2111317 0.06016,-0.078866 0.109368,-0.1635095 0.109368,-0.1881078 0,-0.024598 0.04921,-0.1172391 0.109367,-0.2058806 0.06016,-0.088629 0.109368,-0.2094423 0.109368,-0.2684553 0,-0.05902 0.03937,-0.15735 0.08749,-0.218526 0.04812,-0.06117 0.08749,-0.147211 0.08749,-0.191202 0,-0.04397 0.03937,-0.179858 0.08749,-0.301941 0.04812,-0.122083 0.08749,-0.286204 0.08749,-0.364713 0,-0.0785 0.01723,-0.161445 0.03827,-0.1843 0.240177,-0.260874 0.249982,-2.800048 0.01256,-3.243741 -0.02794,-0.05219 -0.05079,-0.170997 -0.05079,-0.264007 0,-0.093 -0.01989,-0.189011 -0.04423,-0.213334 -0.02433,-0.02433 -0.08124,-0.17098 -0.126488,-0.325908 -0.119918,-0.410606 -0.185584,-0.570878 -0.297905,-0.727165 -0.05504,-0.0766 -0.100073,-0.17878 -0.100073,-0.227085 0,-0.0483 -0.02192,-0.101375 -0.04871,-0.117936 -0.02679,-0.01656 -0.08677,-0.116149 -0.133285,-0.221311 -0.04652,-0.105175 -0.103343,-0.191213 -0.126276,-0.191213 -0.02293,0 -0.0417,-0.0261 -0.0417,-0.05799 0,-0.03189 -0.04921,-0.104221 -0.109368,-0.160736 -0.06016,-0.05651 -0.109368,-0.137705 -0.109368,-0.180436 0,-0.04273 -0.02461,-0.09343 -0.05468,-0.112683 -0.232204,-0.148558 -0.201224,-0.392784 0.06762,-0.532951 0.24678,-0.128668 0.32998,-0.180417 0.518148,-0.322272 0.08777,-0.06617 0.187258,-0.120297 0.221091,-0.120297 0.03383,0 0.08021,-0.0165 0.10307,-0.03665 0.05519,-0.04867 0.698082,-0.257462 0.905544,-0.29409 0.09022,-0.01593 0.164047,-0.04646 0.164047,-0.06785 0,-0.02137 0.03305,-0.03887 0.07345,-0.03887 0.08223,0 0.345698,-0.07793 0.461849,-0.136615 0.09618,-0.04859 2.089468,-0.05091 2.089468,-0.0024 0,0.01977 0.127956,0.06265 0.28435,0.09529 0.15639,0.03264 0.284351,0.0729 0.284351,0.08949 0,0.01658 0.0935,0.05005 0.207794,0.07434 0.194061,0.04126 0.369051,0.09788 0.833525,0.269627 0.10354,0.0383 0.225759,0.10407 0.271584,0.146182 0.04582,0.04211 0.102178,0.07655 0.125247,0.07655 0.02305,0 0.04848,0.01483 0.05651,0.0328 0.008,0.01804 0.105477,0.07719 0.216589,0.131423 0.239988,0.117149 0.432311,0.298325 0.432311,0.407263 0,0.0431 -0.04921,0.117057 -0.109367,0.164378 -0.06016,0.04732 -0.109368,0.115967 -0.109368,0.152571 0,0.06161 -0.08354,0.179194 -0.273411,0.38479 -0.04211,0.04559 -0.07655,0.105643 -0.07655,0.133451 0,0.02781 -0.04921,0.115074 -0.109368,0.193938 -0.06016,0.07887 -0.109367,0.162711 -0.109367,0.186331 0,0.02361 -0.07875,0.191568 -0.174986,0.373218 -0.09624,0.181649 -0.174982,0.370603 -0.174982,0.419899 0,0.08981 -0.01014,0.116634 -0.145712,0.387275 -0.04016,0.08015 -0.07302,0.203813 -0.07302,0.274818 0,0.07101 -0.03015,0.201286 -0.06703,0.289516 -0.07713,0.184573 -0.194407,1.154791 -0.195027,1.613294 -6.19e-4,0.491906 0.126745,1.63213 0.197702,1.769357 0.03539,0.06845 0.06435,0.201758 0.06435,0.296247 0,0.09935 0.02769,0.19477 0.06562,0.22626 0.03609,0.02996 0.06562,0.100104 0.06562,0.155887 0,0.05578 0.01971,0.113591 0.04375,0.128456 0.02404,0.01483 0.04375,0.0751 0.04375,0.133829 0,0.05873 0.01827,0.106779 0.04064,0.106779 0.02237,0 0.07137,0.105705 0.108928,0.234883 0.03756,0.1291819 0.09801,0.2595496 0.134345,0.2897033 0.03633,0.030154 0.06606,0.08707 0.06606,0.1264729 0,0.039403 0.04921,0.1247169 0.109368,0.1895912 0.06016,0.064864 0.109367,0.137175 0.109367,0.1606924 0,0.06556 0.270581,0.4860222 0.312763,0.4860222 0.02047,0 0.03721,0.028519 0.03721,0.063365 0,0.034846 0.04921,0.116467 0.109367,0.1813731 0.06016,0.064909 0.109368,0.1466056 0.109368,0.1815593 0,0.077155 -0.249084,0.3173856 -0.329078,0.3173856 -0.03155,0 -0.06391,0.01544 -0.07193,0.034301 -0.02078,0.048863 -0.556109,0.31566 -0.633384,0.31566 -0.03544,0 -0.05359,0.017529 -0.04034,0.038964 0.03229,0.052254 -0.167753,0.1797701 -0.282028,0.1797701 -0.05016,0 -0.151177,0.031016 -0.224483,0.06892 -0.0733,0.037904 -0.22489,0.085905 -0.336858,0.106658 -0.399668,0.074097 -0.642325,0.1348893 -0.726334,0.1819772 -0.08808,0.049363 -1.502929,0.085753 -1.947944,0.05009 z m 0.983329,-0.1451827 c 0.01483,-0.024068 0.20797,-0.044595 0.42911,-0.045654 0.221138,-9.794e-4 0.48081,-0.019618 0.577051,-0.041265 0.09624,-0.021647 0.273414,-0.061155 0.393714,-0.087797 0.465906,-0.1031613 0.940544,-0.2708411 0.940544,-0.3322671 0,-0.033953 0.01925,-0.06173 0.04279,-0.06173 0.08059,0 0.685883,-0.3010402 0.742524,-0.3692887 0.03111,-0.037495 0.07363,-0.068164 0.09447,-0.068164 0.02084,0 0.07519,-0.03194 0.120781,-0.070979 0.08064,-0.069042 0.07917,-0.076323 -0.05419,-0.2671719 -0.215626,-0.308618 -0.283583,-0.4163386 -0.366229,-0.5805172 -0.04238,-0.084209 -0.0888,-0.162954 -0.103131,-0.1749852 -0.07207,-0.060489 -0.52057,-1.0123412 -0.521042,-1.1057842 0,-0.02941 -0.03114,-0.112547 -0.06884,-0.184724 -0.03772,-0.07219 -0.08469,-0.209982 -0.104373,-0.306224 -0.01968,-0.09624 -0.06662,-0.302942 -0.104326,-0.459334 -0.188411,-0.781644 -0.240455,-1.693779 -0.140899,-2.469142 0.0785,-0.611382 0.254317,-1.40912 0.356341,-1.616902 0.0343,-0.06986 0.06237,-0.154746 0.06237,-0.18863 0,-0.03388 0.05115,-0.173581 0.113652,-0.310437 0.200299,-0.438563 0.240983,-0.520507 0.367881,-0.740977 0.02424,-0.04211 0.06789,-0.125761 0.097,-0.185919 0.02911,-0.06016 0.117376,-0.189924 0.196152,-0.288383 0.07878,-0.09845 0.134087,-0.188158 0.122916,-0.199328 -0.0112,-0.0112 0.03804,-0.08419 0.109337,-0.162276 0.123869,-0.135601 0.126261,-0.145606 0.05351,-0.223185 -0.04189,-0.04467 -0.191364,-0.140854 -0.332178,-0.213748 -0.140808,-0.07289 -0.288455,-0.160211 -0.328094,-0.194048 -0.10743,-0.0917 -0.537344,-0.293892 -0.624905,-0.293892 -0.04198,0 -0.08778,-0.01854 -0.101799,-0.04122 -0.01393,-0.02268 -0.118525,-0.05362 -0.232249,-0.06878 -0.196939,-0.02626 -0.363932,-0.07269 -0.556743,-0.154826 -0.239387,-0.101965 -0.509511,-0.128395 -1.312384,-0.128395 -0.80639,0 -1.079726,0.02704 -1.312381,0.129758 -0.133179,0.05881 -0.373004,0.1229 -0.579408,0.154843 -0.102132,0.0158 -0.1968,0.04671 -0.210376,0.06868 -0.01362,0.02197 -0.06287,0.03995 -0.109534,0.03995 -0.0709,0 -0.503591,0.206849 -0.777814,0.371842 -0.03999,0.02407 -0.185901,0.109171 -0.324249,0.189133 -0.13834,0.07996 -0.251538,0.170038 -0.251538,0.200168 0,0.03014 0.04921,0.101011 0.109368,0.157525 0.06016,0.05651 0.109368,0.129682 0.109368,0.162615 0,0.03292 0.07587,0.162377 0.168588,0.287661 0.09273,0.125292 0.181548,0.257318 0.19739,0.293409 0.01583,0.03609 0.09733,0.193575 0.181103,0.349969 0.08376,0.15639 0.152425,0.307549 0.152576,0.335908 1.85e-4,0.02835 0.0249,0.07756 0.05496,0.109367 0.05907,0.06244 0.164051,0.335162 0.164051,0.426143 0,0.05347 0.09384,0.290494 0.178661,0.451309 0.02204,0.04178 0.04007,0.123885 0.04007,0.182468 0,0.05858 0.04276,0.28031 0.09502,0.492739 0.08351,0.339445 0.09506,0.50811 0.09538,1.392391 3.13e-4,0.874079 -0.01241,1.066456 -0.09697,1.465494 -0.119132,0.562268 -0.219721,0.910443 -0.272466,0.943043 -0.02183,0.01347 -0.03971,0.07199 -0.03971,0.129984 0,0.05799 -0.03937,0.175552 -0.08749,0.261225 -0.04812,0.08568 -0.08749,0.177875 -0.08749,0.204889 0,0.0849 -0.250688,0.5839156 -0.323844,0.6446286 -0.03842,0.031894 -0.06987,0.085375 -0.06987,0.1188436 0,0.080304 -0.07778,0.2160212 -0.251538,0.4388738 -0.0782,0.1002851 -0.142185,0.1956128 -0.142185,0.2118295 0,0.016227 -0.03937,0.079532 -0.08749,0.1407172 -0.04812,0.06117 -0.08749,0.1236119 -0.08749,0.1387493 0,0.015137 0.07874,0.076186 0.174982,0.1356612 0.09624,0.059475 0.174986,0.1201152 0.174986,0.1347379 0,0.014683 0.166752,0.09364 0.370565,0.1755937 0.20381,0.081954 0.376058,0.1750442 0.382776,0.2068766 0.01226,0.058264 0.407705,0.1942899 0.974628,0.335287 0.168422,0.041885 0.522769,0.085905 0.787431,0.097818 0.264663,0.011959 0.499909,0.039191 0.522765,0.060625 0.05637,0.05286 0.274883,0.049484 0.308409,-0.00484 z m 8.74922,0.1414892 c -0.04812,-0.010748 -0.107672,-0.035966 -0.132331,-0.055887 -0.02466,-0.019921 -0.148134,-0.049938 -0.274392,-0.06668 -0.126261,-0.016742 -0.240118,-0.047547 -0.253034,-0.068436 -0.01287,-0.02089 -0.07644,-0.03798 -0.141186,-0.037964 -0.104872,7.5e-6 -0.469206,-0.1072181 -0.806724,-0.2374314 -0.06617,-0.025522 -0.121554,-0.066211 -0.123082,-0.090416 -0.0017,-0.024205 -0.182902,-0.1308021 -0.403042,-0.2368773 -0.337728,-0.1627421 -0.687822,-0.414053 -0.687822,-0.4937422 0,-0.011807 0.0492,-0.07879 0.109307,-0.1486946 0.06013,-0.069904 0.109337,-0.1615568 0.109368,-0.2036614 3.1e-5,-0.042112 0.02664,-0.07655 0.05913,-0.07655 0.03249,0 0.1234,-0.1267453 0.202039,-0.2816598 0.07862,-0.1549145 0.180006,-0.3214212 0.225273,-0.3700123 0.04528,-0.048591 0.08232,-0.1195248 0.08232,-0.1576301 0,-0.038101 0.0389,-0.1110327 0.08645,-0.1620745 0.04755,-0.051043 0.108308,-0.1634096 0.13501,-0.2497106 0.0267,-0.0863 0.07772,-0.2258133 0.113364,-0.3100243 0.06335,-0.149679 0.08421,-0.200549 0.184679,-0.450457 0.02705,-0.0673 0.0492,-0.179823 0.0492,-0.250054 0,-0.07024 0.02746,-0.192342 0.06103,-0.271355 0.180371,-0.42455 0.275376,-1.5125 0.203549,-2.330965 -0.05237,-0.596835 -0.122885,-1.016989 -0.18426,-1.098065 -0.02006,-0.02649 -0.04904,-0.144607 -0.06444,-0.262476 -0.01539,-0.117875 -0.0417,-0.234004 -0.05851,-0.258063 -0.01679,-0.02407 -0.06612,-0.161862 -0.10961,-0.306222 -0.08724,-0.289551 -0.301744,-0.743561 -0.37175,-0.786825 -0.02461,-0.0152 -0.04473,-0.06892 -0.04473,-0.119358 0,-0.05045 -0.04921,-0.156241 -0.109367,-0.235102 -0.06016,-0.07887 -0.109368,-0.156318 -0.109368,-0.172124 0,-0.06318 -0.244151,-0.369006 -0.295286,-0.369879 -0.03006,-5.07e-4 -0.05468,-0.04671 -0.05468,-0.102677 0,-0.05596 -0.04921,-0.147968 -0.109367,-0.204485 -0.06016,-0.05651 -0.109368,-0.118314 -0.109368,-0.137342 0,-0.07423 0.275944,-0.343865 0.35192,-0.343865 0.0442,0 0.09222,-0.01916 0.106689,-0.04258 0.01453,-0.02342 0.09438,-0.07487 0.177563,-0.114348 0.0832,-0.03948 0.151252,-0.08922 0.151252,-0.110533 0,-0.02131 0.02952,-0.03877 0.06562,-0.03877 0.03609,0 0.06562,-0.01968 0.06562,-0.04375 0,-0.02407 0.03544,-0.04375 0.07874,-0.04375 0.04331,0 0.09744,-0.017 0.120297,-0.03777 0.05773,-0.05247 0.874694,-0.312207 0.981956,-0.312207 0.0482,0 0.08763,-0.01745 0.08763,-0.03878 0,-0.03663 0.09714,-0.06424 0.426523,-0.12119 0.0782,-0.01347 0.14217,-0.04211 0.14217,-0.06355 0,-0.05107 1.933956,-0.05085 2.064941,1.65e-4 0.05527,0.02156 0.189076,0.06447 0.297348,0.09537 0.108263,0.03089 0.216543,0.06974 0.240603,0.08631 0.02405,0.01658 0.152017,0.05539 0.28435,0.08627 0.132331,0.03087 0.368559,0.103979 0.524952,0.162451 0.156393,0.05848 0.323722,0.117058 0.371842,0.130167 0.04812,0.01317 0.107173,0.04661 0.131242,0.07445 0.05021,0.05808 0.579306,0.391957 0.678774,0.428337 0.03648,0.01332 0.09309,0.07426 0.125806,0.135389 0.05307,0.09916 0.04915,0.125625 -0.0365,0.245901 -0.05278,0.07413 -0.114317,0.134783 -0.136736,0.134783 -0.02242,0 -0.04077,0.03182 -0.04077,0.07069 0,0.03889 -0.0689,0.164556 -0.153111,0.279275 -0.08421,0.114711 -0.153111,0.220877 -0.153111,0.235907 0,0.01499 -0.05905,0.108853 -0.131241,0.208495 -0.07218,0.09965 -0.131241,0.213019 -0.131241,0.251943 0,0.03892 -0.04921,0.1432 -0.109367,0.23172 -0.06016,0.08852 -0.109368,0.191786 -0.109368,0.229478 0,0.03769 -0.01968,0.107642 -0.04375,0.155433 -0.02407,0.0478 -0.06343,0.126003 -0.08749,0.173798 -0.02407,0.04779 -0.04375,0.122371 -0.04375,0.165735 0,0.04335 -0.03937,0.15606 -0.08749,0.250446 -0.04812,0.09438 -0.08749,0.226259 -0.08749,0.293053 0,0.06679 -0.04921,0.310856 -0.109368,0.542365 -0.09835,0.378492 -0.109368,0.506041 -0.109368,1.265303 0,0.748083 0.01241,0.897169 0.109368,1.307235 0.06016,0.25457 0.109368,0.518136 0.109368,0.585702 0,0.06757 0.01745,0.141549 0.03877,0.164407 0.02133,0.02286 0.08333,0.184942 0.137796,0.360189 0.05446,0.175244 0.115771,0.328971 0.136221,0.341613 0.02045,0.01272 0.03719,0.06647 0.03719,0.119616 0,0.05315 0.04921,0.1690543 0.109368,0.2575747 0.06016,0.088523 0.109367,0.1885059 0.109367,0.2221926 0,0.033681 0.03872,0.1059012 0.08606,0.1604669 0.04734,0.05457 0.111199,0.1560135 0.141928,0.2254244 0.03073,0.069405 0.07074,0.1262004 0.08893,0.1262004 0.0182,0 0.03306,0.03465 0.03306,0.077004 0,0.042354 0.04469,0.1260188 0.0993,0.1859204 0.14211,0.1558591 0.381902,0.5295588 0.381902,0.5951506 0,0.030608 -0.05905,0.090537 -0.131241,0.1331787 -0.07218,0.042642 -0.131241,0.089689 -0.131241,0.1045691 0,0.014835 -0.171081,0.1139845 -0.380178,0.2202354 -0.209099,0.1062493 -0.414759,0.2265991 -0.457025,0.2674352 -0.04226,0.040841 -0.16155,0.095789 -0.26508,0.1221284 -0.103525,0.026339 -0.227597,0.066877 -0.275717,0.090083 -0.04812,0.023206 -0.17608,0.060958 -0.28435,0.083876 -0.570305,0.1207206 -0.680702,0.1509954 -0.709274,0.1945426 -0.0309,0.047108 -1.876238,0.079169 -2.068604,0.035936 z m 1.093654,-0.1414892 c 0.01483,-0.024068 0.205531,-0.043747 0.423688,-0.043747 0.4197,0 0.92653,-0.095456 1.554662,-0.2927934 0.197864,-0.062169 0.349969,-0.1288494 0.338017,-0.1481799 -0.01196,-0.019346 0.05254,-0.06774 0.143336,-0.1075662 0.434167,-0.190445 0.611303,-0.2825318 0.711888,-0.3700864 0.06016,-0.05236 0.138901,-0.1121075 0.174984,-0.1327701 0.05357,-0.030683 0.05568,-0.052057 0.01135,-0.116467 -0.02984,-0.043384 -0.0942,-0.1527151 -0.143064,-0.2429414 -0.04886,-0.090219 -0.105825,-0.1640469 -0.126594,-0.1640469 -0.02077,0 -0.04954,-0.034453 -0.06394,-0.07655 -0.01438,-0.042112 -0.08459,-0.1749836 -0.155982,-0.2952865 -0.219054,-0.3691555 -0.396737,-0.7320042 -0.396737,-0.8101862 0,-0.04092 -0.04921,-0.1469233 -0.109368,-0.2355573 -0.06016,-0.08864 -0.109367,-0.210193 -0.109367,-0.270122 0,-0.05993 -0.02811,-0.152561 -0.06246,-0.205851 -0.03435,-0.05328 -0.08412,-0.21824 -0.110609,-0.366558 -0.02649,-0.148316 -0.08033,-0.374704 -0.119676,-0.50308 -0.05872,-0.191656 -0.07162,-0.448621 -0.07211,-1.436429 -5.07e-4,-1.115562 0.0064,-1.224819 0.09464,-1.502911 0.05238,-0.164941 0.09523,-0.35783 0.09523,-0.428638 0,-0.07081 0.03937,-0.210232 0.08749,-0.309832 0.04812,-0.0996 0.08749,-0.218644 0.08749,-0.26455 0,-0.04591 0.03235,-0.145561 0.07187,-0.221451 0.128184,-0.24612 0.146863,-0.289153 0.146863,-0.338287 0,-0.02661 0.03886,-0.09777 0.08634,-0.158142 0.04749,-0.06037 0.09919,-0.178241 0.114893,-0.261933 0.0157,-0.08369 0.05558,-0.162543 0.08864,-0.175227 0.03305,-0.01272 0.06009,-0.04897 0.06009,-0.08064 0,-0.03167 0.04921,-0.116073 0.109368,-0.187557 0.06016,-0.07149 0.109368,-0.151738 0.109368,-0.178339 0,-0.0266 0.01751,-0.04836 0.03893,-0.04836 0.0214,0 0.07984,-0.08704 0.129849,-0.193415 0.05,-0.10637 0.111229,-0.205967 0.136054,-0.221312 0.05395,-0.03333 0.06091,-0.19772 0.0083,-0.19772 -0.02022,0 -0.200533,-0.09842 -0.400697,-0.218729 -0.200165,-0.120297 -0.390321,-0.218731 -0.422571,-0.218731 -0.03226,0 -0.05864,-0.0167 -0.05864,-0.0371 0,-0.06718 -0.525846,-0.25145 -1.028033,-0.360253 -0.144365,-0.03127 -0.272319,-0.06886 -0.28435,-0.08351 -0.146742,-0.178782 -2.487451,-0.177121 -2.624765,0.0018 -0.02245,0.02926 -0.121493,0.05572 -0.503079,0.134405 -0.120297,0.02481 -0.237433,0.06327 -0.260289,0.0855 -0.02287,0.02221 -0.08191,0.04051 -0.131241,0.04066 -0.04933,1.47e-4 -0.14874,0.03247 -0.220918,0.07183 -0.07218,0.03936 -0.200138,0.108823 -0.284351,0.154374 -0.08421,0.04555 -0.261381,0.150254 -0.393715,0.23269 -0.132331,0.08244 -0.260475,0.150648 -0.284766,0.151579 -0.02429,9.79e-4 -0.06909,0.04163 -0.09954,0.09042 -0.0464,0.07428 -0.04276,0.106068 0.02227,0.195483 0.04273,0.05873 0.09244,0.1074 0.110503,0.108156 0.01806,8.25e-4 0.0328,0.0391 0.0328,0.08522 0,0.04612 0.01484,0.09042 0.0328,0.09842 0.04514,0.02006 0.242922,0.296855 0.307386,0.43017 0.02908,0.06016 0.07043,0.138885 0.09188,0.174984 0.02145,0.03609 0.06503,0.124671 0.09686,0.196858 0.03182,0.07218 0.07937,0.160767 0.105629,0.196856 0.114544,0.157336 0.245206,0.529438 0.568333,1.618607 0.17804,0.600118 0.171213,2.915233 -0.0095,3.259985 -0.02499,0.04762 -0.07764,0.229752 -0.117027,0.40473 -0.07379,0.327892 -0.151734,0.557245 -0.294225,0.86588 -0.04516,0.09782 -0.0821,0.1998071 -0.0821,0.2266335 0,0.045685 -0.05312,0.1387493 -0.295287,0.5173066 -0.05413,0.084618 -0.09851,0.1775979 -0.09862,0.2066041 0,0.029003 -0.07449,0.1511771 -0.1653,0.2714724 -0.09081,0.1202968 -0.211121,0.2936381 -0.267346,0.3851905 -0.09903,0.1612465 -0.09968,0.1683989 -0.02062,0.2282763 0.04488,0.033999 0.105114,0.062442 0.133814,0.063214 0.0287,8.25e-4 0.07793,0.037056 0.109368,0.080637 0.054,0.074854 0.272347,0.1904435 0.594088,0.3144732 0.07876,0.030366 0.157831,0.081333 0.175707,0.113273 0.09066,0.162011 1.319048,0.4554159 1.906663,0.4554159 0.230073,0 0.427973,0.019542 0.442929,0.043747 0.01484,0.024069 0.07393,0.043747 0.131241,0.043747 0.05731,0 0.116376,-0.019679 0.131241,-0.043747 z m 8.859908,0.1452887 c -0.131605,-0.010596 -0.25956,-0.036042 -0.28435,-0.056508 -0.02479,-0.020466 -0.123809,-0.05068 -0.220055,-0.067149 -0.203538,-0.034816 -0.318332,-0.064773 -0.765557,-0.1997802 -0.464904,-0.1403387 -0.568701,-0.1856238 -0.568701,-0.2481245 0,-0.030214 -0.0246,-0.055055 -0.05468,-0.055176 -0.105765,-5.071e-4 -0.799775,-0.3886978 -0.920461,-0.5149179 -0.12175,-0.1273205 -0.121871,-0.1280925 -0.04375,-0.2653251 0.0431,-0.075702 0.09311,-0.1377502 0.111154,-0.1379167 0.01804,-1.302e-4 0.0328,-0.025325 0.0328,-0.055933 0,-0.030608 0.0634,-0.1325581 0.140883,-0.2265658 0.07749,-0.094003 0.186932,-0.2703008 0.243211,-0.3917738 0.05628,-0.1214775 0.115922,-0.2311388 0.132528,-0.2437043 0.03728,-0.028201 0.286481,-0.5290007 0.381427,-0.7665287 0.113364,-0.283599 0.225883,-0.640579 0.275776,-0.874923 0.02561,-0.120296 0.06862,-0.317158 0.09556,-0.437459 0.120796,-0.53932 0.146439,-0.78523 0.145939,-1.399876 -6.7e-4,-0.775918 -0.08247,-1.362245 -0.282503,-2.024174 -0.04559,-0.15089 -0.08357,-0.298526 -0.08439,-0.328097 -8.25e-4,-0.02956 -0.03952,-0.132513 -0.08601,-0.228749 -0.04649,-0.09624 -0.08519,-0.206685 -0.08601,-0.245436 -8.25e-4,-0.03875 -0.05069,-0.142972 -0.110851,-0.231608 -0.06016,-0.08863 -0.109368,-0.179372 -0.109368,-0.201631 0,-0.02227 -0.04204,-0.114893 -0.0934,-0.205852 -0.05136,-0.09096 -0.129576,-0.23428 -0.173785,-0.318491 -0.04422,-0.08421 -0.139976,-0.218303 -0.212821,-0.297985 -0.07284,-0.07968 -0.132437,-0.171782 -0.132437,-0.20467 0,-0.03288 -0.02461,-0.08642 -0.05468,-0.118964 -0.209151,-0.226309 -0.215866,-0.241224 -0.156099,-0.346668 0.07242,-0.127774 0.123824,-0.168701 0.378128,-0.301105 0.11247,-0.05855 0.214338,-0.1168 0.226369,-0.12941 0.06612,-0.06934 0.31071,-0.219999 0.359133,-0.221193 0.03105,-8.24e-4 0.09467,-0.03029 0.141368,-0.06562 0.0467,-0.03533 0.126427,-0.06423 0.177171,-0.06423 0.05074,0 0.110957,-0.01747 0.133814,-0.03881 0.02286,-0.02134 0.179359,-0.07252 0.347782,-0.113742 0.168423,-0.0412 0.325909,-0.09011 0.349969,-0.108656 0.02407,-0.01856 0.152017,-0.05955 0.284349,-0.09111 0.132331,-0.03155 0.259305,-0.07346 0.282161,-0.09313 0.05402,-0.04649 2.024377,-0.04682 2.053107,-3.16e-4 0.01211,0.01948 0.150995,0.06237 0.308802,0.09529 0.157806,0.03294 0.286916,0.07433 0.286916,0.09198 0,0.01766 0.08366,0.04564 0.185925,0.06217 0.102253,0.01655 0.272084,0.06748 0.377401,0.113212 0.10531,0.04573 0.217969,0.08315 0.250343,0.08315 0.08587,0 0.517547,0.210962 0.613425,0.299779 0.04518,0.04185 0.170734,0.11892 0.279006,0.171247 0.108278,0.05233 0.257012,0.149845 0.330529,0.216706 0.07352,0.06686 0.226086,0.179631 0.339037,0.250595 0.11294,0.07096 0.205355,0.145637 0.205355,0.165923 0,0.0203 0.165777,0.202676 0.368396,0.405293 0.202617,0.202617 0.381115,0.408473 0.396664,0.457458 0.01555,0.04898 0.04662,0.08907 0.06907,0.08907 0.02242,0 0.04079,0.02885 0.04079,0.06409 0,0.03526 0.05905,0.131362 0.131242,0.21357 0.07218,0.08221 0.131241,0.171481 0.131241,0.19838 0,0.0269 0.01483,0.04891 0.03307,0.04891 0.01818,0 0.05901,0.06399 0.09072,0.14217 0.03171,0.0782 0.09558,0.223074 0.141913,0.321951 0.04635,0.09888 0.08427,0.1918 0.08427,0.206497 0,0.01468 0.04921,0.134314 0.109368,0.26582 0.06016,0.131498 0.109367,0.270246 0.109367,0.308321 0,0.03807 0.04299,0.22143 0.09555,0.407455 0.08472,0.299914 0.09539,0.442293 0.09421,1.256896 -9.28e-4,0.731121 -0.01685,0.976718 -0.07738,1.203017 -0.04182,0.156393 -0.09046,0.363093 -0.108065,0.459335 -0.01762,0.09624 -0.05427,0.214356 -0.08145,0.262476 -0.02719,0.04812 -0.08073,0.188309 -0.11901,0.311531 -0.03828,0.123218 -0.13775,0.337226 -0.221062,0.475569 -0.0833,0.138341 -0.152012,0.283598 -0.152684,0.3227883 -6.18e-4,0.03919 -0.05972,0.128668 -0.131242,0.1988494 -0.07151,0.070177 -0.13003,0.1510712 -0.13003,0.1797762 0,0.0287 -0.06869,0.1189344 -0.152647,0.2005038 -0.08395,0.081575 -0.152851,0.1663523 -0.153111,0.1883953 -6.19e-4,0.042188 -0.05619,0.1060526 -0.306687,0.3516446 -0.430566,0.4221363 -0.676795,0.6369418 -0.760381,0.6633414 -0.05097,0.016106 -0.11839,0.065817 -0.14983,0.1104878 -0.03142,0.04467 -0.08557,0.081212 -0.120297,0.081212 -0.03472,0 -0.06314,0.015304 -0.06314,0.034014 0,0.01871 -0.126912,0.089295 -0.282021,0.1568748 -0.155112,0.067573 -0.333118,0.1702169 -0.395572,0.2280977 -0.06246,0.057885 -0.16685,0.1164519 -0.231996,0.1301513 -0.06514,0.013775 -0.187143,0.055176 -0.271109,0.092156 -0.08397,0.036981 -0.241452,0.084194 -0.349969,0.1049323 -0.615875,0.1176327 -0.724732,0.1441231 -0.74927,0.1823722 -0.02849,0.044413 -1.504524,0.081258 -1.918362,0.047895 z m 0.961089,-0.1452887 c 0,-0.026036 0.172607,-0.044519 0.426525,-0.045654 0.234587,-9.794e-4 0.505266,-0.019618 0.601508,-0.041265 0.09624,-0.021647 0.273411,-0.060913 0.393714,-0.087252 0.362905,-0.079471 0.940521,-0.2810332 0.940881,-0.3283284 6.19e-4,-0.046865 0.200101,-0.1536929 0.287376,-0.1536929 0.02835,0 0.07605,-0.029533 0.106007,-0.065621 0.02994,-0.036088 0.08992,-0.065621 0.133239,-0.065621 0.04332,0 0.137266,-0.049212 0.208751,-0.1093676 0.07148,-0.060156 0.141852,-0.1093676 0.156365,-0.1093676 0.05124,0 0.464059,-0.3149757 0.464059,-0.3540741 0,-0.021798 0.01882,-0.039645 0.04181,-0.039645 0.08784,0 0.615014,-0.5625023 1.004478,-1.07178 0.0736,-0.096243 0.15263,-0.1975777 0.175628,-0.2251898 0.02299,-0.027611 0.07252,-0.1161946 0.110049,-0.1968569 0.03753,-0.08067 0.137069,-0.272638 0.221188,-0.426622 0.08412,-0.15398 0.15289,-0.301624 0.152821,-0.328095 0,-0.02647 0.04765,-0.166242 0.106052,-0.310604 0.209623,-0.518207 0.293756,-1.029438 0.295075,-1.793027 0.0013,-0.685496 -0.02258,-1.004041 -0.09475,-1.269198 -0.176771,-0.64962 -0.195136,-0.702791 -0.385321,-1.115526 -0.04989,-0.108278 -0.13999,-0.308202 -0.200207,-0.444288 -0.06022,-0.136085 -0.130408,-0.26036 -0.155988,-0.276167 -0.02557,-0.0158 -0.133965,-0.16273 -0.240876,-0.326502 -0.190666,-0.292084 -0.691671,-0.834125 -0.770979,-0.834125 -0.02215,0 -0.04025,-0.02924 -0.04025,-0.065 0,-0.03575 -0.08367,-0.119419 -0.185922,-0.18592 -0.102253,-0.06651 -0.192481,-0.135692 -0.2005,-0.153734 -0.008,-0.01804 -0.04178,-0.0328 -0.07502,-0.0328 -0.03324,0 -0.07909,-0.03445 -0.10189,-0.07655 -0.02281,-0.04211 -0.169097,-0.140989 -0.325113,-0.219737 -0.156021,-0.07876 -0.307803,-0.17226 -0.337292,-0.207795 -0.02949,-0.03553 -0.09058,-0.06461 -0.135752,-0.06461 -0.04518,0 -0.08213,-0.01483 -0.08213,-0.03306 0,-0.06115 -0.694357,-0.316904 -0.860412,-0.316904 -0.08874,0 -0.15557,-0.02092 -0.430097,-0.134617 -0.437733,-0.181294 -2.506617,-0.176932 -2.646639,0.0056 -0.02368,0.03086 -0.16268,0.06697 -0.499407,0.129727 -0.118283,0.02204 -0.23541,0.06044 -0.260289,0.08532 -0.02489,0.02489 -0.09149,0.04523 -0.148028,0.04523 -0.123007,0 -0.360918,0.116089 -0.360918,0.176107 0,0.02345 -0.0468,0.04263 -0.104009,0.04263 -0.0572,0 -0.128138,0.02906 -0.157632,0.06461 -0.02949,0.03553 -0.18127,0.129047 -0.337291,0.207796 -0.344907,0.174095 -0.408179,0.264948 -0.279737,0.401669 0.05018,0.05342 0.09125,0.126866 0.09125,0.163232 0,0.03636 0.05085,0.113834 0.112985,0.172164 0.119692,0.11235 0.499468,0.775335 0.499468,0.871921 0,0.03138 0.04921,0.121568 0.109367,0.200437 0.06016,0.07887 0.109368,0.174495 0.109368,0.212515 0,0.03803 0.01739,0.103313 0.03865,0.145092 0.113787,0.223675 0.312876,0.864115 0.311961,1.003509 -5.05e-4,0.05301 0.01692,0.141595 0.03837,0.196857 0.132482,0.34122 0.187643,0.909977 0.169056,1.743057 -0.01044,0.468072 -0.04098,0.910006 -0.06786,0.982195 -0.02688,0.07218 -0.08102,0.298567 -0.120282,0.503081 -0.08342,0.434362 -0.206927,0.861663 -0.302403,1.046294 -0.03712,0.07178 -0.06748,0.174225 -0.06748,0.227662 0,0.05344 -0.02781,0.1282293 -0.06179,0.1662193 -0.03398,0.03798 -0.124808,0.1871796 -0.201834,0.3315403 -0.07702,0.1443653 -0.182098,0.3412542 -0.233491,0.4375386 -0.05139,0.096289 -0.14759,0.2457858 -0.213752,0.3322248 -0.06617,0.086434 -0.120297,0.1799124 -0.120297,0.2077182 0,0.027807 -0.01653,0.050559 -0.03672,0.050559 -0.03509,0 -0.155062,0.2214388 -0.128956,0.2380293 0.007,0.00439 0.113636,0.080592 0.237164,0.1693299 0.123521,0.088735 0.239733,0.1613403 0.258237,0.1613403 0.07794,0 0.591224,0.2671491 0.572257,0.2978417 -0.02258,0.036542 0.562343,0.2385228 0.913488,0.3154177 0.120297,0.026339 0.297474,0.065605 0.393715,0.087252 0.09624,0.021646 0.358241,0.04022 0.582217,0.041264 0.2599,0.00119 0.397449,0.017726 0.380197,0.045654 -0.01633,0.026415 0.04329,0.043747 0.150526,0.043747 0.09767,0 0.177566,-0.019679 0.177566,-0.043747 z M 25.623283,-9.7411496 c -0.102253,-0.1278806 -0.185921,-0.2620044 -0.185921,-0.2980474 0,-0.03604 -0.04921,-0.138053 -0.109367,-0.226696 -0.06016,-0.08863 -0.109368,-0.175341 -0.109368,-0.192674 0,-0.01733 -0.03918,-0.104599 -0.08705,-0.193934 -0.04788,-0.08933 -0.10522,-0.23668 -0.127442,-0.327447 -0.02221,-0.09076 -0.08147,-0.273023 -0.13168,-0.405015 -0.05021,-0.131998 -0.09158,-0.319008 -0.09194,-0.415587 -3.18e-4,-0.09658 -0.02902,-0.254345 -0.0637,-0.350587 -0.08802,-0.244319 -0.08886,-1.357892 -0.0013,-1.684223 0.03551,-0.132331 0.06482,-0.313865 0.06511,-0.403406 3.18e-4,-0.08954 0.04974,-0.274082 0.109882,-0.410093 0.06016,-0.136009 0.109368,-0.294326 0.109368,-0.351812 0,-0.09234 0.0686,-0.260174 0.13165,-0.322057 0.01226,-0.01211 0.06925,-0.139991 0.126654,-0.28435 0.0574,-0.144365 0.150723,-0.325142 0.207386,-0.401733 0.05666,-0.0766 0.103025,-0.160255 0.103025,-0.18592 0,-0.02566 0.01835,-0.04667 0.0408,-0.04667 0.02243,0 0.05174,-0.0345 0.06514,-0.07667 0.03212,-0.101194 0.179984,-0.190859 0.262517,-0.159187 0.03613,0.01393 0.07764,0.06287 0.09225,0.108884 0.01453,0.04603 0.0754,0.141731 0.135087,0.212666 0.12897,0.153274 0.41038,0.68164 0.41038,0.770522 0,0.03435 0.01968,0.06244 0.04375,0.06244 0.02408,0 0.04375,0.03147 0.04375,0.06995 0,0.03846 0.02699,0.131967 0.05994,0.207793 0.03297,0.07582 0.0802,0.216592 0.104948,0.312834 0.02473,0.09624 0.06825,0.263569 0.09668,0.371841 0.208825,0.795393 0.226212,1.99124 0.03657,2.515401 -0.0261,0.07217 -0.05578,0.209981 -0.06594,0.306222 -0.01685,0.159675 -0.05351,0.2768 -0.14426,0.46077 -0.01818,0.03687 -0.0468,0.129545 -0.06358,0.205918 -0.03575,0.162819 -0.176246,0.465699 -0.292478,0.630574 -0.04502,0.06386 -0.08192,0.142609 -0.082,0.174986 -1.65e-4,0.095 -0.364799,0.5621395 -0.436949,0.5598764 -0.0363,-0.00119 -0.149648,-0.1067034 -0.25191,-0.2345826 z m 0.374228,-0.127487 c 0.03139,-0.064394 0.07569,-0.1170721 0.09842,-0.1170721 0.02275,0 0.04135,-0.03662 0.04135,-0.08139 0,-0.04476 0.04724,-0.151011 0.104993,-0.236093 0.05775,-0.08509 0.119252,-0.199675 0.136706,-0.254636 0.01745,-0.05496 0.06856,-0.160342 0.113576,-0.234178 0.04502,-0.07384 0.08194,-0.178611 0.08203,-0.232834 8.9e-5,-0.05422 0.03954,-0.172046 0.08766,-0.26183 0.04812,-0.08978 0.0878,-0.212747 0.08816,-0.273254 3.16e-4,-0.0605 0.03975,-0.265069 0.08749,-0.454583 0.123022,-0.488245 0.122083,-1.46823 -0.002,-2.017719 -0.17899,-0.793125 -0.523953,-1.662489 -0.824069,-2.076789 l -0.128395,-0.17724 -0.116755,0.14273 c -0.06421,0.0785 -0.14491,0.177404 -0.179334,0.219785 -0.03442,0.04238 -0.06227,0.0916 -0.0619,0.109367 6.19e-4,0.02903 -0.08233,0.208416 -0.308222,0.666629 -0.04151,0.08421 -0.08919,0.231854 -0.105946,0.328094 -0.01676,0.09624 -0.05546,0.214358 -0.08604,0.262478 -0.03058,0.04812 -0.06897,0.195763 -0.08531,0.328095 -0.01635,0.132331 -0.04844,0.348876 -0.07133,0.481207 -0.114106,0.660084 -0.106613,0.943648 0.04744,1.79359 0.08338,0.460029 0.249494,1.04376 0.329551,1.158069 0.03324,0.04746 0.06043,0.114499 0.06043,0.148982 0,0.03448 0.04549,0.123612 0.101072,0.198059 0.0556,0.07446 0.146197,0.233797 0.201323,0.354098 0.177481,0.3872883 0.281157,0.4476381 0.388985,0.2264385 z m 9.446769,0.1244898 c -0.09022,-0.1299847 -0.164047,-0.2630942 -0.164047,-0.2958132 0,-0.03273 -0.01933,-0.07884 -0.04297,-0.102465 -0.07479,-0.07479 -0.307,-0.555963 -0.307,-0.636147 0,-0.04229 -0.01894,-0.08862 -0.04213,-0.102935 -0.05549,-0.0343 -0.153091,-0.369276 -0.306161,-1.050907 -0.124384,-0.553884 -0.08692,-1.989225 0.06453,-2.471655 0.03398,-0.108263 0.09387,-0.310014 0.133073,-0.448315 0.03921,-0.13831 0.08692,-0.261121 0.106022,-0.27293 0.0191,-0.01181 0.04733,-0.0886 0.06273,-0.170627 0.01539,-0.08203 0.06383,-0.195448 0.107657,-0.252024 0.04382,-0.05658 0.09331,-0.158688 0.109988,-0.226914 0.01667,-0.06822 0.04891,-0.146969 0.07163,-0.174984 0.206416,-0.254506 0.261362,-0.331791 0.261362,-0.367632 0,-0.06409 0.15156,-0.186385 0.230992,-0.186385 0.07608,0 0.450321,0.54446 0.525977,0.765207 0.02479,0.07237 0.08662,0.200488 0.137357,0.284698 0.276327,0.458629 0.526271,1.624438 0.525226,2.449781 -6.19e-4,0.38601 -0.08542,1.1905 -0.145485,1.378004 -0.02313,0.07217 -0.07626,0.249352 -0.118087,0.393714 -0.04182,0.144365 -0.09264,0.281178 -0.112925,0.304034 -0.02027,0.02286 -0.03689,0.09668 -0.03689,0.164049 0,0.06738 -0.01838,0.122491 -0.0408,0.122491 -0.02243,0 -0.05451,0.04322 -0.07128,0.09603 -0.01676,0.05281 -0.08699,0.187872 -0.156059,0.300124 -0.06907,0.112244 -0.125579,0.233316 -0.125579,0.2690303 0,0.03571 -0.03937,0.1005724 -0.08749,0.1441227 -0.04812,0.04355 -0.08749,0.1026012 -0.08749,0.1312411 0,0.07823 -0.148604,0.1970843 -0.244047,0.1951982 -0.05124,-9.794e-4 -0.148074,-0.093897 -0.248097,-0.237981 z m 0.522394,-0.3290602 c 0.01483,-0.06016 0.06321,-0.156311 0.107657,-0.213693 0.04446,-0.05739 0.08082,-0.12175 0.08082,-0.143048 0,-0.0213 0.04668,-0.112667 0.103751,-0.203053 0.05705,-0.09039 0.118738,-0.232637 0.137069,-0.316114 0.01835,-0.08348 0.05819,-0.210914 0.08857,-0.28319 0.03038,-0.07228 0.09933,-0.313774 0.153234,-0.536655 0.08478,-0.350575 0.09764,-0.518769 0.09526,-1.246765 -0.0029,-0.867828 -0.02806,-1.055458 -0.231647,-1.721301 -0.05068,-0.16575 -0.117678,-0.360422 -0.148892,-0.432604 -0.0312,-0.07217 -0.06857,-0.160767 -0.08303,-0.196856 -0.01438,-0.03609 -0.04446,-0.09515 -0.06667,-0.131241 -0.02221,-0.03609 -0.07031,-0.134526 -0.106885,-0.218731 -0.03659,-0.08421 -0.144774,-0.257708 -0.240423,-0.385547 -0.145062,-0.19388 -0.178255,-0.218745 -0.200107,-0.149891 -0.01438,0.0454 -0.06108,0.120479 -0.103706,0.166819 -0.185335,0.201521 -0.665183,1.274039 -0.665183,1.486768 0,0.05587 -0.01966,0.113742 -0.04375,0.128607 -0.02408,0.01483 -0.04403,0.07016 -0.0444,0.122886 -3.16e-4,0.05271 -0.02902,0.174588 -0.0637,0.27083 -0.04671,0.129682 -0.06353,0.40303 -0.06495,1.055819 -0.002,0.869104 0.02021,1.049807 0.17741,1.450702 0.02166,0.05527 0.0394,0.145077 0.0394,0.199579 0,0.05449 0.03937,0.180579 0.08749,0.280177 0.04812,0.0996 0.08749,0.208233 0.08749,0.241406 0,0.07573 0.165301,0.40336 0.295286,0.585242 0.05413,0.07575 0.09842,0.159035 0.09842,0.185076 0,0.02604 0.05413,0.1258973 0.120296,0.2219109 l 0.120297,0.1745674 0.122007,-0.1411713 c 0.06711,-0.07764 0.134087,-0.190388 0.148846,-0.250541 z m 9.320477,0.3043061 c -0.114288,-0.1444408 -0.207794,-0.2908031 -0.207794,-0.3252601 0,-0.03445 -0.04921,-0.135177 -0.109368,-0.223811 -0.06016,-0.08863 -0.109368,-0.196141 -0.109368,-0.238898 0,-0.04276 -0.0195,-0.0843 -0.04334,-0.09232 -0.02384,-0.008 -0.07405,-0.132695 -0.111593,-0.277057 -0.03754,-0.144365 -0.09679,-0.306078 -0.13165,-0.359367 -0.03486,-0.05328 -0.06368,-0.16156 -0.06403,-0.240603 -5.07e-4,-0.07905 -0.03427,-0.2323 -0.0754,-0.340572 -0.06211,-0.163515 -0.07476,-0.356161 -0.07476,-1.137399 0,-0.781237 0.01272,-0.973882 0.07476,-1.137399 0.04113,-0.108277 0.07505,-0.252876 0.0754,-0.321345 5.06e-4,-0.06847 0.02843,-0.17674 0.0624,-0.240603 0.03397,-0.06386 0.09485,-0.229272 0.135282,-0.367574 0.04045,-0.138295 0.08869,-0.26083 0.107234,-0.272285 0.01853,-0.0115 0.05829,-0.108656 0.08834,-0.216013 0.03006,-0.107355 0.08197,-0.205669 0.115362,-0.218486 0.03339,-0.01287 0.06072,-0.06252 0.06072,-0.110457 0,-0.04794 0.03523,-0.122371 0.07828,-0.165422 0.04305,-0.04305 0.131922,-0.161924 0.197479,-0.26418 0.06556,-0.102253 0.139552,-0.185921 0.164419,-0.185921 0.113395,0 0.446556,0.45688 0.606108,0.831176 0.172078,0.40369 0.198887,0.458277 0.239482,0.487652 0.02153,0.01558 0.05356,0.114 0.07118,0.218731 0.01762,0.104721 0.06306,0.278999 0.100982,0.387269 0.281546,0.8039 0.272345,2.380194 -0.01892,3.241702 -0.04558,0.134798 -0.08286,0.275825 -0.08286,0.313387 0,0.05985 -0.199976,0.505112 -0.309131,0.688281 -0.02151,0.03609 -0.0897,0.171714 -0.151533,0.301382 -0.114484,0.2400793 -0.353263,0.5305188 -0.434817,0.5289006 -0.02478,-5.071e-4 -0.138568,-0.1190706 -0.252854,-0.263501 z m 0.538798,-0.3426651 c 0.05215,-0.11123 0.131892,-0.254496 0.177189,-0.318362 0.04531,-0.06386 0.08238,-0.15496 0.08238,-0.202437 0,-0.04747 0.02953,-0.110821 0.06562,-0.140778 0.03609,-0.02996 0.06562,-0.08185 0.06562,-0.115316 0,-0.03347 0.01724,-0.09505 0.0383,-0.136812 0.06138,-0.12172 0.172377,-0.527526 0.254116,-0.929012 0.11244,-0.552275 0.102646,-1.637091 -0.01974,-2.187305 -0.138749,-0.623804 -0.219937,-0.884157 -0.316584,-1.015325 -0.04803,-0.0652 -0.08734,-0.149694 -0.08734,-0.187795 0,-0.08613 -0.272691,-0.597085 -0.442295,-0.828753 -0.08235,-0.112486 -0.126412,-0.146318 -0.126412,-0.09706 0,0.04158 -0.02953,0.08695 -0.06562,0.100784 -0.03609,0.01393 -0.06562,0.04614 -0.06562,0.07174 0,0.02561 -0.02666,0.07764 -0.05925,0.11562 -0.11291,0.131604 -0.509444,0.959251 -0.509444,1.063304 0,0.03677 -0.03214,0.143079 -0.07142,0.236245 -0.03928,0.09317 -0.117951,0.405617 -0.174818,0.694341 -0.149406,0.758541 -0.141913,1.331883 0.02757,2.107276 0.07222,0.330405 0.15095,0.620392 0.174983,0.644418 0.02402,0.02402 0.04369,0.08562 0.04369,0.136888 0,0.05125 0.04914,0.190045 0.109186,0.308409 0.06005,0.118359 0.109261,0.250275 0.109367,0.293137 0,0.04285 0.02725,0.08831 0.06032,0.101011 0.03308,0.01272 0.0957,0.105584 0.139173,0.206421 0.04348,0.100846 0.126791,0.2487743 0.185151,0.3287439 l 0.106113,0.1453946 0.102465,-0.096274 c 0.05636,-0.052951 0.145138,-0.1872765 0.197291,-0.2985105 z"
       id="path1404" />
  </g>
</svg>
