<?xml version="1.0" encoding="UTF-8" standalone="no"?>
<!-- Created with Inkscape (http://www.inkscape.org/) -->

<svg
   width="50.000004mm"
   height="50mm"
   viewBox="0 0 50.000004 50"
   version="1.1"
   id="svg5"
   inkscape:version="1.1 (ce6663b3b7, 2021-05-25)"
   sodipodi:docname="bmw.svg"
   xmlns:inkscape="http://www.inkscape.org/namespaces/inkscape"
   xmlns:sodipodi="http://sodipodi.sourceforge.net/DTD/sodipodi-0.dtd"
   xmlns="http://www.w3.org/2000/svg"
   xmlns:svg="http://www.w3.org/2000/svg">
  <sodipodi:namedview
     id="namedview7"
     pagecolor="#ffffff"
     bordercolor="#666666"
     borderopacity="1.0"
     inkscape:pageshadow="2"
     inkscape:pageopacity="0.0"
     inkscape:pagecheckerboard="0"
     inkscape:document-units="mm"
     showgrid="false"
     inkscape:zoom="3.0116429"
     inkscape:cx="115.38553"
     inkscape:cy="120.69824"
     inkscape:window-width="1848"
     inkscape:window-height="1016"
     inkscape:window-x="72"
     inkscape:window-y="27"
     inkscape:window-maximized="1"
     inkscape:current-layer="layer1" />
  <defs
     id="defs2" />
  <g
     inkscape:label="Слой 1"
     inkscape:groupmode="layer"
     id="layer1"
     transform="translate(-10.484808,-13.461167)">
    <ellipse
       style="fill:none;fill-rule:evenodd;stroke:#fe0000;stroke-width:0.131942;stroke-opacity:1"
       id="path31"
       cx="35.48481"
       cy="38.461166"
       rx="24.934031"
       ry="24.934029" />
    <circle
       style="fill:none;stroke:#fe0000;stroke-width:0.128881;stroke-opacity:1"
       id="path1082"
       cx="35.056576"
       cy="19.198448"
       r="2.4355593" />
    <path
       style="fill:none;stroke:#0000ff;stroke-width:0.0889384;stroke-opacity:1"
       d="m 37.848876,14.134058 c 0.17103,0.0225 0.690797,0.09058 1.155031,0.151233 5.969416,0.779935 11.753965,4.032815 15.584154,8.763608 2.339035,2.889013 3.96871,6.154889 4.821387,9.662085 0.229709,0.944826 0.494521,2.552873 0.554471,3.366976 l 0.03932,0.533815 -0.08102,-0.490059 C 59.877669,35.852186 59.768461,35.190608 59.67956,34.651547 58.091725,25.023608 50.807965,17.22162 41.274456,14.936945 39.382591,14.483579 38.101478,14.32595 36.021092,14.290614 c -3.783874,-0.06414 -7.064902,0.607624 -10.519386,2.154189 -4.427491,1.982188 -8.291719,5.458661 -10.933814,9.836669 -2.299156,3.80976 -3.564548,8.910897 -3.313822,13.358873 0.19779,3.509029 0.901415,6.320275 2.345744,9.372169 3.432615,7.253215 10.127327,12.275354 18.166356,13.627763 0.73256,0.12324 1.196818,0.225331 1.03168,0.226875 -0.402286,0.0038 -1.99934,-0.261289 -2.986142,-0.495572 -5.456066,-1.29535 -10.348787,-4.469712 -13.753529,-8.923184 -2.351805,-3.076211 -3.942094,-6.635568 -4.62926,-10.361179 -0.35276,-1.912517 -0.404837,-2.634886 -0.360616,-5.001385 0.04801,-2.564702 0.223382,-3.877918 0.798332,-5.975328 2.386506,-8.706041 9.407542,-15.439351 18.19129,-17.445816 1.903194,-0.434746 3.249052,-0.575678 5.476687,-0.573538 1.101814,0.0011 2.143234,0.02036 2.31427,0.04265 z m 0.182999,1.107766 c 2.926383,0.308841 5.651981,1.116181 8.262492,2.447413 2.461011,1.254985 4.141799,2.504339 6.163773,4.581614 2.008752,2.063693 3.220619,3.799058 4.394082,6.292261 0.827322,1.757762 1.199485,2.808867 1.611834,4.552303 0.524872,2.219195 0.615975,3.146031 0.57362,5.835602 -0.0423,2.687833 -0.161586,3.597582 -0.762153,5.813978 -0.469802,1.733804 -0.876151,2.771881 -1.760607,4.49773 -1.273231,2.484463 -2.483124,4.109326 -4.549,6.109208 -2.02202,1.957426 -3.573333,3.065879 -5.904486,4.218903 -2.429968,1.201902 -4.613569,1.877243 -7.355891,2.27503 -1.207098,0.175094 -4.527877,0.194754 -5.870397,0.03476 C 24.33703,60.887844 17.06279,55.3634 13.817321,47.457479 c -0.802368,-1.954533 -1.333775,-4.06025 -1.564125,-6.19783 -0.146323,-1.357801 -0.123918,-4.300729 0.04024,-5.286698 0.06087,-0.365573 0.135042,-0.864231 0.164832,-1.108118 0.02978,-0.243891 0.09305,-0.583593 0.140544,-0.754883 0.04752,-0.171298 0.107939,-0.45023 0.134298,-0.61987 0.02634,-0.169633 0.09319,-0.447652 0.148481,-0.617814 0.05528,-0.170168 0.186341,-0.607917 0.291188,-0.972785 0.253995,-0.88395 0.820235,-2.339359 1.28037,-3.290965 0.205589,-0.425174 0.381419,-0.802218 0.390743,-0.837876 0.01691,-0.06462 0.125927,-0.258573 0.333293,-0.592885 0.06002,-0.09678 0.316075,-0.516791 0.568993,-0.933361 0.934964,-1.539896 2.630373,-3.552017 4.17959,-4.960358 0.726889,-0.660792 1.880867,-1.596777 1.966954,-1.595384 0.0352,5.7e-4 0.16521,-0.08883 0.288913,-0.198676 0.436912,-0.387964 2.308997,-1.470318 3.557831,-2.056994 0.695544,-0.326742 1.285754,-0.593748 1.311578,-0.59333 0.02583,4.18e-4 0.243737,-0.08397 0.484245,-0.187498 0.240512,-0.103541 0.537666,-0.201094 0.660346,-0.216788 0.122679,-0.01568 0.312702,-0.08466 0.422274,-0.153279 0.109571,-0.06861 0.256133,-0.123834 0.325696,-0.122708 0.06957,0.0011 0.239275,-0.05403 0.37714,-0.122639 0.137865,-0.06858 0.284987,-0.102747 0.326937,-0.07592 0.04194,0.0268 0.128956,0.0067 0.193354,-0.04504 0.06439,-0.05156 0.23382,-0.107039 0.376499,-0.123172 0.14268,-0.01615 0.323666,-0.05544 0.402189,-0.08729 0.07853,-0.03186 0.279438,-0.06765 0.446472,-0.0795 0.167035,-0.01179 0.364147,-0.04294 0.438026,-0.06921 0.148728,-0.05276 1.070185,-0.193329 1.96366,-0.299479 0.904682,-0.107488 3.60463,-0.116537 4.563984,-0.01528 z m -4.778121,0.320987 c -6.789336,0.681468 -12.967623,4.364724 -16.833597,10.035523 -1.86161,2.730691 -3.001593,5.504217 -3.664639,8.915852 -0.249366,1.283095 -0.393893,4.473894 -0.26973,5.955069 0.295304,3.522714 1.472767,7.15656 3.254595,10.044136 1.54277,2.500181 3.618782,4.789814 5.976271,6.591223 1.328445,1.015092 4.482691,2.758057 6.061281,3.349324 1.085181,0.406457 2.798674,0.863094 4.050665,1.07948 1.387492,0.239806 4.823823,0.427498 4.925535,0.269033 0.0362,-0.05639 0.262914,-0.0747 0.57009,-0.04602 0.385328,0.03596 0.466831,0.02472 0.333431,-0.04612 -0.131937,-0.07004 -0.04176,-0.08056 0.356822,-0.04162 0.392239,0.03831 0.486649,0.02783 0.356792,-0.03974 -0.133561,-0.06948 -0.06831,-0.08026 0.267826,-0.04421 0.324301,0.03476 0.396669,0.02392 0.267758,-0.04009 -0.130027,-0.06458 -0.05934,-0.07626 0.267828,-0.04423 0.244464,0.02394 0.364706,0.02125 0.267207,-0.0059 -0.103777,-0.02898 0.230141,-0.133243 0.805402,-0.251492 2.204566,-0.453177 4.72494,-1.410343 6.729641,-2.555724 1.705975,-0.974703 3.157132,-2.073107 4.683631,-3.545122 2.865562,-2.76328 4.818542,-5.892728 6.041756,-9.681278 0.3061,-0.948058 0.760659,-2.941268 0.858118,-3.762793 0.06355,-0.535614 0.09017,-0.613083 0.136679,-0.397672 0.03177,0.147139 0.04917,-0.09251 0.03868,-0.532552 -0.01391,-0.5835 0.0021,-0.727564 0.05896,-0.532224 0.134635,0.462183 0.08136,-3.453279 -0.06109,-4.488568 -0.282162,-2.050876 -0.917123,-4.433645 -1.557777,-5.84573 -0.615223,-1.356034 -1.863206,-3.550088 -2.62728,-4.618966 -3.750453,-5.246571 -9.477265,-8.748533 -15.744927,-9.628077 -1.310871,-0.183943 -4.160538,-0.230907 -5.549906,-0.09272 z m 4.495791,7.459751 c 1.852662,0.305161 3.48463,0.824987 4.960498,1.580047 2.66681,1.364352 4.831658,3.395638 6.362104,5.969591 0.789488,1.327789 1.638212,3.527167 1.748627,4.531379 0.0299,0.272022 -0.02862,0.15022 -0.202217,-0.420944 -0.357208,-1.175152 -0.621528,-1.866125 -1.060357,-2.771913 -2.132081,-4.40082 -6.171831,-7.518485 -11.013608,-8.499721 -0.857795,-0.173836 -1.385281,-0.220998 -2.711703,-0.242465 -1.326422,-0.02147 -1.855159,0.0086 -2.718128,0.15459 -1.902841,0.321913 -3.857716,1.029772 -5.414985,1.960763 -3.188836,1.906392 -5.610254,4.894486 -6.773288,8.358406 -1.81198,5.396701 -0.526388,11.324681 3.348791,15.441581 2.170787,2.306185 4.706766,3.78872 7.902627,4.619878 0.916762,0.238428 0.49905,0.242765 -0.489785,0.0051 -5.856148,-1.407582 -10.355142,-6.200514 -11.566178,-12.321848 -0.172619,-0.872524 -0.190284,-1.210794 -0.160221,-3.068365 0.03006,-1.857581 0.05868,-2.195092 0.259426,-3.061576 0.771479,-3.329668 2.307953,-5.991188 4.757451,-8.240993 2.138493,-1.964146 4.774938,-3.289834 7.693821,-3.868669 0.72811,-0.144394 1.255336,-0.176365 2.851981,-0.172922 1.077309,0.0023 2.078624,0.02394 2.225143,0.04815 z m -0.58641,0.4739 c 2.404412,0.238654 4.954529,1.177561 6.980893,2.570242 2.789451,1.917127 4.879092,4.714951 5.84028,7.819559 0.385107,1.243885 0.388602,1.641991 0.0042,0.475153 -1.482621,-4.500092 -4.55008,-7.856573 -8.763406,-9.589099 -1.648849,-0.678004 -2.961668,-0.971022 -4.86634,-1.086145 -3.718296,-0.224754 -7.439427,1.031486 -10.450924,3.528201 -3.352429,2.779362 -5.40083,7.352358 -5.257591,11.737428 0.219218,6.711035 4.61352,12.249926 11.211581,14.131883 1.011499,0.288507 1.03382,0.366422 0.04032,0.140735 -1.618268,-0.367612 -3.557556,-1.234568 -4.995337,-2.233165 -5.608895,-3.895587 -7.904447,-11.048539 -5.620199,-17.51259 2.002504,-5.666757 7.273709,-9.624201 13.357421,-10.028294 1.163064,-0.07724 1.302133,-0.0747 2.519138,0.04597 z m 0.42001,0.495978 c 5.878011,0.812042 10.620613,4.93256 12.210149,10.608557 0.298198,1.064823 0.495683,2.326236 0.512826,3.275648 l 0.01284,0.711108 -7.277232,-0.09503 c -5.787683,-0.07562 -7.279246,-0.117903 -7.28708,-0.206793 -0.01373,-0.15572 0.257618,-14.322761 0.274592,-14.337063 0.102393,-0.08621 0.744835,-0.0682 1.553898,0.04356 z m -1.522706,7.122231 -0.11502,7.107178 7.090007,0.114742 7.090009,0.114743 -0.04142,-0.822657 c -0.27948,-5.551264 -4.172379,-10.732201 -9.538261,-12.694166 -1.27002,-0.464367 -2.692488,-0.772395 -4.214716,-0.912675 -0.146976,-0.01354 -0.161945,0.378821 -0.270603,7.092835 z m 1.223887,-6.854128 c 2.988999,0.438171 5.11088,1.341694 7.418853,3.159025 0.608699,0.479302 1.883822,1.78047 2.157681,2.201759 0.105062,0.161615 -0.109875,-0.03846 -0.477637,-0.444577 -1.881006,-2.077272 -4.208594,-3.545386 -6.838215,-4.313163 -0.833835,-0.243457 -2.131051,-0.479776 -2.68545,-0.489215 l -0.422809,-0.0072 -0.109972,6.79525 -0.109973,6.795275 3.76045,0.08406 3.76045,0.08406 -3.71391,0.01745 c -2.042651,0.0096 -3.775505,-0.0073 -3.850786,-0.03756 -0.122174,-0.04908 -0.122417,-0.797134 -0.0023,-6.964473 l 0.134624,-6.909496 0.356231,-0.0052 c 0.195925,-0.0026 0.476149,0.01231 0.622711,0.0339 z m 9.938916,5.857347 c 0.202055,0.242874 0.720415,1.073349 0.574327,0.920139 -0.173018,-0.181447 -0.792173,-1.079175 -0.743758,-1.078392 0.02107,3.41e-4 0.0973,0.07155 0.169431,0.158253 z m -11.63929,-6.238454 c 0.0321,0.03309 0.0058,3.311722 -0.05855,7.285815 l -0.116938,7.22563 -7.249354,-0.117321 c -4.821716,-0.07803 -7.267621,-0.147911 -7.303891,-0.208655 -0.03,-0.0502 -0.0025,-0.539643 0.06114,-1.087579 0.812904,-7.001253 6.224905,-12.347084 13.212015,-13.050487 1.264692,-0.127313 1.374589,-0.130898 1.455581,-0.0474 z m -2.281607,0.309677 c -5.886804,0.904038 -10.7153,5.473772 -11.994919,11.352108 -0.106025,0.487028 -0.226065,1.234867 -0.266768,1.661856 l -0.07401,0.77636 7.133332,0.115444 7.133332,0.115444 0.115219,-7.11943 0.115218,-7.119432 -0.690828,0.04896 c -0.379956,0.02693 -1.041714,0.102838 -1.470573,0.168697 z m 1.978747,0.06541 c -9.3e-4,0.05747 -0.03928,0.0804 -0.08522,0.05099 -0.245059,-0.15669 -2.793108,0.268218 -4.033595,0.672625 -1.128199,0.367805 -1.143089,0.371109 -0.639221,0.141844 0.915412,-0.416522 2.600593,-0.789218 4.157911,-0.919553 0.435876,-0.03645 0.601347,-0.02151 0.600123,0.05408 z m -6.253671,1.606708 c -3.20745,1.672398 -5.68376,4.486735 -6.907046,7.84989 -0.312543,0.859273 -0.665378,2.415691 -0.731566,3.227049 l -0.06303,0.772566 0.702343,0.03795 0.702344,0.03795 -0.699776,0.03265 c -0.384879,0.01801 -0.742811,0.005 -0.795404,-0.02889 -0.119739,-0.07712 0.07865,-1.65995 0.337056,-2.689259 0.863778,-3.44061 3.155363,-6.632309 6.188087,-8.618709 0.493193,-0.323035 1.917863,-1.070044 2.033398,-1.066188 0.04493,0.0014 -0.299967,0.201717 -0.766416,0.444929 z m 6.124658,8.17119 c 0.0196,1.295495 0.01633,2.735022 -0.0073,3.198949 l -0.04289,0.843505 -1.6026,-0.004 c -0.881428,-0.0022 -2.323063,-0.04952 -3.203628,-0.105074 -1.535992,-0.09694 -1.473607,-0.09952 1.535777,-0.06369 l 3.13681,0.03733 0.07407,-3.131228 0.07407,-3.131216 z m 0.185372,4.727494 c 0.116398,0.07448 -0.138456,14.381037 -0.258295,14.499288 -0.102669,0.101308 -1.870172,-0.114117 -2.888366,-0.352031 -1.80279,-0.421255 -3.465694,-1.165947 -5.079662,-2.274817 -1.238162,-0.850669 -2.8433,-2.465331 -3.705194,-3.72717 -0.734714,-1.075652 -1.527679,-2.719345 -1.912878,-3.965109 -0.457665,-1.48013 -0.829873,-4.299284 -0.578879,-4.384517 0.183426,-0.06229 14.319576,0.138001 14.423266,0.204358 z m -14.324898,0.331026 c 0.02064,0.195831 0.0582,0.596323 0.08345,0.889979 0.124461,1.447202 0.667346,3.370986 1.358062,4.812485 0.938892,1.959422 2.514499,3.899488 4.27601,5.265128 2.09478,1.624 4.932192,2.742654 7.484656,2.950835 l 0.778046,0.06348 0.114311,-7.06334 0.11431,-7.063335 -7.123191,-0.105678 -7.12319,-0.105678 z m 13.96849,2.425419 -0.05987,2.420546 0.01196,-2.307339 c 0.0066,-1.269037 -0.01955,-2.339835 -0.05808,-2.379551 -0.03852,-0.03971 -3.106975,-0.09406 -6.818777,-0.120785 l -6.748724,-0.04856 0.05001,0.671216 c 0.260949,3.502602 2.023125,7.083533 4.633704,9.416206 0.401059,0.358362 1.085817,0.89767 1.521682,1.198468 0.929376,0.641355 1.001629,0.70377 0.526855,0.4551 -0.534295,-0.27984 -1.679556,-1.151348 -2.437185,-1.854625 -0.756489,-0.702214 -1.763823,-1.945327 -2.381467,-2.938881 -1.123853,-1.807849 -1.897896,-4.241415 -2.043129,-6.423516 l -0.04885,-0.733909 6.955859,0.112571 6.955863,0.112572 z m -6.16788,9.658938 c 0.182025,0.09971 0.330633,0.201128 0.33024,0.225384 -3.92e-4,0.02424 -0.159618,-0.04005 -0.353833,-0.142954 -0.194218,-0.102876 -0.352811,-0.206222 -0.352432,-0.229664 9.41e-4,-0.05811 0.0015,-0.0579 0.376025,0.147234 z M 50.352289,39.279287 c -0.007,0.433333 -0.191067,1.699536 -0.361825,2.489193 -0.546607,2.52773 -1.975173,5.105813 -3.919688,7.073731 -1.372926,1.389455 -2.577864,2.254001 -4.266365,3.061147 -1.654187,0.790734 -3.588737,1.284635 -5.457442,1.393309 l -0.824367,0.04797 0.118081,-7.296313 0.118082,-7.296317 7.299117,0.118127 7.299117,0.118126 z m -14.533067,6.740366 -0.114696,7.08711 0.831822,-0.0472 c 2.47225,-0.140247 4.879037,-0.936966 7.086675,-2.3459 1.198425,-0.76485 3.044715,-2.537713 3.834592,-3.682084 1.413652,-2.04812 2.392494,-4.597836 2.571963,-6.699535 0.03202,-0.37494 0.07708,-0.791369 0.100147,-0.925402 l 0.04193,-0.243696 -7.118861,-0.115209 -7.118864,-0.11521 z m 14.167166,-6.13774 c -0.0105,0.648833 -0.387688,2.411918 -0.727045,3.398409 -0.245146,0.712625 -1.31243,2.917945 -1.378967,2.849349 -0.01969,-0.02032 0.144855,-0.372046 0.365696,-0.781622 0.473258,-0.877712 0.968056,-2.195739 1.24189,-3.308113 0.23516,-0.955258 0.448798,-2.393427 0.382461,-2.574658 -0.02622,-0.07163 -0.0089,-0.129613 0.03855,-0.128846 0.04742,7.68e-4 0.08226,0.246235 0.07741,0.545481 z M 36.569846,39.181261 c -0.06467,0.02463 -0.141397,0.0202 -0.170497,-0.0098 -0.0291,-0.02999 0.02382,-0.05018 0.117584,-0.04475 0.103624,0.0062 0.124379,0.02736 0.05291,0.05453 z m 2.186267,13.453685 c -0.06467,0.02463 -0.141397,0.02019 -0.170498,-0.0098 -0.0291,-0.02998 0.02381,-0.05018 0.117586,-0.04475 0.103623,0.0062 0.124376,0.02736 0.0529,0.05454 z m -0.381112,0.05618 c -0.07536,0.07667 -1.762654,0.293781 -2.133971,0.274584 -0.171257,-0.0086 0.06996,-0.05908 0.536029,-0.11164 0.466068,-0.05253 1.028138,-0.122778 1.249042,-0.156074 0.220906,-0.0333 0.37791,-0.03637 0.348899,-0.0069 z M 50.542418,40.714887 c -0.06426,0.853016 -0.459614,2.444739 -0.857311,3.45155 -1.617189,4.094106 -5.072397,7.362841 -9.230521,8.73237 -0.995379,0.327835 -2.461609,0.643963 -2.907771,0.626931 -0.159913,-0.0059 0.22297,-0.119638 0.850842,-0.252288 4.030003,-0.851424 7.385275,-3.091072 9.646918,-6.439325 1.208273,-1.788793 1.897328,-3.587154 2.460528,-6.421721 0.08743,-0.440013 0.09104,-0.410732 0.03731,0.302483 z m 0.190961,1.656194 c -0.002,0.122158 -0.02299,0.171798 -0.0467,0.110319 -0.02371,-0.0615 -0.02209,-0.161418 0.0036,-0.222099 0.0257,-0.0607 0.04509,-0.01042 0.04311,0.11178 z m -0.135076,0.530992 c -0.113818,0.596731 -0.613414,1.908269 -1.05974,2.78203 -1.655655,3.241226 -4.554495,5.941207 -7.773232,7.240001 -1.046671,0.422345 -1.872967,0.68685 -1.937585,0.620239 -0.02321,-0.0239 0.07027,-0.06936 0.207738,-0.100963 0.137458,-0.03159 0.665329,-0.229626 1.173042,-0.440041 4.374899,-1.813125 7.352193,-4.890833 9.046384,-9.351489 0.221392,-0.58291 0.375921,-0.920314 0.343393,-0.749777 z M 49.7974,47.048657 c 0.185148,0.07958 4.727046,4.011176 4.725758,4.090752 -0.0017,0.10286 -3.174462,3.717024 -3.519703,4.009335 -0.661421,0.560009 -1.482058,0.675561 -1.846765,0.260032 -0.08515,-0.09702 -0.183279,-0.159475 -0.218059,-0.138791 -0.08505,0.05058 -0.444319,-0.21479 -0.442505,-0.326854 7.92e-4,-0.04898 0.04723,-0.05977 0.103181,-0.02398 0.06354,0.04063 0.07819,0.02562 0.03901,-0.04 -0.0345,-0.05779 -0.09861,-0.08372 -0.142469,-0.05763 -0.108287,0.0644 -0.358216,-0.34641 -0.425369,-0.699182 -0.04859,-0.255284 -0.08911,-0.288647 -0.361881,-0.298073 -0.548556,-0.01898 -0.658091,-0.04721 -0.971053,-0.250557 -0.169614,-0.110211 -0.348383,-0.204743 -0.397268,-0.210083 -0.04888,-0.0053 -0.07809,-0.05769 -0.06488,-0.116354 0.01318,-0.05868 -0.0228,-0.0974 -0.07997,-0.08611 -0.05718,0.01133 -0.194285,-0.140887 -0.304691,-0.33817 -0.256698,-0.458691 -0.2584,-1.080976 -0.0043,-1.558907 0.213432,-0.401382 3.51085,-4.240661 3.662078,-4.263864 0.05517,-0.0085 0.16715,0.01333 0.248856,0.04846 z m -1.603082,2.079351 c -0.882751,1.012079 -1.712425,2.014159 -1.843718,2.226842 -0.340228,0.551127 -0.345579,1.108627 -0.01494,1.556296 0.482538,0.65334 0.990307,0.803933 1.930741,0.572615 0.233992,-0.05759 0.237015,-0.05239 0.21657,0.372128 -0.02453,0.509095 0.215359,0.973157 0.700367,1.354925 0.438835,0.345416 0.927219,0.345377 1.444436,-1.07e-4 0.412486,-0.275535 3.659339,-3.933875 3.612584,-4.07042 -0.02447,-0.07149 -4.401001,-3.887877 -4.429524,-3.862615 -0.0064,0.0057 -0.733761,0.838259 -1.616513,1.850344 z m 2.018534,0.312323 c 0.324488,0.281253 0.589547,0.537826 0.589023,0.570166 -0.0018,0.109907 -1.995575,2.363861 -2.170454,2.453668 -0.559287,0.287199 -1.250173,-0.153513 -1.239857,-0.7909 0.005,-0.306368 0.115602,-0.472381 1.026593,-1.540362 0.561571,-0.658339 1.062366,-1.198548 1.11288,-1.20046 0.05051,-0.0018 0.357328,0.226643 0.681815,0.507888 z m -1.560689,0.733139 c -0.468336,0.538917 -0.901508,1.061754 -0.962604,1.16186 -0.269685,0.441864 -0.04222,0.934008 0.404827,0.875899 0.224041,-0.02914 0.448021,-0.231951 1.165119,-1.05509 1.150904,-1.321097 1.146995,-1.313356 0.80688,-1.597955 -0.148899,-0.124594 -0.241311,-0.166075 -0.205361,-0.09219 0.03595,0.07389 -8e-6,0.04333 -0.0799,-0.06795 -0.07989,-0.111261 -0.175005,-0.202771 -0.211355,-0.203359 -0.03636,-5.88e-4 -0.449272,0.439858 -0.917608,0.978773 z m 1.32747,0.427454 c -0.113003,0.139107 -0.109905,0.142304 0.03307,0.0341 0.150152,-0.113656 0.198486,-0.185847 0.125225,-0.187032 -0.01849,-2.99e-4 -0.08971,0.06853 -0.15829,0.152949 z m -0.907392,1.051671 c -0.113002,0.139107 -0.109904,0.142304 0.03307,0.03409 0.08675,-0.06567 0.157992,-0.134495 0.158291,-0.152948 0.0012,-0.07312 -0.07268,-0.02723 -0.191356,0.118865 z m 3.064755,-0.568737 c 0.274856,0.234567 0.50037,0.486476 0.501141,0.559793 0.0013,0.123299 -1.708788,2.156672 -1.934316,2.299992 -0.05509,0.03501 -0.266871,0.06158 -0.470601,0.05903 -0.305228,-0.0036 -0.410195,-0.05342 -0.59644,-0.281698 -0.245323,-0.300722 -0.276093,-0.556925 -0.102273,-0.851632 0.246641,-0.418171 1.844719,-2.214175 1.969214,-2.213103 0.07344,5.6e-4 0.35842,0.193061 0.633275,0.427618 z m -1.588361,0.850992 c -0.524335,0.61015 -0.954384,1.174126 -0.955665,1.25328 -0.0013,0.07915 0.05493,0.228381 0.124914,0.331618 0.139888,0.206348 0.490212,0.223237 0.725152,0.035 0.234951,-0.188286 1.707008,-1.948604 1.725861,-2.063831 0.0099,-0.06018 -0.06712,-0.18337 -0.171032,-0.273811 -0.186004,-0.161895 -0.186906,-0.161558 -0.05839,0.02193 0.07179,0.102509 0.01251,0.05239 -0.131756,-0.111318 -0.144261,-0.163735 -0.272069,-0.298707 -0.284021,-0.299942 -0.01196,-0.0015 -0.450728,0.496961 -0.975063,1.107104 z m 1.636209,-0.05416 c -0.113002,0.139113 -0.109905,0.14231 0.03307,0.03409 0.08676,-0.06567 0.157992,-0.134502 0.15829,-0.152948 0.0012,-0.07312 -0.07268,-0.02724 -0.191353,0.118858 z m -1.451536,1.664906 c -0.113001,0.139113 -0.109904,0.142304 0.03307,0.0341 0.08675,-0.06568 0.15799,-0.134502 0.158288,-0.152949 0.0012,-0.07312 -0.07268,-0.02723 -0.191355,0.118866 z M 49.012979,47.76388 c -0.09019,0.09629 -0.143962,0.175392 -0.119482,0.175789 0.02448,3.96e-4 0.1183,-0.07806 0.208494,-0.174349 0.09019,-0.09629 0.14396,-0.175397 0.119481,-0.175793 -0.02448,-3.96e-4 -0.1183,0.07807 -0.208493,0.174353 z m -0.510635,0.591561 c -0.113002,0.139114 -0.109904,0.142304 0.03307,0.03409 0.08675,-0.06567 0.157992,-0.134502 0.15829,-0.152949 0.0012,-0.07312 -0.07268,-0.02723 -0.191355,0.118866 z m -0.453695,0.525835 c -0.113002,0.139114 -0.109905,0.142304 0.03307,0.0341 0.08675,-0.06567 0.157991,-0.134502 0.15829,-0.152949 0.0012,-0.07312 -0.07268,-0.02723 -0.191356,0.118865 z m -0.487206,0.547511 c -0.09019,0.09628 -0.143961,0.175391 -0.119482,0.175787 0.02448,3.97e-4 0.118302,-0.07807 0.208495,-0.174347 0.09019,-0.09629 0.14396,-0.175398 0.119483,-0.175794 -0.02448,-3.96e-4 -0.118303,0.07807 -0.208496,0.174354 z m -0.453695,0.525835 c -0.09019,0.09628 -0.143959,0.175392 -0.11948,0.175788 0.02448,3.96e-4 0.118301,-0.07807 0.208493,-0.174347 0.09019,-0.09629 0.14396,-0.175399 0.119481,-0.175795 -0.02448,-3.96e-4 -0.118301,0.07807 -0.208494,0.174354 z m -0.510633,0.591561 c -0.113002,0.139106 -0.109906,0.142303 0.03307,0.0341 0.150152,-0.113656 0.198487,-0.185846 0.125225,-0.187032 -0.01849,-2.99e-4 -0.08971,0.06853 -0.15829,0.15295 z m -0.788071,1.625649 c 0.02728,0.07134 0.04871,0.05063 0.05464,-0.05279 0.0054,-0.09358 -0.01481,-0.146393 -0.04486,-0.117359 -0.03006,0.02903 -0.03446,0.105619 -0.0098,0.170163 z M 21.638047,47.40736 c 0.262795,0.341602 0.491499,0.664396 0.508227,0.717325 0.01674,0.05292 -0.365271,0.673544 -0.848892,1.379151 -0.483621,0.705602 -0.867027,1.295578 -0.852013,1.311061 0.01501,0.01549 0.671899,-0.238946 1.459742,-0.565378 0.787843,-0.326437 1.474613,-0.576584 1.526155,-0.555879 0.133581,0.05364 1.089234,1.27346 1.087381,1.387945 -0.0026,0.157932 -3.554716,4.625906 -3.676159,4.62394 -0.108952,-0.0018 -1.009673,-1.021562 -1.009307,-1.142744 1.97e-4,-0.03301 0.414469,-0.597915 0.920823,-1.255296 0.506355,-0.657382 0.904807,-1.211567 0.88545,-1.231525 -0.01936,-0.01994 -0.614144,0.211045 -1.321754,0.513337 -0.707611,0.302295 -1.356505,0.570535 -1.44199,0.5961 -0.112995,0.03382 -0.289641,-0.122761 -0.647018,-0.573405 -0.270372,-0.340938 -0.491107,-0.649465 -0.490522,-0.685616 5.86e-4,-0.03616 0.383354,-0.605341 0.850601,-1.264857 0.467242,-0.65952 0.881126,-1.250673 0.919739,-1.313677 0.03862,-0.06303 -0.538675,0.177584 -1.282854,0.534633 -0.744185,0.35705 -1.428765,0.647956 -1.521299,0.646458 -0.181755,-0.0029 -0.976358,-0.930985 -0.973033,-1.136448 0.002,-0.121357 5.092294,-2.621182 5.317105,-2.611192 0.06149,0.003 0.326825,0.284463 0.589618,0.626067 z m -3.150379,0.805449 c -1.344503,0.643486 -2.459129,1.182962 -2.476945,1.198831 -0.01782,0.01587 0.133476,0.231751 0.336205,0.479739 l 0.368595,0.450878 1.604094,-0.769242 c 0.882257,-0.423077 1.624548,-0.768906 1.649544,-0.768501 0.171307,0.0028 -0.08618,0.456413 -0.958486,1.688712 -1.100319,1.554394 -1.070686,1.432338 -0.505901,2.083672 l 0.329676,0.380201 1.589637,-0.68237 c 1.531846,-0.657566 1.8617,-0.764502 1.859081,-0.602707 -6.7e-4,0.04142 -0.259922,0.407113 -0.576115,0.812665 -0.316195,0.40555 -0.803842,1.036894 -1.083663,1.402984 l -0.508765,0.665622 0.356711,0.455724 0.356709,0.455725 1.718912,-2.188957 1.718911,-2.188955 -0.221865,-0.287995 c -0.122024,-0.158398 -0.331412,-0.418378 -0.465302,-0.57773 l -0.243437,-0.289732 -1.62731,0.669799 c -0.895969,0.368785 -1.674111,0.639867 -1.731458,0.603208 -0.07068,-0.04518 0.220763,-0.537991 0.906728,-1.533231 0.555983,-0.806651 1.011133,-1.482499 1.011447,-1.501892 8.97e-4,-0.05543 -0.873722,-1.124983 -0.920551,-1.125741 -0.02304,-3.73e-4 -1.141948,0.525813 -2.486452,1.169293 z m 20.414217,9.580704 -0.07625,3.268237 -0.986509,0.009 -0.986509,0.009 -0.764613,-2.096915 -0.764611,-2.096918 -0.777633,1.958112 c -0.427698,1.076962 -0.816401,2.007469 -0.863786,2.067795 -0.0949,0.120828 -2.020765,0.131915 -2.025005,0.01166 -0.02229,-0.631959 0.09983,-6.094191 0.138857,-6.210732 0.04563,-0.136304 0.142854,-0.158685 0.611643,-0.140821 l 0.557377,0.02124 -0.488533,-0.07229 -0.488534,-0.0723 0.508933,-0.0062 c 0.420955,-0.0052 0.524376,0.0237 0.598294,0.167085 0.05283,0.102482 0.07828,0.892913 0.06224,1.933777 -0.01651,1.066652 0.005,1.711611 0.05431,1.636527 0.04481,-0.06815 0.06171,-0.177851 0.03758,-0.243764 -0.02413,-0.06592 0.0029,-0.119092 0.05992,-0.11817 0.05708,9.24e-4 0.07969,-0.0387 0.05022,-0.08805 -0.02947,-0.04935 -0.0069,-0.08897 0.05022,-0.08805 0.05709,9.24e-4 0.0817,-0.05867 0.05471,-0.132411 -0.02699,-0.07375 -0.01155,-0.13348 0.03434,-0.132737 0.04588,7.43e-4 0.05893,-0.0656 0.02899,-0.147404 -0.03979,-0.108706 -0.02266,-0.128426 0.06362,-0.07326 0.0863,0.05516 0.103418,0.03545 0.06362,-0.07326 -0.02999,-0.08193 -0.01143,-0.148058 0.0413,-0.147204 0.05266,8.52e-4 0.07365,-0.05879 0.04665,-0.132539 -0.02699,-0.07375 -0.01153,-0.133482 0.03434,-0.132739 0.04587,7.42e-4 0.06134,-0.05899 0.03434,-0.132737 -0.02699,-0.07376 -0.0023,-0.133335 0.05471,-0.132411 0.05708,9.24e-4 0.07969,-0.0387 0.05021,-0.08805 -0.02946,-0.04935 -0.01241,-0.08906 0.03789,-0.08825 0.05031,8.15e-4 0.06938,-0.05886 0.04239,-0.132607 -0.02699,-0.07375 -0.0059,-0.133392 0.04665,-0.13254 0.05271,8.53e-4 0.07127,-0.06529 0.0413,-0.147202 -0.03979,-0.108707 -0.02266,-0.12843 0.06362,-0.07326 0.08533,0.05456 0.103564,0.03585 0.06575,-0.06748 -0.02878,-0.07864 -0.0093,-0.156527 0.04332,-0.173091 0.05261,-0.01654 0.09739,-0.137653 0.09952,-0.269099 0.0022,-0.137452 0.04148,-0.214933 0.09241,-0.182374 0.0487,0.03114 0.07072,8.09e-4 0.04893,-0.06748 -0.02179,-0.06825 0.02484,-0.176 0.103628,-0.239441 0.110873,-0.08929 0.11282,-0.100461 0.0086,-0.04946 -0.115896,0.05673 -0.11729,0.04527 -0.01003,-0.08243 0.177085,-0.210819 1.576112,-0.199855 1.490825,0.0117 -0.03038,0.07536 -0.01995,0.116026 0.0232,0.09037 0.108944,-0.06479 0.301497,0.452534 0.217277,0.583748 -0.04371,0.06809 -0.03093,0.08446 0.03522,0.04511 0.09637,-0.05732 0.13677,0.06639 0.120881,0.370183 -0.0032,0.06052 0.0365,0.08489 0.08816,0.05418 0.05921,-0.03522 0.0742,0.0147 0.04058,0.135028 -0.03417,0.122314 -0.01897,0.17044 0.04235,0.133982 0.06132,-0.03647 0.07653,0.01165 0.04235,0.133978 -0.02932,0.104986 -0.01957,0.170797 0.02171,0.146252 0.101487,-0.06036 0.199294,0.287543 0.116922,0.415876 -0.03932,0.06124 -0.02662,0.0791 0.03164,0.04446 0.117821,-0.07007 0.231515,0.258801 0.139196,0.402631 -0.04368,0.06806 -0.02618,0.07884 0.05229,0.03218 0.08788,-0.05226 0.104356,-0.02148 0.06462,0.120733 -0.03418,0.122315 -0.01896,0.170441 0.04235,0.133978 0.06131,-0.03646 0.07652,0.01165 0.04234,0.133981 -0.0345,0.123528 -0.01918,0.170568 0.04348,0.133314 0.0618,-0.03675 0.07471,-0.0028 0.03571,0.09393 -0.04085,0.101332 -0.02698,0.131206 0.04196,0.09022 0.07097,-0.04221 0.08534,0.002 0.04619,0.142227 -0.03471,0.124219 -0.02436,0.172101 0.02656,0.122905 0.04586,-0.04431 0.107216,-0.878851 0.136327,-1.854501 l 0.05292,-1.773901 0.691378,-0.01478 0.691377,-0.01477 z m -1.206094,-0.771098 c -0.01261,1.676858 -0.03803,2.065449 -0.134868,2.063882 -0.07392,-0.0012 -0.400883,-0.784358 -0.859086,-2.057754 l -0.739745,-2.055818 -0.608023,-0.0098 -0.608021,-0.0098 -0.801709,2.030872 c -0.520696,1.319015 -0.8454,2.030169 -0.926349,2.028859 -0.102584,-0.0017 -0.122952,-0.367587 -0.115105,-2.067927 l 0.0095,-2.065911 -0.487934,-0.0079 -0.487934,-0.0079 -0.04745,2.931767 -0.04745,2.931712 0.836106,0.01353 c 0.71374,0.01155 0.845392,-0.0091 0.899545,-0.140954 0.172365,-0.419739 1.297268,-3.214514 1.456978,-3.619801 0.100469,-0.254967 0.232608,-0.462768 0.293633,-0.461781 0.06292,10e-4 0.436291,0.901634 0.862336,2.080024 0.413257,1.143023 0.784324,2.121632 0.824595,2.174688 0.04291,0.05652 0.39661,0.09904 0.854425,0.102689 l 0.781204,0.0062 0.07126,-2.953543 0.07125,-2.953541 -0.540841,-0.0088 -0.540841,-0.0088 z M 58.616085,42.165419 c 0.02371,0.0615 0.04472,0.01187 0.0467,-0.110326 0.002,-0.122158 -0.01741,-0.172451 -0.04311,-0.111779 -0.0257,0.0607 -0.02731,0.16062 -0.0036,0.222105 z m -5.846966,12.124027 c -0.113002,0.139115 -0.109903,0.142308 0.03307,0.03409 0.08675,-0.06567 0.157992,-0.134501 0.15829,-0.152947 0.0012,-0.07312 -0.07268,-0.02723 -0.191355,0.118859 z m -2.080381,2.010181 c -0.113001,0.139115 -0.109905,0.142305 0.03307,0.03409 0.08675,-0.06567 0.15799,-0.134501 0.158289,-0.152948 0.0012,-0.07312 -0.07268,-0.02724 -0.191355,0.11886 z m 9.312685,-19.502752 c -0.0059,0.103423 -0.02738,0.124133 -0.05464,0.05279 -0.02468,-0.06458 -0.02027,-0.141121 0.0098,-0.170162 0.03005,-0.02903 0.05025,0.02375 0.04486,0.117358 z M 33.829956,62.955279 c -0.135636,0.01823 -0.335908,0.01446 -0.445047,-0.0086 -0.109138,-0.02286 0.0018,-0.03777 0.246613,-0.03315 0.244777,0.0046 0.334074,0.02334 0.198438,0.04157 z"
       id="path2039" />
  </g>
</svg>
