<?xml version="1.0" encoding="UTF-8" standalone="no"?>
<!-- Created with Inkscape (http://www.inkscape.org/) -->

<svg
   width="50.000004mm"
   height="50mm"
   viewBox="0 0 50.000004 50"
   version="1.1"
   id="svg5"
   inkscape:version="1.1 (ce6663b3b7, 2021-05-25)"
   sodipodi:docname="bugatti.svg"
   xmlns:inkscape="http://www.inkscape.org/namespaces/inkscape"
   xmlns:sodipodi="http://sodipodi.sourceforge.net/DTD/sodipodi-0.dtd"
   xmlns="http://www.w3.org/2000/svg"
   xmlns:svg="http://www.w3.org/2000/svg">
  <sodipodi:namedview
     id="namedview7"
     pagecolor="#ffffff"
     bordercolor="#666666"
     borderopacity="1.0"
     inkscape:pageshadow="2"
     inkscape:pageopacity="0.0"
     inkscape:pagecheckerboard="0"
     inkscape:document-units="mm"
     showgrid="false"
     inkscape:zoom="1.5037598"
     inkscape:cx="-78.802478"
     inkscape:cy="198.50244"
     inkscape:window-width="1848"
     inkscape:window-height="1016"
     inkscape:window-x="72"
     inkscape:window-y="27"
     inkscape:window-maximized="1"
     inkscape:current-layer="layer1" />
  <defs
     id="defs2" />
  <g
     inkscape:label="Слой 1"
     inkscape:groupmode="layer"
     id="layer1"
     transform="translate(-10.484808,-13.461167)">
    <ellipse
       style="fill:none;fill-rule:evenodd;stroke:#fe0000;stroke-width:0.131942;stroke-opacity:1"
       id="path31"
       cx="35.48481"
       cy="38.461166"
       rx="24.934031"
       ry="24.934029" />
    <circle
       style="fill:none;stroke:#fe0000;stroke-width:0.128881;stroke-opacity:1"
       id="path1082"
       cx="35.827099"
       cy="17.861731"
       r="2.4355593" />
    <path
       style="fill:none;stroke:#0000ff;stroke-width:0.266449;stroke-opacity:1"
       d="M 32.948551,62.506077 C 24.625538,61.687953 17.390096,55.33406 15.291125,46.999994 c -0.366515,-1.45526 -0.443268,-2.347402 -0.440143,-5.11604 0.0047,-4.243711 0.428397,-6.097719 2.177316,-9.529475 7.820242,-15.344994 30.218913,-15.020448 37.492981,0.543262 1.343661,2.874932 1.817584,4.952992 1.915887,8.40076 0.104801,3.675623 -0.358034,6.165201 -1.689083,9.08555 C 50.823965,58.9936 42.770985,63.471602 32.948551,62.506077 Z m 5.239866,-0.688016 c 0.261993,-0.164076 0.369171,-0.315027 0.238175,-0.33546 -0.353119,-0.05507 -0.29078,-1.884044 0.07353,-2.157428 0.331765,-0.248952 0.859678,0.236093 0.971607,0.892719 0.03712,0.217729 -0.07108,0.666849 -0.240447,0.998027 -0.283542,0.55446 -0.251698,0.602142 0.402107,0.602142 0.675801,0 0.69483,-0.0328 0.394692,-0.681382 -0.618668,-1.336813 -0.302543,-2.560952 0.55292,-2.141093 0.501686,0.246231 0.620672,1.252246 0.236874,2.002758 -0.177839,0.347756 -0.114326,0.447122 0.28581,0.447122 0.546197,0 0.647868,-0.335277 0.30499,-1.005773 -0.349427,-0.683299 -0.01319,-1.975033 0.514101,-1.975033 0.569267,0 0.794869,0.945177 0.469085,1.965286 -0.218462,0.684059 -0.200475,0.728533 0.208105,0.514632 0.245977,-0.128714 0.618718,-0.247049 0.828312,-0.262837 0.347848,-0.02619 0.343325,-0.05845 -0.05184,-0.368736 -0.556477,-0.437065 -0.726865,-1.322179 -0.40191,-2.087847 0.22836,-0.538064 0.194932,-0.577623 -0.312131,-0.369257 -1.23758,0.508535 -3.293292,0.966975 -4.367476,0.973989 -0.978708,0.007 -1.085935,0.07323 -0.791703,0.494 0.463877,0.663288 0.33828,2.271723 -0.188892,2.419013 -0.572132,0.15985 -0.924347,-0.786214 -0.656736,-1.764019 0.186999,-0.683272 0.156425,-0.769019 -0.274204,-0.769019 -0.425512,0 -0.457546,0.08492 -0.262442,0.695845 0.315669,0.988439 0.07178,1.912351 -0.504809,1.912351 -0.576587,0 -0.820477,-0.923912 -0.504808,-1.912351 0.19487,-0.610182 0.163191,-0.695845 -0.257354,-0.695845 -0.425117,0 -0.45365,0.08111 -0.251256,0.714942 0.18051,0.565214 0.174362,0.842092 -0.02935,1.322081 -0.399768,0.941937 -1.042121,0.572864 -1.113474,-0.639767 -0.03315,-0.563557 0.03115,-1.024661 0.142905,-1.024661 0.111756,0 0.203197,-0.167666 0.203197,-0.372595 0,-0.209619 -0.53392,-0.372596 -1.220675,-0.372596 -1.133447,0 -1.213438,0.05407 -1.119382,0.757443 0.05907,0.441768 -0.04008,1.062935 -0.237911,1.490411 -0.331547,0.716405 -0.323177,0.732938 0.370831,0.732938 0.645484,0 0.682814,-0.05324 0.410612,-0.58551 -0.359367,-0.702731 -0.372103,-0.98631 -0.07077,-1.575567 0.589796,-1.153328 1.391384,0.06139 0.950824,1.440896 -0.17987,0.563217 -0.146307,0.697298 0.208106,0.831404 0.744838,0.281849 4.597563,0.197678 5.090802,-0.111256 z m -7.81015,-0.926757 c -0.305181,-0.719068 -0.120877,-1.619461 0.410119,-2.003577 0.331053,-0.239488 0.181544,-0.359188 -0.702342,-0.562328 -0.617607,-0.141939 -1.327173,-0.358331 -1.576812,-0.480848 -0.424864,-0.20852 -0.437559,-0.170442 -0.198502,0.595536 0.227754,0.72977 0.206713,0.896323 -0.194437,1.539247 -0.268001,0.429531 -0.34502,0.722981 -0.19054,0.726011 0.142605,0.0028 0.460539,0.110404 0.706518,0.239233 0.408578,0.213901 0.426565,0.169427 0.208104,-0.514632 -0.325784,-1.020109 -0.10018,-1.965286 0.469086,-1.965286 0.59455,0 0.884913,1.401873 0.426212,2.057754 -0.3784,0.541077 -0.208795,0.923052 0.409856,0.923052 0.392551,0 0.430042,-0.08929 0.232738,-0.554162 z m 3.823088,-0.293508 c -0.02357,-0.445515 -0.284914,-0.35923 -0.36679,0.12111 -0.04192,0.245923 0.02667,0.380059 0.152432,0.298084 0.125757,-0.08196 0.222218,-0.270595 0.214358,-0.41918 z m 1.664055,0.07449 c -0.03756,-0.220308 -0.149734,-0.40055 -0.249291,-0.40055 -0.09956,0 -0.211738,0.180242 -0.249289,0.40055 -0.03756,0.220292 0.07462,0.400549 0.249289,0.400549 0.174663,0 0.286844,-0.180257 0.249291,-0.400549 z m 1.560844,-0.158358 c 0,-0.307394 -0.08069,-0.558894 -0.179295,-0.558894 -0.240268,0 -0.412348,0.581848 -0.260118,0.879524 0.214583,0.419617 0.439413,0.25557 0.439413,-0.32063 z m -6.335499,-0.776299 c -0.181578,-0.355076 -0.545611,0.220053 -0.410293,0.648218 0.08043,0.254486 0.187009,0.24805 0.323852,-0.01957 0.112176,-0.219364 0.15108,-0.502268 0.08644,-0.628673 z m 1.571984,0.590001 c 0,-0.204929 -0.08575,-0.372595 -0.190539,-0.372595 -0.10479,0 -0.19054,0.167666 -0.19054,0.372595 0,0.20493 0.08575,0.372598 0.19054,0.372598 0.10479,0 0.190539,-0.167668 0.190539,-0.372598 z m 6.28784,0 c 0,-0.204929 -0.08575,-0.372595 -0.190541,-0.372595 -0.10479,0 -0.19054,0.167666 -0.19054,0.372595 0,0.20493 0.08575,0.372598 0.19054,0.372598 0.104801,0 0.190541,-0.167668 0.190541,-0.372598 z m 1.714864,-0.394592 c 0,-0.192832 -0.128614,-0.350613 -0.285809,-0.350613 -0.294655,0 -0.378546,0.439658 -0.163964,0.859273 0.152227,0.297691 0.449773,-0.03886 0.449773,-0.50866 z M 27.181957,59.37832 c -0.06316,-0.646064 0.02137,-1.118392 0.264598,-1.478553 0.278513,-0.412419 0.294315,-0.532966 0.0716,-0.546162 -0.157195,-0.0099 -0.500169,-0.113085 -0.762162,-0.230473 -0.27749,-0.12435 -0.38487,-0.08336 -0.257221,0.09815 0.423058,0.601917 0.370001,1.743389 -0.102927,2.214506 l -0.45542,0.453654 0.45542,0.168328 c 0.852191,0.314956 0.880913,0.29013 0.786125,-0.679524 z m 2.261371,0.09378 c -0.244557,-0.478228 -0.492558,-0.108574 -0.311503,0.464259 0.07013,0.221899 0.214805,0.297973 0.321495,0.169033 0.130137,-0.157288 0.126851,-0.365695 -0.01002,-0.633292 z m 12.74644,0.08843 c 0,-0.192833 -0.128615,-0.350613 -0.28581,-0.350613 -0.294655,0 -0.378547,0.439657 -0.163964,0.859273 0.152227,0.297676 0.449774,-0.03887 0.449774,-0.50866 z m 2.66757,0.39459 c 0.272463,-0.170637 0.343614,-0.314222 0.166232,-0.335459 -0.538725,-0.06449 -0.796453,-0.989818 -0.538371,-1.932825 0.196631,-0.718477 0.183969,-0.794029 -0.09764,-0.582722 -0.177958,0.133504 -0.466604,0.248134 -0.641426,0.254656 -0.279032,0.0099 -0.2742,0.07646 0.03953,0.541078 0.243223,0.36016 0.327747,0.832489 0.264598,1.478552 -0.09818,1.004307 0.0057,1.078566 0.807054,0.57672 z M 25.654603,58.602233 c -0.06851,-0.700746 0.0054,-1.091074 0.259075,-1.36871 0.307807,-0.336839 0.229205,-0.474876 -0.592273,-1.040105 -1.286173,-0.884976 -1.552156,-0.87109 -1.53393,0.08 0.02091,1.091169 -0.525226,1.74267 -0.921603,1.099381 -0.429349,-0.69679 -0.373244,-1.712689 0.118271,-2.141571 0.409274,-0.35712 0.405316,-0.376567 -0.154229,-0.757992 -0.555518,-0.378694 -0.571776,-0.358147 -0.497681,0.62908 0.08089,1.077721 -0.285557,1.659625 -0.801383,1.272552 -0.61191,-0.45916 -0.541534,-2.251697 0.09629,-2.452752 0.311724,-0.0983 0.286324,-0.201874 -0.17507,-0.714209 -0.523923,-0.581778 -0.537382,-0.575666 -0.46068,0.208957 0.112279,1.148584 -0.380631,1.86989 -0.903721,1.322461 -0.510243,-0.533995 -0.441035,-1.940642 0.10927,-2.220968 0.340596,-0.173512 0.24643,-0.413957 -0.676232,-1.726645 -0.95629,-1.360527 -1.075035,-1.444544 -1.100682,-0.778721 -0.05196,1.348881 -0.70068,1.691494 -1.06489,0.562399 -0.267197,-0.828335 -0.01797,-1.79831 0.462062,-1.79831 0.406857,0 0.406443,-0.0084 -0.06021,-1.210955 -0.258439,-0.666021 -0.608155,-1.713957 -0.777147,-2.328756 -0.281824,-1.025266 -0.307893,-1.047431 -0.314889,-0.267753 -0.0091,1.02873 -0.500716,1.474427 -0.980193,0.888875 -1.012531,-1.23653 0.884839,4.292747 2.161493,6.298972 0.715573,1.124504 0.728759,1.12994 0.616327,0.253965 -0.149052,-1.161316 0.362873,-2.099833 0.830648,-1.522828 0.452302,0.557907 0.392451,1.705674 -0.114726,2.200125 -0.427888,0.417155 -0.425037,0.431011 0.285812,1.388818 0.896359,1.207775 2.784124,2.9377 4.528822,4.150163 1.693775,1.177087 1.778895,1.175779 1.661459,-0.0255 z m -1.368052,-0.305902 c -0.126282,-0.297548 -0.199914,-0.842472 -0.163627,-1.210942 0.08727,-0.886073 0.905017,-0.883355 1.183238,0.0043 0.169189,0.539558 0.137586,0.780932 -0.158556,1.210956 -0.46244,0.671511 -0.574613,0.670989 -0.861055,-0.0043 z m 0.583804,-1.059765 c -0.244556,-0.478229 -0.492559,-0.108576 -0.311502,0.464257 0.07013,0.2219 0.214805,0.297973 0.321492,0.169032 0.13014,-0.157287 0.126853,-0.365695 -0.01002,-0.633289 z M 16.32166,48.344297 c -0.3088,-0.603859 -0.297694,-0.883594 0.0631,-1.589114 0.410892,-0.803492 1.081609,-0.116745 0.998668,1.022504 -0.06783,0.931784 -0.701966,1.270187 -1.061759,0.56661 z m 0.716752,-0.684959 c 0,-0.204929 -0.08575,-0.372611 -0.190538,-0.372611 -0.10479,0 -0.190541,0.167682 -0.190541,0.372611 0,0.204929 0.08575,0.372594 0.190541,0.372594 0.10479,0 0.190538,-0.167665 0.190538,-0.372594 z m 10.889396,11.364299 c 0,-0.19469 -0.09218,-0.414054 -0.204833,-0.487479 -0.112653,-0.07337 -0.20483,0.145922 -0.20483,0.487479 0,0.341544 0.09217,0.560922 0.20483,0.487482 0.112654,-0.07337 0.204833,-0.292805 0.204833,-0.487482 z m 15.786287,0 c 0,-0.307392 -0.08069,-0.558906 -0.179298,-0.558906 -0.240263,0 -0.412345,0.581846 -0.260118,0.879538 0.214583,0.419616 0.439416,0.255555 0.439416,-0.320632 z m 2.568044,0.218632 c 0.363225,-0.27751 0.360898,-0.30459 -0.06439,-0.749627 -0.329477,-0.344825 -0.413634,-0.676467 -0.33235,-1.309773 0.09552,-0.744291 0.04976,-0.825941 -0.374379,-0.667399 l -0.48323,0.180635 0.392931,0.715858 c 0.311545,0.567567 0.351701,0.866499 0.193865,1.443206 -0.218935,0.79997 -0.02225,0.914053 0.667523,0.3871 z M 26.374901,58.464731 c 0,-0.20493 -0.08575,-0.372596 -0.190541,-0.372596 -0.10479,0 -0.19054,0.167666 -0.19054,0.372596 0,0.204928 0.08575,0.37261 0.19054,0.37261 0.104791,0 0.190541,-0.167682 0.190541,-0.37261 z m 18.863513,0 c 0,-0.20493 -0.08575,-0.372596 -0.190538,-0.372596 -0.10479,0 -0.190538,0.167666 -0.190538,0.372596 0,0.204928 0.08575,0.37261 0.190538,0.37261 0.10479,0 0.190538,-0.167682 0.190538,-0.37261 z m 2.996666,-0.576625 c 2.598314,-1.911195 5.173394,-5.192859 6.432414,-8.197407 3.139569,-7.492324 1.438896,-16.153118 -4.314746,-21.973242 -0.907428,-0.917914 -1.685698,-1.668934 -1.729498,-1.668934 -0.04378,0 -0.04429,0.471002 -0.0015,1.046656 0.06115,0.814379 -0.01829,1.13115 -0.357787,1.42739 -0.433497,0.378242 -0.432604,0.383269 0.137944,0.7722 0.55552,0.378695 0.571775,0.358147 0.497685,-0.62908 -0.08089,-1.077736 0.285554,-1.659625 0.801378,-1.272553 0.643451,0.482833 0.526202,2.372778 -0.148559,2.394592 -0.387083,0.01268 -0.383548,0.04085 0.06805,0.545698 0.633577,0.708251 0.743696,0.687608 0.635802,-0.119138 -0.127072,-0.950248 0.442398,-1.820238 0.856853,-1.308999 0.459447,0.566708 0.408485,2.093072 -0.07822,2.342882 -0.339963,0.174496 -0.240631,0.423757 0.705213,1.769651 0.605503,0.861597 1.060339,1.359809 1.010758,1.107112 -0.04962,-0.252696 0.03534,-0.789972 0.188694,-1.193958 0.223667,-0.589128 0.347053,-0.652726 0.623458,-0.321293 0.502946,0.603069 0.452191,2.165061 -0.07511,2.311745 -0.406892,0.113222 -0.399611,0.171497 0.238176,1.907506 0.36185,0.984902 0.666454,2.022222 0.676892,2.30514 0.01045,0.282917 0.07861,0.09519 0.151501,-0.417096 0.09534,-0.670271 0.263675,-0.931502 0.600264,-0.931502 0.392705,0 0.467759,0.179353 0.467759,1.117799 0,0.988015 -0.06086,1.109646 -0.523982,1.047656 -0.40374,-0.05408 -0.52399,0.09561 -0.52399,0.652049 0,0.842642 0.06892,0.877031 0.558735,0.278862 0.284692,-0.34767 0.428034,-0.337841 0.664308,0.04563 0.165706,0.26892 0.301284,0.699395 0.301284,0.956598 0,0.257217 -0.135578,0.687692 -0.301284,0.956613 -0.236274,0.383466 -0.379616,0.393296 -0.664308,0.04563 -0.487191,-0.594973 -0.558735,-0.562935 -0.558735,0.250204 0,0.532052 0.106976,0.653542 0.459485,0.521757 0.599585,-0.224122 0.978905,0.970737 0.61615,1.940854 -0.331558,0.886676 -0.934558,0.5841 -1.095927,-0.549908 -0.07275,-0.511238 -0.140807,-0.736799 -0.15126,-0.501225 -0.01045,0.235558 -0.313291,1.283495 -0.672994,2.328741 -0.586053,1.702987 -0.615126,1.900451 -0.27983,1.900451 0.665473,0 0.69636,2.079891 0.0373,2.509506 -0.293729,0.191452 -0.857245,-1.028417 -0.743305,-1.609057 0.05328,-0.271622 -0.398494,0.211099 -1.004001,1.072696 -0.94506,1.344782 -1.044894,1.595086 -0.705211,1.768131 0.495213,0.252261 0.611556,1.56078 0.19838,2.23132 -0.378657,0.614533 -0.88759,0.110551 -1.036863,-1.026715 -0.09765,-0.74398 -0.121986,-0.738827 -1.238714,0.262597 -1.006291,0.902392 -1.08831,1.053034 -0.703417,1.291917 0.512093,0.317828 0.505446,1.577495 -0.01167,2.211337 -0.494112,0.605646 -1.086647,-0.616815 -0.773798,-1.59641 0.209321,-0.65543 0.182386,-0.673061 -0.449375,-0.293903 -0.600155,0.360189 -0.629465,0.434123 -0.274025,0.691255 0.438537,0.317223 0.526073,1.402857 0.169364,2.100409 -0.32733,0.640093 -0.131852,0.565723 1.319904,-0.502112 z m 0.821746,-1.827375 c -0.344687,-0.812153 -0.159162,-1.864189 0.353883,-2.006647 0.705066,-0.195776 0.99101,0.967441 0.482344,1.962132 -0.371289,0.726053 -0.543096,0.735206 -0.836227,0.04449 z m 0.564023,-0.949401 c 0,-0.204929 -0.08575,-0.372595 -0.190538,-0.372595 -0.10479,0 -0.190546,0.167666 -0.190546,0.372595 0,0.204929 0.08576,0.372609 0.190546,0.372609 0.10479,0 0.190538,-0.16768 0.190538,-0.372609 z m 2.104742,-2.40117 c -0.514592,-1.21249 0.337012,-2.671285 0.907818,-1.55509 0.242666,0.474525 0.267518,0.765679 0.107699,1.261907 -0.278215,0.863935 -0.719253,0.991254 -1.015525,0.293183 z m 0.753369,-0.517531 c 0,-0.485144 -0.226513,-0.807803 -0.410773,-0.585115 -0.197053,0.238148 -0.02715,0.89562 0.231477,0.89562 0.09861,0 0.179296,-0.139699 0.179296,-0.310505 z m 1.402691,-3.974398 c -0.179988,-0.917182 0.07894,-1.676694 0.57162,-1.676694 0.530631,0 0.802387,0.970594 0.482669,1.723927 -0.288758,0.680397 -0.917028,0.652244 -1.054289,-0.04718 z m 0.788523,-0.558893 c -0.06475,-0.204929 -0.198444,-0.372611 -0.297054,-0.372611 -0.09861,0 -0.179296,0.167682 -0.179296,0.372611 0,0.204929 0.133675,0.372594 0.297053,0.372594 0.163382,0 0.244071,-0.167665 0.179297,-0.372594 z M 53.881651,36.667633 c -0.166788,-0.849909 0.06669,-1.676708 0.473398,-1.676708 0.472458,0 0.830351,0.858751 0.679109,1.629474 -0.149429,0.761484 -1.005467,0.796564 -1.152507,0.04718 z m 0.693257,-0.558908 c 0,-0.204929 -0.08575,-0.372595 -0.19055,-0.372595 -0.10479,0 -0.190534,0.167666 -0.190534,0.372595 0,0.204928 0.08575,0.372609 0.190534,0.372609 0.104801,0 0.19055,-0.167681 0.19055,-0.372609 z m -2.850514,-3.5218 c -0.364663,-0.859216 -0.159374,-1.86733 0.406394,-1.995705 0.376709,-0.08547 0.538545,0.08576 0.633365,0.66992 0.233668,1.439642 -0.561261,2.453246 -1.039759,1.325785 z M 52.47896,31.61554 c 0,-0.19283 -0.128614,-0.350613 -0.285811,-0.350613 -0.294655,0 -0.378547,0.439657 -0.163964,0.859276 0.152225,0.297676 0.449775,-0.03887 0.449775,-0.508663 z M 41.141796,57.499501 c 7.481786,-2.075722 13.057168,-8.780525 13.050239,-15.693847 -0.0071,-6.967257 -5.989024,-13.855864 -13.702668,-15.779283 -9.83304,-2.45188 -20.234145,3.03922 -22.886592,12.082623 -1.13511,3.8701 -0.510513,7.846865 1.804211,11.487253 4.470918,7.03146 13.302311,10.242755 21.73481,7.903254 z M 26.755983,50.00374 c -0.157197,-0.112661 -0.650221,-0.926321 -1.095608,-1.808055 l -0.809799,-1.603142 v -5.241936 -5.241952 h 0.679419 c 1.352588,0 1.416527,0.236051 1.416527,5.229516 0,6.076468 0.354281,5.831461 0.423025,-0.292564 l 0.05333,-4.750655 0.610453,-0.115477 c 0.335748,-0.06352 0.7859,0.06816 1.000337,0.292551 0.364802,0.381791 0.389887,0.749429 0.389887,5.71473 0,5.927264 -0.116729,6.629249 -1.257298,7.561146 -0.667013,0.544994 -0.938266,0.594198 -1.410271,0.255823 z m 1.275522,-2.497621 c 0.527965,-0.887184 0.535393,-0.958991 0.597392,-5.775299 0.06089,-4.730038 0.05084,-4.876962 -0.333448,-4.876962 -0.377848,0 -0.396224,0.194875 -0.396224,4.202002 0,4.439515 -0.224103,5.858202 -0.925398,5.858202 -0.679239,0 -0.789467,-0.764736 -0.789467,-5.477227 v -4.582977 h -0.476351 -0.476351 v 4.260639 c 0,4.83425 0.142079,5.895579 0.89629,6.695256 0.762204,0.808138 1.292243,0.723603 1.903557,-0.303634 z m 3.879517,2.354402 C 31.654775,49.658083 31.11888,48.841664 30.720144,48.046227 l -0.724972,-1.446249 v -3.954667 c 0,-3.046091 0.07217,-4.170047 0.314105,-4.892112 0.593758,-1.772035 1.886282,-2.511592 2.794705,-1.599073 0.757199,0.760611 1.46324,2.670765 1.463716,3.959979 3.8e-4,1.158189 -0.03177,1.210956 -0.738475,1.210956 -0.546919,0 -0.810277,-0.210154 -1.013543,-0.808802 -0.322419,-0.949557 -0.724562,-0.642065 -0.724562,0.55402 0,0.739134 0.08168,0.806351 0.837127,0.688861 1.396999,-0.217279 1.639901,0.271398 1.639901,3.299155 0,2.310294 -0.05645,2.707366 -0.523988,3.686058 -0.586105,1.226883 -1.4324,1.669709 -2.133136,1.116168 z m 0.608812,-0.585016 c -0.130996,-0.103358 -0.345354,-0.103358 -0.476351,0 -0.130998,0.103357 -0.02383,0.187929 0.238177,0.187929 0.261992,0 0.369171,-0.08464 0.238174,-0.187929 z m 0.398741,-1.284735 c 0.580666,-0.517349 0.887409,-1.797156 0.887409,-3.702437 0,-1.434882 -0.01721,-1.472877 -0.666893,-1.472877 -0.681223,0 -0.895221,0.494141 -0.38108,0.879949 0.342712,0.257172 0.381491,2.137315 0.05716,2.771536 -0.362306,0.708492 -1.255963,0.543233 -1.479512,-0.273582 -0.108484,-0.396393 -0.197245,-2.073085 -0.197245,-3.726009 0,-2.508492 0.06299,-3.128475 0.381081,-3.750486 0.505691,-0.988874 0.878733,-0.939669 1.412368,0.186298 0.559969,1.181538 0.943842,1.227671 0.775131,0.09308 -0.343674,-2.311097 -1.839994,-2.879313 -2.773777,-1.053301 -0.532026,1.040374 -0.556839,1.236402 -0.554156,4.378044 0.003,3.601253 0.220566,4.879495 0.95365,5.60483 0.586621,0.580425 0.988788,0.596874 1.585862,0.06494 z m -0.379246,-2.105464 c 0.04928,-0.155966 -0.0314,-0.607183 -0.179295,-1.002718 -0.256014,-0.68465 -0.268916,-0.671046 -0.268916,0.283566 0,0.944232 0.250197,1.345669 0.448211,0.719152 z M 20.191419,49.3005 c -0.258404,-0.505309 -0.296131,-1.524208 -0.251787,-6.799957 l 0.05216,-6.205591 1.308543,-0.111108 c 1.104643,-0.09378 1.40673,0.02042 1.93866,0.733138 0.346563,0.46437 0.588655,0.975495 0.537982,1.135824 -0.05066,0.160332 7.73e-4,0.291509 0.114367,0.291509 0.422404,0 0.583741,1.820631 0.302694,3.415815 -0.233578,1.325742 -0.233208,1.604322 0.0027,2.065708 0.639946,1.251415 0.111947,5.036869 -0.796783,5.71249 -0.800847,0.595412 -2.860557,0.442769 -3.208575,-0.237768 z m 2.939446,-2.004365 c 0.616071,-1.204719 0.685264,-2.519462 0.200125,-3.802633 -0.418397,-1.106634 -0.419711,-1.145472 -0.08041,-2.377539 0.685442,-2.488932 -0.129064,-4.246487 -1.972647,-4.256613 l -1.000337,-0.0056 v 5.589002 5.589002 h 1.238514 c 0.97914,0 1.317305,-0.154077 1.614747,-0.735727 z m -2.013829,-0.525744 c -0.05571,-0.283945 -0.07446,-1.248048 -0.04165,-2.142458 0.05599,-1.526911 0.09674,-1.633193 0.667182,-1.74122 0.762972,-0.144483 1.29033,1.16485 1.091889,2.710972 -0.182331,1.420602 -1.493129,2.315658 -1.717416,1.172706 z m 1.256513,-1.533036 c 0,-0.283201 -0.08575,-0.618532 -0.190541,-0.74519 -0.108495,-0.13111 -0.19054,0.189762 -0.19054,0.74519 0,0.555442 0.08205,0.876326 0.19054,0.745205 0.10479,-0.126604 0.190541,-0.461993 0.190541,-0.745205 z m -0.242145,-1.529207 c -0.06331,-0.123786 -0.227656,-0.137024 -0.365203,-0.02943 -0.152001,0.118997 -0.106847,0.207237 0.115119,0.225122 0.200861,0.01618 0.3134,-0.07196 0.250084,-0.195704 z m -0.964612,-2.258894 c -0.257224,-0.503 -0.132389,-3.124362 0.159211,-3.343175 0.903888,-0.678271 1.707226,1.132204 1.247585,2.811673 -0.207765,0.759146 -1.115085,1.101943 -1.406796,0.531502 z m 2.861244,-1.684452 c -0.06083,-0.29724 -0.105976,-0.208957 -0.115118,0.225107 -0.0083,0.392776 0.03677,0.612846 0.100072,0.489044 0.06331,-0.123785 0.07009,-0.44519 0.01504,-0.714151 z m 10.880868,9.409377 c -0.296329,-0.676763 -0.266075,-1.091184 0.49637,-6.799956 l 0.81193,-6.079271 0.937972,-0.109279 c 0.554361,-0.06465 1.076493,0.08887 1.276674,0.375116 0.35897,0.513421 1.949143,12.354314 1.745607,12.998323 -0.208009,0.658146 -1.50944,0.367358 -1.851424,-0.413673 -0.180487,-0.412211 -0.328156,-0.915223 -0.328156,-1.117801 0,-0.202591 -0.205972,-0.368343 -0.457711,-0.368343 -0.337261,0 -0.510154,0.294156 -0.656983,1.117802 -0.174627,0.97958 -0.289496,1.1178 -0.928995,1.1178 -0.485664,0 -0.835269,-0.241051 -1.045284,-0.720687 z m 4.933997,-0.839584 c -0.06083,-0.297226 -0.105974,-0.208943 -0.115117,0.225122 -0.0083,0.392777 0.03676,0.612843 0.100073,0.48903 0.06331,-0.123785 0.07008,-0.445176 0.01504,-0.714152 z m -3.750432,-0.973413 c 0,-1.003184 0.384269,-1.564921 1.070498,-1.564921 0.903138,0 1.215989,0.345783 1.215989,1.343966 0,0.693296 0.101936,0.891635 0.458265,0.891635 0.457805,0 0.458009,-0.0016 0.206214,-1.956145 C 38.904806,44.999825 38.60124,42.47601 38.36884,40.467224 l -0.422547,-3.652331 -0.677899,0.112655 -0.677901,0.112663 -0.702799,5.49586 -0.702798,5.495844 h 0.453786 c 0.309955,0 0.453787,-0.212575 0.453787,-0.670678 z m 0.389395,-3.14847 c 0.03227,-1.807607 0.521203,-4.946771 0.786007,-5.046487 0.332734,-0.125336 0.443645,0.482761 0.648629,3.556088 l 0.13047,1.956148 h -0.786709 c -0.506775,0 -0.783751,-0.165722 -0.778397,-0.465749 z m 4.689463,5.00076 c -0.255512,-0.552107 -0.315343,-1.506452 -0.315343,-5.030096 0,-4.074355 -0.02364,-4.348712 -0.374378,-4.348712 -0.456205,0 -0.768864,-1.050668 -0.768864,-2.583706 v -1.142303 h 1.917931 c 1.054862,0 2.083781,0.173566 2.286484,0.385721 0.254055,0.265877 0.368559,0.265877 0.368559,0 0,-0.512365 3.714846,-0.512365 4.204414,0 0.269243,0.281763 0.368561,0.783776 0.368561,1.862989 0,1.389833 -0.0335,1.477299 -0.566092,1.477299 h -0.56609 l -0.05315,4.936953 -0.05315,4.936938 -0.733218,0.11787 c -1.289485,0.207212 -1.457999,-0.437529 -1.457999,-5.578269 0,-4.001592 -0.03198,-4.413449 -0.342974,-4.413449 -0.188636,0 -0.445868,-0.20121 -0.571622,-0.44712 -0.163678,-0.320068 -0.228648,-0.326785 -0.228648,-0.02367 0,0.23294 -0.278671,0.476059 -0.619262,0.540276 l -0.619254,0.116744 -0.05317,4.936952 -0.05316,4.936952 h -0.727107 c -0.462416,0 -0.841893,-0.248048 -1.042442,-0.681396 z m 1.018441,-6.025406 v -4.84381 h 0.680864 c 0.5457,0 0.668207,-0.12942 0.617111,-0.65205 -0.05393,-0.551514 -0.320455,-0.668638 -1.728835,-0.759709 -1.549773,-0.100277 -1.665086,-0.0566 -1.665086,0.628445 0,0.558119 0.149729,0.76433 0.619257,0.852867 l 0.619257,0.116743 0.05332,4.750655 c 0.04987,4.442952 0.07764,4.750655 0.428716,4.750655 0.354241,0 0.375388,-0.272891 0.375388,-4.843796 z m 4.572973,0 v -4.84381 h 0.666891 c 0.544111,0 0.66689,-0.139839 0.66689,-0.759696 0,-0.714802 -0.09842,-0.753344 -1.66508,-0.652063 -1.408383,0.09112 -1.674918,0.208195 -1.728836,0.759709 -0.05106,0.522603 0.07144,0.65205 0.617115,0.65205 h 0.68086 v 4.84381 c 0,4.595394 0.01952,4.843796 0.381077,4.843796 0.361544,0 0.381083,-0.248402 0.381083,-4.843796 z m 2.595995,6.141008 C 49.097463,48.81816 49.049229,47.740848 49.049229,42.416245 v -6.30759 h 0.748555 c 1.304118,0 1.363596,0.337205 1.304284,7.394324 l -0.05214,6.205576 -0.690829,0.112948 c -0.446848,0.07309 -0.800141,-0.100827 -1.000344,-0.492367 z m 0.833735,-6.886213 c 0,-5.3406 -0.01693,-5.589003 -0.381084,-5.589003 -0.364138,0 -0.381076,0.248403 -0.381076,5.589003 0,5.340599 0.01693,5.589001 0.381076,5.589001 0.364147,0 0.381084,-0.248402 0.381084,-5.589001 z m -17.33919,-8.902534 c 0,-1.154331 0.488721,-1.841418 0.832132,-1.169879 0.288681,0.564512 1.263814,0.479977 1.263814,-0.109563 0,-0.337348 -0.181549,-0.442262 -0.571622,-0.330305 -0.558214,0.160202 -0.571621,0.127164 -0.571621,-1.410929 0,-1.538036 0.01343,-1.57113 0.571621,-1.410914 0.314392,0.09026 0.571622,0.01408 0.571622,-0.170652 0,-0.184101 -0.450153,-0.280806 -1.000338,-0.214927 -0.998072,0.119561 -1.000338,0.117307 -1.000338,-0.998002 v -1.117799 l 2.210578,-0.104499 c 2.883237,-0.136319 3.080939,0.114349 3.147419,3.991283 0.06793,3.961344 -0.05327,4.124108 -3.07151,4.124108 h -2.381757 z m 4.859487,-0.413984 c 0.288429,-0.623236 0.30892,-0.904015 0.123922,-1.697987 -0.152317,-0.653725 -0.161987,-1.169286 -0.03092,-1.648204 0.232758,-0.850458 0.07437,-1.766273 -0.38941,-2.25164 -0.190375,-0.19924 -1.209208,-0.362258 -2.264071,-0.362258 -1.5778,0 -1.917931,0.09913 -1.917931,0.558905 0,0.589002 0.29405,0.763105 0.450863,0.266948 0.05074,-0.160581 0.441655,-0.226798 0.868677,-0.147161 0.719724,0.134205 0.776406,0.226616 0.776406,1.265736 0,1.033558 -0.04455,1.108168 -0.571622,0.956895 -0.438504,-0.125898 -0.571622,-0.02057 -0.571622,0.452076 0,0.472652 0.133118,0.577932 0.571622,0.452078 0.548134,-0.157316 0.571622,-0.106881 0.571622,1.228473 v 1.392539 l -1.047972,-0.169949 c -0.576385,-0.09351 -1.047973,-0.03042 -1.047973,0.140122 0,0.170552 0.929888,0.310097 2.066416,0.310097 1.825824,0 2.106648,-0.08689 2.411988,-0.746714 z m -1.923965,-0.141431 c -0.264051,-1.345571 -0.0058,-1.906351 0.877899,-1.906351 0.822776,0 0.854823,0.04196 0.854823,1.1178 0,1.049077 -0.04989,1.124855 -0.811542,1.232545 -0.58535,0.08281 -0.842098,-0.04097 -0.92118,-0.443994 z m 1.44691,-0.788551 c 0,-0.347768 -0.179953,-0.558908 -0.47635,-0.558908 -0.296398,0 -0.476351,0.21114 -0.476351,0.558908 0,0.347754 0.179953,0.558893 0.476351,0.558893 0.296397,0 0.47635,-0.211139 0.47635,-0.558893 z M 35.78453,29.609753 c -0.236246,-1.2039 0.07289,-1.747275 0.925453,-1.626742 0.72297,0.102238 0.811542,0.216406 0.811542,1.046246 0,0.829842 -0.08857,0.944023 -0.811542,1.046247 -0.597563,0.0845 -0.841575,-0.0383 -0.925453,-0.465751 z m 1.451183,-0.580496 c 0,-0.204927 -0.214357,-0.372596 -0.47635,-0.372596 -0.261994,0 -0.476351,0.167669 -0.476351,0.372596 0,0.204928 0.214357,0.372597 0.476351,0.372597 0.261993,0 0.47635,-0.167669 0.47635,-0.372597 z m 9.479368,28.100211 c -0.181579,-0.355076 -0.545609,0.220053 -0.410293,0.648204 0.08044,0.254485 0.18701,0.248063 0.323853,-0.01957 0.112177,-0.219378 0.151083,-0.502281 0.08643,-0.628686 z m -23.360247,-0.71411 c 0,-0.194679 -0.09217,-0.414041 -0.204831,-0.487482 -0.112654,-0.07337 -0.204833,0.145938 -0.204833,0.487482 0,0.341557 0.09217,0.56092 0.204833,0.487495 0.112652,-0.07353 0.204832,-0.292806 0.204831,-0.487495 z m 24.884567,-0.40369 c -0.181573,-0.355078 -0.54561,0.220052 -0.410285,0.648205 0.08043,0.254485 0.187008,0.248064 0.323844,-0.01957 0.112189,-0.219377 0.151083,-0.502281 0.08644,-0.628687 z M 21.992468,55.11126 c 0,-0.20493 -0.08069,-0.372596 -0.179295,-0.372596 -0.09861,0 -0.232288,0.167666 -0.297055,0.372596 -0.06478,0.204928 0.01592,0.372609 0.179295,0.372609 0.163379,0 0.297055,-0.167681 0.297055,-0.372609 z m -1.504547,-1.600761 c -0.244555,-0.478228 -0.492557,-0.108575 -0.311502,0.464259 0.07012,0.221898 0.214807,0.297971 0.321493,0.169032 0.130142,-0.157287 0.126851,-0.365695 -0.01002,-0.633291 z m 30.60959,-0.10703 c -0.181574,-0.355062 -0.545611,0.220067 -0.410288,0.648217 0.08043,0.254485 0.187011,0.248066 0.323846,-0.01957 0.112187,-0.219379 0.151081,-0.502283 0.08644,-0.628689 z m -31.94886,-1.375455 c -0.02357,-0.445529 -0.284913,-0.359246 -0.366791,0.12111 -0.04192,0.24591 0.02667,0.380044 0.152432,0.298071 0.125756,-0.08196 0.222217,-0.270595 0.214359,-0.419166 z m -1.232956,-2.40483 c -0.193689,-0.37875 -0.353501,0.191479 -0.194584,0.694297 0.120045,0.379834 0.164928,0.380129 0.229469,0.0016 0.04413,-0.25888 0.02843,-0.57199 -0.03489,-0.695803 z m 35.706508,0.249696 c 0,-0.19283 -0.08575,-0.350612 -0.190541,-0.350612 -0.10479,0 -0.190545,0.261401 -0.190545,0.580891 0,0.31949 0.08576,0.47727 0.190545,0.350612 0.104801,-0.126602 0.190541,-0.388057 0.190541,-0.580891 z M 16.276252,44.864772 c 0,-0.307391 -0.08069,-0.558891 -0.179296,-0.558891 -0.240267,0 -0.412348,0.581847 -0.260118,0.879523 0.214582,0.419618 0.439414,0.255569 0.439414,-0.320632 z m 39.060812,0 c 0,-0.307391 -0.08574,-0.558891 -0.190535,-0.558891 -0.1048,0 -0.190545,0.2515 -0.190545,0.558891 0,0.307395 0.08574,0.558908 0.190545,0.558908 0.10479,0 0.190535,-0.251513 0.190535,-0.558908 z M 16.25115,43.655803 c 0.309652,0.158343 0.406183,0.03887 0.406183,-0.502606 0,-0.830418 -0.07,-0.863849 -0.558736,-0.26699 -0.284695,0.34767 -0.42803,0.337839 -0.664307,-0.04561 -0.667573,-1.083411 -0.05548,-2.670627 0.752334,-1.950881 0.415069,0.36982 0.470709,0.331418 0.470709,-0.324913 0,-0.598492 -0.08911,-0.700578 -0.454859,-0.521067 -0.331337,0.162625 -0.531425,0.0099 -0.736816,-0.56395 -0.271604,-0.758272 -0.28665,-0.729826 -0.409689,0.774821 -0.07025,0.85912 -0.07005,2.314281 4.55e-4,3.233701 l 0.128196,1.671693 0.330169,-0.855949 c 0.229826,-0.595819 0.453614,-0.792818 0.736352,-0.648234 z m -0.270768,-1.989946 c -0.06135,-0.194114 -0.19276,-0.25478 -0.292025,-0.134768 -0.09926,0.119982 -0.130288,0.376931 -0.06894,0.571044 0.06135,0.194113 0.192761,0.254781 0.292027,0.134771 0.09928,-0.119984 0.130288,-0.376934 0.06894,-0.571047 z m 39.632437,0 c -0.06135,-0.194114 -0.192765,-0.25478 -0.292028,-0.134768 -0.09928,0.119982 -0.130284,0.376931 -0.06892,0.571044 0.06135,0.194113 0.192756,0.254781 0.292018,0.134771 0.09928,-0.119984 0.130294,-0.376934 0.06892,-0.571047 z M 16.228591,38.499472 c -0.181577,-0.355076 -0.54561,0.220053 -0.410293,0.648218 0.08043,0.254486 0.187009,0.248049 0.323852,-0.01957 0.112188,-0.219364 0.15108,-0.502268 0.08644,-0.628672 z m 1.824325,-3.095689 c 0.228004,-0.490156 0.908706,-1.609985 1.512672,-2.488495 0.950398,-1.382425 1.040109,-1.613407 0.666892,-1.717012 -0.52436,-0.145557 -0.601075,-1.691986 -0.113755,-2.293086 0.444141,-0.547851 0.978142,0.367005 0.868557,1.488016 -0.08234,0.84219 -0.07777,0.844206 0.476562,0.208956 0.491103,-0.562793 0.513062,-0.65547 0.179186,-0.756329 -0.651297,-0.196732 -0.733165,-1.986776 -0.112176,-2.452754 0.515826,-0.387072 0.882272,0.194819 0.801383,1.272554 -0.0733,0.976651 -0.0531,1.00455 0.46925,0.648471 l 0.545849,-0.372102 -0.409389,-0.560723 c -0.276857,-0.379214 -0.382333,-0.837502 -0.325815,-1.415647 0.07614,-0.778918 0.04038,-0.822798 -0.402367,-0.493619 -2.792864,2.076424 -6.058505,7.373622 -6.680347,10.836176 -0.1653,0.920435 -0.150472,0.974751 0.161926,0.593241 0.474612,-0.579608 0.96553,-0.124912 0.968287,0.896902 0.0018,0.673004 0.103972,0.500844 0.490518,-0.826658 0.26852,-0.922179 0.674767,-2.077735 0.902772,-2.567891 z m -1.841613,1.283945 c -0.199059,-1.014392 0.07704,-1.745459 0.613277,-1.623854 0.390476,0.08858 0.499644,0.316826 0.499644,1.044794 0,0.727983 -0.109166,0.956262 -0.499644,1.044812 -0.316506,0.07182 -0.541298,-0.099 -0.613277,-0.465752 z m 0.827109,-0.57906 c 0,-0.204928 -0.08575,-0.372595 -0.190538,-0.372595 -0.10479,0 -0.190541,0.167667 -0.190541,0.372595 0,0.204929 0.08575,0.372611 0.190541,0.372611 0.10479,0 0.190538,-0.167682 0.190538,-0.372611 z m 0.254637,-1.70121 c -0.165152,-0.8416 0.172965,-1.838488 0.623564,-1.838488 0.570991,0 0.506439,2.195029 -0.06924,2.35488 -0.269487,0.07477 -0.476053,-0.11759 -0.554312,-0.516392 z m 0.698068,-0.720687 c 0,-0.307394 -0.08575,-0.558892 -0.190541,-0.558892 -0.10479,0 -0.190541,0.251498 -0.190541,0.558892 0,0.307393 0.08575,0.558907 0.190541,0.558907 0.10479,0 0.190541,-0.251514 0.190541,-0.558907 z m 0.579218,-1.099902 c -0.396774,-0.934883 -0.161008,-1.88089 0.468755,-1.88089 0.393706,0 0.58652,0.204268 0.632381,0.669949 0.07566,0.768172 -0.279449,1.751951 -0.632381,1.751951 -0.131533,0 -0.342471,-0.243459 -0.468755,-0.54101 z m 0.583802,-1.059765 c -0.244555,-0.478229 -0.492556,-0.108577 -0.311502,0.464257 0.07013,0.221914 0.214807,0.297973 0.321493,0.169033 0.130141,-0.157274 0.126854,-0.365695 -0.01002,-0.63329 z m 36.182927,7.376072 c 0,-0.307392 -0.08574,-0.558906 -0.190535,-0.558906 -0.1048,0 -0.190545,0.251514 -0.190545,0.558906 0,0.307395 0.08574,0.558894 0.190545,0.558894 0.10479,0 0.190535,-0.251499 0.190535,-0.558894 z m -1.714861,-5.216405 c 0,-0.307394 -0.08575,-0.558892 -0.190541,-0.558892 -0.10479,0 -0.190545,0.251498 -0.190545,0.558892 0,0.307393 0.08576,0.558907 0.190545,0.558907 0.104801,0 0.190541,-0.251514 0.190541,-0.558907 z M 20.482434,30.044607 c -0.02357,-0.445513 -0.284912,-0.35923 -0.36679,0.121111 -0.04192,0.245907 0.02667,0.380044 0.152432,0.298085 0.125758,-0.08196 0.222219,-0.27061 0.214358,-0.419183 z m 30.662742,0.164569 c 0,-0.485158 -0.226509,-0.807815 -0.410768,-0.585129 -0.197063,0.238163 -0.02715,0.89562 0.231472,0.89562 0.09861,0 0.179296,-0.139698 0.179296,-0.310491 z M 21.992468,28.656661 c 0,-0.204929 -0.133676,-0.372609 -0.297055,-0.372609 -0.163381,0 -0.244063,0.16768 -0.179295,0.372609 0.06476,0.204931 0.198444,0.372596 0.297055,0.372596 0.09861,0 0.179295,-0.167665 0.179295,-0.372596 z m 27.642669,-0.102516 c -0.02355,-0.445529 -0.284907,-0.359245 -0.366788,0.12111 -0.04191,0.245909 0.02665,0.380045 0.152435,0.29807 0.125753,-0.08196 0.222217,-0.270596 0.214353,-0.419167 z M 24.486428,27.478123 c -0.543773,-0.393351 -0.540788,-2.036091 0.0043,-2.374411 0.257744,-0.159963 0.513182,-0.03296 0.710802,0.353514 0.2597,0.507844 0.269505,0.725249 0.06199,1.374961 -0.227618,0.712731 -0.212761,0.751472 0.194265,0.506591 0.599989,-0.360963 0.626165,-0.442686 0.350126,-1.093086 -0.1321,-0.311252 -0.193816,-0.912632 -0.137147,-1.336389 0.09285,-0.694282 0.04327,-0.745135 -0.501499,-0.514265 -0.847202,0.359034 -2.384484,1.608463 -2.009281,1.633052 0.513144,0.03366 0.847013,1.083352 0.595269,1.871623 -0.199682,0.62525 -0.167253,0.644387 0.457113,0.269665 0.600156,-0.360189 0.62947,-0.434136 0.274029,-0.691255 z m 23.00392,0.463528 c -0.26609,-0.83318 0.05408,-1.883016 0.58187,-1.907829 0.170569,-0.0084 0.0216,-0.259528 -0.331012,-0.558908 -0.352623,-0.299366 -0.738473,-0.53108 -0.857435,-0.514899 -0.138422,0.01888 -0.13055,0.09703 0.02188,0.217349 0.421815,0.33284 0.284267,2.035036 -0.183775,2.274383 -0.381229,0.194946 -0.358234,0.260782 0.238168,0.681962 0.363073,0.256414 0.682295,0.47896 0.709381,0.494549 0.02708,0.01563 -0.0535,-0.293381 -0.179073,-0.686607 z M 23.34603,27.055832 c -0.244556,-0.478228 -0.492558,-0.108575 -0.311503,0.464257 0.07013,0.221913 0.214806,0.297973 0.321494,0.169032 0.130139,-0.157271 0.126852,-0.365694 -0.01002,-0.633289 z m 24.893371,-0.10703 c -0.181573,-0.355077 -0.54561,0.220054 -0.410285,0.648204 0.08043,0.254485 0.187008,0.248063 0.323844,-0.01957 0.112189,-0.219365 0.151083,-0.502267 0.08644,-0.628673 z m -2.284844,-0.179467 c -0.206944,-0.66409 -0.182077,-0.862034 0.181578,-1.445332 l 0.421362,-0.675876 -1.100754,-0.603959 c -1.447313,-0.794128 -1.516095,-0.776143 -1.404328,0.367161 0.05777,0.590508 -0.0065,1.093689 -0.163813,1.283847 -0.319136,0.385692 -0.232055,0.549162 0.467768,0.878102 0.504346,0.237065 0.522917,0.210011 0.238171,-0.346798 -0.368893,-0.721377 -0.383,-1.001801 -0.08017,-1.593957 0.346228,-0.677047 0.876794,-0.536264 1.103713,0.292873 0.162648,0.594297 0.12512,0.869428 -0.190581,1.397255 l -0.393102,0.657245 0.435462,0.242318 c 0.700824,0.389973 0.736869,0.356303 0.4847,-0.452879 z m -21.08969,-0.450794 c -0.02357,-0.44553 -0.284912,-0.359245 -0.36679,0.12111 -0.04193,0.245909 0.02667,0.380045 0.152433,0.298071 0.125757,-0.08196 0.222217,-0.270596 0.214357,-0.419167 z m 2.647761,-0.156514 c 0.04936,-0.08479 -0.02668,-0.29486 -0.168995,-0.466849 -0.160344,-0.193789 -0.22147,-0.694014 -0.160727,-1.315364 0.08578,-0.87744 0.04738,-0.976088 -0.30736,-0.789917 -0.222955,0.117027 -0.533989,0.217491 -0.691186,0.223307 -0.160915,0.0056 -0.07765,0.220743 0.190541,0.491508 0.492166,0.496901 0.556308,1.646937 0.123861,2.220757 -0.120521,0.159921 0.03809,0.178257 0.352492,0.0407 0.31439,-0.137587 0.612009,-0.319393 0.661374,-0.404169 z m 19.250113,0.07267 c 0,-0.307408 -0.08069,-0.558906 -0.179296,-0.558906 -0.240266,0 -0.412345,0.581848 -0.260119,0.879523 0.214584,0.419617 0.439415,0.255571 0.439415,-0.320617 z M 29.598212,25.440062 c 0.04366,-0.07536 -0.109075,-0.136882 -0.339425,-0.136882 -0.517624,0 -0.734336,-0.976061 -0.428992,-1.932151 0.214464,-0.671553 0.184027,-0.699901 -0.493915,-0.460118 -0.779614,0.275736 -1.060803,0.529262 -0.587012,0.529262 0.505538,0 0.779299,0.957359 0.532073,1.860682 -0.207363,0.757683 -0.186145,0.779834 0.510764,0.533292 0.399913,-0.141474 0.762841,-0.318828 0.806507,-0.394101 z m 13.355731,0.05422 c -0.306169,-0.721407 -0.12167,-1.612013 0.422479,-2.039389 0.395184,-0.310366 0.399707,-0.342528 0.05184,-0.368739 -0.209593,-0.01577 -0.582335,-0.134064 -0.828312,-0.262834 -0.408579,-0.2139 -0.426567,-0.169427 -0.208104,0.514631 0.315864,0.989045 0.107214,1.954459 -0.434294,2.009364 -0.358382,0.03633 -0.334346,0.09407 0.136929,0.328518 0.972236,0.483776 1.127862,0.450894 0.859447,-0.181551 z m -16.579042,-0.19105 c 0,-0.204929 -0.08575,-0.372609 -0.190541,-0.372609 -0.10479,0 -0.19054,0.16768 -0.19054,0.372609 0,0.204929 0.08575,0.372597 0.19054,0.372597 0.104791,0 0.190541,-0.167668 0.190541,-0.372597 z m 18.863513,0 c 0,-0.204929 -0.08575,-0.372609 -0.190538,-0.372609 -0.10479,0 -0.190538,0.16768 -0.190538,0.372609 0,0.204929 0.08575,0.372597 0.190538,0.372597 0.10479,0 0.190538,-0.167668 0.190538,-0.372597 z M 27.919003,24.447664 c -0.244556,-0.478229 -0.492557,-0.108574 -0.311503,0.464258 0.07014,0.221898 0.214807,0.297972 0.321494,0.169034 0.13014,-0.157289 0.126854,-0.365697 -0.01002,-0.633292 z m 2.881742,0.468299 c -0.54415,-0.427375 -0.728647,-1.317983 -0.422478,-2.039374 0.200024,-0.471315 0.141821,-0.554163 -0.389295,-0.554163 -0.604678,0 -0.613938,0.02281 -0.291968,0.718506 0.212399,0.458949 0.287259,0.997325 0.207232,1.490395 -0.112176,0.69113 -0.04918,0.769428 0.602083,0.74829 0.632819,-0.02056 0.671091,-0.06789 0.294426,-0.363654 z m 10.527256,-0.384636 c -0.08003,-0.49307 -0.0052,-1.031446 0.207232,-1.490395 0.321972,-0.695717 0.312711,-0.718506 -0.291966,-0.718506 -0.531118,0 -0.589321,0.08282 -0.389298,0.554163 0.306173,0.721391 0.121672,1.611999 -0.422477,2.039374 -0.376665,0.295832 -0.338392,0.343093 0.294426,0.363654 0.651251,0.02114 0.714259,-0.05717 0.602083,-0.74829 z m 2.338427,-0.190704 c -0.181573,-0.355063 -0.54561,0.220067 -0.410286,0.648217 0.08042,0.254486 0.187009,0.248065 0.323845,-0.01958 0.112188,-0.21938 0.151082,-0.502284 0.08644,-0.628687 z m -10.050984,0.217405 c 0.19054,-0.240798 0.206417,-0.363091 0.04763,-0.366892 -0.305431,-0.007 -0.31006,-1.579101 -0.0064,-2.172905 0.182007,-0.355922 0.07921,-0.431925 -0.478704,-0.353964 -0.572671,0.08 -0.654585,0.179495 -0.422318,0.512941 0.677374,0.972414 0.07559,3.006183 -0.631462,2.134053 -0.433192,-0.534347 -0.47132,-1.078625 -0.12324,-1.759287 0.283541,-0.55446 0.243137,-0.602141 -0.510241,-0.602141 -0.808948,0 -0.813194,0.007 -0.376924,0.604365 0.312207,0.427616 0.415916,0.863471 0.354631,1.490395 -0.08213,0.840052 -0.03608,0.885734 0.887298,0.880329 0.535653,-0.0028 1.10253,-0.168246 1.259727,-0.366894 z m 6.148377,-0.513435 c -0.06129,-0.626924 0.04243,-1.062779 0.354628,-1.490395 0.436273,-0.597563 0.432026,-0.604365 -0.376921,-0.604365 -0.74379,0 -0.790949,0.05323 -0.518749,0.585509 0.359365,0.702731 0.372105,0.986311 0.07077,1.575567 -0.343119,0.670959 -0.876085,0.538839 -1.098053,-0.272203 -0.147397,-0.538573 -0.125141,-0.859581 0.08856,-1.277495 0.390296,-0.763217 0.372525,-0.812492 -0.330715,-0.91728 -0.488576,-0.07281 -0.567479,0.0028 -0.381081,0.367864 0.306108,0.598591 0.303894,2.166061 -0.003,2.199817 -0.600239,0.06604 0.621652,0.669554 1.402632,0.692832 0.825199,0.02465 0.873377,-0.02774 0.79203,-0.859851 z m -10.325981,0.0383 c -0.02357,-0.445529 -0.284912,-0.359244 -0.366789,0.121109 -0.04192,0.24591 0.02668,0.380046 0.152432,0.29807 0.125756,-0.08196 0.222217,-0.270594 0.214357,-0.419165 z m 5.67347,-0.220786 c -0.315668,-0.988439 -0.07178,-1.912352 0.504809,-1.912352 0.576587,0 0.820478,0.923913 0.504808,1.912352 -0.195103,0.610913 -0.163069,0.695846 0.262443,0.695846 0.43917,0 0.463772,-0.07634 0.26206,-0.813379 -0.189529,-0.692522 -0.159076,-0.913998 0.204947,-1.490409 0.42088,-0.666442 0.40161,-0.677017 -1.234258,-0.677017 -1.635869,0 -1.655138,0.01124 -1.234258,0.677017 0.364023,0.576411 0.394476,0.797887 0.204946,1.490409 -0.201712,0.737024 -0.177109,0.813379 0.262061,0.813379 0.425514,0 0.457547,-0.08491 0.262442,-0.695846 z m 7.078458,0.38534 c 0,-0.485143 -0.226508,-0.807803 -0.410766,-0.585115 -0.197058,0.238151 -0.02715,0.895621 0.23147,0.895621 0.09861,0 0.179296,-0.139698 0.179296,-0.310506 z M 31.138416,23.874853 c 0,-0.485156 -0.22651,-0.807801 -0.410767,-0.585129 -0.19706,0.238166 -0.02715,0.895636 0.231471,0.895636 0.09861,0 0.179296,-0.139699 0.179296,-0.310507 z m 9.350778,-0.164567 c -0.02357,-0.445515 -0.284913,-0.359231 -0.366791,0.121109 -0.04192,0.245923 0.02668,0.38006 0.152432,0.298086 0.125758,-0.08196 0.222218,-0.270597 0.214359,-0.419182 z m -7.826455,-0.24815 c 0,-0.192831 -0.08575,-0.454231 -0.190539,-0.580888 -0.10479,-0.126603 -0.19054,0.03112 -0.19054,0.350613 0,0.31949 0.08575,0.580889 0.19054,0.580889 0.10479,0 0.190539,-0.157767 0.190539,-0.350614 z m 1.544104,-0.504942 c -0.244558,-0.478229 -0.492558,-0.108574 -0.311504,0.464245 0.07014,0.221913 0.214806,0.297972 0.321493,0.169033 0.13014,-0.157273 0.126853,-0.365681 -0.01002,-0.633278 z m 1.695086,0.0883 c 0,-0.192834 -0.128614,-0.350613 -0.28581,-0.350613 -0.294654,0 -0.378547,0.439657 -0.163964,0.859272 0.152229,0.297692 0.449774,-0.03886 0.449774,-0.508659 z m 3.06294,0.292126 c -0.02357,-0.445515 -0.284914,-0.359231 -0.366791,0.12111 -0.04192,0.245909 0.02667,0.380046 0.152434,0.298086 0.125756,-0.08196 0.222217,-0.270612 0.214357,-0.419181 z m -1.538615,-0.270127 c 0,-0.204928 -0.08575,-0.372609 -0.190541,-0.372609 -0.10479,0 -0.190541,0.167681 -0.190541,0.372609 0,0.204928 0.08575,0.372596 0.190541,0.372596 0.10479,0 0.190541,-0.167668 0.190541,-0.372596 z"
       id="path2614" />
  </g>
</svg>
