<?xml version="1.0" encoding="UTF-8"?>
<svg xmlns="http://www.w3.org/2000/svg" xmlns:xlink="http://www.w3.org/1999/xlink" width="px" height="0px" viewBox="0 0 190 189" version="1.1">
<g id="surface1">
<path style="fill:none;stroke-width:0.264583;stroke-linecap:butt;stroke-linejoin:miter;stroke:rgb(99.607843%,0%,0%);stroke-opacity:1;stroke-miterlimit:4;" d="M 110.618082 63.592886 C 110.618082 91.20778 88.232127 113.594149 60.616329 113.594149 C 33.00259 113.594149 10.616635 91.20778 10.616635 63.592886 C 10.616635 35.980063 33.00259 13.593694 60.616329 13.593694 C 88.232127 13.593694 110.618082 35.980063 110.618082 63.592886 Z M 110.618082 63.592886 " transform="matrix(1.896418,0,0,1.886437,-19.883577,-25.393644)"/>
<path style="fill:none;stroke-width:0.264583;stroke-linecap:butt;stroke-linejoin:miter;stroke:rgb(99.607843%,0%,0%);stroke-opacity:1;stroke-miterlimit:4;" d="M 65.895608 26.262254 C 65.895608 29.024572 63.65866 31.263002 60.896462 31.263002 C 58.134265 31.263002 55.897317 29.024572 55.897317 26.262254 C 55.897317 23.499937 58.134265 21.261507 60.896462 21.261507 C 63.65866 21.261507 65.895608 23.499937 65.895608 26.262254 Z M 65.895608 26.262254 " transform="matrix(1.896418,0,0,1.886437,-19.883577,-25.393644)"/>
<path style="fill:none;stroke-width:0.308091;stroke-linecap:butt;stroke-linejoin:miter;stroke:rgb(0%,0%,100%);stroke-opacity:1;stroke-miterlimit:4;" d="M 27.00032 98.070089 C 26.887031 97.956201 26.821117 96.881506 26.852014 95.680498 C 26.905569 93.62429 26.915868 93.5953 27.022978 95.193883 C 27.086832 96.125699 27.253676 97.005748 27.395803 97.148627 C 27.537929 97.291505 29.437069 95.924841 31.614282 94.110905 C 38.860674 88.078948 46.465472 82.601939 51.596445 79.723662 C 57.644031 76.327709 61.053007 75.689932 65.24471 77.166344 C 70.795883 79.123158 80.207129 85.391175 90.679175 94.110905 C 92.858448 95.924841 94.757588 97.291505 94.897655 97.148627 C 95.039781 97.005748 95.210745 96.125699 95.278718 95.193883 C 95.36523 93.980451 95.392008 94.15439 95.373469 95.806811 C 95.350812 97.676656 95.249881 98.13221 94.846159 98.208826 C 94.568086 98.262665 92.584494 96.838021 90.378444 95.005449 C 78.627259 85.231731 68.011027 78.417048 62.803841 77.305081 C 60.472143 76.808112 58.682173 77.236747 54.368942 79.330228 C 48.826008 82.022142 40.745395 87.662737 31.933552 94.988883 C 28.186768 98.107362 27.480255 98.548422 27.00032 98.070089 Z M 28.232083 94.680349 C 27.910754 94.357319 27.995206 91.164295 28.363911 89.801773 C 29.342318 86.17183 44.766134 75.257156 56.371072 69.978934 C 60.468023 68.117372 60.684302 67.827474 60.684302 64.214097 L 60.684302 61.302689 L 61.541181 61.302689 C 63.592746 61.302689 68.775214 64.555763 74.165723 69.223127 C 81.591318 75.65473 92.182832 86.457587 93.408416 88.847179 C 93.820377 89.648541 94.110809 90.926164 94.201441 92.338384 C 94.411541 95.560397 94.077852 95.547973 90.036516 92.193434 C 77.341941 81.651486 66.338466 75.168115 61.147758 75.168115 C 55.948812 75.168115 45.075104 81.57487 32.296077 92.166515 C 29.082782 94.829439 28.650224 95.09656 28.232083 94.680349 Z M 33.264186 90.211772 C 45.367597 80.464973 54.614059 75.016954 60.159052 74.364683 C 65.357999 73.753825 75.086455 79.048613 88.429869 89.747934 L 93.188017 93.56424 L 93.282768 92.201717 C 93.433134 90.066823 92.485624 88.592482 87.700698 83.515119 C 78.522209 73.774532 68.904982 65.454448 63.856401 62.886776 C 61.788358 61.834859 61.716265 61.89491 61.532942 64.849803 C 61.427892 66.525001 61.186895 67.748787 60.861446 68.245756 C 60.529817 68.751007 58.795462 69.763581 55.852001 71.169588 C 48.043283 74.896853 39.816423 80.170933 33.177674 85.69971 C 29.614212 88.669098 28.950955 89.67546 28.950955 92.129243 C 28.950955 93.642927 28.985972 93.719543 29.490624 93.282624 C 29.787236 93.025857 31.486574 91.644698 33.264186 90.211772 Z M 26.804639 90.021267 C 26.800519 89.29445 27.057995 88.184554 27.379324 87.557131 C 28.172349 86.004104 36.545454 77.168414 41.952441 72.17802 C 51.54289 63.321624 57.514263 59.323097 61.147758 59.323097 C 64.853347 59.323097 71.265518 63.677785 81.018692 72.817867 C 86.611061 78.054675 94.141706 86.043447 94.914133 87.557131 C 95.237522 88.184554 95.494998 89.29445 95.488818 90.021267 L 95.478519 91.342376 L 94.928552 89.750005 C 94.147886 87.490868 93.383698 86.573547 86.279433 79.375784 C 73.292366 66.222679 65.421853 60.225923 61.147758 60.225923 C 56.871604 60.225923 49.001092 66.222679 36.016084 79.375784 C 28.911819 86.573547 28.147631 87.490868 27.364906 89.750005 L 26.814938 91.342376 Z M 26.79434 69.078178 C 26.79434 63.22223 26.489489 63.8393 32.625646 57.324868 C 42.821678 46.503375 53.458508 37.597282 58.399979 35.750215 C 60.531877 34.950924 61.76158 34.950924 63.895538 35.750215 C 68.837009 37.597282 79.473839 46.503375 89.669871 57.324868 C 95.806028 63.8393 95.499117 63.22223 95.499117 69.078178 L 95.499117 73.936047 L 94.693734 73.936047 C 94.149946 73.936047 93.223034 73.350038 91.842965 72.138677 C 83.443082 64.750409 72.178011 56.91694 66.097469 54.23745 C 63.926435 53.280786 63.300254 53.142049 61.147758 53.142049 C 58.995263 53.142049 58.367022 53.280786 56.198048 54.23745 C 50.06807 56.939718 38.990442 64.640662 30.450493 72.140748 C 29.074543 73.350038 28.143512 73.936047 27.601783 73.936047 L 26.79434 73.936047 Z M 31.85116 69.794641 C 44.685801 59.045623 56.222766 52.061142 61.147758 52.061142 C 66.107768 52.061142 77.486127 58.966936 90.672996 69.981005 C 92.862568 71.809435 94.776126 73.232008 94.922372 73.140897 C 95.070678 73.049786 95.190147 71.422214 95.188087 69.527521 C 95.183967 64.762833 94.895595 64.218238 89.105484 58.068251 C 79.694238 48.072968 70.449835 40.073843 65.018131 37.232838 C 61.246629 35.257388 58.624498 35.864104 52.828208 40.051065 C 47.678697 43.770047 40.127454 50.698619 33.190033 58.068251 C 27.408161 64.209956 27.11155 64.769045 27.10537 69.494389 C 27.10537 71.372517 27.191882 72.998019 27.301052 73.105695 C 27.568826 73.374887 27.626501 73.331402 31.85116 69.794641 Z M 28.219724 69.891964 C 27.727431 67.427828 28.232083 65.183186 29.63687 63.582533 C 31.152886 61.857637 37.663928 56.765779 42.045132 53.88129 C 47.163746 50.510185 50.673653 48.524381 55.899377 46.041608 C 60.721379 43.74934 60.684302 43.796966 60.684302 39.870914 L 60.684302 37.272182 L 61.687427 37.272182 C 65.197334 37.274252 73.001933 43.349695 85.025012 55.440529 C 92.584494 63.04415 93.78948 64.603389 94.154065 67.25596 C 94.357986 68.755148 94.086092 70.854841 93.68649 70.854841 C 93.552602 70.854841 91.653463 69.386713 89.46389 67.591413 C 79.793108 59.658551 70.779404 53.798461 65.304444 51.885132 C 61.178656 50.443923 58.07659 50.934679 52.463623 53.916491 C 47.083414 56.776132 40.007985 61.704405 32.829567 67.591413 C 30.642054 69.386713 28.753214 70.854841 28.631685 70.854841 C 28.512217 70.854841 28.326834 70.422064 28.219724 69.891964 Z M 38.147982 62.263495 C 48.537636 54.417602 56.562634 50.212004 61.147758 50.212004 C 66.618599 50.212004 77.869251 56.755425 90.567946 67.326363 L 93.342502 69.635197 L 93.336323 68.164998 C 93.326024 65.806467 92.456786 64.452228 87.723356 59.416278 C 77.834234 48.895037 67.220062 39.895762 62.902712 38.371725 L 61.691547 37.94516 L 61.532942 40.719902 C 61.415533 42.800958 61.226031 43.695502 60.783173 44.289794 C 60.418588 44.77848 58.832538 45.695801 56.663564 46.671102 C 49.616973 49.841348 40.514697 55.568912 34.05927 60.89269 C 29.449428 64.6945 29.169294 65.069297 29.00451 67.661817 L 28.874742 69.699389 L 31.690495 67.357424 C 33.237408 66.069447 36.143792 63.777179 38.147982 62.263495 Z M 38.147982 62.263495 " transform="matrix(1.896418,0,0,1.886437,-19.883577,-25.393644)"/>
</g>
</svg>
