<?xml version="1.0" encoding="UTF-8"?>
<svg xmlns="http://www.w3.org/2000/svg" xmlns:xlink="http://www.w3.org/1999/xlink" width="px" height="0px" viewBox="0 0 190 189" version="1.1">
<g id="surface1">
<path style="fill:none;stroke-width:0.264583;stroke-linecap:butt;stroke-linejoin:miter;stroke:rgb(99.607843%,0%,0%);stroke-opacity:1;stroke-miterlimit:4;" d="M 110.618082 63.592886 C 110.618082 91.20778 88.232127 113.594149 60.616329 113.594149 C 33.00259 113.594149 10.616635 91.20778 10.616635 63.592886 C 10.616635 35.980063 33.00259 13.593694 60.616329 13.593694 C 88.232127 13.593694 110.618082 35.980063 110.618082 63.592886 Z M 110.618082 63.592886 " transform="matrix(1.896418,0,0,1.886437,-19.883577,-25.393644)"/>
<path style="fill:none;stroke-width:0.264583;stroke-linecap:butt;stroke-linejoin:miter;stroke:rgb(99.607843%,0%,0%);stroke-opacity:1;stroke-miterlimit:4;" d="M 65.895608 26.262254 C 65.895608 29.024572 63.65866 31.263002 60.896462 31.263002 C 58.134265 31.263002 55.897317 29.024572 55.897317 26.262254 C 55.897317 23.499937 58.134265 21.261507 60.896462 21.261507 C 63.65866 21.261507 65.895608 23.499937 65.895608 26.262254 Z M 65.895608 26.262254 " transform="matrix(1.896418,0,0,1.886437,-19.883577,-25.393644)"/>
<path style="fill:none;stroke-width:0.129358;stroke-linecap:butt;stroke-linejoin:miter;stroke:rgb(0%,0%,100%);stroke-opacity:1;stroke-miterlimit:4;" d="M 77.708586 88.277735 C 74.837219 87.528141 73.306784 85.157186 73.312964 81.473406 C 73.315023 79.734015 73.551901 78.54129 74.138945 77.30301 C 75.345991 74.760187 77.780679 73.534331 80.876566 73.904987 C 83.455441 74.215592 85.296906 75.952912 85.869532 78.615836 C 86.106409 79.723662 86.069333 82.303757 85.797438 83.544108 C 85.195976 86.289861 83.653182 87.929857 81.259689 88.372988 C 80.180352 88.571775 78.682874 88.532432 77.708586 88.277735 Z M 82.435838 87.623393 C 83.517235 87.116071 84.184612 86.482436 84.73046 85.438802 C 85.377238 84.206733 85.601757 83.252139 85.682089 81.39886 C 85.793319 78.885027 85.313384 77.201546 84.106339 75.857659 C 82.51411 74.085138 79.416164 73.642007 76.93204 74.830591 C 75.56639 75.484933 74.390241 77.114576 73.871171 79.06932 C 73.527183 80.373862 73.56014 82.744817 73.941204 83.985168 C 74.544727 85.948195 75.572569 87.105717 77.319283 87.793191 C 78.682874 88.327432 81.103144 88.246675 82.435838 87.623393 Z M 78.666395 85.612741 C 77.755962 85.215166 77.348121 84.165319 77.232771 81.914465 C 77.045329 78.212049 78.017557 76.338062 80.027926 76.530638 C 81.634574 76.68387 82.108329 77.748211 82.104209 81.189719 C 82.100089 84.6685 81.527464 85.801175 79.77869 85.790821 C 79.387327 85.78875 78.886794 85.707993 78.666395 85.612741 Z M 80.792114 85.192388 C 81.572779 84.691278 82.023877 82.13396 81.758162 79.731944 C 81.521284 77.601191 81.014572 76.870233 79.77869 76.870233 C 78.159684 76.870233 77.504666 78.319725 77.613835 81.647345 C 77.677689 83.602088 77.811577 84.241935 78.275033 84.819661 C 78.814701 85.490569 80.046464 85.674862 80.792114 85.192388 Z M 92.020108 88.315008 C 89.010733 87.552989 87.484418 85.223449 87.490598 81.39886 C 87.494717 79.558005 87.77897 78.265887 88.469005 76.973768 C 89.651333 74.756045 92.127218 73.573674 94.914133 73.892562 C 97.398257 74.178319 99.002845 75.455943 99.830886 77.812403 C 100.220189 78.914017 100.331419 81.66184 100.049225 83.144463 C 99.530155 85.863296 98.434339 87.343848 96.349817 88.136928 C 95.392008 88.501371 93.120043 88.594553 92.020108 88.315008 Z M 95.948155 87.861524 C 98.224239 87.203041 99.47248 85.335266 99.847365 82.036637 C 100.181053 79.108663 99.324174 76.497507 97.622776 75.248873 C 95.89872 73.983673 92.969678 73.824229 91.012863 74.88857 C 90.123028 75.373115 89.018973 76.580335 88.578174 77.553565 C 87.317574 80.332448 87.605947 84.144612 89.233192 86.19875 C 90.600902 87.925716 93.36722 88.611118 95.948155 87.861524 Z M 92.907883 85.645872 C 92.362035 85.34562 91.935656 84.823803 91.715257 84.190168 C 91.527814 83.653856 91.484559 83.105119 91.486618 81.204214 C 91.488678 79.081744 91.513396 78.810482 91.78323 78.139574 C 92.31466 76.818465 93.354861 76.261446 94.644299 76.609324 C 95.779251 76.913718 96.176793 77.818615 96.296262 80.363509 C 96.426029 83.173453 96.020248 85.001883 95.146891 85.534054 C 94.664897 85.828094 93.356921 85.892286 92.907883 85.645872 Z M 94.551607 85.4036 C 95.628885 85.103348 95.99553 83.858855 95.919318 80.763155 C 95.861643 78.375634 95.709217 77.77513 95.017123 77.193263 C 94.73287 76.955132 94.483634 76.870233 94.055195 76.870233 C 92.971737 76.870233 92.401172 77.387909 91.983031 78.748361 C 91.661702 79.796136 91.659642 82.678555 91.978912 83.749108 C 92.407351 85.188247 93.288947 85.753548 94.551607 85.4036 Z M 20.332733 88.091372 C 20.297716 88.002332 20.285358 84.81552 20.303896 81.009568 L 20.336853 74.089279 L 23.053735 74.052006 C 27.125968 73.998168 28.291818 74.275642 29.515341 75.582256 C 30.677071 76.824678 31.074613 78.193412 31.070494 80.945376 C 31.066374 84.016229 30.609098 85.445014 29.163115 86.890364 C 28.464841 87.588191 28.211485 87.751777 27.463776 87.981625 C 26.674871 88.225968 26.26703 88.252887 23.488354 88.252887 C 21.131937 88.252887 20.380109 88.215614 20.332733 88.091372 Z M 26.549223 87.853241 C 28.588429 87.476373 30.05707 85.881932 30.563782 83.4882 C 30.800659 82.367949 30.7986 79.642904 30.561722 78.516442 C 30.190957 76.766698 29.239328 75.497357 27.791285 74.818166 C 27.076533 74.482713 27.008559 74.476501 23.863238 74.435086 L 20.660242 74.391602 L 20.660242 87.99612 L 23.224699 87.99612 C 24.633605 87.99612 26.131083 87.931928 26.551283 87.853241 Z M 23.766427 81.140022 L 23.766427 77.000687 L 24.833406 77.000687 C 26.215535 77.000687 26.611017 77.220182 26.975602 78.191342 C 27.502912 79.60149 27.449358 83.030574 26.878792 84.318551 C 26.545103 85.076429 26.106365 85.279358 24.806628 85.279358 L 23.766427 85.279358 Z M 25.896265 84.836227 C 26.450352 84.604308 26.695469 84.130117 26.882911 82.93118 C 27.074473 81.694971 26.973543 79.029976 26.707828 78.408765 C 26.353542 77.572201 26.040451 77.387909 24.969353 77.387909 L 24.023903 77.387909 L 24.023903 81.117245 C 24.023903 83.169311 24.063039 84.885924 24.110414 84.93355 C 24.2649 85.088853 25.445168 85.024661 25.896265 84.836227 Z M 31.398003 88.031322 C 31.398003 87.73107 35.667977 74.393672 35.830702 74.186602 C 35.921333 74.070643 36.4816 74.025087 37.812234 74.025087 C 39.462137 74.025087 39.680476 74.049936 39.791706 74.257006 C 39.972969 74.594531 43.946331 87.768342 43.946331 88.031322 C 43.946331 88.23218 43.75065 88.252887 41.950381 88.252887 L 39.95443 88.252887 L 39.758749 87.573696 C 39.651639 87.20097 39.493034 86.617032 39.408582 86.277436 L 39.256157 85.658296 L 37.633031 85.695569 C 36.028443 85.730771 36.009905 85.734912 35.911034 86.0538 C 35.85542 86.231881 35.688575 86.799253 35.540269 87.316929 L 35.268375 88.252887 L 33.332159 88.252887 C 31.585445 88.252887 31.398003 88.23218 31.398003 88.031322 Z M 35.361066 86.668799 L 35.74007 85.343549 L 37.626851 85.308347 L 39.511572 85.271075 L 39.872038 86.633597 L 40.234564 87.99612 L 41.894766 87.99612 C 42.976164 87.99612 43.557028 87.946423 43.557028 87.859453 C 43.557028 87.739353 41.342739 80.371792 39.972969 75.932205 L 39.505393 74.412309 L 36.075819 74.412309 L 35.684456 75.609175 C 34.524786 79.143865 31.785246 87.757989 31.785246 87.867736 C 31.785246 87.944352 32.421725 87.99612 33.383654 87.99612 L 34.982062 87.99612 Z M 36.572231 82.593656 C 36.572231 82.469414 36.788511 81.450628 37.052166 80.330378 C 37.519742 78.359068 37.764858 77.866241 37.925523 78.584775 C 38.285989 80.187499 38.772103 82.527393 38.772103 82.657848 C 38.772103 82.775878 38.469311 82.821433 37.672167 82.821433 C 36.710238 82.821433 36.572231 82.792443 36.572231 82.593656 Z M 38.3828 82.467343 C 38.3828 82.415575 38.226254 81.653557 38.032633 80.775579 L 37.682466 79.179067 L 37.346718 80.649266 C 37.159276 81.458911 36.969774 82.218859 36.924458 82.34103 C 36.850305 82.533605 36.936817 82.562595 37.610373 82.562595 C 38.034693 82.562595 38.3828 82.519111 38.3828 82.467343 Z M 45.658029 81.171083 L 45.690986 74.089279 L 53.9714 74.089279 L 53.946682 74.865793 C 53.932263 75.292357 53.884888 76.004679 53.839572 76.44988 L 53.75512 77.257455 L 49.507803 77.257455 L 49.507803 79.319875 L 51.221561 79.357147 L 52.935318 79.392349 L 52.935318 82.367949 L 51.221561 82.403151 L 49.507803 82.440424 L 49.507803 83.600017 C 49.507803 84.239865 49.507803 84.805167 49.507803 84.859005 C 49.507803 84.910772 50.568603 84.983247 51.868339 85.02052 L 54.228875 85.084711 L 54.303028 88.252887 L 45.625072 88.252887 Z M 53.905486 86.704001 L 53.905486 85.413953 L 49.184414 85.343549 L 49.184414 82.109111 L 50.898171 82.073909 L 52.611929 82.036637 L 52.611929 79.723662 L 50.898171 79.68846 L 49.184414 79.651187 L 49.110261 77.000687 L 51.242159 77.000687 C 52.414188 77.000687 53.400834 76.955132 53.433791 76.903364 C 53.466748 76.849526 53.534721 76.267659 53.586216 75.609175 L 53.680967 74.412309 L 46.014375 74.412309 L 46.014375 87.99612 L 53.905486 87.99612 Z M 58.640976 88.02718 C 58.292869 86.888294 55.33705 74.319127 55.386485 74.192814 C 55.433861 74.064431 55.907616 74.025087 57.320642 74.025087 C 58.991143 74.025087 59.199183 74.047865 59.260978 74.250794 C 59.298054 74.375036 59.625563 76.019174 59.988089 77.905585 C 60.350614 79.789924 60.678123 81.419567 60.719319 81.527244 C 60.758455 81.63492 61.071546 80.07361 61.411413 78.060887 C 61.753341 76.048164 62.064371 74.314986 62.105568 74.213521 C 62.163242 74.058219 62.554605 74.025087 64.241585 74.025087 C 66.095409 74.025087 66.313748 74.047865 66.377602 74.250794 C 66.486772 74.604884 67.325112 79.261895 67.508435 80.537448 C 67.632023 81.392648 67.697937 81.605931 67.77209 81.378153 C 67.825645 81.210426 68.134615 79.560076 68.458005 77.710938 C 68.783454 75.861801 69.073886 74.275642 69.104783 74.186602 C 69.148039 74.066501 69.671229 74.025087 71.123391 74.025087 L 73.084325 74.025087 L 73.018412 74.509632 C 72.983395 74.776752 72.178011 77.978059 71.228441 81.624567 L 69.504385 88.252887 L 65.442451 88.252887 L 65.228231 87.058091 C 65.110822 86.399608 64.82039 84.78446 64.585572 83.467492 C 64.303379 81.891688 64.130355 81.185578 64.07886 81.39886 C 64.033545 81.57487 63.792547 82.885625 63.543311 84.308198 C 63.292015 85.730771 63.02424 87.20097 62.950087 87.573696 L 62.81414 88.252887 L 60.762575 88.252887 C 58.91905 88.252887 58.702771 88.230109 58.640976 88.02718 Z M 62.886233 86.02274 C 63.083975 84.937692 63.407364 83.100978 63.605105 81.939314 C 63.804906 80.77972 64.004707 79.794066 64.047963 79.750581 C 64.241585 79.558005 64.375472 80.123307 65.020191 83.854714 C 65.395075 86.024811 65.745242 87.847029 65.796737 87.902938 C 65.850292 87.956776 66.641257 87.985766 67.55581 87.96713 L 69.218072 87.929857 L 69.370498 87.34799 C 71.205784 80.328307 72.662065 74.662864 72.662065 74.553117 C 72.662065 74.339834 69.436412 74.360541 69.372558 74.573824 C 69.34578 74.662864 69.055348 76.278012 68.725779 78.164422 C 67.891558 82.924968 67.887439 82.949817 67.673219 82.949817 C 67.572289 82.949817 67.487837 82.885625 67.487837 82.804868 C 67.487837 82.322394 66.459994 76.205537 66.126306 74.704278 C 66.062452 74.418521 66.023316 74.412309 64.214807 74.412309 L 62.369223 74.412309 L 61.668889 78.682098 C 61.172476 81.713607 60.92324 82.949817 60.803771 82.949817 C 60.60397 82.949817 60.671944 83.231432 59.784168 78.682098 C 59.388685 76.652809 59.032339 74.863722 58.993203 74.704278 C 58.925229 74.420592 58.875794 74.412309 57.320642 74.412309 C 56.439045 74.412309 55.716054 74.430945 55.716054 74.453723 C 55.716054 74.476501 56.358713 77.139424 57.145558 80.371792 C 57.930344 83.604159 58.661574 86.64188 58.772804 87.122283 L 58.972605 87.994049 L 62.529887 87.994049 Z M 56.169211 67.280808 C 51.433721 66.918435 48.644745 66.516719 45.917564 65.804397 C 40.325195 64.344551 36.325055 61.588446 34.467111 57.912948 C 33.890366 56.776132 33.264186 54.784116 32.37023 51.253568 C 31.097271 46.232113 31.146707 45.826255 33.159135 44.641813 C 34.58452 43.803179 37.027448 42.595959 38.881272 41.817374 C 41.968919 40.519044 46.70441 39.098542 47.944412 39.098542 C 49.468667 39.098542 50.550065 39.786015 52.379171 41.914697 C 54.714989 44.637672 56.436986 47.691959 57.938583 51.775385 C 58.521508 53.361543 58.472072 52.957756 57.76144 50.352812 C 56.610009 46.130649 54.6017 41.670355 52.861165 39.473339 C 52.653125 39.21036 52.482161 38.903895 52.482161 38.792078 C 52.482161 38.560159 53.608874 37.762938 54.760305 37.183141 C 56.665624 36.222335 58.412338 35.872386 61.020051 35.932437 C 62.941848 35.977992 64.08092 36.209911 65.65873 36.880819 C 66.688632 37.319808 68.653686 38.537381 68.653686 38.736169 C 68.653686 38.808643 68.359134 39.272481 68.000728 39.765308 C 66.138665 42.322626 64.305439 46.553072 63.13753 50.978164 C 62.680253 52.713413 62.614339 53.417452 63.02836 52.139828 C 64.369293 48.006705 66.795742 43.850805 69.522923 41.022225 C 71.370568 39.104754 72.480803 38.779653 74.991704 39.415359 C 78.647857 40.343034 81.828195 41.531617 85.404016 43.30621 C 88.93658 45.058024 89.610136 45.646104 89.608077 46.98792 C 89.606017 48.10817 87.925216 54.664015 87.076577 56.865172 C 84.946739 62.375313 78.779685 65.820962 69.104783 66.90394 C 64.746237 67.390555 59.567888 67.541717 56.169211 67.280808 Z M 64.202448 67.032324 C 67.518734 66.812829 70.754686 66.415254 73.179076 65.93071 C 74.423198 65.680155 75.492237 65.425458 75.556091 65.363337 C 75.617885 65.299145 75.749712 65.278438 75.848583 65.315711 C 75.945394 65.355054 76.025726 65.31364 76.025726 65.228741 C 76.025726 65.141772 76.114298 65.104499 76.219348 65.145913 C 76.326458 65.187327 76.415029 65.156267 76.415029 65.081721 C 76.415029 65.005105 76.501541 64.976116 76.608651 65.015459 C 76.715761 65.056873 76.802272 65.027883 76.802272 64.951267 C 76.802272 64.874651 76.888784 64.845661 76.995894 64.887075 C 77.103004 64.928489 77.189516 64.90157 77.189516 64.827025 C 77.189516 64.750409 77.315164 64.727631 77.482008 64.775257 C 77.718885 64.84152 77.737424 64.829096 77.578819 64.706924 C 77.418154 64.584753 77.434632 64.570258 77.675629 64.622025 C 77.836294 64.657227 77.937225 64.638591 77.900148 64.578541 C 77.809517 64.431521 78.314169 64.28243 78.503671 64.39839 C 78.590183 64.452228 78.61902 64.435662 78.569585 64.356975 C 78.464535 64.185107 79.193705 63.878643 79.401746 64.007027 C 79.508855 64.073289 79.525334 64.050511 79.453241 63.932481 C 79.372908 63.804098 79.407925 63.785461 79.591248 63.853795 C 79.725135 63.905562 79.791049 63.905562 79.739554 63.853795 C 79.688058 63.802027 80.0959 63.497634 80.649987 63.178746 C 82.62328 62.04193 84.271123 60.613145 85.331923 59.120168 C 85.57086 58.784714 85.824216 58.546583 85.896309 58.590068 C 85.968402 58.633553 85.98694 58.606634 85.939565 58.530018 C 85.838635 58.364361 86.506011 56.935576 86.646078 57.020475 C 86.697573 57.053606 86.705812 56.954213 86.666676 56.79891 C 86.617241 56.610476 86.639898 56.550426 86.740829 56.612547 C 86.839699 56.672597 86.860298 56.631183 86.804683 56.482092 C 86.749068 56.339214 86.769666 56.291588 86.858238 56.345426 C 86.948869 56.401335 86.971527 56.333002 86.924151 56.152851 C 86.870597 55.949922 86.895314 55.902296 87.014783 55.97477 C 87.136311 56.049315 87.15485 56.001689 87.086876 55.784265 C 87.016843 55.566842 87.035381 55.519216 87.158969 55.595832 C 87.276378 55.668306 87.301096 55.635175 87.241361 55.481943 C 87.196046 55.363913 87.204285 55.26659 87.2599 55.26659 C 87.350531 55.26659 87.67392 54.212602 87.737774 53.715633 C 87.750133 53.607957 87.799568 53.434018 87.842824 53.326341 C 87.958173 53.053008 88.901564 49.193218 89.1508 47.975645 C 89.515385 46.19277 89.274388 45.797265 86.967407 44.401612 C 86.687274 44.231814 86.501892 44.16141 86.553387 44.246309 C 86.615181 44.345703 86.580164 44.372622 86.446277 44.320854 C 86.337107 44.27944 86.279433 44.192471 86.318569 44.13035 C 86.355645 44.068228 86.287672 44.053734 86.166143 44.10136 C 86.017838 44.159339 85.974582 44.138632 86.036376 44.037168 C 86.10023 43.935704 86.056974 43.914996 85.908668 43.972976 C 85.745943 44.035097 85.715046 44.01232 85.791259 43.886007 C 85.861292 43.774189 85.846874 43.745199 85.754183 43.803179 C 85.67385 43.852875 85.156839 43.664441 84.602752 43.384897 C 83.263879 42.713989 82.273113 42.293636 80.118558 41.483991 C 79.131911 41.113335 78.4048 40.777882 78.501611 40.736468 C 78.598422 40.695053 78.50985 40.695053 78.30387 40.738538 C 78.056693 40.790306 77.957823 40.769599 78.011378 40.680559 C 78.064932 40.593589 77.994899 40.570811 77.817756 40.618437 C 77.613835 40.670205 77.56646 40.645357 77.638553 40.527327 C 77.714766 40.405155 77.66533 40.386519 77.449051 40.456923 C 77.236891 40.523185 77.185396 40.504549 77.255429 40.39066 C 77.325463 40.278842 77.273968 40.258135 77.078286 40.322327 C 76.923801 40.369953 76.802272 40.353388 76.802272 40.280913 C 76.802272 40.088338 73.871171 39.444349 73.03695 39.452632 C 72.252164 39.458844 71.327312 39.798439 70.742328 40.291266 C 70.048174 40.877275 68.227306 42.9252 67.496076 43.941916 C 65.444511 46.793274 63.646301 50.72968 62.437196 55.009823 C 62.206498 55.82775 61.9758 56.525577 61.926365 56.560779 C 61.833673 56.624971 61.675068 57.465676 61.753341 57.465676 C 61.778059 57.465676 61.878989 57.277242 61.979919 57.045324 C 62.274472 56.374416 62.204438 56.883809 61.734803 58.824057 C 61.483507 59.867692 61.287825 60.472337 61.273407 60.248701 L 61.248689 59.859409 L 61.149818 60.248701 C 60.993273 60.8637 60.999453 58.498957 61.158057 56.91694 C 61.368158 54.844166 61.543241 54.519066 61.489686 56.301941 C 61.464968 57.119869 61.467028 57.585777 61.495865 57.337293 C 61.596796 56.409618 62.08291 53.988966 62.470153 52.485636 C 62.690552 51.632506 62.875934 50.802154 62.884174 50.64271 C 62.890353 50.483266 62.943908 50.352812 63.001582 50.352812 C 63.059257 50.352812 63.067496 50.22857 63.020121 50.077408 C 62.956267 49.874479 62.976865 49.828924 63.096333 49.903469 C 63.215802 49.975944 63.24052 49.928318 63.186965 49.725389 C 63.147829 49.572157 63.160187 49.474834 63.217862 49.510036 C 63.364108 49.599076 63.495936 48.996501 63.390886 48.723169 C 63.329091 48.561654 63.351749 48.526452 63.471218 48.600997 C 63.594806 48.677613 63.613344 48.629987 63.543311 48.412563 C 63.487696 48.238624 63.500055 48.151655 63.572148 48.195139 C 63.640122 48.236553 63.695737 48.112311 63.699856 47.919736 C 63.708095 47.383424 64.515539 45.292014 64.674144 45.391408 C 64.758596 45.443175 64.773014 45.414185 64.71534 45.318933 C 64.585572 45.109792 64.894543 44.380905 65.065507 44.488581 C 65.145839 44.538278 65.160258 44.507218 65.102583 44.414036 C 64.983114 44.221461 65.275607 43.471866 65.432152 43.569189 C 65.493946 43.606462 65.506305 43.538129 65.460989 43.415957 C 65.397135 43.254442 65.419793 43.223382 65.545441 43.299998 C 65.654611 43.368331 65.685508 43.355907 65.631953 43.268937 C 65.524843 43.097069 65.669029 42.699494 65.807036 42.784393 C 65.862651 42.819595 65.942983 42.757474 65.986239 42.647726 C 66.029495 42.531767 66.008897 42.48207 65.934744 42.527626 C 65.860591 42.57111 65.87089 42.461363 65.955342 42.275 C 66.039794 42.092778 66.134545 41.970606 66.169562 42.003738 C 66.202519 42.036869 66.546506 41.527476 66.933749 40.873134 C 67.320992 40.216721 67.778269 39.494046 67.951293 39.268339 C 68.124316 39.042633 68.264383 38.823138 68.264383 38.779653 C 68.264383 38.738239 67.860661 38.442129 67.366308 38.12324 C 66.28903 37.425414 64.457864 36.61991 64.18803 36.723445 C 64.08298 36.762789 63.996468 36.73794 63.996468 36.665466 C 63.996468 36.592991 63.87082 36.568143 63.716335 36.607486 C 63.518593 36.659254 63.467098 36.634405 63.535072 36.522587 C 63.609225 36.402486 63.514474 36.387991 63.149888 36.456325 C 62.803841 36.520516 62.690552 36.503951 62.754406 36.400416 C 62.81826 36.296881 62.665834 36.274103 62.222976 36.319658 C 61.775999 36.367284 61.675068 36.35279 61.860451 36.263749 C 62.041714 36.17885 61.646231 36.139507 60.566894 36.133295 C 59.4443 36.129154 59.069416 36.164356 59.209482 36.263749 C 59.351609 36.363143 59.2342 36.377638 58.774864 36.315517 C 58.307288 36.253396 58.171341 36.272032 58.241374 36.385921 C 58.311408 36.497739 58.226956 36.514304 57.932404 36.450113 C 57.662569 36.390062 57.528682 36.410769 57.528682 36.508092 C 57.528682 36.599203 57.425692 36.624052 57.269147 36.574355 C 57.12702 36.53087 57.009611 36.541223 57.009611 36.599203 C 57.009611 36.657183 56.855126 36.713092 56.665624 36.725516 C 56.212467 36.750364 53.839572 37.938948 53.258707 38.429705 L 52.80555 38.812785 L 53.087744 39.193794 C 53.240169 39.405006 53.612994 39.97652 53.913725 40.467276 C 54.212397 40.958033 54.552265 41.436365 54.667614 41.531617 C 54.782963 41.62687 54.803561 41.666213 54.712929 41.620658 C 54.585221 41.556466 54.583162 41.608233 54.700571 41.867071 C 54.782963 42.047222 54.890073 42.169394 54.941568 42.138333 C 54.991003 42.107273 55.100173 42.229444 55.182565 42.409595 C 55.267017 42.595959 55.275256 42.701565 55.201103 42.656009 C 55.12695 42.610454 55.106352 42.662221 55.149608 42.77611 C 55.192864 42.887928 55.273196 42.947978 55.328811 42.912776 C 55.466818 42.827877 55.611004 43.225452 55.503894 43.397321 C 55.450339 43.486361 55.481236 43.496714 55.590406 43.430452 C 55.716054 43.351765 55.738712 43.382826 55.674858 43.546411 C 55.629542 43.668583 55.641901 43.736916 55.703695 43.697573 C 55.86024 43.60232 56.152733 44.349844 56.033264 44.542419 C 55.975589 44.637672 55.990008 44.666662 56.07034 44.616965 C 56.241304 44.511359 56.550275 45.240246 56.420507 45.449387 C 56.362833 45.542569 56.377251 45.571559 56.459644 45.521862 C 56.628547 45.418327 57.689347 48.298675 57.701706 48.888825 C 57.705825 49.114531 57.76144 49.267763 57.827354 49.22842 C 57.893267 49.187006 57.903566 49.280188 57.852071 49.445844 C 57.786158 49.650844 57.802636 49.710894 57.907686 49.646702 C 58.012736 49.58044 58.029215 49.657056 57.96742 49.907611 C 57.899447 50.172661 57.917985 50.236852 58.039514 50.160236 C 58.158982 50.087762 58.17958 50.133317 58.115726 50.336246 C 58.062171 50.503973 58.084829 50.61165 58.173401 50.61165 C 58.253733 50.61165 58.28875 50.659276 58.251673 50.719326 C 58.214597 50.779377 58.379381 51.609728 58.618319 52.562252 C 58.857256 53.516846 59.149748 54.937348 59.267157 55.720074 C 59.635862 58.171786 59.681178 58.27325 59.642041 56.560779 C 59.613204 55.279014 59.631742 55.063661 59.730613 55.525428 C 60.008687 56.832041 60.235265 61.224002 59.986029 60.441276 C 59.883039 60.122388 59.880979 60.122388 59.854201 60.505468 C 59.833603 60.785013 59.808886 60.822286 59.76563 60.635922 C 59.732673 60.493044 59.44842 59.343804 59.13533 58.078604 C 58.820179 56.815476 58.564764 55.736639 58.566823 55.684872 C 58.568883 55.633104 58.659515 55.736639 58.766625 55.91472 C 59.015861 56.32679 58.987024 56.198406 58.367022 54.102855 C 57.522503 51.253568 56.158912 48.093675 54.739707 45.708225 C 53.159837 43.053584 50.28023 39.866772 49.293584 39.680409 C 49.161756 39.655561 49.025809 39.6245 48.990793 39.610005 C 48.955776 39.59551 48.823948 39.59551 48.6983 39.607934 C 48.574712 39.620359 48.473782 39.568591 48.473782 39.494046 C 48.473782 39.313895 47.478896 39.315965 47.367667 39.496117 C 47.320291 39.572733 47.141088 39.601722 46.972184 39.558238 C 46.780622 39.510611 46.661154 39.537531 46.661154 39.628641 C 46.661154 39.71147 46.549924 39.744601 46.403678 39.707328 C 46.261552 39.670056 46.144143 39.699045 46.144143 39.77152 C 46.144143 39.843995 46.028794 39.872984 45.884607 39.835712 C 45.723943 39.794298 45.658029 39.819146 45.711584 39.904045 C 45.767199 39.995156 45.674507 40.011722 45.441749 39.951671 C 45.233709 39.899904 45.11836 39.912328 45.161616 39.984802 C 45.262546 40.144247 44.644605 40.293337 44.290319 40.193943 C 44.115235 40.144247 44.06992 40.156671 44.16879 40.227075 C 44.27384 40.299549 43.870119 40.483842 43.005001 40.757175 C 42.27789 40.989093 40.879283 41.498486 39.898816 41.889849 C 38.920409 42.281212 38.051171 42.560757 37.970839 42.51106 C 37.888447 42.459292 37.861669 42.477929 37.909045 42.554545 C 38.014095 42.726413 37.284924 43.034948 37.076884 42.906564 C 36.969774 42.840302 36.953295 42.863079 37.025388 42.981109 C 37.103661 43.105352 37.072764 43.128129 36.910039 43.066008 C 36.759674 43.010099 36.718478 43.030806 36.780272 43.132271 C 36.842066 43.231665 36.80087 43.252372 36.650504 43.196463 C 36.502198 43.138483 36.458942 43.15919 36.522796 43.260654 C 36.58459 43.362119 36.541334 43.382826 36.393028 43.324846 C 36.26944 43.279291 36.201467 43.291715 36.240603 43.353836 C 36.279739 43.418028 36.222065 43.502927 36.110835 43.546411 C 35.989307 43.591967 35.943991 43.569189 35.997546 43.48429 C 36.098476 43.318634 35.735951 43.500856 34.178739 44.399541 C 32.182788 45.550852 31.785246 45.983629 31.785246 47.016909 C 31.787306 47.917665 33.898605 56.173558 34.127244 56.173558 C 34.186978 56.173558 34.197277 56.26881 34.151961 56.388911 C 34.092227 56.546284 34.116945 56.575274 34.242593 56.496587 C 34.370301 56.417901 34.395018 56.44689 34.333224 56.604264 C 34.287908 56.722294 34.314686 56.819617 34.390899 56.819617 C 34.467111 56.819617 34.495949 56.910728 34.452693 57.020475 C 34.403257 57.150929 34.427975 57.188202 34.524786 57.128152 C 34.625716 57.066031 34.648374 57.107445 34.592759 57.250323 C 34.545384 57.374565 34.574221 57.465676 34.656613 57.465676 C 34.736946 57.465676 34.769903 57.500878 34.728706 57.542292 C 34.68751 57.583706 34.769903 57.732797 34.912029 57.875675 C 35.052096 58.016483 35.136548 58.219412 35.095352 58.325018 C 35.047976 58.447189 35.076813 58.482391 35.171564 58.422341 C 35.272495 58.36022 35.295153 58.399563 35.241598 58.540371 C 35.196282 58.65633 35.225119 58.790926 35.303392 58.840623 C 35.396083 58.898603 35.410502 58.869613 35.342528 58.759866 C 35.272495 58.643906 35.288973 58.621128 35.396083 58.689462 C 35.482595 58.7433 35.523791 58.865471 35.486715 58.962794 C 35.449638 59.060117 35.484655 59.180218 35.562927 59.227844 C 35.657678 59.287895 35.670037 59.256834 35.595884 59.136733 C 35.503193 58.981431 35.519671 58.97936 35.707114 59.132592 C 35.828642 59.231986 35.913094 59.387289 35.894556 59.48047 C 35.876018 59.573652 35.919273 59.65648 35.989307 59.664763 C 36.16851 59.68754 36.701999 60.201075 36.701999 60.350165 C 36.701999 60.418499 36.613428 60.401933 36.506318 60.312893 C 36.05934 59.940166 36.366251 60.306681 37.052166 60.963093 C 37.460007 61.352386 37.682466 61.538749 37.550639 61.379305 C 37.163395 60.915467 37.414691 61.037639 38.285989 61.741678 C 39.719613 62.89713 41.727922 63.969754 43.944272 64.760763 C 44.58899 64.990611 45.070985 65.2246 45.01537 65.278438 C 44.961815 65.334347 45.085403 65.336418 45.291384 65.28465 C 45.54062 65.220459 45.637431 65.234953 45.581816 65.326064 C 45.528261 65.413034 45.598295 65.435812 45.775438 65.390256 C 45.983478 65.334347 46.028794 65.359196 45.950521 65.485509 C 45.872249 65.613892 45.927863 65.634599 46.189458 65.568337 C 46.407798 65.512428 46.533446 65.535205 46.533446 65.626316 C 46.533446 65.711215 46.626137 65.738134 46.747666 65.690508 C 46.867134 65.644953 46.998962 65.661518 47.040158 65.727781 C 47.204942 65.994901 53.12482 66.783839 56.752136 67.024041 C 59.147688 67.183485 61.883109 67.185556 64.202448 67.032324 Z M 55.6522 66.690658 C 51.827143 66.440103 48.59943 65.920356 46.568463 65.228741 C 45.349058 64.814601 45.464407 64.822884 47.567468 65.305357 C 51.01764 66.094295 55.899377 66.560203 60.762575 66.562274 C 67.051158 66.566415 72.149174 65.864447 76.472704 64.396319 C 77.399616 64.081572 78.174102 63.84137 78.1947 63.860007 C 78.29975 63.965613 75.941274 64.907782 74.61888 65.288792 C 72.048244 66.028033 69.733023 66.377981 65.615474 66.645102 C 63.747232 66.767274 57.262967 66.796263 55.6522 66.690658 Z M 54.49665 65.027883 C 49.983618 64.431521 47.577767 63.799956 44.871184 62.507838 C 43.552909 61.878344 41.460147 60.584155 41.274765 60.281832 C 41.22327 60.199004 41.353038 60.252842 41.561078 60.399862 C 42.399418 60.990013 44.350053 62.006728 45.721883 62.567888 C 48.578832 63.737835 51.612924 64.406672 56.336055 64.907782 C 58.665694 65.154196 58.562704 65.16662 58.088949 64.6945 C 57.691407 64.294854 57.66051 64.288642 55.633662 64.112633 C 50.848736 63.700563 47.672518 62.820514 44.679622 61.076982 C 44.16879 60.778801 43.680617 60.534458 43.596165 60.532387 C 43.509653 60.530317 43.472576 60.476478 43.511713 60.412286 C 43.550849 60.348095 43.474636 60.312893 43.344869 60.33567 C 43.200682 60.360519 43.11829 60.308751 43.138888 60.209358 C 43.159486 60.112035 43.077094 60.058196 42.945266 60.078903 C 42.80726 60.103752 42.731047 60.047843 42.753705 59.940166 C 42.778422 59.830419 42.718688 59.791076 42.601279 59.836631 C 42.38294 59.919459 42.088388 59.629561 42.232574 59.472187 C 42.286129 59.414208 42.228455 59.401783 42.104866 59.445268 C 41.944202 59.503248 41.571377 59.231986 40.778352 58.482391 C 40.17277 57.908807 39.676357 57.378707 39.676357 57.308303 C 39.676357 57.233758 39.777287 57.252394 39.902935 57.347646 C 40.098617 57.494666 40.106856 57.492595 39.96061 57.331081 C 39.867919 57.227545 39.727852 57.142647 39.649579 57.142647 C 39.569247 57.142647 39.476556 57.061889 39.443599 56.962495 C 39.404463 56.844465 39.439479 56.817546 39.550709 56.885879 C 39.659878 56.954213 39.684596 56.937647 39.622802 56.838253 C 39.571307 56.753354 39.474496 56.720223 39.406522 56.761637 C 39.245858 56.861031 38.728847 55.699367 38.728847 55.241741 C 38.728847 55.049166 38.673232 54.924924 38.607318 54.966338 C 38.535225 55.009823 38.522866 54.922853 38.576421 54.750985 C 38.644395 54.537702 38.625857 54.485935 38.512567 54.556339 C 38.399278 54.626743 38.38074 54.572904 38.448713 54.361693 C 38.514627 54.150481 38.498149 54.096643 38.3828 54.167047 C 38.26951 54.23745 38.250972 54.185683 38.318946 53.974471 C 38.386919 53.757047 38.368381 53.709421 38.246852 53.783966 C 38.127384 53.858512 38.102666 53.808815 38.156221 53.605886 C 38.197417 53.452654 38.1727 53.326341 38.102666 53.326341 C 38.034693 53.326341 38.014095 53.210382 38.05941 53.067503 C 38.108846 52.914271 38.082068 52.808665 37.995556 52.808665 C 37.915224 52.808665 37.880207 52.76311 37.915224 52.70513 C 37.950241 52.647151 37.810174 51.934829 37.602134 51.121043 C 37.383794 50.263772 37.22313 49.292612 37.22107 48.81635 C 37.21901 48.035695 37.243728 47.967362 37.703064 47.509737 C 38.667053 46.553072 40.831907 46.04782 42.749585 46.333577 C 43.371646 46.426759 44.012245 46.501304 44.17291 46.499234 C 44.331515 46.499234 44.463342 46.548931 44.463342 46.611052 C 44.463342 46.671102 44.560153 46.683526 44.677562 46.640041 C 44.832047 46.579991 44.862944 46.60484 44.790851 46.720799 C 44.714639 46.845041 44.762014 46.863677 44.980353 46.795344 C 45.151317 46.739435 45.239889 46.751859 45.196633 46.824334 C 45.155437 46.890597 45.281085 46.944435 45.474706 46.944435 C 45.864009 46.944435 48.030924 47.930089 49.054646 48.572007 C 51.052657 49.826853 53.01771 51.680132 54.247414 53.473361 C 55.077515 54.684722 55.685157 55.730427 55.485356 55.608256 C 55.384426 55.544064 55.357648 55.579266 55.409143 55.711791 C 55.450339 55.823609 55.536851 55.881589 55.600705 55.842245 C 55.662499 55.802902 55.674858 55.871235 55.629542 55.993406 C 55.578047 56.128002 55.594526 56.183911 55.672798 56.134214 C 55.852001 56.024467 56.247484 56.892092 56.144493 57.161283 C 56.092998 57.297949 56.111537 57.347646 56.198048 57.295879 C 56.272201 57.248252 56.327816 57.283454 56.319577 57.370424 C 56.294859 57.639615 56.791272 59.018703 56.912801 59.018703 C 56.974595 59.018703 56.997252 59.06633 56.960176 59.124309 C 56.925159 59.182289 57.034329 59.772439 57.203233 60.437135 C 57.372137 61.09976 57.580177 62.174455 57.666689 62.820514 C 57.800576 63.845512 57.872669 64.052582 58.214597 64.417026 C 58.432936 64.646874 58.628618 64.816672 58.653335 64.791823 C 58.748086 64.698641 58.268152 61.702334 57.899447 60.074762 C 57.683167 59.12638 57.536921 58.318806 57.573998 58.283604 C 57.668749 58.188352 58.249614 60.182438 58.484431 61.412436 C 58.735727 62.725262 58.952007 64.34041 58.952007 64.913995 L 58.952007 65.357125 L 57.882968 65.346771 C 57.295924 65.338489 55.771669 65.19561 54.49665 65.027883 Z M 57.526622 63.837229 C 57.524562 63.466573 57.073465 61.07077 56.81393 60.056126 C 55.291734 54.08836 51.380166 49.677763 45.575637 47.381353 C 45.01331 47.157717 44.16879 46.886455 43.699155 46.776708 C 41.550779 46.275598 38.862734 46.758072 37.865789 47.826554 C 37.589775 48.122665 37.544459 48.290392 37.552698 48.971653 C 37.569177 50.187156 38.786521 54.76548 39.449778 56.107295 C 40.871043 58.981431 46.012315 62.097839 51.083554 63.155968 C 53.155717 63.588745 57.528682 64.050511 57.526622 63.837229 Z M 42.005996 59.36244 C 42.005996 59.337592 41.874168 59.207137 41.713503 59.070471 L 41.423071 58.824057 L 41.670248 59.116026 C 41.900946 59.389359 42.005996 59.465975 42.005996 59.36244 Z M 40.840146 58.306382 C 40.527056 57.987493 40.240743 57.724514 40.205727 57.724514 C 40.16865 57.724514 40.397288 57.987493 40.712438 58.306382 C 41.025529 58.627341 41.311842 58.89032 41.346858 58.89032 C 41.383935 58.89032 41.155296 58.627341 40.840146 58.306382 Z M 54.294789 53.665936 C 54.294789 53.639017 54.191799 53.537553 54.068211 53.44023 C 53.86223 53.278715 53.85811 53.282856 54.018775 53.487856 C 54.187679 53.70528 54.294789 53.773613 54.294789 53.665936 Z M 53.905486 53.148261 C 53.905486 53.121342 53.804556 53.019877 53.678908 52.922554 C 53.474987 52.761039 53.470867 52.767251 53.631532 52.972251 C 53.800436 53.187604 53.905486 53.255937 53.905486 53.148261 Z M 53.388475 52.512555 C 53.388475 52.489777 53.170136 52.272353 52.904421 52.02594 L 52.418307 51.580739 L 52.863225 52.065283 C 53.279305 52.516696 53.388475 52.609878 53.388475 52.512555 Z M 52.224686 51.346749 C 52.224686 51.326042 52.006346 51.106548 51.738572 50.862205 L 51.254518 50.417004 L 51.699435 50.901548 C 52.115516 51.352961 52.224686 51.446143 52.224686 51.346749 Z M 50.931128 50.172661 C 50.931128 50.147812 50.828138 50.044277 50.70455 49.946954 C 50.498569 49.785439 50.49445 49.791651 50.655115 49.996651 C 50.824019 50.212004 50.931128 50.280337 50.931128 50.172661 Z M 62.138524 65.257731 C 62.045833 65.108641 62.280651 63.147685 62.579323 61.559456 C 62.842978 60.163802 63.44856 58.039261 63.55155 58.142796 C 63.582447 58.173857 63.432082 58.960724 63.217862 59.894611 C 62.81414 61.648496 62.445435 63.847583 62.445435 64.503995 C 62.443375 64.878793 62.445435 64.878793 62.71527 64.63445 C 63.13341 64.255511 63.306434 63.818593 63.403244 62.899201 C 63.45268 62.437434 63.605105 61.573951 63.745172 60.979659 C 63.883179 60.385367 63.963511 59.846985 63.924375 59.782793 C 63.883179 59.718601 63.920255 59.664763 64.002647 59.664763 C 64.08504 59.664763 64.120056 59.581935 64.08092 59.48047 C 64.041784 59.376935 64.070621 59.2734 64.144774 59.250622 C 64.218927 59.225774 64.2869 59.047693 64.299259 58.853047 C 64.309558 58.660472 64.369293 58.501028 64.431087 58.501028 C 64.490821 58.501028 64.5073 58.414058 64.466103 58.306382 C 64.424907 58.200776 64.455804 58.113806 64.532017 58.113806 C 64.60823 58.113806 64.637067 58.026837 64.595871 57.91916 C 64.554675 57.813554 64.575273 57.724514 64.643247 57.724514 C 64.70916 57.724514 64.727699 57.629262 64.682383 57.509161 C 64.620589 57.351788 64.645306 57.322798 64.773014 57.401484 C 64.900722 57.480171 64.92338 57.451181 64.859526 57.287596 C 64.801852 57.136434 64.824509 57.09502 64.92544 57.157141 C 65.02637 57.219263 65.046968 57.177849 64.989294 57.028758 C 64.876005 56.732647 65.889428 54.705429 66.089229 54.829671 C 66.177801 54.88351 66.198399 54.860732 66.144844 54.771692 C 66.031555 54.591541 66.29521 54.069723 66.451755 54.167047 C 66.513549 54.204319 66.6083 54.169117 66.659795 54.086289 C 66.721589 53.984825 66.696872 53.968259 66.585642 54.036592 C 66.476473 54.104925 66.439396 54.080077 66.480592 53.959976 C 66.513549 53.860582 66.602121 53.779825 66.680393 53.779825 C 66.756606 53.779825 66.867835 53.725987 66.92757 53.661795 C 66.991424 53.593462 66.968766 53.583108 66.874015 53.636947 C 66.785443 53.688714 66.71335 53.67629 66.71335 53.610027 C 66.71335 53.46922 67.112952 53.110988 67.195344 53.17518 C 67.226241 53.200028 67.290095 53.17518 67.337471 53.123412 C 67.384846 53.069574 67.35189 53.069574 67.261258 53.119271 C 67.172687 53.171038 67.100593 53.158614 67.100593 53.092352 C 67.100593 52.937049 67.428102 52.661646 67.512554 52.746544 C 67.547571 52.781746 67.687638 52.680282 67.823585 52.518767 L 68.070761 52.226798 L 67.780329 52.473212 C 67.619664 52.609878 67.487837 52.665787 67.487837 52.597454 C 67.487837 52.429727 68.458005 51.493769 68.542456 51.578668 C 68.581593 51.615941 68.721659 51.516547 68.857607 51.355032 L 69.104783 51.063063 L 68.795812 51.321901 C 68.624849 51.464779 68.5095 51.512405 68.536277 51.429577 C 68.682523 50.99473 71.203724 49.039986 72.791833 48.126806 C 73.741403 47.582211 75.898018 46.702163 76.099879 46.780849 C 76.200809 46.818122 76.285261 46.797415 76.285261 46.729082 C 76.285261 46.662819 76.371773 46.642112 76.478883 46.683526 C 76.585993 46.72494 76.672505 46.69595 76.672505 46.621405 C 76.672505 46.548931 76.775495 46.490951 76.899083 46.495092 C 77.024731 46.499234 77.56234 46.4309 78.09583 46.34186 C 80.388392 45.964992 83.241221 46.784991 83.733514 47.963221 C 84.009528 48.621704 83.962153 49.207713 83.478099 51.129325 C 83.235042 52.088061 83.064078 52.918413 83.097035 52.972251 C 83.129992 53.024019 83.090855 53.067503 83.010523 53.067503 C 82.924011 53.067503 82.897234 53.173109 82.946669 53.326341 C 82.991985 53.46922 82.971387 53.585179 82.903413 53.585179 C 82.83338 53.585179 82.810722 53.711492 82.849858 53.864724 C 82.897234 54.042804 82.872516 54.113208 82.786004 54.05937 C 82.697433 54.003461 82.674775 54.073865 82.720091 54.251945 C 82.773645 54.456945 82.748928 54.504571 82.629459 54.430026 C 82.507931 54.35548 82.489392 54.403107 82.559426 54.62053 C 82.6171 54.804823 82.602682 54.881439 82.52029 54.831742 C 82.386402 54.748914 82.052714 55.515074 82.170123 55.633104 C 82.205139 55.670377 82.236037 55.62068 82.236037 55.525428 C 82.236037 55.432246 82.266934 55.38462 82.30607 55.423963 C 82.421419 55.539923 81.733444 56.97492 81.599557 56.892092 C 81.533643 56.850677 81.434773 56.883809 81.383277 56.966637 C 81.325603 57.061889 81.346201 57.084667 81.438892 57.026687 C 81.521284 56.97492 81.589258 56.989415 81.589258 57.055677 C 81.589258 57.21098 81.261749 57.484313 81.177297 57.399414 C 81.14228 57.364212 81.002214 57.467747 80.866267 57.627191 L 80.61909 57.91916 L 80.909522 57.672747 C 81.455371 57.21098 81.202015 57.668605 80.586133 58.258755 C 79.648922 59.15744 78.825 59.766227 78.641678 59.699965 C 78.551046 59.668904 78.491312 59.720672 78.51191 59.815924 C 78.534568 59.919459 78.456295 59.973297 78.320348 59.95052 C 78.1947 59.929813 78.108188 59.97951 78.126727 60.062338 C 78.145265 60.145166 78.056693 60.230065 77.931045 60.252842 C 77.803337 60.273549 77.424333 60.466125 77.088585 60.681478 C 76.132836 61.296477 73.619874 62.460212 72.338676 62.884706 C 70.447776 63.510058 68.637207 63.831017 65.388896 64.118845 C 63.646301 64.274147 63.44444 64.317632 63.020121 64.640662 C 62.764705 64.835308 62.583442 65.023742 62.618459 65.056873 C 62.70909 65.147984 65.283846 64.878793 67.844183 64.510207 C 72.276882 63.874502 76.077221 62.588595 78.93623 60.760165 C 79.904338 60.141024 79.836364 60.294256 78.820881 61.019002 C 77.014432 62.30905 73.601336 63.733694 70.942129 64.31142 C 67.761791 64.998893 62.340385 65.582832 62.138524 65.257731 Z M 67.55375 63.536977 C 70.872095 63.124907 73.183196 62.416727 76.027786 60.948598 C 77.788919 60.037489 79.422344 58.848906 80.507861 57.689312 C 81.642813 56.47588 82.001219 55.628963 82.963148 51.903768 C 83.828265 48.553371 83.768531 47.957009 82.493512 47.310949 C 80.886865 46.497163 78.83118 46.348072 76.93204 46.905091 C 71.255219 48.572007 66.966706 52.529121 64.917201 57.993705 C 64.385771 59.410066 63.813145 61.756173 63.66278 63.13319 L 63.572148 63.949047 L 64.593811 63.864148 C 65.154078 63.816522 66.486772 63.671573 67.55375 63.536977 Z M 79.018622 59.439056 C 79.179287 59.234057 79.175167 59.229915 78.969187 59.39143 C 78.845598 59.488753 78.742608 59.590217 78.742608 59.617137 C 78.742608 59.722742 78.849718 59.654409 79.018622 59.439056 Z M 79.721015 58.857189 L 80.102079 58.436836 L 79.679819 58.815775 C 79.449121 59.024916 79.259619 59.21542 79.259619 59.236127 C 79.259619 59.337592 79.366729 59.248551 79.721015 58.857189 Z M 69.963722 50.383872 C 70.124386 50.178873 70.120267 50.174731 69.914286 50.336246 C 69.788638 50.433569 69.687708 50.535034 69.687708 50.561953 C 69.687708 50.667559 69.794818 50.599225 69.963722 50.383872 Z M 36.951235 60.733245 L 36.636085 60.377085 L 36.992432 60.689761 C 37.32406 60.9838 37.408512 61.089406 37.305522 61.089406 C 37.282864 61.089406 37.122199 60.927891 36.951235 60.733245 Z M 37.258146 60.018853 C 36.613428 59.337592 35.929572 58.374715 35.591765 57.672747 C 35.262196 56.983202 35.307512 57.037041 36.06552 58.225624 C 36.320935 58.627341 36.809109 59.263046 37.151037 59.637844 C 37.818413 60.375014 37.913164 60.712538 37.258146 60.018853 Z M 55.841702 54.587399 C 54.842697 52.893564 53.746881 51.470991 52.426546 50.158166 C 51.709734 49.445844 51.386345 49.066905 51.707675 49.31746 C 53.559439 50.756599 55.705755 53.46922 56.366952 55.210681 C 56.570873 55.749064 56.416388 55.5627 55.841702 54.587399 Z M 64.643247 55.328711 C 64.643247 55.291438 64.812151 54.926994 65.018131 54.519066 C 65.825574 52.932908 67.508435 50.866346 68.960597 49.675692 C 69.432292 49.290541 69.265448 49.505894 68.387971 50.421145 C 67.117072 51.744324 66.171622 52.990887 65.273547 54.523207 C 64.810091 55.312145 64.643247 55.525428 64.643247 55.328711 Z M 33.494884 51.506193 C 32.984052 49.760591 32.561792 47.836908 32.561792 47.246757 C 32.563852 46.149285 33.119999 45.612973 35.482595 44.428531 C 36.68964 43.823886 38.329245 43.107422 38.502268 43.109493 C 38.543464 43.109493 37.674227 43.591967 36.572231 44.184188 C 34.127244 45.494943 33.577276 45.838679 33.233288 46.275598 C 32.767773 46.867819 32.778072 47.22605 33.342458 49.756449 C 33.900665 52.266141 33.978938 53.152402 33.494884 51.506193 Z M 56.200108 50.033924 C 54.546085 46.747718 52.550135 43.857017 50.502689 41.780102 C 49.048467 40.305761 48.191588 40.129752 45.567398 40.767528 C 44.654904 40.991164 43.876298 41.142325 43.839222 41.105053 C 43.802145 41.06778 43.812444 41.03879 43.85982 41.03879 C 43.909255 41.03879 44.628127 40.83172 45.458228 40.581165 C 48.442885 39.676268 49.526342 39.999297 51.600565 42.413737 C 53.510004 44.637672 54.826219 46.613122 56.117716 49.187006 C 56.857186 50.663417 57.468948 52.135687 57.376257 52.228869 C 57.349479 52.253717 56.820109 51.268062 56.200108 50.033924 Z M 36.458942 51.622153 C 36.16233 50.708973 35.797745 48.969582 35.797745 48.470543 C 35.793625 47.201202 36.953295 46.068527 38.90805 45.42868 C 39.736091 45.157418 40.115095 45.111863 41.616693 45.111863 C 43.229519 45.111863 43.462277 45.144994 44.656964 45.530145 C 45.668328 45.855245 48.376971 47.041758 47.567468 46.803627 C 47.460358 46.772566 46.675572 46.515799 45.820753 46.232113 C 42.335564 45.072519 40.510578 45.037317 38.267451 46.087164 C 36.147912 47.079031 35.917214 47.588423 36.390969 50.238923 C 36.69582 51.955536 36.718478 52.425585 36.458942 51.622153 Z M 87.36289 51.64493 C 87.404086 51.396446 87.608007 50.421145 87.811927 49.478975 C 88.475184 46.441254 88.452526 46.391557 85.599697 44.753631 C 83.406005 43.496714 83.434843 43.386967 85.663551 44.501005 C 87.614186 45.474236 88.110599 45.836609 88.363955 46.468173 C 88.654387 47.19499 88.639969 47.352363 88.071463 49.615642 C 87.587409 51.535183 87.183687 52.696847 87.36289 51.64493 Z M 84.437967 51.746395 C 84.435908 51.624223 84.551257 50.926396 84.693383 50.195438 C 85.020892 48.505745 85.014713 48.077109 84.658367 47.455898 C 84.0981 46.482668 81.997099 45.511508 80.104139 45.352064 C 78.901213 45.248529 77.655031 45.468024 75.512835 46.157568 C 74.555026 46.466102 73.747582 46.69388 73.718745 46.66489 C 73.634293 46.579991 75.0329 45.996053 76.390311 45.548781 C 78.584003 44.826106 81.04547 44.882015 82.839559 45.695801 C 84.685144 46.532365 85.25571 47.209485 85.237172 48.545088 C 85.222753 49.555591 84.454446 52.638868 84.437967 51.746395 Z M 64.060322 51.257709 C 64.223047 50.599225 65.951222 47.267464 66.812221 45.954639 C 68.585712 43.244089 70.596082 40.987023 71.722795 40.434145 C 72.909242 39.856419 74.264593 40.005509 77.366659 41.061568 C 79.753972 41.873283 80.09178 42.12798 77.935165 41.488133 C 72.767115 39.957883 72.227447 40.00758 70.151164 42.214949 C 68.289101 44.196612 66.61242 46.650395 64.775074 50.093974 C 64.338396 50.911902 64.017066 51.435789 64.060322 51.257709 Z M 69.687708 49.13938 C 69.687708 49.112461 69.788638 49.010996 69.914286 48.911603 C 70.120267 48.752158 70.124386 48.7563 69.963722 48.961299 C 69.794818 49.176653 69.687708 49.244986 69.687708 49.13938 Z M 50.784882 48.702462 C 50.624217 48.497462 50.628337 48.493321 50.834318 48.652765 C 51.048537 48.822562 51.118571 48.928168 51.011461 48.928168 C 50.984683 48.928168 50.881693 48.826704 50.784882 48.702462 Z M 57.333001 44.436814 C 56.60589 42.374394 55.073395 38.94738 54.60582 38.340664 C 54.585221 38.315816 54.362763 38.365513 54.107347 38.448341 C 53.853991 38.53324 53.573857 38.574654 53.485286 38.543593 C 53.396714 38.512533 53.615054 38.394503 53.9714 38.280614 C 54.325686 38.166725 55.112531 37.872685 55.716054 37.624201 C 56.321637 37.377787 57.048748 37.141727 57.33506 37.100313 C 57.767619 37.038192 57.716124 37.075465 57.011671 37.336373 C 56.548215 37.506171 55.891137 37.76708 55.55127 37.91617 L 54.935388 38.185362 L 55.374127 39.061269 C 56.319577 40.941467 58.053932 45.600549 57.876789 45.778629 C 57.847952 45.807619 57.602835 45.202974 57.333001 44.436814 Z M 63.226101 45.673023 C 63.207563 45.029035 64.915141 40.510761 65.784378 38.903895 L 66.169562 38.193644 L 65.631953 37.955514 C 65.337401 37.825059 64.810091 37.609706 64.459924 37.477181 C 64.111817 37.344656 63.887298 37.214202 63.963511 37.189353 C 64.037664 37.164505 64.876005 37.44405 65.825574 37.810564 C 68.013087 38.65334 68.534217 38.926673 67.172687 38.512533 C 66.82046 38.406927 66.492951 38.363442 66.443516 38.41728 C 66.29727 38.574654 65.088164 41.024295 64.700921 41.943687 C 64.5073 42.405454 64.097398 43.48222 63.790488 44.33742 C 63.483577 45.190549 63.230221 45.791053 63.226101 45.673023 Z M 84.176372 60.89476 C 84.417369 60.646276 84.586273 60.441276 84.549197 60.441276 C 84.51418 60.441276 84.287602 60.646276 84.046605 60.89476 C 83.805608 61.143245 83.636704 61.348244 83.67172 61.348244 C 83.708797 61.348244 83.935375 61.143245 84.176372 60.89476 Z M 59.815065 59.124309 C 59.773869 59.020774 59.742972 59.051835 59.736792 59.202996 C 59.732673 59.337592 59.76151 59.414208 59.804766 59.372794 C 59.848022 59.329309 59.852141 59.217491 59.815065 59.124309 Z M 61.366098 58.211129 C 61.329021 58.122089 61.300184 58.194564 61.300184 58.372644 C 61.300184 58.550725 61.329021 58.623199 61.366098 58.534159 C 61.401114 58.445119 61.401114 58.300169 61.366098 58.211129 Z M 59.155928 56.335072 C 59.005562 56.185982 58.929349 56.417901 59.032339 56.714011 L 59.13533 57.014263 L 59.182705 56.71194 C 59.209482 56.546284 59.197124 56.376487 59.155928 56.335072 Z M 62.661715 53.044726 C 62.620519 52.94119 62.589622 52.972251 62.583442 53.121342 C 62.577263 53.258008 62.60816 53.334624 62.651416 53.291139 C 62.694672 53.249725 62.698791 53.137907 62.661715 53.044726 Z M 62.661715 53.044726 " transform="matrix(1.896418,0,0,1.886437,-19.883577,-25.393644)"/>
</g>
</svg>
