<?xml version="1.0" encoding="UTF-8"?>
<svg xmlns="http://www.w3.org/2000/svg" xmlns:xlink="http://www.w3.org/1999/xlink" width="px" height="0px" viewBox="0 0 190 189" version="1.1">
<g id="surface1">
<path style="fill:none;stroke-width:0.264583;stroke-linecap:butt;stroke-linejoin:miter;stroke:rgb(99.607843%,0%,0%);stroke-opacity:1;stroke-miterlimit:4;" d="M 110.618082 63.592886 C 110.618082 91.20778 88.232127 113.594149 60.616329 113.594149 C 33.00259 113.594149 10.616635 91.20778 10.616635 63.592886 C 10.616635 35.980063 33.00259 13.593694 60.616329 13.593694 C 88.232127 13.593694 110.618082 35.980063 110.618082 63.592886 Z M 110.618082 63.592886 " transform="matrix(1.896418,0,0,1.886437,-19.883577,-25.393644)"/>
<path style="fill:none;stroke-width:0.264583;stroke-linecap:butt;stroke-linejoin:miter;stroke:rgb(99.607843%,0%,0%);stroke-opacity:1;stroke-miterlimit:4;" d="M 65.895608 26.262254 C 65.895608 29.024572 63.65866 31.263002 60.896462 31.263002 C 58.134265 31.263002 55.897317 29.024572 55.897317 26.262254 C 55.897317 23.499937 58.134265 21.261507 60.896462 21.261507 C 63.65866 21.261507 65.895608 23.499937 65.895608 26.262254 Z M 65.895608 26.262254 " transform="matrix(1.896418,0,0,1.886437,-19.883577,-25.393644)"/>
<path style="fill:none;stroke-width:0.199078;stroke-linecap:butt;stroke-linejoin:miter;stroke:rgb(0%,0%,100%);stroke-opacity:1;stroke-miterlimit:4;" d="M 52.657244 92.646918 C 49.538701 92.541313 40.230444 91.967728 36.883262 91.675759 L 33.85123 91.412779 L 32.106575 90.371216 C 27.575006 87.664807 23.962109 84.861076 20.88888 81.672193 C 17.922762 78.593058 16.132792 75.743771 15.09877 72.453424 C 14.699168 71.182012 14.633254 70.554589 14.633254 68.08217 C 14.633254 65.611821 14.701228 64.982328 15.09877 63.712987 C 16.841365 58.165574 21.539779 52.802453 29.027168 47.809989 C 33.760598 44.654237 33.340398 44.826106 37.157216 44.496864 C 52.311197 43.184038 67.735013 43.184038 82.888995 44.496864 C 86.180562 44.78055 86.267074 44.799187 87.46794 45.521862 C 95.525895 50.367307 100.980257 55.436387 103.606508 60.517892 C 105.093687 63.39824 105.412956 64.733843 105.412956 68.08217 C 105.412956 70.554589 105.347043 71.182012 104.945381 72.455494 C 103.899 75.793468 102.144047 78.586846 99.15939 81.676334 C 96.073803 84.869358 92.458846 87.671019 87.939635 90.371216 L 86.194981 91.412779 L 83.062018 91.681971 C 74.033895 92.460555 60.093139 92.901615 52.657244 92.646918 Z M 53.308143 92.027778 C 53.009471 91.982223 52.471862 91.982223 52.113456 92.025708 C 51.75505 92.069192 52.000167 92.106465 52.657244 92.108536 C 53.314322 92.108536 53.606814 92.073334 53.308143 92.027778 Z M 67.835944 92.027778 C 67.535212 91.982223 67.042919 91.982223 66.742187 92.027778 C 66.441456 92.073334 66.686573 92.110606 67.290095 92.110606 C 67.891558 92.110606 68.138735 92.073334 67.835944 92.027778 Z M 48.228665 91.831061 C 47.981488 91.783435 47.577767 91.783435 47.33265 91.831061 C 47.085473 91.878688 47.287334 91.918031 47.779628 91.918031 C 48.271921 91.918031 48.473782 91.878688 48.228665 91.831061 Z M 72.61675 91.835203 C 72.427248 91.785506 72.068842 91.783435 71.821665 91.831061 C 71.572429 91.878688 71.728974 91.920102 72.167712 91.922172 C 72.604391 91.924243 72.808312 91.8849 72.61675 91.835203 Z M 44.743476 91.634345 C 44.551914 91.584648 44.238824 91.584648 44.047262 91.634345 C 43.8557 91.686112 44.012245 91.725456 44.395369 91.725456 C 44.778492 91.725456 44.935038 91.686112 44.743476 91.634345 Z M 65.994478 91.597072 C 66.447635 91.510103 62.999523 91.394143 58.031274 91.329951 C 53.215452 91.26576 47.046337 91.064901 44.323276 90.88475 C 39.904995 90.59071 38.951306 90.584498 39.235559 90.85576 C 39.340609 90.955154 45.934043 91.356871 50.766344 91.557729 C 55.695456 91.762728 65.003712 91.787577 65.994478 91.597072 Z M 75.998949 91.634345 C 75.807387 91.584648 75.494297 91.584648 75.302735 91.634345 C 75.111173 91.686112 75.267718 91.725456 75.650842 91.725456 C 76.033965 91.725456 76.19051 91.686112 75.998949 91.634345 Z M 41.662008 91.44384 C 41.526061 91.387931 41.258287 91.38586 41.064665 91.435557 C 40.871043 91.485254 40.980213 91.53081 41.309782 91.534951 C 41.637291 91.537022 41.795896 91.497678 41.662008 91.441769 Z M 71.170767 91.38586 C 71.778409 91.259547 71.448841 91.220204 69.778339 91.218133 C 68.40445 91.216063 67.774149 91.274042 68.08518 91.373436 C 68.744317 91.584648 70.182061 91.59086 71.170767 91.38586 Z M 78.884735 91.441769 C 78.748788 91.38586 78.524269 91.38586 78.388322 91.441769 C 78.250315 91.497678 78.363604 91.541163 78.637558 91.541163 C 78.911512 91.541163 79.022742 91.497678 78.884735 91.441769 Z M 39.070774 91.242982 C 38.932767 91.187073 38.708249 91.187073 38.572302 91.242982 C 38.436355 91.29682 38.547584 91.342376 38.821538 91.342376 C 39.095492 91.342376 39.206721 91.29682 39.070774 91.242982 Z M 74.555026 91.174649 C 74.336686 91.081467 73.66519 91.008992 73.061667 91.013134 C 72.159473 91.021417 72.072961 91.050406 72.565255 91.174649 C 73.434492 91.396214 75.069977 91.396214 74.555026 91.174649 Z M 81.473909 91.242982 C 81.335902 91.187073 81.113443 91.187073 80.975436 91.242982 C 80.839489 91.29682 80.950719 91.342376 81.224673 91.342376 C 81.498627 91.342376 81.609856 91.29682 81.473909 91.242982 Z M 36.681401 91.044194 C 36.543394 90.988285 36.320935 90.988285 36.182928 91.044194 C 36.046981 91.098033 36.158211 91.143588 36.432165 91.143588 C 36.706119 91.143588 36.817348 91.098033 36.681401 91.044194 Z M 77.640613 90.980003 C 77.368719 90.890962 76.740478 90.820558 76.248185 90.8247 L 75.35217 90.832983 L 76.149314 90.955154 C 76.585993 91.023487 77.214233 91.093891 77.541742 91.110457 C 78.114368 91.141517 78.118487 91.135305 77.640613 90.980003 Z M 83.863282 91.044194 C 83.725275 90.988285 83.502816 90.988285 83.364809 91.044194 C 83.228862 91.098033 83.340092 91.143588 83.614046 91.143588 C 83.888 91.143588 83.999229 91.098033 83.863282 91.044194 Z M 34.58658 90.85576 C 34.520666 90.789498 34.349702 90.783286 34.205516 90.839195 C 34.046911 90.903387 34.094287 90.951013 34.324985 90.961366 C 34.535085 90.969649 34.652494 90.922023 34.58658 90.85576 Z M 72.037945 90.652832 C 73.24911 90.572074 73.805257 90.464398 73.630173 90.348438 C 73.45509 90.230408 73.551901 90.211772 73.908247 90.2946 C 74.208979 90.365004 75.685858 90.309095 77.193635 90.170358 C 80.132976 89.901166 80.036165 89.903237 81.523344 90.064752 C 82.291651 90.14758 82.40494 90.128944 82.021817 89.979853 C 81.517165 89.785207 82.979626 89.85354 84.608931 90.099954 C 85.202155 90.188994 85.603817 90.027479 87.296976 89.021118 C 91.420705 86.569405 96.061444 82.949817 98.745369 80.092247 C 100.069824 78.684169 100.407631 78.454321 99.561052 79.539369 C 99.383909 79.763005 99.536334 79.649116 99.8968 79.284673 C 100.257266 78.918158 100.490024 78.520583 100.413811 78.398412 C 100.329359 78.261745 100.364376 78.228614 100.502382 78.313513 C 100.644509 78.400483 101.112085 77.868312 101.742385 76.903364 C 102.959729 75.037661 103.05654 74.929984 102.656938 75.894932 C 102.158465 77.09594 102.465376 76.756344 103.192487 75.29857 C 104.403652 72.875847 105.151361 69.93959 105.081328 67.883382 C 105.05455 67.07995 105.042191 67.059243 104.968039 67.684595 C 104.922723 68.067675 104.805314 68.463179 104.706443 68.564644 C 104.607573 68.666108 103.99993 68.728229 103.357271 68.70131 L 102.187303 68.653684 L 102.063714 69.840197 C 101.843315 71.948172 99.847365 76.605183 99.029622 76.917859 C 98.854539 76.986192 98.024438 77.044172 97.184037 77.046243 L 95.657722 77.052455 L 94.761707 78.383917 C 93.126223 80.812851 87.721296 86.024811 87.181627 85.691427 C 87.080697 85.629306 86.998304 85.672791 86.998304 85.78875 C 86.998304 85.90471 86.903553 85.997891 86.788204 85.997891 C 86.672855 85.997891 85.486408 86.72885 84.149595 87.619252 C 81.702547 89.253036 80.248325 90.035762 80.542877 89.5595 C 80.645867 89.389703 80.590253 89.354501 80.361614 89.443541 C 79.679819 89.70445 80.075302 89.383491 81.572779 88.462028 C 82.421419 87.93814 83.385407 87.319 83.712916 87.08294 C 84.51624 86.507284 84.808732 86.349911 84.808732 86.492789 C 84.808732 86.556981 83.844744 87.234101 82.668595 87.99612 C 81.490387 88.758138 80.604671 89.38142 80.697363 89.38142 C 81.022812 89.385561 85.193916 86.559052 85.15066 86.364406 C 85.125942 86.2588 85.416375 85.929558 85.793319 85.635518 C 86.170263 85.343549 86.41126 85.215166 86.328868 85.351832 C 86.038436 85.834306 86.510131 85.579609 87.395847 84.778247 L 88.291862 83.966532 L 87.445282 84.600167 C 86.246476 85.500923 86.396842 85.252438 87.743954 84.105269 C 88.374254 83.571028 88.718241 83.328755 88.510201 83.571028 C 88.302161 83.811229 88.215649 84.007946 88.318639 84.007946 C 88.534919 84.007946 90.541168 82.01593 90.62562 81.717749 C 90.656517 81.610072 90.740969 81.539668 90.815122 81.564517 C 91.039641 81.639062 92.979977 79.408915 93.927487 77.986342 L 94.821442 76.642456 L 96.533139 76.638314 C 97.713407 76.636244 98.152146 76.576193 97.948225 76.443668 C 97.721646 76.296648 97.804039 76.249022 98.296332 76.246951 C 98.652678 76.244881 98.94311 76.149628 98.94311 76.033669 C 98.94311 75.91771 99.046101 75.886649 99.171749 75.965336 C 99.315935 76.052305 99.348892 76.019174 99.26032 75.876296 C 99.093476 75.607104 99.610487 74.787106 99.816468 74.994176 C 99.89474 75.072863 99.89474 74.969328 99.814408 74.762258 C 99.715537 74.50342 99.742315 74.430945 99.902979 74.530339 C 100.057465 74.625591 100.090422 74.561399 100.00185 74.331551 C 99.913278 74.099633 99.946235 74.035441 100.100721 74.130693 C 100.251086 74.223875 100.290223 74.167966 100.21401 73.965037 C 100.148096 73.795239 100.199591 73.656502 100.327299 73.656502 C 100.455007 73.656502 100.502382 73.567462 100.436469 73.457715 C 100.368495 73.347967 100.405572 73.258927 100.516801 73.258927 C 100.63009 73.258927 100.665107 73.109837 100.595074 72.927615 C 100.502382 72.685343 100.539459 72.639787 100.73514 72.759888 C 100.928762 72.879989 100.965838 72.836504 100.873147 72.594232 C 100.803114 72.41201 100.817533 72.262919 100.901985 72.262919 C 101.075008 72.262919 101.470491 70.798932 101.629096 69.575147 C 101.68471 69.136158 101.651753 68.285099 101.557002 67.684595 L 101.381919 66.589193 L 101.353082 67.982776 C 101.313945 69.989287 100.858729 71.685193 99.742315 73.977461 L 98.761848 75.992255 L 97.608357 76.112356 C 96.973937 76.180689 93.717387 76.294578 90.372264 76.369123 C 84.62129 76.495436 84.289662 76.522355 84.262884 76.874374 C 84.244346 77.112505 84.320559 77.197404 84.470924 77.110435 C 84.602752 77.033819 84.538898 77.164273 84.332917 77.400333 C 84.126937 77.634322 83.875641 77.77513 83.772651 77.713009 C 83.66966 77.648817 83.616106 77.729575 83.649062 77.89109 C 83.799428 78.584775 80.635568 81.570729 77.869251 83.351533 C 76.229647 84.407592 73.041069 85.867437 70.872095 86.55284 C 63.605105 88.857532 55.240239 88.722936 48.078299 86.188396 C 44.91444 85.070217 41.077024 82.956029 41.077024 82.334818 C 41.077024 82.154667 41.173835 82.038707 41.293303 82.078051 C 41.410712 82.117394 41.507523 82.247848 41.507523 82.365879 C 41.507523 82.483909 41.589915 82.655777 41.688786 82.746888 C 41.795896 82.846282 41.806195 82.800726 41.711444 82.639211 C 41.602274 82.448707 41.63935 82.394868 41.828852 82.465272 C 41.981278 82.519111 42.084268 82.66406 42.057491 82.78209 C 42.030713 82.902191 42.209916 83.098907 42.457093 83.216937 C 42.885532 83.424008 42.887592 83.421937 42.514767 83.123756 C 42.049252 82.748959 42.360282 82.715827 42.848456 83.088554 C 43.040017 83.233503 43.143008 83.40123 43.081214 83.463351 C 42.897891 83.647644 43.783607 84.041077 44.032843 83.887845 C 44.160551 83.807088 44.203807 83.836078 44.129654 83.954108 C 44.055501 84.076279 44.79909 84.486278 45.940222 84.956328 C 51.396644 87.194758 55.505954 87.931928 61.415533 87.728999 C 68.628968 87.482585 75.014362 85.318701 80.184471 81.36987 C 80.761217 80.928811 81.189656 80.522953 81.136101 80.469115 C 81.080486 80.413206 81.488328 79.874823 82.038295 79.272248 C 83.445142 77.731645 84.089861 76.853667 83.929196 76.692153 C 83.852983 76.617607 83.558431 76.866092 83.274178 77.24503 C 82.252515 78.611694 79.294636 81.357446 77.737424 82.386586 C 72.19037 86.049659 64.682383 87.832534 57.322702 87.234101 C 48.525277 86.517638 41.579616 83.152746 36.889441 77.332 C 36.442464 76.777051 36.250902 76.646597 36.242663 76.89094 C 36.238543 77.081445 37.278744 78.290735 38.557883 79.576642 C 40.599149 81.630779 41.239748 82.415575 40.873103 82.415575 C 40.689781 82.415575 38.347783 80.48361 37.653629 79.763005 C 37.284924 79.379925 37.039807 78.976138 37.107781 78.866391 C 37.175754 78.756643 36.848245 78.338361 36.382729 77.934574 C 35.917214 77.532858 35.63914 77.255384 35.766848 77.319576 C 35.939872 77.408616 35.941931 77.321646 35.775087 76.969627 L 35.552628 76.499577 L 29.573016 76.364982 C 26.283508 76.290436 23.078452 76.178618 22.450212 76.112356 L 21.31114 75.994326 L 20.316255 73.979532 C 18.15346 69.602066 18.176118 66.669951 20.406886 62.209657 L 21.401772 60.21764 L 22.596458 60.194863 C 23.253536 60.182438 23.478055 60.205216 23.094931 60.248701 C 21.393532 60.437135 21.20403 60.635922 20.110274 63.363038 C 19.039176 66.038386 18.942365 68.962219 19.83632 71.623072 C 20.149411 72.563171 21.41619 75.228166 21.667486 75.482862 C 21.73958 75.557407 25.10942 75.706498 29.156935 75.814175 C 35.929572 75.996396 36.533095 76.039881 36.780272 76.377406 C 37.035687 76.725284 38.007915 76.74392 59.951012 76.799829 L 82.853978 76.85988 L 83.793249 75.845235 L 88.333058 75.822457 C 90.829541 75.807962 94.112869 75.7417 95.630945 75.671296 L 98.391083 75.547054 L 99.149091 74.066501 C 100.562117 71.306254 101.070889 68.920805 100.747499 66.582981 C 100.403512 64.114703 98.866898 60.588296 98.061514 60.420569 C 96.967758 60.188651 96.916263 60.153449 97.742244 60.184509 L 98.63208 60.21764 L 99.57547 62.008798 C 100.092481 62.994453 100.673346 64.375612 100.862848 65.079651 C 101.05441 65.781619 101.241852 66.259951 101.280989 66.141921 C 101.515806 65.442024 99.196466 60.21764 98.572346 60.037489 C 98.393143 59.985722 95.15513 59.902894 91.377449 59.855267 C 87.599767 59.805571 85.181557 59.828348 86.003419 59.904964 L 87.496777 60.045772 L 85.504946 60.116176 C 82.293711 60.230065 65.465109 60.120317 62.212677 59.962944 C 59.850082 59.849055 61.244569 59.799358 68.882324 59.71653 C 76.293501 59.637844 74.326387 59.610924 60.420648 59.5985 C 50.457373 59.590217 43.178024 59.641985 44.242943 59.71446 C 45.309922 59.789005 46.243013 59.909106 46.317166 59.983651 C 46.391319 60.058196 44.624007 60.130671 42.387059 60.145166 C 36.409507 60.184509 36.448643 60.184509 36.524856 60.30461 C 36.561932 60.366731 34.619537 60.391579 32.207506 60.360519 C 29.795475 60.327388 27.869558 60.254913 27.927232 60.194863 C 27.986966 60.136883 29.919063 60.093398 32.223984 60.101681 C 34.751364 60.107893 36.458942 60.037489 36.531035 59.919459 C 36.599009 59.809712 36.518677 59.776581 36.343593 59.842843 C 36.172629 59.909106 36.034623 59.857338 36.034623 59.728954 C 36.034623 59.600571 35.878077 59.53845 35.686516 59.594359 C 35.494954 59.650268 32.291958 59.751732 28.567831 59.822136 C 24.845765 59.89254 21.661307 59.987792 21.492403 60.033348 C 21.325559 60.080974 20.860043 60.722892 20.462501 61.462133 C 18.874392 64.406672 18.081367 68.071816 18.524225 70.419994 C 18.653992 71.105396 18.835255 71.664486 18.930006 71.664486 C 19.022697 71.664486 19.047415 71.799082 18.985621 71.962667 C 18.921767 72.128323 18.967083 72.262919 19.084492 72.262919 C 19.2019 72.262919 19.241037 72.41201 19.171003 72.594232 C 19.078312 72.836504 19.117448 72.879989 19.31107 72.759888 C 19.508811 72.637716 19.543828 72.685343 19.447017 72.935898 C 19.358446 73.167816 19.391402 73.232008 19.545888 73.136756 C 19.702433 73.039433 19.73539 73.103624 19.646818 73.335543 C 19.558247 73.563321 19.591204 73.629583 19.743629 73.536401 C 19.898114 73.439078 19.935191 73.530189 19.861038 73.815946 C 19.793064 74.076855 19.83838 74.221804 19.978447 74.196956 C 20.104095 74.172107 20.200906 74.350188 20.192666 74.59246 C 20.184427 74.832661 20.246221 74.985893 20.332733 74.934126 C 20.557252 74.795389 20.946555 75.615387 20.78383 75.880437 C 20.701438 76.012962 20.732335 76.052305 20.860043 75.973619 C 20.977452 75.899073 21.131937 75.930134 21.199911 76.041952 C 21.269944 76.151699 21.566556 76.253164 21.861108 76.263517 L 22.396657 76.284224 L 21.900244 76.443668 C 21.570676 76.549274 22.04649 76.609324 23.307091 76.621749 L 25.21447 76.642456 L 26.194937 78.085736 C 27.266035 79.663611 30.217735 82.862847 30.460792 82.713757 C 30.545244 82.661989 30.724447 82.7531 30.860394 82.914615 C 30.994281 83.0782 31.035477 83.210725 30.951025 83.210725 C 30.866573 83.210725 30.959264 83.390876 31.157006 83.610371 C 31.599864 84.099057 32.005645 84.142542 31.63282 83.660068 C 31.408302 83.370169 31.437139 83.374311 31.801724 83.686987 C 32.044781 83.891987 32.201326 84.125976 32.151891 84.206733 C 32.020064 84.422087 32.755414 85.028802 33.064384 84.96254 C 33.208571 84.929409 33.332159 85.030873 33.338338 85.186176 C 33.342458 85.341479 33.470166 85.509206 33.622591 85.560973 C 33.814153 85.623094 33.84917 85.567185 33.733821 85.376681 C 33.593754 85.146833 33.620532 85.144762 33.898605 85.370468 C 34.081928 85.517488 34.209636 85.730771 34.186978 85.844659 C 34.16226 85.956477 34.26731 86.093144 34.419736 86.149053 C 34.58864 86.211174 34.642195 86.161477 34.557743 86.024811 C 34.343523 85.679003 34.557743 85.75769 34.864654 86.136629 C 35.097411 86.424456 35.097411 86.449305 34.858474 86.304355 C 34.675152 86.194608 34.625716 86.211174 34.712228 86.354052 C 34.786381 86.472082 35.00266 86.563193 35.192162 86.55284 C 35.381664 86.544557 36.59283 87.215465 37.882267 88.045817 C 39.171705 88.876168 40.426126 89.594702 40.669183 89.642329 C 41.00699 89.70652 40.994632 89.716874 40.613568 89.681672 C 40.339614 89.658894 39.944131 89.565713 39.734031 89.476672 C 39.464197 89.362784 39.394164 89.383491 39.497154 89.549147 C 39.575426 89.67753 39.587785 89.781066 39.521871 89.781066 C 39.235559 89.781066 37.676287 88.878239 35.970769 87.720716 C 34.955285 87.033243 34.013954 86.507284 33.878007 86.550769 C 33.74412 86.596325 33.657608 86.517638 33.688505 86.37683 C 33.719402 86.238093 33.569037 86.084861 33.354817 86.037235 C 31.785246 85.69971 24.68716 78.551644 24.68716 77.311293 C 24.68716 77.102152 24.275199 77.040031 22.903369 77.040031 C 20.777651 77.040031 20.713797 76.994475 19.533529 74.569682 C 18.695189 72.846857 18.159639 71.208931 17.94748 69.707672 C 17.821831 68.827623 17.780635 68.775855 17.142096 68.713734 C 16.771331 68.678532 16.246081 68.705452 15.974187 68.773785 C 15.510731 68.889744 15.488073 68.956007 15.605482 69.846409 C 15.675515 70.368226 15.862957 71.192366 16.021562 71.678981 C 16.283158 72.474131 16.301696 72.492767 16.215184 71.865344 C 16.15133 71.407719 16.318174 71.691405 16.697178 72.689484 C 18.841435 78.321796 24.421445 83.949966 33.031428 89.163996 C 34.759604 90.211772 34.922328 90.246974 36.879142 90.002631 C 38.419876 89.810055 38.343663 90.068893 36.780272 90.336014 L 35.53615 90.549296 L 36.730836 90.468539 C 38.308647 90.358792 39.495094 90.162075 39.616622 89.986065 C 39.672237 89.909449 40.836027 89.97157 42.205797 90.124802 C 43.573507 90.278034 45.126599 90.365004 45.655969 90.319448 C 46.226535 90.269751 46.510788 90.302883 46.354243 90.402276 C 46.191518 90.505812 46.589061 90.582428 47.382085 90.598993 C 48.092718 90.615559 49.660229 90.696316 50.865215 90.781215 C 53.266947 90.948942 69.059467 90.851619 72.037945 90.652832 Z M 54.511069 90.640407 C 54.655255 90.582428 54.826219 90.59071 54.892132 90.656973 C 54.958046 90.723235 54.840637 90.768791 54.630537 90.760508 C 54.399839 90.752225 54.352464 90.704599 54.511069 90.640407 Z M 65.646371 90.644549 C 65.784378 90.58864 66.006837 90.58864 66.144844 90.644549 C 66.280791 90.700458 66.169562 90.743942 65.895608 90.743942 C 65.621654 90.743942 65.510424 90.700458 65.646371 90.644549 Z M 50.420297 90.435408 C 50.723088 90.389852 51.170066 90.389852 51.415182 90.437478 C 51.660299 90.485105 51.413123 90.522377 50.865215 90.520307 C 50.317307 90.520307 50.117506 90.480963 50.420297 90.435408 Z M 69.03063 90.433337 C 69.386976 90.389852 69.969901 90.389852 70.326247 90.433337 C 70.680534 90.478892 70.390101 90.514094 69.677409 90.514094 C 68.966776 90.514094 68.676344 90.476822 69.03063 90.433337 Z M 47.134909 90.238691 C 47.382085 90.191065 47.740491 90.191065 47.932053 90.240762 C 48.121555 90.292529 47.919694 90.329802 47.480956 90.327731 C 47.042218 90.32566 46.887732 90.286317 47.134909 90.238691 Z M 72.316018 90.240762 C 72.50758 90.191065 72.82067 90.191065 73.012232 90.240762 C 73.203794 90.292529 73.047249 90.331873 72.664125 90.331873 C 72.281002 90.331873 72.124456 90.292529 72.316018 90.240762 Z M 44.146132 90.039903 C 44.393309 89.992277 44.797031 89.992277 45.042147 90.039903 C 45.289324 90.08753 45.087463 90.124802 44.59517 90.124802 C 44.100817 90.124802 43.901016 90.08753 44.146132 90.039903 Z M 75.102934 90.041974 C 75.294495 89.992277 75.607586 89.992277 75.799148 90.041974 C 75.990709 90.091671 75.834164 90.133085 75.451041 90.133085 C 75.067917 90.133085 74.911372 90.091671 75.102934 90.041974 Z M 42.255232 89.843187 C 42.446794 89.79349 42.759884 89.79349 42.951446 89.843187 C 43.143008 89.892884 42.986463 89.934298 42.603339 89.934298 C 42.220215 89.934298 42.06367 89.892884 42.255232 89.843187 Z M 77.296625 89.843187 C 77.490247 89.791419 77.760081 89.795561 77.893969 89.849399 C 78.029916 89.905308 77.871311 89.946722 77.541742 89.94258 C 77.214233 89.938439 77.103004 89.892884 77.296625 89.843187 Z M 78.785864 89.648541 C 78.923871 89.594702 79.14633 89.594702 79.284337 89.648541 C 79.420284 89.70445 79.309054 89.750005 79.0351 89.750005 C 78.761146 89.750005 78.649917 89.70445 78.785864 89.648541 Z M 89.387678 82.713757 C 89.645153 82.440424 89.898509 82.216788 89.954124 82.216788 C 90.009739 82.216788 89.842894 82.440424 89.585419 82.713757 C 89.330003 82.987089 89.074587 83.210725 89.018973 83.210725 C 88.963358 83.210725 89.130202 82.987089 89.387678 82.713757 Z M 36.512497 78.383917 L 36.133493 77.936645 L 36.58253 78.315584 C 37.002731 78.671745 37.120139 78.831189 36.961535 78.831189 C 36.922398 78.831189 36.720537 78.630331 36.512497 78.383917 Z M 28.429824 76.89094 C 29.778996 76.857809 31.927372 76.857809 33.208571 76.89094 C 34.489769 76.926142 33.385714 76.955132 30.759463 76.955132 C 28.131153 76.955132 27.082712 76.926142 28.429824 76.89094 Z M 88.149735 76.893011 C 88.72854 76.851597 89.624555 76.853667 90.139506 76.893011 C 90.656517 76.934425 90.182762 76.967556 89.089006 76.967556 C 87.99319 76.965485 87.57093 76.932354 88.149735 76.893011 Z M 91.725556 76.899223 C 91.972732 76.851597 92.376454 76.851597 92.621571 76.899223 C 92.868747 76.946849 92.666886 76.986192 92.174593 76.986192 C 91.6823 76.986192 91.480439 76.946849 91.725556 76.899223 Z M 61.815135 72.120041 C 61.485566 72.076556 60.882044 71.952314 60.470083 71.844637 C 59.730613 71.652062 59.724434 71.639638 59.724434 70.637417 L 59.724434 69.622773 L 60.571013 69.76151 C 62.577263 70.08661 64.641187 70.256408 65.388896 70.154944 C 66.801922 69.96651 67.156208 69.858833 66.970826 69.674541 C 66.81634 69.523379 65.829694 69.322521 61.516463 68.568785 C 60.991213 68.475604 60.892343 68.498381 61.118921 68.659896 C 61.376397 68.842118 61.368158 68.873178 61.067426 68.875249 C 60.649286 68.879391 59.8645 68.14015 60.018986 67.889595 C 60.07872 67.790201 60.037524 67.655605 59.926294 67.585201 C 59.815065 67.516868 59.724434 67.026111 59.724434 66.49187 C 59.724434 65.321923 60.344435 64.460511 61.473208 64.069148 C 62.445435 63.729552 67.314813 63.737835 68.334416 64.079501 C 69.065647 64.325915 69.082125 64.350763 69.082125 65.336418 L 69.082125 66.34278 L 68.134615 66.214396 C 66.227236 65.955558 63.195204 65.858235 62.721449 66.040457 C 62.325967 66.193689 62.785303 66.330355 65.209693 66.781769 C 69.35196 67.554141 69.677409 67.763282 69.677409 69.649692 C 69.677409 71.022568 69.152159 71.606506 67.584647 71.975091 C 66.484712 72.233929 63.24258 72.316757 61.815135 72.120041 Z M 66.39408 71.660345 C 68.748437 71.326961 69.279866 70.929386 69.279866 69.502672 C 69.279866 68.603987 68.977075 68.481816 66.703051 68.459038 C 65.547501 68.448684 64.377532 68.37621 64.103578 68.297523 C 63.829624 68.216766 64.659725 68.189847 65.945043 68.233331 C 67.428102 68.285099 68.284981 68.241614 68.284981 68.115301 C 68.284981 67.895807 67.388966 67.678383 64.40225 67.175202 C 62.222976 66.806617 61.714205 66.620254 61.714205 66.189548 C 61.714205 65.425458 64.389891 65.102429 67.040859 65.54763 L 68.682523 65.823033 L 68.682523 65.28258 C 68.682523 64.955409 68.544516 64.680005 68.334416 64.588894 C 67.724714 64.323844 62.869755 64.241016 61.981979 64.479147 C 60.659585 64.837379 60.222906 65.303287 60.222906 66.365557 C 60.222906 66.912223 60.342375 67.390555 60.527757 67.574848 C 60.781113 67.831615 65.601056 68.93737 66.052153 68.844189 C 66.130425 68.827623 66.328167 68.864896 66.492951 68.927017 C 66.657735 68.989138 66.948168 69.088532 67.13973 69.150653 C 67.34571 69.216915 67.487837 69.461258 67.487837 69.747015 C 67.487837 70.345448 67.176806 70.473832 65.374477 70.612569 C 64.117997 70.709892 61.158057 70.428276 60.402109 70.136307 C 60.029285 69.993429 60.023105 70.937669 60.39593 71.246204 C 60.958256 71.712112 64.358994 71.946102 66.39408 71.660345 Z M 73.704326 71.979233 C 71.545651 71.279335 71.271697 70.707821 71.271697 66.893587 L 71.271697 64.100208 L 74.256354 64.100208 L 74.256354 66.783839 C 74.256354 69.347369 74.276952 69.479894 74.705391 69.755298 C 75.387187 70.196358 76.159613 70.330953 77.160678 70.179792 C 78.707591 69.947873 78.835299 69.682823 78.835299 66.688587 L 78.835299 64.100208 L 81.747863 64.100208 L 81.706667 67.055101 C 81.657231 70.560801 81.504806 70.99772 80.085601 71.691405 C 79.282277 72.084839 78.777625 72.165596 76.845528 72.20701 C 75.310974 72.240141 74.274892 72.165596 73.704326 71.979233 Z M 79.663341 71.331103 C 80.691183 70.919033 81.224673 70.208782 81.224673 69.250046 L 81.224673 68.479745 L 80.229787 68.479745 C 79.306995 68.479745 79.234901 68.514947 79.234901 68.96636 C 79.234901 69.233481 79.020682 69.70146 78.761146 70.003782 C 78.345066 70.486256 78.118487 70.564943 76.911442 70.631205 C 75.113233 70.73474 74.101869 70.345448 73.930905 69.488177 C 73.76818 68.676462 73.432432 68.442472 72.528178 68.517018 C 71.77223 68.579139 71.76811 68.58328 71.831964 69.376359 C 71.937014 70.714033 72.853627 71.405648 74.954628 71.73489 C 75.994829 71.896405 78.862077 71.652062 79.663341 71.331103 Z M 73.659011 66.390406 L 73.659011 64.497783 L 71.869041 64.497783 L 71.869041 66.25581 C 71.869041 67.224899 71.928775 68.075958 72.000868 68.148432 C 72.072961 68.220907 72.476683 68.280957 72.896883 68.280957 L 73.659011 68.280957 Z M 81.224673 66.377981 L 81.224673 64.477076 L 80.297761 64.537127 L 79.368789 64.597177 L 79.416164 66.280658 C 79.440882 67.208333 79.504736 68.036615 79.558291 68.123584 C 79.611846 68.210554 80.009388 68.280957 80.439887 68.280957 L 81.224673 68.280957 Z M 25.830351 71.950243 C 25.750019 71.867415 25.682045 70.065903 25.682045 67.949645 L 25.682045 64.100208 L 29.820192 64.100208 C 33.717342 64.100208 34.009835 64.127127 34.846115 64.54748 C 35.332229 64.793894 35.941931 65.309499 36.197347 65.692579 C 36.619607 66.326214 36.656683 66.568486 36.596949 68.316159 C 36.539275 70.045196 36.4816 70.295751 36.034623 70.780296 C 35.087112 71.805294 34.48359 71.929536 30.06119 72.020647 C 27.818063 72.066202 25.912743 72.035142 25.830351 71.950243 Z M 34.844056 71.018427 C 35.505253 70.682973 35.799805 70.382721 36.005785 69.831914 C 36.403328 68.765502 36.222065 68.479745 35.144787 68.479745 C 34.333224 68.479745 34.242593 68.527371 34.242593 68.943582 C 34.242593 69.198279 34.011895 69.622773 33.729701 69.887823 C 33.241528 70.347519 33.089102 70.370297 30.69355 70.370297 L 28.170289 70.370297 L 28.071418 69.475753 L 27.970488 68.579139 L 26.079588 68.459038 L 26.083707 69.515096 C 26.087827 71.614789 25.780916 71.465699 30.141522 71.465699 C 33.704984 71.465699 34.018074 71.436709 34.844056 71.018427 Z M 33.53402 69.430198 C 33.95628 68.829694 33.943921 67.127576 33.515482 66.653385 C 33.233288 66.34278 32.862524 66.291012 30.926307 66.291012 L 28.668762 66.291012 L 28.668762 69.873328 L 30.946905 69.873328 C 33.074684 69.873328 33.245647 69.844338 33.53402 69.430198 Z M 28.071418 66.949495 L 28.071418 65.692579 L 30.631755 65.692579 C 32.922258 65.692579 33.249767 65.736064 33.717342 66.104649 C 34.086047 66.394547 34.242593 66.707223 34.244652 67.150354 C 34.250832 68.084241 34.460932 68.285099 35.398143 68.247826 C 36.172629 68.218836 36.232364 68.175352 36.232364 67.655605 C 36.232364 66.560203 35.6412 65.506216 34.763723 65.040307 C 34.020134 64.646874 33.589635 64.599248 30.110625 64.532985 L 26.279389 64.462581 L 26.279389 68.299594 L 27.175404 68.251968 L 28.071418 68.206412 Z M 37.278744 71.931607 C 37.140738 71.875698 37.029508 71.745243 37.029508 71.639638 C 37.029508 71.534032 37.968779 69.93959 39.11815 68.094594 C 40.267521 66.249598 41.262406 64.595106 41.32832 64.419097 C 41.427191 64.1644 41.758819 64.100208 42.974104 64.102279 C 43.810384 64.10435 44.673442 64.154047 44.893841 64.212026 C 45.12042 64.274147 45.655969 64.945055 46.137963 65.773336 C 47.0175 67.282879 47.141088 67.605908 46.753845 67.365707 C 46.609659 67.276667 46.578762 67.311868 46.667333 67.456818 C 46.747666 67.585201 46.889792 67.64111 46.986603 67.583131 C 47.219361 67.438181 48.243084 69.208632 48.078299 69.473682 C 48.008266 69.589642 48.055641 69.660046 48.187469 69.628985 C 48.319296 69.599995 48.471722 69.699389 48.527337 69.85055 C 48.59531 70.036914 48.543815 70.076257 48.372851 69.970651 C 48.203947 69.865045 48.164811 69.891964 48.259562 70.045196 C 48.339894 70.17358 48.484081 70.229489 48.580891 70.169438 C 48.677702 70.109388 48.904281 70.341307 49.081424 70.685044 C 49.260627 71.02878 49.310062 71.252416 49.192653 71.179942 C 49.058766 71.097113 49.025809 71.169588 49.104082 71.376658 C 49.275046 71.819789 48.846606 72.05792 47.878498 72.05792 C 46.665273 72.05792 46.199758 71.867415 45.876368 71.242063 L 45.579756 70.670549 L 43.103871 70.670549 C 40.864864 70.670549 40.607388 70.705751 40.422006 71.051558 C 39.989447 71.861203 39.608383 72.064132 38.557883 72.047566 C 37.991437 72.039283 37.414691 71.987516 37.278744 71.931607 Z M 39.808184 71.082618 C 40.314896 70.138378 40.524996 70.072115 43.037958 70.072115 L 45.43763 70.072115 L 46.086468 70.780296 C 46.675572 71.424284 46.819759 71.484335 47.64986 71.428426 L 48.564413 71.366305 L 46.80122 68.380351 L 45.74866 68.456967 C 45.167795 68.500452 44.80527 68.574997 44.943277 68.622623 C 45.674507 68.883532 44.957695 69.047118 43.085333 69.047118 C 41.346858 69.047118 40.998751 68.997421 41.089383 68.763431 C 41.171775 68.546007 41.00699 68.479745 40.393169 68.479745 C 39.472436 68.479745 39.144927 68.771714 38.209776 70.419994 L 37.618612 71.465699 L 38.611438 71.465699 C 39.385924 71.465699 39.64752 71.38287 39.808184 71.082618 Z M 44.016365 67.933079 C 43.188323 66.332426 43.140948 66.317931 42.446794 67.446464 C 41.7444 68.589492 41.764999 68.614341 43.454038 68.655755 L 44.403608 68.678532 Z M 42.823738 67.543787 C 42.967924 67.301515 43.128589 67.146212 43.182144 67.200051 C 43.233639 67.251818 43.11623 67.448535 42.918489 67.63904 C 42.574502 67.966211 42.570382 67.962069 42.823738 67.543787 Z M 40.607388 68.249897 C 41.287124 68.28924 41.350978 68.233331 42.06573 66.99298 C 42.475631 66.276517 42.926728 65.692579 43.064735 65.692579 C 43.202742 65.692579 43.639421 66.257881 44.036963 66.949495 C 44.749655 68.187776 44.772313 68.204341 45.688926 68.251968 L 46.619958 68.301664 L 46.154442 67.539646 C 45.899026 67.121364 45.377896 66.266164 44.996832 65.638741 L 44.302678 64.497783 L 43.103871 64.501925 L 41.907125 64.506066 L 41.11616 65.833387 C 40.681541 66.564345 40.119215 67.465101 39.867919 67.835756 C 39.616622 68.204341 39.519812 68.440402 39.653699 68.357573 C 39.787586 68.274745 40.216026 68.227119 40.607388 68.249897 Z M 52.607809 71.923324 C 52.171131 71.838425 52.158772 71.774233 52.158772 69.262471 C 52.158772 67.84611 52.092858 66.69894 52.010466 66.711365 C 51.928074 66.723789 51.032059 66.723789 50.018635 66.711365 L 48.17717 66.688587 L 48.17717 64.100208 L 53.402894 64.102279 C 56.278381 64.10435 58.830478 64.160259 59.077655 64.226521 C 59.55553 64.352834 59.644101 64.853944 59.401044 66.065305 L 59.277456 66.688587 L 57.409213 66.688587 C 56.383431 66.688587 55.536851 66.754849 55.528612 66.837678 C 55.415323 67.99313 55.089874 68.502523 55.180505 67.382272 L 55.244359 66.589193 L 57.186755 66.531214 L 59.12709 66.475305 L 59.094133 65.435812 C 59.063236 64.499854 59.052937 64.475006 58.978784 65.191469 C 58.935528 65.628387 58.793402 66.052881 58.663634 66.135709 C 58.535926 66.216467 57.646091 66.2848 56.688282 66.286871 L 54.945687 66.288941 L 54.945687 69.05333 C 54.945687 71.751456 54.935388 71.819789 54.49871 71.937819 C 54.016715 72.066202 53.326681 72.062061 52.607809 71.923324 Z M 54.506949 69.912671 L 54.566683 68.456967 L 53.610934 68.519088 L 52.657244 68.579139 L 52.59751 70.034843 L 52.539836 71.488476 L 53.493525 71.428426 L 54.449274 71.366305 Z M 54.352464 67.394697 C 54.358643 65.686367 54.350404 65.692579 56.562634 65.692579 L 58.529747 65.692579 L 58.529747 64.497783 L 48.576772 64.497783 L 48.576772 65.692579 L 52.558374 65.692579 L 52.558374 68.251968 L 53.454389 68.225048 L 54.348344 68.2002 Z M 51.110331 66.34278 C 50.696311 66.301365 50.07013 66.301365 49.715844 66.34485 C 49.363617 66.388335 49.701425 66.423537 50.467672 66.423537 C 51.23392 66.423537 51.522292 66.386264 51.110331 66.34278 Z M 83.820026 71.678981 C 83.700557 71.453274 83.614046 69.794641 83.614046 67.697019 L 83.614046 64.100208 L 87.708937 64.100208 L 89.492728 66.688587 L 91.278578 69.276966 L 91.389808 64.100208 L 94.164364 64.100208 L 94.164364 67.8751 C 94.164364 71.403577 94.139646 71.664486 93.779181 71.857061 C 93.342502 72.091051 90.598843 72.132465 90.256915 71.9109 C 90.133327 71.830142 89.216714 70.606357 88.217709 69.192067 L 86.400961 66.620254 L 86.400961 69.221057 C 86.400961 72.134536 86.438038 72.064132 84.899364 72.064132 C 84.240226 72.064132 83.974511 71.968879 83.820026 71.678981 Z M 86.003419 69.962368 L 86.003419 68.456967 L 85.156839 68.519088 L 84.31026 68.579139 L 84.252585 70.022419 L 84.192851 71.465699 L 86.003419 71.465699 Z M 93.525825 70.022419 L 93.46815 68.579139 L 92.621571 68.519088 L 91.777051 68.456967 L 91.777051 69.363935 C 91.777051 70.436559 91.437183 70.562872 90.916053 69.680753 C 90.337247 68.699239 90.007679 68.479745 89.124023 68.481816 C 88.592593 68.485957 88.388672 68.546007 88.557576 68.653684 C 88.703823 68.746866 88.794454 68.858684 88.759437 68.900098 C 88.724421 68.943582 89.086946 69.537874 89.566881 70.221206 L 90.440238 71.465699 L 93.585559 71.465699 Z M 86.003419 66.986768 C 86.003419 66.237174 86.087871 65.692579 86.20734 65.692579 C 86.318569 65.692579 86.83352 66.274446 87.348471 66.986768 C 88.217709 68.183634 88.343357 68.280957 89.035451 68.280957 C 89.447412 68.280957 89.78522 68.235402 89.78522 68.181564 C 89.78522 68.127725 89.348541 67.471313 88.817112 66.72586 C 88.283622 65.978336 87.741894 65.172832 87.614186 64.932631 C 87.406146 64.541268 87.222823 64.497783 85.797438 64.497783 L 84.211389 64.497783 L 84.211389 68.280957 L 86.003419 68.280957 Z M 93.567021 66.377981 L 93.567021 64.475006 L 92.722501 64.537127 L 91.875921 64.597177 L 91.921237 66.183335 C 91.945955 67.057172 92.009809 67.885453 92.063364 68.026261 C 92.116919 68.167069 92.477384 68.280957 92.864628 68.280957 L 93.567021 68.280957 Z M 15.94329 70.753377 C 15.951529 70.521458 15.998905 70.473832 16.062758 70.633276 C 16.120433 70.776154 16.114254 70.948023 16.04834 71.014285 C 15.980366 71.080548 15.935051 70.962518 15.94329 70.753377 Z M 80.573774 90.85576 C 80.507861 90.789498 80.336897 90.781215 80.192711 90.839195 C 80.034106 90.903387 80.081481 90.951013 80.312179 90.959296 C 80.522279 90.969649 80.639688 90.922023 80.573774 90.85576 Z M 85.949864 90.85576 C 85.88189 90.789498 85.710927 90.781215 85.56674 90.839195 C 85.408135 90.903387 85.455511 90.951013 85.688269 90.959296 C 85.898369 90.969649 86.015778 90.922023 85.949864 90.85576 Z M 38.473431 90.644549 C 38.335424 90.58864 38.112965 90.58864 37.974958 90.644549 C 37.839011 90.700458 37.950241 90.746013 38.224195 90.746013 C 38.498149 90.746013 38.609378 90.700458 38.473431 90.644549 Z M 79.482078 90.636266 C 79.236961 90.58864 78.83324 90.58864 78.588123 90.636266 C 78.340946 90.683892 78.542807 90.721165 79.0351 90.721165 C 79.527394 90.721165 79.729255 90.683892 79.482078 90.636266 Z M 83.614046 90.55965 L 84.31026 90.536872 L 83.6779 90.331873 C 82.975506 90.106166 82.021817 90.263539 82.021817 90.603135 C 82.021817 90.733589 82.20308 90.772932 82.468794 90.702528 C 82.715971 90.636266 83.230922 90.572074 83.614046 90.55965 Z M 39.402403 89.306875 C 39.11403 89.043895 35.237478 86.621173 35.237478 86.704001 C 35.237478 86.840668 39.070774 89.356572 39.301472 89.371066 C 39.402403 89.377279 39.447718 89.348289 39.402403 89.306875 Z M 66.791623 86.20082 C 70.983325 85.308347 75.218283 83.537896 78.139085 81.460981 C 79.743673 80.317953 82.09597 78.118867 81.955903 77.89109 C 81.904408 77.806191 77.708586 77.799979 72.633228 77.876595 C 67.55993 77.955281 57.685227 77.963564 50.694251 77.897302 L 37.979078 77.777201 L 38.205656 78.199624 C 38.329245 78.429472 39.048116 79.152148 39.804065 79.802348 C 43.936032 83.357745 48.968135 85.571327 55.034259 86.501072 C 57.755261 86.917284 64.194209 86.753698 66.791623 86.20082 Z M 86.116708 85.776326 C 86.190861 85.656225 86.015778 85.712134 85.729465 85.900568 C 85.441092 86.089002 85.206275 86.281578 85.206275 86.327133 C 85.206275 86.470012 85.974582 86.006174 86.116708 85.776326 Z M 26.279389 85.724559 C 26.279389 85.683145 26.122843 85.525771 25.931282 85.37461 C 25.616132 85.128196 25.607892 85.134408 25.855069 85.451226 C 26.116664 85.782538 26.279389 85.888144 26.279389 85.724559 Z M 25.284503 84.927338 C 25.284503 84.885924 25.127958 84.728551 24.936396 84.57946 C 24.619186 84.330976 24.613007 84.339258 24.860183 84.654005 C 25.119719 84.985318 25.284503 85.090924 25.284503 84.927338 Z M 94.788485 84.25643 C 95.035661 83.939613 95.027422 83.933401 94.712272 84.181885 C 94.52071 84.330976 94.364165 84.488349 94.364165 84.529763 C 94.364165 84.693349 94.52689 84.587743 94.788485 84.25643 Z M 24.287558 84.142542 C 24.287558 84.105269 24.042441 83.858855 23.741709 83.593805 L 23.193802 83.111332 L 23.675796 83.657997 C 24.126893 84.171531 24.287558 84.297844 24.287558 84.142542 Z M 96.467226 83.558603 L 97.05221 82.912544 L 96.405431 83.496482 C 95.801909 84.043148 95.665962 84.206733 95.820447 84.206733 C 95.853404 84.206733 96.145896 83.914764 96.467226 83.558603 Z M 95.956394 83.310119 C 96.21387 83.036786 96.378654 82.81315 96.325099 82.81315 C 96.269484 82.81315 96.014069 83.036786 95.756593 83.310119 C 95.501177 83.583452 95.334333 83.809158 95.389948 83.809158 C 95.443503 83.809158 95.698918 83.583452 95.956394 83.310119 Z M 99.132613 80.16058 C 99.083177 80.117095 98.555867 80.628559 97.962644 81.297396 L 96.881246 82.514969 L 98.051215 81.376083 C 98.695934 80.75073 99.182048 80.204065 99.132613 80.16058 Z M 40.613568 81.941384 C 40.613568 81.89997 40.457023 81.742597 40.265461 81.593506 C 39.948251 81.345022 39.942072 81.353305 40.189248 81.668052 C 40.448783 81.999364 40.613568 82.10497 40.613568 81.941384 Z M 39.616622 81.152447 C 39.616622 81.115174 39.416821 80.912245 39.169645 80.705175 L 38.722667 80.324165 L 39.101671 80.773508 C 39.458018 81.193861 39.616622 81.311891 39.616622 81.152447 Z M 99.738195 80.324165 C 100.11102 79.941085 100.370555 79.628409 100.31494 79.628409 C 100.259326 79.628409 99.911219 79.941085 99.540454 80.324165 C 99.169689 80.707246 98.910154 81.021992 98.963709 81.021992 C 99.019323 81.021992 99.36743 80.707246 99.738195 80.324165 Z M 20.505757 80.355226 C 20.505757 80.317953 20.303896 80.117095 20.058779 79.907954 L 19.609742 79.529016 L 19.988746 79.976287 C 20.345092 80.39664 20.505757 80.51467 20.505757 80.355226 Z M 82.51823 79.230834 C 83.169128 78.572351 83.655242 78.036039 83.601687 78.036039 C 83.546072 78.036039 82.969327 78.572351 82.320489 79.230834 C 81.66959 79.887247 81.183476 80.423559 81.237031 80.423559 C 81.292646 80.423559 81.869391 79.887247 82.51823 79.230834 Z M 20.705558 79.758864 C 20.705558 79.721591 20.503697 79.518662 20.25652 79.311592 L 19.809543 78.930582 L 20.188547 79.379925 C 20.544893 79.800278 20.705558 79.918308 20.705558 79.758864 Z M 101.136802 78.626189 C 101.738265 77.783413 101.486969 77.89316 100.821652 78.766997 C 100.514741 79.168713 100.366435 79.433763 100.490024 79.357147 C 100.613612 79.280531 100.906104 78.951289 101.136802 78.626189 Z M 19.510871 79.154218 C 19.510871 79.112804 19.354326 78.957502 19.162764 78.80634 C 18.845554 78.559927 18.839375 78.566139 19.086551 78.880886 C 19.346087 79.214269 19.510871 79.317804 19.510871 79.154218 Z M 102.133748 77.228465 C 102.436539 76.663163 102.230558 76.756344 101.830956 77.36306 C 101.643514 77.650888 101.587899 77.824827 101.707368 77.750282 C 101.828897 77.675736 102.020458 77.441747 102.133748 77.228465 Z M 56.888083 77.493515 C 56.476122 77.45003 55.804626 77.45003 55.394725 77.493515 C 54.984824 77.534929 55.320572 77.570131 56.140374 77.570131 C 56.962236 77.570131 57.297984 77.534929 56.888083 77.493515 Z M 63.34763 77.489373 C 62.330086 77.452101 60.717259 77.452101 59.76357 77.489373 C 58.81194 77.526646 59.644101 77.555636 61.615334 77.555636 C 63.586567 77.555636 64.365173 77.524575 63.34763 77.489373 Z M 66.744247 77.497656 C 66.49913 77.45003 66.052153 77.447959 65.749362 77.493515 C 65.44657 77.541141 65.646371 77.578413 66.194279 77.580484 C 66.742187 77.582555 66.989364 77.545282 66.744247 77.497656 Z M 46.236834 77.288515 C 44.677562 77.255384 42.123404 77.255384 40.564133 77.288515 C 39.002801 77.323717 40.27988 77.350636 43.400483 77.350636 C 46.521087 77.350636 47.796106 77.323717 46.236834 77.288515 Z M 82.219558 77.288515 C 82.221618 77.153919 76.740478 77.15599 70.175881 77.296798 C 68.752557 77.327858 70.880335 77.371343 74.903133 77.396192 C 78.927991 77.418969 82.219558 77.371343 82.219558 77.288515 Z M 16.847544 73.722765 C 16.67864 73.412159 16.536514 73.221655 16.532394 73.298271 C 16.517975 73.534331 16.981431 74.459935 17.070003 74.370895 C 17.115319 74.325339 17.014388 74.03337 16.847544 73.722765 Z M 15.263554 70.022419 C 15.20794 69.885752 15.162624 69.99757 15.162624 70.270903 C 15.162624 70.546306 15.20794 70.658124 15.263554 70.519387 C 15.317109 70.382721 15.317109 70.159085 15.263554 70.022419 Z M 15.071993 67.632827 C 15.024617 67.386414 14.985481 67.589343 14.985481 68.08217 C 14.985481 68.574997 15.024617 68.775855 15.071993 68.529442 C 15.119368 68.283028 15.119368 67.879241 15.071993 67.632827 Z M 18.316185 67.08202 C 18.316185 66.473234 18.454191 65.442024 18.625155 64.791823 C 18.979442 63.429301 20.493398 60.134812 20.930076 59.778651 C 21.136057 59.608854 23.364765 59.478399 28.468961 59.335521 C 34.421796 59.169865 35.74213 59.082895 35.873958 58.846835 C 36.242663 58.188352 38.05941 56.173558 39.050176 55.322499 C 42.710449 52.183313 47.355308 50.011146 52.943557 48.824633 C 55.238179 48.335947 55.819044 48.292462 60.023105 48.292462 C 64.220987 48.292462 64.808031 48.338018 67.092354 48.822562 C 68.462124 49.112461 70.29741 49.586652 71.172827 49.874479 C 73.434492 50.619932 76.983535 52.35104 78.783804 53.58725 C 80.427528 54.715783 83.319494 57.467747 83.906538 58.463755 C 84.254645 59.051835 84.312319 59.070471 86.178502 59.192642 C 87.231062 59.263046 89.597778 59.321026 91.437183 59.321026 L 94.782305 59.323097 L 94.141706 58.376786 C 92.607152 56.105224 90.51851 53.897855 87.743954 51.622153 C 86.30621 50.441852 85.910728 49.949025 87.14661 50.87877 C 90.291932 53.241442 92.329078 55.281085 94.191142 57.921231 L 95.000645 59.0684 L 97.017193 59.207137 C 99.05228 59.347945 99.645504 59.557086 99.451882 60.062338 C 99.394208 60.213499 99.431284 60.285974 99.536334 60.221782 C 99.78763 60.066479 100.992616 62.466424 100.850489 62.83708 C 100.788695 62.996524 100.819592 63.07521 100.916403 63.01516 C 101.015274 62.95511 101.243912 63.331978 101.427235 63.851724 C 101.818598 64.965762 102.131688 66.912223 101.89481 66.767274 C 101.804179 66.711365 101.730026 66.935001 101.730026 67.268384 C 101.730026 67.697019 101.808298 67.839898 102.00192 67.765352 C 102.152286 67.707373 102.329429 67.800554 102.395343 67.970352 C 102.568366 68.423836 104.045246 68.392775 104.288303 67.933079 C 104.496343 67.539646 104.348037 65.452377 104.123519 65.591114 C 104.043186 65.640811 104.022588 65.446165 104.076143 65.160408 C 104.139997 64.824954 104.100861 64.684147 103.966974 64.766975 C 103.845445 64.843591 103.627106 64.510207 103.441723 63.965613 C 103.085377 62.919908 103.033882 62.458141 103.322255 62.905413 C 103.435544 63.081422 103.515876 63.106271 103.517936 62.969605 C 103.519996 62.841221 103.408767 62.617585 103.272819 62.472636 C 103.136872 62.327687 102.994746 62.029505 102.959729 61.810011 C 102.924713 61.592587 102.790825 61.323396 102.661058 61.213648 C 102.53335 61.103901 102.399462 60.884407 102.364446 60.729104 C 102.331489 60.571731 102.152286 60.319105 101.966903 60.165873 C 101.781521 60.014711 101.750624 59.95259 101.89893 60.029206 C 102.115209 60.138954 102.123449 60.085115 101.942186 59.74552 C 101.818598 59.511531 101.668232 59.323097 101.612617 59.323097 C 101.554943 59.323097 101.563182 59.412137 101.631155 59.521884 C 101.697069 59.631631 101.707368 59.720672 101.649694 59.720672 C 101.592019 59.720672 101.443713 59.530167 101.318065 59.298248 C 101.145041 58.973148 101.149161 58.911027 101.332484 59.024916 C 101.464311 59.105673 101.418995 58.937946 101.229493 58.650118 C 100.901985 58.149008 100.560057 57.883958 100.852549 58.358149 C 100.941121 58.501028 100.908164 58.534159 100.761918 58.443048 C 100.63421 58.364361 100.572416 58.229766 100.625971 58.142796 C 100.677466 58.057897 100.582715 57.817696 100.413811 57.610625 C 100.244907 57.401484 100.172814 57.358 100.253146 57.511232 C 100.347897 57.697595 100.31906 57.74315 100.164575 57.647898 C 100.036867 57.567141 99.983312 57.420121 100.047166 57.316586 C 100.11102 57.21305 100.022448 57.076384 99.851484 57.010122 C 99.68052 56.943859 99.540454 56.786486 99.540454 56.656031 C 99.540454 56.527648 98.990486 55.887801 98.31693 55.235529 C 97.645434 54.581187 97.167559 54.181541 97.254071 54.345127 C 97.342642 54.508712 97.36324 54.599823 97.299387 54.543914 C 97.235533 54.490076 97.169619 54.35548 97.151081 54.245733 C 97.095466 53.922704 96.720581 53.545836 96.553737 53.649371 C 96.469285 53.701138 96.277724 53.58725 96.129418 53.396745 C 95.876062 53.077857 95.886361 53.073715 96.255066 53.349119 C 96.623771 53.626593 96.63407 53.622452 96.380714 53.299422 C 96.230348 53.108917 95.948155 52.951544 95.754533 52.951544 C 95.558852 52.951544 95.023303 52.52705 94.559847 52.005233 C 94.09845 51.485486 93.832736 51.239073 93.970743 51.458567 C 94.108749 51.678062 93.919247 51.535183 93.546423 51.14382 C 93.175658 50.750387 92.697783 50.303115 92.483564 50.147812 C 92.145756 49.901399 92.116919 49.903469 92.256985 50.164378 C 92.345557 50.327963 92.20549 50.226499 91.948015 49.938671 C 91.428944 49.358874 89.978841 48.37322 87.395847 46.845041 L 85.704747 45.842821 L 81.822016 45.509438 C 67.753551 44.300147 52.144353 44.304289 38.185058 45.517721 C 36.028443 45.706154 34.304387 45.923578 34.351762 46.000194 C 34.399138 46.078881 34.300267 46.19484 34.131363 46.259032 C 33.929502 46.337719 33.865648 46.294234 33.948041 46.130649 C 34.016014 45.996053 33.945981 46.039538 33.789436 46.230042 C 33.632891 46.420547 33.447508 46.51787 33.375415 46.445395 C 33.305382 46.374992 33.247707 46.420547 33.247707 46.548931 C 33.247707 46.675243 33.175614 46.758072 33.089102 46.731152 C 32.815148 46.644183 29.575076 48.721098 27.029157 50.61372 C 24.170149 52.738262 20.614926 56.21083 19.127748 58.327089 C 17.175053 61.108043 16.178108 63.45622 15.73319 66.322073 C 15.440698 68.208483 15.51485 68.316159 17.047345 68.247826 L 18.316185 68.189847 Z M 98.345767 55.639316 C 97.861713 55.146489 97.511546 54.742702 97.565101 54.742702 C 97.620716 54.742702 98.061514 55.146489 98.545568 55.639316 C 99.027562 56.132144 99.379789 56.535931 99.324174 56.535931 C 99.270619 56.535931 98.829821 56.132144 98.345767 55.639316 Z M 92.94496 50.812508 C 92.697783 50.49569 92.703963 50.489478 93.021173 50.735892 C 93.352801 50.9968 93.457851 51.160386 93.293067 51.160386 C 93.251871 51.160386 93.095326 51.003012 92.94496 50.812508 Z M 85.7789 50.015287 C 85.529664 49.70054 85.537903 49.692258 85.853053 49.940742 C 86.184682 50.19958 86.289732 50.363165 86.127007 50.363165 C 86.085811 50.363165 85.929266 50.207863 85.7789 50.015287 Z M 101.666172 65.456519 C 101.602318 65.297075 101.557002 65.344701 101.546703 65.576619 C 101.538464 65.78576 101.58584 65.903791 101.651753 65.837528 C 101.717667 65.771266 101.723847 65.599397 101.666172 65.456519 Z M 103.855744 64.062936 C 103.79395 63.903492 103.746574 63.951118 103.736275 64.183036 C 103.728036 64.394248 103.775412 64.510207 103.841325 64.443945 C 103.907239 64.377682 103.913419 64.205814 103.857804 64.062936 Z M 38.772103 59.782793 C 38.580541 59.733096 38.265391 59.733096 38.073829 59.782793 C 37.882267 59.83249 38.038812 59.873904 38.423996 59.873904 C 38.807119 59.873904 38.963664 59.83249 38.772103 59.782793 Z M 83.842684 59.049764 C 81.558361 56.361992 78.979486 54.14841 76.423268 52.678211 C 75.568449 52.185384 75.486057 52.17296 75.230642 52.487706 C 74.985525 52.787958 74.995824 52.810736 75.313034 52.692706 C 75.556091 52.601595 75.626124 52.632656 75.529313 52.790029 C 75.436622 52.937049 75.492237 52.978463 75.683799 52.905988 C 75.856822 52.839726 75.98247 52.901847 75.98247 53.05715 C 75.98247 53.258008 75.77855 53.220735 75.168847 52.914271 C 74.138945 52.394525 74.077151 52.334474 74.645657 52.400737 C 74.903133 52.429727 75.152369 52.330333 75.205924 52.177101 C 75.265658 52.009374 75.216223 51.955536 75.080276 52.040435 C 74.954628 52.117051 74.853697 52.088061 74.853697 51.974172 C 74.853697 51.862354 74.705391 51.827152 74.524129 51.897556 C 74.314029 51.978314 74.239876 51.945182 74.324328 51.810587 C 74.410839 51.67185 74.305789 51.634577 74.027716 51.707051 C 73.735224 51.783667 73.642532 51.746395 73.739343 51.591092 C 73.832034 51.439931 73.766121 51.4068 73.537482 51.49584 C 73.319143 51.578668 73.24499 51.549678 73.329442 51.410941 C 73.413894 51.272204 73.308844 51.237002 73.03283 51.309477 C 72.740338 51.386093 72.647647 51.34882 72.742398 51.193517 C 72.837149 51.042356 72.771235 51.009225 72.542597 51.096194 C 72.29336 51.193517 72.243925 51.158315 72.363394 50.963669 C 72.476683 50.781447 72.449906 50.748316 72.274822 50.855993 C 72.136815 50.942962 71.965851 50.924326 71.895818 50.814579 C 71.731034 50.559882 68.690762 49.683975 66.39408 49.230491 C 63.786368 48.714886 56.443165 48.721098 53.65213 49.242915 C 51.952791 49.559733 49.200893 50.294832 48.17717 50.704831 C 48.014445 50.771094 47.812584 50.810437 47.730192 50.793872 C 47.6478 50.777306 47.579827 50.855993 47.579827 50.971952 C 47.579827 51.087911 47.491255 51.129325 47.382085 51.060992 C 47.272916 50.992659 47.182284 51.042356 47.182284 51.170739 C 47.182284 51.297052 47.048397 51.350891 46.883613 51.286699 C 46.718828 51.224578 46.584941 51.263921 46.584941 51.37781 C 46.584941 51.489628 46.496369 51.5269 46.38514 51.458567 C 46.27597 51.390234 46.187399 51.470991 46.187399 51.634577 C 46.187399 51.872708 46.481951 51.810587 47.631322 51.328113 C 51.419302 49.739884 54.972465 49.100037 60.023105 49.095895 C 65.189095 49.091754 69.442591 49.884833 72.227447 51.371598 C 72.851567 51.704981 73.181136 51.918263 72.962797 51.847859 C 72.744458 51.775385 71.953493 51.504123 71.205784 51.245285 C 69.024451 50.491549 65.308563 49.721247 64.542316 49.864126 C 64.050023 49.957308 63.905837 49.928318 64.010887 49.756449 C 64.120056 49.58044 63.76577 49.55145 62.587562 49.642561 C 61.724504 49.708823 59.617324 49.78751 57.903566 49.814429 C 56.187749 49.843419 54.892132 49.940742 55.01778 50.031853 C 55.143428 50.122964 54.850936 50.151954 54.358643 50.093974 C 53.728343 50.021499 53.557379 50.050489 53.763359 50.195438 C 53.9714 50.340388 53.841632 50.367307 53.299903 50.292761 C 52.787012 50.222358 52.591331 50.257559 52.681962 50.404579 C 52.772594 50.551599 52.640766 50.576448 52.272061 50.485337 C 51.878638 50.385943 51.767409 50.412862 51.874519 50.584731 C 51.979569 50.754528 51.870399 50.783518 51.474917 50.684124 C 51.079434 50.584731 50.972324 50.61165 51.079434 50.785589 C 51.182425 50.953316 51.097973 50.990588 50.797241 50.911902 C 50.523287 50.839427 50.414117 50.8767 50.49651 51.009225 C 50.583021 51.147962 50.442955 51.17281 50.082489 51.081699 C 49.684947 50.982305 49.577837 51.009225 49.684947 51.183164 C 49.787937 51.350891 49.705545 51.388163 49.402753 51.309477 C 49.167936 51.247355 49.01963 51.272204 49.075245 51.361244 C 49.215311 51.589021 47.843481 52.019728 47.553049 51.839576 C 47.417102 51.756748 47.373846 51.781597 47.447999 51.903768 C 47.610724 52.166748 46.49019 52.640938 46.16886 52.442151 C 46.028794 52.357252 45.977299 52.375889 46.047332 52.489777 C 46.193578 52.725837 44.850586 53.409169 44.576632 53.239372 C 44.471582 53.17518 44.409787 53.239372 44.440685 53.384321 C 44.471582 53.535482 44.337694 53.634876 44.133774 53.61831 C 43.933973 53.601745 43.822743 53.639017 43.884537 53.701138 C 44.034903 53.8523 42.553904 54.73649 42.354103 54.612248 C 42.267591 54.558409 42.220215 54.632955 42.251112 54.777904 C 42.27995 54.922853 42.152242 55.03053 41.9648 55.016035 C 41.777357 55.00154 41.64347 55.051237 41.666128 55.125782 C 41.688786 55.200327 41.348918 55.564771 40.912239 55.935427 C 40.473501 56.306083 39.721672 56.97492 39.239678 57.41805 C 38.759744 57.863251 38.438414 58.093099 38.524926 57.929514 C 38.613498 57.763857 38.609378 57.699666 38.514627 57.784564 C 37.803995 58.432694 38.032633 58.443048 56.513198 58.457543 C 68.278802 58.465826 74.966987 58.544512 75.35217 58.674967 C 75.797088 58.824057 74.890774 58.884108 71.780469 58.904815 C 69.485847 58.92138 67.568169 58.977289 67.516674 59.029057 C 67.465179 59.080824 70.841198 59.124309 75.020542 59.124309 C 79.222543 59.124309 82.61916 59.045623 82.61916 58.95037 C 82.61916 58.380927 78.1947 54.106996 77.704467 54.200178 C 77.574699 54.225026 77.484068 54.183612 77.504666 54.104925 C 77.545862 53.947552 76.833169 53.365684 76.583933 53.357402 C 76.495361 53.35326 76.487122 53.463008 76.567455 53.599674 C 76.645727 53.73634 76.633368 53.777754 76.538617 53.692856 C 76.445926 53.607957 76.349115 53.400886 76.324398 53.23316 C 76.285261 52.96811 76.351175 52.972251 76.810512 53.266291 C 79.4656 54.958055 82.489392 57.730726 83.111453 59.041481 C 83.323613 59.490824 83.546072 59.670975 83.89006 59.670975 L 84.367934 59.670975 Z M 73.659011 52.156394 C 73.479808 52.040435 73.45509 51.961748 73.599276 51.959677 C 73.729044 51.957607 73.891769 52.046647 73.957682 52.156394 C 74.112168 52.402808 74.042134 52.402808 73.659011 52.156394 Z M 36.533095 59.318955 C 36.603129 59.207137 36.737016 59.163653 36.829707 59.223703 C 36.924458 59.281683 37.066585 59.223703 37.146917 59.095319 C 37.235489 58.95037 37.204591 58.915168 37.060405 59.004208 C 36.934757 59.082895 36.829707 59.058047 36.829707 58.9483 C 36.829707 58.728805 37.212831 58.438907 37.527981 58.42027 C 37.63715 58.414058 37.701004 58.291887 37.670107 58.146937 C 37.602134 57.836332 38.007915 57.297949 38.215955 57.426333 C 38.296288 57.47603 38.621737 57.237899 38.941007 56.896233 C 39.258216 56.554567 39.392104 56.347497 39.237618 56.436537 C 39.048116 56.544213 39.004861 56.521436 39.103731 56.364062 C 39.182004 56.235679 39.32619 56.17977 39.423001 56.23982 C 39.517752 56.2978 39.696955 56.163204 39.816423 55.937497 C 39.937952 55.713862 40.115095 55.577195 40.211906 55.637246 C 40.306657 55.697296 40.450843 55.641387 40.531176 55.513003 C 40.625927 55.357701 40.58679 55.332852 40.413767 55.440529 C 40.240743 55.548205 40.201607 55.523357 40.296358 55.368054 C 40.37669 55.239671 40.518817 55.183762 40.615628 55.243812 C 40.710379 55.301792 41.126459 55.013964 41.53842 54.599823 C 41.950381 54.187754 42.218155 53.984825 42.129584 54.14841 C 42.043072 54.311996 42.16666 54.220885 42.405598 53.947552 C 42.642475 53.674219 42.778422 53.583108 42.706329 53.748765 C 42.617758 53.945481 42.669253 53.928916 42.856695 53.701138 C 43.01324 53.512704 43.213041 53.421593 43.301613 53.502351 C 43.390184 53.583108 43.398423 53.537553 43.320151 53.400886 C 43.192443 53.17518 43.416962 53.05922 43.847461 53.127554 C 43.929853 53.139978 43.997827 53.05715 43.997827 52.94119 C 43.997827 52.825231 44.086398 52.783817 44.195568 52.85215 C 44.306797 52.920483 44.395369 52.874928 44.395369 52.752756 C 44.395369 52.630585 44.498359 52.593312 44.626067 52.671999 C 44.778492 52.767251 44.80115 52.725837 44.691981 52.549828 C 44.574572 52.359323 44.619887 52.32205 44.860885 52.415232 C 45.042147 52.483565 45.192513 52.448363 45.192513 52.336545 C 45.192513 52.224727 45.281085 52.187455 45.390254 52.255788 C 45.499424 52.32205 45.590055 52.278565 45.590055 52.156394 C 45.590055 52.034223 45.678627 51.988667 45.789856 52.057 C 45.899026 52.123263 45.987598 52.090132 45.987598 51.980384 C 45.987598 51.870637 45.911385 51.733971 45.818694 51.675991 C 45.592115 51.537254 42.436495 53.35119 40.778352 54.574975 C 39.445659 55.558559 36.034623 58.97936 36.034623 59.33345 C 36.034623 59.584005 36.37655 59.573652 36.533095 59.318955 Z M 38.522866 56.933506 C 38.720608 56.714011 38.928648 56.535931 38.982203 56.535931 C 39.037817 56.535931 38.920409 56.714011 38.722667 56.933506 C 38.522866 57.153 38.316886 57.331081 38.261271 57.331081 C 38.207716 57.331081 38.325125 57.153 38.522866 56.933506 Z M 96.10882 59.385218 C 95.917258 59.335521 95.558852 59.33345 95.311675 59.381076 C 95.064499 59.428703 95.221044 59.470117 95.657722 59.472187 C 96.096461 59.474258 96.298322 59.434915 96.10882 59.385218 Z M 48.016505 58.975219 C 46.119425 58.942087 43.075034 58.942087 41.247988 58.975219 C 39.420941 59.00835 40.971974 59.033198 44.69404 59.033198 C 48.416107 59.033198 49.911525 59.006279 48.016505 58.975219 Z M 39.332369 57.082596 L 39.915294 56.436537 L 39.268516 57.020475 C 38.664993 57.56507 38.531106 57.730726 38.683531 57.730726 C 38.718548 57.730726 39.00898 57.438757 39.332369 57.082596 Z M 20.406886 55.937497 C 20.604627 55.720074 20.722036 55.539923 20.666421 55.539923 C 20.612867 55.539923 20.404826 55.720074 20.207085 55.937497 C 20.009344 56.156992 19.891935 56.337143 19.94755 56.337143 C 20.001105 56.337143 20.209145 56.156992 20.406886 55.937497 Z M 100.137797 56.260527 C 100.137797 56.219113 99.981252 56.06381 99.78969 55.912649 C 99.47248 55.664165 99.466301 55.672448 99.713477 55.987194 C 99.973013 56.320578 100.137797 56.424113 100.137797 56.260527 Z M 40.838087 55.788407 C 41.085263 55.47366 41.077024 55.465377 40.761874 55.713862 C 40.430245 55.97477 40.325195 56.136285 40.48998 56.136285 C 40.531176 56.136285 40.687721 55.980982 40.838087 55.788407 Z M 23.690214 52.653363 C 23.94769 52.38003 24.114534 52.156394 24.058919 52.156394 C 24.005364 52.156394 23.749949 52.38003 23.492473 52.653363 C 23.234998 52.926695 23.070213 53.150331 23.123768 53.150331 C 23.179383 53.150331 23.434799 52.926695 23.690214 52.653363 Z M 96.95128 53.08614 C 96.95128 53.050938 96.706163 52.804524 96.405431 52.539474 L 95.857523 52.057 L 96.339518 52.603666 C 96.790615 53.115129 96.95128 53.241442 96.95128 53.08614 Z M 95.558852 52.684423 C 95.558852 52.647151 95.356991 52.444222 95.109814 52.237151 L 94.662837 51.856142 L 95.041841 52.305485 C 95.398187 52.725837 95.558852 52.843867 95.558852 52.684423 Z M 95.359051 51.682203 C 95.359051 51.640789 95.202506 51.483416 95.010944 51.334325 C 94.695794 51.085841 94.687554 51.094123 94.936791 51.40887 C 95.196326 51.740183 95.359051 51.845789 95.359051 51.682203 Z M 56.684162 49.646702 C 56.618248 49.58044 56.447285 49.574227 56.303098 49.630136 C 56.144493 49.694328 56.191869 49.741954 56.422567 49.750237 C 56.632667 49.760591 56.750076 49.712965 56.684162 49.646702 Z M 60.671944 49.431349 C 60.482442 49.381652 60.124036 49.379581 59.876859 49.427208 C 59.627623 49.474834 59.784168 49.516248 60.222906 49.518319 C 60.659585 49.520389 60.863505 49.481046 60.671944 49.431349 Z M 34.984122 45.267165 C 34.918208 45.200903 34.747245 45.19262 34.603058 45.2506 C 34.444453 45.314792 34.491829 45.362418 34.722527 45.370701 C 34.932627 45.378983 35.050036 45.333428 34.984122 45.267165 Z M 85.655312 45.254741 C 85.517305 45.200903 85.292786 45.200903 85.156839 45.254741 C 85.018832 45.31065 85.132122 45.356206 85.406076 45.356206 C 85.68003 45.356206 85.791259 45.31065 85.655312 45.254741 Z M 37.078943 45.055954 C 36.942996 45.000045 36.718478 45.000045 36.58253 45.055954 C 36.444524 45.111863 36.555753 45.157418 36.829707 45.157418 C 37.103661 45.157418 37.21695 45.111863 37.078943 45.055954 Z M 83.46368 45.055954 C 83.327733 45.000045 83.103214 45.000045 82.967267 45.055954 C 82.82926 45.111863 82.942549 45.157418 83.216503 45.157418 C 83.488398 45.157418 83.601687 45.111863 83.46368 45.055954 Z M 39.468317 44.857166 C 39.33031 44.801257 39.107851 44.801257 38.969844 44.857166 C 38.833897 44.913075 38.945126 44.95656 39.21908 44.95656 C 39.493034 44.95656 39.604264 44.913075 39.468317 44.857166 Z M 81.076367 44.857166 C 80.93836 44.801257 80.713841 44.801257 80.577894 44.857166 C 80.441947 44.913075 80.553176 44.95656 80.82713 44.95656 C 81.101084 44.95656 81.212314 44.913075 81.076367 44.857166 Z M 42.055431 44.658379 C 41.919484 44.60247 41.694965 44.60247 41.559018 44.658379 C 41.421011 44.712217 41.5343 44.757773 41.808254 44.757773 C 42.080149 44.757773 42.193438 44.712217 42.055431 44.658379 Z M 78.487192 44.658379 C 78.351245 44.60247 78.126727 44.60247 77.99078 44.658379 C 77.852773 44.712217 77.964002 44.757773 78.237956 44.757773 C 78.51191 44.757773 78.625199 44.712217 78.487192 44.658379 Z M 45.340819 44.453379 C 45.149257 44.403682 44.836167 44.403682 44.644605 44.453379 C 44.453043 44.503076 44.609588 44.54449 44.992712 44.54449 C 45.375836 44.54449 45.532381 44.503076 45.340819 44.453379 Z M 75.401605 44.453379 C 75.210044 44.403682 74.896953 44.403682 74.705391 44.453379 C 74.51383 44.503076 74.670375 44.54449 75.053498 44.54449 C 75.436622 44.54449 75.593167 44.503076 75.401605 44.453379 Z M 49.023749 44.25045 C 48.776573 44.202824 48.374911 44.202824 48.127734 44.25045 C 47.882618 44.298077 48.082419 44.33742 48.576772 44.33742 C 49.069065 44.33742 49.270926 44.298077 49.023749 44.25045 Z M 71.918476 44.25045 C 71.671299 44.202824 71.267578 44.202824 71.022461 44.25045 C 70.775285 44.298077 70.977145 44.33742 71.469439 44.33742 C 71.963792 44.33742 72.163593 44.298077 71.918476 44.25045 Z M 54.59758 44.047521 C 54.243294 44.004037 53.660369 44.004037 53.304023 44.047521 C 52.947677 44.093077 53.240169 44.128279 53.950802 44.128279 C 54.663494 44.128279 54.953926 44.093077 54.59758 44.047521 Z M 66.742187 44.047521 C 66.385841 44.004037 65.802917 44.004037 65.44863 44.047521 C 65.092284 44.093077 65.382716 44.128279 66.095409 44.128279 C 66.806041 44.128279 67.098534 44.093077 66.742187 44.047521 Z M 66.742187 44.047521 " transform="matrix(1.896418,0,0,1.886437,-19.883577,-25.393644)"/>
</g>
</svg>
