<?xml version="1.0" encoding="UTF-8"?>
<svg xmlns="http://www.w3.org/2000/svg" xmlns:xlink="http://www.w3.org/1999/xlink" width="px" height="0px" viewBox="0 0 190 189" version="1.1">
<g id="surface1">
<path style="fill:none;stroke-width:0.264583;stroke-linecap:butt;stroke-linejoin:miter;stroke:rgb(99.607843%,0%,0%);stroke-opacity:1;stroke-miterlimit:4;" d="M 110.618082 63.592886 C 110.618082 91.20778 88.232127 113.594149 60.616329 113.594149 C 33.00259 113.594149 10.616635 91.20778 10.616635 63.592886 C 10.616635 35.980063 33.00259 13.593694 60.616329 13.593694 C 88.232127 13.593694 110.618082 35.980063 110.618082 63.592886 Z M 110.618082 63.592886 " transform="matrix(1.896418,0,0,1.886437,-19.883577,-25.393644)"/>
<path style="fill:none;stroke-width:0.264583;stroke-linecap:butt;stroke-linejoin:miter;stroke:rgb(99.607843%,0%,0%);stroke-opacity:1;stroke-miterlimit:4;" d="M 65.895608 26.262254 C 65.895608 29.024572 63.65866 31.263002 60.896462 31.263002 C 58.134265 31.263002 55.897317 29.024572 55.897317 26.262254 C 55.897317 23.499937 58.134265 21.261507 60.896462 21.261507 C 63.65866 21.261507 65.895608 23.499937 65.895608 26.262254 Z M 65.895608 26.262254 " transform="matrix(1.896418,0,0,1.886437,-19.883577,-25.393644)"/>
<path style="fill:none;stroke-width:0.125526;stroke-linecap:butt;stroke-linejoin:miter;stroke:rgb(0%,0%,100%);stroke-opacity:1;stroke-miterlimit:4;" d="M 61.485566 107.425525 C 61.333141 107.340626 60.437126 106.818809 59.495795 106.265931 C 58.554465 105.713054 57.679048 105.20159 57.54928 105.127045 C 57.421572 105.05457 57.075525 104.78952 56.778913 104.538965 C 56.480242 104.28841 55.86642 103.805936 55.409143 103.466341 C 52.484221 101.292103 48.405808 97.426101 45.65185 94.216511 C 44.07198 92.373586 41.911245 89.563642 40.969914 88.128645 C 39.499214 85.884003 39.039877 85.16961 38.90599 84.927338 C 38.829777 84.788601 38.582601 84.337188 38.356022 83.923047 C 38.131503 83.508907 37.733961 82.802797 37.472366 82.353454 C 36.763793 81.13174 35.338409 78.218261 35.338409 77.994625 C 35.338409 77.924221 35.258076 77.797908 35.157146 77.71508 C 35.058275 77.634322 34.938807 77.385838 34.893491 77.166344 C 34.846115 76.946849 34.736946 76.68387 34.648374 76.580335 C 34.559803 76.4768 34.446513 76.193113 34.399138 75.950841 C 34.349702 75.710639 34.230234 75.385539 34.131363 75.230236 C 34.032493 75.077004 33.917144 74.6815 33.875947 74.352258 C 33.832692 74.023017 33.756479 73.697916 33.707043 73.629583 C 33.655548 73.56125 33.461927 72.995948 33.274485 72.374737 C 33.087042 71.753526 32.831627 70.906609 32.703919 70.490397 C 32.450563 69.655904 32.104516 68.185705 31.669897 66.098437 L 31.383584 64.717278 L 31.42478 53.106847 C 31.470096 40.229145 31.420661 40.929043 32.27342 40.929043 C 32.889301 40.929043 33.85123 40.680559 34.114885 40.452781 C 34.312626 40.282984 34.333224 40.285054 34.333224 40.481771 C 34.333224 40.65571 34.405317 40.682629 34.701929 40.618437 C 34.90585 40.572882 35.595884 40.456923 36.240603 40.357529 C 37.558878 40.1546 38.360142 40.015863 40.17071 39.674197 C 40.860744 39.543743 42.131644 39.318036 42.994702 39.173087 C 43.85776 39.028138 45.101882 38.79829 45.7569 38.663694 C 46.411917 38.529098 47.11843 38.41728 47.326471 38.41728 C 47.532451 38.41728 48.07006 38.32824 48.519097 38.218493 C 48.968135 38.110816 49.814714 37.947231 50.401759 37.85612 C 51.65206 37.663544 53.367877 37.35501 54.60582 37.104455 C 55.089874 37.007132 55.796386 36.891172 56.175391 36.845617 C 56.554395 36.802132 57.176455 36.690314 57.555459 36.599203 C 59.689417 36.079457 61.666829 36.079457 64.459924 36.601274 C 64.978995 36.696526 65.938864 36.837334 66.593881 36.911879 C 67.250959 36.988495 67.984249 37.098243 68.225247 37.158293 C 68.468304 37.218343 69.088305 37.303242 69.607375 37.348798 C 70.124386 37.394353 70.890634 37.508242 71.310834 37.605565 C 71.731034 37.700817 72.653826 37.837483 73.362399 37.909958 C 74.070972 37.982433 74.697152 38.071473 74.752767 38.106675 C 74.808382 38.139806 75.525194 38.249553 76.342936 38.348947 C 77.160678 38.448341 78.421279 38.618138 79.14633 38.729956 C 79.871381 38.839704 81.171118 39.038491 82.034176 39.168945 C 82.897234 39.30147 84.450326 39.529248 85.486408 39.674197 C 86.52249 39.819146 87.78309 40.009651 88.291862 40.098691 C 89.183757 40.253994 89.216714 40.249852 89.309405 39.999297 C 89.400036 39.754954 89.422694 39.765308 89.655452 40.148388 C 89.958243 40.647427 90.001499 41.136113 90.252795 47.081101 C 90.357846 49.532813 90.534989 53.344977 90.646218 55.554417 C 90.883096 60.182438 90.83366 64.462581 90.534989 65.471014 C 90.431998 65.81475 90.250736 66.634749 90.129207 67.291161 C 89.882031 68.64126 88.804753 72.699837 88.52462 73.335543 C 88.423689 73.567462 88.186812 74.207309 87.99731 74.760187 C 87.546212 76.077154 87.117773 77.18498 86.874716 77.648817 C 86.767606 77.853817 86.679035 78.094018 86.679035 78.180988 C 86.679035 78.270028 86.62754 78.437755 86.563686 78.557856 C 86.499832 78.677957 85.935445 79.831338 85.309265 81.119315 C 84.287602 83.22315 82.497632 86.513496 81.912647 87.364555 C 81.791119 87.542636 81.377098 88.167988 80.993974 88.756068 C 79.333772 91.298891 77.012372 94.315905 75.055558 96.475648 C 72.767115 99.001906 69.288106 102.34402 67.838003 103.406291 C 67.45282 103.689977 66.859596 104.162097 66.521788 104.456137 C 65.862651 105.02558 62.056132 107.584969 61.87075 107.582898 C 61.811016 107.580828 61.635932 107.510424 61.485566 107.425525 Z M 62.974805 106.234871 C 64.132415 105.499771 67.415743 103.093615 68.140795 102.451697 C 68.359134 102.257051 69.160398 101.546799 69.920466 100.875892 C 71.265518 99.685238 74.248115 96.635092 75.129711 95.547973 C 75.370708 95.249792 75.657021 94.912267 75.762071 94.798379 C 76.534498 93.974239 77.838354 92.294899 79.484138 90.010914 C 79.966132 89.342077 81.78288 86.507284 81.78288 86.424456 C 81.78288 86.393396 81.968262 86.099356 82.1969 85.772185 C 82.423479 85.445014 82.788064 84.838298 83.004344 84.424157 C 83.218563 84.010017 83.655242 83.192089 83.970392 82.604009 C 84.757237 81.148305 85.292786 80.011489 86.044615 78.212049 C 86.260894 77.694373 86.51425 77.129071 86.609001 76.955132 C 86.701693 76.783264 86.83558 76.443668 86.907673 76.203467 C 86.977706 75.961194 87.185747 75.368973 87.367009 74.884429 C 87.550332 74.401955 87.760432 73.780744 87.834585 73.50327 C 87.908738 73.227867 88.017908 72.94211 88.073522 72.867564 C 88.131197 72.79509 88.263024 72.399586 88.366015 71.989586 C 88.471065 71.579587 88.677045 70.82171 88.825351 70.304034 C 88.973657 69.784288 89.173458 69.022269 89.272329 68.608129 C 89.369139 68.193988 89.509206 67.601767 89.585419 67.291161 C 89.661632 66.980556 89.797579 66.245457 89.88615 65.659448 C 89.976782 65.071368 90.110669 64.394248 90.184822 64.154047 C 90.345487 63.623947 90.349606 58.633553 90.188942 57.186131 C 90.127147 56.633254 89.989141 53.864724 89.882031 51.034073 C 89.671931 45.507367 89.579239 44.291864 89.334123 43.846663 C 89.204355 43.608532 89.210534 43.550553 89.371199 43.488432 C 89.527744 43.428381 89.564821 43.186109 89.562761 42.266717 C 89.562761 41.160962 89.383558 40.463135 89.115783 40.510761 C 88.994255 40.531468 87.610066 40.353388 84.73252 39.943388 C 81.171118 39.436066 80.19683 39.291117 79.46148 39.156521 C 79.047459 39.081976 77.916627 38.914249 76.950578 38.781724 C 75.224462 38.547735 73.601336 38.315816 69.98432 37.791928 C 68.983255 37.644908 67.570229 37.446121 66.845178 37.346727 C 66.120126 37.247333 65.273547 37.112737 64.962516 37.044404 C 64.017066 36.839405 61.294005 36.493597 60.694601 36.503951 C 60.383571 36.508092 59.508154 36.624052 58.748086 36.760718 C 57.990078 36.897384 56.832468 37.104455 56.175391 37.220414 C 55.520373 37.336373 54.842697 37.456474 54.669673 37.489605 C 54.49665 37.522737 53.565618 37.690464 52.59751 37.864403 C 51.631462 38.038342 50.3894 38.264048 49.837372 38.363442 C 49.283285 38.462836 48.296638 38.632633 47.639561 38.74031 C 46.984543 38.847986 46.212116 38.988794 45.923744 39.052986 C 45.635371 39.117178 44.871184 39.251774 44.228525 39.355309 C 43.583806 39.456773 42.267591 39.686621 41.301543 39.868843 C 40.333434 40.048994 39.035758 40.276771 38.413697 40.372024 C 37.791636 40.469347 37.142797 40.583236 36.969774 40.62465 C 36.79675 40.666064 36.034623 40.806871 35.274555 40.937326 C 32.607108 41.397022 32.069499 41.512981 31.929432 41.651718 C 31.853219 41.728334 31.760528 42.33505 31.725512 42.997675 C 31.671957 44.047521 31.692555 44.223531 31.884117 44.364339 C 32.079798 44.507218 32.085977 44.598328 31.95415 45.207115 C 31.84498 45.708225 31.816143 48.458119 31.84704 55.616539 C 31.882057 64.261723 31.908834 65.394398 32.090097 65.78369 C 32.201326 66.025962 32.331094 66.614042 32.37847 67.088233 C 32.423785 67.564494 32.516476 68.055251 32.58239 68.179493 C 32.648304 68.301664 32.788371 68.813128 32.893421 69.312167 C 32.998471 69.813278 33.132358 70.283327 33.192092 70.355802 C 33.251827 70.430347 33.342458 70.689185 33.391893 70.931457 C 33.53608 71.618931 34.539204 74.542763 34.703989 74.760187 C 34.757544 74.82852 34.839936 75.054227 34.887311 75.261297 C 34.934687 75.468367 35.091232 75.892861 35.235418 76.203467 C 35.501133 76.774981 35.676217 77.164273 36.283859 78.524725 C 36.811169 79.702955 38.106786 82.270626 38.281869 82.479767 C 38.368381 82.583302 38.475491 82.773807 38.522866 82.904261 C 38.737086 83.502694 41.699085 88.250816 42.417957 89.14536 C 42.564203 89.325511 42.766063 89.602985 42.869054 89.760359 C 42.974104 89.917732 43.178024 90.193135 43.322211 90.373287 C 43.468457 90.553438 43.977229 91.213992 44.453043 91.841415 C 44.928858 92.470909 45.690986 93.402725 46.150322 93.914189 C 46.607599 94.425652 47.277035 95.181459 47.637501 95.595599 C 49.089663 97.266657 53.207212 101.053972 55.421502 102.758161 C 56.632667 103.689977 58.472072 105.015227 58.686292 105.11255 C 58.789282 105.158105 59.376327 105.508054 59.992208 105.889063 C 60.60603 106.268002 61.149818 106.580678 61.199254 106.580678 C 61.250749 106.580678 61.361978 106.665577 61.44849 106.769112 C 61.532942 106.872647 61.65653 106.957546 61.722444 106.957546 C 61.786298 106.957546 62.350684 106.632446 62.974805 106.234871 Z M 61.13334 105.247146 C 60.128155 104.76053 56.803631 102.391646 54.354523 100.418266 C 53.299903 99.565137 48.677702 95.032368 47.583946 93.775451 C 46.780622 92.851918 44.617828 90.133085 43.835102 89.062532 C 42.957625 87.863595 40.568252 84.25643 40.454963 83.96239 C 40.409647 83.846431 39.948251 83.014009 39.42712 82.111182 C 38.90599 81.208356 38.446654 80.332448 38.403398 80.162651 C 38.360142 79.992853 38.246852 79.787853 38.150042 79.707096 C 38.053231 79.626339 37.974958 79.495884 37.974958 79.417198 C 37.974958 79.338511 37.869908 79.077602 37.7422 78.837401 C 37.614493 78.597199 37.241668 77.777201 36.914159 77.019324 C 36.58665 76.259376 36.209706 75.406246 36.079938 75.12256 C 35.948111 74.838874 35.841001 74.536551 35.841001 74.451652 C 35.841001 74.364683 35.758609 74.116198 35.657678 73.898774 C 35.32605 73.180241 34.835816 71.782516 34.835816 71.556809 C 34.835816 71.434638 34.724587 71.088831 34.58864 70.786508 C 34.450633 70.486256 34.337344 70.099035 34.335284 69.927166 C 34.333224 69.753227 34.246712 69.448834 34.141662 69.245905 C 34.036612 69.045047 33.896545 68.504593 33.832692 68.046968 C 33.766778 67.589343 33.63495 67.019899 33.53814 66.781769 C 33.441329 66.543638 33.32186 65.982477 33.272425 65.533135 C 33.225049 65.083792 33.1097 64.427379 33.017009 64.071218 C 32.839866 63.396169 32.846045 58.329159 33.029368 52.29099 C 33.074684 50.771094 33.126179 48.60928 33.140597 47.486959 C 33.165315 45.72272 33.200332 45.410044 33.393953 45.196762 C 33.517541 45.058024 33.669967 44.946207 33.731761 44.946207 C 33.793555 44.946207 34.077808 44.834389 34.364121 44.695651 C 34.650434 44.556914 34.942926 44.445096 35.017079 44.443026 C 35.089172 44.443026 35.317811 44.356056 35.523791 44.24838 C 35.888376 44.057875 36.885322 43.658229 38.162401 43.192321 C 38.784461 42.964544 42.030713 41.937475 43.12035 41.622728 C 43.43138 41.533688 44.335634 41.310052 45.128659 41.12576 C 45.923744 40.941467 46.883613 40.711619 47.262617 40.616367 C 47.64368 40.519044 48.376971 40.382377 48.896042 40.309903 C 49.413052 40.237428 50.288469 40.09662 50.840497 39.997227 C 51.944552 39.80051 54.49253 39.510611 56.929279 39.303541 C 59.141509 39.115107 63.778129 39.139956 67.073816 39.35945 C 68.61455 39.460915 69.914286 39.568591 69.961662 39.599652 C 70.011097 39.628641 70.643457 39.717682 71.366448 39.796368 C 72.816551 39.955813 75.063797 40.338893 76.134896 40.610155 C 76.5139 40.707478 77.078286 40.823437 77.389317 40.868993 C 77.700347 40.914548 78.322408 41.055356 78.769386 41.181669 C 82.1969 42.144546 83.521355 42.54005 84.545077 42.906564 C 84.924081 43.043231 85.828336 43.368331 86.553387 43.629239 C 88.446347 44.310501 88.394852 44.233885 88.495782 46.57792 C 88.543158 47.648474 88.631729 48.93438 88.693524 49.43549 C 88.755318 49.938671 88.83771 51.603516 88.874786 53.139978 C 88.913923 54.674369 89.006614 57.302091 89.082827 58.97936 C 89.222893 62.033647 89.126082 64.265865 88.790334 65.78369 C 88.722361 66.094295 88.580234 66.800405 88.477244 67.353283 C 88.374254 67.90616 88.238307 68.417624 88.176513 68.492169 C 88.114718 68.566714 88.009668 69.009845 87.943755 69.473682 C 87.877841 69.93959 87.772791 70.386862 87.706877 70.46762 C 87.643023 70.550448 87.519435 70.921104 87.430863 71.29383 C 87.344352 71.666557 87.196046 72.11797 87.101295 72.298121 C 87.008603 72.478272 86.928271 72.739181 86.926211 72.875847 C 86.924151 73.014584 86.810862 73.35418 86.679035 73.629583 C 86.545147 73.904987 86.433918 74.234228 86.431858 74.35847 C 86.429798 74.484783 86.281492 74.907207 86.102289 75.30064 C 85.609996 76.377406 85.46787 76.723213 85.303085 77.236747 C 85.220693 77.495585 85.101225 77.737858 85.037371 77.777201 C 84.973517 77.816544 84.922022 77.938716 84.922022 78.048463 C 84.922022 78.267958 82.365804 83.428149 82.106269 83.734613 C 82.017697 83.838148 81.910587 84.007946 81.869391 84.111481 C 81.826135 84.215016 81.622215 84.581531 81.414175 84.927338 C 81.206134 85.271075 80.928061 85.751478 80.794173 85.99375 C 80.538758 86.457587 80.005268 87.26102 78.586063 89.319299 C 76.971176 91.663335 74.233696 94.955752 71.677479 97.626959 C 68.989434 100.434832 62.628758 105.468711 61.804836 105.439721 C 61.642112 105.433509 61.34138 105.34861 61.13334 105.247146 Z M 63.644241 103.636139 C 64.589692 103.010786 66.387901 101.63584 66.92551 101.128517 C 67.003783 101.053972 67.312753 100.797205 67.613485 100.554933 C 69.185115 99.289733 71.529173 96.960193 74.000938 94.210299 C 74.466454 93.690553 75.902138 91.918031 76.322338 91.340305 C 76.460345 91.1498 76.701342 90.845407 76.859947 90.659044 C 77.222472 90.23455 77.255429 90.188994 77.716826 89.507733 C 77.926926 89.197127 78.522209 88.323291 79.04128 87.563343 C 79.873441 86.343699 80.423409 85.449155 81.189656 84.072138 C 81.311184 83.850573 81.550122 83.444715 81.721085 83.169311 C 82.001219 82.715827 83.968332 78.789775 84.557436 77.50801 C 84.689264 77.224323 84.796373 76.911647 84.796373 76.812253 C 84.796373 76.71493 84.872586 76.524426 84.967337 76.387759 C 85.062088 76.251093 85.179497 75.998467 85.230992 75.826599 C 85.282487 75.65266 85.399896 75.342054 85.490528 75.134984 C 85.774781 74.488925 86.246476 73.167816 86.541028 72.186303 C 86.697573 71.668627 86.928271 70.962518 87.055979 70.61671 C 87.183687 70.270903 87.325813 69.734591 87.373189 69.423985 C 87.420564 69.11338 87.537973 68.668179 87.634784 68.43626 C 87.729535 68.204341 87.807808 67.891665 87.807808 67.742575 C 87.807808 67.593484 87.896379 67.162778 88.005549 66.783839 C 88.114718 66.406971 88.283622 65.562125 88.380433 64.905712 C 88.477244 64.249299 88.611131 63.45829 88.679105 63.147685 C 88.854188 62.340111 88.83977 60.722892 88.631729 58.227695 C 88.532859 57.032899 88.41751 54.446591 88.374254 52.479424 C 88.330998 50.510185 88.273323 48.646553 88.242426 48.335947 C 88.213589 48.025342 88.131197 47.155647 88.063223 46.401911 C 87.923157 44.882015 87.818107 44.674944 87.078637 44.465803 C 86.823221 44.3954 86.219698 44.186259 85.737704 44.004037 C 85.25365 43.819744 84.610991 43.591967 84.30614 43.492573 C 84.003349 43.39525 83.688199 43.258584 83.603747 43.19025 C 83.519295 43.119847 83.202085 43.008029 82.899294 42.941766 C 81.955903 42.734696 80.476964 42.318485 80.213309 42.18596 C 80.075302 42.115556 79.708656 42.003738 79.397626 41.939546 C 79.086596 41.873283 78.522209 41.740758 78.143205 41.641365 C 77.3543 41.440507 76.575694 41.270709 74.878415 40.931114 C 74.223397 40.800659 73.488047 40.639145 73.24705 40.572882 C 73.006053 40.50662 72.283061 40.415509 71.642462 40.372024 C 71.001863 40.328539 70.328307 40.235357 70.147044 40.167024 C 69.568239 39.94753 63.771949 39.626571 61.071546 39.665914 C 57.627553 39.715611 54.556384 39.939247 52.28442 40.305761 C 50.434715 40.603943 48.420227 40.955962 47.890857 41.073992 C 47.579827 41.142325 47.044277 41.258285 46.69823 41.328689 C 46.354243 41.399092 45.732182 41.560607 45.318161 41.684849 C 44.904141 41.809092 44.296498 41.947829 43.966929 41.993384 C 43.639421 42.03894 43.215101 42.15697 43.025599 42.254293 C 42.836097 42.353686 42.568322 42.436515 42.430315 42.438585 C 42.292308 42.440656 41.952441 42.544191 41.676427 42.670504 C 41.398353 42.796817 40.947256 42.941766 40.671242 42.993534 C 40.397288 43.045301 40.115095 43.132271 40.045062 43.18818 C 39.977088 43.244089 39.666058 43.355907 39.355027 43.436664 C 38.743265 43.598179 35.105651 45.024893 34.244652 45.445246 C 33.95216 45.586054 33.659668 45.803478 33.593754 45.92772 C 33.474286 46.151356 33.391893 51.841647 33.391893 59.946378 C 33.391893 63.394099 33.42279 64.052582 33.606113 64.590965 C 33.723522 64.936772 33.85329 65.502074 33.896545 65.847882 C 33.937742 66.191618 34.048971 66.701011 34.141662 66.976415 C 34.236413 67.251818 34.351762 67.761211 34.399138 68.104948 C 34.444453 68.448684 34.555683 68.873178 34.644255 69.047118 C 34.730766 69.218986 34.874953 69.67247 34.961464 70.051408 C 35.047976 70.432418 35.163325 70.798932 35.21894 70.867265 C 35.272495 70.937669 35.356947 71.219285 35.406382 71.494688 C 35.455817 71.772163 35.604123 72.20701 35.731831 72.463777 C 35.861599 72.720544 35.966649 72.993877 35.966649 73.072564 C 35.966649 73.151251 36.049041 73.393523 36.147912 73.610947 C 36.248842 73.828371 36.413627 74.232158 36.514557 74.507561 C 37.035687 75.940487 37.202532 76.313214 38.765923 79.591137 C 39.42918 80.982649 41.392174 84.345471 42.607459 86.16976 C 43.338689 87.267232 43.993707 88.254958 44.06168 88.362634 C 44.131714 88.472381 44.504538 88.958997 44.891782 89.443541 C 45.279025 89.928086 45.878428 90.704599 46.226535 91.170507 C 46.572582 91.634345 47.272916 92.477121 47.781687 93.040352 C 48.290459 93.605654 48.838367 94.21237 48.999032 94.392521 C 50.38734 95.933124 53.374056 98.796906 54.842697 99.989631 C 55.522432 100.542509 56.204228 101.10781 56.360773 101.244477 C 56.515258 101.383214 56.768614 101.582001 56.9231 101.685537 C 57.077585 101.789072 57.55134 102.124526 57.97566 102.43099 C 58.402039 102.737454 59.285695 103.342099 59.940713 103.772805 C 60.597791 104.201441 61.275466 104.665278 61.44643 104.799874 L 61.75952 105.046287 L 62.136465 104.714975 C 62.346565 104.532753 63.02424 104.048209 63.644241 103.636139 Z M 51.715914 96.18575 C 50.661294 95.742619 50.366742 95.342974 50.449134 94.464996 C 50.510928 93.812724 50.646875 93.611866 51.308073 93.193584 C 51.779768 92.895403 52.453324 92.810504 52.766414 93.007221 C 52.898242 93.09212 52.890002 93.129392 52.723158 93.193584 C 52.609869 93.239139 52.399769 93.274341 52.259702 93.274341 C 51.938373 93.274341 51.069135 93.955603 50.962025 94.293127 C 50.840497 94.674137 51.12269 95.229085 51.637641 95.622518 C 52.014586 95.910346 52.220566 95.972467 52.789072 95.968326 C 53.23605 95.966255 53.590336 95.889639 53.790137 95.748831 C 53.959041 95.630801 54.200038 95.533478 54.323626 95.533478 C 54.447215 95.533478 54.859175 95.233226 55.23612 94.866712 C 55.872599 94.251713 55.924094 94.158532 55.924094 93.630502 C 55.924094 92.953382 55.625423 92.456414 54.531667 91.309244 C 53.637711 90.375357 53.493525 90.054398 53.701565 89.455965 C 53.932263 88.79127 54.572863 88.3792 55.378246 88.3792 C 56.152733 88.3792 56.719179 88.594553 56.620308 88.85132 C 56.525557 89.099804 56.682102 89.327582 56.80775 89.124653 C 56.960176 88.88031 56.71094 88.472381 56.200108 88.130715 C 55.765489 87.838746 55.75519 87.815969 56.029144 87.774555 C 56.480242 87.708292 57.254728 88.283947 57.349479 88.756068 C 57.450409 89.257178 57.293864 89.547076 56.712999 89.94258 C 56.154792 90.321519 56.039443 90.257327 56.399909 89.770712 C 56.612069 89.480814 56.632667 89.391773 56.49466 89.340006 C 56.397849 89.302733 56.251603 89.354501 56.169211 89.453895 C 56.086819 89.553288 55.96941 89.634046 55.909676 89.634046 C 55.732533 89.634046 55.781968 89.302733 55.985889 89.132936 C 56.272201 88.894805 56.090939 88.756068 55.491535 88.756068 C 55.063096 88.756068 54.863295 88.832684 54.556384 89.120511 C 53.928144 89.70652 54.014656 89.957075 55.295854 91.274042 C 56.218646 92.222424 56.426687 92.663484 56.426687 93.665704 L 56.426687 94.460854 L 55.687217 95.15454 C 54.519308 96.252012 52.883823 96.676506 51.715914 96.18575 Z M 66.519729 95.672215 C 65.65667 95.030297 65.339461 94.456713 65.339461 93.541462 C 65.339461 92.56409 65.473348 92.303182 66.033615 92.197576 C 66.944048 92.027778 67.644382 92.68212 67.339531 93.421361 C 67.253019 93.626361 67.096474 93.775451 66.962586 93.775451 C 66.558865 93.775451 66.583582 93.992875 67.038799 94.39045 C 67.566109 94.856358 68.153153 94.897772 68.917341 94.529187 C 69.193355 94.396662 69.475548 94.284844 69.543521 94.280703 C 69.714485 94.274491 70.484852 93.468987 70.484852 93.29919 C 70.484852 93.224645 70.598141 93.083837 70.736148 92.988584 C 71.003923 92.80015 70.952428 92.619999 70.661995 92.731817 C 70.561065 92.771161 70.484852 92.721464 70.484852 92.615858 C 70.484852 92.379798 71.228441 92.346667 71.317013 92.578585 C 71.422063 92.851918 70.793823 93.945249 70.252094 94.436006 C 69.436412 95.173176 67.885379 95.504488 67.121191 95.104843 C 66.062452 94.551965 65.788498 93.634644 66.575343 93.266059 L 66.995543 93.067271 L 66.653616 92.843635 C 66.317868 92.624141 66.305509 92.626211 66.000658 92.932675 C 65.726704 93.206008 65.699926 93.311614 65.778199 93.792017 C 65.893548 94.487773 66.71541 95.330549 67.477538 95.535549 C 68.181991 95.723983 69.185115 95.504488 69.949303 94.990954 C 70.546646 94.589238 71.588907 93.263988 71.605386 92.880908 C 71.619804 92.566161 72.015287 92.164445 72.40047 92.073334 C 72.837149 91.969799 72.865986 92.236919 72.460205 92.619999 C 72.3016 92.76909 71.988509 93.249493 71.761931 93.690553 C 71.294355 94.601662 70.752627 95.222873 70.039934 95.663933 C 69.619734 95.92277 69.354019 95.976609 68.289101 96.011811 C 67.055278 96.055295 67.024381 96.049083 66.519729 95.672215 Z M 51.610864 95.27464 C 51.118571 94.885348 51.151527 94.264137 51.687077 93.854138 C 52.084619 93.553886 52.416247 93.464846 53.013591 93.50626 C 53.409073 93.533179 53.250468 93.738179 52.754055 93.843785 C 52.342094 93.930754 51.781828 94.346965 51.781828 94.568531 C 51.781828 94.634793 51.923954 94.819086 52.096978 94.980601 C 52.267941 95.140045 52.410068 95.330549 52.410068 95.403024 C 52.410068 95.622518 51.961031 95.550044 51.610864 95.27464 Z M 52.925019 95.30363 C 53.106282 95.158681 53.489405 94.986813 53.779838 94.922621 C 54.381301 94.788025 55.168146 94.100552 55.170206 93.707118 C 55.172266 93.408937 54.727348 92.771161 54.115586 92.193434 C 53.880768 91.971869 53.458508 91.499749 53.176315 91.141517 C 52.502759 90.290459 52.463623 89.615409 53.042428 88.892734 C 53.538841 88.275665 54.103227 87.865665 54.611999 87.749706 C 55.318512 87.590262 55.402964 87.826322 54.750006 88.132786 C 54.132064 88.422685 53.326681 89.248895 53.211332 89.710662 C 53.108342 90.122732 53.43791 90.644549 54.480171 91.717173 C 55.833463 93.110756 55.992068 93.891411 55.093993 94.738328 C 54.655255 95.152469 54.206217 95.326408 53.163956 95.483781 L 52.59751 95.56868 Z M 60.665764 93.058988 C 60.18789 92.986514 59.815065 92.468838 59.815065 91.874546 C 59.815065 90.986215 60.365033 90.20763 62.587562 87.940211 C 65.627833 84.838298 65.712285 84.724409 65.277666 84.362036 C 65.174676 84.277137 65.02843 83.974815 64.952217 83.693199 C 64.826569 83.231432 64.838928 83.156887 65.073746 82.968453 C 65.298264 82.786231 65.308563 82.736534 65.149959 82.604009 C 65.001653 82.479767 64.878064 82.5481 64.466103 82.976736 C 64.017066 83.442644 63.916136 83.492341 63.522713 83.43022 C 62.729688 83.303907 61.922245 83.100978 61.664769 82.962241 C 61.526762 82.887696 61.02623 82.780019 60.554535 82.719969 C 60.084899 82.661989 59.429882 82.527393 59.098253 82.423858 C 58.070411 82.100829 55.258778 81.883405 54.167081 82.042849 C 53.701565 82.111182 53.279305 81.908253 52.346214 81.160729 C 51.371927 80.380074 51.268936 80.247549 51.353388 79.876894 C 51.499634 79.232905 51.812725 79.090027 53.087744 79.090027 C 53.917845 79.090027 54.438975 79.16043 54.953926 79.340582 C 55.345289 79.479319 55.751071 79.591137 55.852001 79.591137 C 55.952932 79.591137 56.4926 79.736086 57.048748 79.912096 C 57.858251 80.166792 58.058052 80.27861 58.058052 80.475327 C 58.058052 80.611993 58.142504 80.72174 58.247554 80.72174 C 58.350544 80.72174 58.434996 80.802498 58.434996 80.901892 C 58.434996 81.082043 59.011741 81.193861 60.381511 81.276689 C 61.063306 81.316032 61.506164 81.169012 61.368158 80.945376 C 61.310483 80.852195 61.355799 80.833558 61.504105 80.889467 C 61.668889 80.953659 61.708025 80.92674 61.65447 80.790074 C 61.615334 80.688609 61.637992 80.570579 61.703906 80.529165 C 61.986099 80.355226 61.782178 79.965934 61.149818 79.479319 C 60.313538 78.833259 59.477257 77.779272 58.781043 76.495436 L 58.247554 75.511852 L 58.224896 73.441149 C 58.212537 72.302262 58.200178 71.324891 58.193999 71.271052 C 58.187819 71.217214 58.084829 71.132315 57.965361 71.082618 C 57.843832 71.032922 57.275326 70.709892 56.7027 70.366155 C 56.128015 70.020348 55.483296 69.635197 55.267017 69.508884 C 54.504889 69.061612 53.433791 68.167069 53.028009 67.636969 C 52.556314 67.02197 52.080499 66.533284 52.014586 66.595405 C 51.989868 66.618183 51.633522 66.582981 51.223621 66.518789 C 50.535646 66.409042 49.769399 66.061164 49.460428 65.717427 C 49.390395 65.640811 49.169996 65.468943 48.970195 65.336418 C 48.770393 65.201822 48.459363 64.994752 48.28016 64.874651 C 47.637501 64.446016 47.157567 64.243087 46.961885 64.319703 C 46.516967 64.4895 46.827998 66.388335 47.447999 67.28702 C 47.629262 67.55207 47.765209 67.943433 47.783747 68.26025 C 47.812584 68.753078 47.85378 68.811057 48.350193 69.042976 C 48.978434 69.339087 49.145278 69.602066 49.145278 70.287469 C 49.145278 70.854841 48.978434 71.045346 48.770393 70.714033 C 48.679762 70.571155 48.648865 70.558731 48.681822 70.678831 C 48.710659 70.782367 48.690061 70.987366 48.634446 71.134386 C 48.558234 71.345598 48.59943 71.430497 48.842487 71.540244 C 49.505744 71.842566 49.071125 72.563171 48.224545 72.563171 C 47.427401 72.563171 46.846536 72.103475 46.350123 71.080548 C 46.125605 70.61671 45.814574 70.109388 45.660089 69.956156 C 45.33464 69.628985 45.279025 69.233481 45.575637 69.347369 C 45.682747 69.388784 45.738361 69.368076 45.697165 69.305955 C 45.658029 69.241764 45.742481 69.080249 45.882548 68.947724 C 46.107066 68.738583 46.117365 68.688886 45.954641 68.55429 C 45.85371 68.469391 45.653909 68.43626 45.511783 68.481816 C 45.307862 68.546007 45.254307 68.506664 45.254307 68.295452 C 45.254307 68.131867 45.200752 68.061463 45.1163 68.115301 C 45.031848 68.167069 45.005071 68.380351 45.050387 68.653684 L 45.12248 69.107168 L 44.875303 68.732371 C 44.673442 68.423836 44.628127 68.14015 44.628127 67.14 C 44.628127 66.471163 44.669323 65.897578 44.720818 65.866518 C 44.772313 65.835457 44.819689 66.100507 44.823808 66.454597 C 44.836167 67.396767 45.12248 67.864746 45.744541 67.96414 C 46.236834 68.042827 46.636436 68.403129 46.636436 68.767573 C 46.636436 68.858684 46.500489 69.069895 46.335705 69.233481 C 46.047332 69.521308 46.045272 69.544086 46.257432 69.736662 C 46.38102 69.84848 46.632316 70.275044 46.817699 70.687114 C 47.157567 71.444991 47.820824 72.05999 48.296638 72.05999 C 48.620028 72.05999 48.568533 71.848779 48.224545 71.76388 C 47.380025 71.550597 47.01544 70.801003 47.513913 70.304034 C 47.816704 70.001712 48.17923 69.981005 48.447004 70.250196 C 48.626207 70.428276 48.644745 70.426206 48.644745 70.210853 C 48.644745 69.914742 48.409928 69.674541 48.117435 69.674541 C 47.763149 69.674541 47.388265 69.216915 47.388265 68.782068 C 47.388265 68.566714 47.22554 68.071816 47.025739 67.682524 C 46.310987 66.286871 46.049392 64.363188 46.510788 63.901421 C 46.819759 63.592886 47.071055 63.592886 47.639561 63.901421 C 47.880558 64.031875 48.220426 64.212026 48.393449 64.303137 C 48.566473 64.392177 49.149398 64.760763 49.693186 65.121065 C 50.234914 65.481367 50.799301 65.81268 50.947607 65.860306 C 51.095913 65.905861 51.254518 66.001114 51.299833 66.073588 C 51.345149 66.143992 51.64794 66.191618 51.96927 66.179194 C 52.49246 66.160558 52.591331 66.201972 52.890002 66.566415 C 53.598575 67.429899 54.60582 68.31823 55.6522 69.001562 C 56.251603 69.390854 57.23413 70.041055 57.839713 70.444842 C 58.443235 70.846558 58.937588 71.126103 58.937588 71.061911 C 58.937588 70.99772 58.593601 70.730599 58.171341 70.46762 C 57.153798 69.831914 55.598645 68.676462 55.013661 68.125655 C 54.653195 67.783989 54.544025 67.58106 54.544025 67.262172 C 54.544025 66.653385 54.846817 66.286871 55.347349 66.286871 C 55.707815 66.286871 55.909676 66.442173 56.877784 67.46303 C 57.493665 68.11116 58.432936 69.018128 58.968485 69.479894 C 59.504035 69.941661 59.940713 70.376509 59.940713 70.442771 C 59.940713 70.511104 60.140514 70.772013 60.385631 71.022568 C 60.779053 71.428426 62.006697 73.140897 62.418658 73.861502 C 62.665834 74.294279 62.618459 74.834732 62.325967 74.911348 C 62.18796 74.94655 62.07467 75.025237 62.07467 75.085287 C 62.07467 75.145338 62.202378 75.141196 62.356864 75.079075 C 62.513409 75.016954 62.783243 74.934126 62.960386 74.896853 C 63.518593 74.778823 63.833743 74.023017 63.833743 72.788878 C 63.833743 72.107616 63.891418 71.649991 63.998528 71.502971 C 64.249824 71.161305 64.832749 71.215143 65.174676 71.612718 C 65.432152 71.91297 65.465109 72.078627 65.465109 73.124332 C 65.465109 74.331551 65.224111 75.203317 64.746237 75.731346 C 64.562914 75.934275 64.567034 75.950841 64.82039 75.950841 C 65.271487 75.950841 65.415673 76.458163 65.149959 77.106293 C 64.911021 77.681949 64.863646 77.911797 64.847167 78.555785 C 64.838928 78.887098 64.746237 79.019623 64.334276 79.278461 C 64.031485 79.468965 63.833743 79.69053 63.833743 79.83755 C 63.833743 80.197853 63.390886 80.413206 62.931549 80.272398 C 62.8162 80.237196 62.546366 79.901742 62.334206 79.524874 C 61.899587 78.754573 61.841913 78.123008 62.140584 77.408616 C 62.311548 77.000687 62.311548 76.913718 62.140584 76.584476 C 62.035534 76.381547 61.949022 75.983972 61.949022 75.702357 C 61.949022 75.325489 61.893408 75.172257 61.730683 75.12256 C 61.285765 74.985893 61.12716 74.849227 60.857326 74.370895 C 60.540116 73.809734 59.716194 72.940039 59.501975 72.940039 C 59.193004 72.940039 58.81194 72.360242 58.81194 71.888122 C 58.81194 71.575446 58.764565 71.447062 58.671874 71.502971 C 58.587422 71.556809 58.562704 71.774233 58.610079 72.068273 C 58.653335 72.339535 58.632737 72.581807 58.560644 72.625292 C 58.233135 72.82615 58.622438 74.998318 59.166227 76.015033 C 59.751211 77.108364 60.566894 78.164422 61.396995 78.907805 C 62.142644 79.574571 62.325967 79.810631 62.325967 80.10053 C 62.325967 80.502246 62.140584 80.990932 61.790417 81.506537 C 61.518523 81.906183 61.172476 81.937243 59.427822 81.719819 C 58.130145 81.558304 57.874729 81.45684 57.66051 81.024063 C 57.569878 80.8377 57.363898 80.636842 57.207353 80.580933 C 56.970475 80.493963 56.900442 80.529165 56.801571 80.788003 C 56.70476 81.042699 56.59971 81.098608 56.210407 81.096538 C 55.648081 81.094467 55.462698 80.995073 55.402964 80.663761 C 55.34117 80.320024 55.911736 80.048762 56.348414 80.214418 C 56.554395 80.293105 56.696521 80.293105 56.743897 80.214418 C 56.863365 80.021843 56.469943 79.932803 55.882898 80.021843 C 55.508014 80.077752 55.22994 80.044621 54.974525 79.910025 C 54.772664 79.804419 54.49459 79.71745 54.354523 79.71745 C 54.216516 79.715379 53.891067 79.638763 53.631532 79.549723 C 53.371997 79.458612 53.003292 79.406844 52.81173 79.435834 C 52.354453 79.504167 51.845682 79.891389 51.96309 80.083964 C 52.026944 80.187499 52.146413 80.135732 52.352393 79.912096 C 52.80555 79.421339 53.790137 79.54351 53.790137 80.088105 C 53.790137 80.736235 53.33698 80.908104 52.616048 80.533306 C 52.160832 80.297246 52.086679 80.297246 52.28442 80.533306 C 52.370932 80.636842 52.49658 80.72174 52.564553 80.72174 C 52.634587 80.72174 52.951797 80.914316 53.273126 81.150376 L 53.85811 81.579011 L 55.738712 81.583153 C 57.003432 81.585224 57.887088 81.651486 58.434996 81.78194 C 58.884033 81.891688 59.646161 82.038707 60.130215 82.111182 C 60.989154 82.239566 61.567959 82.380373 62.939788 82.794514 L 63.615404 82.997443 L 64.006767 82.630929 C 64.220987 82.43007 64.488761 82.233354 64.599991 82.19401 C 64.71122 82.156738 64.834808 81.953809 64.878064 81.744668 C 64.956337 81.345022 65.364178 81.032346 65.65667 81.146235 C 65.920325 81.247699 66.468233 82.183657 66.468233 82.531535 C 66.468233 82.922898 66.159263 83.233503 65.76996 83.233503 C 65.405374 83.233503 65.386836 83.415725 65.695807 83.923047 C 66.196339 84.745116 66.165442 84.890065 65.275607 85.840518 C 64.828629 86.320921 64.229226 87.006324 63.942913 87.364555 C 63.65866 87.722787 63.244639 88.138998 63.022181 88.29016 C 62.107627 88.919653 60.317657 91.278184 60.317657 91.853839 C 60.317657 92.21 60.70902 92.520606 61.155998 92.520606 C 61.652411 92.520606 62.344505 92.276263 62.255933 92.133384 C 62.218857 92.071263 62.014936 92.108536 61.802776 92.218283 C 61.586497 92.330101 61.291945 92.383939 61.123041 92.342525 C 60.375332 92.154091 60.723439 90.514094 61.512344 90.514094 C 61.893408 90.514094 62.474273 91.079396 62.447495 91.425204 C 62.435136 91.580506 62.431017 91.750304 62.437196 91.806213 C 62.457794 91.947021 63.201384 91.495608 63.219922 91.334093 C 63.228161 91.261618 63.246699 91.14773 63.263178 91.077326 C 63.279656 91.008992 63.300254 90.733589 63.310553 90.466468 C 63.329091 90.008843 63.483577 89.828692 65.98212 87.34799 C 68.548636 84.798954 68.628968 84.703702 68.563055 84.295774 C 68.525978 84.065926 68.266443 83.585523 67.984249 83.229362 C 67.547571 82.676484 67.473418 82.494262 67.473418 81.980728 C 67.473418 81.460981 67.55375 81.268406 68.060462 80.578862 C 68.381792 80.139873 68.935879 79.471036 69.290166 79.090027 C 69.644452 78.711088 70.206778 78.075382 70.538407 77.677807 C 71.108973 76.996546 71.127511 76.957203 70.839138 76.957203 C 70.19236 76.957203 70.050233 76.383618 70.523988 75.687862 C 70.964787 75.03559 70.991564 74.880288 70.785584 74.188673 C 70.61462 73.610947 70.61462 73.517765 70.793823 73.244432 C 70.902992 73.078776 71.125451 72.908978 71.292295 72.867564 C 71.66306 72.774383 72.114157 73.000089 72.130636 73.289988 C 72.171832 74.052006 72.077081 75.774831 71.988509 75.82867 C 71.848443 75.915639 71.238741 76.816395 71.24286 76.930283 C 71.24492 76.97998 71.411764 76.820536 71.615685 76.580335 C 71.957612 76.174477 71.98645 76.162053 71.988509 76.427103 C 71.994689 76.874374 71.310834 77.826898 69.899868 79.338511 C 69.543521 79.71952 69.078006 80.257903 68.865846 80.533306 C 68.653686 80.810781 68.422988 81.10482 68.350895 81.189719 C 68.124316 81.460981 67.98013 81.968304 68.066642 82.19401 C 68.111957 82.316182 68.365313 82.719969 68.626908 83.094766 C 69.038869 83.682846 69.104783 83.87128 69.104783 84.46143 L 69.104783 85.146833 L 66.468233 87.751777 C 65.018131 89.184703 63.827564 90.462327 63.819325 90.59071 C 63.813145 90.721165 63.817265 90.988285 63.829624 91.185002 C 63.862581 91.657122 63.44856 92.087829 62.577263 92.493686 C 61.934604 92.791868 61.007692 93.166665 61.007692 93.129392 C 61.007692 93.119039 60.855266 93.087978 60.665764 93.058988 Z M 61.621514 91.336163 C 61.543241 91.135305 61.524703 91.133235 61.421712 91.315456 C 61.285765 91.557729 61.421712 91.843486 61.590616 91.673688 C 61.65447 91.611567 61.668889 91.458335 61.621514 91.336163 Z M 65.701986 82.185727 C 65.619594 82.005576 65.504245 81.889617 65.44657 81.924819 C 65.283846 82.026283 65.316803 82.187798 65.541321 82.413505 C 65.813216 82.684767 65.883249 82.585373 65.701986 82.185727 Z M 53.254588 80.144014 C 53.213392 80.1026 53.104222 80.098459 53.013591 80.133661 C 52.91472 80.173004 52.943557 80.204065 53.089803 80.210277 C 53.221631 80.214418 53.295784 80.185428 53.254588 80.144014 Z M 62.985104 78.485381 C 62.913011 77.222253 63.02424 76.895081 64.023246 75.449731 C 64.334276 75.000388 64.643247 74.435086 64.71122 74.194885 C 64.906902 73.501199 64.869825 72.244283 64.649426 72.05999 C 64.544376 71.975091 64.459924 71.925395 64.457864 71.950243 C 64.455804 71.977162 64.443446 72.542464 64.426967 73.20923 C 64.40019 74.346046 64.373412 74.455793 64.002647 74.967257 C 63.691617 75.397963 63.520653 75.520135 63.186965 75.549125 C 62.459854 75.611246 62.39806 75.663013 62.626698 76.010891 C 62.861516 76.369123 62.886233 77.116647 62.690552 77.897302 C 62.575203 78.354927 62.587562 78.545432 62.768825 79.019623 C 62.890353 79.33437 63.001582 79.591137 63.018061 79.591137 C 63.034539 79.591137 63.020121 79.094168 62.985104 78.485381 Z M 63.592746 78.984421 C 63.384706 78.597199 63.436201 77.828969 63.708095 77.269879 C 64.027365 76.605183 64.019126 76.412608 63.693677 76.924071 C 63.374407 77.423111 63.23434 78.673815 63.45062 79.079673 C 63.533012 79.234976 63.629823 79.33437 63.66484 79.299168 C 63.699856 79.266036 63.666899 79.123158 63.592746 78.984421 Z M 64.165372 78.212049 C 64.198329 77.994625 64.307499 77.586696 64.406369 77.307151 C 64.676204 76.540991 64.616469 76.443668 64.278661 77.100081 C 64.008827 77.62604 63.907896 78.075382 63.944973 78.576492 C 63.965571 78.862249 64.097398 78.646896 64.165372 78.212049 Z M 71.638343 75.532559 C 71.786649 75.255085 71.646582 73.567462 71.475618 73.567462 C 71.411764 73.567462 71.397345 73.946401 71.444721 74.451652 C 71.516814 75.236448 71.496216 75.379327 71.257279 75.702357 C 71.108973 75.903215 70.987444 76.106144 70.987444 76.15377 C 70.987444 76.286295 71.494156 75.79968 71.638343 75.532559 Z M 61.757461 74.099633 C 61.308423 73.395594 60.39799 72.142818 60.033404 71.726607 C 59.664699 71.308325 59.65234 71.304184 59.479317 71.552668 C 59.275396 71.842566 59.4443 72.310545 59.753271 72.310545 C 60.039584 72.310545 60.826429 73.068423 61.283706 73.786956 C 61.516463 74.149329 61.76776 74.44544 61.841913 74.44544 C 61.920185 74.44544 61.883109 74.296349 61.757461 74.099633 Z M 48.267801 71.001861 C 48.267801 70.970801 48.210127 70.91075 48.142153 70.867265 C 48.07212 70.825851 48.016505 70.8507 48.016505 70.923174 C 48.016505 70.995649 48.07212 71.055699 48.142153 71.055699 C 48.210127 71.055699 48.267801 71.030851 48.267801 71.001861 Z M 59.565829 70.805144 C 59.565829 70.736811 59.508154 70.678831 59.440181 70.678831 C 59.370147 70.678831 59.314533 70.736811 59.314533 70.805144 C 59.314533 70.873477 59.370147 70.931457 59.440181 70.931457 C 59.508154 70.931457 59.565829 70.873477 59.565829 70.805144 Z M 59.244499 70.448983 C 59.178585 70.391004 58.589481 69.918883 57.932404 69.397066 C 57.277386 68.875249 56.436986 68.100806 56.064161 67.672171 C 55.582167 67.119293 55.351469 66.935001 55.254658 67.032324 C 55.157847 67.127576 55.297914 67.349141 55.740772 67.804696 C 56.385491 68.46525 59.034399 70.540094 59.244499 70.548377 C 59.320712 70.552519 59.320712 70.515246 59.244499 70.448983 Z M 70.233556 91.777223 C 69.502325 91.713031 69.446711 91.688183 69.691827 91.547375 C 69.844253 91.462476 70.1903 91.392072 70.464254 91.392072 C 71.257279 91.392072 71.465319 91.12081 71.551831 89.977782 C 71.621864 89.048037 71.611565 88.996269 71.341731 88.896875 C 71.185186 88.838896 70.944188 88.805765 70.804122 88.820259 C 70.664055 88.836825 70.266513 88.857532 69.920466 88.867886 C 69.436412 88.882381 69.197474 88.967279 68.869965 89.238541 C 68.350895 89.669248 68.410629 90.052328 69.038869 90.315307 C 69.475548 90.497529 69.722724 90.948942 69.504385 91.166366 C 69.434352 91.23677 69.125381 91.323739 68.81641 91.356871 C 68.367373 91.408638 68.179931 91.365153 67.87302 91.139447 C 67.407504 90.793639 67.253019 90.300812 67.529033 90.027479 C 67.693817 89.859752 67.724714 89.859752 67.724714 90.015055 C 67.724714 90.116519 67.852422 90.358792 68.008967 90.553438 C 68.245845 90.847478 68.369433 90.901316 68.729899 90.857831 L 69.166577 90.808134 L 68.750497 90.70667 C 68.167572 90.561721 67.959532 90.201418 68.099599 89.578137 C 68.303519 88.67324 69.063587 88.341927 70.800002 88.401977 L 71.928775 88.441321 L 71.967911 89.066673 C 72.048244 90.315307 71.607446 91.928385 71.203724 91.872476 C 71.119272 91.860051 70.682593 91.818637 70.233556 91.777223 Z M 72.254224 91.777223 C 72.103858 91.681971 72.101799 91.441769 72.241865 90.116519 C 72.334556 89.26339 72.470504 88.52622 72.544657 88.474452 C 72.620869 88.424755 73.389176 88.38127 74.252234 88.3792 C 75.807387 88.375058 76.248185 88.288089 76.079281 88.014756 C 76.029846 87.936069 75.953633 87.894655 75.906257 87.921574 C 75.858882 87.948494 74.353165 88.010615 72.559075 88.060312 C 70.39628 88.118291 69.170697 88.201119 68.917341 88.306725 C 68.544516 88.464099 67.815346 89.190915 67.691757 89.52844 C 67.646442 89.650611 67.590827 89.658894 67.483717 89.5595 C 67.203584 89.298592 67.741193 88.451674 68.50744 87.948494 C 68.787573 87.766272 69.321063 87.722787 72.138875 87.660666 C 73.957682 87.619252 75.66732 87.579908 75.939214 87.573696 C 76.396491 87.563343 76.445926 87.594403 76.557156 87.977483 C 76.759016 88.67531 76.546857 88.768492 74.713631 88.795411 C 72.960737 88.820259 72.779474 88.892734 72.688843 89.607127 C 72.571434 90.528589 72.585853 91.220204 72.72386 91.476971 C 72.804192 91.628133 72.870106 91.783435 72.870106 91.822779 C 72.870106 91.932526 72.451965 91.901465 72.254224 91.777223 Z M 62.107627 90.520307 C 61.705965 90.186923 61.751281 89.729298 62.233275 89.221976 C 62.762645 88.660815 63.164307 88.530361 63.401185 88.838896 C 63.629823 89.132936 63.533012 89.547076 63.104573 90.122732 C 62.569024 90.841265 62.517528 90.861973 62.107627 90.520307 Z M 62.766765 89.634046 C 63.102513 89.26339 62.92331 89.20334 62.577263 89.571925 C 62.414538 89.743793 62.340385 89.884601 62.410419 89.884601 C 62.480452 89.884601 62.641117 89.772783 62.766765 89.634046 Z M 64.050023 88.201119 C 63.738992 87.965059 63.893478 87.635817 64.830689 86.527991 C 65.673149 85.534054 66.19016 85.171681 66.414678 85.413953 C 66.488831 85.494711 66.527968 85.629306 66.49913 85.714205 C 66.466174 85.811528 66.521788 85.840518 66.647436 85.792892 C 67.147969 85.600316 66.723649 86.256729 65.607235 87.405969 C 64.643247 88.397836 64.441386 88.499301 64.050023 88.201119 Z M 66.019196 86.130416 C 65.942983 86.0538 65.498065 86.484507 64.929559 87.186475 C 64.459924 87.766272 64.482582 87.751777 65.246769 86.998041 C 65.699926 86.548698 66.048033 86.159406 66.019196 86.130416 Z M 67.599066 85.097136 C 67.599066 85.014308 67.693817 84.840369 67.811226 84.711985 C 68.011027 84.49249 68.008967 84.455218 67.802987 84.105269 C 67.617604 83.792593 67.613485 83.734613 67.77003 83.734613 C 68.043984 83.734613 68.350895 84.088703 68.348835 84.401379 C 68.346775 84.747187 68.235546 84.912843 67.881259 85.101277 C 67.66086 85.215166 67.599066 85.215166 67.599066 85.097136 Z M 67.246839 84.838298 C 67.038799 84.631228 67.059397 84.173602 67.283916 83.985168 C 67.446641 83.850573 67.473418 83.908552 67.473418 84.409662 C 67.473418 85.045368 67.465179 85.057792 67.246839 84.838298 Z M 73.008113 80.57265 C 72.818611 80.133661 72.793893 79.889318 72.874225 79.278461 C 72.92984 78.86432 72.979275 78.402553 72.985455 78.251392 C 72.991634 78.102301 73.13994 77.808261 73.317083 77.59912 C 73.642532 77.209828 74.007118 75.791397 73.827915 75.611246 C 73.66931 75.453872 73.502466 75.865942 73.500406 76.41882 C 73.498346 77.000687 73.197615 77.288515 72.738278 77.141495 C 72.460205 77.054526 72.118277 76.470587 72.118277 76.083366 C 72.118277 75.689932 72.307779 75.772761 72.734159 76.352557 L 73.121402 76.880587 L 73.121402 76.143416 C 73.121402 75.186752 73.358279 74.869934 73.87529 75.134984 C 74.320208 75.366903 74.373763 75.524276 74.30167 76.404325 C 74.262533 76.895081 74.124527 77.336141 73.87323 77.77306 C 73.380937 78.636543 73.172897 79.609773 73.376818 80.1026 C 73.623994 80.698963 73.731104 80.531236 73.735224 79.533157 C 73.739343 78.576492 73.932965 78.025685 74.620939 77.019324 C 74.763066 76.812253 74.966987 76.373264 75.076156 76.046093 C 75.341871 75.250943 75.694098 75.209529 75.599347 75.983972 C 75.525194 76.592759 75.195625 77.342353 74.561205 78.336291 C 74.165723 78.955431 74.128646 79.092097 74.19044 79.655328 C 74.29549 80.607852 74.134826 81.026134 73.642532 81.075831 C 73.273827 81.111033 73.220272 81.069619 73.008113 80.57265 Z M 58.912871 80.761084 C 59.003502 80.725882 59.112672 80.730023 59.153868 80.771437 C 59.195064 80.812851 59.120911 80.841841 58.989083 80.8377 C 58.842837 80.831488 58.814 80.802498 58.912871 80.761084 Z M 75.836224 76.435385 C 75.722935 75.874225 75.739413 75.323418 75.869181 75.323418 C 76.103999 75.323418 76.244065 76.621749 76.023666 76.758415 C 75.963932 76.795688 75.87948 76.650739 75.836224 76.435385 Z M 76.668385 76.298719 C 76.668385 75.53463 76.480943 74.064431 76.373833 74.000239 C 76.312039 73.960895 76.260544 73.65029 76.260544 73.310695 C 76.260544 72.712262 76.277022 72.683272 76.880545 72.275343 C 77.638553 71.76595 78.361544 70.869336 78.83118 69.862974 C 79.127792 69.225198 79.189586 68.900098 79.241081 67.73015 C 79.274038 66.970203 79.234901 65.671872 79.154569 64.843591 C 79.074237 64.013239 79.004203 63.011019 79.000084 62.613444 C 78.995964 62.215869 78.940349 61.857637 78.878555 61.820364 C 78.816761 61.781021 78.798223 61.696122 78.839419 61.63193 C 78.878555 61.567739 78.876495 61.402082 78.83324 61.265416 C 78.759087 61.031427 78.730249 61.037639 78.353305 61.389658 C 77.961942 61.758243 77.642673 61.791375 77.329582 61.497335 C 77.049449 61.236426 77.243071 60.439206 77.838354 59.387289 C 78.260614 58.639765 78.441877 58.177998 78.448056 57.83012 C 78.460415 57.144717 78.209119 57.126081 78.021677 57.796989 C 77.700347 58.942087 76.835229 59.844914 76.206989 59.68754 C 75.687918 59.557086 75.584928 59.229915 75.764131 58.27118 C 75.941274 57.304161 76.211108 56.726435 76.752837 56.142497 C 77.271908 55.583407 77.580878 55.844316 77.115363 56.451032 C 76.794033 56.867243 76.279082 58.146937 76.258484 58.577644 C 76.225527 59.298248 76.235826 59.316885 76.526259 59.055976 C 76.92792 58.697744 77.428453 57.883958 77.640613 57.248252 C 77.805397 56.753354 77.87749 56.678809 78.229717 56.645678 C 78.680814 56.600122 78.93417 56.883809 79.082476 57.59406 C 79.177227 58.053756 78.897093 58.925522 78.429518 59.619207 C 78.270913 59.853197 78.143205 60.09961 78.143205 60.163802 C 78.143205 60.230065 78.029916 60.426781 77.891909 60.602791 C 77.434632 61.184659 77.603536 61.352386 78.128786 60.840922 C 78.431578 60.544811 78.647857 60.416428 78.701412 60.501327 C 78.746728 60.575872 78.890914 60.637993 79.020682 60.637993 C 79.342011 60.637993 79.432643 61.006578 79.333772 61.928041 C 79.276098 62.478848 79.313174 62.967534 79.46354 63.586674 C 79.599487 64.154047 79.696298 65.2246 79.735434 66.599547 C 79.793108 68.603987 79.77869 68.786209 79.496497 69.612419 C 79.333772 70.096964 79.078356 70.718175 78.93211 70.993578 C 78.581943 71.654132 77.67151 72.581807 76.915562 73.047716 C 76.787854 73.126402 76.781674 73.383169 76.882605 74.26736 C 77.053569 75.754124 77.045329 76.110285 76.841409 76.38983 C 76.678684 76.613466 76.668385 76.607254 76.668385 76.298719 Z M 72.746517 74.567611 C 72.804192 74.250794 72.787713 74.03337 72.705321 73.981603 C 72.631168 73.936047 72.548776 73.965037 72.521999 74.045794 C 72.443726 74.283925 72.243925 74.215592 72.243925 73.950542 C 72.243925 73.635795 72.365454 73.571603 72.713561 73.702058 C 72.9319 73.784886 72.995754 73.909128 72.995754 74.242511 C 72.995754 74.727056 72.892764 75.072863 72.748577 75.072863 C 72.697082 75.072863 72.695022 74.845086 72.746517 74.567611 Z M 74.800142 72.569383 C 74.653896 72.507262 74.497351 72.306404 74.449976 72.124182 C 74.379942 71.844637 74.449976 71.710041 74.868116 71.302113 C 76.09164 70.1156 76.427388 69.146511 76.305859 67.146212 C 76.211108 65.568337 76.450046 64.501925 77.026791 63.951118 C 77.411974 63.582533 77.725065 63.636371 77.510845 64.033946 C 77.407855 64.226521 77.422274 64.278289 77.572639 64.278289 C 77.679749 64.278289 77.766261 64.19339 77.766261 64.089855 C 77.766261 63.98632 77.823935 63.901421 77.896029 63.901421 C 78.134966 63.901421 78.172042 64.276218 77.972241 64.696571 C 77.813636 65.029954 77.77862 65.553842 77.790979 67.371919 C 77.803337 69.546157 77.790979 69.660046 77.484068 70.333024 C 76.684864 72.076556 75.661141 72.931756 74.800142 72.569383 Z M 75.630244 71.811506 C 76.056623 71.507113 76.656026 70.591862 76.995894 69.722167 C 77.210114 69.175501 77.25337 68.722017 77.288386 66.732072 C 77.323403 64.580611 77.311044 64.419097 77.14214 64.802177 C 77.004133 65.114853 76.962937 65.661518 76.981475 66.976415 C 77.014432 69.421915 76.740478 70.318529 75.586988 71.52782 C 75.04114 72.097263 75.059678 72.217364 75.630244 71.811506 Z M 72.419008 71.937819 C 72.206849 71.85292 72.140935 71.683122 72.077081 71.078477 C 71.947313 69.833985 71.193425 68.968431 69.104783 67.663888 C 68.725779 67.425757 68.357074 67.187626 68.289101 67.133788 C 68.219067 67.07995 67.76797 66.777627 67.283916 66.46081 C 64.670024 64.744197 63.123111 62.913696 62.579323 60.89476 C 62.459854 60.453701 62.470153 60.314963 62.634937 60.062338 C 62.867695 59.708247 63.512414 59.648197 63.903777 59.942237 C 64.037664 60.043701 64.231286 60.1286 64.336336 60.130671 C 64.876005 60.143095 66.089229 61.037639 66.416738 61.667132 C 66.760726 62.325616 66.519729 62.319404 65.76378 61.654708 C 65.456869 61.385517 64.997533 61.068699 64.740057 60.950669 C 64.482582 60.832639 64.031485 60.617286 63.736933 60.474408 C 63.405304 60.314963 63.158128 60.259054 63.086034 60.331529 C 62.985104 60.435064 63.351749 61.422789 63.712215 62.019152 C 63.774009 62.122687 63.918195 62.389808 64.031485 62.613444 C 64.461984 63.464503 66.814281 65.57869 68.175811 66.338638 C 68.701061 66.630607 68.954417 66.794193 69.691827 67.322222 C 70.052293 67.58106 70.39628 67.792272 70.453955 67.792272 C 70.513689 67.792272 70.884454 68.100806 71.279937 68.477674 C 72.079141 69.241764 72.61675 70.23363 72.61881 70.954235 C 72.61881 71.208931 72.668245 71.449133 72.727979 71.484335 C 72.870106 71.573375 73.928845 70.867265 74.478813 70.318529 C 75.306854 69.490248 75.724995 68.005554 75.383067 67.106869 C 75.315094 66.928788 75.201804 66.423537 75.131771 65.982477 C 75.061738 65.543488 74.921671 65.025813 74.8228 64.833237 C 74.72187 64.640662 74.600341 64.170612 74.552966 63.787532 C 74.50559 63.406523 74.390241 62.909554 74.29549 62.685918 C 74.180141 62.406373 74.126586 61.712688 74.126586 60.499256 C 74.126586 58.200776 74.324328 57.606484 75.506655 56.364062 C 76.328517 55.500579 76.973236 55.109216 76.802272 55.577195 C 76.756957 55.701437 76.50978 56.038962 76.250245 56.322648 C 75.426323 57.231687 74.870176 58.190422 74.645657 59.087037 C 74.526188 59.559157 74.437617 60.060267 74.447916 60.199004 C 74.51383 61.124608 74.802202 63.106271 74.884594 63.211877 C 74.940209 63.282281 75.076156 63.729552 75.187386 64.207885 C 75.296555 64.686217 75.438682 65.13763 75.498416 65.210105 C 75.698217 65.454448 75.8836 66.8149 75.87948 68.034544 C 75.87742 69.796712 75.424263 70.627064 73.951503 71.579587 C 73.203794 72.064132 72.903063 72.134536 72.419008 71.937819 Z M 62.836798 71.320749 C 62.622578 70.923174 62.647296 69.270753 62.871815 68.833835 C 63.094274 68.4052 63.76577 67.792272 64.012946 67.792272 C 64.361053 67.792272 64.836868 68.307877 64.836868 68.684745 C 64.836868 69.065754 64.439326 69.972722 64.210688 70.11353 C 64.140654 70.157014 64.08092 70.401357 64.07886 70.656054 C 64.07886 70.91075 64.000588 71.217214 63.909956 71.339386 C 63.681318 71.639638 62.999523 71.629284 62.836798 71.320749 Z M 63.891418 69.283178 C 64.196269 68.823482 64.220987 68.546007 63.959392 68.546007 C 63.899657 68.546007 63.708095 68.842118 63.533012 69.204491 C 63.273477 69.740803 63.230221 69.96858 63.298194 70.428276 L 63.380587 70.993578 L 63.473278 70.384792 C 63.522713 70.051408 63.712215 69.55444 63.891418 69.283178 Z M 45.311982 67.357424 C 45.048327 67.094445 45.005071 66.941213 45.01949 66.311719 C 45.027729 65.907932 44.974174 65.46066 44.897961 65.317782 C 44.729057 65.000964 44.671383 64.385965 44.792911 64.189249 C 44.842346 64.108491 44.825868 64.009097 44.753775 63.965613 C 44.58899 63.864148 44.58899 63.060715 44.753775 62.959251 C 44.836167 62.907483 44.836167 62.799807 44.749655 62.640363 C 44.654904 62.462282 44.669323 62.300767 44.80321 62.039859 C 44.957695 61.741678 45.050387 61.691981 45.369656 61.739607 C 46.148262 61.853496 46.179159 62.389808 45.43763 62.95511 C 44.9062 63.360967 44.889722 63.584603 45.375836 63.837229 C 45.86195 64.087784 45.975239 64.319703 46.119425 65.361266 C 46.187399 65.835457 46.310987 66.458739 46.399559 66.746567 C 46.527266 67.173131 46.525207 67.307727 46.393379 67.469242 C 46.150322 67.761211 45.662149 67.709443 45.311982 67.357424 Z M 45.882548 66.796263 C 45.882548 66.730001 45.826933 66.643031 45.7569 66.599547 C 45.688926 66.558133 45.627132 66.257881 45.620952 65.93278 C 45.606534 64.928489 45.138958 64.027734 44.924739 64.586823 C 44.877363 64.711066 44.957695 64.911924 45.128659 65.092075 C 45.311982 65.286721 45.429391 65.601468 45.468527 65.996972 C 45.499424 66.328285 45.5468 66.669951 45.575637 66.75692 C 45.631251 66.939142 45.882548 66.970203 45.882548 66.796263 Z M 45.239889 62.259353 C 45.050387 62.143394 44.844406 62.238646 44.943277 62.398091 C 44.980353 62.460212 45.099822 62.476777 45.206932 62.435363 C 45.359357 62.377383 45.365537 62.33804 45.239889 62.259353 Z M 42.06367 67.007475 C 41.824733 66.643031 41.886527 65.773336 42.183139 65.319852 C 42.372641 65.032025 42.417957 64.673793 42.438555 63.240867 C 42.467392 61.327537 42.356162 61.65885 43.526131 60.016782 C 43.890717 59.505319 43.929853 59.354157 44.010185 58.122089 C 44.111116 56.595981 44.374771 56.007901 45.219291 55.434317 C 45.985538 54.9125 46.840357 54.980833 48.183349 55.664165 C 48.776573 55.968558 49.641691 56.490375 50.107207 56.825829 C 50.572722 57.161283 51.02176 57.480171 51.106212 57.531939 C 51.205082 57.591989 51.637641 57.264818 52.307078 56.620829 C 52.881763 56.067952 53.464688 55.583407 53.602695 55.541993 C 54.18356 55.376337 54.626418 55.109216 54.873594 54.775833 C 55.087814 54.483864 55.856121 52.951544 57.001372 50.532963 C 57.098183 50.325893 57.217652 49.959378 57.262967 49.717106 C 57.310343 49.474834 57.429811 49.215996 57.530742 49.141451 C 57.676988 49.033774 57.621373 49.002713 57.275326 48.988219 C 57.032269 48.979936 56.552335 48.861906 56.206288 48.725239 C 55.534791 48.460189 55.180505 48.487108 54.665554 48.847411 C 54.49047 48.967512 54.136184 49.106249 53.878709 49.155946 C 53.621233 49.203572 53.380236 49.292612 53.343159 49.354733 C 53.238109 49.52246 52.333855 49.487258 52.183489 49.309178 C 52.051662 49.149733 52.049602 48.40221 52.18143 48.271755 C 52.220566 48.232412 52.457443 48.16615 52.70874 48.126806 C 53.279305 48.033625 53.314322 48.251048 52.772594 48.532664 C 52.510998 48.66726 52.422427 48.774936 52.506879 48.859835 C 52.642826 48.996501 54.230935 48.480896 54.71087 48.145442 C 55.093993 47.876251 56.07446 47.905241 56.408148 48.195139 C 56.556454 48.323523 56.962236 48.466401 57.306223 48.511957 C 57.837653 48.582361 57.934464 48.63827 57.946822 48.87433 C 57.97154 49.340238 57.917985 49.636349 57.738782 50.029782 C 57.644031 50.236852 57.501905 50.673771 57.421572 50.998871 C 57.3433 51.326042 57.199113 51.657355 57.102303 51.736041 C 57.007552 51.816799 56.929279 51.980384 56.929279 52.100485 C 56.929279 52.220586 56.824229 52.454575 56.696521 52.618161 C 56.568813 52.783817 56.426687 53.071645 56.381371 53.258008 C 56.272201 53.70735 55.472997 55.086439 55.069276 55.521286 C 54.894192 55.70972 54.556384 55.900225 54.319507 55.94578 C 54.014656 56.00376 53.582097 56.314365 52.844687 57.010122 C 52.270001 57.550575 51.662359 58.026837 51.491395 58.070321 C 51.12475 58.161432 50.723088 57.970928 49.324481 57.045324 C 48.766274 56.676738 48.088598 56.283305 47.818764 56.171487 C 47.54687 56.059669 47.2276 55.881589 47.108131 55.775983 C 46.850656 55.546135 46.034973 55.523357 45.532381 55.730427 C 44.992712 55.954063 44.654904 56.782344 44.436565 58.416129 C 44.179089 60.329458 44.189388 60.298398 43.622942 60.95274 C 43.346928 61.271628 43.12035 61.598799 43.12035 61.681627 C 43.12035 61.762385 43.033838 61.992233 42.930848 62.19102 C 42.656894 62.714908 42.566262 63.764754 42.753705 64.214097 C 42.840216 64.423238 42.916429 64.642732 42.922609 64.702783 C 42.928788 64.764904 43.029718 64.876722 43.149187 64.951267 C 43.581746 65.2246 43.686796 64.874651 43.686796 63.164251 C 43.686796 61.36688 43.635301 61.491123 44.928858 60.072691 C 45.244008 59.726884 45.503544 59.403854 45.503544 59.356228 C 45.507663 59.190572 46.228595 58.12416 46.560223 57.792847 C 46.898031 57.453252 46.968065 57.471888 46.772383 57.846686 C 46.710589 57.966786 46.59936 58.289816 46.525207 58.56729 C 46.348063 59.229915 45.627132 60.3336 45.130719 60.700114 C 44.91032 60.861629 44.560153 61.226073 44.352113 61.509759 C 43.981348 62.01294 43.975169 62.050212 43.991647 63.441725 C 44.008126 64.847732 44.004006 64.860156 43.678557 65.034095 C 43.416962 65.174903 43.365467 65.276368 43.419021 65.543488 C 43.501414 65.9597 43.248058 66.328285 42.924668 66.268234 C 42.611578 66.208184 42.537425 65.705003 42.80108 65.415105 C 42.976164 65.220459 42.978223 65.172832 42.817559 65.040307 C 42.663073 64.911924 42.621877 64.963691 42.555963 65.367478 C 42.512708 65.630458 42.452973 65.988689 42.422076 66.160558 C 42.345863 66.605759 42.527126 66.862526 42.739286 66.605759 C 42.827858 66.500153 42.996762 66.411113 43.11417 66.411113 C 43.231579 66.411113 43.460218 66.270305 43.622942 66.098437 C 43.997827 65.698791 44.323276 65.663589 44.119355 66.044598 C 43.927793 66.40283 43.631181 66.684446 43.101812 67.011617 C 42.533306 67.363636 42.296428 67.363636 42.06367 67.007475 Z M 43.165666 65.591114 C 43.064735 65.332277 42.994702 65.363337 42.994702 65.66566 C 42.994702 65.808538 43.050316 65.891366 43.11623 65.849952 C 43.182144 65.808538 43.202742 65.692579 43.165666 65.591114 Z M 48.937238 64.421167 C 47.085473 63.408594 46.844476 63.209806 46.951586 62.7791 C 46.996902 62.60309 47.097832 62.418798 47.178165 62.36703 C 47.423281 62.211727 47.975309 62.257283 48.131854 62.445717 C 48.212186 62.54304 48.418167 62.656928 48.589131 62.700413 C 48.762154 62.741827 49.22561 63.002736 49.621093 63.276069 C 50.014515 63.551472 50.465613 63.775108 50.620098 63.775108 C 51.052657 63.775108 51.429601 64.22238 51.361627 64.653086 C 51.33073 64.851873 51.266876 65.075509 51.221561 65.147984 C 51.048537 65.4296 50.409998 65.226671 48.937238 64.421167 Z M 50.778703 64.539197 C 50.778703 64.475006 50.578902 64.356975 50.335845 64.276218 C 50.092788 64.197531 49.353318 63.824805 48.694181 63.452078 C 48.032983 63.077281 47.513913 62.835009 47.54069 62.913696 C 47.586006 63.050362 49.275046 64.027734 49.899166 64.278289 C 50.07219 64.346622 50.298768 64.456369 50.401759 64.520561 C 50.646875 64.675864 50.778703 64.682076 50.778703 64.539197 Z M 62.008757 63.882785 C 61.063306 63.050362 60.400049 61.685769 60.387691 60.538599 C 60.379451 59.760015 60.523638 59.615066 61.258988 59.662692 C 61.695666 59.691682 61.788358 59.753803 61.97374 60.134812 C 62.089089 60.377085 62.264172 60.969306 62.363043 61.45385 C 62.476332 62.006728 62.688492 62.549252 62.935669 62.915766 C 63.355869 63.534906 63.425902 63.882785 63.180785 64.127127 C 62.92125 64.385965 62.478392 64.292784 62.008757 63.882785 Z M 62.150883 62.841221 C 61.979919 62.588595 61.775999 62.060566 61.697726 61.667132 C 61.487626 60.60072 61.382576 60.323246 61.186895 60.323246 C 60.797592 60.323246 61.273407 61.888698 61.97786 62.921978 C 62.204438 63.253291 62.406299 63.472785 62.426897 63.412735 C 62.447495 63.350614 62.323907 63.095917 62.150883 62.841221 Z M 49.579897 61.435214 C 49.410993 61.252992 49.270926 61.060416 49.270926 61.008649 C 49.270926 60.867841 50.107207 59.414208 50.409998 59.026986 C 51.108272 58.136584 52.410068 57.975069 52.410068 58.778502 C 52.410068 59.047693 52.267941 59.292036 51.897177 59.658551 C 51.614983 59.938095 51.281295 60.406074 51.155647 60.698043 C 50.924949 61.238497 50.38322 61.766526 50.063951 61.766526 C 49.96714 61.766526 49.748801 61.617436 49.579897 61.435214 Z M 50.690131 60.163802 C 50.881693 59.807641 51.207142 59.397642 51.411063 59.252693 C 51.614983 59.107744 51.781828 58.931734 51.781828 58.863401 C 51.781828 58.590068 50.994982 59.318955 50.523287 60.029206 C 49.981559 60.845063 49.944482 60.934104 50.18136 60.859558 C 50.267871 60.832639 50.49651 60.517892 50.690131 60.163802 Z M 66.175741 60.903043 C 65.463049 60.022994 65.312683 59.505319 65.697867 59.267188 C 65.817335 59.194713 65.825574 59.136733 65.728764 59.076683 C 65.481587 58.923451 65.578398 58.503098 65.895608 58.36022 C 66.148964 58.244261 66.258133 58.264968 66.540327 58.486533 C 67.127371 58.95037 67.185045 58.766078 66.61242 58.262897 C 66.266373 57.960574 66.116007 57.749363 66.206638 57.695524 C 66.282851 57.647898 66.315808 57.554716 66.274612 57.490525 C 66.235475 57.426333 66.262253 57.374565 66.336406 57.374565 C 66.408499 57.374565 66.470293 57.444969 66.472353 57.529868 C 66.474413 57.616838 66.696872 57.823908 66.968766 57.991635 C 67.24066 58.159362 67.494016 58.374715 67.531092 58.472038 C 67.621724 58.708098 67.401325 59.093249 67.079995 59.265117 C 66.853417 59.387289 66.764845 59.350016 66.453815 59.010421 C 66.256074 58.792997 66.031555 58.652189 65.959462 58.697744 C 65.87089 58.751583 65.901787 58.865471 66.048033 59.024916 C 66.225176 59.221632 66.239595 59.316885 66.124246 59.503248 C 66.008897 59.68754 66.015076 59.768298 66.155143 59.884257 C 66.39614 60.085115 67.096474 61.342032 67.096474 61.578092 C 67.096474 61.932182 66.876075 61.770668 66.175741 60.903043 Z M 44.753775 61.391729 C 45.021549 60.888548 45.371716 60.787084 46.729127 60.816074 C 47.911455 60.840922 48.315177 60.743599 47.818764 60.553094 C 47.709594 60.51168 47.567468 60.358448 47.503614 60.213499 C 47.4377 60.066479 47.244078 59.697894 47.073115 59.393501 C 46.902151 59.089107 46.762084 58.693603 46.762084 58.515523 C 46.762084 58.246331 46.846536 58.327089 47.254377 58.991784 C 47.524212 59.430773 47.958831 60.008499 48.218366 60.273549 C 48.679762 60.74567 48.683882 60.762235 48.459363 61.01072 C 48.255442 61.236426 48.07212 61.265416 46.836237 61.269557 C 45.866069 61.273699 45.346998 61.327537 45.128659 61.45385 C 44.6961 61.702334 44.59517 61.683698 44.753775 61.391729 Z M 48.469662 60.248701 C 48.06594 59.931883 47.209062 58.68532 47.099892 58.258755 C 47.058696 58.091029 47.083414 57.877746 47.157567 57.788706 C 47.44182 57.444969 47.866139 57.62305 48.758035 58.455472 C 49.505744 59.153299 49.64787 59.352087 49.64787 59.691682 C 49.64787 60.116176 49.33272 60.51168 48.996972 60.51168 C 48.889862 60.51168 48.652985 60.39365 48.469662 60.248701 Z M 48.327536 58.946229 C 47.929993 58.492745 47.573647 58.151079 47.53863 58.188352 C 47.470657 58.252543 47.686936 58.525876 48.506739 59.412137 C 49.244149 60.207287 49.093783 59.817995 48.327536 58.946229 Z M 53.33698 58.157291 C 53.260767 58.105523 53.155717 57.931584 53.104222 57.77007 C 53.034189 57.542292 53.093923 57.391131 53.369937 57.101233 C 53.882828 56.56492 55.180505 55.958205 55.596585 56.06381 C 55.779908 56.109366 56.28868 56.078305 56.731538 55.995477 C 57.779978 55.79669 58.226956 55.972699 58.28669 56.608405 C 58.319647 56.952142 58.259913 57.09295 57.9736 57.324868 C 57.594596 57.635474 56.951937 57.71209 56.548215 57.496737 C 56.292799 57.36007 55.013661 57.714161 54.453394 58.074463 C 54.156782 58.264968 53.567678 58.308452 53.33698 58.157291 Z M 53.96934 57.639615 C 54.008476 57.577494 54.307148 57.397343 54.636717 57.237899 C 55.079575 57.022546 55.540971 56.929364 56.426687 56.877597 C 57.957121 56.788556 57.981839 56.542143 56.457584 56.600122 C 55.575987 56.633254 55.22788 56.707799 54.692331 56.97492 C 54.031134 57.306232 53.499705 57.751433 53.763359 57.751433 C 53.839572 57.751433 53.932263 57.699666 53.96934 57.639615 Z M 61.382576 57.324868 C 61.217792 57.074313 61.207493 56.894162 61.318722 56.196335 C 61.392875 55.740781 61.508224 55.239671 61.578258 55.084368 C 61.646231 54.929065 61.782178 54.376188 61.881049 53.858512 C 62.1859 52.253717 62.410419 51.265992 62.50311 51.11483 C 62.597861 50.963669 63.174606 51.044427 63.388826 51.241143 C 63.588627 51.425436 63.829624 52.373818 63.829624 52.980534 C 63.829624 53.291139 63.745172 53.82331 63.642182 54.160834 C 63.541251 54.50043 63.456799 54.982903 63.456799 55.233459 C 63.456799 55.879518 62.303309 57.62512 61.874869 57.62512 C 61.701846 57.62512 61.497925 57.500878 61.382576 57.324868 Z M 62.369223 56.09073 C 62.760585 55.434317 62.92743 54.635025 63.036599 52.887352 C 63.088094 52.069424 63.067496 51.725688 62.968626 51.725688 C 62.888293 51.725688 62.828559 51.93897 62.828559 52.216444 C 62.828559 52.804524 62.270352 55.484014 62.008757 56.152851 C 61.821315 56.633254 61.749221 57.262747 61.926365 56.871384 C 61.97374 56.767849 62.173541 56.41583 62.369223 56.09073 Z M 66.678333 57.542292 C 66.484712 57.347646 66.60418 57.148859 66.876075 57.215121 C 67.129431 57.275172 67.115012 57.237899 66.746307 56.846536 C 66.392021 56.471739 66.350825 56.366133 66.455875 56.088659 C 66.523848 55.912649 66.651556 55.73871 66.742187 55.701437 C 66.849297 55.657953 66.806041 55.602044 66.620659 55.546135 C 66.200459 55.419822 66.359064 55.173408 66.843118 55.200327 C 67.294215 55.227246 67.652621 55.479872 67.378667 55.579266 C 67.292155 55.612397 67.257139 55.697296 67.302454 55.771841 C 67.34777 55.846387 67.296275 55.970629 67.185045 56.051386 C 67.007902 56.18184 67.018201 56.235679 67.292155 56.554567 C 67.461059 56.751284 67.599066 56.995627 67.599066 57.097091 C 67.599066 57.444969 66.913151 57.776282 66.678333 57.542292 Z M 45.359357 57.198556 C 44.920619 56.981132 44.922679 56.556638 45.361417 56.117649 C 45.666268 55.813255 45.843411 55.742851 46.296568 55.742851 C 46.933048 55.742851 47.204942 55.968558 47.089593 56.399264 C 46.963945 56.871384 46.836237 56.987344 46.230655 57.169566 C 45.781617 57.304161 45.583876 57.310374 45.357297 57.198556 Z M 46.391319 56.200477 C 46.317166 56.125931 46.152382 56.159063 45.952581 56.291588 C 45.482946 56.598052 45.561218 56.747142 46.06999 56.517294 C 46.343944 56.393052 46.465472 56.272951 46.391319 56.200477 Z M 56.189809 55.341135 C 56.055922 54.980833 56.189809 54.610177 56.671803 54.009673 C 57.120841 53.450583 57.641971 52.446292 57.755261 51.920334 C 57.96742 50.940891 59.009681 49.466551 59.491676 49.466551 C 59.804766 49.466551 60.192009 49.820641 60.192009 50.104327 C 60.192009 50.286549 59.897457 51.118972 59.506094 52.038364 C 58.974665 53.289068 58.610079 53.910279 57.946822 54.703359 C 57.328881 55.438458 57.170276 55.558559 56.766554 55.593761 C 56.375192 55.624821 56.280441 55.585478 56.189809 55.341135 Z M 57.390675 54.446591 C 58.045693 53.626593 59.139449 51.423365 59.396925 50.40665 C 59.563769 49.752308 58.904631 50.874629 58.478252 51.976243 C 58.049813 53.081998 57.584297 53.920633 56.925159 54.769621 C 56.776853 54.960126 56.70476 55.111287 56.760375 55.109216 C 56.81805 55.105075 57.102303 54.806894 57.390675 54.446591 Z M 66.616539 54.908358 C 66.369363 54.800682 66.937869 54.23538 67.203584 54.320279 C 67.316873 54.357551 67.24066 54.278864 67.03262 54.144269 C 66.61036 53.870936 65.842053 53.036443 65.842053 52.850079 C 65.842053 52.783817 65.907967 52.729979 65.988299 52.729979 C 66.068631 52.729979 66.095409 52.692706 66.050093 52.64508 C 65.961521 52.55604 66.317868 52.102556 66.476473 52.102556 C 66.527968 52.102556 66.869895 52.35104 67.2386 52.657504 C 67.605245 52.961897 67.949233 53.185533 68.002788 53.152402 C 68.056343 53.119271 67.831824 52.866645 67.504315 52.589171 C 66.371423 51.632506 65.456869 50.46463 65.55368 50.096045 C 65.708166 49.505894 65.930624 49.539026 66.694812 50.267913 C 67.100593 50.655134 67.465179 50.938821 67.504315 50.897407 C 67.545511 50.858063 67.203584 50.470842 66.744247 50.035994 C 65.959462 49.292612 65.920325 49.22842 66.058332 48.924027 C 66.29109 48.412563 66.974945 48.342159 67.586707 48.766653 C 67.943053 49.015138 68.155213 49.07933 68.39827 49.019279 C 68.645447 48.957158 68.727839 48.984077 68.727839 49.124885 C 68.727839 49.22842 68.639267 49.348521 68.530098 49.389935 C 68.247904 49.497611 67.337471 49.334026 66.997603 49.114531 C 66.433217 48.750088 66.567104 49.100037 67.273617 49.841348 C 68.004848 50.607508 68.072821 50.843568 67.695877 51.313618 C 67.502255 51.55589 66.902852 51.135537 66.254014 50.303115 C 66.101588 50.106398 65.918266 49.982156 65.848232 50.025641 C 65.710225 50.11261 66.738068 51.181093 67.883319 52.139828 C 68.462124 52.626444 68.602191 52.816948 68.602191 53.1172 C 68.602191 53.407099 68.525978 53.516846 68.260263 53.61831 C 67.840063 53.779825 67.541392 53.655583 66.861656 53.044726 C 66.587702 52.796241 66.336406 52.640938 66.299329 52.696847 C 66.264313 52.754827 66.573283 53.079927 66.983185 53.419523 C 67.671159 53.986895 67.724714 54.069723 67.650561 54.419672 C 67.605245 54.628813 67.55787 54.815177 67.543451 54.829671 C 67.473418 54.910429 66.762785 54.970479 66.616539 54.908358 Z M 62.978925 50.704831 C 62.752346 50.638569 62.540186 50.516397 62.507229 50.433569 C 62.365103 50.060843 62.249754 47.25504 62.367163 47.021051 C 62.60198 46.551001 62.764705 46.45989 63.079855 46.619334 C 63.771949 46.971354 64.035604 47.793423 63.710155 48.58029 C 63.600986 48.843269 63.613344 48.994431 63.76371 49.284329 C 63.988229 49.712965 64.012946 50.257559 63.827564 50.603367 C 63.685438 50.870488 63.592746 50.880841 62.978925 50.704831 Z M 63.201384 49.505894 C 63.127231 49.162158 63.083975 48.590644 63.104573 48.236553 C 63.127231 47.870039 63.088094 47.592565 63.016001 47.590494 C 62.787363 47.582211 62.880054 49.731601 63.123111 50.064984 C 63.318792 50.332105 63.34351 50.162307 63.201384 49.505894 Z M 58.778983 48.493321 C 58.521508 48.228271 58.309348 47.950796 58.309348 47.87418 C 58.309348 47.799635 58.169281 47.644332 57.996258 47.532514 C 57.724363 47.354434 57.681108 47.234333 57.681108 46.6359 C 57.681108 46.025043 57.718184 45.92979 57.990078 45.805548 C 58.239315 45.69166 58.362903 45.706154 58.630677 45.882164 C 58.904631 46.060245 58.954067 46.174133 58.912871 46.526153 C 58.861376 46.952718 59.069416 47.124586 59.258918 46.816051 C 59.417523 46.559284 60.420648 46.190699 60.741977 46.271456 C 61.289885 46.410193 61.273407 47.451757 60.721379 47.462111 C 60.523638 47.464181 60.523638 47.478676 60.731678 47.63605 C 61.085964 47.905241 60.851147 48.702462 60.412408 48.710744 C 60.266162 48.712815 60.301179 48.360796 60.453604 48.265543 C 60.552475 48.205493 60.550415 48.141301 60.449485 48.039837 C 60.344435 47.934231 60.276461 47.946655 60.189949 48.085392 C 60.084899 48.251048 60.070481 48.248978 60.068421 48.07918 C 60.068421 47.971503 60.134335 47.816201 60.216727 47.733373 C 60.315597 47.63605 60.321777 47.582211 60.233205 47.582211 C 60.159052 47.582211 60.031344 47.660898 59.953072 47.758221 C 59.87274 47.853473 59.607025 47.971503 59.363968 48.017059 C 58.830478 48.116453 58.855196 48.350442 59.417523 48.52024 C 59.848022 48.648623 59.887158 48.878471 59.491676 48.936451 C 59.34337 48.959229 59.065296 48.78529 58.778983 48.493321 Z M 59.784168 47.426909 C 59.87068 47.358575 59.940713 47.25504 59.940713 47.197061 C 59.940713 47.089384 59.007622 47.466252 58.840777 47.640191 C 58.70895 47.778928 59.596726 47.57807 59.784168 47.426909 Z M 58.560644 47.261252 C 58.560644 47.153576 58.50297 47.101808 58.432936 47.145293 C 58.362903 47.188778 58.338185 47.275747 58.377321 47.339939 C 58.484431 47.513878 58.560644 47.482818 58.560644 47.261252 Z M 60.443305 46.95893 C 60.443305 46.892667 60.358853 46.86989 60.255863 46.909233 C 60.150813 46.948576 60.066361 47.004485 60.066361 47.031404 C 60.066361 47.058323 60.150813 47.081101 60.255863 47.081101 C 60.358853 47.081101 60.443305 47.025192 60.443305 46.95893 Z M 58.373202 46.57792 C 58.414398 46.509587 58.38968 46.453678 58.317587 46.453678 C 58.243434 46.453678 58.1837 46.509587 58.1837 46.57792 C 58.1837 46.648324 58.208418 46.704233 58.239315 46.704233 C 58.270212 46.704233 58.329946 46.648324 58.373202 46.57792 Z M 68.0893 48.594785 C 67.294215 48.439482 66.161323 47.457969 66.779264 47.457969 C 66.890493 47.457969 66.933749 47.383424 66.890493 47.269535 C 66.834879 47.126657 66.915211 47.081101 67.215942 47.081101 C 67.4487 47.081101 67.580528 47.132869 67.535212 47.205343 C 67.494016 47.275747 67.362189 47.333727 67.246839 47.333727 C 66.952287 47.337868 67.485777 47.758221 68.19435 48.07918 C 68.488902 48.213776 68.727839 48.408422 68.727839 48.518169 C 68.727839 48.623775 68.686643 48.706603 68.633088 48.69832 C 68.581593 48.690037 68.336476 48.644482 68.0893 48.594785 Z M 51.153587 47.832766 C 50.856975 47.536656 50.821959 46.847112 51.079434 46.352214 C 51.357508 45.820043 51.779768 45.511508 52.661364 45.200903 C 53.153657 45.024893 53.86017 44.619035 54.447215 44.173834 C 54.980704 43.767977 55.586286 43.401462 55.796386 43.360048 C 56.18157 43.281361 56.327816 43.063938 55.992068 43.063938 C 55.543031 43.063938 55.491535 41.885708 55.924094 41.494345 C 56.189809 41.254143 56.846887 41.208588 57.092003 41.411517 C 57.413333 41.678637 57.431871 41.394951 57.122901 40.987023 C 56.774794 40.531468 56.81805 40.382377 57.240309 40.574953 C 57.65639 40.765457 57.86855 41.210659 57.695526 41.533688 C 57.526622 41.848435 57.098183 42.001667 56.886023 41.825657 C 56.772734 41.732476 56.688282 41.763536 56.577052 41.941617 C 56.4926 42.074142 56.315457 42.18596 56.18157 42.18596 C 55.802566 42.18596 55.773729 42.384747 56.130075 42.546262 C 56.344294 42.643585 56.426687 42.757474 56.375192 42.887928 C 56.333995 42.995604 56.301039 43.215099 56.301039 43.374543 C 56.301039 43.573331 56.173331 43.728633 55.893197 43.873582 C 54.684092 44.498935 53.664489 45.403832 53.664489 45.851104 C 53.664489 45.989841 53.491465 46.323224 53.277246 46.592415 C 52.949737 47.006556 52.817909 47.081101 52.414188 47.081101 C 52.024885 47.081101 51.923954 47.029334 51.86216 46.797415 C 51.742691 46.354284 51.748871 46.343931 52.410068 46.025043 C 53.01771 45.733074 53.196913 45.741356 52.887943 46.049891 C 52.677843 46.261103 52.865285 46.395699 53.100102 46.203123 C 53.207212 46.112012 53.262827 45.942215 53.223691 45.817972 C 53.176315 45.670953 53.22781 45.5757 53.378176 45.536357 C 53.507944 45.503226 53.44203 45.474236 53.225751 45.468024 C 52.684022 45.451458 51.926014 45.967063 51.569668 46.596557 L 51.260697 47.139081 L 51.536711 47.360646 C 51.703555 47.497312 52.020765 47.582211 52.354453 47.582211 C 52.653125 47.582211 52.935318 47.642262 52.980634 47.716807 C 53.095983 47.905241 53.067146 47.915594 52.187609 48.002564 C 51.507874 48.070897 51.367807 48.048119 51.153587 47.832766 Z M 52.661364 46.45782 C 52.661364 46.389486 52.576912 46.368779 52.471862 46.408123 C 52.368872 46.447466 52.28442 46.501304 52.28442 46.530294 C 52.28442 46.557213 52.368872 46.57792 52.471862 46.57792 C 52.576912 46.57792 52.661364 46.524082 52.661364 46.45782 Z M 66.727769 46.542718 C 66.167502 46.263174 65.839993 45.909083 65.996538 45.753781 C 66.08099 45.668882 66.175741 45.702013 66.682453 45.996053 C 67.110892 46.244537 67.6588 46.830546 67.458999 46.824334 C 67.362189 46.822263 67.03468 46.69388 66.727769 46.542718 Z M 56.301039 46.19484 C 56.301039 46.122366 56.356653 46.097517 56.426687 46.138931 C 56.49672 46.182416 56.552335 46.242467 56.552335 46.271456 C 56.552335 46.302517 56.49672 46.327365 56.426687 46.327365 C 56.356653 46.327365 56.301039 46.267315 56.301039 46.19484 Z M 56.836588 46.116154 C 56.951937 45.998124 57.083764 45.938073 57.12702 45.981558 C 57.250608 46.1058 57.061106 46.327365 56.832468 46.327365 C 56.640906 46.327365 56.640906 46.3108 56.836588 46.116154 Z M 62.07673 45.983629 C 61.833673 45.954639 61.565899 45.871811 61.479387 45.799336 C 61.211612 45.5757 61.298124 45.004186 61.65653 44.645955 C 62.039654 44.262875 61.963441 44.10343 61.289885 43.886007 C 60.956197 43.77833 60.875864 43.681007 60.842907 43.345553 C 60.81819 43.074291 60.892343 42.823736 61.063306 42.606312 C 61.205433 42.426161 61.322842 42.169394 61.322842 42.04101 C 61.322842 41.908485 61.462909 41.738688 61.635932 41.660001 C 61.895467 41.541971 62.039654 41.564749 62.482512 41.794597 C 62.777064 41.947829 63.209623 42.24601 63.44444 42.457222 C 63.813145 42.790605 63.854342 42.887928 63.755471 43.167473 C 63.691617 43.351765 63.506235 43.529846 63.329091 43.579543 C 63.158128 43.627169 63.088094 43.672724 63.174606 43.678936 C 63.395005 43.697573 63.370287 44.186259 63.141649 44.273228 C 62.993343 44.331208 63.018061 44.39747 63.267297 44.592116 C 63.506235 44.78055 63.582447 44.95656 63.582447 45.327216 C 63.582447 46.031255 63.34145 46.136861 62.07673 45.983629 Z M 62.954207 45.321004 C 62.954207 45.2506 62.81414 45.128428 62.643177 45.051812 C 62.402179 44.939994 62.28683 44.948277 62.122046 45.084944 C 61.901647 45.267165 61.889288 45.263024 62.859456 45.432822 C 62.910951 45.441105 62.954207 45.391408 62.954207 45.321004 Z M 62.577263 44.445096 C 62.577263 44.374693 62.517528 44.318784 62.445435 44.318784 C 62.371282 44.318784 62.346565 44.374693 62.389821 44.445096 C 62.431017 44.51343 62.490751 44.569339 62.521648 44.569339 C 62.552545 44.569339 62.577263 44.51343 62.577263 44.445096 Z M 62.28889 43.618886 C 62.095269 43.451159 61.811016 43.316563 61.66065 43.320705 C 61.425832 43.324846 61.440251 43.349695 61.76158 43.488432 C 61.96962 43.579543 62.216797 43.74727 62.313608 43.863229 C 62.408359 43.979188 62.521648 44.039239 62.564904 43.997825 C 62.6061 43.956411 62.482512 43.784542 62.28889 43.618886 Z M 61.97786 42.813383 C 61.516463 42.529696 61.44849 42.513131 61.44849 42.676716 C 61.44849 42.740908 61.602975 42.848584 61.792477 42.918988 C 62.348624 43.121917 62.418658 43.080503 61.97786 42.813383 Z M 62.939788 42.705706 C 62.437196 42.316414 62.099388 42.171465 62.012876 42.310202 C 61.96962 42.380606 62.016996 42.436515 62.115867 42.436515 C 62.216797 42.436515 62.431017 42.548333 62.595801 42.682928 C 62.758526 42.819595 62.968626 42.931413 63.065436 42.933483 C 63.166367 42.937625 63.112812 42.840302 62.939788 42.705706 Z M 55.952932 45.801407 C 56.016786 45.615044 56.301039 45.511508 56.301039 45.675094 C 56.301039 45.743427 56.212467 45.832467 56.103297 45.875952 C 55.979709 45.921508 55.922035 45.894588 55.952932 45.801407 Z M 66.637137 45.710296 C 66.523848 45.579842 66.354944 45.501155 66.262253 45.536357 C 66.165442 45.57363 66.091289 45.519791 66.091289 45.410044 C 66.091289 45.120146 66.371423 45.087014 66.647436 45.345852 C 66.863716 45.548781 67.222122 45.660599 67.222122 45.526003 C 67.222122 45.497013 66.82458 45.205044 66.338466 44.871661 C 65.732883 44.457521 65.436271 44.169693 65.390956 43.950198 C 65.353879 43.772118 65.304444 43.527775 65.277666 43.401462 C 65.226171 43.142624 65.644312 42.937625 66.225176 42.937625 C 66.71953 42.937625 66.705111 43.237877 66.200459 43.447018 L 65.807036 43.610603 L 66.29521 44.059946 C 66.562984 44.306359 66.958467 44.654237 67.174746 44.832318 C 67.629963 45.207115 67.891558 45.791053 67.545511 45.658528 C 67.419863 45.610902 67.310693 45.652316 67.267438 45.764134 C 67.168567 46.022972 66.882254 45.998124 66.637137 45.710296 Z M 54.875654 45.511508 C 54.772664 45.407973 54.622298 45.323074 54.544025 45.323074 C 54.28037 45.323074 54.935388 44.567268 55.409143 44.324996 C 55.934393 44.057875 56.119776 44.113784 56.235125 44.57348 C 56.294859 44.817823 56.224826 44.977267 55.915855 45.294085 C 55.481236 45.737215 55.166086 45.803478 54.875654 45.511508 Z M 57.409213 45.229893 C 57.180575 44.960701 56.945757 44.335349 56.960176 44.035097 C 56.970475 43.825956 57.922105 42.937625 58.136324 42.937625 C 58.189879 42.937625 58.049813 43.128129 57.823234 43.360048 L 57.415393 43.782471 L 57.926224 43.8653 C 58.208418 43.908784 58.550345 44.057875 58.688352 44.194541 C 58.964366 44.472016 59.017921 45.066307 58.787223 45.298226 C 58.552405 45.532215 57.627553 45.48666 57.409213 45.229893 Z M 58.1837 44.710146 C 58.1837 44.546561 57.860311 44.30843 57.76556 44.403682 C 57.670809 44.496864 57.909746 44.821964 58.07453 44.821964 C 58.134265 44.821964 58.1837 44.772267 58.1837 44.710146 Z M 58.000377 43.699643 C 57.961241 43.637522 58.045693 43.546411 58.187819 43.502927 C 58.367022 43.444947 58.422637 43.349695 58.373202 43.19025 C 58.253733 42.817524 58.548285 42.765756 58.688352 43.134341 C 58.778983 43.372472 58.774864 43.521563 58.673933 43.643734 C 58.509149 43.840451 58.109547 43.875653 58.000377 43.699643 Z M 63.685438 42.405454 C 62.284771 41.353537 62.111747 41.276921 61.432011 41.423941 C 60.521578 41.618587 60.488621 41.610304 59.821244 40.984952 L 59.209482 40.413438 L 59.040579 40.765457 C 58.945828 40.960103 58.787223 41.119548 58.684232 41.121618 C 58.581242 41.123689 58.430876 41.167174 58.348484 41.218941 C 58.257853 41.27485 58.07247 41.144396 57.86855 40.877275 C 57.687287 40.639145 57.415393 40.425862 57.265027 40.403084 C 56.900442 40.351317 56.91486 40.12561 57.287685 40.071772 C 57.812935 39.997227 58.119846 40.152529 58.278451 40.574953 C 58.39586 40.885558 58.467953 40.947679 58.579182 40.835861 C 58.690412 40.724043 58.686292 40.641215 58.560644 40.490054 C 58.348484 40.235357 58.49679 40.09455 59.094133 39.984802 C 59.518453 39.906116 59.602905 39.939247 59.957191 40.320256 C 60.575133 40.982881 60.933539 41.179598 61.285765 41.045002 C 62.021116 40.765457 62.661715 40.976669 63.76577 41.858789 C 64.167432 42.181818 64.319857 42.223232 65.057267 42.219091 C 66.000658 42.214949 66.593881 42.376464 66.593881 42.637373 C 66.593881 42.852726 66.414678 42.854797 65.362118 42.662221 C 64.721519 42.544191 64.529957 42.544191 64.490821 42.662221 C 64.412549 42.892069 64.276601 42.848584 63.685438 42.405454 Z M 31.603983 39.908186 C 31.402122 39.705257 31.404182 38.823138 31.608103 38.421422 C 31.779066 38.083897 32.217805 37.961726 35.274555 37.400565 C 36.885322 37.104455 38.611438 36.781425 40.547654 36.414911 C 41.307722 36.269961 42.549784 36.035972 43.309852 35.897235 C 44.611648 35.654963 46.251253 35.35264 47.954711 35.035822 C 48.368732 34.959206 49.102022 34.816328 49.586076 34.716934 C 50.06807 34.61754 50.690131 34.501581 50.966145 34.460167 C 51.242159 34.416682 52.033124 34.275875 52.723158 34.147491 C 53.413193 34.017037 54.628477 33.795471 55.421502 33.650522 C 56.216587 33.507644 57.458649 33.267442 58.1837 33.116281 C 59.885098 32.762191 61.532942 32.764261 63.582447 33.118352 C 64.445505 33.269513 65.914146 33.507644 66.845178 33.652593 C 68.769035 33.948703 71.008042 34.302794 73.121402 34.648601 C 73.916486 34.779055 74.847518 34.919863 75.193565 34.963348 C 75.537552 35.006833 76.272903 35.122792 76.82493 35.220115 C 77.376958 35.317438 78.592242 35.514155 79.523274 35.657033 C 81.873511 36.017336 84.139296 36.375567 85.548202 36.609557 C 86.20528 36.719304 87.331993 36.889102 88.057044 36.986425 C 89.641034 37.201778 89.840835 37.342585 89.855253 38.27026 C 89.865552 39.050915 89.67605 39.30147 89.078707 39.289046 C 88.710002 39.282834 88.670866 39.260056 88.874786 39.173087 C 89.012793 39.113036 89.070468 39.061269 89.000434 39.055057 C 88.271264 39.003289 86.446277 38.750663 85.799498 38.611926 C 85.350461 38.516674 84.532718 38.400715 83.980691 38.353089 C 83.426604 38.305462 82.635639 38.193644 82.221618 38.102533 C 81.807597 38.011423 81.04547 37.899605 80.528459 37.851978 C 80.009388 37.806423 79.218423 37.692534 78.769386 37.601423 C 78.322408 37.512383 77.558221 37.398494 77.076226 37.350868 C 76.592172 37.303242 75.830045 37.189353 75.381007 37.098243 C 74.93197 37.007132 74.141005 36.895314 73.623994 36.847688 C 73.106983 36.802132 72.342796 36.690314 71.928775 36.599203 C 71.514754 36.508092 70.723789 36.396274 70.171762 36.348648 C 69.619734 36.301022 68.799932 36.185063 68.350895 36.08981 C 67.903917 35.994558 66.977005 35.857892 66.29521 35.785417 C 65.613415 35.712942 65.007832 35.623902 64.950158 35.586629 C 64.890423 35.551427 64.122116 35.437539 63.23846 35.336074 C 62.356864 35.23461 61.44849 35.089661 61.217792 35.015115 C 60.910881 34.915722 60.657525 34.917792 60.276461 35.023398 C 59.988089 35.104156 59.244499 35.247034 58.622438 35.340216 C 57.178515 35.55764 55.475057 35.855821 54.354523 36.08774 C 53.872529 36.187133 53.194853 36.303093 52.848806 36.344507 C 52.504819 36.385921 51.827143 36.499809 51.343089 36.599203 C 49.845611 36.903596 48.238964 37.193495 47.452119 37.301171 C 47.038098 37.359151 46.27391 37.489605 45.7569 37.595211 C 44.80939 37.785716 43.340749 38.044554 41.363337 38.363442 C 40.776292 38.458694 40.043002 38.59329 39.731972 38.663694 C 39.420941 38.734098 38.772103 38.845916 38.288049 38.912178 C 37.803995 38.978441 36.986252 39.119249 36.467181 39.222784 C 35.950171 39.326319 35.247777 39.44642 34.909969 39.489904 C 34.547444 39.537531 34.355882 39.610005 34.446513 39.665914 C 34.530965 39.719752 34.102526 39.798439 33.494884 39.843995 C 32.887241 39.88955 32.246642 39.957883 32.075678 39.997227 C 31.898535 40.03657 31.692555 39.997227 31.603983 39.908186 Z M 33.64319 39.185511 C 34.26525 39.057127 35.056215 38.914249 35.400203 38.868694 C 35.74625 38.823138 36.423926 38.707179 36.90798 38.607785 C 37.389974 38.510462 38.450773 38.315816 39.262336 38.177079 C 40.073899 38.036271 41.371576 37.808494 42.148122 37.671827 C 42.924668 37.53309 44.37889 37.278394 45.379955 37.104455 C 46.38102 36.930516 47.65192 36.702738 48.203947 36.601274 C 48.758035 36.497739 49.744681 36.3238 50.401759 36.211982 C 51.056776 36.100164 52.187609 35.901376 52.91266 35.768851 C 53.637711 35.634256 54.766484 35.44168 55.421502 35.336074 C 56.07858 35.232539 56.81187 35.097944 57.054927 35.035822 C 57.295924 34.975772 57.804696 34.888803 58.1837 34.843247 C 58.564764 34.797692 59.242439 34.671379 59.689417 34.563702 C 60.437126 34.38148 60.616329 34.383551 61.823374 34.574056 C 62.548426 34.687944 63.537132 34.832894 64.021186 34.899156 C 65.642252 35.114509 67.654681 35.41062 68.381792 35.541074 C 68.777274 35.611478 69.708306 35.748144 70.451895 35.843397 C 72.200669 36.069103 74.272832 36.369355 75.694098 36.601274 C 76.316159 36.702738 77.329582 36.845617 77.945464 36.918091 C 78.561345 36.990566 79.105134 37.075465 79.152509 37.104455 C 79.199885 37.133444 79.98879 37.245262 80.903343 37.352939 C 81.819956 37.460616 82.608861 37.570363 82.654177 37.599353 C 82.699493 37.626272 83.243281 37.713241 83.861222 37.791928 C 84.479164 37.868544 85.661491 38.036271 86.489533 38.166725 C 89.15698 38.580866 89.284687 38.587078 89.375319 38.29718 C 89.544223 37.771221 89.173458 37.595211 87.369069 37.352939 C 86.679035 37.259757 85.605877 37.100313 84.983816 36.996778 C 84.361755 36.895314 83.064078 36.690314 82.09597 36.541223 C 81.129922 36.394204 79.859022 36.191275 79.271978 36.093952 C 78.684934 35.994558 78.007258 35.888952 77.766261 35.857892 C 77.294566 35.79577 74.843398 35.41062 72.493161 35.02961 C 71.700137 34.899156 70.795883 34.76249 70.484852 34.723146 C 70.175881 34.683803 69.440531 34.571985 68.853487 34.472591 C 68.266443 34.371127 66.995543 34.168198 66.029495 34.021178 C 65.063447 33.872087 63.76371 33.667088 63.141649 33.563553 C 60.875864 33.190826 60.678123 33.178402 59.699716 33.358553 C 59.176526 33.453805 58.276391 33.61532 57.697586 33.712643 C 57.118781 33.812037 56.546155 33.925926 56.422567 33.965269 C 56.18157 34.041885 53.987878 34.441531 52.325616 34.714864 C 51.76123 34.805974 51.186544 34.917792 51.050597 34.961277 C 50.91259 35.004762 50.189599 35.14764 49.43983 35.278095 C 48.692121 35.41062 47.458298 35.638397 46.69823 35.783346 C 45.01949 36.106376 43.143008 36.454254 41.301543 36.787637 C 40.541475 36.924304 39.608383 37.094101 39.229379 37.166576 C 37.241668 37.541373 35.781267 37.822989 34.710168 38.040412 C 34.05515 38.172937 33.245647 38.319957 32.914019 38.365513 C 32.275479 38.454553 31.8491 38.856269 31.993286 39.235208 C 32.085977 39.475409 32.26724 39.471268 33.64319 39.185511 Z M 33.64319 39.185511 " transform="matrix(1.896418,0,0,1.886437,-19.883577,-25.393644)"/>
</g>
</svg>
