<?xml version="1.0" encoding="UTF-8"?>
<svg xmlns="http://www.w3.org/2000/svg" xmlns:xlink="http://www.w3.org/1999/xlink" width="px" height="0px" viewBox="0 0 190 189" version="1.1">
<g id="surface1">
<path style="fill:none;stroke-width:0.264583;stroke-linecap:butt;stroke-linejoin:miter;stroke:rgb(99.607843%,0%,0%);stroke-opacity:1;stroke-miterlimit:4;" d="M 110.618082 63.592886 C 110.618082 91.20778 88.232127 113.594149 60.616329 113.594149 C 33.00259 113.594149 10.616635 91.20778 10.616635 63.592886 C 10.616635 35.980063 33.00259 13.593694 60.616329 13.593694 C 88.232127 13.593694 110.618082 35.980063 110.618082 63.592886 Z M 110.618082 63.592886 " transform="matrix(1.896418,0,0,1.886437,-19.883577,-25.393644)"/>
<path style="fill:none;stroke-width:0.264583;stroke-linecap:butt;stroke-linejoin:miter;stroke:rgb(99.607843%,0%,0%);stroke-opacity:1;stroke-miterlimit:4;" d="M 65.895608 26.262254 C 65.895608 29.024572 63.65866 31.263002 60.896462 31.263002 C 58.134265 31.263002 55.897317 29.024572 55.897317 26.262254 C 55.897317 23.499937 58.134265 21.261507 60.896462 21.261507 C 63.65866 21.261507 65.895608 23.499937 65.895608 26.262254 Z M 65.895608 26.262254 " transform="matrix(1.896418,0,0,1.886437,-19.883577,-25.393644)"/>
<path style="fill:none;stroke-width:0.323236;stroke-linecap:butt;stroke-linejoin:miter;stroke:rgb(0%,0%,100%);stroke-opacity:1;stroke-miterlimit:4;" d="M 53.069205 106.499921 C 45.892847 104.822651 40.174829 101.532305 34.934687 96.063578 C 30.913949 91.868334 28.440123 87.805615 26.744904 82.618504 C 25.331879 78.294877 25.00231 75.524276 25.191812 69.562723 C 25.331879 65.139701 25.494603 63.831017 26.213475 61.387588 C 29.614212 49.814429 37.999676 40.887629 49.240029 36.876677 C 52.955916 35.549357 56.373132 35.044105 61.590616 35.048247 C 70.960667 35.056529 77.615895 37.427484 84.895244 43.351765 C 89.954124 47.466252 93.758583 52.990887 95.956394 59.407996 C 97.031612 62.551323 97.181978 63.350614 97.144901 65.752629 C 97.122243 67.262172 97.04809 68.136008 96.982177 67.690807 C 95.760713 59.559157 93.231273 53.717704 88.596713 48.327664 C 78.72819 36.851829 63.193144 32.764261 49.052587 37.926524 C 37.874028 42.005808 29.239328 51.82094 26.592479 63.45829 C 25.828291 66.825253 25.581115 72.496909 26.05899 75.760336 C 27.181583 83.440573 30.328964 89.915661 35.64326 95.477569 C 52.640766 113.269049 82.248395 108.872946 93.249811 86.923496 C 94.930611 83.571028 95.808088 80.893609 96.533139 76.903364 L 97.122243 73.670997 L 97.15726 76.108214 C 97.237592 81.883405 93.612337 89.938439 88.345417 95.68671 C 84.075442 100.343721 77.931045 104.118612 71.494156 106.038154 C 68.834949 106.831233 68.031625 106.914061 62.119986 107.005172 C 56.696521 107.088 55.238179 107.007243 53.069205 106.499921 Z M 57.374197 103.563664 C 52.469802 103.006645 46.650855 101.279679 43.54261 99.45746 C 34.852295 94.365602 28.563712 77.135283 29.964379 62.263495 C 30.386639 57.799059 31.202321 54.11942 32.250762 51.951394 C 34.609238 47.081101 42.568322 41.995455 51.268936 39.80051 C 53.641831 39.204147 54.966285 39.102683 60.50304 39.0944 C 66.107768 39.088188 67.419863 39.187582 70.363324 39.839853 C 74.693033 40.80273 79.580949 42.705706 83.018762 44.770197 C 88.9407 48.325594 91.132332 51.843718 92.199311 59.501177 C 92.83785 64.093996 92.699843 72.196657 91.908878 76.41882 C 91.113794 80.659619 89.247611 86.207032 87.161029 90.524448 C 85.599697 93.756815 84.899364 94.817015 83.185606 96.529486 C 80.882745 98.834179 77.46347 100.801346 73.834094 101.913314 C 69.047109 103.379372 61.981979 104.087552 57.374197 103.563664 Z M 67.401325 102.416495 C 74.079211 101.424628 78.849718 99.374632 82.256635 96.036659 C 84.417369 93.91833 85.546142 92.164445 87.204285 88.343998 C 91.002564 79.591137 92.440308 71.432567 91.694659 62.866069 C 90.796584 52.55811 88.444287 48.607209 80.858027 44.681157 C 74.005058 41.134042 68.791693 39.88955 60.665764 39.862631 C 53.54296 39.837782 49.083484 40.813084 43.534371 43.608532 C 33.379535 48.723169 30.79036 53.384321 30.784181 66.560203 C 30.782121 71.324891 30.913949 73.041503 31.515412 76.039881 C 33.251827 84.699561 37.163395 92.864342 41.398353 96.674436 C 44.226465 99.215188 49.495445 101.408062 54.846817 102.269475 C 56.18157 102.482757 57.489546 102.702252 57.75732 102.754019 C 59.219782 103.039776 64.420788 102.857554 67.401325 102.416495 Z M 55.493595 99.353925 C 52.482161 98.981199 47.917634 97.695292 45.806335 96.626809 C 43.192443 95.30156 42.222275 93.696765 39.942072 86.923496 C 37.138678 78.59927 36.003725 71.273123 35.966649 61.226073 C 35.933692 52.649221 36.160271 51.452355 38.211836 49.400288 C 42.012175 45.598478 56.694461 43.213028 68.793753 44.432672 C 75.640543 45.122216 81.836434 47.155647 84.164014 49.478975 C 86.372124 51.682203 86.689334 53.224877 86.670796 61.710617 C 86.654317 69.119592 86.347406 72.32504 85.037371 78.810482 C 83.638763 85.7287 81.101084 93.508331 79.770451 94.945399 C 78.534568 96.283073 74.814561 97.987261 71.494156 98.736856 C 68.107838 99.500945 59.403104 99.836399 55.493595 99.353925 Z M 69.438471 98.223321 C 74.060673 97.368121 77.735364 95.871003 79.208124 94.245501 C 80.549057 92.762878 83.706737 82.026283 84.926141 74.801601 C 85.774781 69.784288 86.176442 57.254465 85.581159 54.398965 C 85.010593 51.661496 83.754112 49.924176 81.488328 48.733522 C 76.754897 46.250749 72.668245 45.405903 64.220987 45.165701 C 55.367947 44.915146 49.934183 45.538428 43.608524 47.534585 C 40.242803 48.596856 38.516687 49.822712 37.612433 51.794021 C 36.996551 53.137907 36.90592 54.00139 36.80293 59.530167 C 36.685521 65.806467 36.965654 69.81949 37.917284 75.445589 C 39.064595 82.237495 42.422076 92.307323 44.226465 94.36146 C 45.744541 96.090497 49.86209 97.562767 55.816985 98.507008 C 58.105427 98.86731 66.939929 98.685088 69.438471 98.223321 Z M 42.887592 71.908829 L 42.887592 57.024617 L 52.292659 57.024617 L 52.195848 59.045623 L 52.099037 61.064558 L 49.433651 61.15981 L 46.766204 61.252992 L 46.766204 68.984996 L 50.968205 68.984996 L 50.968205 72.863423 L 46.778563 72.863423 L 46.605539 86.600466 L 44.745536 86.697789 L 42.887592 86.795112 Z M 45.796036 79.166643 L 45.796036 72.217364 L 50.321426 72.217364 L 50.321426 69.631056 L 45.796036 69.631056 L 45.796036 60.256984 L 51.291594 60.256984 L 51.291594 57.649969 L 43.695035 57.832191 L 43.610583 71.975091 L 43.528191 86.115921 L 45.796036 86.115921 Z M 52.908541 71.894334 L 52.908541 57.024617 L 56.463763 57.024617 L 56.463763 86.761981 L 52.908541 86.761981 Z M 55.816985 71.894334 L 55.816985 57.670676 L 53.555319 57.670676 L 53.555319 86.115921 L 55.816985 86.115921 Z M 59.372207 71.88398 L 59.372207 57.003909 L 63.333211 57.09502 L 67.292155 57.186131 L 70.039934 62.598949 L 70.039934 86.761981 L 66.161323 86.761981 L 66.161323 73.186453 L 62.92743 73.186453 L 62.92743 86.761981 L 59.372207 86.761981 Z M 62.206498 79.07139 L 62.29507 72.188374 L 64.630888 72.283626 L 66.968766 72.378878 L 67.055278 79.2474 L 67.143849 86.115921 L 69.393156 86.115921 L 69.393156 63.476927 L 67.928635 60.561377 L 66.466174 57.647898 L 63.322912 57.74108 L 60.18171 57.832191 L 60.097258 71.569234 C 60.049883 79.125229 60.084899 85.498852 60.175531 85.732841 C 60.270282 85.981326 60.70902 86.115921 61.230151 86.055871 L 62.119986 85.954407 Z M 62.282711 64.63445 L 62.282711 60.256984 L 65.456869 60.256984 L 66.311688 62.439505 C 66.991424 64.170612 67.145909 65.054802 67.067636 66.721718 L 66.968766 68.823482 L 64.624708 68.918734 L 62.282711 69.011916 Z M 66.161323 66.406971 C 66.161323 65.147984 65.907967 63.851724 65.434212 62.69006 C 64.799792 61.134962 64.591752 60.905114 63.817265 60.903043 L 62.92743 60.903043 L 62.92743 68.338937 L 66.161323 68.338937 Z M 72.948378 73.994027 L 72.948378 61.226073 L 70.039934 61.226073 L 70.039934 57.008051 L 79.898158 57.186131 L 79.898158 61.064558 L 78.363604 61.163952 L 76.82699 61.261275 L 76.82699 86.761981 L 72.948378 86.761981 Z M 76.103999 73.105695 L 76.188451 60.256984 L 79.090715 60.256984 L 79.090715 57.652039 L 74.969046 57.74315 L 70.847378 57.832191 L 70.748507 59.026986 L 70.649636 60.219711 L 73.755822 60.418499 L 73.924726 86.157336 L 74.973166 86.055871 L 76.019547 85.954407 Z M 76.103999 73.105695 " transform="matrix(1.896418,0,0,1.886437,-19.883577,-25.393644)"/>
</g>
</svg>
