<?xml version="1.0" encoding="UTF-8"?>
<svg xmlns="http://www.w3.org/2000/svg" xmlns:xlink="http://www.w3.org/1999/xlink" width="px" height="0px" viewBox="0 0 190 189" version="1.1">
<g id="surface1">
<path style="fill:none;stroke-width:0.264583;stroke-linecap:butt;stroke-linejoin:miter;stroke:rgb(99.607843%,0%,0%);stroke-opacity:1;stroke-miterlimit:4;" d="M 110.618082 63.592886 C 110.618082 91.20778 88.232127 113.594149 60.616329 113.594149 C 33.00259 113.594149 10.616635 91.20778 10.616635 63.592886 C 10.616635 35.980063 33.00259 13.593694 60.616329 13.593694 C 88.232127 13.593694 110.618082 35.980063 110.618082 63.592886 Z M 110.618082 63.592886 " transform="matrix(1.896418,0,0,1.886437,-19.883577,-25.393644)"/>
<path style="fill:none;stroke-width:0.264583;stroke-linecap:butt;stroke-linejoin:miter;stroke:rgb(99.607843%,0%,0%);stroke-opacity:1;stroke-miterlimit:4;" d="M 65.895608 26.262254 C 65.895608 29.024572 63.65866 31.263002 60.896462 31.263002 C 58.134265 31.263002 55.897317 29.024572 55.897317 26.262254 C 55.897317 23.499937 58.134265 21.261507 60.896462 21.261507 C 63.65866 21.261507 65.895608 23.499937 65.895608 26.262254 Z M 65.895608 26.262254 " transform="matrix(1.896418,0,0,1.886437,-19.883577,-25.393644)"/>
<path style="fill:none;stroke-width:0.404238;stroke-linecap:butt;stroke-linejoin:miter;stroke:rgb(0%,0%,100%);stroke-opacity:1;stroke-miterlimit:4;" d="M 51.950732 83.502694 C 51.172125 83.411584 48.80747 83.148604 46.69617 82.918756 C 31.700794 81.284972 19.002099 75.930134 15.953589 69.958227 C 14.921627 67.933079 14.921627 64.78354 15.953589 62.760464 C 21.393532 52.098414 52.554254 46.128578 79.166928 50.648922 C 91.134392 52.680282 100.856669 56.997697 104.10704 61.723041 C 105.176079 63.278139 105.309966 63.806168 105.309966 66.471163 C 105.309966 69.154794 105.184318 69.645551 104.11322 71.124033 C 100.150156 76.59483 89.214654 80.995073 74.789843 82.922898 C 71.461199 83.368099 54.471932 83.798805 51.950732 83.502694 Z M 55.499775 82.233354 C 54.671733 82.148455 53.215452 82.146384 52.265882 82.231283 C 51.314252 82.316182 51.991928 82.388656 53.769539 82.388656 C 55.54921 82.390727 56.327816 82.320323 55.499775 82.233354 Z M 68.839068 82.233354 C 68.011027 82.148455 66.554745 82.146384 65.605175 82.231283 C 64.653546 82.316182 65.331221 82.388656 67.110892 82.388656 C 68.888504 82.390727 69.66711 82.320323 68.839068 82.233354 Z M 49.22355 81.837849 C 48.723018 81.742597 47.903216 81.742597 47.402683 81.837849 C 46.904211 81.935172 47.312052 82.013859 48.313117 82.013859 C 49.314182 82.013859 49.722023 81.935172 49.22355 81.837849 Z M 73.071966 81.837849 C 72.571434 81.742597 71.753692 81.742597 71.253159 81.837849 C 70.752627 81.935172 71.162528 82.013859 72.163593 82.013859 C 73.162598 82.013859 73.572499 81.935172 73.071966 81.837849 Z M 45.785737 81.440274 C 45.396434 81.33881 44.759954 81.33881 44.372711 81.440274 C 43.983408 81.541739 44.300618 81.626638 45.079224 81.626638 C 45.85783 81.626638 46.17504 81.541739 45.785737 81.440274 Z M 76.314099 81.454769 C 76.040145 81.342951 75.494297 81.336739 75.100874 81.440274 C 74.707451 81.541739 74.93197 81.63285 75.599347 81.641133 C 76.266723 81.649415 76.588053 81.564517 76.314099 81.454769 Z M 42.755764 81.048912 C 42.477691 80.935023 42.022474 80.935023 41.7444 81.048912 C 41.466327 81.160729 41.692905 81.25184 42.249053 81.25184 C 42.8052 81.25184 43.031778 81.160729 42.755764 81.048912 Z M 63.755471 81.01371 C 61.687427 80.941235 58.412338 80.941235 56.478182 81.01578 C 54.544025 81.088255 56.235125 81.148305 60.237325 81.148305 C 64.239525 81.148305 65.823515 81.088255 63.755471 81.01371 Z M 78.925931 81.071689 C 78.792043 80.937094 78.441877 80.922599 78.151444 81.038558 C 77.828055 81.169012 77.924866 81.264265 78.394501 81.282901 C 78.820881 81.301537 79.059818 81.206285 78.925931 81.071689 Z M 40.329315 80.643054 C 40.051241 80.531236 39.596024 80.531236 39.317951 80.643054 C 39.039877 80.756942 39.268516 80.848053 39.824663 80.848053 C 40.38081 80.848053 40.607388 80.756942 40.329315 80.643054 Z M 50.840497 80.626488 C 50.339964 80.529165 49.520162 80.529165 49.01963 80.626488 C 48.521157 80.72174 48.928998 80.800427 49.930063 80.800427 C 50.931128 80.800427 51.33897 80.72174 50.840497 80.626488 Z M 71.45502 80.626488 C 70.954488 80.529165 70.136745 80.529165 69.636213 80.626488 C 69.13568 80.72174 69.545581 80.800427 70.546646 80.800427 C 71.545651 80.800427 71.955552 80.72174 71.45502 80.626488 Z M 81.156699 80.643054 C 80.878625 80.531236 80.425468 80.531236 80.147395 80.643054 C 79.869321 80.756942 80.0959 80.848053 80.652047 80.848053 C 81.208194 80.848053 81.434773 80.756942 81.156699 80.643054 Z M 38.502268 80.262044 C 38.368381 80.129519 38.018214 80.115024 37.727782 80.230984 C 37.404392 80.359367 37.501203 80.45669 37.970839 80.475327 C 38.397218 80.491892 38.636156 80.39664 38.502268 80.262044 Z M 46.80534 80.241337 C 46.531386 80.13159 45.985538 80.125378 45.592115 80.226842 C 45.198693 80.330378 45.423211 80.419418 46.090588 80.427701 C 46.755905 80.435983 47.079294 80.353155 46.80534 80.241337 Z M 75.506655 80.241337 C 75.232701 80.13159 74.686853 80.125378 74.293431 80.226842 C 73.900008 80.330378 74.124527 80.419418 74.789843 80.427701 C 75.45722 80.435983 75.77855 80.353155 75.506655 80.241337 Z M 83.373049 80.262044 C 83.237101 80.129519 82.888995 80.115024 82.596502 80.230984 C 82.275173 80.359367 82.369924 80.45669 82.841619 80.475327 C 83.267999 80.491892 83.506936 80.39664 83.373049 80.262044 Z M 43.563208 79.83548 C 43.285134 79.723662 42.829917 79.723662 42.551844 79.83548 C 42.27377 79.947298 42.502409 80.038408 43.058556 80.038408 C 43.614703 80.038408 43.841281 79.947298 43.563208 79.83548 Z M 68.064582 79.694672 C 84.322618 78.584775 97.15932 74.32741 100.487964 68.941512 C 104.621991 62.253141 90.996385 55.173408 70.546646 53.384321 C 63.774009 52.7921 50.123685 53.133766 44.27796 54.040734 C 31.047836 56.094871 20.870342 60.729104 19.702433 65.230812 C 19.199841 67.175202 19.517051 68.158786 21.30908 70.194287 C 25.346297 74.780894 38.098547 78.733866 51.86422 79.665682 C 58.760445 80.13159 61.580317 80.137802 68.064582 79.694672 Z M 37.404392 76.050235 C 36.629906 75.868013 35.492894 75.157762 34.877012 74.468218 C 33.970698 73.453573 33.760598 72.834433 33.760598 71.184083 C 33.760598 68.653684 34.539204 67.098586 36.37243 65.963841 C 39.443599 64.065006 40.957555 65.953487 38.405457 68.504593 C 37.167515 69.742874 37.01303 70.08661 37.387914 70.784437 C 38.535225 72.927615 41.74852 71.817718 44.829988 68.212624 L 46.749725 65.963841 L 45.515902 66.210255 C 44.624007 66.388335 44.218226 66.288941 44.049322 65.849952 C 43.921614 65.514498 43.11417 65.129348 42.253172 64.990611 C 38.37456 64.37147 37.923463 59.880116 41.445729 56.91694 C 44.263541 54.545985 48.951656 54.102855 57.003432 55.448812 C 62.325967 56.337143 67.353949 56.560779 71.251099 56.080376 C 74.155424 55.722144 74.791903 56.275022 73.591037 58.109665 C 72.064722 60.437135 67.100593 60.958952 61.007692 59.430773 C 57.981839 58.672896 57.433931 58.635623 56.509079 59.128451 L 55.454459 59.689611 L 56.834528 59.890469 C 58.126025 60.078903 58.212537 60.18658 58.136324 61.507688 C 58.093068 62.286273 57.936523 63.619805 57.786158 64.472935 C 57.526622 65.955558 57.54928 65.999043 58.338185 65.506216 C 59.007622 65.090004 59.281576 65.092075 59.800646 65.522781 C 60.152873 65.81475 60.439186 66.338638 60.439186 66.686516 C 60.439186 67.148283 60.756396 67.015758 61.607095 66.199901 C 63.055137 64.81253 65.66491 64.336268 66.472353 65.311569 C 66.806041 65.711215 67.189165 65.829245 67.467239 65.613892 C 69.024451 64.404602 71.588907 64.932631 71.992629 66.547779 C 72.309839 67.808837 72.371633 67.808837 73.834094 66.576769 C 75.409845 65.251519 77.66945 64.84152 79.045399 65.630458 C 80.097959 66.235103 80.106199 66.22682 81.892049 63.472785 C 83.640823 60.772589 83.725275 60.708397 85.401956 60.704256 C 86.849999 60.700114 87.119833 60.826427 87.119833 61.505618 C 87.119833 61.950819 85.659432 64.584753 83.875641 67.359495 C 79.871381 73.59231 79.574769 74.375036 82.163943 71.877768 C 84.260824 69.854692 85.564681 69.527521 85.840694 70.958376 C 86.001359 71.801152 83.140291 74.965186 81.379158 75.890791 C 80.056763 76.586547 77.755962 76.640385 77.105064 75.990184 C 76.742538 75.627811 76.386192 75.627811 75.591107 75.990184 C 75.018482 76.251093 74.128646 76.464375 73.613695 76.464375 C 72.281002 76.464375 70.546646 74.97554 70.546646 73.832512 C 70.546646 72.966958 70.412759 72.898625 69.1398 73.105695 C 68.202589 73.256857 67.401325 73.118119 66.748367 72.689484 C 65.778199 72.053778 65.743182 72.074485 64.474343 74.052006 C 63.289955 75.897003 63.057197 76.060588 61.611214 76.060588 C 59.510214 76.060588 59.54935 75.406246 61.878989 71.662415 C 62.894473 70.032772 63.640122 68.616411 63.539191 68.514947 C 63.438261 68.413482 62.562844 69.293531 61.594736 70.46762 C 58.449415 74.283925 56.577052 75.936346 55.081634 76.217962 C 53.510004 76.512001 51.65618 75.961194 50.943487 74.985893 C 50.548005 74.44544 50.346144 74.428874 49.629332 74.876146 C 48.931058 75.313064 48.671523 75.313064 48.144213 74.874075 C 47.248198 74.132764 47.33265 73.735189 48.716839 72.159384 C 49.384215 71.399436 49.930063 70.535953 49.930063 70.241913 C 49.930063 69.233481 53.139239 66.023891 54.428676 65.740205 C 56.315457 65.326064 55.077515 64.396319 52.962096 64.640662 C 51.458438 64.81253 51.217441 65.029954 49.54076 67.715656 C 47.530391 70.929386 44.214106 74.654581 42.658954 75.439377 C 41.194433 76.178618 39.029578 76.431244 37.404392 76.050235 Z M 80.767396 74.869934 C 80.94042 74.71049 80.668525 74.594531 80.159754 74.613167 C 78.052574 74.689783 79.131911 72.167667 84.792254 63.799956 C 86.30621 61.559456 86.339167 61.447638 85.439032 61.576021 C 84.769596 61.671274 83.900359 62.621726 82.470854 64.816672 C 81.35856 66.522931 80.229787 67.933079 79.957893 67.947574 C 79.688058 67.96414 79.274038 67.61212 79.0351 67.166919 C 78.202939 65.611821 76.314099 66.117073 72.971036 68.784138 C 69.66505 71.422214 68.093419 71.861203 67.292155 70.364085 C 66.954347 69.734591 66.964646 69.221057 67.327172 68.343079 C 67.829764 67.127576 68.9297 66.721718 68.9297 67.750858 C 68.9297 68.069746 69.129501 68.454896 69.372558 68.606058 C 70.004918 68.997421 71.108973 67.75707 70.812361 66.986768 C 70.39628 65.905861 69.341661 65.796114 68.107838 66.709294 C 66.657735 67.779847 66.223117 67.792272 65.897668 66.763132 C 65.493946 65.48965 63.881119 65.769195 62.039654 67.431969 C 60.39593 68.918734 59.841842 68.910451 59.569948 67.398838 C 59.378386 66.330355 58.614199 66.748637 58.758385 67.841968 C 58.972605 69.479894 58.020975 71.939889 56.762435 73.000089 C 55.182565 74.329481 53.783958 74.339834 52.927079 73.03115 C 51.775648 71.275194 53.149538 68.276816 55.676918 67.030253 C 56.521438 66.616112 56.739777 66.37384 56.276321 66.367628 C 54.509009 66.34485 52.197908 68.266463 50.941427 70.805144 C 50.554184 71.583729 49.851791 72.672918 49.378036 73.227867 C 48.543815 74.203168 48.541755 74.213521 49.355378 73.530189 C 50.504749 72.567312 50.848736 72.635646 51.886878 74.039582 C 53.427611 76.122709 56.068281 75.435236 58.445295 72.333323 C 60.886163 69.148582 62.999523 67.166919 63.959392 67.166919 C 65.403314 67.166919 65.13348 68.624694 63.067496 71.973021 C 62.066431 73.596452 61.248689 74.998318 61.248689 75.087358 C 61.248689 75.178469 61.502045 75.253014 61.808956 75.253014 C 62.117926 75.253014 63.112812 74.070643 64.019126 72.625292 C 64.92544 71.179942 65.858531 69.99757 66.095409 69.99757 C 66.330226 69.99757 66.696872 70.451054 66.906972 71.008073 C 67.199464 71.772163 67.584647 72.018576 68.490961 72.018576 C 69.150099 72.018576 69.803057 71.836354 69.939004 71.614789 C 70.466314 70.76373 71.35409 71.215143 71.35409 72.333323 C 71.35409 74.934126 73.335621 75.934275 75.749712 74.548975 C 76.944399 73.861502 76.995894 73.867714 77.834234 74.76847 C 78.662276 75.656801 79.867261 75.698215 80.767396 74.869934 Z M 73.475688 73.977461 C 72.311899 72.813726 73.24293 70.053479 75.413964 68.227119 C 77.650912 66.34278 79.306995 67.129647 78.798223 69.833985 C 78.287391 72.55903 74.783664 75.286145 73.475688 73.977461 Z M 75.753832 72.571454 C 76.623069 71.962667 77.821876 69.773934 77.821876 68.796562 C 77.821876 67.394697 74.995824 69.660046 74.235756 71.672769 C 73.619874 73.306553 74.206919 73.654431 75.753832 72.571454 Z M 41.686726 74.598672 C 43.482875 73.745542 46.624077 70.281256 48.801291 66.752779 C 49.75498 65.205964 50.758105 63.938693 51.027939 63.936623 C 51.299833 63.934552 51.419302 63.667431 51.295714 63.342331 C 51.155647 62.982029 51.911595 61.847284 53.22781 60.435064 C 54.947747 58.592139 55.112531 58.312594 54.037313 59.058047 C 53.295784 59.573652 52.022825 60.871982 51.209202 61.942536 C 50.393519 63.01516 49.408933 64.002885 49.01963 64.141622 C 48.632387 64.280359 48.313117 64.708995 48.313117 65.094146 C 48.313117 66.092224 44.224405 70.921104 42.452973 72.016505 C 40.446724 73.256857 37.921403 73.263069 36.922398 72.02893 C 35.805984 70.651912 35.991367 69.040905 37.42911 67.601767 C 38.930708 66.102578 38.036752 65.876871 36.442464 67.353283 C 34.335284 69.305955 34.083988 72.281555 35.888376 73.923623 C 37.521801 75.408317 39.495094 75.638165 41.686726 74.598672 Z M 82.470854 73.635795 C 82.874576 73.190594 83.111453 72.82615 83.000224 72.82615 C 82.888995 72.82615 82.468794 73.190594 82.067133 73.635795 C 81.665471 74.078926 81.426533 74.443369 81.537763 74.443369 C 81.648992 74.443369 82.069192 74.078926 82.470854 73.635795 Z M 55.611004 72.409939 C 56.593531 71.88398 57.611074 69.947873 57.611074 68.601916 C 57.611074 67.359495 57.468948 67.342929 55.786087 68.384493 C 54.381301 69.250046 53.324621 71.20479 53.711864 72.213222 C 53.987878 72.931756 54.533726 72.987665 55.611004 72.409939 Z M 69.102723 69.573076 C 68.198469 69.243834 67.934814 69.368076 68.29528 69.952015 C 68.435347 70.179792 68.849367 70.250196 69.216013 70.111459 C 69.800997 69.885752 69.786578 69.82156 69.102723 69.573076 Z M 44.611648 63.292634 C 45.202812 62.940615 46.045272 62.168243 46.48607 61.573951 L 47.287334 60.497185 L 46.129724 61.406224 C 44.123475 62.982029 41.845331 62.439505 41.845331 60.389509 C 41.845331 57.842544 44.469522 56.277093 48.762154 56.262598 C 52.990933 56.248103 55.262897 56.668456 55.483296 57.50502 C 55.633662 58.078604 55.814925 58.138655 56.366952 57.794918 C 56.890143 57.469818 58.169281 57.62512 61.508224 58.424412 C 66.754546 59.677187 68.548636 59.733096 70.800002 58.712239 C 73.757881 57.368353 73.296485 57.12401 68.221127 57.341434 C 64.808031 57.488454 62.278591 57.349717 59.228021 56.850677 C 53.248408 55.873306 47.485075 55.635175 45.208992 56.272951 C 42.632176 56.995627 40.228384 59.329309 40.228384 61.110113 C 40.228384 63.638442 42.304667 64.671722 44.611648 63.292634 Z M 49.499564 62.149606 C 49.816774 61.685769 50.867274 60.505468 51.831263 59.528096 C 52.793192 58.548654 53.528542 57.695524 53.460568 57.627191 C 53.394654 57.560929 52.162891 57.38699 50.725148 57.23997 C 47.573647 56.919011 44.978293 57.529868 43.587925 58.91931 C 41.509583 60.998295 43.758889 61.882486 46.037033 59.882187 C 48.2781 57.915019 49.188534 59.389359 47.460358 62.186879 L 46.607599 63.568038 L 47.763149 63.28021 C 48.399629 63.122837 49.180295 62.613444 49.499564 62.149606 Z M 54.418377 61.609153 C 54.848876 60.447488 54.735587 60.466125 53.536781 61.754102 C 52.679902 62.675565 52.653125 62.789453 53.320502 62.66314 C 53.740702 62.584454 54.235055 62.110263 54.418377 61.609153 Z M 57.409213 61.103901 C 57.271206 60.882336 56.941638 60.702185 56.677983 60.706326 C 56.38755 60.708397 56.436986 60.867841 56.801571 61.103901 C 57.578117 61.605011 57.718184 61.605011 57.409213 61.103901 Z M 78.116428 79.858257 C 77.98254 79.723662 77.634433 79.709167 77.341941 79.827197 C 77.020612 79.95558 77.115363 80.050833 77.587058 80.07154 C 78.013437 80.088105 78.252375 79.992853 78.116428 79.858257 Z M 84.989995 79.858257 C 84.854048 79.723662 84.505941 79.709167 84.213449 79.827197 C 83.892119 79.95558 83.98687 80.050833 84.458566 80.07154 C 84.884945 80.088105 85.123882 79.992853 84.989995 79.858257 Z M 41.33244 79.45447 C 41.196492 79.319875 40.848386 79.30538 40.555893 79.42341 C 40.234564 79.551793 40.329315 79.647046 40.80101 79.667753 C 41.22739 79.684318 41.466327 79.589066 41.33244 79.45447 Z M 80.542877 79.45447 C 80.40899 79.319875 80.058823 79.30538 79.768391 79.42341 C 79.445001 79.551793 79.541812 79.647046 80.011448 79.667753 C 80.437827 79.684318 80.676765 79.589066 80.542877 79.45447 Z M 86.606942 79.45447 C 86.470994 79.319875 86.122888 79.30538 85.830395 79.42341 C 85.509066 79.551793 85.603817 79.647046 86.075512 79.667753 C 86.501892 79.684318 86.740829 79.589066 86.606942 79.45447 Z M 39.309712 79.050683 C 39.175824 78.916088 38.827717 78.901593 38.535225 79.017552 C 38.213896 79.148006 38.308647 79.243259 38.780342 79.261895 C 39.206721 79.280531 39.443599 79.185279 39.309712 79.050683 Z M 82.563545 79.050683 C 82.429658 78.916088 82.081551 78.901593 81.789059 79.017552 C 81.46567 79.148006 81.56248 79.243259 82.034176 79.261895 C 82.458495 79.280531 82.697433 79.185279 82.563545 79.050683 Z M 19.510871 72.120041 C 15.776446 68.28717 15.924752 64.13334 19.931071 60.33567 C 21.241107 59.095319 21.430609 58.811633 20.538714 59.428703 C 17.166814 61.762385 15.496312 65.189398 16.344952 68.026261 C 16.773391 69.455046 20.062899 73.635795 20.759113 73.635795 C 20.886821 73.635795 20.324494 72.952463 19.510871 72.120041 Z M 103.58591 69.666258 C 105.27289 66.796263 104.867108 64.249299 102.255276 61.30683 C 101.449893 60.397792 101.346902 60.346024 101.843315 61.103901 C 102.95561 62.803948 104.080263 65.307428 104.088502 66.110861 C 104.10704 67.690807 103.110095 70.063833 101.730026 71.718324 C 100.611552 73.058069 100.547698 73.213372 101.429294 72.422363 C 102.049296 71.867415 103.019464 70.624993 103.58591 69.666258 Z M 22.038251 72.703979 C 22.038251 72.635646 21.354396 71.954384 20.522235 71.188224 L 19.006219 69.794641 L 20.398647 71.310396 C 21.696324 72.722615 22.038251 73.012514 22.038251 72.703979 Z M 100.459127 71.41186 C 100.982317 70.856912 101.318065 70.401357 101.206836 70.401357 C 101.095606 70.401357 100.578595 70.856912 100.055405 71.41186 C 99.534274 71.966809 99.196466 72.422363 99.307696 72.422363 C 99.418925 72.422363 99.937996 71.966809 100.459127 71.41186 Z M 102.74551 67.6701 C 103.081258 66.330355 102.568366 64.127127 101.670292 63.052433 C 100.906104 62.137182 100.906104 62.153748 101.68265 63.715058 C 102.6384 65.634599 102.679596 66.69894 101.876272 68.697169 C 101.330424 70.053479 101.332484 70.121812 101.89275 69.390854 C 102.234678 68.945653 102.617802 68.17121 102.74345 67.6701 Z M 18.818777 68.811057 C 18.209075 67.674242 18.305886 65.286721 19.016518 63.913845 C 19.354326 63.257432 19.541768 62.72112 19.430539 62.72112 C 18.936186 62.72112 17.994855 65.241166 17.994855 66.568486 C 17.994855 67.924797 18.567481 69.593783 19.035056 69.593783 C 19.146286 69.593783 19.047415 69.241764 18.818777 68.811057 Z M 20.4728 61.609153 C 20.975392 60.967235 20.960973 60.95274 20.320374 61.455921 C 19.931071 61.762385 19.611802 62.079202 19.611802 62.164101 C 19.611802 62.497484 19.94343 62.282131 20.4728 61.609153 Z M 99.651683 60.950669 C 99.651683 60.867841 99.332414 60.548953 98.94311 60.24456 C 98.302511 59.741379 98.288093 59.755874 98.790685 60.395721 C 99.320055 61.07077 99.651683 61.284052 99.651683 60.950669 Z M 22.493468 59.991934 C 22.99606 59.350016 22.981642 59.337592 22.341042 59.838702 C 21.667486 60.366731 21.453267 60.700114 21.784895 60.700114 C 21.869347 60.700114 22.188617 60.381226 22.493468 59.991934 Z M 100.864908 60.143095 C 100.864908 60.058196 100.545638 59.741379 100.156335 59.434915 C 99.515736 58.931734 99.501318 58.946229 100.00391 59.588147 C 100.53122 60.261125 100.864908 60.474408 100.864908 60.143095 Z M 25.080582 56.734718 C 24.954934 56.610476 24.629485 56.734718 24.355531 57.012192 C 23.957989 57.409767 24.005364 57.457393 24.58211 57.237899 C 24.979652 57.084667 25.204171 56.85896 25.080582 56.734718 Z M 28.506037 55.44467 C 28.839726 55.229317 28.930357 55.053307 28.707898 55.053307 C 28.485439 55.053307 28.030222 55.229317 27.696534 55.44467 C 27.362846 55.660023 27.272214 55.836033 27.494673 55.836033 C 27.717132 55.836033 28.172349 55.660023 28.506037 55.44467 Z M 34.864654 54.79654 C 34.728706 54.661945 34.3806 54.64745 34.088107 54.763409 C 33.766778 54.893863 33.861529 54.989116 34.333224 55.007752 C 34.759604 55.026388 34.998541 54.931136 34.864654 54.79654 Z M 87.010663 54.79654 C 86.876776 54.661945 86.526609 54.64745 86.236177 54.763409 C 85.912787 54.893863 86.009598 54.989116 86.479234 55.007752 C 86.905613 55.026388 87.144551 54.931136 87.010663 54.79654 Z M 36.4816 54.390682 C 36.345653 54.258157 35.997546 54.243663 35.705054 54.359622 C 35.383724 54.488005 35.478475 54.585329 35.950171 54.603965 C 36.37655 54.62053 36.615487 54.525278 36.4816 54.390682 Z M 85.393717 54.390682 C 85.259829 54.258157 84.909663 54.243663 84.61923 54.359622 C 84.295841 54.488005 84.392652 54.585329 84.862287 54.603965 C 85.288667 54.62053 85.527604 54.525278 85.393717 54.390682 Z M 38.098547 53.986895 C 37.962599 53.8523 37.614493 53.837805 37.322 53.955835 C 37.000671 54.084218 37.095422 54.179471 37.567117 54.200178 C 37.993497 54.216743 38.232434 54.121491 38.098547 53.986895 Z M 83.77677 53.986895 C 83.642883 53.8523 83.292716 53.837805 83.002284 53.955835 C 82.678894 54.084218 82.775705 54.179471 83.245341 54.200178 C 83.67172 54.216743 83.910658 54.121491 83.77677 53.986895 Z M 34.05515 53.583108 C 33.921263 53.448513 33.573156 53.434018 33.280664 53.552048 C 32.957275 53.680431 33.054085 53.775684 33.523721 53.796391 C 33.9501 53.812956 34.189038 53.717704 34.05515 53.583108 Z M 40.119215 53.583108 C 39.985327 53.448513 39.635161 53.434018 39.344728 53.552048 C 39.021339 53.680431 39.11815 53.775684 39.587785 53.796391 C 40.014165 53.812956 40.253102 53.717704 40.119215 53.583108 Z M 81.756102 53.583108 C 81.620155 53.448513 81.272048 53.434018 80.979556 53.552048 C 80.658226 53.680431 80.752977 53.775684 81.224673 53.796391 C 81.651052 53.812956 81.889989 53.717704 81.756102 53.583108 Z M 35.672097 53.179321 C 35.53821 53.044726 35.190103 53.030231 34.89761 53.14619 C 34.574221 53.276644 34.671032 53.371897 35.140667 53.390533 C 35.567047 53.409169 35.805984 53.313917 35.672097 53.179321 Z M 42.349983 53.154473 C 42.071909 53.042655 41.618752 53.042655 41.340679 53.154473 C 41.062605 53.268361 41.289184 53.359472 41.845331 53.359472 C 42.401478 53.359472 42.628057 53.268361 42.349983 53.154473 Z M 79.539752 53.154473 C 79.261679 53.042655 78.808522 53.042655 78.530448 53.154473 C 78.252375 53.268361 78.478953 53.359472 79.0351 53.359472 C 79.591248 53.359472 79.817826 53.268361 79.539752 53.154473 Z M 37.289043 52.775534 C 37.155156 52.640938 36.807049 52.626444 36.514557 52.742403 C 36.191168 52.872857 36.287978 52.96811 36.757614 52.986746 C 37.183993 53.005382 37.422931 52.908059 37.289043 52.775534 Z M 44.978293 52.740332 C 44.58899 52.638868 43.952511 52.638868 43.563208 52.740332 C 43.173905 52.841797 43.493174 52.924625 44.269721 52.924625 C 45.048327 52.924625 45.367597 52.841797 44.978293 52.740332 Z M 77.317223 52.740332 C 76.92792 52.638868 76.291441 52.638868 75.902138 52.740332 C 75.512835 52.841797 75.832104 52.924625 76.610711 52.924625 C 77.387257 52.924625 77.706527 52.841797 77.317223 52.740332 Z M 39.11609 52.346899 C 38.838016 52.235081 38.384859 52.235081 38.106786 52.346899 C 37.828712 52.458717 38.055291 52.551898 38.611438 52.551898 C 39.167585 52.551898 39.394164 52.458717 39.11609 52.346899 Z M 48.414047 52.330333 C 47.913515 52.23301 47.095772 52.23301 46.59524 52.330333 C 46.094707 52.425585 46.504609 52.504272 47.503614 52.504272 C 48.504679 52.504272 48.91458 52.425585 48.414047 52.330333 Z M 74.285191 52.330333 C 73.784659 52.23301 72.966916 52.23301 72.466384 52.330333 C 71.965851 52.425585 72.375753 52.504272 73.376818 52.504272 C 74.375823 52.504272 74.785724 52.425585 74.285191 52.330333 Z M 82.563545 52.369676 C 82.429658 52.237151 82.081551 52.222656 81.789059 52.338616 C 81.46567 52.466999 81.56248 52.564322 82.034176 52.582959 C 82.458495 52.599524 82.697433 52.504272 82.563545 52.369676 Z M 41.136758 51.943112 C 40.860744 51.831294 40.405528 51.831294 40.127454 51.943112 C 39.84938 52.05493 40.075959 52.14604 40.632106 52.14604 C 41.188253 52.14604 41.414832 52.05493 41.136758 51.943112 Z M 53.458508 51.916192 C 52.620168 51.827152 51.345149 51.829223 50.628337 51.918263 C 49.911525 52.007303 50.59744 52.079778 52.152592 52.077707 C 53.709805 52.075637 54.296849 52.003162 53.458508 51.916192 Z M 70.031695 51.916192 C 69.193355 51.827152 67.920396 51.829223 67.201524 51.918263 C 66.484712 52.007303 67.170627 52.079778 68.727839 52.077707 C 70.282991 52.075637 70.870036 52.003162 70.031695 51.916192 Z M 80.542877 51.965889 C 80.40899 51.831294 80.058823 51.816799 79.768391 51.934829 C 79.445001 52.063212 79.541812 52.158465 80.011448 52.179172 C 80.437827 52.195737 80.676765 52.100485 80.542877 51.965889 Z M 43.975169 51.541395 C 43.701215 51.429577 43.155367 51.423365 42.761944 51.52483 C 42.368521 51.628365 42.59304 51.719476 43.260417 51.727759 C 43.927793 51.733971 44.249123 51.651142 43.975169 51.541395 Z M 62.966566 51.506193 C 61.576198 51.427507 59.304233 51.427507 57.913865 51.506193 C 56.523497 51.586951 57.66051 51.651142 60.439186 51.651142 C 63.219922 51.651142 64.356934 51.58488 62.966566 51.506193 Z M 78.334767 51.541395 C 78.060813 51.429577 77.517025 51.423365 77.123602 51.52483 C 76.730179 51.628365 76.952638 51.719476 77.620015 51.727759 C 78.287391 51.733971 78.608721 51.651142 78.334767 51.541395 Z M 51.108272 50.746245 C 51.409003 50.472913 48.160691 50.644781 46.292449 50.998871 C 44.924739 51.257709 45.274905 51.288769 47.707534 51.121043 C 49.485146 50.998871 51.01558 50.831144 51.108272 50.746245 Z M 75.704397 51.125184 C 75.319213 51.02372 74.590042 51.019578 74.08745 51.116901 C 73.584858 51.214224 73.902068 51.297052 74.789843 51.301194 C 75.679679 51.305335 76.09164 51.226648 75.704397 51.125184 Z M 72.264523 50.713114 C 71.763991 50.615791 70.946248 50.615791 70.445716 50.713114 C 69.945183 50.808366 70.355084 50.887053 71.35409 50.887053 C 72.355155 50.887053 72.765056 50.808366 72.264523 50.713114 Z M 64.200389 50.292761 C 62.155003 50.220287 58.698651 50.218216 56.519378 50.292761 C 54.340105 50.365236 56.014726 50.425286 60.237325 50.425286 C 64.461984 50.425286 66.245775 50.365236 64.200389 50.292761 Z M 64.200389 50.292761 " transform="matrix(1.896418,0,0,1.886437,-19.883577,-25.393644)"/>
</g>
</svg>
