<?xml version="1.0" encoding="UTF-8"?>
<svg xmlns="http://www.w3.org/2000/svg" xmlns:xlink="http://www.w3.org/1999/xlink" width="px" height="0px" viewBox="0 0 190 189" version="1.1">
<g id="surface1">
<path style="fill:none;stroke-width:0.264583;stroke-linecap:butt;stroke-linejoin:miter;stroke:rgb(99.607843%,0%,0%);stroke-opacity:1;stroke-miterlimit:4;" d="M 110.618082 63.592886 C 110.618082 91.20778 88.232127 113.594149 60.616329 113.594149 C 33.00259 113.594149 10.616635 91.20778 10.616635 63.592886 C 10.616635 35.980063 33.00259 13.593694 60.616329 13.593694 C 88.232127 13.593694 110.618082 35.980063 110.618082 63.592886 Z M 110.618082 63.592886 " transform="matrix(1.896418,0,0,1.886437,-19.883577,-25.393644)"/>
<path style="fill:none;stroke-width:0.264583;stroke-linecap:butt;stroke-linejoin:miter;stroke:rgb(99.607843%,0%,0%);stroke-opacity:1;stroke-miterlimit:4;" d="M 65.895608 26.262254 C 65.895608 29.024572 63.65866 31.263002 60.896462 31.263002 C 58.134265 31.263002 55.897317 29.024572 55.897317 26.262254 C 55.897317 23.499937 58.134265 21.261507 60.896462 21.261507 C 63.65866 21.261507 65.895608 23.499937 65.895608 26.262254 Z M 65.895608 26.262254 " transform="matrix(1.896418,0,0,1.886437,-19.883577,-25.393644)"/>
<path style="fill:none;stroke-width:0.34663;stroke-linecap:butt;stroke-linejoin:miter;stroke:rgb(0%,0%,100%);stroke-opacity:1;stroke-miterlimit:4;" d="M 47.106071 99.697662 C 46.341884 99.625187 43.769188 99.395339 41.385994 99.186198 C 34.388839 98.57327 30.506107 97.231455 27.371085 94.340753 C 23.906494 91.14773 21.232868 81.069619 21.350277 71.652062 C 21.377054 69.55444 21.455327 68.461109 21.52742 69.225198 C 22.373999 78.350786 23.953869 86.49486 25.558457 89.996419 C 27.173344 93.526967 30.291888 95.978679 34.79874 97.262515 C 40.836027 98.983269 65.018131 99.629329 77.208054 98.39726 C 91.027282 96.999536 94.259115 93.936966 96.646429 79.970075 C 98.090351 71.519537 98.708293 53.850229 97.723706 49.195289 C 96.767957 44.69151 94.500112 41.784243 90.477314 39.906116 C 85.486408 37.578646 78.901213 36.982283 58.544166 37.011273 C 45.635371 37.03198 41.797955 37.145869 38.395158 37.615918 C 31.047836 38.630563 27.764508 39.964095 24.979652 43.061867 C 23.167024 45.076661 22.097986 47.631908 21.667486 50.963669 L 21.368815 53.278715 L 21.325559 50.334175 C 21.286423 47.760292 21.405891 47.124586 22.268949 45.306509 C 25.591414 38.311674 31.941791 36.416981 53.691266 35.930366 C 68.740198 35.594912 83.193846 36.477032 88.530799 38.061119 C 92.681305 39.291117 95.517656 41.515052 97.311745 44.948277 L 98.405502 47.039687 L 98.510552 59.335521 C 98.621781 72.757817 98.281913 77.48109 96.710282 84.304056 C 95.033602 91.586719 93.354861 94.235148 88.973657 96.525345 C 85.956043 98.10115 84.751058 98.432462 79.688058 99.07231 C 75.766191 99.569278 50.834318 100.047611 47.106071 99.697662 Z M 47.359427 97.103071 C 39.54041 96.604032 36.916219 96.165043 34.254951 94.910197 C 28.948895 92.408788 27.078593 88.843037 25.391613 78.017402 C 24.489419 72.213222 24.065099 54.721995 24.732475 50.766952 C 25.548158 45.938073 27.721252 42.83409 31.490694 41.113335 C 38.263331 38.021776 68.328237 37.137586 82.635639 39.607934 C 89.315584 40.761316 92.471205 42.846514 94.10051 47.186707 C 96.345697 53.160685 95.637124 74.74155 92.846089 85.343549 C 91.04376 92.195505 87.288737 95.429943 79.997029 96.409386 C 72.635288 97.401252 57.182635 97.728423 47.359427 97.103071 Z M 73.621934 96.057366 C 80.41105 95.591458 82.347266 95.247721 84.862287 94.071562 C 90.116848 91.611567 91.78941 88.339856 93.567021 77.023465 C 94.306491 72.327111 94.656657 56.295729 94.116989 51.893415 C 93.239512 44.753631 90.240437 41.829799 82.396701 40.475559 C 72.101799 38.698896 47.75491 38.698896 37.457947 40.47763 C 31.152886 41.564749 28.048761 43.623027 26.510087 47.735443 C 23.902374 54.703359 25.307161 80.228913 28.722317 87.950564 C 30.135343 91.143588 32.858404 93.578735 36.428045 94.837722 C 40.916359 96.42181 59.491676 97.030596 73.621934 96.057366 Z M 42.539485 95.086206 C 41.173835 94.970247 39.983268 94.796308 39.894696 94.701056 C 39.655759 94.444289 36.528976 49.752308 36.438344 45.30858 L 36.360072 41.496416 L 39.103731 41.223083 C 40.613568 41.073992 41.9648 41.073992 42.108986 41.223083 C 42.253172 41.372173 42.941147 44.068228 43.637361 47.213626 C 45.43145 55.32664 47.847601 64.955409 48.871324 68.071816 C 49.950661 71.360093 51.765349 73.571603 54.130005 74.484783 C 56.198048 75.282004 63.34145 75.381398 65.434212 74.642157 C 67.395145 73.950542 69.23867 72.113829 70.260333 69.836055 C 71.257279 67.61005 73.988579 57.333151 76.180211 47.559434 L 77.617955 41.146467 L 80.386332 41.264497 C 81.908528 41.330759 83.296836 41.519193 83.471919 41.68692 C 83.663481 41.869142 83.480158 46.569638 83.014643 53.527199 C 82.588263 59.873904 82.09597 67.483737 81.922946 70.43863 C 81.25557 81.717749 80.139156 94.529187 79.803407 94.738328 C 79.236961 95.088277 71.817546 95.465145 71.549771 95.15661 C 71.415884 95.001308 70.812361 92.924393 70.208838 90.543084 C 68.892623 85.349761 67.646442 82.686837 66.031555 81.616284 C 64.950158 80.899821 64.455804 80.8377 59.965431 80.8377 C 55.732533 80.839771 54.929209 80.928811 53.96934 81.51482 C 52.084619 82.66406 51.196843 84.61052 49.378036 91.582577 L 48.428466 95.220802 L 46.727067 95.260145 C 45.791916 95.280853 43.907195 95.202166 42.539485 95.086206 Z M 48.154512 92.361161 C 50.463553 83.956178 51.365747 81.846132 53.118641 80.756942 C 54.296849 80.023914 54.768544 79.970075 59.930414 79.970075 C 68.422988 79.970075 68.375612 79.918308 71.914356 93.054847 C 72.256284 94.324188 72.3016 94.355248 73.895888 94.353178 C 74.793963 94.351107 76.344996 94.251713 77.341941 94.131612 C 79.04128 93.926613 79.166928 93.845855 79.333772 92.835352 C 79.504736 91.804142 80.693243 75.94877 81.066068 69.744944 C 81.162878 68.123584 81.482148 63.13319 81.7767 58.652189 C 82.069192 54.171188 82.425539 48.687967 82.563545 46.466102 L 82.816901 42.42409 L 81.599557 42.223232 C 80.930121 42.113485 79.914637 42.022374 79.342011 42.022374 L 78.30181 42.020303 L 76.806392 48.863976 C 74.868116 57.726585 72.054423 68.31823 71.040999 70.571155 C 70.114087 72.631504 68.604251 74.254935 66.771025 75.166045 C 65.739063 75.679579 64.490821 75.834882 60.624568 75.925993 C 55.512133 76.046093 53.903426 75.783114 51.996047 74.517915 C 50.438835 73.484634 49.365677 72.041354 48.430526 69.724237 C 47.571587 67.603838 44.242943 54.525278 42.543605 46.608981 L 41.559018 42.016162 L 39.999746 42.020303 C 39.140808 42.022374 38.125324 42.107273 37.7422 42.210808 C 36.932697 42.428232 36.887382 41.227224 38.627916 65.93278 C 39.198482 74.03337 39.818483 83.003655 40.005926 85.863296 C 40.549714 94.148178 40.500279 93.945249 42.010115 94.104693 C 42.714568 94.179239 44.263541 94.266208 45.447929 94.297269 L 47.606604 94.355248 Z M 48.154512 92.361161 " transform="matrix(1.896418,0,0,1.886437,-19.883577,-25.393644)"/>
<path style="fill:none;stroke-width:0.264583;stroke-linecap:butt;stroke-linejoin:miter;stroke:rgb(0%,0%,100%);stroke-opacity:1;stroke-miterlimit:4;" d="M 21.368815 53.278715 L 21.488283 70.277115 " transform="matrix(1.896418,0,0,1.886437,-19.883577,-25.393644)"/>
</g>
</svg>
