<?xml version="1.0" encoding="UTF-8"?>
<svg xmlns="http://www.w3.org/2000/svg" xmlns:xlink="http://www.w3.org/1999/xlink" width="px" height="0px" viewBox="0 0 190 189" version="1.1">
<g id="surface1">
<path style="fill:none;stroke-width:0.264583;stroke-linecap:butt;stroke-linejoin:miter;stroke:rgb(99.607843%,0%,0%);stroke-opacity:1;stroke-miterlimit:4;" d="M 110.618082 63.592886 C 110.618082 91.20778 88.232127 113.594149 60.616329 113.594149 C 33.00259 113.594149 10.616635 91.20778 10.616635 63.592886 C 10.616635 35.980063 33.00259 13.593694 60.616329 13.593694 C 88.232127 13.593694 110.618082 35.980063 110.618082 63.592886 Z M 110.618082 63.592886 " transform="matrix(1.896418,0,0,1.886437,-19.883577,-25.393644)"/>
<path style="fill:none;stroke-width:0.264583;stroke-linecap:butt;stroke-linejoin:miter;stroke:rgb(99.607843%,0%,0%);stroke-opacity:1;stroke-miterlimit:4;" d="M 65.895608 26.262254 C 65.895608 29.024572 63.65866 31.263002 60.896462 31.263002 C 58.134265 31.263002 55.897317 29.024572 55.897317 26.262254 C 55.897317 23.499937 58.134265 21.261507 60.896462 21.261507 C 63.65866 21.261507 65.895608 23.499937 65.895608 26.262254 Z M 65.895608 26.262254 " transform="matrix(1.896418,0,0,1.886437,-19.883577,-25.393644)"/>
<path style="fill:none;stroke-width:0.0553498;stroke-linecap:butt;stroke-linejoin:miter;stroke:rgb(0%,0%,100%);stroke-opacity:1;stroke-miterlimit:4;" d="M 58.169281 90.777074 C 50.756045 90.485105 43.85158 89.379349 37.579476 87.484656 C 28.955075 84.877641 22.143301 80.980578 17.990735 76.278012 C 15.547807 73.509482 14.027672 70.333024 13.700163 67.299444 C 13.613651 66.506365 13.62601 64.822884 13.72694 64.062936 C 14.734185 56.320578 22.347222 49.400288 34.681331 45.012469 C 40.148052 43.068079 46.617898 41.693132 53.077445 41.105053 C 55.901437 40.846215 56.119776 40.837932 60.882044 40.813084 C 63.957332 40.796518 65.916206 40.808942 66.665975 40.850356 C 70.445716 41.059497 73.949443 41.465355 77.446991 42.103131 C 92.425889 44.828176 103.923718 51.286699 107.960934 59.238198 C 109.100006 61.486981 109.577881 63.39824 109.582001 65.733993 C 109.58406 66.924647 109.522266 67.574848 109.308047 68.595704 C 107.738476 76.087507 99.696999 82.831787 87.478239 86.904859 C 81.084606 89.037683 74.101869 90.292529 66.251954 90.725306 C 64.826569 90.803993 59.674998 90.837124 58.169281 90.777074 Z M 65.531022 90.613488 C 75.45722 90.162075 84.40913 88.273594 92.015988 85.02259 C 99.781451 81.705324 105.379999 77.151849 107.921798 72.086909 C 108.414091 71.107467 108.924923 69.676611 109.145322 68.668179 C 109.421336 67.398838 109.522266 65.738134 109.400738 64.514349 C 108.799275 58.515523 104.195612 52.928766 96.269484 48.584432 C 86.959168 43.48429 73.98652 40.688841 60.468023 40.873134 C 57.924164 40.906265 56.867485 40.951821 54.488411 41.131972 C 42.48593 42.04101 31.443318 45.39969 23.890015 50.437711 C 21.805493 51.829223 19.912533 53.405028 18.548942 54.88558 C 15.881496 57.782494 14.36136 60.727033 13.879366 63.934552 C 13.759897 64.731773 13.745478 66.655456 13.854648 67.421616 C 14.025612 68.630906 14.307805 69.718025 14.732125 70.798932 C 18.211135 79.651187 30.722387 86.859304 47.301753 89.5595 C 50.80754 90.131014 53.829273 90.431266 58.113667 90.632125 C 59.030279 90.675609 64.468163 90.661114 65.531022 90.613488 Z M 57.837653 90.497529 C 39.346788 89.731369 23.403902 83.479917 16.855783 74.428874 C 16.103955 73.389381 15.389202 72.101404 14.919567 70.945952 C 13.358235 67.090303 13.566275 63.07314 15.52515 59.30239 C 17.611731 55.287297 21.477984 51.723617 27.090952 48.642411 C 30.948965 46.524082 36.011965 44.627318 41.233569 43.345553 C 52.18143 40.65571 64.799792 40.24157 76.380012 42.18803 C 85.333982 43.695502 93.321904 46.594486 99.15733 50.456347 C 101.169759 51.787809 102.403582 52.787958 103.975213 54.357551 C 106.269835 56.649819 107.730236 58.871683 108.587115 61.375163 C 110.2226 66.162628 109.16386 71.063982 105.536545 75.497357 C 104.862989 76.317355 103.427305 77.770989 102.485974 78.580634 C 94.961508 85.064004 82.209259 89.389703 67.745312 90.362933 C 64.92338 90.553438 60.60191 90.611417 57.837653 90.497529 Z M 66.196339 90.338085 C 76.573634 89.7645 85.492587 87.745565 93.317785 84.19638 C 99.021383 81.608001 103.655943 78.079524 106.331629 74.285996 C 107.855884 72.122111 108.844591 69.631056 109.124724 67.239394 C 109.211236 66.506365 109.159741 64.406672 109.040272 63.712987 C 108.679806 61.617436 107.880602 59.664763 106.593224 57.728655 C 105.250232 55.711791 103.204846 53.61624 100.836071 51.827152 C 93.173598 46.04575 81.107264 42.21702 67.745312 41.326618 C 63.02424 41.011871 57.901507 41.069851 53.326681 41.492274 C 38.741206 42.840302 26.217594 47.60913 19.393462 54.41346 C 18.89087 54.916641 18.289407 55.552347 18.060769 55.82568 C 15.854718 58.457543 14.637374 60.963093 14.157439 63.851724 C 14.015313 64.715207 14.013253 66.862526 14.157439 67.726009 C 14.620895 70.529741 15.770266 72.958675 17.83625 75.503569 C 18.460371 76.269729 20.246221 78.050534 21.113399 78.769068 C 23.381244 80.649266 25.902444 82.243707 29.00039 83.757391 C 36.978013 87.650312 47.112251 89.950863 58.224896 90.389852 C 59.730613 90.449903 64.773014 90.416771 66.196339 90.338085 Z M 64.884244 88.859603 C 64.92544 88.843037 64.972815 88.845108 64.991354 88.863744 C 65.009892 88.882381 64.976935 88.894805 64.917201 88.892734 C 64.853347 88.890663 64.840988 88.878239 64.884244 88.859603 Z M 66.71129 88.803694 C 66.750427 88.789199 66.797802 88.79127 66.81634 88.809906 C 66.836938 88.826472 66.801922 88.840966 66.744247 88.838896 C 66.680393 88.834754 66.668034 88.82233 66.71129 88.803694 Z M 68.593952 88.693947 C 68.633088 88.677381 68.680463 88.679452 68.699002 88.698088 C 68.71754 88.716724 68.684583 88.729149 68.626908 88.727078 C 68.563055 88.725007 68.548636 88.710512 68.593952 88.693947 Z M 69.331362 88.619401 C 69.372558 88.596624 69.642392 88.565563 69.932824 88.548997 C 70.309769 88.52622 70.379802 88.530361 70.180001 88.563492 C 69.782459 88.631826 69.24485 88.664957 69.331362 88.619401 Z M 65.310623 88.559351 C 66.239595 88.470311 66.993484 88.29223 67.677339 88.000261 C 67.823585 87.93814 67.932754 87.876019 67.918336 87.861524 C 67.903917 87.8491 67.823585 87.873948 67.737073 87.917433 C 67.650561 87.962988 67.516674 88.014756 67.440461 88.035463 C 67.364248 88.054099 67.547571 87.946423 67.846243 87.795262 C 69.13568 87.138849 70.144984 86.16976 71.164588 84.60845 C 71.55801 84.007946 73.216153 80.845983 74.017417 79.170784 C 76.336757 74.321198 77.232771 70.596003 76.651907 68.202271 C 76.604531 68.001413 76.456225 67.61212 76.324398 67.338788 C 75.683799 66.001114 74.382002 65.189398 72.408709 64.8995 C 71.652761 64.787682 69.603256 64.818742 68.631028 64.955409 C 66.07893 65.315711 62.801781 66.121214 58.667754 67.400909 C 50.086609 70.059691 42.621877 73.699987 35.904855 78.504018 C 34.123124 79.779571 33.42897 80.375933 33.000531 81.003356 C 32.79043 81.311891 32.578271 81.804718 32.563852 82.020071 C 32.561792 82.073909 32.537075 82.042849 32.510297 81.951738 C 32.47528 81.823354 32.469101 81.858556 32.485579 82.096687 C 32.495878 82.268556 32.555613 82.506686 32.619467 82.628858 C 32.759533 82.904261 33.00877 83.206584 33.068504 83.169311 C 33.091162 83.154816 33.144717 83.183806 33.185913 83.233503 C 33.229169 83.285271 33.449568 83.448856 33.676146 83.597947 C 33.904785 83.747037 34.104586 83.889916 34.119004 83.914764 C 34.209636 84.057643 36.308577 84.81552 38.327185 85.43259 C 42.426196 86.683294 47.023679 87.6441 51.361627 88.153493 C 51.54495 88.176271 51.744751 88.213544 51.804485 88.238392 L 51.915715 88.281877 L 51.804485 88.286018 C 51.604684 88.29223 49.722023 88.064453 48.59531 87.898797 C 44.508658 87.298293 39.412702 86.035164 35.587645 84.678854 C 33.344518 83.883704 32.407307 83.100978 32.405247 82.026283 C 32.405247 81.709466 32.434084 81.601789 32.623586 81.224921 C 32.994351 80.487751 33.659668 79.849975 35.264256 78.698664 C 35.941931 78.212049 36.079938 78.133362 35.939872 78.311442 C 35.871898 78.400483 35.873958 78.402553 35.95841 78.33422 C 36.011965 78.292806 36.042862 78.236897 36.026383 78.214119 C 35.999606 78.170634 36.281799 77.938716 36.362131 77.938716 C 36.384789 77.938716 36.370371 77.982201 36.329175 78.036039 C 36.265321 78.118867 36.26738 78.123008 36.335354 78.060887 C 36.38067 78.021544 36.415686 77.959423 36.415686 77.926292 C 36.415686 77.89316 36.450703 77.853817 36.493959 77.839322 C 36.545454 77.820686 36.555753 77.837251 36.524856 77.889019 C 36.500138 77.934574 36.502198 77.946999 36.533095 77.920079 C 36.559873 77.895231 36.58253 77.847605 36.58253 77.814474 C 36.58253 77.781342 36.617547 77.741999 36.660803 77.727504 C 36.712298 77.710938 36.722597 77.725433 36.69376 77.77306 C 36.664923 77.820686 36.671102 77.831039 36.714358 77.80412 C 36.751434 77.783413 36.767913 77.74407 36.751434 77.719221 C 36.716418 77.661242 37.598014 77.075233 37.692765 77.09594 C 37.731901 77.104222 37.783396 77.081445 37.806054 77.046243 C 37.832832 77.002758 37.822533 76.994475 37.773097 77.025536 C 37.727782 77.054526 37.715423 77.048314 37.740141 77.00897 C 37.760739 76.973768 37.812234 76.959273 37.85343 76.975839 C 37.894626 76.992405 37.948181 76.973768 37.970839 76.936496 C 37.999676 76.89094 37.989377 76.884728 37.939942 76.913718 C 37.892566 76.942708 37.880207 76.938566 37.904925 76.897152 C 37.927583 76.864021 37.977018 76.849526 38.020274 76.866092 C 38.06147 76.880587 38.112965 76.864021 38.137683 76.826748 C 38.16446 76.781193 38.156221 76.77291 38.106786 76.803971 C 38.05941 76.83296 38.047051 76.826748 38.071769 76.787405 C 38.092367 76.752203 38.150042 76.741849 38.199477 76.760486 C 38.261271 76.783264 38.27775 76.77291 38.248912 76.729425 C 38.228314 76.692153 38.230374 76.665233 38.255092 76.669375 C 38.360142 76.688011 38.442534 76.661092 38.415756 76.619678 C 38.399278 76.592759 38.421936 76.572052 38.459012 76.572052 C 38.498149 76.572052 38.90187 76.335992 39.357087 76.048164 C 44.331515 72.877918 50.251393 70.063833 56.154792 68.061463 C 56.745956 67.860605 57.267087 67.680454 57.312403 67.661817 C 57.357718 67.64111 57.421572 67.620403 57.450409 67.614191 C 57.596656 67.578989 58.840777 67.181414 58.890213 67.152424 C 58.947887 67.119293 58.962306 67.115152 59.207423 67.063384 C 59.289815 67.046819 59.427822 67.005404 59.512274 66.972273 C 59.596726 66.939142 59.726493 66.901869 59.800646 66.887374 C 59.876859 66.872879 59.965431 66.837678 60.000447 66.810758 C 60.035464 66.781769 60.0746 66.771415 60.091079 66.78591 C 60.105497 66.802476 60.229086 66.773486 60.362973 66.72586 C 60.49686 66.678233 60.665764 66.626466 60.739917 66.611971 C 60.81407 66.597476 60.894403 66.572628 60.92118 66.558133 C 60.945898 66.541567 61.009752 66.52086 61.063306 66.510506 C 61.374337 66.450456 61.889288 66.297224 61.949022 66.247527 C 61.986099 66.216467 62.016996 66.204042 62.016996 66.220608 C 62.016996 66.237174 62.097328 66.22682 62.198259 66.19783 C 62.297129 66.16677 62.414538 66.133639 62.459854 66.123285 C 62.50517 66.112932 63.154008 65.949346 63.899657 65.760912 C 65.568099 65.34263 67.386906 64.978186 68.631028 64.814601 C 69.885449 64.648945 71.836084 64.63445 72.672364 64.785611 C 74.536487 65.121065 75.813566 65.967982 76.464464 67.301515 C 76.777555 67.943433 76.971176 68.941512 76.954698 69.842267 C 76.950578 70.094893 76.944399 70.448983 76.940279 70.631205 C 76.938219 70.815498 76.913502 70.964588 76.886724 70.964588 C 76.862007 70.964588 76.847588 71.074336 76.859947 71.206861 C 76.870246 71.343527 76.855827 71.438779 76.82905 71.420143 C 76.800213 71.403577 76.791973 71.492618 76.812571 71.631355 C 76.82905 71.76388 76.82287 71.840496 76.800213 71.801152 C 76.771375 71.755597 76.742538 71.817718 76.71782 71.968879 C 76.656026 72.372666 76.363534 73.511553 76.161673 74.149329 C 76.056623 74.480642 75.98041 74.762258 75.992769 74.772611 C 76.005128 74.785035 76.099879 74.524127 76.206989 74.194885 C 76.447986 73.447361 76.466524 73.513624 76.237886 74.306703 C 76.021606 75.066651 75.582868 76.244881 75.045259 77.516292 C 74.606521 78.549573 72.353095 83.071988 71.788708 84.053501 C 70.441596 86.389254 68.894683 87.772484 67.020261 88.317079 C 66.418798 88.491018 65.590757 88.623543 65.143779 88.613189 C 64.840988 88.606977 64.855407 88.600765 65.310623 88.55728 Z M 68.437406 87.592333 C 68.437406 87.577838 68.387971 87.592333 68.326177 87.625464 C 68.266443 87.656524 68.214948 87.695868 68.214948 87.712433 C 68.214948 87.726928 68.266443 87.712433 68.326177 87.679302 C 68.387971 87.648242 68.437406 87.608898 68.437406 87.592333 Z M 68.886444 87.306576 C 68.956477 87.219606 68.954417 87.217535 68.865846 87.285869 C 68.812291 87.327283 68.769035 87.370767 68.769035 87.383192 C 68.769035 87.428747 68.814351 87.399757 68.886444 87.306576 Z M 69.384917 86.919354 C 69.45495 86.830314 69.45289 86.828243 69.364318 86.898647 C 69.310764 86.940061 69.267508 86.983546 69.267508 86.99597 C 69.267508 87.041526 69.312823 87.010465 69.384917 86.919354 Z M 70.326247 85.977184 C 70.39628 85.890215 70.394221 85.888144 70.305649 85.956477 C 70.252094 85.999962 70.208838 86.043447 70.208838 86.0538 C 70.208838 86.099356 70.254154 86.070366 70.326247 85.977184 Z M 32.553553 81.636991 C 32.537075 81.591436 32.522656 81.605931 32.520596 81.670122 C 32.516476 81.728102 32.528835 81.761233 32.549433 81.742597 C 32.567972 81.723961 32.570031 81.676334 32.553553 81.636991 Z M 33.076743 80.71967 C 33.144717 80.6327 33.142657 80.63063 33.054085 80.698963 C 33.000531 80.740377 32.957275 80.783862 32.957275 80.796286 C 32.957275 80.841841 33.00259 80.812851 33.074684 80.71967 Z M 33.455747 80.291034 C 33.558738 80.183358 33.630831 80.096388 33.616412 80.096388 C 33.601993 80.096388 33.503123 80.183358 33.400133 80.291034 C 33.297142 80.39664 33.225049 80.48361 33.241528 80.48361 C 33.255946 80.48361 33.352757 80.39664 33.455747 80.291034 Z M 33.983057 79.820985 C 34.036612 79.758864 34.069569 79.709167 34.05515 79.709167 C 34.040732 79.709167 33.980997 79.758864 33.927443 79.820985 C 33.871828 79.881035 33.838871 79.930732 33.85329 79.930732 C 33.867708 79.930732 33.927443 79.881035 33.983057 79.820985 Z M 37.165455 77.460383 C 37.165455 77.445888 37.089242 77.485232 36.998611 77.551494 C 36.90798 77.615686 36.831767 77.681949 36.831767 77.696444 C 36.831767 77.713009 36.90798 77.671595 36.998611 77.605333 C 37.089242 77.541141 37.165455 77.474878 37.165455 77.460383 Z M 70.540467 88.513795 C 70.585783 88.488947 70.82266 88.449604 71.065717 88.428897 C 71.745452 88.368846 73.935025 88.08516 75.107053 87.902938 C 77.821876 87.482585 80.520219 86.921425 83.014643 86.260871 C 83.527534 86.124204 83.958033 86.02274 83.968332 86.035164 C 84.023947 86.091073 80.961018 86.857233 79.162808 87.238242 C 77.125662 87.668949 74.079211 88.153493 71.869041 88.397836 C 71.306714 88.459957 70.758806 88.522078 70.651696 88.536573 C 70.530168 88.551068 70.488972 88.542785 70.540467 88.513795 Z M 51.987808 88.250816 C 52.029004 88.234251 52.07638 88.236321 52.094918 88.254958 C 52.113456 88.273594 52.080499 88.286018 52.020765 88.283947 C 51.956911 88.281877 51.944552 88.269453 51.987808 88.250816 Z M 75.273897 87.594403 C 76.013367 87.453596 77.931045 87.118142 78.124667 87.097435 C 78.489252 87.05395 77.045329 87.343848 76.046324 87.511575 C 75.057618 87.679302 74.528248 87.735211 75.273897 87.594403 Z M 72.040004 87.031172 C 71.945253 86.917284 71.869041 86.790971 71.869041 86.751627 C 71.869041 86.710213 71.850502 86.689506 71.827845 86.704001 C 71.803127 86.716425 71.788708 86.563193 71.792828 86.360264 C 71.801067 85.995821 71.801067 85.995821 71.759871 86.269154 C 71.720735 86.52385 71.716615 86.513496 71.728974 86.149053 C 71.739273 85.823952 71.778409 85.676932 71.943194 85.329054 C 72.159473 84.8735 72.165653 84.863146 73.840274 82.477697 C 75.313034 80.382145 77.067987 77.793767 78.204999 76.044023 C 78.715831 75.259226 79.152509 74.631803 79.177227 74.646298 C 79.201945 74.662864 79.241081 74.646298 79.263739 74.609025 C 79.290516 74.567611 79.280217 74.559329 79.232842 74.588318 C 79.185466 74.617308 79.168988 74.606955 79.187526 74.555187 C 79.201945 74.513773 79.239021 74.478571 79.271978 74.478571 C 79.304935 74.478571 79.35231 74.455793 79.379088 74.428874 C 79.405865 74.399885 79.393506 74.395743 79.348191 74.422662 C 79.294636 74.453723 79.280217 74.443369 79.300815 74.389531 C 79.313174 74.348117 79.35849 74.319127 79.393506 74.32741 C 79.430583 74.335693 79.445001 74.319127 79.426463 74.288067 C 79.381148 74.215592 79.498556 73.996097 79.56241 74.035441 C 79.589188 74.052006 79.628324 74.037512 79.650982 74.000239 C 79.6757 73.960895 79.66746 73.950542 79.626264 73.97539 C 79.591248 73.998168 79.56241 74.000239 79.56241 73.983673 C 79.56241 73.940188 79.959953 73.343826 79.98879 73.343826 C 80.001149 73.343826 79.997029 73.368674 79.976431 73.399735 C 79.957893 73.430796 79.955833 73.455644 79.972311 73.455644 C 79.98879 73.455644 80.029986 73.401806 80.065003 73.337614 C 80.114438 73.242362 80.112378 73.227867 80.052644 73.263069 C 80.011448 73.287917 80.046464 73.240291 80.132976 73.159533 C 80.225667 73.072564 80.273043 72.983524 80.248325 72.94211 C 80.227727 72.904837 80.229787 72.892413 80.252445 72.91312 C 80.355435 73.006301 83.659361 67.407121 84.565675 65.601468 C 84.709862 65.315711 84.996175 64.769045 85.204215 64.383895 C 87.185747 60.702185 89.204355 56.544213 90.858378 52.740332 C 91.165289 52.032152 91.515456 51.263921 91.634924 51.034073 C 91.941835 50.441852 92.324959 50.031853 92.778116 49.808217 C 93.107684 49.646702 93.198316 49.628066 93.591739 49.630136 C 94.154065 49.636349 94.432139 49.735742 95.521775 50.323822 C 99.400387 52.415232 102.63222 55.071944 104.673486 57.846686 C 105.829037 59.418349 106.801265 61.36688 107.198807 62.911625 C 107.522196 64.158188 107.542794 64.346622 107.538675 66.038386 C 107.536615 67.535504 107.526316 67.647322 107.390369 68.254038 C 105.975283 74.47443 99.468361 80.228913 89.525685 84.053501 C 87.579169 84.803096 83.14853 86.190467 82.93431 86.120063 C 82.899294 86.107639 83.204145 86.002033 83.611986 85.886073 C 87.599767 84.734763 90.895454 83.484058 93.925427 81.974516 C 95.338453 81.270477 96.292142 80.738306 96.236527 80.684468 C 96.21387 80.659619 96.220049 80.647195 96.248886 80.653407 C 96.366295 80.676185 96.448687 80.647195 96.41573 80.595428 C 96.397192 80.564367 96.41985 80.556084 96.477525 80.576791 C 96.541378 80.60164 96.559917 80.593357 96.533139 80.549872 C 96.506362 80.508458 96.52284 80.496034 96.572276 80.516741 C 96.617591 80.533306 96.673206 80.516741 96.695864 80.479468 C 96.722641 80.435983 96.714402 80.42563 96.673206 80.452549 C 96.638189 80.473256 96.609352 80.479468 96.609352 80.464973 C 96.609352 80.400781 97.175798 80.098459 97.229353 80.13159 C 97.26643 80.154368 97.274669 80.144014 97.254071 80.108812 C 97.208755 80.036338 97.416795 79.910025 97.499188 79.959722 C 97.530085 79.978358 97.546563 79.961792 97.538324 79.922449 C 97.532144 79.881035 97.567161 79.852045 97.618656 79.856187 C 97.670151 79.860328 97.707228 79.83755 97.701048 79.80649 C 97.694869 79.775429 97.725766 79.738157 97.766962 79.723662 C 97.820517 79.705025 97.830816 79.71952 97.799919 79.771288 C 97.773142 79.816843 97.775201 79.829267 97.806098 79.802348 C 97.834936 79.7775 97.857594 79.729874 97.857594 79.696743 C 97.857594 79.663611 97.89261 79.624268 97.933806 79.609773 C 97.987361 79.593207 97.99766 79.609773 97.966763 79.661541 C 97.939986 79.707096 97.942046 79.71952 97.972943 79.69053 C 98.00178 79.665682 98.024438 79.618056 98.024438 79.584925 C 98.024438 79.551793 98.059454 79.514521 98.10065 79.500026 C 98.154205 79.481389 98.164504 79.497955 98.133607 79.549723 C 98.10683 79.595278 98.10889 79.607702 98.141847 79.580783 C 98.168624 79.555935 98.191282 79.514521 98.191282 79.489672 C 98.191282 79.464824 98.514671 79.214269 98.910154 78.932653 C 101.608497 77.019324 103.721857 74.934126 105.16578 72.761959 C 105.759003 71.869486 106.554088 70.270903 106.84864 69.374289 C 108.236948 65.145913 107.246182 61.155669 103.781591 57.043253 C 102.784646 55.860881 101.066769 54.26437 99.631085 53.187604 C 97.917328 51.903768 94.965628 50.149883 94.09845 49.901399 C 93.295127 49.671551 92.551537 50.004934 91.99127 50.851851 C 91.880041 51.017507 91.484559 51.854071 91.111734 52.713413 C 86.590463 63.1042 81.525404 71.927465 73.56632 83.279059 C 72.351035 85.014308 72.029705 85.558902 71.924655 86.062083 C 71.848443 86.426527 71.922596 86.786829 72.128576 87.058091 C 72.316018 87.304505 72.252164 87.283798 72.042064 87.031172 Z M 96.998655 80.286893 C 96.998655 80.272398 96.94922 80.286893 96.887426 80.317953 C 96.827691 80.351085 96.776196 80.390428 96.776196 80.404923 C 96.776196 80.421489 96.825632 80.406994 96.887426 80.373862 C 96.94922 80.340731 96.998655 80.301388 96.998655 80.286893 Z M 101.565242 76.996546 C 101.618796 76.936496 101.651753 76.886799 101.637335 76.886799 C 101.622916 76.886799 101.563182 76.936496 101.509627 76.996546 C 101.454012 77.058667 101.421055 77.108364 101.437534 77.108364 C 101.451952 77.108364 101.509627 77.058667 101.565242 76.996546 Z M 102.172884 76.443668 C 102.292353 76.321497 102.376805 76.222103 102.362386 76.222103 C 102.347967 76.222103 102.236738 76.321497 102.117269 76.443668 C 101.99986 76.56584 101.913349 76.665233 101.929827 76.665233 C 101.944246 76.665233 102.053415 76.56584 102.172884 76.443668 Z M 103.307836 75.308923 C 103.410826 75.203317 103.48292 75.116348 103.468501 75.116348 C 103.454082 75.116348 103.355212 75.203317 103.252221 75.308923 C 103.149231 75.4166 103.077138 75.503569 103.093616 75.503569 C 103.105975 75.503569 103.204846 75.4166 103.307836 75.308923 Z M 103.868103 74.685642 C 103.938136 74.598672 103.936077 74.596601 103.847505 74.664934 C 103.79395 74.708419 103.750694 74.751904 103.750694 74.762258 C 103.750694 74.807813 103.79601 74.778823 103.868103 74.687712 Z M 79.784869 73.786956 C 79.815766 73.726906 79.830185 73.677209 79.815766 73.677209 C 79.801348 73.677209 79.762211 73.726906 79.729255 73.786956 C 79.696298 73.849078 79.681879 73.898774 79.698357 73.898774 C 79.710716 73.898774 79.751912 73.849078 79.784869 73.786956 Z M 107.219405 68.572927 C 107.202926 68.529442 107.188508 68.541866 107.186448 68.608129 C 107.184388 68.666108 107.196747 68.699239 107.215285 68.680603 C 107.235883 68.661967 107.237943 68.614341 107.221465 68.572927 Z M 107.27502 68.353432 C 107.258541 68.307877 107.244122 68.322372 107.242063 68.386563 C 107.240003 68.444543 107.252362 68.477674 107.2709 68.459038 C 107.289438 68.440402 107.289438 68.392775 107.277079 68.353432 Z M 107.330634 68.131867 C 107.314156 68.086311 107.299737 68.100806 107.297677 68.164998 C 107.295618 68.222978 107.307976 68.256109 107.326515 68.237473 C 107.345053 68.218836 107.347113 68.17121 107.330634 68.131867 Z M 107.386249 67.854393 C 107.369771 67.810908 107.355352 67.823332 107.353292 67.887524 C 107.351232 67.945504 107.363591 67.978635 107.382129 67.959999 C 107.400668 67.941362 107.402727 67.893736 107.386249 67.854393 Z M 107.441864 67.576918 C 107.425385 67.533434 107.410967 67.545858 107.408907 67.61005 C 107.406847 67.6701 107.417146 67.701161 107.437744 67.684595 C 107.456282 67.665959 107.456282 67.618333 107.441864 67.576918 Z M 107.495419 67.187626 C 107.481 67.148283 107.466581 67.179344 107.466581 67.25596 C 107.466581 67.332576 107.47894 67.363636 107.495419 67.324293 C 107.509837 67.28702 107.509837 67.224899 107.495419 67.187626 Z M 78.386262 87.035314 C 78.423338 87.018748 78.487192 87.018748 78.524269 87.035314 C 78.563405 87.049808 78.532508 87.062233 78.456295 87.062233 C 78.380083 87.062233 78.349186 87.049808 78.386262 87.035314 Z M 78.662276 86.979405 C 78.701412 86.962839 78.763206 86.962839 78.802342 86.979405 C 78.839419 86.9939 78.808522 87.006324 78.732309 87.006324 C 78.656096 87.006324 78.625199 86.9939 78.662276 86.979405 Z M 78.942409 86.923496 C 78.983605 86.90693 79.030981 86.909001 79.049519 86.927637 C 79.068057 86.946273 79.0351 86.958698 78.977426 86.956627 C 78.911512 86.952485 78.899153 86.940061 78.942409 86.923496 Z M 79.220483 86.867587 C 79.259619 86.851021 79.306995 86.853092 79.325533 86.871728 C 79.346131 86.890364 79.311114 86.902789 79.25344 86.900718 C 79.189586 86.898647 79.175167 86.884152 79.220483 86.867587 Z M 79.496497 86.811678 C 79.537693 86.795112 79.585068 86.797183 79.603606 86.815819 C 79.622145 86.834455 79.589188 86.84688 79.529453 86.844809 C 79.4656 86.842738 79.453241 86.830314 79.496497 86.811678 Z M 79.718955 86.755769 C 79.758092 86.741274 79.805467 86.743344 79.824006 86.75991 C 79.842544 86.778546 79.809587 86.793041 79.751912 86.790971 C 79.688058 86.786829 79.67364 86.774405 79.718955 86.755769 Z M 80.493442 86.590112 C 80.532578 86.573547 80.579954 86.575618 80.598492 86.594254 C 80.61909 86.61289 80.584073 86.625314 80.526399 86.623244 C 80.462545 86.621173 80.448126 86.608749 80.493442 86.590112 Z M 57.670809 86.513496 C 51.643821 86.254659 45.460288 85.355974 40.347853 83.993451 C 37.332299 83.192089 36.669042 82.906332 36.537215 82.363808 C 36.493959 82.181586 36.58871 81.83992 36.741135 81.630779 C 37.179874 81.030275 40.102736 78.930582 42.216096 77.698514 C 46.160621 75.395893 50.129864 73.604735 56.140374 71.41186 C 60.07666 69.974792 63.598926 69.018128 65.716405 68.806916 C 67.426042 68.637118 68.841128 68.81727 69.924585 69.339087 C 70.902992 69.811207 71.595087 70.687114 71.850502 71.778375 C 71.98645 72.35403 71.98439 73.760037 71.848443 74.495137 C 71.613625 75.762407 71.275817 76.808112 70.449835 78.824977 C 68.92558 82.541888 67.706176 84.333046 65.899727 85.511276 C 65.12936 86.012386 64.299259 86.31678 63.23434 86.488648 C 62.655535 86.58183 59.580247 86.594254 57.670809 86.513496 Z M 63.479457 86.302285 C 65.13142 85.958548 66.29521 85.269004 67.446641 83.952037 C 68.443586 82.81108 69.304584 81.258052 70.332427 78.740078 C 71.518874 75.832811 71.836084 74.62145 71.829904 73.012514 C 71.827845 72.016505 71.728974 71.546456 71.387046 70.896255 C 70.880335 69.931308 70.004918 69.330804 68.641327 69.011916 C 68.206708 68.910451 67.959532 68.893886 66.941988 68.891815 C 65.407434 68.887673 64.449625 69.032623 62.200319 69.612419 C 59.293934 70.359943 54.869474 71.908829 50.725148 73.633724 C 45.301683 75.88872 40.422006 78.636543 37.484725 81.090326 C 36.456882 81.947597 36.401268 82.461131 37.284924 82.885625 C 38.500208 83.465422 43.134768 84.606379 46.850656 85.240014 C 51.514053 86.033093 56.964296 86.482436 61.351679 86.43481 C 62.686432 86.418244 63.013941 86.399608 63.479457 86.302285 Z M 59.858321 86.31885 C 53.357578 86.167689 47.22348 85.401529 41.703204 84.051431 C 38.543464 83.279059 37.103661 82.806938 36.868843 82.471484 C 36.640205 82.146384 36.833827 81.800577 37.604194 81.156588 C 40.537355 78.700734 45.449989 75.94877 51.001162 73.65029 C 53.345219 72.681201 57.357718 71.194436 59.230081 70.604286 C 61.23427 69.970651 63.378527 69.415703 64.700921 69.187925 C 67.434282 68.717876 69.592957 69.078178 70.71349 70.188075 C 71.710436 71.1758 71.957612 72.643928 71.504455 74.8865 C 71.121332 76.787405 69.395216 80.945376 68.282921 82.643353 C 67.376607 84.028653 66.342585 85.037085 65.263248 85.583751 C 64.799792 85.819811 63.899657 86.105568 63.289955 86.211174 C 62.746167 86.306426 61.279586 86.349911 59.858321 86.31885 Z M 62.873875 86.124204 C 65.112882 85.850872 66.698931 84.776177 68.175811 82.531535 C 69.154218 81.042699 70.81854 77.127 71.279937 75.226095 C 71.840203 72.908978 71.623924 71.310396 70.6105 70.306105 C 69.745382 69.448834 68.474483 69.088532 66.540327 69.152723 C 63.899657 69.239693 59.8645 70.372367 53.631532 72.774383 C 48.092718 74.909277 43.987528 76.932354 40.401408 79.295026 C 38.838016 80.324165 37.245788 81.566587 37.039807 81.914465 C 36.916219 82.125677 36.916219 82.324464 37.041867 82.438353 C 37.342598 82.711686 38.774162 83.169311 41.299483 83.800876 C 46.737366 85.159257 52.383291 85.917134 58.805761 86.149053 C 60.012806 86.192537 62.437196 86.178043 62.873875 86.124204 Z M 84.256705 85.925417 C 84.295841 85.910922 84.345276 85.912993 84.363815 85.929558 C 84.382353 85.948195 84.349396 85.962689 84.289662 85.958548 C 84.225808 85.956477 84.213449 85.944053 84.256705 85.925417 Z M 84.643948 85.81567 C 84.685144 85.799104 84.73252 85.801175 84.751058 85.819811 C 84.769596 85.838447 84.736639 85.850872 84.676905 85.848801 C 84.613051 85.84673 84.600692 85.832235 84.643948 85.81567 Z M 77.426393 84.966681 C 77.057688 84.850722 76.92792 84.486278 77.113303 84.076279 C 77.175097 83.941683 77.706527 83.231432 78.295631 82.498404 C 83.603747 75.892861 89.010733 66.371769 93.826556 55.160984 C 94.691674 53.144119 94.901774 52.864574 95.542373 52.864574 C 95.886361 52.864574 96.273604 53.050938 97.163439 53.639017 C 102.871158 57.420121 105.756944 61.963243 105.363521 66.54985 C 105.007175 70.724387 102.261455 74.544834 97.192277 77.918009 C 93.208615 80.568508 87.910798 82.744817 81.723145 84.272996 C 79.092775 84.923197 77.900148 85.115772 77.426393 84.966681 Z M 79.379088 84.662288 C 80.604671 84.411733 82.886935 83.84436 84.267004 83.446785 C 87.560631 82.496333 90.376384 81.417497 93.15094 80.040479 C 96.557857 78.350786 98.961649 76.692153 101.097666 74.56347 C 104.080263 71.585799 105.450033 68.446614 105.235813 65.073439 C 104.980397 61.019002 102.125508 57.047394 97.05221 53.694926 C 96.172673 53.113059 95.884301 52.976392 95.530015 52.976392 C 94.967688 52.976392 94.786425 53.220735 94.00164 55.051237 C 89.066348 66.562274 83.688199 76.010891 78.209119 82.809009 C 77.77862 83.34118 77.370778 83.87128 77.300745 83.987239 C 77.082406 84.341329 77.135961 84.685066 77.428453 84.805167 C 77.690048 84.910772 78.427458 84.854863 79.379088 84.662288 Z M 77.45935 84.678854 C 77.276027 84.581531 77.24719 84.306127 77.393436 84.059714 C 77.453171 83.96032 77.908387 83.370169 78.40892 82.748959 C 83.785009 76.0668 89.325883 66.317931 94.10463 55.134065 C 94.833801 53.425735 95.017123 53.152402 95.464101 53.100635 C 95.777191 53.065433 96.022308 53.173109 96.84005 53.70528 C 99.933876 55.722144 102.312951 58.068251 103.647704 60.414357 C 104.284183 61.536678 104.694085 62.60309 104.95362 63.824805 C 105.085447 64.446016 105.099866 64.63445 105.103986 65.705003 C 105.106045 66.986768 105.068969 67.307727 104.795015 68.355503 C 104.42837 69.76151 103.715677 71.202719 102.73933 72.513474 C 99.068759 77.447959 91.645223 81.51689 81.852913 83.964461 C 79.084536 84.658147 77.807457 84.865217 77.45935 84.678854 Z M 78.347126 84.577389 C 79.370849 84.449006 82.915772 83.583452 84.985875 82.956029 C 90.813062 81.187649 95.651543 78.798057 99.206765 75.928063 C 100.020388 75.27165 101.627036 73.687563 102.166704 73.012514 C 104.764118 69.757369 105.58804 66.322073 104.580795 62.948897 C 103.695079 59.975368 101.365441 57.09295 97.795799 54.552197 C 96.494003 53.622452 95.925497 53.291139 95.589749 53.26422 C 95.317855 53.241442 95.295197 53.249725 95.126293 53.442301 C 94.899714 53.699068 94.743169 54.015885 94.158185 55.382549 C 92.038646 60.341883 89.400036 65.731922 86.93651 70.134237 C 84.110459 75.18261 81.302945 79.419268 78.417159 82.98916 C 77.333702 84.328905 77.238951 84.529763 77.67151 84.596026 C 77.751842 84.60845 77.832175 84.622945 77.848653 84.627086 C 77.865131 84.631228 78.08759 84.60845 78.347126 84.577389 Z M 29.470026 81.821284 C 28.819127 81.639062 28.386569 81.440274 27.414341 80.885326 C 26.26497 80.228913 25.10118 79.485531 24.15779 78.808411 C 23.776726 78.533007 23.434799 78.309372 23.399782 78.307301 C 23.362705 78.307301 23.337988 78.280382 23.344167 78.24725 C 23.348287 78.214119 23.31327 78.1872 23.261775 78.1872 C 23.154665 78.185129 23.078452 78.123008 23.078452 78.036039 C 23.078452 78.002908 23.043436 77.963564 23.00018 77.949069 C 22.946625 77.932504 22.938386 77.946999 22.971343 78.000837 C 23.074333 78.166493 21.712802 77.042101 20.89506 76.286295 C 19.716852 75.195034 18.369739 73.586098 17.599373 72.347818 C 15.83824 69.515096 15.271794 66.640961 15.883555 63.617735 C 16.075117 62.675565 16.347011 61.903193 16.876381 60.807791 C 18.25645 57.944009 20.36363 55.510933 23.496593 53.158614 C 28.534874 49.377511 35.63502 46.424688 43.917494 44.666662 C 44.205867 44.604541 44.49218 44.542419 44.553974 44.525854 C 44.613708 44.511359 44.70228 44.496864 44.747595 44.494793 C 44.792911 44.492723 44.860885 44.467874 44.897961 44.438884 C 44.932978 44.409894 44.990652 44.401612 45.021549 44.422319 C 45.054506 44.443026 45.110121 44.438884 45.145138 44.418177 C 45.182214 44.3954 45.262546 44.372622 45.3264 44.36641 C 45.565338 44.345703 45.995837 44.273228 46.043212 44.242168 C 46.07205 44.225602 46.158561 44.206966 46.236834 44.202824 C 46.317166 44.198683 46.879493 44.111713 47.487135 44.01232 C 48.4882 43.848734 48.669463 43.834239 49.369797 43.861158 C 50.249333 43.89636 50.686012 44.010249 51.075315 44.30843 C 51.303953 44.482369 51.553189 44.844742 51.555249 45.004186 C 51.555249 45.051812 51.503754 44.98555 51.44196 44.859237 C 51.380166 44.732924 51.273056 44.583834 51.207142 44.527925 L 51.085614 44.424389 L 51.190664 44.548632 C 51.341029 44.726712 51.262757 44.701864 50.978504 44.48444 C 50.523287 44.136562 49.487205 43.904643 48.733317 43.981259 C 48.218366 44.033027 45.886667 44.42646 44.747595 44.652167 C 36.137613 46.364638 28.823247 49.340238 23.63048 53.239372 C 22.326624 54.218814 21.745759 54.719924 20.695259 55.769771 C 17.718841 58.745371 16.14721 61.80794 15.848539 65.220459 C 15.757907 66.264093 15.757907 66.276517 15.807343 66.893587 C 15.902094 68.030402 16.217244 69.274895 16.697178 70.411711 C 17.030867 71.198578 17.179172 71.471911 17.249206 71.428426 C 17.286282 71.405648 17.294522 71.416002 17.269804 71.455345 C 17.234787 71.513325 17.593193 72.238071 17.659107 72.238071 C 17.673526 72.238071 17.593193 72.068273 17.479904 71.863273 C 17.197711 71.349739 17.271864 71.436709 17.749738 72.184232 C 19.541768 74.981752 22.198916 77.483161 25.857129 79.814773 C 27.486434 80.854265 28.590489 81.429921 29.443248 81.686688 C 29.832551 81.804718 30.47315 81.759163 30.7986 81.593506 C 30.992221 81.492042 31.029298 81.48583 30.967504 81.560375 C 30.707968 81.873051 30.05707 81.98694 29.470026 81.823354 Z M 22.909548 77.889019 C 22.740645 77.731645 22.163899 77.27402 22.163899 77.298869 C 22.163899 77.332 22.89307 77.938716 22.934266 77.938716 C 22.948685 77.938716 22.938386 77.915938 22.909548 77.889019 Z M 22.108285 77.255384 C 22.108285 77.24503 21.892005 77.044172 21.624231 76.808112 L 21.140176 76.379476 L 21.611872 76.826748 C 22.065029 77.257455 22.108285 77.294727 22.108285 77.255384 Z M 21.057784 76.317355 C 21.057784 76.309073 20.802369 76.054376 20.489278 75.749983 L 19.922832 75.199176 L 20.47486 75.766548 C 20.987751 76.292507 21.057784 76.358769 21.057784 76.317355 Z M 19.84044 75.043873 C 19.84044 75.03352 19.73333 74.927914 19.603562 74.807813 L 19.368745 74.590389 L 19.587084 74.824379 C 19.791005 75.043873 19.84044 75.085287 19.84044 75.043873 Z M 19.397582 74.544834 C 19.397582 74.53448 19.31519 74.453723 19.216319 74.364683 L 19.037116 74.201097 L 19.199841 74.381248 C 19.350206 74.548975 19.397582 74.586248 19.397582 74.544834 Z M 19.063894 74.155542 C 19.063894 74.145188 19.008279 74.089279 18.940305 74.031299 L 18.816717 73.925694 L 18.921767 74.049936 C 19.020638 74.165895 19.065953 74.199026 19.065953 74.155542 Z M 18.843494 73.875997 C 18.843494 73.865643 18.800239 73.822158 18.746684 73.780744 C 18.658112 73.71034 18.656052 73.712411 18.724026 73.801451 C 18.798179 73.892562 18.843494 73.921552 18.843494 73.875997 Z M 18.67665 73.654431 C 18.67665 73.644078 18.633394 73.600593 18.57984 73.559179 C 18.493328 73.488775 18.491268 73.490846 18.559241 73.579886 C 18.631335 73.670997 18.67665 73.699987 18.67665 73.654431 Z M 18.511866 73.434937 C 18.511866 73.422513 18.46861 73.379028 18.415055 73.337614 C 18.326484 73.26721 18.324424 73.269281 18.392397 73.358321 C 18.46449 73.449432 18.509806 73.478422 18.509806 73.432866 Z M 18.233792 73.066352 C 18.169938 72.975241 18.104025 72.900696 18.087546 72.900696 C 18.075187 72.900696 18.114324 72.975241 18.178178 73.066352 C 18.244091 73.159533 18.310005 73.234079 18.324424 73.234079 C 18.338842 73.234079 18.299706 73.159533 18.233792 73.066352 Z M 17.908343 72.583878 C 17.879506 72.53004 17.813592 72.436858 17.762097 72.374737 C 17.673526 72.269131 17.671466 72.271202 17.747679 72.403727 C 17.893925 72.656353 17.908343 72.67913 17.935121 72.67913 C 17.949539 72.67913 17.937181 72.635646 17.908343 72.583878 Z M 23.31739 78.642755 C 20.320374 76.458163 18.011333 73.869785 16.736315 71.268982 C 15.759967 69.274895 15.391262 67.754999 15.395382 65.733993 C 15.397442 64.657227 15.483953 63.934552 15.724951 62.938544 C 16.169868 61.114255 17.236847 59.033198 18.608677 57.312444 C 19.030937 56.784415 20.322434 55.35563 20.378049 55.35563 C 20.392467 55.35563 20.196786 55.583407 19.94343 55.860881 C 17.381033 58.65633 16.062758 61.143245 15.595183 64.052582 C 15.465415 64.868439 15.465415 66.585052 15.597243 67.394697 C 16.091596 70.453125 17.529339 73.099483 20.143231 75.772761 C 21.352336 77.006899 22.227753 77.762706 23.912673 79.027905 C 24.001245 79.094168 24.060979 79.150077 24.046561 79.152148 C 24.032142 79.154218 23.702573 78.92437 23.31739 78.642755 Z M 27.294872 78.578563 C 26.924107 78.425331 25.335998 77.379626 24.516196 76.750132 C 23.086692 75.650589 21.533599 74.159683 20.621106 73.012514 C 19.135987 71.14474 18.233792 69.185855 17.931001 67.16899 C 17.823891 66.454597 17.823891 65.131418 17.933061 64.383895 C 18.462431 60.74567 20.886821 57.333151 25.097061 54.293359 C 29.408232 51.181093 35.733891 48.569937 42.689851 47.029334 C 43.289254 46.896809 43.940152 46.760142 44.137893 46.727011 C 44.335634 46.69388 44.560153 46.652466 44.636366 46.6359 C 44.939157 46.571708 45.522082 46.542718 45.773378 46.579991 C 45.954641 46.60691 46.086468 46.669031 46.195638 46.776708 C 46.49225 47.074889 46.38102 47.441404 45.75484 48.219988 C 45.548859 48.476755 45.159556 48.959229 44.889722 49.294683 C 42.48387 52.278565 39.515692 56.767849 37.033628 61.180517 C 34.526846 65.634599 31.861459 71.055699 29.554478 76.387759 C 28.944776 77.797908 28.79235 78.112655 28.602848 78.361139 C 28.322715 78.729724 27.851019 78.80634 27.294872 78.578563 Z M 28.174409 78.497806 C 28.538994 78.332149 28.637865 78.154069 29.599793 75.942558 C 32.421725 69.446763 35.42492 63.507987 38.399278 58.5383 C 40.747455 54.616389 42.967924 51.404729 45.303743 48.547159 C 46.148262 47.515949 46.284209 47.261252 46.156502 46.956859 C 45.946402 46.455749 44.91238 46.565496 41.295363 47.472464 C 32.868703 49.584581 26.194937 52.897706 22.137122 56.983202 C 20.773531 58.354008 19.813662 59.65648 19.115389 61.083194 C 17.362495 64.663439 17.636449 68.326513 19.914593 71.782516 C 21.228748 73.774532 23.432739 75.88872 25.980717 77.601191 C 26.963244 78.259675 27.247497 78.427402 27.548228 78.522654 C 27.859259 78.619977 27.910754 78.617906 28.174409 78.497806 Z M 27.276334 78.27624 C 27.090952 78.1872 26.629555 77.909726 26.252611 77.6571 C 23.546028 75.851447 21.496523 73.913269 20.104095 71.848779 C 17.175053 67.502373 17.461366 62.832938 20.928017 58.482391 C 21.834331 57.345575 23.321509 55.939568 24.79427 54.829671 C 29.187832 51.520688 35.74007 48.791502 43.252177 47.141152 C 44.605469 46.845041 45.233709 46.75393 45.600354 46.801556 C 45.987598 46.853324 46.076169 46.913374 46.076169 47.126657 C 46.076169 47.366858 45.876368 47.671252 45.110121 48.605139 C 39.981208 54.842096 34.298207 64.762833 29.540059 75.778973 C 28.436004 78.33422 28.37215 78.435684 27.875737 78.435684 C 27.704773 78.435684 27.500853 78.381846 27.276334 78.27624 Z M 28.227964 78.15614 C 28.380389 78.013261 28.635805 77.489373 29.278464 76.000538 C 33.150896 67.026111 37.655689 58.670825 41.847391 52.684423 C 42.70221 51.462709 44.238824 49.420995 45.01949 48.468472 C 45.75278 47.571858 45.985538 47.22398 45.934043 47.093525 C 45.816634 46.784991 44.652844 46.936152 41.764999 47.63812 C 33.126179 49.733672 26.05693 53.249725 22.056789 57.436686 C 18.518045 61.145315 17.405751 65.237024 18.870272 69.165148 C 19.764227 71.55888 21.622171 73.904987 24.357591 76.089578 C 25.480184 76.988263 27.21454 78.147857 27.614142 78.267958 C 27.84072 78.336291 28.083777 78.292806 28.227964 78.15614 Z M 99.931817 78.636543 C 99.931817 78.626189 99.975073 78.582704 100.028627 78.53922 C 100.115139 78.470886 100.117199 78.472957 100.049225 78.559927 C 99.977132 78.653108 99.931817 78.682098 99.931817 78.636543 Z M 100.152216 78.470886 C 100.152216 78.458462 100.195472 78.414977 100.249027 78.373563 C 100.337598 78.30523 100.339658 78.307301 100.271684 78.39427 C 100.199591 78.487452 100.152216 78.516442 100.152216 78.470886 Z M 100.374675 78.30523 C 100.374675 78.292806 100.41793 78.249321 100.471485 78.207907 C 100.557997 78.139574 100.560057 78.141645 100.492083 78.228614 C 100.41999 78.321796 100.374675 78.350786 100.374675 78.30523 Z M 100.73926 78.013261 C 100.831951 77.926292 101.217135 77.592908 101.592019 77.27402 C 101.966903 76.955132 102.648699 76.319426 103.108035 75.861801 C 103.676541 75.29857 103.800129 75.190893 103.491159 75.530488 C 102.965909 76.110285 102.576606 76.489224 101.923648 77.058667 C 101.421055 77.497656 100.452947 78.27624 100.73926 78.013261 Z M 34.508307 73.884279 C 34.508307 73.809734 35.497014 71.741102 36.302397 70.134237 C 39.043997 64.653086 42.228455 59.213349 46.102947 53.390533 C 48.016505 50.514327 50.193718 47.445545 50.267871 47.51802 C 50.28435 47.536656 50.333785 47.522161 50.372921 47.48903 C 50.418237 47.451757 50.449134 47.447616 50.449134 47.482818 C 50.449134 47.553221 50.309067 47.671252 50.271991 47.631908 C 50.253453 47.617413 50.208137 47.648474 50.164881 47.702312 C 50.094848 47.791352 50.096908 47.793423 50.185479 47.72509 C 50.236974 47.681605 50.28229 47.673322 50.28229 47.704383 C 50.28229 47.774787 50.142223 47.890746 50.105147 47.853473 C 50.088668 47.838978 50.041293 47.870039 49.998037 47.923877 C 49.928004 48.012918 49.930063 48.014988 50.018635 47.946655 C 50.07219 47.90317 50.115446 47.894887 50.115446 47.925948 C 50.115446 47.988069 50.000097 48.095746 49.930063 48.095746 C 49.905346 48.095746 49.868269 48.114382 49.847671 48.13716 C 49.829133 48.159937 49.843552 48.159937 49.880628 48.13716 C 49.917705 48.116453 49.948602 48.120594 49.948602 48.149584 C 49.948602 48.209634 49.831193 48.317311 49.765279 48.317311 C 49.738502 48.317311 49.701425 48.335947 49.680827 48.358725 C 49.662289 48.381503 49.676707 48.381503 49.713784 48.358725 C 49.814714 48.300745 49.798236 48.369078 49.668468 48.553371 C 49.604614 48.642411 49.532521 48.702462 49.505744 48.685896 C 49.478966 48.66933 49.43983 48.685896 49.419232 48.721098 C 49.392454 48.762512 49.400694 48.770795 49.44189 48.745946 C 49.476906 48.725239 49.505744 48.729381 49.505744 48.758371 C 49.505744 48.818421 49.388335 48.926097 49.322421 48.926097 C 49.295644 48.926097 49.258567 48.944734 49.237969 48.967512 C 49.219431 48.990289 49.235909 48.988219 49.277105 48.96337 C 49.33066 48.93438 49.347139 48.944734 49.3286 48.996501 C 49.314182 49.037915 49.277105 49.073117 49.242089 49.073117 C 49.209132 49.073117 49.161756 49.095895 49.137039 49.122814 C 49.110261 49.153875 49.12056 49.158016 49.161756 49.133168 C 49.198833 49.112461 49.22973 49.116602 49.22973 49.145592 C 49.22973 49.226349 49.087603 49.325743 49.036108 49.280188 C 49.011391 49.25741 49.009331 49.269834 49.031989 49.309178 C 49.083484 49.398218 48.854845 49.723318 48.774513 49.673621 C 48.739496 49.652914 48.731257 49.663268 48.753915 49.70054 C 48.799231 49.775086 48.080359 50.831144 48.014445 50.78973 C 47.989728 50.775235 47.973249 50.806296 47.977369 50.858063 C 47.981488 50.911902 47.950591 50.949174 47.911455 50.938821 C 47.870259 50.930538 47.85378 50.949174 47.872319 50.980235 C 47.903216 51.032002 47.598365 51.537254 47.534511 51.537254 C 47.518032 51.537254 47.526272 51.504123 47.54687 51.46685 C 47.571587 51.427507 47.565408 51.417153 47.53863 51.444072 C 47.509793 51.468921 47.487135 51.531042 47.487135 51.580739 C 47.487135 51.632506 47.454178 51.667708 47.412982 51.659425 C 47.373846 51.651142 47.355308 51.669779 47.373846 51.698769 C 47.421222 51.777455 47.237899 52.040435 47.167866 51.99695 C 47.134909 51.978314 47.12667 51.988667 47.149327 52.023869 C 47.188464 52.088061 46.854775 52.599524 46.661154 52.773463 C 46.5973 52.829372 46.582881 52.858362 46.630257 52.837655 C 46.675572 52.816948 46.650855 52.854221 46.574642 52.920483 C 46.498429 52.986746 46.473712 53.024019 46.519027 53.003311 C 46.564343 52.982604 46.539625 53.019877 46.463412 53.08614 C 46.3872 53.152402 46.362482 53.189675 46.407798 53.168968 C 46.453113 53.148261 46.430456 53.185533 46.352183 53.251796 C 46.27597 53.318058 46.251253 53.355331 46.298628 53.334624 C 46.343944 53.313917 46.319226 53.35119 46.243013 53.417452 C 46.166801 53.483715 46.142083 53.520987 46.187399 53.50028 C 46.232714 53.481644 46.218296 53.510634 46.152382 53.566543 C 45.866069 53.815027 42.961745 58.414058 41.180014 61.443496 C 39.151107 64.889146 37.754559 67.454747 35.882197 71.177871 C 35.126249 72.681201 34.508307 73.898774 34.508307 73.884279 Z M 76.466524 73.312765 C 76.468584 73.246503 76.483003 73.234079 76.501541 73.277564 C 76.518019 73.318978 76.51596 73.366604 76.495361 73.38524 C 76.476823 73.403876 76.464464 73.370745 76.466524 73.312765 Z M 76.522139 73.0912 C 76.524199 73.024938 76.538617 73.012514 76.555096 73.055998 C 76.573634 73.097412 76.569514 73.145039 76.550976 73.163675 C 76.532438 73.182311 76.520079 73.14918 76.522139 73.0912 Z M 76.577754 72.869635 C 76.579813 72.805443 76.594232 72.790948 76.610711 72.836504 C 76.627189 72.875847 76.625129 72.923473 76.606591 72.94211 C 76.588053 72.960746 76.575694 72.927615 76.577754 72.869635 Z M 76.633368 72.64807 C 76.635428 72.583878 76.649847 72.569383 76.666325 72.614939 C 76.682804 72.654282 76.680744 72.701908 76.662206 72.720544 C 76.641608 72.739181 76.631309 72.70605 76.633368 72.64807 Z M 76.748717 72.126253 C 76.748717 72.049637 76.761076 72.018576 76.775495 72.05792 C 76.789914 72.095192 76.789914 72.157313 76.775495 72.194586 C 76.761076 72.233929 76.748717 72.202869 76.748717 72.126253 Z M 57.075525 66.222679 C 57.114661 66.208184 57.176455 66.208184 57.215592 66.222679 C 57.252668 66.237174 57.221771 66.249598 57.145558 66.249598 C 57.069346 66.249598 57.038449 66.237174 57.075525 66.222679 Z M 58.999382 65.765053 C 61.244569 65.19561 62.50311 64.829096 64.589692 64.131269 C 72.985455 61.327537 80.730319 57.575423 86.810862 53.367755 C 87.212524 53.090281 87.562691 52.876999 87.587409 52.891494 C 87.614186 52.908059 87.653322 52.893564 87.67598 52.856292 C 87.700698 52.816948 87.692459 52.806595 87.651262 52.831443 C 87.519435 52.912201 87.593588 52.816948 87.733655 52.725837 C 87.826346 52.665787 87.861363 52.657504 87.832525 52.70513 C 87.715116 52.897706 89.535984 51.464779 89.976782 51.019578 C 90.452597 50.541246 90.743029 49.992509 90.740969 49.578369 C 90.740969 49.331955 90.703893 49.242915 90.479374 48.907461 C 89.933526 48.101958 88.973657 47.561504 86.800563 46.8409 C 81.642813 45.124287 75.790908 43.956411 69.599136 43.403533 C 67.13561 43.181968 65.257068 43.103281 62.459854 43.09914 C 58.614199 43.094998 57.380376 43.198533 56.167151 43.627169 C 54.591401 44.184188 53.190734 45.345852 52.094918 47.004485 C 51.734452 47.551151 50.605679 49.615642 49.812655 51.176952 C 46.949526 56.815476 45.843411 61.15981 46.657034 63.57425 C 46.922749 64.365258 47.54687 65.174903 48.28428 65.690508 C 48.755975 66.021821 48.81159 66.075659 48.533516 65.936922 C 47.868199 65.603539 47.038098 64.729702 46.70235 64.007027 C 45.746601 61.950819 46.360422 58.430624 48.535576 53.50028 C 49.050527 52.334474 49.940362 50.555741 50.766344 49.046198 C 52.010466 46.764284 52.370932 46.236254 53.353458 45.252671 C 54.006416 44.600399 54.045553 44.565197 54.531667 44.233885 C 54.834458 44.026814 55.823164 43.521563 55.990008 43.488432 C 56.031204 43.480149 56.140374 43.440806 56.233065 43.403533 C 56.323696 43.36626 56.459644 43.328988 56.535856 43.318634 C 56.612069 43.310351 56.675923 43.295856 56.675923 43.291715 C 56.675923 43.285503 56.725358 43.273079 56.785093 43.264796 C 56.846887 43.256513 57.046688 43.221311 57.227951 43.186109 C 57.703765 43.097069 58.721309 43.024594 60.465963 42.956261 C 63.399125 42.844443 67.943053 43.055655 71.784589 43.486361 C 72.948378 43.616815 75.737353 44.001966 76.347056 44.117925 C 76.505661 44.148986 76.651907 44.169693 76.672505 44.165552 C 76.695163 44.16141 76.748717 44.171764 76.794033 44.1904 C 76.880545 44.225602 77.599417 44.343632 77.850713 44.364339 C 77.928985 44.372622 78.017557 44.391258 78.046394 44.409894 C 78.077291 44.428531 78.204999 44.457521 78.330647 44.472016 C 78.641678 44.509288 79.239021 44.621106 79.339951 44.658379 C 79.387327 44.677015 79.46148 44.695651 79.506796 44.699793 C 79.807527 44.732924 80.122677 44.803328 80.147395 44.846813 C 80.163873 44.873732 80.19889 44.884085 80.221548 44.869591 C 80.330717 44.803328 83.375108 45.569488 85.35458 46.16378 C 88.479304 47.101808 89.612196 47.613272 90.372264 48.43327 C 91.183827 49.311248 90.934591 50.34867 89.645153 51.458567 C 88.41133 52.520838 85.325743 54.661945 83.214444 55.918861 C 81.055769 57.206838 78.231777 58.716381 78.116428 58.643906 C 78.079351 58.621128 78.064932 58.627341 78.085531 58.658401 C 78.124667 58.722593 77.479948 59.043552 77.362539 59.018703 C 77.311044 59.00835 77.296625 59.024916 77.323403 59.0684 C 77.35224 59.113956 77.341941 59.122239 77.292506 59.091178 C 77.24925 59.064259 77.197755 59.078754 77.160678 59.130521 C 77.076226 59.24441 76.763136 59.399713 76.713701 59.352087 C 76.693103 59.33138 76.643667 59.356228 76.606591 59.407996 C 76.567455 59.459763 76.466524 59.513601 76.380012 59.530167 C 76.293501 59.544662 76.206989 59.584005 76.186391 59.617137 C 76.167853 59.648197 76.09164 59.68754 76.019547 59.699965 C 75.947454 59.71446 75.87536 59.74552 75.856822 59.768298 C 75.840344 59.791076 75.788849 59.820065 75.743533 59.828348 C 75.698217 59.838702 75.650842 59.869762 75.640543 59.898752 C 75.632303 59.927742 75.603466 59.938095 75.578749 59.923601 C 75.556091 59.909106 75.152369 60.072691 74.684793 60.288044 C 70.272692 62.313192 65.147899 64.199602 60.937658 65.346771 C 59.740912 65.671872 57.514263 66.206113 57.365957 66.201972 C 57.320642 66.199901 58.055992 66.003184 58.999382 65.765053 Z M 55.291734 62.735615 C 54.910671 62.687989 54.268012 62.528545 53.86635 62.381525 C 52.144353 61.756173 51.277176 60.250772 51.411063 58.122089 C 51.509933 56.550426 51.901296 55.175479 52.976514 52.61609 C 54.222696 49.648773 54.949807 48.391856 56.138314 47.155647 C 57.333001 45.911154 58.507089 45.300297 60.231145 45.029035 C 60.752276 44.946207 61.147758 44.939994 63.399125 44.966914 C 67.129431 45.012469 70.08113 45.229893 73.778479 45.728932 C 76.567455 46.103729 79.945534 46.768425 82.384342 47.416555 C 83.962153 47.836908 86.011658 48.449836 86.254715 48.572007 C 86.950929 48.926097 87.04568 49.420995 86.528669 50.009075 C 86.118768 50.474983 84.433848 51.756748 83.105274 52.61609 C 78.952708 55.29765 73.98446 57.649969 67.329232 60.087186 C 63.615404 61.447638 60.097258 62.431222 58.025095 62.687989 C 57.409213 62.764605 55.753131 62.793595 55.291734 62.735615 Z M 57.450409 62.605161 C 59.786228 62.389808 63.722514 61.298547 68.076941 59.660621 C 74.118347 57.38906 78.186461 55.496438 81.832315 53.26422 C 84.017767 51.922405 86.359765 50.158166 86.62136 49.650844 C 86.841759 49.222208 86.635779 48.857764 86.011658 48.572007 C 85.327803 48.259331 81.99092 47.360646 79.67364 46.865748 C 74.318148 45.720649 68.023386 45.062166 62.410419 45.060095 C 60.189949 45.060095 59.331011 45.205044 58.156922 45.78277 C 56.81805 46.439183 55.604825 47.679534 54.581102 49.439632 C 53.926084 50.570236 52.649005 53.539624 52.146413 55.109216 C 51.196843 58.076534 51.320431 60.132742 52.521297 61.356527 C 53.526482 62.379454 55.22788 62.81016 57.450409 62.605161 Z M 55.606884 62.491272 C 54.265952 62.362889 53.330801 61.994303 52.665484 61.33582 C 51.462558 60.143095 51.324551 58.080675 52.255583 55.171337 C 52.519238 54.343056 53.380236 52.193667 53.905486 51.046497 C 55.314392 47.969433 57.013731 46.161709 59.083834 45.538428 C 60.152873 45.217469 60.360913 45.198832 62.762645 45.202974 C 67.726774 45.215398 72.676484 45.683377 77.735364 46.615193 C 80.415169 47.110091 84.858168 48.230341 85.970462 48.692108 C 86.51837 48.921956 86.701693 49.224279 86.512191 49.592864 C 86.267074 50.067055 84.19697 51.651142 82.163943 52.916342 C 78.973306 54.904217 75.451041 56.631183 70.933889 58.424412 C 66.554745 60.163802 63.774009 61.108043 60.882044 61.834859 C 59.34543 62.222081 58.278451 62.414656 57.242369 62.495414 C 56.432866 62.555464 56.276321 62.555464 55.606884 62.491272 Z M 57.777918 62.300767 C 59.75739 62.068849 62.952147 61.213648 66.371423 60.000217 C 68.50538 59.242339 72.004988 57.865322 73.862931 57.053606 C 78.466594 55.042954 82.573844 52.70513 85.235112 50.580589 C 86.398901 49.650844 86.611061 49.348521 86.300031 49.058622 C 86.10023 48.870189 85.756242 48.741805 84.402951 48.352513 C 79.56447 46.954788 74.184261 46.002265 68.795812 45.588124 C 66.554745 45.416256 65.86677 45.385196 63.442381 45.354135 C 60.774934 45.318933 60.406229 45.341711 59.415463 45.594337 C 57.273266 46.141002 55.510074 47.946655 54.053792 51.081699 C 53.703625 51.835435 52.826148 53.976542 52.539836 54.773762 C 52.029004 56.198406 51.740632 57.724514 51.794186 58.730876 C 51.853921 59.830419 52.150533 60.60072 52.749936 61.201224 C 53.728343 62.180667 55.495655 62.567888 57.777918 62.300767 Z M 50.28229 47.453828 C 50.28229 47.383424 50.420297 47.265394 50.459433 47.304737 C 50.475912 47.319232 50.523287 47.288171 50.564483 47.234333 C 50.634517 47.145293 50.632457 47.143222 50.545945 47.211555 C 50.397639 47.327515 50.430596 47.236404 50.622158 46.996202 C 50.718968 46.876102 50.815779 46.791203 50.840497 46.805698 C 50.883753 46.834688 51.114451 46.544789 51.112391 46.464032 C 51.110331 46.437113 51.058836 46.499234 50.994982 46.598627 C 50.931128 46.698021 50.865215 46.768425 50.850796 46.75393 C 50.801361 46.704233 51.065016 46.387416 51.12681 46.424688 C 51.165946 46.449537 51.174185 46.42883 51.151527 46.366709 C 51.12887 46.308729 51.137109 46.285951 51.170066 46.306658 C 51.200963 46.325295 51.285415 46.209335 51.359568 46.04575 C 51.433721 45.884235 51.495515 45.784841 51.497575 45.822114 C 51.503754 46.002265 50.922889 46.969283 50.838437 46.915445 C 50.81372 46.90095 50.760165 46.932011 50.716909 46.983778 C 50.648935 47.070748 50.650995 47.072818 50.739567 47.004485 C 50.793121 46.963071 50.836377 46.946506 50.836377 46.967213 C 50.836377 47.029334 50.48827 47.441404 50.459433 47.412414 C 50.445015 47.397919 50.397639 47.414484 50.356443 47.447616 C 50.311127 47.484888 50.28229 47.486959 50.28229 47.453828 Z M 51.503754 45.637821 C 51.505814 45.571559 51.520232 45.559135 51.536711 45.602619 C 51.555249 45.644033 51.55113 45.69166 51.532591 45.710296 C 51.514053 45.726862 51.501694 45.695801 51.503754 45.637821 Z M 51.503754 45.637821 " transform="matrix(1.896418,0,0,1.886437,-19.883577,-25.393644)"/>
</g>
</svg>
