<?xml version="1.0" encoding="UTF-8"?>
<svg xmlns="http://www.w3.org/2000/svg" xmlns:xlink="http://www.w3.org/1999/xlink" width="px" height="0px" viewBox="0 0 190 189" version="1.1">
<g id="surface1">
<path style="fill:none;stroke-width:0.264583;stroke-linecap:butt;stroke-linejoin:miter;stroke:rgb(99.607843%,0%,0%);stroke-opacity:1;stroke-miterlimit:4;" d="M 110.618082 63.592886 C 110.618082 91.20778 88.232127 113.594149 60.616329 113.594149 C 33.00259 113.594149 10.616635 91.20778 10.616635 63.592886 C 10.616635 35.980063 33.00259 13.593694 60.616329 13.593694 C 88.232127 13.593694 110.618082 35.980063 110.618082 63.592886 Z M 110.618082 63.592886 " transform="matrix(1.896418,0,0,1.886437,-19.883577,-25.393644)"/>
<path style="fill:none;stroke-width:0.264583;stroke-linecap:butt;stroke-linejoin:miter;stroke:rgb(99.607843%,0%,0%);stroke-opacity:1;stroke-miterlimit:4;" d="M 65.895608 26.262254 C 65.895608 29.024572 63.65866 31.263002 60.896462 31.263002 C 58.134265 31.263002 55.897317 29.024572 55.897317 26.262254 C 55.897317 23.499937 58.134265 21.261507 60.896462 21.261507 C 63.65866 21.261507 65.895608 23.499937 65.895608 26.262254 Z M 65.895608 26.262254 " transform="matrix(1.896418,0,0,1.886437,-19.883577,-25.393644)"/>
<path style="fill:none;stroke-width:0.435922;stroke-linecap:butt;stroke-linejoin:miter;stroke:rgb(0%,0%,100%);stroke-opacity:1;stroke-miterlimit:4;" d="M 42.654834 89.714803 C 33.187973 87.99612 24.610947 84.202592 20.192666 79.785783 C 16.349071 75.942558 15.321229 73.940188 15.084351 69.836055 C 14.748603 64.027734 15.20794 61.967384 17.533459 58.857189 C 22.536724 52.170889 27.958129 48.760441 38.436355 45.716508 C 45.487065 43.666512 51.870399 42.83409 60.455664 42.844443 C 72.82273 42.858938 82.841619 44.92757 91.711137 49.302965 C 95.902839 51.369527 97.26025 52.309626 100.053345 55.067802 C 101.913349 56.906586 103.936077 59.412137 104.626111 60.735316 C 105.750764 62.892989 105.861994 63.518341 105.874352 67.684595 C 105.882592 71.625143 105.742525 72.546605 104.862989 74.317056 C 102.543649 78.984421 97.676331 83.014009 90.829541 85.931629 C 84.20315 88.758138 73.082266 91.1498 72.318078 89.915661 C 72.136815 89.619551 70.672294 86.213245 69.065647 82.345172 C 63.333211 68.541866 60.597791 62.447787 60.276461 62.774958 C 60.039584 63.017231 50.70249 84.792742 48.688001 89.807985 C 48.420227 90.474751 46.687931 90.447832 42.654834 89.714803 Z M 45.392314 88.780916 C 45.248128 88.635967 44.871184 88.621472 44.556034 88.745714 C 44.207927 88.886522 44.312977 88.987986 44.819689 89.008693 C 45.279025 89.0294 45.5365 88.925865 45.392314 88.780916 Z M 50.041293 81.198002 C 53.489405 71.546456 59.724434 57.030829 60.488621 56.869314 C 60.849087 56.794768 61.263108 57.177849 61.432011 57.74108 C 61.600915 58.293957 63.283776 62.422939 65.174676 66.916364 C 67.067636 71.407719 68.61455 75.335842 68.61455 75.644377 C 68.61455 76.284224 71.158408 83.024362 71.529173 83.368099 C 71.66512 83.492341 71.638343 83.152746 71.471498 82.614363 C 70.82472 80.508458 71.588907 81.790223 72.771235 84.794813 C 73.45509 86.532133 74.048314 88.010615 74.08951 88.076877 C 74.235756 88.317079 83.702617 85.962689 87.881961 84.647793 C 92.868747 83.0782 96.329219 80.959871 99.390088 77.605333 C 102.368565 74.339834 103.600328 71.674839 103.835146 67.991059 C 104.00405 65.346771 103.878402 64.733843 102.663117 62.265566 C 95.851344 48.429129 66.855477 41.221012 41.872108 47.155647 C 24.726296 51.226648 13.926741 62.054354 17.543758 71.544385 C 18.717846 74.625591 19.863098 76.199325 22.707688 78.648967 C 25.465766 81.021992 29.480325 83.212796 34.932627 85.318701 C 38.90393 86.851021 46.792981 88.696017 47.33059 88.217685 C 47.493315 88.072736 48.712719 84.912843 50.041293 81.198002 Z M 38.316886 76.97791 C 34.992361 76.234527 30.396938 74.348117 28.361851 72.890342 C 23.475995 69.392925 22.271009 63.495563 25.434869 58.565219 C 32.417606 47.683676 59.438121 42.964544 80.165933 49.008926 C 84.994115 50.417004 90.714192 53.566543 93.540243 56.374416 C 99.8968 62.69006 98.069753 70.629135 89.315584 74.724985 C 86.479234 76.052305 82.314309 77.27402 80.625269 77.27402 C 79.46148 77.27402 78.064932 75.762407 67.753551 63.323695 C 64.0768 58.888249 60.931479 55.103004 60.764635 54.910429 C 60.597791 54.717853 56.620308 59.151228 51.928074 64.762833 C 41.365396 77.389979 41.124399 77.605333 38.316886 76.97791 Z M 42.784602 71.991657 C 44.162611 70.287469 46.815639 67.098586 48.679762 64.909853 C 50.541825 62.719049 53.575917 59.064259 55.421502 56.786486 C 59.664699 51.547607 59.749151 51.462709 60.632807 51.632506 C 61.038589 51.711193 62.851217 53.570684 64.663845 55.765629 C 66.476473 57.960574 70.019336 62.203444 72.536417 65.193539 C 75.055558 68.185705 77.896029 71.635496 78.849718 72.863423 C 79.803407 74.09135 80.847728 75.095641 81.171118 75.095641 C 82.549127 75.095641 88.487543 72.778524 90.644158 71.397365 C 96.038786 67.947574 96.306561 61.843142 91.25798 57.519515 C 79.764271 47.681605 50.887872 45.954639 34.679271 54.135986 C 29.121919 56.941788 25.894205 60.654559 25.894205 64.241016 C 25.894205 66.572628 27.579125 69.423985 29.94996 71.107467 C 31.814083 72.432717 38.306587 75.072863 39.731972 75.089429 C 40.030643 75.091499 41.404533 73.697916 42.784602 71.991657 Z M 79.076296 74.493066 C 79.076296 74.404026 78.732309 74.060289 78.314169 73.731047 C 77.622075 73.188523 77.605596 73.205089 78.149384 73.896704 C 78.717891 74.62145 79.076296 74.853368 79.076296 74.493066 Z M 44.257362 72.151101 C 44.80115 71.461557 44.784672 71.444991 44.092578 71.987516 C 43.367526 72.556959 43.136828 72.915191 43.495234 72.915191 C 43.585866 72.915191 43.929853 72.571454 44.257362 72.151101 Z M 28.510157 71.465699 C 28.510157 71.387012 27.970488 70.848629 27.311351 70.266762 L 26.112544 69.208632 L 27.169224 70.407569 C 28.15587 71.52989 28.510157 71.807364 28.510157 71.465699 Z M 46.436635 69.535803 C 46.980423 68.844189 46.963945 68.829694 46.27391 69.372218 C 45.85371 69.70146 45.509723 70.045196 45.509723 70.134237 C 45.509723 70.494539 45.868129 70.26262 46.436635 69.535803 Z M 74.71775 69.262471 C 74.71775 69.17343 74.373763 68.829694 73.953563 68.500452 C 73.263528 67.957928 73.24705 67.972423 73.788778 68.664037 C 74.359344 69.390854 74.71775 69.622773 74.71775 69.262471 Z M 48.617968 66.920506 C 49.159697 66.228891 49.143218 66.214396 48.453184 66.75692 C 48.032983 67.086162 47.688996 67.427828 47.688996 67.518939 C 47.688996 67.87717 48.047402 67.647322 48.617968 66.920506 Z M 72.536417 66.647173 C 72.536417 66.556062 72.19449 66.214396 71.77429 65.885154 C 71.082195 65.34263 71.067777 65.357125 71.609505 66.04874 C 72.180071 66.775556 72.536417 67.005404 72.536417 66.647173 Z M 24.8952 63.657078 C 24.79015 63.114554 24.701578 63.45622 24.695399 64.414955 C 24.691279 65.373691 24.775731 65.816821 24.884901 65.40061 C 24.994071 64.984398 24.99819 64.199602 24.89314 63.657078 Z M 50.797241 64.305208 C 51.33897 63.613593 51.324551 63.599098 50.632457 64.141622 C 50.212257 64.470864 49.870329 64.81253 49.870329 64.903641 C 49.870329 65.261873 50.226675 65.032025 50.797241 64.305208 Z M 96.366295 63.650866 C 96.244767 63.352685 96.145896 63.597028 96.145896 64.197531 C 96.145896 64.795964 96.244767 65.040307 96.366295 64.742126 C 96.487824 64.441874 96.487824 63.951118 96.366295 63.650866 Z M 25.976597 60.490973 C 26.37208 59.633702 26.3659 59.633702 25.700584 60.466125 C 25.327759 60.929962 25.037327 61.617436 25.055865 61.992233 C 25.086762 62.578242 25.123838 62.582383 25.333938 62.017081 C 25.465766 61.656779 25.756198 60.971376 25.976597 60.490973 Z M 52.976514 61.68991 C 53.518243 60.998295 53.503824 60.9838 52.81173 61.526325 C 52.39153 61.853496 52.049602 62.197232 52.049602 62.288343 C 52.049602 62.646575 52.408008 62.416727 52.976514 61.68991 Z M 68.177871 61.416577 C 68.177871 61.325466 67.833884 60.98173 67.415743 60.654559 C 66.723649 60.112035 66.709231 60.126529 67.250959 60.818144 C 67.819465 61.544961 68.177871 61.774809 68.177871 61.416577 Z M 55.155787 59.074612 C 55.697516 58.382998 55.683097 58.368503 54.991003 58.908956 C 54.572863 59.238198 54.228875 59.581935 54.228875 59.673046 C 54.228875 60.031277 54.587281 59.801429 55.155787 59.074612 Z M 65.998598 58.80128 C 65.998598 58.710169 65.654611 58.366432 65.23647 58.03719 C 64.544376 57.496737 64.527898 57.511232 65.071686 58.202846 C 65.640192 58.929663 65.998598 59.159511 65.998598 58.80128 Z M 94.333268 58.83234 C 94.333268 58.759866 93.597918 58.024766 92.699843 57.198556 L 91.064358 55.695225 L 92.565956 57.331081 C 93.964563 58.853047 94.333268 59.165723 94.333268 58.83234 Z M 28.129093 57.331081 C 28.670822 56.639466 28.656403 56.6229 27.964309 57.165424 C 27.544109 57.494666 27.202181 57.838403 27.202181 57.929514 C 27.202181 58.287745 27.558527 58.057897 28.129093 57.331081 Z M 63.819325 56.185982 C 63.819325 56.094871 63.475338 55.751134 63.055137 55.421892 C 62.365103 54.879368 62.348624 54.895934 62.892413 55.587549 C 63.460919 56.312295 63.819325 56.544213 63.819325 56.185982 Z M 73.726984 48.675542 C 73.582798 48.530593 73.205854 48.516098 72.890704 48.642411 C 72.544657 48.781148 72.647647 48.884683 73.154359 48.90539 C 73.613695 48.924027 73.871171 48.820492 73.726984 48.675542 Z M 51.058836 48.240695 C 50.91465 48.095746 50.537706 48.07918 50.224615 48.205493 C 49.876508 48.34423 49.979499 48.447765 50.486211 48.468472 C 50.945547 48.487108 51.203023 48.385644 51.058836 48.240695 Z M 71.111033 48.240695 C 70.966846 48.095746 70.589902 48.07918 70.276812 48.205493 C 69.928705 48.34423 70.031695 48.447765 70.540467 48.468472 C 70.999803 48.487108 71.257279 48.385644 71.111033 48.240695 Z M 54.780903 47.780999 C 54.486351 47.662969 53.897247 47.654686 53.474987 47.764433 C 53.050667 47.876251 53.291664 47.973574 54.010536 47.981857 C 54.729408 47.99014 55.077515 47.9011 54.780903 47.780999 Z M 67.858601 47.780999 C 67.564049 47.662969 66.974945 47.654686 66.552685 47.764433 C 66.128366 47.876251 66.369363 47.973574 67.088235 47.981857 C 67.807106 47.99014 68.155213 47.9011 67.858601 47.780999 Z M 72.966916 87.263091 C 72.968976 87.604757 73.076086 87.778696 73.201734 87.654454 C 73.327382 87.528141 73.300605 87.087081 73.13994 86.672941 C 72.911302 86.076578 72.775355 86.039305 72.482862 86.501072 C 72.281002 86.81996 72.114157 87.279657 72.114157 87.517787 C 72.114157 87.757989 72.305719 87.660666 72.538477 87.300364 C 72.884524 86.761981 72.960737 86.755769 72.966916 87.265162 Z M 72.08738 84.030724 C 72.08738 83.790522 71.897878 83.889916 71.66512 84.248147 C 71.432362 84.60845 71.24286 85.099206 71.24286 85.339408 C 71.24286 85.577539 71.432362 85.480216 71.66512 85.119913 C 71.897878 84.761682 72.08738 84.270925 72.08738 84.030724 Z M 21.970278 79.74851 C 21.970278 79.669823 21.430609 79.12937 20.771471 78.549573 L 19.572665 77.491444 L 20.629345 78.690381 C 21.618051 79.810631 21.970278 80.090176 21.970278 79.74851 Z M 16.165749 70.653983 C 16.025682 70.306105 15.922692 70.40964 15.902094 70.916962 C 15.883555 71.376658 15.986546 71.633425 16.130732 71.488476 C 16.274918 71.343527 16.291397 70.96873 16.165749 70.653983 Z M 105.093687 68.910451 C 104.95362 68.562573 104.85063 68.666108 104.830032 69.17343 C 104.811493 69.633126 104.914484 69.889894 105.05867 69.744944 C 105.204916 69.599995 105.219335 69.225198 105.093687 68.910451 Z M 105.103986 65.835457 C 104.998936 65.295004 104.910364 65.634599 104.904185 66.593335 C 104.900065 67.554141 104.984517 67.997271 105.093687 67.578989 C 105.202856 67.162778 105.206976 66.377981 105.103986 65.835457 Z M 63.215802 65.216317 C 62.847097 64.535056 62.538126 64.116774 62.527827 64.284501 C 62.49899 64.802177 63.512414 66.827324 63.706036 66.634749 C 63.804906 66.535355 63.584507 65.895508 63.215802 65.216317 Z M 16.163689 64.551622 C 16.025682 64.203743 15.922692 64.307279 15.902094 64.814601 C 15.881496 65.274297 15.984486 65.531064 16.130732 65.386115 C 16.274918 65.241166 16.291397 64.866368 16.163689 64.551622 Z M 61.034469 59.581935 L 60.426827 57.875675 L 59.942773 59.103602 C 59.380446 60.528246 59.33719 61.789304 59.895397 60.490973 C 60.229086 59.712389 60.272342 59.704106 60.301179 60.408145 C 60.317657 60.840922 60.527757 61.074911 60.766695 60.927891 C 61.005632 60.778801 61.203373 60.898902 61.203373 61.192941 C 61.203373 61.484911 61.302244 61.627789 61.421712 61.505618 C 61.543241 61.385517 61.368158 60.519963 61.034469 59.581935 Z M 21.533599 56.132144 C 22.835396 54.813106 23.803504 53.73427 23.684035 53.73427 C 23.564566 53.73427 22.400777 54.813106 21.096921 56.132144 C 19.795124 57.451181 18.829076 58.530018 18.948545 58.530018 C 19.068013 58.530018 20.231803 57.451181 21.533599 56.132144 Z M 99.99979 56.132144 C 98.941051 55.053307 97.977062 54.171188 97.857594 54.171188 C 97.736065 54.171188 98.504372 55.053307 99.563112 56.132144 C 100.621851 57.21098 101.587899 58.093099 101.707368 58.093099 C 101.826837 58.093099 101.05853 57.21098 99.99979 56.132144 Z M 26.328824 52.14397 C 26.328824 51.827152 24.648023 52.841797 24.336993 53.347048 C 24.174268 53.610027 24.557392 53.487856 25.185632 53.075786 C 25.813873 52.663716 26.328824 52.243364 26.328824 52.14397 Z M 96.73294 53.301493 C 96.584634 53.061291 96.032607 52.657504 95.507357 52.398666 C 94.683435 51.99695 94.701973 52.05493 95.641244 52.82316 C 96.860648 53.821239 97.126363 53.937198 96.73294 53.301493 Z M 31.086972 49.534884 C 31.686375 49.010996 30.26717 49.497611 29.573016 50.05256 C 28.773812 50.692407 28.78823 50.70069 29.816073 50.212004 C 30.415476 49.926247 30.988102 49.621854 31.086972 49.534884 Z M 89.538043 49.158016 C 88.93864 48.81428 88.252725 48.534735 88.011728 48.534735 C 87.772791 48.534735 88.067343 48.81428 88.666746 49.158016 C 89.266149 49.499682 89.952064 49.779227 90.191001 49.779227 C 90.431998 49.779227 90.137446 49.499682 89.538043 49.158016 Z M 34.8008 48.246907 C 35.53615 47.928019 35.843061 47.673322 35.482595 47.681605 C 35.124189 47.689888 34.044851 48.072968 33.084983 48.534735 C 31.204381 49.439632 32.600928 49.205642 34.8008 48.246907 Z M 41.468387 46.060245 C 41.3242 45.915295 40.947256 45.900801 40.632106 46.025043 C 40.283999 46.165851 40.389049 46.267315 40.895761 46.290093 C 41.355097 46.308729 41.612573 46.205194 41.468387 46.060245 Z M 80.264804 46.060245 C 80.120617 45.915295 79.743673 45.900801 79.430583 46.025043 C 79.082476 46.165851 79.185466 46.267315 79.692178 46.290093 C 80.153574 46.308729 80.41105 46.205194 80.264804 46.060245 Z M 43.43962 45.598478 C 43.138888 45.478377 42.648655 45.478377 42.349983 45.598478 C 42.049252 45.720649 42.294368 45.817972 42.893771 45.817972 C 43.493174 45.817972 43.738291 45.720649 43.43962 45.598478 Z M 78.312109 45.598478 C 78.013437 45.478377 77.523204 45.478377 77.222472 45.598478 C 76.923801 45.720649 77.168918 45.817972 77.768321 45.817972 C 78.367724 45.817972 78.61284 45.720649 78.312109 45.598478 Z M 49.635511 44.795045 C 52.502759 44.436814 57.506024 44.10136 60.750216 44.049592 L 66.651556 43.956411 L 61.421712 43.805249 C 56.222766 43.656159 47.592185 44.296006 45.22341 45.006257 C 43.449919 45.536357 43.822743 45.519791 49.635511 44.795045 Z M 76.342936 45.188479 C 76.19875 45.04353 75.821805 45.029035 75.506655 45.153277 C 75.158548 45.294085 75.263598 45.395549 75.77031 45.418327 C 76.229647 45.436963 76.487122 45.333428 76.342936 45.188479 Z M 72.973096 44.556914 C 71.893758 44.36641 70.031695 44.227673 68.832889 44.25045 L 66.651556 44.289794 L 69.267508 44.579692 C 70.707311 44.739136 72.569374 44.877873 73.409774 44.888227 C 74.758946 44.904792 74.707451 44.865449 72.973096 44.556914 Z M 72.973096 44.556914 " transform="matrix(1.896418,0,0,1.886437,-19.883577,-25.393644)"/>
</g>
</svg>
