<?xml version="1.0" encoding="UTF-8"?>
<svg xmlns="http://www.w3.org/2000/svg" xmlns:xlink="http://www.w3.org/1999/xlink" width="px" height="0px" viewBox="0 0 190 189" version="1.1">
<g id="surface1">
<path style="fill:none;stroke-width:0.264583;stroke-linecap:butt;stroke-linejoin:miter;stroke:rgb(99.607843%,0%,0%);stroke-opacity:1;stroke-miterlimit:4;" d="M 110.618082 63.592886 C 110.618082 91.20778 88.232127 113.594149 60.616329 113.594149 C 33.00259 113.594149 10.616635 91.20778 10.616635 63.592886 C 10.616635 35.980063 33.00259 13.593694 60.616329 13.593694 C 88.232127 13.593694 110.618082 35.980063 110.618082 63.592886 Z M 110.618082 63.592886 " transform="matrix(1.896418,0,0,1.886437,-19.883577,-25.393644)"/>
<path style="fill:none;stroke-width:0.264583;stroke-linecap:butt;stroke-linejoin:miter;stroke:rgb(99.607843%,0%,0%);stroke-opacity:1;stroke-miterlimit:4;" d="M 65.895608 26.262254 C 65.895608 29.024572 63.65866 31.263002 60.896462 31.263002 C 58.134265 31.263002 55.897317 29.024572 55.897317 26.262254 C 55.897317 23.499937 58.134265 21.261507 60.896462 21.261507 C 63.65866 21.261507 65.895608 23.499937 65.895608 26.262254 Z M 65.895608 26.262254 " transform="matrix(1.896418,0,0,1.886437,-19.883577,-25.393644)"/>
<path style="fill:none;stroke-width:0.0767168;stroke-linecap:butt;stroke-linejoin:miter;stroke:rgb(0%,0%,100%);stroke-opacity:1;stroke-miterlimit:4;" d="M 17.111199 86.409961 C 17.111199 86.354052 17.389273 85.983397 17.7312 85.583751 C 19.115389 83.968603 19.135987 83.856785 19.259575 76.959273 C 19.304891 74.513773 19.364625 72.490696 19.395522 72.465848 C 19.467615 72.405798 21.401772 72.517616 21.469745 72.583878 C 21.498582 72.612868 21.52124 74.747763 21.52124 77.329929 C 21.52124 81.966233 21.51918 82.030425 21.346157 82.711686 C 21.249346 83.092695 21.043366 83.662139 20.886821 83.978956 C 20.511936 84.738904 19.665356 85.602387 18.913528 85.989609 C 18.04635 86.43481 17.111199 86.652234 17.111199 86.409961 Z M 18.798179 85.801175 C 19.846619 85.273145 20.730275 84.132188 21.096921 82.825575 C 21.325559 82.01593 21.410011 79.651187 21.352336 75.789326 L 21.304961 72.699837 L 20.868282 72.699837 C 20.627285 72.699837 20.225623 72.67913 19.972267 72.652211 L 19.512931 72.604585 L 19.459376 76.661092 C 19.430539 78.891239 19.372864 81.229063 19.331668 81.852344 C 19.185422 84.034865 18.956784 84.606379 17.700303 85.948195 L 17.327478 86.34577 L 17.813592 86.19875 C 18.081367 86.117992 18.524225 85.939912 18.798179 85.801175 Z M 49.22561 83.856785 C 46.792981 83.334968 45.548859 82.539818 44.80115 81.024063 C 44.376831 80.164721 44.245003 79.578712 44.251182 78.57028 C 44.263541 75.555337 46.236834 73.306553 49.485146 72.600444 C 50.556244 72.368525 52.846747 72.370596 53.788077 72.604585 C 54.513128 72.784736 55.22788 73.074635 55.363828 73.244432 C 55.604825 73.544684 55.567748 74.540692 55.316452 74.540692 C 55.242299 74.540692 54.859175 74.389531 54.461633 74.203168 C 53.330801 73.668926 52.943557 73.588169 51.479036 73.586098 C 50.323486 73.584028 50.17312 73.600593 49.75292 73.766249 C 48.716839 74.178319 47.688996 75.087358 47.235839 75.994326 C 46.881553 76.700435 46.770323 77.398262 46.819759 78.603411 C 46.879493 80.059116 47.176105 80.767296 48.105077 81.684617 C 48.696241 82.270626 49.371856 82.639211 50.059831 82.751029 C 50.681892 82.852494 52.587211 82.835928 53.011531 82.72411 C 53.536781 82.587444 53.54914 82.535676 53.54914 80.353155 L 53.5512 78.454321 L 53.961101 78.454321 C 54.185619 78.454321 54.688212 78.477099 55.073395 78.504018 L 55.777848 78.553715 L 55.736652 83.316331 L 54.900372 83.533755 C 53.821034 83.811229 52.558374 83.976885 51.211262 84.018299 C 50.269931 84.047289 50.022755 84.026582 49.22561 83.856785 Z M 52.749936 83.707694 C 53.301963 83.643502 54.148543 83.496482 54.630537 83.380523 L 55.505954 83.167241 L 55.54715 78.764926 L 55.374127 78.727654 C 55.277316 78.706947 54.883893 78.680027 54.49871 78.667603 L 53.796316 78.646896 L 53.767479 80.525024 C 53.736582 82.608151 53.718044 82.688908 53.256648 82.881484 C 52.622228 83.146534 50.086609 83.0782 49.312122 82.775878 C 48.298698 82.378303 47.2276 81.272547 46.869194 80.255832 C 46.539625 79.317804 46.48607 77.59912 46.753845 76.623819 C 47.027799 75.629882 47.781687 74.662864 48.790992 74.012663 C 49.586076 73.499129 50.171061 73.35418 51.44196 73.35418 C 52.751995 73.352109 53.44203 73.494987 54.461633 73.97332 C 54.859175 74.159683 55.211402 74.310844 55.248479 74.310844 C 55.33911 74.310844 55.33293 73.644078 55.240239 73.470139 C 55.12695 73.258927 54.119706 72.873776 53.310203 72.732969 C 52.756115 72.635646 52.292659 72.614939 51.287475 72.645999 C 49.682887 72.695696 48.842487 72.886201 47.64368 73.478422 C 46.945407 73.824229 46.745606 73.969178 46.140023 74.573824 C 45.552979 75.161903 45.388195 75.385539 45.085403 76.000538 C 44.59105 77.006899 44.465402 77.53907 44.461283 78.607553 C 44.459223 79.874823 44.722878 80.686538 45.443809 81.641133 C 46.144143 82.564666 47.106071 83.113402 48.716839 83.506836 C 49.244149 83.635219 49.763219 83.75532 49.868269 83.771886 C 50.335845 83.848502 51.831263 83.815371 52.749936 83.707694 Z M 66.82252 84.003805 C 65.887369 83.912694 64.894543 83.635219 64.196269 83.268705 C 63.34557 82.821433 62.70703 81.893758 62.523708 80.833558 C 62.472213 80.531236 62.420718 78.77735 62.39394 76.414678 C 62.358923 73.122261 62.369223 72.488626 62.459854 72.459636 C 62.587562 72.41408 64.515539 72.515545 64.569094 72.569383 C 64.589692 72.59009 64.639127 74.070643 64.680323 75.857659 C 64.801852 81.297396 64.882184 81.78194 65.7679 82.34103 C 66.229296 82.632999 66.635078 82.751029 67.421923 82.825575 C 68.29528 82.908403 69.337541 82.81315 69.916346 82.595727 C 70.416879 82.407293 71.024521 81.844061 71.269638 81.33881 C 71.615685 80.620276 71.673359 79.965934 71.722795 76.077154 L 71.77017 72.432717 L 72.268643 72.459636 C 72.542597 72.476202 72.845388 72.517616 72.940139 72.554888 L 73.113163 72.621151 L 73.111103 75.901144 C 73.106983 79.547652 73.03901 80.943306 72.843328 81.403002 C 72.336616 82.595727 71.271697 83.496482 70.025516 83.78431 C 69.185115 83.978956 67.648501 84.084562 66.82252 84.003805 Z M 69.737143 83.635219 C 71.329372 83.31426 72.596152 82.073909 72.804192 80.6327 C 72.845388 80.340731 72.880405 78.446038 72.882464 76.402254 L 72.882464 72.699837 L 72.662065 72.699837 C 72.540537 72.699837 72.338676 72.681201 72.213028 72.654282 L 71.98645 72.608727 L 71.939074 75.973619 C 71.895818 79.290885 71.831964 80.270327 71.617745 81.026134 C 71.380867 81.860627 70.645517 82.610221 69.813356 82.866989 C 69.259268 83.036786 67.627903 83.105119 66.92963 82.987089 C 65.881189 82.81108 65.049028 82.229212 64.836868 81.525173 C 64.655605 80.916387 64.60411 80.121237 64.509359 76.441598 L 64.412549 72.699837 L 63.97999 72.699837 C 63.741052 72.699837 63.333211 72.67913 63.073676 72.652211 L 62.60198 72.602514 L 62.60198 76.056447 C 62.60198 80.688609 62.680253 81.345022 63.333211 82.233354 C 63.854342 82.941534 64.680323 83.384664 66.017136 83.674563 C 66.593881 83.800876 66.906972 83.819512 67.934814 83.788451 C 68.61043 83.767744 69.421993 83.699411 69.737143 83.635219 Z M 27.620321 83.660068 C 27.620321 83.610371 28.870623 81.090326 30.396938 78.058817 L 33.175614 72.546605 L 33.725582 72.546605 C 34.246712 72.546605 34.289968 72.5611 34.520666 72.79716 C 34.662793 72.94211 35.206581 73.925694 35.824522 75.155691 C 37.418811 78.328008 39.894696 83.477846 39.894696 83.620725 C 39.894696 83.734613 39.75257 83.747037 38.601139 83.747037 L 37.307582 83.747037 L 35.943991 80.756942 L 30.569961 80.756942 L 29.921123 82.067697 C 29.117799 83.686987 29.056005 83.747037 28.227964 83.747037 C 27.820122 83.747037 27.620321 83.718048 27.620321 83.660068 Z M 28.932417 83.395018 C 29.016869 83.320473 29.381454 82.670272 29.74398 81.949667 C 30.106505 81.229063 30.442253 80.616135 30.489629 80.585074 C 30.58644 80.518812 35.836881 80.504317 36.003725 80.568508 C 36.06552 80.591286 36.421866 81.282901 36.79469 82.102899 L 37.474426 83.593805 L 38.570242 83.593805 C 39.171705 83.593805 39.663998 83.57931 39.663998 83.560674 C 39.663998 83.494412 35.95223 75.849377 35.305452 74.582106 C 34.938807 73.865643 34.516547 73.151251 34.364121 72.991807 C 34.116945 72.730898 34.048971 72.701908 33.711163 72.701908 L 33.336279 72.703979 L 30.58438 78.160281 L 27.834541 83.616583 L 28.308296 83.575169 C 28.604908 83.54825 28.839726 83.479917 28.932417 83.395018 Z M 30.841855 79.754722 C 30.841855 79.60149 32.749234 75.663013 33.060265 75.174327 C 33.358937 74.706349 33.447508 74.79953 34.1602 76.325638 C 35.356947 78.885027 35.694755 79.673965 35.649439 79.794066 C 35.610303 79.897601 35.299272 79.912096 33.222989 79.912096 C 30.878932 79.912096 30.841855 79.910025 30.841855 79.754722 Z M 35.342528 79.431693 C 35.087112 78.829118 33.43103 75.265438 33.381594 75.2116 C 33.295083 75.12256 31.834681 77.924221 31.179663 79.431693 L 31.070494 79.682248 L 35.447578 79.682248 Z M 78.029916 83.676633 C 77.939284 83.618654 77.937225 83.568957 78.023736 83.351533 C 78.227657 82.846282 83.414245 72.507262 83.488398 72.459636 C 83.562551 72.41408 83.770591 72.424434 84.532718 72.517616 L 84.866407 72.55903 L 85.902488 74.6815 C 87.447342 77.847605 89.88409 82.912544 90.024157 83.250069 C 90.112729 83.45921 90.125088 83.568957 90.065353 83.626937 C 90.013858 83.678704 89.525685 83.709765 88.749138 83.709765 L 87.513256 83.709765 L 86.899434 82.270626 L 86.283552 80.833558 L 85.317504 80.833558 C 84.786074 80.831488 83.558431 80.810781 82.586203 80.781791 L 80.818891 80.732094 L 80.246265 81.982799 C 79.931115 82.672343 79.56447 83.349462 79.432643 83.49027 C 79.206064 83.734613 79.166928 83.747037 78.666395 83.747037 C 78.375963 83.747037 78.08965 83.713906 78.029916 83.676633 Z M 79.241081 83.417796 C 79.302875 83.368099 79.591248 82.825575 79.87756 82.212647 C 80.165933 81.601789 80.462545 80.980578 80.536698 80.833558 L 80.670585 80.564367 L 83.239161 80.593357 C 84.654247 80.609922 85.960163 80.643054 86.141426 80.669973 L 86.473054 80.717599 L 87.090996 82.156738 L 87.706877 83.593805 L 88.223888 83.593805 C 88.508141 83.593805 89.000434 83.573098 89.317644 83.546179 L 89.89439 83.496482 L 89.667811 82.993302 C 89.542163 82.715827 88.660567 80.883255 87.708937 78.918158 C 86.757307 76.955132 85.694448 74.758116 85.344281 74.035441 L 84.709862 72.724686 L 84.155774 72.672918 C 83.850923 72.643928 83.591388 72.631504 83.576969 72.643928 C 83.56461 72.658423 82.345206 75.101853 80.866267 78.073311 C 78.310049 83.219008 78.188521 83.481987 78.351245 83.531684 C 78.575764 83.602088 79.098954 83.535826 79.241081 83.417796 Z M 81.169058 79.769217 C 81.169058 79.421339 83.449261 74.77054 83.618165 74.772611 C 83.694378 74.774682 83.842684 75.0066 84.021887 75.406246 C 84.176372 75.754124 84.650127 76.808112 85.076507 77.750282 C 85.500827 78.690381 85.848934 79.539369 85.848934 79.636692 C 85.848934 79.80856 85.826276 79.812702 84.800493 79.862399 C 84.223748 79.889318 83.171188 79.912096 82.460555 79.912096 C 81.25145 79.912096 81.169058 79.903813 81.169058 79.769217 Z M 85.585279 79.586995 C 85.634714 79.537298 85.099165 78.299018 83.888 75.65473 L 83.607866 75.039732 L 83.2577 75.731346 C 82.849858 76.534779 81.399756 79.597349 81.399756 79.653258 C 81.399756 79.715379 85.523484 79.649116 85.585279 79.586995 Z M 95.46822 78.170634 C 95.497058 75.101853 95.536194 72.577666 95.554732 72.55903 C 95.57327 72.540393 96.345697 72.507262 97.270549 72.486555 C 99.215005 72.44307 100.555937 72.546605 101.641454 72.819938 C 103.033882 73.171958 103.777472 73.666856 104.199731 74.524127 C 104.440729 75.014883 104.453087 75.077004 104.453087 75.925993 C 104.453087 76.795688 104.446908 76.824678 104.164715 77.394121 C 103.837206 78.056746 103.138932 78.77528 102.543649 79.063107 C 102.31913 79.172855 102.207901 79.268107 102.242917 79.324016 C 102.395343 79.574571 103.4788 81.096538 104.313021 82.235424 C 104.832091 82.945675 105.258471 83.57931 105.258471 83.647644 C 105.258471 83.759462 105.126643 83.767744 103.985512 83.722189 C 103.285178 83.69527 102.681656 83.653856 102.644579 83.631078 C 102.607503 83.6083 101.952485 82.674413 101.190357 81.558304 L 99.802049 79.529016 L 97.740185 79.529016 L 97.740185 83.747037 L 95.412606 83.747037 Z M 97.528025 81.465123 L 97.548623 79.33644 L 99.880322 79.295026 L 100.174874 79.698813 C 100.337598 79.922449 100.984377 80.856336 101.610557 81.773658 C 102.368565 82.885625 102.803184 83.455068 102.910294 83.477846 C 102.998865 83.496482 103.507637 83.523401 104.041127 83.535826 L 105.009235 83.562745 L 104.609633 83.022291 C 104.391293 82.726181 103.849565 81.980728 103.406707 81.36987 C 101.839196 79.203915 101.785641 79.098309 102.207901 78.984421 C 102.74345 78.841542 103.662123 77.957352 103.983452 77.27402 C 104.786776 75.580185 104.067904 73.851148 102.304711 73.232008 C 101.147101 72.828221 100.603313 72.761959 98.110949 72.722615 L 95.758653 72.685343 L 95.713337 73.171958 C 95.690679 73.441149 95.659782 75.894932 95.649483 78.626189 L 95.628885 83.593805 L 97.507427 83.593805 Z M 97.567161 78.795987 C 97.534204 78.762856 97.509487 77.51008 97.509487 76.012962 L 97.509487 73.289988 L 98.695934 73.339685 C 100.685705 73.422513 101.437534 73.695846 101.929827 74.524127 C 102.220259 75.008671 102.380924 75.774831 102.310891 76.317355 C 102.133748 77.638464 101.330424 78.477099 100.040986 78.682098 C 99.355071 78.789775 97.637194 78.870532 97.567161 78.795987 Z M 99.526035 78.524725 C 100.681585 78.398412 101.202716 78.147857 101.643514 77.50801 C 102.337668 76.497507 102.230558 75.029378 101.402517 74.223875 C 100.94524 73.780744 100.288163 73.61923 98.487894 73.509482 L 97.740185 73.463927 L 97.740185 78.675886 L 98.296332 78.636543 C 98.601183 78.615836 99.15527 78.566139 99.526035 78.524725 Z M 88.823291 69.860904 C 88.374254 69.7905 87.399966 69.421915 87.093055 69.206562 C 86.874716 69.051259 86.874716 68.87732 87.095115 68.829694 C 87.189866 68.808987 87.729535 68.755148 88.295981 68.709593 C 89.445352 68.618482 89.704887 68.537725 90.055054 68.164998 C 90.751268 67.423686 90.508211 66.769344 89.303226 66.148133 C 88.874786 65.924498 88.611131 65.742276 88.611131 65.66773 C 88.611131 65.500003 88.934521 65.560054 90.339307 65.988689 C 92.040706 66.506365 92.535059 66.589193 93.667951 66.547779 C 94.574265 66.512577 94.697854 66.487729 95.723636 66.139851 C 96.323039 65.934851 96.84005 65.791973 96.870947 65.823033 C 96.990416 65.941063 96.743239 66.152275 96.086162 66.500153 C 94.961508 67.094445 93.931606 67.328434 92.434128 67.330505 L 91.847084 67.330505 L 91.859443 67.887524 C 91.869742 68.396917 91.851204 68.471462 91.626685 68.794492 C 91.323894 69.23141 90.891335 69.616561 90.543228 69.76151 C 90.20542 69.902318 89.389737 69.949944 88.823291 69.860904 Z M 90.30841 69.620702 C 90.681235 69.508884 91.130272 69.127875 91.447482 68.653684 C 91.6823 68.303735 91.690539 68.268533 91.643163 67.734292 C 91.597848 67.191768 91.599908 67.177273 91.770871 67.177273 C 92.407351 67.173131 94.154065 67.003334 94.52895 66.906011 C 94.963568 66.794193 95.923437 66.411113 95.880181 66.367628 C 95.869882 66.355204 95.565031 66.43182 95.206625 66.535355 C 94.388883 66.773486 93.241572 66.850102 92.368215 66.721718 C 92.015988 66.669951 91.278578 66.49187 90.73067 66.328285 C 90.182762 66.162628 89.723426 66.038386 89.711067 66.05081 C 89.696648 66.065305 89.838775 66.183335 90.026217 66.31379 C 90.650338 66.754849 90.798644 67.409192 90.41964 68.055251 C 90.059174 68.67232 89.696648 68.823482 88.380433 68.912522 C 87.15279 68.993279 87.107474 69.020198 87.729535 69.285248 C 88.683224 69.689035 89.653392 69.815348 90.30841 69.620702 Z M 83.177367 66.87495 C 82.40494 66.46081 81.508926 66.032174 81.183476 65.926568 C 80.345136 65.649094 79.25138 65.510357 77.179217 65.415105 C 75.150309 65.321923 73.825855 65.218388 73.164658 65.100358 C 71.319073 64.771116 69.518804 63.681926 67.702056 61.793445 C 66.830759 60.890619 66.422918 60.377085 65.788498 59.39143 C 65.160258 58.414058 64.853347 58.062039 64.344575 57.732797 C 63.537132 57.208909 63.310553 57.186131 58.92111 57.169566 C 56.434926 57.161283 54.799441 57.12194 54.356583 57.06396 C 53.030069 56.88795 52.276181 56.73886 51.112391 56.424113 L 49.938303 56.107295 L 49.192653 56.461385 C 48.224545 56.923152 47.983548 56.968708 46.59524 56.972849 C 45.157496 56.97492 44.661084 56.881738 43.079154 56.320578 C 39.212901 54.947702 39.462137 55.020176 38.69177 55.026388 C 38.267451 55.028459 37.942001 55.067802 37.876088 55.121641 C 37.816353 55.171337 37.727782 55.411539 37.678346 55.655882 C 37.585655 56.136285 37.488844 56.283305 37.270505 56.283305 C 37.173694 56.283305 37.132498 56.225325 37.132498 56.088659 C 37.132498 55.862952 36.967714 55.513003 36.792631 55.365983 C 36.594889 55.202398 36.636085 54.64952 36.866784 54.376188 C 37.138678 54.053158 37.511502 53.949623 38.360142 53.962047 C 39.276755 53.976542 40.419946 54.196036 41.872108 54.639167 C 44.255302 55.368054 45.351118 55.566842 46.574642 55.492296 C 47.553049 55.432246 48.057701 55.241741 48.512918 54.755126 C 49.01757 54.214673 49.132919 53.767401 49.079364 52.529121 C 49.048467 51.829223 48.982553 51.369527 48.838367 50.84978 C 48.611789 50.027711 48.59943 49.915893 48.749795 49.915893 C 48.80953 49.915893 49.254448 50.125034 49.740561 50.379731 C 50.922889 51.000942 52.224686 51.576597 53.44203 52.017657 C 54.838577 52.524979 54.803561 52.601595 53.174255 52.599524 C 52.208207 52.599524 51.726213 52.562252 51.172125 52.448363 C 50.259632 52.257858 50.300828 52.253717 50.364682 52.504272 C 50.395579 52.620231 50.465613 53.106847 50.521227 53.585179 C 50.59538 54.214673 50.661294 54.498359 50.764284 54.610177 C 51.182425 55.076085 53.592396 56.016184 54.935388 56.23982 C 56.140374 56.440678 58.719249 56.529719 61.683308 56.47381 L 64.406369 56.422042 L 64.952217 56.809263 C 65.65873 57.306232 65.854412 57.552646 66.478532 58.726734 C 67.209763 60.09961 67.603186 60.671124 68.379732 61.474557 C 69.393156 62.526474 70.437477 63.197382 71.696017 63.607381 C 72.388111 63.835158 73.67137 63.955259 75.376888 63.955259 C 77.541742 63.955259 79.482078 64.189249 80.674705 64.595106 C 81.947664 65.029954 82.981686 65.688437 84.102219 66.781769 C 84.734579 67.396767 84.899364 67.64111 84.678965 67.634898 C 84.62541 67.632827 83.949794 67.291161 83.177367 66.87495 Z M 83.624345 66.634749 C 82.260754 65.377832 80.769456 64.680005 78.789984 64.3694 C 78.390382 64.307279 77.008253 64.22238 75.720875 64.180966 C 74.435557 64.141622 73.086385 64.07536 72.72386 64.036017 C 71.195485 63.872431 69.611495 63.056574 68.330297 61.772738 C 67.568169 61.01072 67.055278 60.279761 66.359064 58.960724 C 65.706106 57.726585 65.481587 57.438757 64.836868 57.00598 L 64.330156 56.666385 L 60.686362 56.666385 C 58.682173 56.666385 56.626488 56.629112 56.119776 56.585627 C 54.350404 56.432395 53.106282 56.09073 51.501694 55.318357 C 50.480031 54.827601 50.442955 54.775833 50.323486 53.699068 C 50.27817 53.284927 50.210197 52.808665 50.171061 52.638868 C 50.022755 51.978314 50.057771 51.963819 51.110331 52.220586 C 51.534651 52.324121 52.119636 52.388313 52.861165 52.415232 L 53.97346 52.452505 L 53.166016 52.156394 C 52.029004 51.736041 51.532591 51.516547 50.158702 50.829073 C 49.493385 50.49569 48.937238 50.222358 48.920759 50.222358 C 48.904281 50.222358 48.978434 50.559882 49.083484 50.971952 C 49.240029 51.580739 49.277105 51.918263 49.283285 52.7921 C 49.291524 53.746694 49.272986 53.908209 49.12468 54.229168 C 48.850726 54.82553 48.580891 55.115428 48.06594 55.368054 C 47.478896 55.657953 46.5973 55.757346 45.460288 55.664165 C 44.467462 55.583407 43.833042 55.446741 42.234634 54.968409 C 39.208781 54.063511 37.711303 53.916491 37.099541 54.463157 C 36.79469 54.73649 36.780272 54.976691 37.052166 55.318357 C 37.181934 55.481943 37.286984 55.67866 37.286984 55.757346 C 37.286984 55.836033 37.317881 55.900225 37.354957 55.900225 C 37.43323 55.900225 37.513562 55.635175 37.515622 55.378408 C 37.515622 55.281085 37.602134 55.117499 37.705124 55.013964 C 37.878148 54.842096 37.9523 54.82553 38.594959 54.82553 C 39.474496 54.82553 39.766988 54.902146 42.127524 55.753205 C 44.832047 56.728506 44.959755 56.759567 46.531386 56.76992 C 47.985608 56.782344 48.041223 56.76992 49.190594 56.227396 L 49.934183 55.879518 L 51.071195 56.194265 C 53.573857 56.885879 54.754125 57.001839 59.201243 56.985273 C 63.067496 56.972849 63.481517 57.010122 64.297199 57.444969 C 64.873945 57.751433 65.252949 58.169715 66.07893 59.412137 C 67.697937 61.843142 69.971961 63.818593 72.013227 64.564046 C 73.086385 64.955409 73.784659 65.038237 77.976361 65.261873 C 80.499621 65.396468 81.119623 65.551771 82.901353 66.487729 C 83.531654 66.819041 84.063083 67.090303 84.083681 67.090303 C 84.104279 67.092374 83.898299 66.887374 83.624345 66.634749 Z M 86.337107 64.773187 C 84.967337 63.963542 84.124877 63.25122 83.494577 62.364959 C 83.305075 62.10198 83.057899 61.818294 82.944609 61.737536 C 82.61916 61.507688 81.999159 61.362739 80.61703 61.195012 C 78.734369 60.967235 77.976361 60.787084 77.14008 60.375014 C 76.674564 60.143095 76.412969 59.909106 76.412969 59.722742 C 76.412969 59.550874 76.588053 59.542591 77.018552 59.695823 C 77.582938 59.894611 78.557226 60.043701 80.324538 60.203145 C 83.294776 60.470266 83.616106 60.606933 84.641888 62.037788 C 85.25159 62.888847 86.011658 63.785461 86.687274 64.452228 C 87.210464 64.967833 87.340232 65.183186 87.130132 65.183186 C 87.074517 65.183186 86.718171 64.998893 86.337107 64.773187 Z M 85.923087 63.973895 C 85.577039 63.60531 85.082686 63.013089 84.823151 62.656928 C 83.731455 61.163952 83.455441 60.919609 82.588263 60.695973 C 82.334907 60.62971 81.368859 60.507539 80.439887 60.424711 C 78.670515 60.265267 77.704467 60.124459 77.063868 59.933954 C 76.713701 59.830419 76.695163 59.830419 76.833169 59.940166 C 77.374898 60.36466 78.61696 60.739458 80.09384 60.921679 C 82.954908 61.27577 83.022882 61.302689 83.803548 62.393949 C 84.20109 62.950968 84.919962 63.594957 85.770661 64.158188 C 86.172323 64.423238 86.512191 64.640662 86.526609 64.642732 C 86.541028 64.644803 86.269134 64.342481 85.923087 63.973895 Z M 91.371269 64.756621 C 90.026217 64.288642 87.117773 62.793595 83.086736 60.501327 C 79.692178 58.571432 76.917621 57.053606 74.116287 55.597902 C 71.939074 54.465228 69.800997 53.431947 69.745382 53.487856 C 69.728904 53.506492 69.883389 53.701138 70.08937 53.924774 C 70.29741 54.146339 71.125451 55.034671 71.930835 55.900225 C 73.77642 57.879817 73.957682 58.084816 73.957682 58.190422 C 73.957682 58.581785 72.567314 57.571282 70.390101 55.595832 C 68.598071 53.97033 67.858601 53.448513 66.202519 52.643009 C 65.011952 52.063212 64.433147 51.912051 63.355869 51.905839 C 62.309488 51.897556 61.883109 51.831294 61.852212 51.667708 C 61.823374 51.52483 62.367163 51.37781 63.524773 51.216295 C 63.883179 51.164527 64.220987 51.100336 64.278661 51.069275 C 64.556735 50.922255 53.689207 47.027263 50.251393 46.041608 C 48.70242 45.598478 47.44182 45.298226 47.262617 45.327216 C 47.128729 45.349994 47.136969 45.39969 47.377966 46.004336 C 47.660159 46.712516 47.705475 47.000344 47.534511 47.000344 C 47.474776 47.000344 47.064875 46.712516 46.624077 46.360497 C 45.668328 45.596407 45.184274 45.296155 44.026664 44.741207 C 42.108986 43.823886 39.577486 43.136412 37.499143 42.968685 C 36.514557 42.887928 35.913094 43.076362 35.00678 43.751411 L 34.761663 43.935704 L 35.816283 44.987621 C 36.984192 46.153426 37.517682 46.784991 37.517682 47.006556 C 37.517682 47.248828 37.342598 47.178424 36.58665 46.633829 C 35.11801 45.57363 34.506248 45.267165 32.874882 44.77848 C 31.544249 44.380905 31.033417 44.126208 31.033417 43.854946 L 31.033417 43.664441 L 31.993286 43.625098 C 32.928437 43.587825 32.969633 43.577472 33.630831 43.260654 C 34.440334 42.871362 34.776082 42.645656 34.706049 42.533838 C 34.629836 42.409595 30.232153 42.51106 29.288763 42.660151 C 28.021983 42.858938 26.744904 43.368331 26.271149 43.861158 C 25.991016 44.153127 26.065169 44.146915 26.440053 43.844593 C 26.907629 43.469795 27.294872 43.322775 27.828362 43.320705 C 29.548298 43.314493 28.716137 44.565197 26.427695 45.42661 C 24.936396 45.98777 24.36583 46.648324 24.915798 47.172212 C 25.544038 47.772716 25.881846 47.586353 26.907629 46.080952 C 27.266035 45.554993 27.774807 45.089085 28.098196 44.991762 C 28.468961 44.879944 28.850025 44.987621 29.294942 45.329287 C 30.069429 45.925649 30.207436 46.92994 29.665707 48.025342 C 29.408232 48.547159 29.101321 48.899178 28.032282 49.893116 C 27.787165 50.120893 27.803644 50.207863 28.100256 50.263772 C 28.4772 50.334175 28.707898 50.205792 29.163115 49.677763 C 30.024113 48.681755 30.250692 48.478826 30.613217 48.389785 C 31.503053 48.170291 32.125114 47.648474 32.308436 46.969283 C 32.401127 46.621405 32.339333 45.940144 32.176609 45.552922 C 32.032422 45.205044 32.040662 45.159489 32.244582 45.159489 C 32.543254 45.159489 33.187973 45.66474 33.579336 46.205194 C 34.324985 47.238475 34.446513 47.337868 35.340468 47.646403 C 36.934757 48.199281 37.703064 48.675542 39.021339 49.936601 C 39.715493 50.599225 39.902935 50.913972 39.608383 50.913972 C 39.53423 50.911902 38.951306 50.607508 38.310706 50.236852 C 36.446583 49.151804 35.268375 48.750088 33.910964 48.741805 C 32.409367 48.729381 31.32179 49.178723 29.692485 50.479125 C 28.992151 51.036144 28.615207 51.216295 28.143512 51.218366 C 27.706833 51.220436 27.373145 50.976093 27.226899 50.545387 C 27.121849 50.240994 27.099191 49.249127 27.185703 48.899178 C 27.237198 48.69832 27.261915 48.687967 27.692414 48.687967 C 28.129093 48.687967 28.15587 48.677613 28.419525 48.367008 C 28.876802 47.832766 28.911819 47.391707 28.545173 46.793274 C 28.190887 46.215547 27.758328 46.182416 27.410221 46.708375 C 27.218659 47.000344 27.198061 47.093525 27.196002 47.741655 C 27.196002 48.13923 27.158925 48.49125 27.113609 48.534735 C 27.055935 48.592714 26.751084 48.555442 26.083707 48.406351 C 25.307161 48.234483 25.055865 48.143372 24.68716 47.896958 C 24.131013 47.526302 23.63254 46.888526 23.576925 46.478527 C 23.52131 46.066457 23.673736 45.81176 24.46882 44.964843 C 24.905499 44.501005 25.228888 44.074441 25.393673 43.745199 C 25.677926 43.173685 25.962179 42.914847 26.744904 42.519343 C 29.783116 40.987023 35.212761 40.83172 41.353038 42.103131 C 50.191659 43.931562 59.44636 47.507666 73.189375 54.409319 C 77.290446 56.467597 79.152509 57.467747 83.546072 59.967085 C 88.050865 62.528545 90.452597 63.715058 91.601967 63.946976 C 91.834725 63.994602 92.52476 64.067077 93.136522 64.110562 L 94.248816 64.189249 L 95.707158 63.447937 C 97.311745 62.63208 97.721646 62.518191 98.191282 62.760464 C 98.710353 63.029655 98.875137 63.679856 98.584705 64.319703 C 98.405502 64.717278 98.230418 64.737985 98.080052 64.377682 C 97.828756 63.775108 97.412676 63.75026 96.10676 64.257582 C 94.726691 64.791823 94.287952 64.889146 93.060309 64.924348 C 92.013928 64.955409 91.912998 64.945055 91.371269 64.756621 Z M 93.828616 64.688288 C 94.518651 64.584753 95.148951 64.394248 96.397192 63.915916 C 97.114004 63.642583 97.740185 63.628088 98.007959 63.878643 C 98.110949 63.975966 98.220119 64.125057 98.246897 64.209956 C 98.292212 64.359046 98.300452 64.356975 98.397262 64.178895 C 98.541449 63.922128 98.53115 63.410664 98.380784 63.197382 C 98.31281 63.097988 98.139787 62.969605 97.99766 62.909554 C 97.764902 62.814302 97.692809 62.818443 97.26025 62.963392 C 96.996595 63.052433 96.263305 63.400311 95.628885 63.737835 L 94.479514 64.352834 L 93.288947 64.307279 C 91.900639 64.25137 91.297116 64.139552 90.298111 63.746118 C 89.175518 63.305058 86.563686 61.959102 84.275243 60.642134 C 78.870316 57.527797 74.655956 55.301792 69.123321 52.634726 C 59.897457 48.188927 52.955916 45.39762 46.799161 43.662371 C 39.985327 41.740758 34.862594 41.073992 30.957205 41.602021 C 27.898395 42.014091 26.04869 42.817524 25.52344 43.964693 C 25.412211 44.206966 25.068224 44.654237 24.639784 45.107721 C 24.254601 45.517721 23.885896 45.95671 23.822042 46.083022 C 23.710812 46.296305 23.712872 46.33979 23.848819 46.637971 C 24.023903 47.025192 24.536794 47.553221 25.00437 47.828625 C 25.265965 47.981857 26.637795 48.371149 26.948825 48.379432 C 26.979722 48.381503 26.983842 48.130948 26.957064 47.824484 C 26.917928 47.348222 26.936466 47.207414 27.084772 46.861607 C 27.298992 46.362567 27.546168 46.157568 27.931352 46.157568 C 28.68936 46.157568 29.264045 47.34408 28.874742 48.097816 C 28.532815 48.758371 28.215605 48.971653 27.700654 48.888825 C 27.401982 48.841199 27.395803 48.84534 27.346367 49.116602 C 27.270155 49.520389 27.350487 50.307256 27.496733 50.588872 C 27.797464 51.170739 28.37627 51.160386 29.194012 50.557811 C 29.445308 50.371448 29.912884 50.025641 30.228034 49.791651 C 32.629766 48.017059 35.272495 48.110241 38.496089 50.08155 C 38.780342 50.255489 39.099612 50.448064 39.204662 50.510185 C 39.521871 50.696548 38.209776 49.460339 37.630971 49.029633 C 36.967714 48.532664 36.395088 48.242766 35.369306 47.886605 C 34.324985 47.522161 34.147842 47.404131 33.723522 46.776708 C 33.371295 46.254891 32.611227 45.465953 32.462922 45.465953 C 32.413486 45.465953 32.413486 45.554993 32.458802 45.714437 C 32.497938 45.851104 32.530895 46.207265 32.530895 46.505446 C 32.530895 47.542868 32.036542 48.16822 30.953085 48.499533 C 30.283648 48.704532 30.158 48.805997 29.513282 49.659126 C 28.955075 50.400438 28.433944 50.646852 27.902515 50.425286 C 27.451417 50.236852 27.519391 50.08362 28.452482 49.164228 C 29.338198 48.290392 29.626571 47.841049 29.760458 47.122515 C 29.892286 46.408123 29.653348 45.880094 28.971553 45.378983 C 28.306236 44.892368 27.830421 45.16363 26.78816 46.629688 C 26.192877 47.466252 25.933341 47.691959 25.562577 47.689888 C 25.257726 47.689888 24.823107 47.468323 24.610947 47.205343 C 24.538854 47.114232 24.47706 46.909233 24.47706 46.749789 C 24.47294 46.190699 25.195931 45.631609 26.565701 45.136711 C 26.849954 45.033176 27.272214 44.834389 27.504972 44.693581 C 27.997266 44.393329 28.58019 43.828027 28.510157 43.714138 C 28.483379 43.670654 28.337133 43.594038 28.182648 43.544341 C 27.772747 43.407674 27.200121 43.558836 26.695469 43.935704 C 26.211415 44.296006 25.933341 44.335349 25.933341 44.04338 C 25.933341 43.794896 26.225834 43.521563 26.7964 43.231665 C 28.211485 42.515201 29.233148 42.343333 32.48352 42.275 C 34.530965 42.231515 34.926448 42.268788 34.973823 42.504848 C 35.015019 42.722272 34.763723 42.927271 33.980997 43.320705 C 33.175614 43.726563 32.487639 43.892219 31.95209 43.811461 C 31.764648 43.784542 31.519531 43.784542 31.406242 43.813532 L 31.198202 43.8653 L 31.42272 44.01232 C 31.64106 44.157269 32.444383 44.438884 33.581395 44.770197 C 34.364121 44.997974 35.674157 45.681306 36.471301 46.275598 C 37.363196 46.940293 37.177814 46.687668 35.680336 45.198832 C 35.045916 44.565197 34.526846 43.995754 34.526846 43.933633 C 34.530965 43.772118 35.365186 43.179897 35.892496 42.964544 C 37.451768 42.322626 42.214036 43.401462 45.143078 45.058024 C 45.775438 45.416256 46.626137 46.031255 47.283215 46.60484 C 47.4377 46.739435 47.450059 46.789132 47.114311 45.942215 C 47.025739 45.720649 46.953646 45.434892 46.953646 45.31065 C 46.953646 45.111863 46.980423 45.082873 47.167866 45.082873 C 47.452119 45.082873 49.310062 45.540498 50.749866 45.964992 C 53.312262 46.718728 60.07872 49.095895 63.475338 50.433569 C 64.618529 50.884982 64.933679 51.063063 64.812151 51.185234 C 64.791553 51.203871 64.210688 51.315689 63.516534 51.431648 L 62.257993 51.640789 L 63.370287 51.690486 C 64.657665 51.746395 64.886304 51.798162 65.986239 52.29099 C 67.623784 53.024019 68.857607 53.866795 70.466314 55.357701 C 71.397345 56.217042 73.228512 57.736938 73.181136 57.608555 C 73.164658 57.56507 72.493161 56.825829 71.687778 55.966487 C 69.685648 53.833663 69.354019 53.450583 69.354019 53.272503 C 69.354019 53.14619 69.389036 53.129624 69.566179 53.173109 C 70.637278 53.442301 77.411974 56.993556 83.469859 60.464054 C 86.017838 61.92597 87.657442 62.803948 89.332063 63.611522 C 91.855323 64.827025 92.259045 64.924348 93.828616 64.688288 Z M 24.091876 46.014689 C 24.091876 45.873881 24.804569 45.144994 25.325699 44.753631 C 25.647029 44.511359 26.009554 44.474086 26.009554 44.679086 C 26.009554 44.753631 25.830351 44.968984 25.612012 45.159489 C 24.520316 46.1058 24.091876 46.348072 24.091876 46.014689 Z M 24.858124 45.505296 C 24.956994 45.39969 25.020848 45.312721 25.00025 45.312721 C 24.979652 45.312721 24.880781 45.39969 24.781911 45.505296 C 24.68304 45.610902 24.619186 45.695801 24.639784 45.695801 C 24.660382 45.695801 24.759253 45.610902 24.858124 45.505296 Z M 25.31952 45.120146 C 25.41839 45.01661 25.482244 44.929641 25.461646 44.929641 C 25.438988 44.929641 25.342178 45.01661 25.241247 45.120146 C 25.142377 45.225751 25.078523 45.312721 25.10118 45.312721 C 25.121778 45.312721 25.220649 45.225751 25.31952 45.120146 Z M 26.833476 44.501005 C 26.802579 44.469945 26.775801 44.360198 26.775801 44.260804 C 26.775801 44.124137 26.843775 44.049592 27.043576 43.966764 C 27.397862 43.817673 27.927232 43.817673 27.927232 43.966764 C 27.927232 44.231814 27.010619 44.679086 26.833476 44.501005 Z M 27.393743 44.198683 C 27.519391 44.134491 27.620321 44.068228 27.620321 44.053734 C 27.620321 43.995754 27.062114 44.153127 26.981782 44.233885 C 26.854074 44.360198 27.125968 44.33742 27.393743 44.198683 Z M 34.79256 57.291737 C 34.465052 57.142647 34.077808 56.749213 33.855349 56.339214 C 33.756479 56.156992 33.721462 55.912649 33.721462 55.399115 C 33.719402 54.773762 33.74206 54.659874 33.970698 54.200178 C 34.259071 53.610027 34.930567 52.879069 35.474356 52.562252 C 36.345653 52.05493 37.717483 51.738112 39.499214 51.636648 C 40.094497 51.601446 40.459082 51.547607 40.479681 51.493769 C 40.498219 51.444072 40.461142 51.255638 40.395229 51.073416 C 40.123334 50.301044 40.331375 48.685896 40.768053 48.178574 C 41.068785 47.828625 41.169715 47.963221 41.21915 48.777007 C 41.268586 49.603217 41.482805 50.327963 41.830912 50.845639 C 42.255232 51.477203 43.213041 52.013516 45.188394 52.723767 C 46.107066 53.055079 46.368661 53.210382 46.234774 53.344977 C 46.210057 53.369826 45.143078 53.258008 43.865999 53.094422 C 41.74852 52.82316 41.381875 52.796241 39.703134 52.79417 C 37.983198 52.7921 37.824593 52.804524 37.289043 52.972251 C 35.719472 53.465078 34.829637 54.287147 34.701929 55.357701 C 34.644255 55.850528 34.780202 56.219113 35.138608 56.542143 C 35.410502 56.788556 35.589705 56.854819 36.135553 56.914869 C 36.430105 56.94593 36.415686 57.163354 36.108775 57.308303 C 35.762728 57.473959 35.177744 57.465676 34.79256 57.291737 Z M 35.861599 57.117798 C 35.838941 57.080525 35.74213 57.051536 35.647379 57.051536 C 35.377545 57.051536 34.862594 56.670526 34.668972 56.32886 C 34.448573 55.939568 34.434154 55.345276 34.631896 54.76548 C 34.809039 54.239521 35.443459 53.547906 36.038742 53.231089 C 37.550639 52.425585 39.490974 52.334474 43.705334 52.872857 C 44.514837 52.976392 45.237829 53.05922 45.316101 53.05715 C 45.394374 53.055079 45.128659 52.934978 44.729057 52.7921 C 43.620882 52.392454 42.308787 51.715334 41.952441 51.359173 C 41.43543 50.841498 41.1141 49.978015 41.002871 48.803926 L 40.953436 48.267614 L 40.794831 48.574078 C 40.401408 49.331955 40.343733 50.168519 40.621807 51.042356 C 40.724797 51.371598 40.786591 51.663567 40.755694 51.690486 C 40.724797 51.719476 40.199547 51.781597 39.587785 51.829223 C 37.519742 51.990738 36.263261 52.295131 35.507313 52.814878 C 35.11595 53.08614 34.469171 53.759118 34.240533 54.135986 C 33.983057 54.562551 33.814153 55.243812 33.875947 55.614468 C 34.013954 56.438608 34.547444 57.053606 35.253957 57.200626 C 35.540269 57.260677 35.919273 57.208909 35.861599 57.117798 Z M 31.202321 43.304139 C 30.909829 43.198533 30.946905 42.931413 31.264115 42.844443 C 31.391823 42.809241 32.003585 42.759544 32.625646 42.730554 C 33.618472 42.68707 33.758539 42.695352 33.758539 42.798888 C 33.758539 42.95212 33.266245 43.148836 32.543254 43.287574 C 31.896475 43.411816 31.509232 43.415957 31.202321 43.304139 Z M 32.914019 42.98318 L 33.260066 42.869292 L 32.953155 42.900352 C 32.784251 42.916918 32.343453 42.95212 31.974748 42.976968 C 31.585445 43.005958 31.303252 43.059796 31.303252 43.105352 C 31.303252 43.21924 32.47528 43.1302 32.914019 42.98318 Z M 32.914019 42.98318 " transform="matrix(1.896418,0,0,1.886437,-19.883577,-25.393644)"/>
</g>
</svg>
