<?xml version="1.0" encoding="UTF-8"?>
<svg xmlns="http://www.w3.org/2000/svg" xmlns:xlink="http://www.w3.org/1999/xlink" width="px" height="0px" viewBox="0 0 190 189" version="1.1">
<g id="surface1">
<path style="fill:none;stroke-width:0.264583;stroke-linecap:butt;stroke-linejoin:miter;stroke:rgb(99.607843%,0%,0%);stroke-opacity:1;stroke-miterlimit:4;" d="M 110.618082 63.592886 C 110.618082 91.20778 88.232127 113.594149 60.616329 113.594149 C 33.00259 113.594149 10.616635 91.20778 10.616635 63.592886 C 10.616635 35.980063 33.00259 13.593694 60.616329 13.593694 C 88.232127 13.593694 110.618082 35.980063 110.618082 63.592886 Z M 110.618082 63.592886 " transform="matrix(1.896418,0,0,1.886437,-19.883577,-25.393644)"/>
<path style="fill:none;stroke-width:0.264583;stroke-linecap:butt;stroke-linejoin:miter;stroke:rgb(99.607843%,0%,0%);stroke-opacity:1;stroke-miterlimit:4;" d="M 65.895608 26.262254 C 65.895608 29.024572 63.65866 31.263002 60.896462 31.263002 C 58.134265 31.263002 55.897317 29.024572 55.897317 26.262254 C 55.897317 23.499937 58.134265 21.261507 60.896462 21.261507 C 63.65866 21.261507 65.895608 23.499937 65.895608 26.262254 Z M 65.895608 26.262254 " transform="matrix(1.896418,0,0,1.886437,-19.883577,-25.393644)"/>
<path style="fill:none;stroke-width:0.0655473;stroke-linecap:butt;stroke-linejoin:miter;stroke:rgb(0%,0%,100%);stroke-opacity:1;stroke-miterlimit:4;" d="M 86.324748 82.160879 C 86.265014 81.937243 86.277373 54.494218 86.339167 54.401036 C 86.380363 54.334773 87.134252 54.322349 89.89233 54.334773 L 93.391937 54.351339 L 93.505227 54.657803 C 93.567021 54.82553 93.663832 55.069873 93.717387 55.200327 L 93.816257 55.436387 L 94.195261 55.15063 C 95.756593 53.974471 98.370485 53.044726 99.754673 53.173109 C 101.320125 53.315988 102.665177 53.957906 103.931957 55.163055 C 105.948505 57.084667 107.248242 59.865621 107.79203 63.429301 C 107.985652 64.700712 108.00419 67.458888 107.824987 68.771714 C 107.503658 71.140598 106.854819 73.058069 105.861994 74.559329 C 104.926842 75.975689 103.950495 76.847455 102.580725 77.493515 C 101.651753 77.932504 101.105905 78.054675 99.89474 78.094018 C 98.389023 78.143715 97.466231 77.963564 96.378654 77.404474 C 95.871942 77.145637 94.827621 76.474729 94.397122 76.133063 L 94.152005 75.940487 L 94.133467 79.106592 L 94.116989 82.274768 L 90.240437 82.291333 L 86.365944 82.307899 Z M 93.952204 78.932653 C 93.952204 75.845235 93.956324 75.752053 94.077852 75.752053 C 94.147886 75.752053 94.533069 75.988114 94.934731 76.275941 C 96.506362 77.400333 97.503307 77.808261 98.932811 77.911797 C 101.227434 78.079524 103.005045 77.414828 104.605513 75.795538 C 105.676611 74.708419 106.442859 73.391452 106.994886 71.689334 C 107.481 70.188075 107.703459 68.765502 107.763193 66.806617 C 107.855884 63.617735 107.324455 60.985871 106.076213 58.480321 C 104.776477 55.869164 103.007105 54.196036 100.869028 53.55826 C 100.380854 53.413311 100.143976 53.38225 99.491018 53.378109 C 98.817462 53.371897 98.609422 53.398816 98.026498 53.55826 C 96.84005 53.885431 95.597988 54.440379 94.640179 55.074014 C 94.351806 55.264519 94.059314 55.481943 93.991341 55.558559 C 93.840975 55.726286 93.700908 55.734569 93.647353 55.581337 C 93.624695 55.517145 93.519645 55.2376 93.414595 54.958055 L 93.223034 54.450733 L 86.481294 54.450733 L 86.481294 82.111182 L 93.952204 82.111182 Z M 96.071743 71.304184 C 94.559847 70.743023 93.690609 68.947724 93.690609 66.388335 C 93.692669 62.95511 94.870877 60.932033 96.868887 60.932033 C 98.916333 60.932033 100.384974 63.143544 100.397332 66.249598 C 100.407631 68.64333 99.573411 70.417923 98.092411 71.148881 C 97.659852 71.362163 97.544503 71.391153 97.008954 71.40979 C 96.543438 71.424284 96.335398 71.401507 96.071743 71.304184 Z M 97.985301 71.001861 C 98.572346 70.722316 99.247962 70.012065 99.58165 69.31838 C 100.115139 68.210554 100.327299 66.908081 100.191352 65.5497 C 99.989491 63.497634 99.16351 61.973596 97.915268 61.358598 C 97.484769 61.145315 97.377659 61.118396 96.922442 61.118396 C 95.328154 61.118396 94.273534 62.464353 93.948085 64.918136 C 93.832736 65.773336 93.904829 67.721868 94.073733 68.355503 C 94.456856 69.792571 95.095396 70.680902 96.032607 71.074336 C 96.360116 71.213073 96.491943 71.231709 97.000715 71.211002 C 97.482709 71.192366 97.661912 71.155093 97.985301 71.001861 Z M 49.610794 78.460533 C 46.537565 78.062958 43.995767 76.47887 42.185199 73.832512 C 39.517752 69.93752 39.204662 64.137481 41.414832 59.59643 C 43.081214 56.169416 45.952581 53.88129 49.316242 53.295281 C 50.154582 53.150331 51.65618 53.148261 52.414188 53.295281 C 56.550275 54.092501 60.045763 57.790777 61.279586 62.675565 C 61.65447 64.158188 61.734803 64.851873 61.734803 66.6099 C 61.736863 67.473383 61.716265 68.233331 61.689487 68.297523 C 61.644171 68.4052 61.256928 68.411412 54.824159 68.411412 L 48.004146 68.411412 L 48.004146 68.659896 C 48.004146 69.809136 48.933118 71.200649 50.082489 71.770092 C 50.580962 72.016505 50.692191 72.045495 51.2298 72.070344 C 52.49246 72.130394 53.407013 71.691405 54.158842 70.658124 L 54.443095 70.266762 L 55.135189 70.223277 C 55.514193 70.200499 57.122901 70.181863 58.70895 70.181863 L 61.592676 70.181863 L 61.55148 70.722316 C 61.366098 73.258927 59.314533 75.791397 56.263962 77.251242 C 54.449274 78.120938 52.727278 78.5123 50.791062 78.495735 C 50.249333 78.489523 49.717904 78.475028 49.610794 78.460533 Z M 53.347279 78.056746 C 57.073465 77.189121 59.885098 75.079075 60.972675 72.333323 C 61.176596 71.819789 61.376397 70.964588 61.376397 70.600145 L 61.376397 70.378579 L 57.983899 70.38065 L 54.591401 70.384792 L 54.329806 70.751306 C 53.779838 71.517466 52.978574 72.070344 52.206147 72.213222 C 50.527407 72.525898 48.988733 71.728678 48.236904 70.157014 C 47.911455 69.469541 47.808465 69.092673 47.808465 68.579139 L 47.808465 68.216766 L 61.539121 68.183634 L 61.592676 67.527222 C 61.697726 66.208184 61.473208 64.143693 61.046828 62.536828 C 59.8645 58.070321 56.616189 54.514925 52.887943 53.601745 C 51.608804 53.289068 50.467672 53.268361 49.097902 53.533411 C 45.005071 54.322349 41.670248 57.863251 40.545594 62.611373 C 40.240743 63.895209 40.17277 64.551622 40.174829 66.150204 C 40.174829 67.189697 40.207786 67.796413 40.288119 68.322372 C 40.735096 71.179942 41.85769 73.484634 43.705334 75.331701 C 44.998892 76.62589 46.348063 77.445888 47.946472 77.913867 C 49.145278 78.263816 49.530461 78.309372 51.085614 78.280382 C 52.368872 78.257604 52.570733 78.236897 53.347279 78.056746 Z M 47.612783 62.725262 C 47.612783 62.195162 47.909395 61.404153 48.298698 60.89269 C 48.611789 60.48062 48.988733 60.182438 49.511923 59.931883 C 49.923884 59.733096 49.96714 59.726884 50.821959 59.726884 C 51.604684 59.726884 51.75299 59.74552 52.101097 59.884257 C 52.632527 60.09754 53.304023 60.764306 53.577977 61.350315 C 53.794257 61.812082 54.035254 62.588595 54.035254 62.822585 L 54.035254 62.971675 L 47.610724 62.971675 Z M 53.837512 62.735615 C 53.837512 62.553393 53.588276 61.816223 53.402894 61.445567 C 52.976514 60.59865 52.38947 60.126529 51.505814 59.917388 C 50.204017 59.612995 48.774513 60.267337 48.17923 61.441426 C 47.993847 61.805869 47.808465 62.400161 47.808465 62.621726 L 47.808465 62.774958 L 50.821959 62.774958 C 52.482161 62.774958 53.837512 62.756322 53.837512 62.735615 Z M 72.814491 78.464674 C 72.142995 78.365281 71.164588 78.137503 70.684653 77.967706 C 66.649496 76.557557 63.751351 72.747464 63.102513 68.001413 C 62.958327 66.935001 62.960386 65.052732 63.110752 63.932481 C 63.409424 61.681627 64.130355 59.720672 65.320922 57.917089 C 66.006837 56.877597 67.320992 55.53371 68.256144 54.91457 C 69.809236 53.885431 71.290236 53.35326 73.03077 53.202099 C 75.840344 52.959827 78.561345 54.009673 80.750918 56.185982 C 83.14441 58.56729 84.493582 61.698193 84.779895 65.535205 C 84.856108 66.568486 84.812852 68.084241 84.701622 68.297523 C 84.643948 68.4052 84.248465 68.411412 77.825995 68.411412 L 71.012162 68.411412 L 71.012162 68.630906 C 71.012162 68.978784 71.24698 69.802924 71.471498 70.250196 C 71.716615 70.73474 72.223327 71.295901 72.688843 71.594082 C 73.706386 72.250495 75.191505 72.258778 76.204929 71.612718 C 76.532438 71.403577 77.154499 70.767872 77.341941 70.453125 C 77.449051 70.268832 77.467589 70.264691 78.180282 70.223277 C 79.2452 70.163226 84.565675 70.171509 84.604812 70.235701 C 84.62335 70.264691 84.596572 70.492468 84.543018 70.743023 C 83.78089 74.389531 80.373973 77.464525 76.155494 78.313513 C 75.601406 78.42326 75.156489 78.462604 74.223397 78.475028 C 73.556021 78.485381 72.921601 78.48124 72.814491 78.464674 Z M 75.601406 78.214119 C 78.097889 77.837251 80.380153 76.65488 82.104209 74.840944 C 83.245341 73.639937 84.001289 72.271202 84.343216 70.788579 L 84.437967 70.378579 L 77.642673 70.378579 L 77.414034 70.691256 C 77.072107 71.157164 76.456225 71.716254 76.073102 71.9109 C 75.092635 72.407868 73.871171 72.409939 72.863926 71.915041 C 71.747512 71.366305 70.956547 70.11353 70.837079 68.697169 L 70.795883 68.214695 L 84.559496 68.214695 L 84.602752 67.674242 C 84.746938 65.823033 84.446207 63.402381 83.857103 61.66092 C 83.294776 59.996075 82.528529 58.569361 81.533643 57.333151 C 80.913642 56.56492 80.703542 56.347497 80.023807 55.775983 C 77.263669 53.446442 74.097749 52.779676 70.847378 53.839875 C 68.666045 54.552197 66.742187 56.086588 65.320922 58.248402 C 64.863646 58.946229 64.216867 60.325317 63.905837 61.269557 C 63.292015 63.139402 63.03248 65.350913 63.205503 67.239394 C 63.652481 72.113829 66.373482 76.058518 70.383922 77.650888 C 70.950368 77.876595 72.046184 78.166493 72.61675 78.241038 C 73.288246 78.328008 74.938149 78.313513 75.601406 78.214119 Z M 70.835019 62.799807 C 70.812361 62.741827 70.843258 62.474707 70.900933 62.205515 C 71.304654 60.348095 72.901003 59.277541 74.750707 59.629561 C 75.527253 59.776581 76.139015 60.199004 76.594232 60.900972 C 76.857887 61.30683 77.238951 62.375313 77.238951 62.710767 L 77.238951 62.905413 L 74.056553 62.905413 C 71.189305 62.905413 70.872095 62.895059 70.835019 62.799807 Z M 77.04121 62.613444 C 77.04121 62.205515 76.470644 60.950669 76.103999 60.555165 C 75.284196 59.670975 73.654891 59.497036 72.50346 60.172085 C 71.87316 60.54067 71.312893 61.315113 71.108973 62.099909 C 70.93183 62.7791 70.598141 62.708696 74.027716 62.708696 C 76.61483 62.708696 77.04121 62.696272 77.04121 62.613444 Z M 24.308156 78.004978 C 21.854929 77.802049 19.854858 77.147707 18.147281 75.992255 C 17.372794 75.468367 16.165749 74.257006 15.632259 73.47221 C 14.552922 71.879839 13.887605 69.995499 13.582754 67.657676 C 13.481823 66.897728 13.473584 63.418947 13.570395 63.178746 L 13.632189 63.025514 L 17.492263 63.033796 C 19.83838 63.040008 21.383233 63.066928 21.428549 63.1042 C 21.475925 63.143544 21.51918 63.522482 21.541838 64.102279 C 21.63041 66.206113 22.108285 67.717726 22.969283 68.608129 C 23.360646 69.016057 23.704633 69.225198 24.324634 69.43848 C 24.773672 69.593783 24.930217 69.612419 25.655268 69.610349 C 27.577065 69.602066 28.775872 68.875249 29.301122 67.402979 C 29.620391 66.502224 29.608033 66.852172 29.647169 57.792847 L 29.684245 49.305036 L 38.438414 49.271905 L 38.417816 58.267038 C 38.397218 66.485658 38.386919 67.324293 38.279809 67.953786 C 37.775157 70.974942 36.844126 72.962817 35.128309 74.675288 C 32.930497 76.874374 30.009694 77.924221 25.848889 78.00912 C 25.181513 78.021544 24.489419 78.021544 24.308156 78.004978 Z M 28.242382 77.655029 C 31.183783 77.211899 33.309501 76.232457 34.994421 74.542763 C 36.364191 73.169887 37.245788 71.560951 37.771038 69.473682 C 38.263331 67.512727 38.302467 66.634749 38.302467 57.285525 L 38.302467 49.468622 L 29.84697 49.468622 L 29.84697 57.467747 C 29.84697 62.770817 29.824312 65.682225 29.776937 66.102578 C 29.692485 66.858385 29.402052 67.804696 29.128098 68.214695 C 28.611087 68.991209 27.836601 69.498531 26.884971 69.686965 C 26.242312 69.815348 25.024968 69.815348 24.489419 69.689035 C 22.563501 69.235551 21.494463 67.34707 21.348217 64.145764 L 21.307021 63.255362 L 17.539638 63.207735 C 15.467475 63.182887 13.755777 63.180816 13.73312 63.201523 C 13.654847 63.28021 13.689864 66.93293 13.776376 67.657676 C 14.118303 70.562872 15.195581 72.969029 16.934056 74.706349 C 18.666351 76.439527 20.839445 77.408616 23.819982 77.781342 C 24.652143 77.884877 27.196002 77.812403 28.242382 77.655029 Z M 28.242382 77.655029 " transform="matrix(1.896418,0,0,1.886437,-19.883577,-25.393644)"/>
</g>
</svg>
