<?xml version="1.0" encoding="UTF-8"?>
<svg xmlns="http://www.w3.org/2000/svg" xmlns:xlink="http://www.w3.org/1999/xlink" width="px" height="0px" viewBox="0 0 190 189" version="1.1">
<g id="surface1">
<path style="fill:none;stroke-width:0.264583;stroke-linecap:butt;stroke-linejoin:miter;stroke:rgb(99.607843%,0%,0%);stroke-opacity:1;stroke-miterlimit:4;" d="M 110.618082 63.592886 C 110.618082 91.20778 88.232127 113.594149 60.616329 113.594149 C 33.00259 113.594149 10.616635 91.20778 10.616635 63.592886 C 10.616635 35.980063 33.00259 13.593694 60.616329 13.593694 C 88.232127 13.593694 110.618082 35.980063 110.618082 63.592886 Z M 110.618082 63.592886 " transform="matrix(1.896418,0,0,1.886437,-19.883577,-25.393644)"/>
<path style="fill:none;stroke-width:0.264583;stroke-linecap:butt;stroke-linejoin:miter;stroke:rgb(99.607843%,0%,0%);stroke-opacity:1;stroke-miterlimit:4;" d="M 65.895608 26.262254 C 65.895608 29.024572 63.65866 31.263002 60.896462 31.263002 C 58.134265 31.263002 55.897317 29.024572 55.897317 26.262254 C 55.897317 23.499937 58.134265 21.261507 60.896462 21.261507 C 63.65866 21.261507 65.895608 23.499937 65.895608 26.262254 Z M 65.895608 26.262254 " transform="matrix(1.896418,0,0,1.886437,-19.883577,-25.393644)"/>
<path style="fill:none;stroke-width:0.116048;stroke-linecap:butt;stroke-linejoin:miter;stroke:rgb(0%,0%,100%);stroke-opacity:1;stroke-miterlimit:4;" d="M 55.518313 87.316929 C 55.479177 87.275515 54.904491 87.215465 54.245354 87.182333 C 51.108272 87.022889 47.798166 86.73092 47.184344 86.561123 C 46.959825 86.499002 46.479891 86.447234 46.115306 86.447234 C 45.75278 86.447234 45.427331 86.399608 45.392314 86.341628 C 45.355238 86.285719 44.895901 86.20082 44.368591 86.155265 C 43.841281 86.109709 43.359287 86.033093 43.295433 85.985467 C 43.231579 85.937841 42.850515 85.865366 42.448854 85.823952 C 42.047192 85.784609 41.618752 85.69971 41.499284 85.635518 C 41.377755 85.571327 41.070844 85.517488 40.815429 85.517488 C 40.557953 85.517488 40.319016 85.467791 40.281939 85.407741 C 40.242803 85.34562 39.900875 85.260721 39.519812 85.217236 C 39.138748 85.175822 38.827717 85.095065 38.827717 85.039156 C 38.827717 84.983247 38.677352 84.937692 38.491969 84.937692 C 38.174759 84.937692 37.569177 84.78446 36.390969 84.407592 C 36.102596 84.31441 35.754489 84.239865 35.614422 84.239865 C 35.474356 84.241935 35.32811 84.192238 35.291033 84.132188 C 35.253957 84.072138 34.990302 83.987239 34.703989 83.943754 C 34.419736 83.90234 34.184918 83.825724 34.184918 83.776027 C 34.184918 83.72633 34.016014 83.657997 33.807974 83.622795 C 33.159135 83.510977 32.329034 83.264564 32.329034 83.179665 C 32.329034 83.13618 32.118934 83.065776 31.863518 83.022291 C 31.608103 82.978807 31.400062 82.895978 31.400062 82.837999 C 31.400062 82.780019 31.301192 82.732393 31.181723 82.732393 C 31.060195 82.732393 30.813018 82.653706 30.629696 82.558454 C 30.446373 82.463202 30.205376 82.384515 30.094146 82.384515 C 29.982917 82.384515 29.892286 82.332747 29.892286 82.268556 C 29.892286 82.204364 29.807834 82.152596 29.706903 82.152596 C 29.605973 82.152596 29.183713 81.995223 28.769692 81.804718 C 28.357731 81.612143 27.943711 81.45684 27.853079 81.45684 C 27.760388 81.45684 27.686235 81.407143 27.686235 81.349163 C 27.686235 81.291184 27.52969 81.208356 27.340188 81.166942 C 27.148626 81.123457 26.963244 81.042699 26.926167 80.982649 C 26.891151 80.924669 26.763443 80.874972 26.643974 80.874972 C 26.526565 80.874972 26.411216 80.835629 26.390618 80.785932 C 26.37002 80.736235 25.830351 80.435983 25.191812 80.119166 C 24.553272 79.802348 24.013604 79.502096 23.993006 79.45447 C 23.970348 79.406844 23.883836 79.367501 23.797324 79.367501 C 23.710812 79.367501 23.570746 79.301238 23.484234 79.222552 C 23.251476 79.01134 22.899249 78.789775 22.666492 78.711088 C 22.555262 78.673815 22.464631 78.603411 22.464631 78.553715 C 22.464631 78.504018 22.334863 78.431543 22.174198 78.390129 C 22.015593 78.350786 21.883766 78.267958 21.883766 78.203766 C 21.883766 78.141645 21.803434 78.089877 21.706623 78.089877 C 21.607752 78.089877 21.498582 78.013261 21.461506 77.915938 C 21.424429 77.820686 21.335858 77.741999 21.261705 77.741999 C 21.187552 77.741999 20.985691 77.611545 20.814727 77.452101 C 20.641704 77.292656 20.448082 77.162202 20.380109 77.162202 C 20.314195 77.162202 20.25858 77.118717 20.25858 77.064879 C 20.25858 77.00897 20.15559 76.917859 20.029942 76.85988 C 19.20808 76.485082 15.683754 72.900696 15.30681 72.055849 C 15.263554 71.960596 15.197641 71.854991 15.158504 71.82393 C 15.008139 71.699688 14.340762 70.577367 14.340762 70.451054 C 14.340762 70.376509 14.293386 70.314388 14.233652 70.314388 C 14.175978 70.314388 14.093585 70.159085 14.05033 69.96651 C 14.009133 69.776005 13.926741 69.618632 13.867007 69.618632 C 13.809332 69.618632 13.759897 69.498531 13.759897 69.351511 C 13.759897 69.204491 13.714581 69.034693 13.658967 68.974643 C 13.603352 68.914593 13.473584 68.577068 13.370594 68.227119 C 12.715576 66.007326 12.740294 63.249149 13.432388 61.379305 C 13.564216 61.029356 13.696043 60.59865 13.729 60.42264 C 13.759897 60.24663 13.82993 60.103752 13.881426 60.103752 C 13.932921 60.103752 14.009133 59.946378 14.05033 59.755874 C 14.093585 59.563298 14.175978 59.405925 14.233652 59.405925 C 14.293386 59.405925 14.340762 59.345874 14.340762 59.271329 C 14.340762 59.151228 14.99166 58.045473 15.150265 57.898453 C 15.224418 57.828049 15.477774 57.428404 15.572525 57.229616 C 15.871197 56.608405 19.401702 53.148261 20.029942 52.860433 C 20.15559 52.804524 20.25858 52.713413 20.25858 52.657504 C 20.25858 52.603666 20.314195 52.560181 20.380109 52.560181 C 20.448082 52.560181 20.641704 52.429727 20.814727 52.270283 C 20.985691 52.110839 21.187552 51.980384 21.261705 51.980384 C 21.335858 51.980384 21.424429 51.901698 21.461506 51.806445 C 21.498582 51.709122 21.607752 51.632506 21.706623 51.632506 C 21.803434 51.632506 21.883766 51.580739 21.883766 51.518618 C 21.883766 51.454426 22.015593 51.371598 22.174198 51.330184 C 22.334863 51.29084 22.464631 51.224578 22.464631 51.181093 C 22.464631 51.139679 22.660312 51.000942 22.899249 50.874629 C 23.138187 50.748316 23.403902 50.580589 23.488354 50.499832 C 23.572806 50.421145 23.710812 50.354882 23.797324 50.354882 C 23.883836 50.354882 23.970348 50.315539 23.993006 50.267913 C 24.013604 50.220287 24.553272 49.920035 25.191812 49.603217 C 25.830351 49.2864 26.37002 48.986148 26.390618 48.936451 C 26.411216 48.886754 26.526565 48.847411 26.643974 48.847411 C 26.763443 48.847411 26.891151 48.797714 26.926167 48.739734 C 26.963244 48.679684 27.148626 48.598926 27.340188 48.555442 C 27.52969 48.514028 27.686235 48.431199 27.686235 48.37322 C 27.686235 48.31524 27.760388 48.265543 27.853079 48.265543 C 27.943711 48.265543 28.357731 48.110241 28.769692 47.917665 C 29.183713 47.727161 29.605973 47.569787 29.706903 47.569787 C 29.807834 47.569787 29.892286 47.51802 29.892286 47.453828 C 29.892286 47.389636 29.982917 47.337868 30.094146 47.337868 C 30.205376 47.335798 30.446373 47.259182 30.629696 47.163929 C 30.813018 47.068677 31.060195 46.98999 31.181723 46.98999 C 31.301192 46.98999 31.400062 46.942364 31.400062 46.884384 C 31.400062 46.826405 31.608103 46.743577 31.863518 46.700092 C 32.118934 46.656607 32.329034 46.586203 32.329034 46.542718 C 32.329034 46.45782 33.159135 46.211406 33.807974 46.099588 C 34.016014 46.064386 34.184918 45.996053 34.184918 45.946356 C 34.184918 45.896659 34.419736 45.820043 34.703989 45.778629 C 34.990302 45.735144 35.253957 45.650246 35.291033 45.590195 C 35.32811 45.530145 35.474356 45.480448 35.614422 45.482519 C 35.754489 45.482519 36.102596 45.407973 36.390969 45.314792 C 37.569177 44.937924 38.174759 44.784692 38.491969 44.784692 C 38.677352 44.784692 38.827717 44.743278 38.827717 44.693581 C 38.827717 44.641813 39.179944 44.536207 39.610443 44.459591 C 40.755694 44.252521 41.379815 44.124137 41.903005 43.9854 C 42.158421 43.917067 42.560083 43.861158 42.794901 43.859088 C 43.029718 43.857017 43.252177 43.811461 43.287194 43.753482 C 43.322211 43.697573 43.793906 43.614745 44.337694 43.569189 C 44.881483 43.523634 45.355238 43.440806 45.390254 43.382826 C 45.425271 43.322775 45.75278 43.275149 46.115306 43.275149 C 46.479891 43.275149 46.959825 43.223382 47.184344 43.161261 C 47.627202 43.039089 49.299763 42.86515 51.592326 42.703635 C 52.38947 42.647726 53.592396 42.560757 54.261832 42.51106 C 55.829343 42.39303 62.655535 42.39303 64.241585 42.51106 C 64.911021 42.558686 66.113947 42.645656 66.911091 42.703635 C 68.981195 42.850655 70.750567 43.024594 71.088375 43.115705 C 71.24904 43.157119 71.77017 43.235806 72.248045 43.289644 C 73.747582 43.4553 75.127651 43.678936 75.218283 43.770047 C 75.265658 43.817673 75.492237 43.857017 75.720875 43.859088 C 75.949513 43.861158 76.344996 43.917067 76.600412 43.9854 C 77.123602 44.124137 77.747723 44.252521 78.892974 44.459591 C 79.323473 44.536207 79.6757 44.641813 79.6757 44.693581 C 79.6757 44.743278 79.826065 44.784692 80.011448 44.784692 C 80.328658 44.784692 80.93424 44.937924 82.112448 45.314792 C 82.400821 45.407973 82.748928 45.482519 82.888995 45.482519 C 83.029061 45.480448 83.173248 45.530145 83.212384 45.590195 C 83.24946 45.650246 83.513115 45.735144 83.799428 45.778629 C 84.083681 45.820043 84.318499 45.896659 84.318499 45.946356 C 84.318499 45.996053 84.487403 46.064386 84.695443 46.099588 C 85.344281 46.211406 86.174383 46.45782 86.174383 46.542718 C 86.174383 46.586203 86.384483 46.656607 86.639898 46.700092 C 86.893254 46.743577 87.103354 46.826405 87.103354 46.884384 C 87.103354 46.942364 87.202225 46.98999 87.321694 46.98999 C 87.443222 46.98999 87.690399 47.068677 87.873721 47.163929 C 88.057044 47.259182 88.298041 47.335798 88.40927 47.337868 C 88.5205 47.337868 88.611131 47.389636 88.611131 47.453828 C 88.611131 47.51802 88.695583 47.569787 88.796514 47.569787 C 88.897444 47.569787 89.319704 47.727161 89.731665 47.917665 C 90.145686 48.110241 90.559706 48.265543 90.650338 48.265543 C 90.743029 48.265543 90.817182 48.31524 90.817182 48.37322 C 90.817182 48.431199 90.973727 48.514028 91.163229 48.555442 C 91.354791 48.598926 91.540173 48.679684 91.57725 48.739734 C 91.612266 48.797714 91.739974 48.847411 91.857383 48.847411 C 91.976852 48.847411 92.092201 48.886754 92.112799 48.936451 C 92.133397 48.986148 92.673066 49.2864 93.311605 49.603217 C 93.950144 49.920035 94.541308 50.245135 94.62576 50.325893 C 94.710212 50.404579 94.854399 50.470842 94.94503 50.470842 C 95.035661 50.470842 95.111874 50.510185 95.111874 50.557811 C 95.111874 50.605438 95.321974 50.744175 95.57533 50.866346 C 95.830746 50.988518 96.038786 51.127255 96.038786 51.17281 C 96.038786 51.220436 96.168554 51.29084 96.329219 51.330184 C 96.487824 51.371598 96.619651 51.454426 96.619651 51.518618 C 96.619651 51.580739 96.691744 51.632506 96.780316 51.632506 C 96.868887 51.632506 96.971878 51.709122 97.008954 51.806445 C 97.046031 51.901698 97.142841 51.980384 97.225234 51.980384 C 97.307626 51.980384 97.515666 52.110839 97.68869 52.270283 C 97.861713 52.429727 98.055335 52.560181 98.123308 52.560181 C 98.189222 52.560181 98.242777 52.603666 98.242777 52.657504 C 98.242777 52.713413 98.347827 52.804524 98.473475 52.860433 C 99.295337 53.237301 102.819662 56.819617 103.196607 57.666534 C 103.239863 57.761787 103.305776 57.865322 103.344913 57.898453 C 103.495278 58.020625 104.162655 59.145016 104.162655 59.271329 C 104.162655 59.345874 104.21003 59.405925 104.269765 59.405925 C 104.327439 59.405925 104.409832 59.563298 104.453087 59.755874 C 104.494284 59.946378 104.576676 60.103752 104.63641 60.103752 C 104.694085 60.103752 104.74146 60.223852 104.74146 60.370872 C 104.74146 60.515822 104.788836 60.685619 104.84445 60.74774 C 104.988637 60.905114 105.285248 61.975667 105.501528 63.131119 C 105.676611 64.069148 105.69309 65.721569 105.530365 66.311719 C 105.495348 66.440103 105.429435 66.819041 105.382059 67.156566 C 105.336744 67.49409 105.194617 68.042827 105.066909 68.37621 C 104.937141 68.707522 104.805314 69.123734 104.774417 69.299743 C 104.74146 69.475753 104.673486 69.618632 104.621991 69.618632 C 104.570496 69.618632 104.494284 69.776005 104.453087 69.96651 C 104.409832 70.159085 104.327439 70.314388 104.269765 70.314388 C 104.21003 70.314388 104.162655 70.376509 104.162655 70.451054 C 104.162655 70.571155 103.511757 71.67691 103.353152 71.82393 C 103.278999 71.894334 103.025643 72.29398 102.930892 72.492767 C 102.63222 73.113978 99.101715 76.574123 98.473475 76.85988 C 98.347827 76.917859 98.242777 77.00897 98.242777 77.064879 C 98.242777 77.118717 98.189222 77.162202 98.123308 77.162202 C 98.055335 77.162202 97.861713 77.292656 97.68869 77.452101 C 97.515666 77.611545 97.315865 77.741999 97.241712 77.741999 C 97.167559 77.741999 97.078987 77.820686 97.041911 77.915938 C 97.004834 78.013261 96.893605 78.089877 96.796794 78.089877 C 96.699983 78.089877 96.619651 78.141645 96.619651 78.203766 C 96.619651 78.267958 96.487824 78.350786 96.329219 78.390129 C 96.168554 78.431543 96.038786 78.501947 96.038786 78.549573 C 96.038786 78.595129 95.830746 78.733866 95.57533 78.856037 C 95.321974 78.978209 95.111874 79.116946 95.111874 79.164572 C 95.111874 79.212198 95.035661 79.251541 94.94503 79.251541 C 94.854399 79.251541 94.710212 79.315733 94.62576 79.396491 C 94.541308 79.477248 93.950144 79.800278 93.311605 80.115024 C 92.673066 80.429771 92.133397 80.730023 92.112799 80.781791 C 92.092201 80.833558 91.976852 80.874972 91.857383 80.874972 C 91.739974 80.874972 91.612266 80.924669 91.57725 80.982649 C 91.540173 81.042699 91.354791 81.123457 91.163229 81.166942 C 90.973727 81.208356 90.817182 81.291184 90.817182 81.349163 C 90.817182 81.407143 90.743029 81.45684 90.650338 81.45684 C 90.559706 81.45684 90.145686 81.612143 89.731665 81.804718 C 89.319704 81.995223 88.897444 82.152596 88.796514 82.152596 C 88.695583 82.152596 88.611131 82.204364 88.611131 82.268556 C 88.611131 82.332747 88.491663 82.384515 88.343357 82.384515 C 88.197111 82.384515 87.974652 82.461131 87.851063 82.554313 C 87.727475 82.647494 87.507076 82.726181 87.36495 82.728252 C 87.220763 82.730322 87.103354 82.780019 87.103354 82.837999 C 87.103354 82.895978 86.895314 82.978807 86.639898 83.022291 C 86.384483 83.065776 86.174383 83.13618 86.174383 83.179665 C 86.174383 83.264564 85.344281 83.510977 84.695443 83.622795 C 84.487403 83.657997 84.318499 83.72633 84.318499 83.776027 C 84.318499 83.825724 84.083681 83.90234 83.799428 83.943754 C 83.513115 83.987239 83.24946 84.072138 83.212384 84.132188 C 83.173248 84.192238 83.029061 84.239865 82.888995 84.239865 C 82.748928 84.239865 82.400821 84.31441 82.112448 84.407592 C 80.93424 84.78446 80.328658 84.937692 80.011448 84.937692 C 79.826065 84.937692 79.6757 84.983247 79.6757 85.039156 C 79.6757 85.095065 79.364669 85.175822 78.983605 85.217236 C 78.602541 85.260721 78.260614 85.34562 78.221478 85.407741 C 78.184401 85.467791 77.945464 85.517488 77.687988 85.517488 C 77.432573 85.517488 77.125662 85.571327 77.004133 85.635518 C 76.884665 85.69971 76.456225 85.784609 76.054563 85.823952 C 75.652901 85.865366 75.271838 85.937841 75.207984 85.985467 C 75.14413 86.033093 74.660076 86.109709 74.134826 86.155265 C 73.607516 86.20082 73.148179 86.285719 73.111103 86.341628 C 73.076086 86.399608 72.750637 86.447234 72.388111 86.447234 C 72.023526 86.447234 71.543592 86.499002 71.319073 86.561123 C 70.775285 86.712284 68.536277 86.921425 64.474343 87.203041 C 62.915071 87.310717 55.604825 87.403899 55.518313 87.316929 Z M 65.384776 82.7531 C 66.810161 82.682696 68.08518 82.591585 68.217007 82.5481 C 68.348835 82.506686 68.983255 82.432141 69.627973 82.380373 C 71.483857 82.233354 73.46127 81.997293 73.525123 81.914465 C 73.55808 81.873051 73.990639 81.806789 74.489112 81.765375 C 74.987585 81.723961 75.492237 81.636991 75.611705 81.572799 C 75.733234 81.508608 76.015427 81.45684 76.239946 81.45684 C 76.464464 81.45684 76.948518 81.378153 77.315164 81.282901 C 77.683869 81.185578 78.155564 81.106891 78.365664 81.106891 C 78.575764 81.106891 78.746728 81.055124 78.746728 80.990932 C 78.746728 80.928811 78.917692 80.874972 79.125732 80.874972 C 79.333772 80.874972 79.685999 80.819063 79.908457 80.74866 C 80.130916 80.678256 80.522279 80.574721 80.777695 80.518812 C 82.058893 80.243408 82.569725 80.110883 82.645938 80.032196 C 82.693313 79.986641 82.851918 79.947298 83.000224 79.947298 C 83.14853 79.947298 83.46574 79.874823 83.706737 79.785783 C 83.947734 79.698813 84.483283 79.533157 84.897304 79.419268 C 85.313384 79.303309 85.704747 79.172855 85.768601 79.125229 C 85.832455 79.077602 86.079632 79.003057 86.320629 78.957502 C 86.559566 78.914017 86.755248 78.837401 86.755248 78.785633 C 86.755248 78.735936 86.924151 78.669674 87.132192 78.634472 C 87.651262 78.551644 88.380433 78.284523 88.380433 78.178917 C 88.380433 78.12922 88.499902 78.089877 88.648208 78.089877 C 88.794454 78.089877 89.016913 78.013261 89.140501 77.920079 C 89.264089 77.826898 89.484488 77.748211 89.626615 77.74614 C 89.770801 77.74407 89.88821 77.690231 89.88821 77.62604 C 89.88821 77.561848 89.954124 77.50801 90.032396 77.505939 C 90.112729 77.503868 90.386683 77.402404 90.642099 77.278162 C 90.897514 77.153919 91.171468 77.052455 91.251801 77.050384 C 91.332133 77.048314 91.395987 76.994475 91.395987 76.930283 C 91.395987 76.866092 91.490738 76.814324 91.606087 76.814324 C 91.721436 76.814324 91.917117 76.737708 92.042766 76.644526 C 92.166354 76.549274 92.357916 76.472658 92.471205 76.470587 C 92.582434 76.468517 92.673066 76.414678 92.673066 76.350487 C 92.673066 76.286295 92.747219 76.234527 92.83991 76.234527 C 92.930541 76.234527 93.074728 76.168265 93.15918 76.089578 C 93.243632 76.008821 93.665891 75.762407 94.096391 75.540842 C 94.52689 75.319277 94.879116 75.103923 94.879116 75.060439 C 94.879116 75.016954 95.008884 74.950691 95.167489 74.909277 C 95.328154 74.869934 95.457921 74.785035 95.457921 74.722914 C 95.457921 74.660793 95.536194 74.609025 95.633005 74.609025 C 95.727756 74.609025 95.806028 74.561399 95.806028 74.501349 C 95.806028 74.441299 95.923437 74.3564 96.067623 74.310844 C 96.21181 74.26736 96.355996 74.196956 96.386893 74.157612 C 96.41985 74.118269 96.757658 73.853219 97.140782 73.567462 C 98.034737 72.904837 100.628031 70.318529 100.733081 69.987217 C 100.776336 69.84848 100.860788 69.734591 100.920523 69.734591 C 100.980257 69.734591 101.029692 69.662116 101.029692 69.571005 C 101.029692 69.479894 101.068829 69.388784 101.116204 69.368076 C 101.245972 69.310097 101.956604 67.848181 101.956604 67.64111 C 101.956604 67.541717 102.0081 67.409192 102.071953 67.34707 C 102.247037 67.171061 102.453017 65.831316 102.453017 64.860156 C 102.453017 63.891067 102.247037 62.551323 102.071953 62.375313 C 102.0081 62.313192 101.956604 62.180667 101.956604 62.081273 C 101.956604 61.874203 101.245972 60.412286 101.116204 60.354307 C 101.068829 60.3336 101.029692 60.242489 101.029692 60.151378 C 101.029692 60.060267 100.980257 59.987792 100.920523 59.987792 C 100.860788 59.987792 100.776336 59.873904 100.733081 59.735167 C 100.628031 59.403854 98.034737 56.817546 97.140782 56.152851 C 96.757658 55.869164 96.41985 55.604114 96.386893 55.564771 C 96.355996 55.525428 96.21181 55.455024 96.067623 55.411539 C 95.923437 55.365983 95.806028 55.281085 95.806028 55.221034 C 95.806028 55.160984 95.727756 55.113358 95.633005 55.113358 C 95.536194 55.113358 95.457921 55.06159 95.457921 54.999469 C 95.457921 54.937348 95.328154 54.852449 95.167489 54.813106 C 95.008884 54.771692 94.879116 54.705429 94.879116 54.661945 C 94.879116 54.61846 94.52689 54.403107 94.096391 54.181541 C 93.665891 53.959976 93.243632 53.713563 93.15918 53.632805 C 93.074728 53.554118 92.934661 53.487856 92.848149 53.487856 C 92.763697 53.487856 92.675126 53.448513 92.654527 53.400886 C 92.600973 53.282856 91.777051 52.908059 91.566951 52.908059 C 91.47426 52.908059 91.395987 52.856292 91.395987 52.7921 C 91.395987 52.727908 91.332133 52.67407 91.251801 52.671999 C 91.171468 52.669928 90.897514 52.566393 90.642099 52.444222 C 90.386683 52.31998 90.112729 52.218515 90.032396 52.216444 C 89.954124 52.214374 89.88821 52.160535 89.88821 52.096344 C 89.88821 52.032152 89.770801 51.978314 89.626615 51.976243 C 89.484488 51.974172 89.264089 51.895485 89.140501 51.802304 C 89.016913 51.709122 88.794454 51.632506 88.648208 51.632506 C 88.499902 51.632506 88.380433 51.593163 88.380433 51.543466 C 88.380433 51.43786 87.651262 51.170739 87.132192 51.085841 C 86.924151 51.052709 86.755248 50.984376 86.755248 50.934679 C 86.755248 50.884982 86.565746 50.810437 86.335047 50.766952 C 86.104349 50.723468 85.828336 50.640639 85.725345 50.584731 C 85.500827 50.46463 83.857103 49.978015 82.635639 49.673621 C 82.380223 49.609429 81.900288 49.474834 81.56866 49.37544 C 81.237031 49.276046 80.872446 49.193218 80.757097 49.193218 C 80.641748 49.191147 80.336897 49.116602 80.081481 49.023421 C 79.826065 48.93231 79.430583 48.853623 79.201945 48.851552 C 78.973306 48.849481 78.746728 48.808067 78.699352 48.760441 C 78.61902 48.677613 77.77244 48.503674 76.309979 48.269685 C 75.959812 48.213776 75.436622 48.114382 75.150309 48.048119 C 74.863996 47.981857 74.388182 47.925948 74.095689 47.923877 C 73.803197 47.919736 73.525123 47.878322 73.477748 47.830696 C 73.385057 47.737514 71.652761 47.51802 69.679469 47.350293 C 68.999733 47.292313 68.342655 47.213626 68.217007 47.172212 C 67.749432 47.025192 62.674074 46.834688 59.250679 46.836758 C 55.825224 46.838829 50.525347 47.033475 50.311127 47.166 C 50.253453 47.201202 49.592255 47.28403 48.840427 47.346151 C 46.817699 47.51802 45.12248 47.731302 45.025669 47.830696 C 44.978293 47.878322 44.70022 47.919736 44.407728 47.923877 C 44.115235 47.925948 43.639421 47.981857 43.353108 48.048119 C 43.066795 48.112311 42.516827 48.215846 42.133704 48.273826 C 40.829847 48.476755 39.890576 48.673472 39.804065 48.760441 C 39.756689 48.808067 39.554828 48.847411 39.359147 48.847411 C 39.161406 48.847411 38.817418 48.90332 38.594959 48.973724 C 38.370441 49.044128 37.979078 49.147663 37.725722 49.201501 C 36.444524 49.478975 35.933692 49.6115 35.857479 49.690187 C 35.810104 49.735742 35.651499 49.775086 35.503193 49.775086 C 35.354887 49.775086 35.037677 49.84756 34.79668 49.93453 C 34.555683 50.02357 34.020134 50.189226 33.604053 50.303115 C 33.190033 50.419074 32.79867 50.549529 32.734816 50.595084 C 32.670962 50.638569 32.438204 50.715185 32.215745 50.762811 C 31.995346 50.810437 31.733751 50.887053 31.63694 50.934679 C 31.377405 51.058921 30.68737 51.297052 30.384579 51.367456 C 30.240393 51.400587 30.122984 51.473062 30.122984 51.528971 C 30.122984 51.58488 30.003515 51.632506 29.855209 51.632506 C 29.708963 51.632506 29.486504 51.709122 29.362916 51.802304 C 29.239328 51.895485 29.018929 51.974172 28.876802 51.976243 C 28.732616 51.978314 28.615207 52.032152 28.615207 52.096344 C 28.615207 52.160535 28.549293 52.214374 28.468961 52.216444 C 28.390688 52.218515 28.116734 52.31998 27.861318 52.444222 C 27.605903 52.566393 27.331949 52.669928 27.251616 52.671999 C 27.171284 52.67407 27.10537 52.727908 27.10537 52.7921 C 27.10537 52.856292 27.012679 52.908059 26.89733 52.908059 C 26.781981 52.908059 26.58424 52.984675 26.460651 53.077857 C 26.337063 53.173109 26.145501 53.249725 26.032212 53.251796 C 25.920983 53.253867 25.830351 53.307705 25.830351 53.371897 C 25.830351 53.436088 25.756198 53.487856 25.663507 53.487856 C 25.572876 53.487856 25.428689 53.554118 25.344237 53.632805 C 25.259785 53.713563 24.837525 53.959976 24.407026 54.181541 C 23.976527 54.403107 23.624301 54.61846 23.624301 54.661945 C 23.624301 54.705429 23.494533 54.771692 23.333868 54.813106 C 23.175263 54.852449 23.045496 54.937348 23.045496 54.999469 C 23.045496 55.06159 22.967223 55.113358 22.870412 55.113358 C 22.775661 55.113358 22.697389 55.165125 22.697389 55.227246 C 22.697389 55.289367 22.565561 55.374266 22.406956 55.41361 C 22.246291 55.452953 22.116524 55.521286 22.116524 55.564771 C 22.116524 55.608256 21.962038 55.734569 21.774596 55.844316 C 21.249346 56.154921 20.915658 56.451032 19.327549 58.018554 C 18.518045 58.817845 17.817712 59.588147 17.772396 59.728954 C 17.72708 59.871833 17.642628 59.987792 17.582894 59.987792 C 17.52316 59.987792 17.473725 60.060267 17.473725 60.151378 C 17.473725 60.242489 17.434588 60.3336 17.387213 60.354307 C 17.275983 60.404004 16.631265 61.756173 16.425284 62.36703 C 16.173988 63.116624 16.052459 63.932481 16.052459 64.860156 C 16.0504 65.829245 16.25638 67.171061 16.431463 67.34707 C 16.495317 67.409192 16.546813 67.529292 16.546813 67.614191 C 16.546813 67.794342 17.245086 69.270753 17.41605 69.452975 C 17.479904 69.523379 17.683825 69.817419 17.867147 70.109388 C 18.26263 70.736811 20.373929 72.82408 21.362635 73.565391 C 21.745759 73.851148 22.083567 74.118269 22.116524 74.157612 C 22.147421 74.196956 22.291607 74.26736 22.435793 74.310844 C 22.57998 74.3564 22.697389 74.441299 22.697389 74.501349 C 22.697389 74.561399 22.769482 74.609025 22.858053 74.609025 C 22.946625 74.609025 23.049615 74.687712 23.086692 74.782965 C 23.123768 74.878217 23.259715 74.956904 23.389483 74.956904 C 23.519251 74.956904 23.624301 74.998318 23.624301 75.048015 C 23.624301 75.097711 23.976527 75.319277 24.407026 75.540842 C 24.837525 75.762407 25.259785 76.008821 25.344237 76.089578 C 25.428689 76.168265 25.568756 76.234527 25.655268 76.234527 C 25.73972 76.234527 25.828291 76.273871 25.848889 76.321497 C 25.902444 76.439527 26.726366 76.814324 26.936466 76.814324 C 27.029157 76.814324 27.10537 76.866092 27.10537 76.930283 C 27.10537 76.994475 27.171284 77.048314 27.251616 77.050384 C 27.331949 77.052455 27.605903 77.153919 27.861318 77.278162 C 28.116734 77.402404 28.390688 77.503868 28.468961 77.505939 C 28.549293 77.50801 28.615207 77.561848 28.615207 77.62604 C 28.615207 77.690231 28.732616 77.74407 28.876802 77.74614 C 29.018929 77.748211 29.239328 77.826898 29.362916 77.920079 C 29.486504 78.013261 29.708963 78.089877 29.855209 78.089877 C 30.003515 78.089877 30.122984 78.137503 30.122984 78.193412 C 30.122984 78.249321 30.240393 78.321796 30.384579 78.354927 C 30.68737 78.425331 31.377405 78.663462 31.63694 78.787704 C 31.733751 78.83533 31.995346 78.911946 32.215745 78.959572 C 32.438204 79.007198 32.670962 79.083814 32.734816 79.127299 C 32.79867 79.172855 33.190033 79.303309 33.604053 79.419268 C 34.020134 79.533157 34.555683 79.698813 34.79668 79.785783 C 35.037677 79.874823 35.354887 79.947298 35.503193 79.947298 C 35.651499 79.947298 35.810104 79.986641 35.857479 80.032196 C 35.933692 80.110883 36.444524 80.243408 37.725722 80.518812 C 37.979078 80.574721 38.370441 80.678256 38.594959 80.74866 C 38.817418 80.819063 39.169645 80.874972 39.377685 80.874972 C 39.585725 80.874972 39.754629 80.928811 39.754629 80.990932 C 39.754629 81.055124 39.927653 81.106891 40.137753 81.106891 C 40.347853 81.106891 40.819548 81.185578 41.188253 81.282901 C 41.554898 81.378153 42.038953 81.45684 42.263471 81.45684 C 42.48799 81.45684 42.768123 81.506537 42.885532 81.570729 C 43.002941 81.63285 43.482875 81.715678 43.950451 81.75295 C 44.420086 81.792294 44.881483 81.856486 44.978293 81.895829 C 45.178095 81.976586 47.056636 82.216788 48.749795 82.378303 C 49.388335 82.438353 50.405878 82.539818 51.011461 82.601939 C 51.619103 82.66406 52.91472 82.732393 53.893127 82.751029 C 54.871534 82.769666 55.697516 82.825575 55.730473 82.877342 C 55.804626 82.999514 62.037594 82.918756 65.384776 82.7531 Z M 30.864513 75.598821 C 30.839796 75.532559 30.806839 71.11575 30.79036 65.781619 C 30.763583 56.879667 30.745045 56.065881 30.567901 55.887801 C 30.460792 55.780124 30.316605 55.693155 30.248632 55.693155 C 30.178598 55.693155 30.122984 55.641387 30.122984 55.577195 C 30.122984 55.513003 29.980857 55.461236 29.803714 55.461236 C 29.498863 55.461236 29.486504 55.438458 29.507102 54.910429 C 29.519461 54.606036 29.53182 54.320279 29.535939 54.272652 C 29.540059 54.222955 31.084912 54.185683 32.967574 54.185683 L 36.390969 54.185683 L 36.390969 58.768148 C 36.390969 63.000665 36.446583 63.855865 36.679341 63.120766 C 36.720537 62.992382 36.80293 62.888847 36.862664 62.888847 C 36.922398 62.888847 36.969774 62.81016 36.969774 62.714908 C 36.969774 62.617585 37.01303 62.540969 37.062465 62.540969 C 37.11396 62.540969 37.282864 62.331828 37.439409 62.079202 C 37.595954 61.824506 37.764858 61.617436 37.812234 61.615365 C 37.859609 61.613294 37.898746 61.532537 37.898746 61.437284 C 37.898746 61.342032 37.937882 61.263345 37.987317 61.263345 C 38.036752 61.263345 38.205656 61.054204 38.362202 60.799508 C 38.520806 60.544811 38.68971 60.33567 38.739146 60.33567 C 38.786521 60.33567 38.827717 60.261125 38.827717 60.170014 C 38.827717 60.080974 38.868913 59.989863 38.918349 59.967085 C 38.969844 59.946378 39.130509 59.733096 39.276755 59.492894 C 39.423001 59.254764 39.589845 59.058047 39.649579 59.058047 C 39.707254 59.058047 39.754629 59.002138 39.754629 58.933805 C 39.754629 58.865471 39.820543 58.737088 39.900875 58.648048 C 40.238683 58.27118 40.335494 58.134513 40.335494 58.030978 C 40.335494 57.970928 40.413767 57.892241 40.510578 57.857039 C 40.605329 57.819766 40.683601 57.722443 40.683601 57.639615 C 40.683601 57.556787 40.815429 57.349717 40.974034 57.175778 C 41.132639 57.003909 41.264466 56.809263 41.264466 56.743001 C 41.264466 56.676738 41.313901 56.620829 41.371576 56.620829 C 41.43131 56.620829 41.515762 56.509011 41.561078 56.372345 C 41.604334 56.233608 41.75058 56.012043 41.886527 55.877447 C 42.131644 55.637246 42.356162 55.320428 42.500349 55.011893 C 42.543605 54.924924 42.722808 54.701288 42.902011 54.519066 L 43.229519 54.185683 L 46.424276 54.185683 C 49.186474 54.185683 49.619033 54.208461 49.619033 54.359622 C 49.619033 54.454874 49.579897 54.533561 49.530461 54.533561 C 49.481026 54.533561 49.340959 54.715783 49.221491 54.939419 C 49.102022 55.163055 48.959895 55.345276 48.904281 55.345276 C 48.850726 55.345276 48.80747 55.401185 48.80747 55.467448 C 48.80747 55.599973 48.111256 56.538001 47.96501 56.602193 C 47.917634 56.6229 47.878498 56.707799 47.878498 56.790627 C 47.878498 56.871384 47.724013 57.115727 47.534511 57.331081 C 47.345009 57.546434 47.097832 57.894312 46.986603 58.101382 C 46.873314 58.308452 46.741486 58.47825 46.692051 58.47825 C 46.642615 58.47825 46.601419 58.556937 46.601419 58.652189 C 46.601419 58.747441 46.551984 58.826128 46.49019 58.826128 C 46.426336 58.826128 46.298628 58.97936 46.201817 59.163653 C 46.107066 59.350016 45.956701 59.571581 45.868129 59.658551 C 45.781617 59.747591 45.575637 60.031277 45.412912 60.290115 C 45.248128 60.548953 45.035968 60.840922 44.941217 60.936174 C 44.844406 61.031427 44.601349 61.379305 44.397429 61.708546 C 44.195568 62.037788 43.993707 62.30905 43.950451 62.30905 C 43.905135 62.30905 43.771248 62.491272 43.651779 62.714908 C 43.530251 62.938544 43.388124 63.120766 43.33457 63.120766 C 43.281015 63.120766 43.237759 63.178746 43.237759 63.249149 C 43.237759 63.319553 43.081214 63.57425 42.889652 63.816522 C 42.504468 64.301066 42.448854 64.640662 42.714568 64.860156 C 42.811379 64.940914 42.889652 65.054802 42.889652 65.112782 C 42.889652 65.172832 43.070915 65.408893 43.295433 65.638741 C 43.517892 65.868589 43.701215 66.096366 43.701215 66.146063 C 43.701215 66.19576 43.85776 66.392476 44.049322 66.582981 C 44.240883 66.775556 44.397429 66.988839 44.397429 67.057172 C 44.397429 67.125505 44.436565 67.181414 44.48394 67.183485 C 44.533376 67.183485 44.70022 67.378131 44.858825 67.618333 C 45.01743 67.856463 45.264606 68.167069 45.410852 68.307877 C 45.555039 68.448684 45.674507 68.595704 45.674507 68.635048 C 45.674507 68.674391 45.738361 68.779997 45.818694 68.869037 C 46.115306 69.198279 46.253312 69.37843 46.253312 69.430198 C 46.253312 69.459187 46.463412 69.707672 46.718828 69.981005 C 46.972184 70.254337 47.211122 70.573226 47.248198 70.687114 C 47.285274 70.801003 47.363547 70.896255 47.423281 70.896255 C 47.483016 70.896255 47.530391 70.952164 47.530391 71.020497 C 47.530391 71.088831 47.686936 71.302113 47.878498 71.494688 C 48.07006 71.685193 48.226605 71.88191 48.226605 71.931607 C 48.226605 71.981304 48.409928 72.209081 48.632387 72.438929 C 48.856905 72.668777 49.040228 72.911049 49.040228 72.979382 C 49.040228 73.045645 49.079364 73.101554 49.12674 73.101554 C 49.174115 73.101554 49.343019 73.298271 49.503684 73.536401 C 49.662289 73.774532 49.845611 74.027158 49.909465 74.095491 C 49.973319 74.163824 50.156642 74.389531 50.315247 74.598672 C 50.475912 74.807813 50.671593 75.048015 50.751925 75.132913 C 50.830198 75.217812 50.896112 75.344125 50.896112 75.412458 C 50.896112 75.480791 50.951726 75.5367 51.0197 75.5367 C 51.087673 75.5367 51.116511 75.578114 51.085614 75.627811 C 51.013521 75.745841 43.938092 75.723064 43.672377 75.602963 C 43.561148 75.553266 43.468457 75.453872 43.466397 75.379327 C 43.466397 75.306852 43.311912 75.072863 43.124469 74.861651 C 42.939087 74.648369 42.665133 74.319127 42.518887 74.130693 C 42.370581 73.940188 42.17284 73.685492 42.076029 73.565391 C 41.981278 73.44322 41.789716 73.198877 41.651709 73.020796 C 41.513702 72.840645 41.303602 72.579737 41.186193 72.438929 C 41.070844 72.300192 40.860744 72.039283 40.722737 71.859132 C 40.584731 71.681052 40.356092 71.403577 40.216026 71.244133 C 40.075959 71.084689 39.876158 70.823781 39.771108 70.664336 C 39.550709 70.326812 39.305592 70.009994 39.058415 69.744944 C 38.963664 69.641409 38.702069 69.322521 38.47961 69.036764 C 38.257152 68.751007 38.034693 68.498381 37.987317 68.477674 C 37.937882 68.456967 37.898746 68.386563 37.898746 68.324442 C 37.898746 68.26025 37.7422 68.051109 37.550639 67.860605 C 37.359077 67.668029 37.202532 67.475454 37.202532 67.431969 C 37.202532 67.330505 36.545454 66.601617 36.454823 66.601617 C 36.419806 66.601617 36.390969 68.653684 36.390969 71.159234 L 36.390969 75.716852 L 33.649369 75.718922 C 31.871758 75.718922 30.893351 75.677508 30.864513 75.598821 Z M 56.463763 65.907932 C 56.459644 55.782195 56.455524 55.693155 56.018845 55.693155 C 55.946752 55.693155 55.887018 55.641387 55.887018 55.577195 C 55.887018 55.513003 55.730473 55.461236 55.538911 55.461236 C 55.192864 55.461236 55.190804 55.455024 55.190804 54.823459 L 55.190804 54.185683 L 62.037594 54.185683 L 62.037594 75.720993 L 59.250679 75.718922 L 56.465823 75.716852 Z M 68.326177 75.679579 C 68.206708 75.640236 68.328237 75.248873 68.666045 74.582106 C 68.721659 74.470288 68.766975 74.321198 68.766975 74.250794 C 68.766975 74.18039 68.839068 73.956754 68.92558 73.755896 C 69.012092 73.555038 69.174816 73.155392 69.286046 72.867564 C 69.397275 72.581807 69.527043 72.267061 69.576478 72.167667 C 69.625914 72.070344 69.704186 71.82393 69.747442 71.618931 C 69.792758 71.413931 69.87721 71.217214 69.936944 71.179942 C 69.996678 71.14474 70.044054 71.026709 70.044054 70.916962 C 70.046114 70.809286 70.124386 70.571155 70.219137 70.388933 C 70.313888 70.206711 70.392161 69.958227 70.392161 69.838126 C 70.392161 69.718025 70.439536 69.618632 70.497211 69.618632 C 70.556945 69.618632 70.639337 69.409491 70.682593 69.154794 C 70.725849 68.900098 70.808241 68.690957 70.865916 68.690957 C 70.92565 68.690957 70.973026 68.570856 70.973026 68.421765 C 70.973026 68.274745 71.049239 68.05318 71.14193 67.928938 C 71.236681 67.804696 71.314953 67.618333 71.317013 67.514797 C 71.319073 67.409192 71.399405 67.175202 71.494156 66.99298 C 71.588907 66.808688 71.66718 66.568486 71.66718 66.456668 C 71.66924 66.34485 71.714555 66.253739 71.77017 66.253739 C 71.825785 66.253739 71.904057 66.044598 71.945253 65.789902 C 71.98645 65.535205 72.070902 65.326064 72.134755 65.326064 C 72.19655 65.326064 72.248045 65.226671 72.248045 65.10657 C 72.248045 64.986469 72.326317 64.737985 72.423128 64.555763 C 72.517879 64.37147 72.596152 64.13541 72.596152 64.025663 C 72.596152 63.917986 72.649707 63.797886 72.713561 63.758542 C 72.777414 63.719199 72.82891 63.599098 72.830969 63.491422 C 72.830969 63.383745 72.909242 63.145614 73.003993 62.961322 C 73.098744 62.7791 73.177017 62.530616 73.177017 62.410515 C 73.177017 62.290414 73.228512 62.19102 73.292366 62.19102 C 73.35416 62.19102 73.440671 61.98395 73.481868 61.727183 C 73.521004 61.472486 73.601336 61.263345 73.656951 61.263345 C 73.712566 61.263345 73.759941 61.145315 73.762001 61.002437 C 73.764061 60.859558 73.842333 60.640064 73.935025 60.515822 C 74.029776 60.391579 74.105988 60.170014 74.105988 60.022994 C 74.105988 59.875974 74.153364 59.755874 74.211038 59.755874 C 74.270773 59.755874 74.353165 59.546733 74.396421 59.289965 C 74.439677 59.035269 74.522069 58.826128 74.579743 58.826128 C 74.637418 58.826128 74.686853 58.708098 74.688913 58.565219 C 74.690973 58.422341 74.769245 58.202846 74.863996 58.078604 C 74.956688 57.954362 75.03496 57.765928 75.03496 57.658252 C 75.03496 57.548504 75.111173 57.310374 75.207984 57.128152 C 75.387187 56.784415 75.424263 56.384769 75.317153 55.983053 C 75.255359 55.753205 74.787784 55.461236 74.482933 55.461236 C 74.365524 55.461236 74.334627 55.303862 74.361404 54.852449 L 74.396421 54.243663 L 78.472774 54.212602 L 82.547067 54.181541 L 82.689194 54.56048 C 82.765406 54.769621 82.876636 55.03053 82.93431 55.140277 C 82.994045 55.252095 83.04142 55.399115 83.04142 55.471589 C 83.04142 55.541993 83.111453 55.765629 83.195905 55.966487 C 83.391587 56.428254 83.624345 57.074313 83.700557 57.376636 C 83.733514 57.502949 83.834445 57.77214 83.923016 57.972998 C 84.013648 58.175927 84.085741 58.422341 84.085741 58.525876 C 84.085741 58.627341 84.137236 58.710169 84.20109 58.710169 C 84.264944 58.710169 84.320559 58.855118 84.322618 59.029057 C 84.322618 59.205067 84.402951 59.44941 84.495642 59.573652 C 84.590393 59.697894 84.666606 59.919459 84.666606 60.066479 C 84.666606 60.21557 84.711921 60.33567 84.767536 60.33567 C 84.823151 60.33567 84.901423 60.544811 84.94262 60.799508 C 84.983816 61.054204 85.068268 61.263345 85.132122 61.263345 C 85.193916 61.263345 85.245411 61.354456 85.245411 61.466274 C 85.245411 61.698193 85.614116 62.799807 85.721226 62.888847 C 85.760362 62.919908 85.828336 63.141473 85.873651 63.381674 C 85.916907 63.621876 86.003419 63.816522 86.063153 63.816522 C 86.124947 63.816522 86.174383 63.909704 86.174383 64.023592 C 86.174383 64.257582 86.559566 65.40061 86.679035 65.51864 C 86.720231 65.562125 86.755248 65.678084 86.755248 65.779548 C 86.755248 65.881013 86.83352 66.112932 86.930331 66.295153 C 87.025082 66.479446 87.103354 66.694799 87.103354 66.775556 C 87.103354 66.856314 87.181627 67.073738 87.276378 67.25596 C 87.371129 67.438181 87.449402 67.705302 87.451461 67.850251 C 87.451461 67.99313 87.498837 68.11116 87.556511 68.11116 C 87.616246 68.11116 87.698638 68.320301 87.741894 68.574997 C 87.78515 68.829694 87.867542 69.038835 87.925216 69.038835 C 87.982891 69.038835 88.032326 69.14237 88.032326 69.266612 C 88.032326 69.469541 88.230068 70.014136 88.501962 70.562872 C 88.553457 70.666407 88.631729 70.93974 88.674985 71.171659 C 88.718241 71.403577 88.800633 71.592011 88.856248 71.592011 C 88.913923 71.592011 88.959238 71.695547 88.959238 71.819789 C 88.959238 72.026859 89.165219 72.59009 89.439173 73.128473 C 89.494787 73.23822 89.540103 73.387311 89.540103 73.457715 C 89.540103 73.530189 89.610136 73.751755 89.694588 73.952613 C 89.956184 74.567611 90.143626 75.116348 90.2013 75.424882 L 90.254855 75.718922 L 87.432923 75.714781 C 84.839629 75.71271 84.608931 75.696145 84.571855 75.507711 C 84.551257 75.395893 84.489463 75.304782 84.437967 75.304782 C 84.386472 75.304782 84.316439 75.134984 84.283482 74.927914 C 84.19903 74.410238 83.931256 73.681351 83.826206 73.681351 C 83.77677 73.681351 83.737634 73.571603 83.737634 73.437008 C 83.737634 73.302412 83.667601 73.029079 83.583149 72.828221 C 83.387467 72.366454 83.154709 71.718324 83.078497 71.418072 C 83.04554 71.289689 82.944609 71.020497 82.856038 70.819639 C 82.767466 70.618781 82.693313 70.374438 82.693313 70.275044 C 82.693313 70.177721 82.641818 70.063833 82.577964 70.024489 C 82.51411 69.985146 82.460555 69.836055 82.460555 69.693177 C 82.460555 69.548228 82.384342 69.330804 82.291651 69.206562 C 82.1969 69.082319 82.118628 68.866966 82.116568 68.726159 C 82.114508 68.587421 82.060953 68.440402 81.997099 68.401058 C 81.933245 68.361715 81.88175 68.247826 81.88175 68.150503 C 81.88175 68.051109 81.809657 67.806766 81.725205 67.605908 C 81.638693 67.40505 81.475969 66.953637 81.364739 66.601617 C 81.25351 66.251669 81.088725 65.798185 80.998094 65.597326 C 80.909522 65.396468 80.837429 65.152125 80.837429 65.052732 C 80.837429 64.955409 80.783874 64.843591 80.72002 64.802177 C 80.656167 64.762833 80.604671 64.63652 80.604671 64.51849 C 80.604671 64.402531 80.526399 64.158188 80.431648 63.975966 C 80.334837 63.791674 80.256564 63.553543 80.256564 63.445866 C 80.256564 63.33819 80.209189 63.22016 80.149455 63.184958 C 80.09178 63.147685 80.009388 62.911625 79.966132 62.654858 C 79.922876 62.400161 79.840484 62.193091 79.782809 62.193091 C 79.723075 62.193091 79.6757 62.083344 79.6757 61.952889 C 79.6757 61.820364 79.620085 61.607082 79.550052 61.476628 C 79.426463 61.244709 79.420284 61.24678 79.269918 61.534607 C 79.185466 61.696122 79.082476 61.988091 79.03922 62.182737 C 78.998024 62.377383 78.913572 62.567888 78.853838 62.60309 C 78.796163 62.640363 78.746728 62.793595 78.746728 62.946827 C 78.746728 63.097988 78.699352 63.253291 78.639618 63.288493 C 78.581943 63.325765 78.497491 63.522482 78.452176 63.727482 C 78.40686 63.932481 78.330647 64.178895 78.283272 64.276218 C 78.017557 64.818742 77.819816 65.357125 77.819816 65.537276 C 77.819816 65.651165 77.77656 65.791973 77.723005 65.854094 C 77.66945 65.914144 77.45523 66.43389 77.24719 67.007475 C 77.03915 67.583131 76.796093 68.216766 76.705462 68.417624 C 76.61689 68.618482 76.542737 68.842118 76.542737 68.912522 C 76.542737 68.984996 76.497421 69.132016 76.441807 69.243834 C 76.171972 69.776005 75.961872 70.345448 75.961872 70.544236 C 75.961872 70.666407 75.914497 70.794791 75.854762 70.832063 C 75.797088 70.869336 75.710576 71.066053 75.66732 71.271052 C 75.622004 71.473981 75.545792 71.722466 75.498416 71.819789 C 75.222402 72.380949 75.03496 72.904837 75.03496 73.103624 C 75.03496 73.229937 74.983465 73.333473 74.919611 73.333473 C 74.855757 73.333473 74.771305 73.540543 74.730109 73.79731 C 74.688913 74.052006 74.61682 74.261147 74.569444 74.261147 C 74.520009 74.261147 74.454095 74.379177 74.421138 74.522056 C 74.359344 74.791247 74.08539 75.549125 74.011237 75.65266 C 73.963862 75.718922 68.519799 75.745841 68.326177 75.679579 Z M 68.326177 75.679579 " transform="matrix(1.896418,0,0,1.886437,-19.883577,-25.393644)"/>
</g>
</svg>
