<?xml version="1.0" encoding="UTF-8"?>
<svg xmlns="http://www.w3.org/2000/svg" xmlns:xlink="http://www.w3.org/1999/xlink" width="px" height="0px" viewBox="0 0 190 189" version="1.1">
<g id="surface1">
<path style="fill:none;stroke-width:0.264583;stroke-linecap:butt;stroke-linejoin:miter;stroke:rgb(99.607843%,0%,0%);stroke-opacity:1;stroke-miterlimit:4;" d="M 110.618082 63.592886 C 110.618082 91.20778 88.232127 113.594149 60.616329 113.594149 C 33.00259 113.594149 10.616635 91.20778 10.616635 63.592886 C 10.616635 35.980063 33.00259 13.593694 60.616329 13.593694 C 88.232127 13.593694 110.618082 35.980063 110.618082 63.592886 Z M 110.618082 63.592886 " transform="matrix(1.896418,0,0,1.886437,-19.883577,-25.393644)"/>
<path style="fill:none;stroke-width:0.264583;stroke-linecap:butt;stroke-linejoin:miter;stroke:rgb(99.607843%,0%,0%);stroke-opacity:1;stroke-miterlimit:4;" d="M 65.895608 26.262254 C 65.895608 29.024572 63.65866 31.263002 60.896462 31.263002 C 58.134265 31.263002 55.897317 29.024572 55.897317 26.262254 C 55.897317 23.499937 58.134265 21.261507 60.896462 21.261507 C 63.65866 21.261507 65.895608 23.499937 65.895608 26.262254 Z M 65.895608 26.262254 " transform="matrix(1.896418,0,0,1.886437,-19.883577,-25.393644)"/>
<path style="fill:none;stroke-width:0.15355;stroke-linecap:butt;stroke-linejoin:miter;stroke:rgb(0%,0%,100%);stroke-opacity:1;stroke-miterlimit:4;" d="M 59.543171 112.550515 C 59.217722 112.289606 58.086889 111.575214 57.030209 110.964356 C 55.975589 110.351428 54.17944 109.309865 53.038308 108.64931 C 51.899236 107.988756 50.344084 106.930627 49.584016 106.299063 C 47.814644 104.828864 43.509653 100.501095 42.525066 99.202764 C 42.106926 98.654028 41.725862 98.169483 41.674367 98.128069 C 41.624932 98.084584 41.379815 97.773979 41.132639 97.436454 C 40.885462 97.09893 39.950311 95.924841 39.054296 94.827369 C 36.734956 91.982223 35.752429 90.431266 32.922258 85.153045 C 32.559732 84.477995 32.145712 83.751179 32.003585 83.539967 C 31.299132 82.502545 28.804709 76.685941 28.180588 74.633874 C 28.092017 74.339834 27.914873 73.751755 27.787165 73.329331 C 27.659458 72.906908 27.457597 71.975091 27.336068 71.256558 C 27.029157 69.419844 26.320585 66.005255 26.209355 65.825104 C 26.15786 65.742276 26.065169 65.427529 26.003375 65.127277 C 25.941581 64.824954 25.815933 64.209956 25.723241 63.760613 C 25.476065 62.553393 25.521381 41.736617 25.772677 40.738538 C 25.84271 40.463135 25.984837 40.239499 26.089887 40.239499 C 26.196996 40.239499 26.68929 40.057277 27.183643 39.833641 C 28.26298 39.347026 29.717202 38.804502 31.080793 38.377937 C 31.628701 38.206069 32.182788 38.025917 32.308436 37.978291 C 34.071629 37.319808 34.767843 37.081677 36.071699 36.694455 C 36.916219 36.4439 38.228314 36.075315 38.988382 35.876528 C 39.74845 35.67774 40.829847 35.340216 41.390114 35.126933 C 44.628127 33.892794 52.239104 32.459868 57.030209 32.182394 C 58.002437 32.126485 59.190944 32.049869 59.670879 32.012596 C 61.563839 31.861435 68.217007 32.381181 72.692962 33.031382 C 76.981475 33.652593 78.530448 33.983905 81.67577 34.948853 C 82.858097 35.313297 84.448267 35.79577 85.208334 36.025618 C 86.703752 36.474961 88.922162 37.23698 89.659572 37.555868 C 91.505157 38.355159 92.899644 39.061269 93.68649 39.59551 C 94.444498 40.111115 94.687554 40.39066 95.072738 41.189951 C 95.484699 42.047222 95.530015 42.275 95.464101 43.157119 C 95.422905 43.705855 95.509416 45.157418 95.653603 46.381204 C 95.797789 47.604989 95.972872 49.091754 96.042906 49.681904 C 96.302441 51.928617 96.110879 55.784265 95.571211 59.12638 C 95.482639 59.675116 95.272539 60.987942 95.101575 62.044 C 94.127288 68.084241 91.216784 77.431394 89.36708 80.469115 C 89.074587 80.947447 87.793389 83.301836 86.773786 85.229661 C 84.856108 88.853391 81.471849 93.779593 79.121612 96.367972 C 78.666395 96.871152 78.029916 97.610393 77.710646 98.007968 C 77.393436 98.407614 77.047389 98.821754 76.946459 98.929431 C 76.843468 99.037108 76.019547 99.954429 75.115293 100.969073 C 73.216153 103.093615 71.104853 105.191237 70.861796 105.191237 C 70.771165 105.191237 70.697012 105.25957 70.697012 105.342398 C 70.697012 105.667498 67.185045 108.469159 64.655605 110.162994 C 63.189025 111.144507 61.916066 111.94794 61.825434 111.94794 C 61.734803 111.94794 61.524703 112.117738 61.359918 112.326879 C 61.120981 112.631272 60.459784 113.022635 60.18583 113.022635 C 60.156993 113.022635 59.86862 112.809353 59.543171 112.550515 Z M 63.141649 109.7385 C 66.19016 107.800322 67.669099 106.61588 70.478673 103.857704 C 72.585853 101.789072 73.263528 101.066396 74.993764 99.039178 C 75.45722 98.494583 76.027786 97.844383 76.260544 97.589686 C 76.493302 97.33706 76.684864 97.049233 76.684864 96.949839 C 76.684864 96.852516 76.736359 96.748981 76.800213 96.719991 C 76.977356 96.641304 79.129851 93.992875 79.910517 92.895403 C 80.697363 91.787577 82.534708 89.337935 82.664476 89.221976 C 82.790124 89.110158 83.109394 88.588341 83.321553 88.147281 C 83.422484 87.936069 83.686139 87.486727 83.906538 87.149202 C 84.283482 86.571476 84.751058 85.732841 86.131127 83.156887 C 86.895314 81.728102 87.509136 80.611993 88.213589 79.361289 C 89.1508 77.696444 90.032396 75.56362 91.113794 72.331252 C 91.919177 69.927166 92.217849 68.873178 92.638049 66.945354 C 92.703963 66.643031 92.798714 66.330355 92.848149 66.249598 C 93.000575 66.001114 93.754463 62.356676 93.970743 60.816074 C 94.081972 60.012641 94.320909 58.38921 94.500112 57.206838 C 94.934731 54.336844 94.973867 50.282408 94.594863 47.60913 C 94.444498 46.553072 94.298251 44.792975 94.271474 43.693431 L 94.219979 41.699344 L 93.614396 41.160962 C 92.359975 40.048994 88.72854 38.489755 84.670725 37.319808 C 84.036306 37.137586 82.930191 36.79592 82.213379 36.561931 C 79.482078 35.671528 78.211179 35.379559 73.498346 34.55749 C 70.536347 34.039814 65.697867 33.627744 61.963441 33.573906 C 58.148683 33.517997 55.909676 33.631886 53.114521 34.025319 C 52.185549 34.155774 51.252458 34.286228 51.042358 34.315218 C 50.543885 34.385622 48.189529 34.828752 46.819759 35.112438 C 45.579756 35.369206 44.91032 35.551427 42.366461 36.327941 C 39.902935 37.081677 39.132568 37.309454 38.220075 37.551726 C 37.797815 37.663544 35.919273 38.278543 34.042792 38.920461 C 32.16631 39.560308 30.491689 40.086267 30.318665 40.086267 C 30.147701 40.086267 30.005575 40.1546 30.005575 40.239499 C 30.005575 40.324398 29.910824 40.392731 29.793415 40.392731 C 29.612152 40.392731 27.993146 41.06778 27.241317 41.455001 C 26.779921 41.693132 26.703708 43.413886 26.722247 53.191745 C 26.734605 60.486832 26.7861 63.114554 26.934406 63.741977 C 27.041516 64.201673 27.296932 65.268085 27.500853 66.112932 C 27.991086 68.14222 28.108495 68.686815 28.318595 69.875399 C 29.280524 75.315135 30.491689 78.406695 34.636015 85.997891 C 36.559873 89.522228 38.477551 92.377727 40.945196 95.384388 C 41.474566 96.028376 42.113105 96.846304 42.366461 97.200394 C 43.390184 98.637462 44.930918 100.335438 47.555109 102.921746 C 50.210197 105.537044 51.528472 106.605527 53.345219 107.611888 C 53.810735 107.868655 54.638776 108.338705 55.188744 108.655523 C 56.132135 109.198047 58.307288 110.409408 59.485496 111.045114 C 59.780048 111.202487 60.159052 111.332941 60.330016 111.330871 C 60.50098 111.330871 61.7657 110.614407 63.141649 109.7385 Z M 44.900021 91.986364 C 44.731117 91.816567 44.59311 91.553587 44.59311 91.400355 C 44.59311 91.050406 45.482946 89.563642 46.1771 88.751926 C 46.687931 88.157635 46.933048 87.619252 47.367667 86.151123 C 47.480956 85.770114 47.767269 85.082641 48.002086 84.618803 C 48.238964 84.157037 48.432586 83.720118 48.432586 83.645573 C 48.432586 83.573098 48.570592 83.337038 48.739496 83.121685 C 48.9084 82.906332 49.046407 82.585373 49.046407 82.407293 C 49.044347 82.013859 49.509863 80.291034 50.138104 78.356998 C 50.39146 77.576343 50.554184 76.864021 50.498569 76.774981 C 50.331725 76.503719 50.908471 73.393523 51.353388 72.17595 C 51.977509 70.46762 53.262827 68.218836 54.228875 67.142071 C 54.688212 66.630607 54.727348 66.504294 54.727348 65.537276 C 54.727348 64.423238 55.030139 63.626017 55.981769 62.238646 C 56.224826 61.882486 56.626488 61.157739 56.871604 60.62764 C 57.118781 60.09754 57.44423 59.521884 57.596656 59.350016 C 57.749081 59.176077 58.820179 58.416129 59.97367 57.660322 C 61.712145 56.521436 62.119986 56.18184 62.350684 55.682801 C 62.657595 55.020176 63.108692 54.539773 63.969691 53.953764 C 64.406369 53.657654 64.643247 53.593462 65.007832 53.674219 C 65.458929 53.771542 66.243715 54.581187 66.243715 54.945631 C 66.243715 55.264519 67.038799 55.732498 67.751492 55.836033 C 68.146974 55.891942 68.703121 56.034821 68.987374 56.15078 C 69.273687 56.266739 69.912226 56.361992 70.408639 56.361992 C 71.224322 56.361992 71.366448 56.413759 71.908177 56.902445 L 72.50758 57.444969 L 73.03489 56.71194 C 73.780539 55.674518 73.974161 55.105075 73.856752 54.314066 C 73.741403 53.547906 73.292366 53.048867 72.241865 52.522908 C 71.4509 52.125333 69.508505 51.96796 64.861586 51.926546 C 61.718324 51.897556 59.794467 51.692557 59.120911 51.313618 C 58.59978 51.021649 58.119846 50.062913 58.222836 49.524531 C 58.350544 48.855694 59.429882 47.973574 60.470083 47.683676 C 60.985034 47.540797 61.512344 47.331656 61.640052 47.219838 C 61.76776 47.10595 62.1859 46.92994 62.571083 46.826405 C 63.178726 46.66489 63.456799 46.683526 64.643247 46.963071 C 65.397135 47.141152 66.429097 47.281959 66.935809 47.277818 C 67.992489 47.267464 69.061527 47.580141 69.123321 47.917665 C 69.152159 48.077109 68.894683 48.230341 68.280861 48.418775 C 67.794747 48.567866 67.281856 48.687967 67.143849 48.687967 C 67.005842 48.685896 66.855477 48.832916 66.808101 49.013067 C 66.738068 49.280188 66.641257 49.323672 66.284911 49.253269 C 66.043914 49.205642 65.055208 49.118673 64.087099 49.060693 C 62.772944 48.979936 62.18796 48.876401 61.775999 48.650694 C 61.267227 48.371149 61.184835 48.364937 60.776994 48.578219 C 60.148753 48.90539 59.586427 49.547308 59.691477 49.820641 C 59.738852 49.946954 59.97161 50.145741 60.208488 50.263772 C 60.805831 50.559882 64.911021 50.853922 69.055348 50.899477 C 72.482862 50.93675 72.50552 50.938821 73.201734 51.346749 C 74.493232 52.102556 75.026721 53.266291 75.018482 55.293509 C 75.016422 56.016184 74.940209 56.796839 74.851638 57.030829 C 74.761006 57.264818 74.688913 57.548504 74.688913 57.660322 C 74.688913 57.962645 75.914497 59.712389 76.899083 60.816074 C 77.269848 61.230214 77.465529 62.143394 77.498486 63.601169 C 77.527324 64.922277 77.494367 65.096216 77.107123 65.756771 C 76.874366 66.150204 76.684864 66.614042 76.684864 66.783839 C 76.684864 66.953637 76.538617 67.340858 76.361474 67.64111 C 76.145195 68.007625 76.08546 68.254038 76.182271 68.380351 C 76.262604 68.483886 76.41091 68.958077 76.51184 69.430198 C 76.660146 70.117671 76.658086 70.38065 76.501541 70.724387 C 76.336757 71.084689 76.340876 71.167517 76.524199 71.229638 C 76.93204 71.364234 77.453171 72.008223 77.453171 72.372666 C 77.453171 72.573525 77.56028 73.097412 77.692108 73.538472 C 77.961942 74.449581 78.4048 74.807813 79.613905 75.097711 C 80.792114 75.381398 80.771516 76.186901 79.57065 76.799829 C 79.076296 77.052455 78.798223 77.100081 78.310049 77.015182 C 77.966062 76.953061 77.1442 76.85988 76.487122 76.806041 L 75.288316 76.706648 L 74.8228 77.532858 C 74.29755 78.462604 74.394361 78.827047 75.049379 78.398412 C 75.469579 78.123008 75.801207 78.195483 75.67144 78.535078 C 75.576689 78.781492 76.033965 79.282602 76.237886 79.156289 C 76.447986 79.025835 76.876425 78.15614 76.983535 77.640535 C 77.088585 77.135283 77.368719 76.959273 77.504666 77.311293 C 77.597357 77.555636 77.105064 79.150077 76.835229 79.475177 C 76.742538 79.589066 76.71782 80.003207 76.777555 80.504317 C 76.837289 81.021992 76.808452 81.465123 76.701342 81.665981 C 76.569514 81.912395 76.585993 82.324464 76.771375 83.395018 C 76.909382 84.190168 76.971176 85.057792 76.913502 85.395317 C 76.857887 85.726629 76.890844 86.227739 76.989715 86.527991 C 77.129781 86.950415 77.123602 87.153344 76.960877 87.490868 C 76.777555 87.869807 76.670445 87.917433 75.990709 87.925716 C 74.831039 87.942281 74.629179 87.79112 74.769245 87.018748 C 74.833099 86.668799 74.878415 86.078649 74.870176 85.710064 C 74.861937 85.339408 74.958747 84.836227 75.086455 84.589813 C 75.296555 84.181885 75.290376 84.045219 75.010242 83.057493 C 74.841339 82.461131 74.606521 81.825425 74.489112 81.643203 C 74.371703 81.463052 74.186321 81.038558 74.079211 80.698963 C 73.970041 80.361438 73.77642 79.963863 73.648712 79.816843 C 73.370638 79.497955 72.999873 79.462753 72.999873 79.754722 C 72.999873 79.868611 72.412829 80.527094 71.693957 81.218709 C 70.977145 81.912395 70.390101 82.583302 70.390101 82.709615 C 70.390101 82.837999 70.252094 83.227291 70.08319 83.57724 C 69.914286 83.927189 69.776279 84.434511 69.776279 84.707844 C 69.776279 85.324913 69.100663 85.941982 68.274682 86.08279 C 67.959532 86.134558 67.461059 86.242234 67.164447 86.31678 C 66.869895 86.393396 66.099528 86.457587 65.45481 86.457587 C 64.095339 86.457587 63.673079 86.227739 63.502115 85.391175 C 63.411484 84.945974 63.298194 84.836227 62.742047 84.649864 C 62.049953 84.420016 61.637992 84.558753 61.637992 85.018449 C 61.637992 85.312489 61.013871 87.118142 60.851147 87.294151 C 60.776994 87.374909 60.7152 87.693797 60.7152 88.002332 C 60.7152 89.025259 60.459784 89.480814 59.825364 89.58642 C 58.896392 89.739652 58.348484 89.696167 57.985959 89.443541 C 57.588416 89.166067 57.555459 88.805765 57.86855 88.196978 C 57.992138 87.958847 58.136324 87.557131 58.187819 87.302434 C 58.245494 87.02496 58.640976 86.492789 59.193004 85.948195 C 59.948952 85.202742 60.101378 84.966681 60.101378 84.529763 C 60.101378 84.082491 60.039584 83.993451 59.679118 83.918906 C 59.44636 83.869209 58.980844 83.761532 58.643036 83.676633 C 58.305228 83.591735 57.928284 83.508907 57.806756 83.494412 C 57.672868 83.475775 57.407154 83.829865 57.139379 84.382743 C 56.894262 84.887995 56.467883 85.55269 56.191869 85.859154 C 55.835523 86.252588 55.54509 86.869657 55.196983 87.965059 C 54.438975 90.35465 54.064091 90.656973 52.784952 89.907378 C 51.96721 89.429046 51.800366 88.94036 52.255583 88.362634 C 52.432726 88.136928 52.578972 87.840817 52.578972 87.704151 C 52.578972 87.337636 53.141299 86.480365 53.672728 86.033093 C 54.214457 85.577539 54.338045 85.295923 54.649075 83.809158 C 54.852996 82.823504 54.852996 82.688908 54.634657 82.448707 C 54.265952 82.040778 54.080569 80.997144 54.259772 80.346943 C 54.502829 79.468965 54.197978 79.402703 53.680967 80.22063 C 53.431731 80.611993 53.141299 81.140022 53.038308 81.392648 C 52.933258 81.645274 52.789072 81.852344 52.719039 81.852344 C 52.649005 81.852344 52.546015 82.111182 52.4904 82.428 C 52.321496 83.380523 51.75505 84.328905 50.718968 85.399458 C 50.1793 85.958548 49.666408 86.441022 49.577837 86.474153 C 49.301823 86.579759 48.784812 87.426676 48.521157 88.209402 C 48.27604 88.930007 48.245143 89.329652 48.302818 90.946871 C 48.344014 92.085758 48.063881 92.292828 46.48813 92.292828 C 45.412912 92.292828 45.157496 92.243131 44.900021 91.986364 Z M 46.605539 90.79571 C 47.425341 90.35258 47.719893 90.004702 47.579827 89.640258 C 47.456238 89.317228 46.566403 89.342077 46.255372 89.67546 C 46.037033 89.909449 45.513843 90.957225 45.513843 91.160154 C 45.513843 91.307174 45.888727 91.182931 46.605539 90.79571 Z M 54.113526 89.360713 C 54.113526 89.250966 53.157777 88.76228 52.943557 88.76228 C 52.9106 88.76228 52.885883 88.863744 52.885883 88.985916 C 52.885883 89.110158 53.071265 89.311016 53.301963 89.431117 C 53.718044 89.648541 54.113526 89.615409 54.113526 89.360713 Z M 60.060182 88.654603 C 60.126095 88.455816 59.02204 88.095513 58.593601 88.178342 C 58.451474 88.205261 58.313468 88.385412 58.28669 88.577987 C 58.237255 88.915512 58.274331 88.927936 59.118851 88.884451 C 59.627623 88.857532 60.027225 88.760209 60.060182 88.654603 Z M 54.461633 87.70208 C 54.896252 86.480365 54.426617 86.031023 53.608874 86.884152 C 53.306083 87.20097 53.225751 87.405969 53.295784 87.689656 C 53.54914 88.712583 54.101167 88.718795 54.461633 87.70208 Z M 59.580247 87.569555 C 59.810945 87.414252 59.932474 86.677082 59.767689 86.428598 C 59.664699 86.277436 59.522573 86.354052 59.180645 86.753698 C 58.836658 87.153344 58.768684 87.329353 58.896392 87.484656 C 59.083834 87.708292 59.324832 87.739353 59.580247 87.569555 Z M 76.289381 87.439101 C 76.890844 87.209253 76.375893 86.772334 75.494297 86.768193 C 75.082336 86.764051 75.0329 87.14299 75.418084 87.366626 C 75.733234 87.550919 75.953633 87.567484 76.289381 87.439101 Z M 65.281786 85.606529 C 65.384776 85.575468 65.434212 85.453297 65.388896 85.337337 C 65.259128 84.995671 65.706106 84.718197 66.070691 84.912843 C 66.490891 85.136479 66.857536 85.117843 66.857536 84.869358 C 66.857536 84.75754 66.581523 84.581531 66.243715 84.480066 C 65.55368 84.272996 65.578398 84.368248 65.627833 82.175374 C 65.654611 80.978508 65.638132 80.895679 65.374477 81.005427 C 64.377532 81.421638 63.940853 81.059265 63.940853 79.812702 C 63.940853 78.65932 64.686503 77.460383 65.755541 76.895081 C 66.544446 76.47887 66.857536 76.172406 66.857536 75.818316 C 66.857536 75.230236 65.747302 73.749684 65.13142 73.517765 C 64.900722 73.430796 64.861586 73.184382 64.843048 71.759738 C 64.832749 70.8507 64.81627 69.773934 64.805971 69.368076 C 64.783313 68.471462 65.073746 68.196059 65.55986 68.653684 C 65.737003 68.81727 66.048033 68.949794 66.254014 68.945653 C 66.71129 68.93737 67.930695 68.618482 68.227306 68.427977 C 68.346775 68.351361 68.651626 68.247826 68.907042 68.196059 C 69.533222 68.067675 69.564119 67.848181 69.001793 67.514797 C 68.439466 67.183485 68.458005 67.086162 69.160398 66.616112 C 70.147044 65.955558 69.918406 64.795964 68.381792 62.640363 C 67.936874 62.019152 67.481657 61.416577 67.368368 61.302689 C 66.933749 60.869912 66.830759 60.503397 66.999663 60.012641 C 67.090294 59.753803 67.164447 59.376935 67.164447 59.174006 C 67.164447 58.643906 67.458999 58.608704 68.40239 59.029057 C 69.467309 59.503248 70.000798 60.072691 70.369503 61.126679 C 70.921531 62.702484 71.636283 64.267935 71.961732 64.615813 C 72.71974 65.423387 73.306784 64.769045 73.306784 63.114554 C 73.306784 61.863849 73.207914 61.623648 72.287181 60.62971 C 71.547711 59.83249 71.407644 59.128451 71.852562 58.44926 C 72.072961 58.113806 72.060602 58.064109 71.638343 57.610625 C 71.251099 57.196485 71.082195 57.130222 70.425118 57.130222 C 70.004918 57.130222 69.393156 57.03497 69.065647 56.921081 C 68.738138 56.807193 68.124316 56.664314 67.702056 56.604264 C 66.696872 56.459315 65.860591 55.906437 65.640192 55.241741 C 65.545441 54.955984 65.304444 54.632955 65.104643 54.525278 C 64.781254 54.35341 64.657665 54.386541 63.984109 54.827601 C 63.489756 55.15063 63.121051 55.541993 62.929489 55.94578 C 62.702911 56.428254 62.270352 56.823758 61.02211 57.697595 C 60.136394 58.318806 59.211542 58.946229 58.968485 59.091178 C 58.191939 59.557086 57.796457 60.047843 57.166156 61.329608 C 56.226886 63.242937 55.903496 63.828946 55.611004 64.151976 C 55.400904 64.381824 55.34117 64.721419 55.34117 65.676013 C 55.34117 66.804546 55.310273 66.93293 54.937448 67.276667 C 54.022895 68.119443 52.513058 70.811356 51.895117 72.70605 C 51.291594 74.555187 51.009401 78.437755 51.468737 78.590987 C 51.561429 78.622048 51.748871 78.431543 51.884818 78.168564 C 52.020765 77.907655 52.288539 77.632252 52.478042 77.561848 C 52.673723 77.485232 52.898242 77.207758 52.995052 76.915789 C 53.318442 75.936346 53.919905 74.401955 54.263892 73.675138 C 54.731468 72.683272 55.036319 72.716403 55.660439 73.828371 C 56.333995 75.027307 56.548215 75.248873 57.030209 75.248873 C 57.495725 75.248873 58.645096 74.23837 59.02616 73.494987 C 59.308353 72.946251 59.607025 72.82408 59.740912 73.200948 C 60.152873 74.364683 61.314603 74.47443 61.86869 73.403876 C 62.177661 72.805443 62.735868 72.674989 63.413543 73.039433 C 63.703976 73.194735 63.97793 73.432866 64.019126 73.567462 C 64.124176 73.894633 63.712215 74.708419 63.016001 75.555337 C 62.089089 76.68387 61.934604 77.114576 61.841913 78.829118 C 61.76158 80.33866 61.775999 80.433913 62.253873 81.543809 C 62.542246 82.216788 63.0263 82.993302 63.415603 83.413654 C 64.006767 84.047289 64.08092 84.210875 64.070621 84.817591 C 64.047963 85.848801 64.19009 85.941982 65.281786 85.606529 Z M 57.953002 70.419994 C 57.475127 70.154944 57.333001 69.628985 57.580177 69.030552 C 57.685227 68.775855 57.850012 68.270604 57.946822 67.908231 C 58.105427 67.31601 58.167221 67.249747 58.535926 67.293232 C 58.879914 67.332576 58.962306 67.43404 59.040579 67.924797 C 59.102373 68.307877 59.328951 68.707522 59.695596 69.08439 C 60.344435 69.749086 60.402109 70.028631 59.891278 70.028631 C 59.691477 70.028631 59.353669 70.165297 59.139449 70.335095 C 58.682173 70.693326 58.476192 70.707821 57.953002 70.419994 Z M 66.733948 65.93278 C 66.169562 65.593185 66.015076 65.560054 65.685508 65.709144 C 65.473348 65.806467 65.23647 65.845811 65.158198 65.798185 C 64.882184 65.628387 65.020191 64.986469 65.434212 64.51642 C 65.951222 63.926269 66.639197 63.884855 67.632023 64.385965 C 68.142854 64.642732 68.363253 64.866368 68.499201 65.268085 C 68.659865 65.746417 68.645447 65.835457 68.365313 66.073588 C 67.938934 66.440103 67.516674 66.40283 66.733948 65.93278 Z M 65.561919 58.215271 C 65.413614 58.051685 65.281786 57.689312 65.269427 57.407697 C 65.250889 56.993556 65.306504 56.890021 65.580458 56.852748 C 65.854412 56.813405 65.947103 56.912799 66.07893 57.38906 C 66.387901 58.496886 66.155143 58.869613 65.561919 58.215271 Z M 49.308002 84.883853 C 49.771458 84.376531 49.96714 83.927189 49.96714 83.384664 C 49.96714 82.717898 49.730262 82.852494 49.087603 83.885774 C 48.399629 84.995671 48.556174 85.710064 49.308002 84.883853 Z M 55.96529 84.57946 C 56.752136 83.535826 56.91486 83.198301 56.696521 83.059564 C 56.39579 82.869059 55.740772 82.90012 55.462698 83.117544 C 55.320572 83.231432 55.176385 83.674563 55.116651 84.192238 C 55.0219 84.99153 55.040438 85.076429 55.302033 85.076429 C 55.460638 85.076429 55.75931 84.852793 55.96529 84.57946 Z M 68.853487 78.754573 C 68.853487 78.655179 68.975015 78.441897 69.121262 78.280382 C 69.374617 77.998766 69.372558 77.973918 69.092424 77.768918 C 68.624849 77.427252 68.394151 77.503868 68.394151 78.000837 C 68.394151 78.24725 68.435347 78.557856 68.486842 78.690381 C 68.596011 78.974067 68.853487 79.017552 68.853487 78.754573 Z M 79.381148 76.249022 C 79.638623 76.052305 79.648922 76.002609 79.449121 75.868013 C 79.323473 75.783114 79.086596 75.71271 78.925931 75.71271 C 78.561345 75.708569 77.67357 75.043873 77.426393 74.590389 C 77.325463 74.404026 77.127721 73.766249 76.987655 73.176099 C 76.742538 72.138677 76.709581 72.093121 76.116357 71.871556 C 75.385127 71.596153 74.995824 71.297972 74.995824 71.008073 C 74.995824 70.890043 74.944329 70.79272 74.880475 70.788579 C 74.818681 70.782367 74.178081 70.76373 73.46127 70.745094 C 72.458145 70.718175 72.004988 70.631205 71.508575 70.368226 C 70.760866 69.974792 70.542527 69.945803 70.542527 70.237772 C 70.542527 70.43863 70.243855 70.513175 68.470363 70.747165 C 67.222122 70.912821 66.902852 71.697617 67.401325 73.381099 C 67.675279 74.300491 68.39827 74.896853 69.407574 75.03559 L 70.004918 75.118418 L 69.428172 74.76847 C 68.392091 74.141047 68.359134 72.94418 69.364318 72.461707 C 70.905052 71.722466 72.443726 71.58787 73.226452 72.124182 C 73.393296 72.238071 73.77642 72.331252 74.079211 72.331252 C 74.672435 72.331252 75.331572 72.879989 75.827985 73.791098 C 76.50978 75.03559 76.744598 75.368973 77.325463 75.901144 C 78.019617 76.538921 78.825 76.675587 79.381148 76.249022 Z M 70.664055 68.628836 C 70.692892 68.473533 70.534287 68.309947 70.237676 68.185705 C 69.65887 67.945504 69.516744 68.061463 69.751562 68.579139 C 69.955482 69.02434 70.581663 69.059542 70.664055 68.628836 Z M 32.699799 73.213372 C 32.666842 73.107766 32.555613 72.745393 32.452623 72.407868 C 32.351692 72.070344 32.147771 71.552668 31.999466 71.256558 C 31.657538 70.573226 30.646174 66.46288 29.941721 62.888847 C 29.640989 61.36688 29.31966 59.813853 29.229029 59.432844 C 28.590489 56.751284 28.458662 55.318357 28.285638 49.093824 C 28.102316 42.494494 28.102316 42.496565 28.759393 42.624949 C 28.89534 42.649797 29.053945 42.678787 29.11162 42.684999 C 29.414411 42.71813 29.535939 44.169693 29.605973 48.607209 C 29.702784 54.697146 29.997336 58.15315 30.761523 62.197232 C 31.766708 67.521009 32.042721 68.744795 32.823387 71.333174 C 33.157076 72.436858 33.200332 73.405947 32.918138 73.405947 C 32.831627 73.405947 32.732756 73.318978 32.699799 73.213372 Z M 31.725512 48.808067 C 31.474215 48.555442 31.494813 47.37307 31.768767 46.184487 C 31.894416 45.644033 32.005645 44.60247 32.015944 43.871512 C 32.026243 43.138483 32.096276 42.502777 32.172489 42.455151 C 32.37229 42.332979 32.881062 42.519343 32.969633 42.74712 C 33.080863 43.04116 32.79661 46.75393 32.627706 47.197061 C 32.434084 47.706453 32.751294 48.01913 33.210631 47.774787 C 33.709103 47.507666 34.580401 47.569787 34.749305 47.886605 C 34.992361 48.340089 34.703989 48.561654 33.591694 48.777007 C 32.2693 49.031703 31.95621 49.037915 31.725512 48.808067 Z M 91.274458 48.536805 C 91.084956 48.416705 91.039641 47.861756 91.019043 45.389337 C 90.994325 42.546262 91.006684 42.388888 91.280638 42.388888 C 91.78941 42.388888 91.88828 42.914847 91.927417 45.793124 C 91.958314 48.186857 91.929476 48.605139 91.733795 48.642411 C 91.606087 48.665189 91.400107 48.617563 91.274458 48.536805 Z M 87.651262 48.106099 C 87.558571 48.043978 87.2599 47.57807 86.985946 47.072818 C 86.709932 46.565496 86.368004 46.012619 86.223818 45.844892 C 86.079632 45.675094 85.842754 45.273378 85.696508 44.948277 C 85.288667 44.045451 85.057969 44.302218 85.025012 45.702013 C 85.008533 46.37085 84.992055 46.971354 84.985875 47.033475 C 84.965277 47.304737 84.349396 47.118374 84.120758 46.770496 C 83.935375 46.486809 83.902418 46.227972 83.98687 45.733074 C 84.048664 45.372771 84.116638 44.453379 84.137236 43.693431 C 84.157834 42.933483 84.182552 42.016162 84.190791 41.653789 C 84.223748 40.442428 85.130062 40.703336 85.130062 41.925051 C 85.130062 42.326767 85.344281 42.813383 85.910728 43.699643 C 86.339167 44.372622 86.753188 45.082873 86.83146 45.27959 C 86.920032 45.499084 87.076577 45.617114 87.239302 45.583983 C 87.472059 45.540498 87.500897 45.337569 87.480299 43.923279 C 87.453521 42.144546 87.511196 41.77389 87.809867 41.77389 C 88.326878 41.77389 88.407211 42.212879 88.392792 45.01661 C 88.376314 47.998423 88.252725 48.514028 87.651262 48.106099 Z M 36.763793 47.379282 C 36.658743 47.25504 36.611368 46.994132 36.658743 46.803627 C 36.706119 46.613122 36.858544 45.975346 36.998611 45.383125 C 37.138678 44.792975 37.453828 43.641664 37.698945 42.827877 C 37.944061 42.014091 38.143862 41.24586 38.143862 41.117477 C 38.143862 40.991164 38.265391 40.736468 38.413697 40.554246 C 38.807119 40.069701 39.177884 40.291266 39.437419 41.171315 C 39.558948 41.581314 39.764928 42.144546 39.892636 42.42202 C 40.020344 42.699494 40.337554 43.480149 40.597089 44.155198 C 40.858685 44.830247 41.149117 45.536357 41.241808 45.72272 C 41.460147 46.151356 41.163536 46.571708 40.69184 46.503375 C 40.463202 46.472315 40.308717 46.263174 40.158351 45.791053 C 39.964729 45.171913 39.915294 45.128428 39.515692 45.209186 C 39.278815 45.256812 38.821538 45.418327 38.500208 45.569488 C 37.979078 45.815902 37.900805 45.92772 37.779277 46.613122 C 37.602134 47.590494 37.194292 47.899029 36.763793 47.379282 Z M 39.295293 44.173834 C 39.561008 43.979188 39.565127 43.919138 39.361207 43.380755 C 39.237618 43.059796 39.060475 42.771968 38.965724 42.738837 C 38.817418 42.691211 38.298348 43.875653 38.298348 44.258733 C 38.298348 44.461662 38.980143 44.403682 39.295293 44.173834 Z M 81.03723 46.13479 C 80.814771 45.795195 80.804472 45.66267 80.965137 45.252671 C 81.070187 44.987621 81.189656 43.975047 81.232912 43.003887 C 81.323543 40.922831 81.387397 40.545963 81.640753 40.548034 C 82.20102 40.556316 82.262814 40.788235 82.217498 42.720201 C 82.153644 45.538428 82.114508 46.167921 81.995039 46.360497 C 81.807597 46.66489 81.307065 46.548931 81.03723 46.13479 Z M 78.528389 45.998124 C 78.419219 45.867669 78.310049 45.277519 78.283272 44.687369 C 78.229717 43.418028 78.178222 43.310351 77.636493 43.310351 C 77.407855 43.308281 77.030911 43.208887 76.796093 43.084645 C 76.097819 42.722272 75.916556 42.908635 75.916556 43.987471 C 75.916556 45.111863 75.640543 45.639892 75.197685 45.364489 C 75.014362 45.2506 74.93197 45.039388 74.958747 44.74949 C 74.981405 44.507218 75.002003 43.186109 75.008183 41.815304 C 75.012302 40.444498 75.076156 39.286976 75.14619 39.243491 C 75.498416 39.026067 75.764131 39.373945 75.77237 40.063489 C 75.77649 40.454852 75.830045 41.042932 75.887719 41.368032 C 75.98247 41.896061 76.064862 41.983031 76.658086 42.183889 C 77.020612 42.30606 77.504666 42.386818 77.731244 42.359899 C 78.120547 42.314343 78.151444 42.250151 78.29769 41.173386 C 78.382142 40.545963 78.520149 40.011722 78.604601 39.984802 C 78.864137 39.904045 79.158689 40.175307 79.14221 40.483842 C 79.133971 40.645357 79.113373 41.978889 79.096895 43.451159 C 79.065997 46.136861 78.975366 46.538577 78.528389 45.998124 Z M 42.914369 45.776558 C 42.642475 45.505296 42.615698 45.229893 42.603339 42.395101 C 42.59098 39.759096 42.623937 39.297329 42.825798 39.220713 C 43.173905 39.086117 43.806265 39.568591 43.913375 40.048994 C 44.036963 40.601872 45.248128 43.003887 45.402613 43.003887 C 45.470587 43.003887 45.548859 42.916918 45.579756 42.811312 C 45.629192 42.639443 46.1771 40.233287 46.366602 39.357379 C 46.411917 39.15238 46.556104 39.011572 46.722948 39.011572 C 47.272916 39.011572 47.520092 39.531318 47.678697 41.026366 C 47.765209 41.819445 47.899096 43.053584 47.977369 43.770047 C 48.17923 45.627468 48.181289 45.612973 47.746671 45.612973 C 47.248198 45.612973 47.050457 45.209186 47.050457 44.194541 C 47.050457 43.730704 46.955706 43.239947 46.836237 43.076362 C 46.636436 42.803029 46.611718 42.823736 46.453113 43.393179 C 46.360422 43.726563 46.284209 44.126208 46.28215 44.27944 C 46.28009 45.018681 45.620952 45.422468 45.215171 44.931712 C 45.114241 44.811611 44.80939 44.171764 44.537495 43.511209 C 43.738291 41.577173 43.421081 41.997526 43.725932 44.590046 C 43.826863 45.455599 43.674437 46.07474 43.359287 46.07474 C 43.276895 46.07474 43.077094 45.940144 42.914369 45.776558 Z M 70.103788 45.370701 C 69.475548 45.105651 68.754616 43.952269 68.624849 43.003887 C 68.412689 41.471567 69.131561 39.35945 70.000798 38.94531 C 70.933889 38.50425 72.499341 38.746522 72.738278 39.369804 C 72.888644 39.759096 72.536417 39.937176 72.08326 39.703187 C 71.543592 39.425713 70.575483 39.634854 70.221197 40.106974 C 69.389036 41.210659 69.436412 43.658229 70.303589 44.378834 C 70.734088 44.734995 71.634223 44.180046 71.891699 43.399391 C 72.124456 42.684999 71.994689 42.488282 71.277877 42.473787 C 70.878275 42.467575 70.752627 42.382676 70.629038 42.034798 C 70.429237 41.465355 70.655816 41.33283 71.675419 41.413587 C 72.690903 41.496416 72.999873 41.838081 72.999873 42.873433 C 72.999873 43.291715 72.890704 43.844593 72.754757 44.105501 C 72.206849 45.167772 70.995684 45.745498 70.103788 45.370701 Z M 50.731327 45.225751 C 50.587141 45.049742 50.535646 44.055804 50.533586 41.347325 L 50.531526 37.704958 L 51.43578 37.568292 C 53.709805 37.222485 55.413263 38.520815 54.906551 40.21465 C 54.80974 40.53768 54.591401 40.929043 54.422497 41.082275 C 54.115586 41.359749 54.115586 41.359749 54.451334 41.902273 C 54.673793 42.262576 54.787082 42.691211 54.787082 43.184038 C 54.787082 44.538278 53.944622 45.202974 52.020765 45.366559 C 51.145348 45.441105 50.885813 45.412115 50.731327 45.225751 Z M 53.073325 44.134491 C 53.553259 43.890148 53.806615 43.486361 53.806615 42.966615 C 53.806615 42.413737 53.516183 42.235656 52.618108 42.235656 C 51.717974 42.235656 51.717974 42.235656 51.610864 43.355907 C 51.497575 44.527925 51.888937 44.734995 53.073325 44.134491 Z M 52.484221 41.100911 C 52.764354 40.982881 53.149538 40.724043 53.33904 40.525256 C 54.253593 39.560308 54.010536 38.810714 52.727278 38.640916 C 51.633522 38.495967 51.507874 38.634704 51.586146 39.904045 C 51.621163 40.469347 51.65 41.016012 51.65206 41.121618 C 51.658239 41.370103 51.853921 41.363891 52.484221 41.100911 Z M 57.415393 44.734995 C 56.037384 44.399541 55.458579 41.784243 56.243364 39.442278 C 56.550275 38.53324 56.671803 38.363442 57.322702 37.94516 C 58.618319 37.114808 59.755331 37.464757 60.525698 38.934956 C 60.863505 39.576874 60.939718 39.953742 60.993273 41.241719 C 61.079785 43.36419 60.896462 43.780401 59.609085 44.389187 C 58.698651 44.819894 58.128085 44.908934 57.415393 44.734995 Z M 59.164167 43.471866 C 59.520513 43.289644 59.827424 42.987322 59.946892 42.697423 C 60.189949 42.111414 60.072541 40.473488 59.712075 39.433995 C 59.466958 38.727886 59.438121 38.703037 58.849017 38.703037 C 58.027155 38.703037 57.705825 38.903895 57.324761 39.65349 C 56.881903 40.519044 56.824229 42.738837 57.225891 43.353836 C 57.563699 43.869441 58.296989 43.914996 59.164167 43.471866 Z M 63.228161 44.575551 C 63.114872 44.501005 63.022181 43.591967 62.966566 42.005808 C 62.91919 40.653639 62.836798 39.150309 62.783243 38.665765 L 62.686432 37.781575 L 63.123111 37.781575 C 63.362048 37.781575 63.774009 37.721524 64.035604 37.644908 C 64.665904 37.464757 65.844113 37.73809 66.315808 38.175008 C 66.546506 38.38829 66.71953 38.77137 66.785443 39.218642 C 66.878134 39.83157 66.834879 40.013792 66.451755 40.618437 C 66.210758 41.001518 65.961521 41.314194 65.897668 41.314194 C 65.638132 41.314194 65.811156 41.970606 66.223117 42.537979 C 66.915211 43.494644 67.104713 44.049592 66.830759 44.324996 C 66.513549 44.641813 66.134545 44.445096 65.940923 43.859088 C 65.850292 43.585755 65.561919 43.07015 65.300324 42.713989 C 64.91926 42.196313 64.742117 42.074142 64.420788 42.111414 C 64.031485 42.15697 64.017066 42.196313 64.006767 43.165402 C 63.992348 44.585904 63.796667 44.939994 63.228161 44.575551 Z M 64.824509 40.854498 C 65.320922 40.552175 65.934744 39.723894 65.936804 39.357379 C 65.936804 38.959804 65.329162 38.549805 64.746237 38.551876 C 63.811086 38.556017 63.726634 38.68026 63.848162 39.866772 C 63.996468 41.320406 64.021186 41.345254 64.824509 40.854498 Z M 64.824509 40.854498 " transform="matrix(1.896418,0,0,1.886437,-19.883577,-25.393644)"/>
</g>
</svg>
