<?xml version="1.0" encoding="UTF-8"?>
<svg xmlns="http://www.w3.org/2000/svg" xmlns:xlink="http://www.w3.org/1999/xlink" width="px" height="0px" viewBox="0 0 190 189" version="1.1">
<g id="surface1">
<path style="fill:none;stroke-width:0.264583;stroke-linecap:butt;stroke-linejoin:miter;stroke:rgb(99.607843%,0%,0%);stroke-opacity:1;stroke-miterlimit:4;" d="M 110.618082 63.592886 C 110.618082 91.20778 88.232127 113.594149 60.616329 113.594149 C 33.00259 113.594149 10.616635 91.20778 10.616635 63.592886 C 10.616635 35.980063 33.00259 13.593694 60.616329 13.593694 C 88.232127 13.593694 110.618082 35.980063 110.618082 63.592886 Z M 110.618082 63.592886 " transform="matrix(1.896418,0,0,1.886437,-19.883577,-25.393644)"/>
<path style="fill:none;stroke-width:0.264583;stroke-linecap:butt;stroke-linejoin:miter;stroke:rgb(99.607843%,0%,0%);stroke-opacity:1;stroke-miterlimit:4;" d="M 65.895608 26.262254 C 65.895608 29.024572 63.65866 31.263002 60.896462 31.263002 C 58.134265 31.263002 55.897317 29.024572 55.897317 26.262254 C 55.897317 23.499937 58.134265 21.261507 60.896462 21.261507 C 63.65866 21.261507 65.895608 23.499937 65.895608 26.262254 Z M 65.895608 26.262254 " transform="matrix(1.896418,0,0,1.886437,-19.883577,-25.393644)"/>
<path style="fill:none;stroke-width:0.120564;stroke-linecap:butt;stroke-linejoin:miter;stroke:rgb(0%,0%,100%);stroke-opacity:1;stroke-miterlimit:4;" d="M 56.80981 92.576515 C 37.315821 91.713031 20.689079 85.001883 14.132722 75.348266 C 13.356175 74.205238 12.416905 72.306404 12.04408 71.121962 C 11.133646 68.239543 11.108929 65.094146 11.971987 62.213798 C 13.20169 58.115877 16.826946 53.806744 21.906424 50.404579 C 30.349562 44.75156 42.866994 41.189951 56.38755 40.59773 C 73.498346 39.848136 89.511266 43.517422 99.979192 50.586801 C 105.656013 54.421743 109.102066 58.991784 110.059875 63.953188 C 110.32559 65.332277 110.32147 67.78813 110.049576 69.192067 C 109.17004 73.757967 106.234818 77.907655 101.239792 81.649415 C 99.456002 82.987089 97.828756 83.974815 95.208685 85.31663 C 87.795449 89.110158 78.705532 91.479042 68.202589 92.35702 C 66.116007 92.53303 58.933469 92.669696 56.80981 92.576515 Z M 68.686643 89.708591 C 78.50985 88.816118 86.988005 86.5839 93.943965 83.063705 C 104.32126 77.808261 109.116485 70.796861 107.277079 63.563896 C 104.84651 54.00139 90.118908 45.853174 71.399405 43.712068 C 67.331291 43.24823 65.739063 43.165402 60.789352 43.167473 C 55.835523 43.169543 54.165021 43.254442 50.1793 43.716209 C 32.279599 45.7807 17.957779 53.315988 14.67857 62.389808 C 13.94322 64.419097 13.73106 66.527072 14.066808 68.434189 C 14.622955 71.58787 16.066878 74.12241 18.942365 76.97998 C 21.488283 79.51245 24.032142 81.260123 28.05494 83.241786 C 29.381454 83.896128 31.115809 84.685066 31.906774 84.995671 C 38.327185 87.519858 46.358362 89.265461 53.796316 89.754146 C 54.890073 89.826621 56.002367 89.905308 56.268082 89.930156 C 57.538981 90.046116 66.787503 89.88253 68.686643 89.708591 Z M 58.196059 88.298442 C 50.047472 88.103796 42.646595 86.87794 35.711233 84.577389 C 24.909619 80.990932 17.591133 75.29857 15.914453 69.175501 C 15.535449 67.786059 15.535449 65.361266 15.916512 63.965613 C 18.219374 55.517145 31.144647 48.135089 47.888797 45.704084 C 55.808745 44.554844 64.373412 44.488581 72.388111 45.51565 C 83.317434 46.915445 93.282768 50.580589 99.429224 55.459165 C 100.623911 56.407547 102.644579 58.434765 103.431424 59.478399 C 106.018539 62.899201 106.683856 66.885304 105.258471 70.413781 C 103.802189 74.025087 100.784576 77.122859 95.752473 80.173004 C 90.843959 83.150675 83.632584 85.695569 76.462405 86.981475 C 70.363324 88.076877 65.03049 88.459957 58.196059 88.298442 Z M 66.756606 87.11193 C 80.128857 86.204962 91.688479 82.465272 98.926632 76.700435 C 104.275944 72.441 106.11123 67.634898 104.201791 62.882635 C 102.73933 59.24441 98.42404 55.353559 92.650408 52.460787 C 85.78096 49.02135 77.865131 46.983778 67.901857 46.091305 C 65.539262 45.878023 56.167151 45.880094 53.736582 46.091305 C 46.343944 46.737365 40.181009 48.014988 34.506248 50.077408 C 25.974538 53.179321 19.916653 57.606484 17.62821 62.412585 C 16.985551 63.760613 16.771331 64.622025 16.695118 66.131568 C 16.540633 69.293531 17.751798 71.921253 20.757053 74.940338 C 22.071208 76.259376 22.666492 76.758415 24.559452 78.12715 C 26.017793 79.179067 29.628631 81.088255 32.153951 82.140172 C 39.355027 85.136479 48.092718 86.892435 57.65433 87.263091 C 59.423702 87.331424 64.843048 87.240313 66.756606 87.11193 Z M 51.036178 78.89331 C 49.598435 78.653108 48.523217 77.706797 48.236904 76.425032 C 47.804345 74.490995 49.172055 70.175651 50.735447 68.535654 C 51.534651 67.697019 52.397709 67.249747 53.631532 67.028182 C 54.797381 66.821112 55.528612 66.810758 56.558514 66.986768 C 59.23214 67.444393 60.0746 69.31838 59.157987 72.757817 C 58.781043 74.176249 58.317587 75.366903 57.773799 76.317355 C 57.260907 77.21397 56.132135 78.226543 55.297914 78.537149 C 54.092928 78.988562 52.445085 79.125229 51.036178 78.89331 Z M 54.068211 75.874225 C 54.315387 75.749983 54.659374 75.426953 54.830338 75.155691 C 55.23406 74.515844 55.917915 72.73711 56.156852 71.707971 C 56.515258 70.167368 56.17745 69.691106 54.745886 69.718025 C 53.289604 69.744944 52.729338 70.250196 51.940433 72.254636 C 51.153587 74.252865 50.984683 75.511852 51.448139 75.897003 C 51.921894 76.290436 53.264887 76.278012 54.068211 75.874225 Z M 36.310636 77.431394 C 36.563992 76.685941 37.270505 74.638015 37.880207 72.879989 C 39.6434 67.800554 39.602204 67.943433 39.390044 67.620403 C 39.289114 67.467171 39.208781 67.28702 39.208781 67.216616 C 39.208781 67.133788 40.27988 67.092374 42.399418 67.092374 C 45.005071 67.092374 45.693046 67.127576 46.156502 67.284949 C 46.935108 67.549999 47.363547 67.891665 47.6478 68.479745 C 48.249263 69.722167 47.668398 72.29605 46.49431 73.596452 C 46.059691 74.076855 45.180154 74.567611 44.755835 74.567611 C 44.621947 74.567611 44.512778 74.606955 44.512778 74.65251 C 44.512778 74.74155 45.316101 76.944778 45.728062 77.990483 C 45.85577 78.313513 45.95876 78.626189 45.95876 78.682098 C 45.95876 78.740078 45.239889 78.787704 44.362412 78.785633 L 42.764004 78.785633 L 42.234634 76.946849 C 41.942142 75.936346 41.655829 75.014883 41.596095 74.898924 C 41.519882 74.745692 41.344798 74.687712 40.961675 74.687712 L 40.434365 74.687712 L 39.066655 78.787704 L 35.84924 78.787704 Z M 44.024604 72.004081 C 44.399488 71.813577 44.720818 71.26484 44.819689 70.639488 C 44.943277 69.865045 44.741416 69.744944 43.318091 69.744944 L 42.139883 69.744944 L 41.758819 70.861053 C 41.546659 71.473981 41.375695 72.016505 41.375695 72.066202 C 41.379815 72.219434 43.705334 72.165596 44.024604 72.004081 Z M 61.392875 78.516442 C 61.392875 78.139574 61.046828 70.689185 60.956197 69.148582 C 60.888223 67.962069 60.863505 67.868888 60.538056 67.566565 C 60.348554 67.390555 60.229086 67.210404 60.270282 67.16899 C 60.313538 67.127576 61.151878 67.092374 62.134405 67.092374 C 63.485637 67.092374 63.924375 67.129647 63.924375 67.243535 C 63.928494 68.425907 64.091219 73.689633 64.148894 74.495137 L 64.225106 75.56569 L 66.120126 71.842566 C 67.162387 69.792571 68.142854 67.881312 68.2994 67.591413 L 68.583653 67.065455 L 70.198539 67.086162 C 71.086315 67.096515 71.819605 67.115152 71.829904 67.129647 C 71.838144 67.142071 70.797942 69.051259 69.516744 71.372517 C 68.237605 73.693775 66.793682 76.311143 66.309628 77.189121 L 65.430092 78.785633 L 63.411484 78.785633 C 61.396995 78.787704 61.390815 78.787704 61.392875 78.516442 Z M 69.469368 78.752502 C 69.469368 78.731795 69.815416 77.713009 70.237676 76.489224 C 72.622929 69.595854 73.086385 68.212624 73.086385 67.988988 C 73.086385 67.852322 73.010172 67.63904 72.919541 67.512727 C 72.82685 67.386414 72.773295 67.22697 72.800072 67.158636 C 72.833029 67.073738 74.221337 67.042677 77.061808 67.065455 L 81.274108 67.098586 L 80.812712 68.392775 L 80.351315 69.684894 L 78.08965 69.744944 L 75.830045 69.804995 L 75.619945 70.347519 C 75.502536 70.6457 75.368648 71.066053 75.323333 71.281406 L 75.236821 71.674839 L 79.321413 71.674839 L 78.886794 72.877918 L 78.452176 74.083067 L 76.40267 74.083067 L 74.353165 74.085138 L 74.021536 75.025237 C 73.838214 75.540842 73.689908 76.002609 73.689908 76.050235 C 73.689908 76.09579 74.71775 76.135134 75.976291 76.135134 L 78.262674 76.135134 L 77.348121 78.727654 L 73.409774 78.758714 C 71.24286 78.77528 69.469368 78.773209 69.469368 78.752502 Z M 79.234901 78.692452 C 79.234901 78.636543 79.583008 77.590838 80.009388 76.369123 C 82.104209 70.355802 82.851918 68.14222 82.851918 67.951716 C 82.851918 67.835756 82.771586 67.636969 82.674775 67.508585 C 82.577964 67.378131 82.495572 67.233182 82.493512 67.183485 C 82.491452 67.133788 83.918897 67.092374 85.663551 67.092374 C 88.155915 67.092374 88.969537 67.131717 89.455651 67.276667 C 91.398047 67.852322 91.810008 69.76151 90.576185 72.451353 C 90.069473 73.552967 88.909803 74.555187 88.127077 74.565541 C 87.842824 74.567611 87.861363 74.778823 88.225948 75.739629 C 88.396912 76.188972 88.720301 77.058667 88.94482 77.671595 L 89.352661 78.787704 L 86.116708 78.787704 L 85.978701 78.27417 C 85.904548 77.992554 85.770661 77.545282 85.682089 77.280232 C 85.595578 77.015182 85.379298 76.321497 85.204215 75.737559 L 84.882885 74.675288 L 84.330858 74.712561 L 83.78089 74.747763 L 82.41318 78.727654 L 80.82507 78.760785 C 79.949654 78.779421 79.234901 78.748361 79.234901 78.692452 Z M 87.424684 71.979233 C 88.009668 71.67691 88.401031 70.219135 87.98907 69.875399 C 87.879901 69.784288 87.408206 69.749086 86.644018 69.769793 L 85.46581 69.804995 L 85.173318 70.649842 C 85.014713 71.113679 84.83551 71.641708 84.779895 71.82393 L 84.676905 72.157313 L 85.879831 72.157313 C 86.699633 72.157313 87.191926 72.099334 87.424684 71.979233 Z M 26.761383 72.962817 L 27.296932 71.476052 L 31.63282 70.05555 C 34.018074 69.274895 35.995486 68.664037 36.028443 68.695098 C 36.0614 68.728229 36.009905 68.93737 35.917214 69.158935 C 35.750369 69.55444 35.680336 69.587571 32.926378 70.515246 C 31.375345 71.039134 30.05295 71.513325 29.991156 71.571304 C 29.927302 71.629284 31.00458 71.674839 32.432025 71.674839 C 33.838871 71.674839 34.986182 71.714183 34.986182 71.76388 C 34.984122 71.813577 34.771962 72.424434 34.514487 73.12019 L 34.044851 74.38746 L 26.225834 74.449581 Z M 32.452623 63.445866 C 34.730766 56.823758 35.711233 53.875077 35.711233 53.634876 C 35.711233 53.475432 35.645319 53.239372 35.564987 53.110988 C 35.484655 52.982604 35.461997 52.833514 35.515552 52.781746 C 35.622662 52.67407 39.447718 52.647151 39.449778 52.752756 C 39.449778 52.814878 37.698945 57.960574 36.809109 60.51168 C 36.603129 61.101831 36.434225 61.602941 36.434225 61.625718 C 36.434225 61.648496 37.466187 61.667132 38.724727 61.667132 C 39.985327 61.667132 41.017289 61.708546 41.017289 61.758243 C 41.017289 61.80794 40.819548 62.431222 40.578551 63.143544 L 40.139813 64.439804 L 32.110695 64.439804 Z M 41.237689 64.048441 C 42.819618 61.480769 47.312052 53.825381 47.367667 53.603815 C 47.408863 53.442301 47.375906 53.20624 47.295573 53.077857 C 47.215241 52.947403 47.180224 52.810736 47.217301 52.773463 C 47.254377 52.736191 48.313117 52.700989 49.569598 52.694777 L 51.853921 52.684423 L 51.919834 53.409169 C 51.956911 53.806744 52.094918 56.167346 52.228805 58.652189 C 52.360633 61.139103 52.49658 63.45829 52.531596 63.808239 L 52.593391 64.439804 L 49.456308 64.439804 L 49.456308 61.818294 L 47.682817 61.832789 L 45.911385 61.847284 L 45.470587 62.57203 C 45.22959 62.969605 44.883542 63.553543 44.706399 63.86829 L 44.38301 64.439804 L 40.996691 64.439804 Z M 49.33478 57.749363 C 49.33478 56.786486 49.295644 56.001689 49.244149 56.001689 C 49.157637 56.001689 47.499494 58.859259 47.338829 59.285824 C 47.266736 59.476329 47.359427 59.497036 48.296638 59.497036 L 49.33478 59.497036 Z M 54.780903 60.190721 C 55.578047 57.852898 56.38961 55.481943 56.581172 54.922853 C 56.974595 53.777754 57.015791 53.328412 56.745956 53.102705 C 56.358713 52.781746 56.791272 52.698918 58.826359 52.70306 L 60.842907 52.709272 L 61.102443 54.024168 C 61.244569 54.746843 61.512344 56.138356 61.697726 57.115727 C 61.883109 58.093099 62.068491 58.894461 62.107627 58.894461 C 62.148823 58.894461 62.639057 57.511232 63.199324 55.819467 C 64.165372 52.908059 64.235405 52.744474 64.523778 52.729979 C 64.690622 52.721696 65.386836 52.707201 66.070691 52.698918 C 67.121191 52.686494 67.302454 52.713413 67.257139 52.866645 C 67.226241 52.966039 66.569164 54.891793 65.794677 57.146788 C 63.586567 63.578391 63.320852 64.354905 63.320852 64.39839 C 63.320852 64.421167 62.651416 64.439804 61.833673 64.439804 L 60.344435 64.439804 L 59.646161 60.853346 C 59.263037 58.879966 58.908751 57.192343 58.861376 57.101233 C 58.787223 56.960425 57.720244 59.956732 56.560574 63.565967 L 56.280441 64.439804 L 53.328741 64.439804 Z M 66.478532 60.913397 C 67.141789 58.973148 67.951293 56.610476 68.276742 55.662094 C 68.878205 53.899926 68.972956 53.38225 68.729899 53.139978 C 68.655746 53.063362 68.620729 52.930837 68.653686 52.843867 C 68.736078 52.630585 74.08951 52.647151 74.894893 52.862504 C 76.658086 53.332553 77.578819 54.717853 77.364599 56.573203 C 76.964997 60.004358 75.383067 63.07314 73.611635 63.857936 C 72.472563 64.361117 71.850502 64.431521 68.486842 64.435662 L 65.273547 64.439804 Z M 71.700137 61.551173 C 72.649707 61.33582 73.428313 60.014711 74.08333 57.50709 C 74.503531 55.894013 74.223397 55.508862 72.561135 55.423963 L 71.578608 55.374266 L 70.554885 58.368503 C 69.990499 60.014711 69.512624 61.429002 69.489967 61.5139 C 69.444651 61.698193 70.942129 61.725112 71.700137 61.551173 Z M 78.594302 62.284202 L 78.777625 61.816223 L 81.387397 60.940316 C 82.823081 60.457842 84.133116 59.991934 84.299961 59.904964 C 84.557436 59.770369 84.236107 59.747591 82.09803 59.743449 C 80.373973 59.739308 79.597427 59.697894 79.597427 59.606783 C 79.597427 59.534308 79.801348 58.911027 80.048524 58.221483 L 80.501681 56.968708 L 84.388532 56.966637 C 86.528669 56.966637 88.275383 57.00598 88.273323 57.055677 C 88.269204 57.105374 88.038506 57.759716 87.760432 58.511381 L 87.25372 59.875974 L 82.911652 61.313042 C 80.524339 62.104051 78.536628 62.75011 78.491312 62.752181 C 78.448056 62.752181 78.493372 62.540969 78.594302 62.284202 Z M 78.594302 62.284202 " transform="matrix(1.896418,0,0,1.886437,-19.883577,-25.393644)"/>
</g>
</svg>
