<?xml version="1.0" encoding="UTF-8"?>
<svg xmlns="http://www.w3.org/2000/svg" xmlns:xlink="http://www.w3.org/1999/xlink" width="px" height="0px" viewBox="0 0 190 189" version="1.1">
<g id="surface1">
<path style="fill:none;stroke-width:0.264583;stroke-linecap:butt;stroke-linejoin:miter;stroke:rgb(99.607843%,0%,0%);stroke-opacity:1;stroke-miterlimit:4;" d="M 110.618082 63.592886 C 110.618082 91.20778 88.232127 113.594149 60.616329 113.594149 C 33.00259 113.594149 10.616635 91.20778 10.616635 63.592886 C 10.616635 35.980063 33.00259 13.593694 60.616329 13.593694 C 88.232127 13.593694 110.618082 35.980063 110.618082 63.592886 Z M 110.618082 63.592886 " transform="matrix(1.896418,0,0,1.886437,-19.883577,-25.393644)"/>
<path style="fill:none;stroke-width:0.264583;stroke-linecap:butt;stroke-linejoin:miter;stroke:rgb(99.607843%,0%,0%);stroke-opacity:1;stroke-miterlimit:4;" d="M 65.895608 26.262254 C 65.895608 29.024572 63.65866 31.263002 60.896462 31.263002 C 58.134265 31.263002 55.897317 29.024572 55.897317 26.262254 C 55.897317 23.499937 58.134265 21.261507 60.896462 21.261507 C 63.65866 21.261507 65.895608 23.499937 65.895608 26.262254 Z M 65.895608 26.262254 " transform="matrix(1.896418,0,0,1.886437,-19.883577,-25.393644)"/>
<path style="fill-rule:nonzero;fill:rgb(0%,0%,0%);fill-opacity:1;stroke-width:0.438262;stroke-linecap:butt;stroke-linejoin:miter;stroke:rgb(0%,0%,0%);stroke-opacity:1;stroke-miterlimit:4;" d="M 52.517178 101.619274 C 33.884187 99.844682 20.767352 92.361161 14.99784 80.212348 C 9.343676 68.307877 11.529129 55.525428 20.901239 45.677165 C 27.358726 38.88733 37.095422 34.373198 49.052587 32.619312 C 53.658309 31.944263 65.246769 31.915273 69.609435 32.569615 C 76.789914 33.64431 78.814701 34.38148 78.814701 35.924154 C 78.814701 36.238901 75.885659 40.247782 72.307779 44.832318 C 61.102443 59.18643 52.517178 72.153172 52.517178 74.724985 C 52.517178 77.427252 51.954851 77.36306 75.87948 77.36306 L 97.639254 77.36306 L 98.290152 76.371194 C 99.925637 73.875997 100.452947 71.473981 100.479725 66.406971 C 100.520921 58.548654 98.440518 52.980534 93.457851 47.598777 C 90.94695 44.886156 86.20528 41.407375 82.417299 39.498187 L 80.104139 38.332381 L 81.239091 36.845617 L 82.371984 35.356781 L 83.98893 36.031831 C 93.606157 40.042782 100.535339 46.072669 104.393353 53.786037 C 108.809574 62.613444 108.807514 71.370446 104.389233 80.311741 C 101.705308 85.745266 104.731161 85.252438 74.025656 85.252438 C 44.893841 85.252438 43.793906 85.16754 40.714498 82.688908 C 37.890506 80.415276 37.394093 79.386137 37.443529 75.907356 C 37.497084 72.192515 38.290108 70.161156 41.626992 65.210105 C 44.881483 60.381226 50.927009 51.992808 56.995193 43.886007 C 59.880979 40.030358 62.105568 36.655112 61.97786 36.32587 C 61.456729 34.967489 50.850796 36.062891 44.189388 38.164655 C 26.302046 43.805249 16.237842 58.590068 20.075258 73.59024 C 23.587224 87.325212 35.488774 95.765397 53.837512 97.533777 C 67.623784 98.863169 81.307065 95.697064 90.079772 89.147431 C 92.259045 87.519858 92.510341 87.443242 95.668021 87.443242 C 97.486829 87.443242 98.974008 87.625464 98.974008 87.8491 C 98.974008 88.337786 95.124233 91.617779 92.399112 93.450351 C 84.151655 98.997764 72.105918 102.023061 58.999382 101.836698 C 56.278381 101.797355 53.361698 101.700031 52.519238 101.619274 Z M 52.517178 101.619274 " transform="matrix(1.896418,0,0,1.886437,-19.883577,-25.393644)"/>
</g>
</svg>
