<?xml version="1.0" encoding="UTF-8" standalone="no"?>
<!-- Created with Inkscape (http://www.inkscape.org/) -->

<svg
   width="100.26458mm"
   height="100.26458mm"
   viewBox="0 0 100.26458 100.26458"
   version="1.1"
   id="svg5"
   inkscape:version="1.1 (ce6663b3b7, 2021-05-25)"
   sodipodi:docname="mazda.svg"
   xmlns:inkscape="http://www.inkscape.org/namespaces/inkscape"
   xmlns:sodipodi="http://sodipodi.sourceforge.net/DTD/sodipodi-0.dtd"
   xmlns="http://www.w3.org/2000/svg"
   xmlns:svg="http://www.w3.org/2000/svg">
  <sodipodi:namedview
     id="namedview7"
     pagecolor="#ffffff"
     bordercolor="#666666"
     borderopacity="1.0"
     inkscape:pageshadow="2"
     inkscape:pageopacity="0.0"
     inkscape:pagecheckerboard="0"
     inkscape:document-units="mm"
     showgrid="false"
     inkscape:zoom="0.75187991"
     inkscape:cx="450.20487"
     inkscape:cy="148.29496"
     inkscape:window-width="1848"
     inkscape:window-height="1016"
     inkscape:window-x="72"
     inkscape:window-y="27"
     inkscape:window-maximized="1"
     inkscape:current-layer="layer1" />
  <defs
     id="defs2" />
  <g
     inkscape:label="Слой 1"
     inkscape:groupmode="layer"
     id="layer1"
     transform="translate(-10.484808,-13.461169)">
    <circle
       style="fill:none;fill-rule:evenodd;stroke:#fe0000;stroke-width:0.264583;stroke-opacity:1"
       id="path31"
       cx="60.6171"
       cy="63.59346"
       r="50" />
    <circle
       style="fill:none;stroke:#fe0000;stroke-width:0.264583;stroke-opacity:1"
       id="path1082"
       cx="60.896606"
       cy="26.262318"
       r="5" />
    <path
       style="fill:none;stroke-width:0.178199;stroke:#0000ff;stroke-opacity:1"
       d="M 56.066093,106.42989 C 45.779701,106.0439 37.604853,104.09451 31.009204,100.45479 23.299715,96.200399 18.173252,89.213009 16.184684,80.248914 14.331683,71.895932 14.809563,61.890503 17.388806,55.038088 c 0.949187,-2.521761 2.841492,-5.828073 4.516755,-7.891861 l 0.616563,-0.759557 1.446864,1.388418 c 3.90089,3.743312 11.168333,7.744736 18.197577,10.019509 2.729442,0.883291 7.435054,3.597654 10.445268,6.025199 2.810717,2.266666 5.490725,5.543221 7.012602,8.573547 l 0.663767,1.321682 1.01493,-1.951761 c 1.374414,-2.643068 2.653377,-4.452742 4.56391,-6.457726 3.240777,-3.400986 6.114324,-5.261471 12.029309,-7.788401 9.314209,-3.979111 14.857896,-7.076308 18.121845,-10.124477 0.814508,-0.760661 1.311583,-1.12158 1.251735,-0.908876 -0.05463,0.194043 -0.151433,1.114607 -0.2152,2.045697 -0.152086,2.220669 -0.606359,5.509875 -0.814729,5.899218 -0.674074,1.259516 -8.060163,4.790166 -17.30983,8.274331 -5.283807,1.990305 -7.62165,3.499799 -11.924689,7.699515 -2.178662,2.126349 -2.648267,2.702381 -4.613817,5.659433 l -2.188275,3.292135 -1.05383,-1.824638 c -1.39993,-2.423882 -2.640083,-4.013406 -4.643139,-5.951182 -3.847944,-3.722532 -7.064971,-5.585092 -15.303876,-8.860462 -9.150212,-3.637659 -14.382204,-6.393617 -15.649797,-8.243545 -0.220333,-0.321558 -0.53738,-1.314395 -0.740247,-2.318087 -0.388642,-1.922855 -0.877517,-3.626718 -1.040581,-3.626718 -0.462796,0 -2.905041,4.904205 -3.843686,7.718397 -1.292582,3.875355 -1.835554,7.369711 -1.984962,12.774496 l -0.105913,3.83128 0.668377,1.78199 c 1.374911,3.665712 2.604285,5.669845 4.844026,7.896761 1.202432,1.195545 1.648346,1.797624 2.309619,3.118484 3.98346,7.956762 10.995766,13.139082 21.149587,15.630221 12.288243,3.01481 28.661395,1.58845 38.877984,-3.386885 6.223075,-3.030555 10.199946,-6.951847 13.106193,-12.923035 2.061241,-4.23502 2.943909,-7.941397 3.140391,-13.186731 0.205373,-5.482953 -0.660807,-10.822234 -2.461481,-15.172813 l -0.526994,-1.273287 0.442945,-4.056323 c 0.378487,-3.466078 0.495049,-4.108429 0.801039,-4.414417 0.473774,-0.473773 0.631389,-0.334646 2.071464,1.828508 1.21394,1.823487 2.83664,5.074674 3.4632,6.93875 2.97744,8.85809 2.77247,21.722731 -0.47024,29.514512 -5.045479,12.123531 -15.636906,18.878271 -32.664153,20.831731 -2.167292,0.24865 -3.835642,0.34328 -9.266351,0.52566 -0.93109,0.0312 -3.296683,-0.004 -5.256873,-0.0769 z M 66.088812,69.855745 c 1.0315,-1.090659 1.54159,-2.006173 1.913662,-3.434651 0.144455,-0.554594 0.543503,-1.519316 0.886775,-2.143824 0.343272,-0.624504 0.540296,-1.135466 0.437829,-1.135466 -0.102467,0 -0.777376,0.598796 -1.499798,1.330658 -1.585817,1.606537 -2.717504,3.689784 -2.884763,5.310371 -0.06495,0.629346 -0.03737,1.021531 0.07185,1.021531 0.0975,0 0.581007,-0.426879 1.074445,-0.948619 z m 6.015198,-4.758031 c 2.963579,-1.814762 5.530474,-2.95165 13.899528,-6.156169 5.454569,-2.088559 9.227003,-4.35697 9.689118,-5.82618 0.09971,-0.317023 0.237216,-1.495395 0.305563,-2.618607 l 0.124277,-2.0422 -0.871803,0.76877 c -2.838582,2.50312 -9.064958,5.868354 -14.860429,8.031768 -5.722268,2.13609 -9.201198,4.65492 -10.837737,7.846787 -0.40986,0.799384 -0.7452,1.646979 -0.7452,1.883547 0,0.414484 0.03726,0.401869 1.024645,-0.346872 0.563554,-0.427348 1.585971,-1.120727 2.272038,-1.540844 z M 49.383628,66.25051 c 0,-0.05439 -0.334984,-0.595663 -0.744409,-1.202844 -2.243441,-3.327047 -4.280038,-5.511091 -5.35742,-5.745286 -0.989122,-0.215009 -7.55733,-3.07247 -10.648885,-4.632735 -4.289578,-2.16489 -6.819314,-3.803398 -8.793003,-5.695223 -0.474727,-0.455038 -0.90085,-0.789637 -0.946934,-0.743551 -0.141116,0.141114 0.484109,3.480982 0.851585,4.549073 0.476637,1.385368 1.123932,2.31139 1.716179,2.455164 0.269338,0.06539 0.770372,0.336214 1.113406,0.601838 1.835614,1.421388 6.747148,3.614591 16.127016,7.201377 0.686066,0.262348 2.410142,1.105988 3.83128,1.874757 2.582234,1.39687 2.851185,1.523028 2.851185,1.33743 z m 3.207583,33.94233 C 48.010322,99.699927 43.603254,98.535856 40.183707,96.915557 37.003411,95.408622 35.407598,94.29664 32.159259,91.32403 c -2.062275,-1.887222 -3.929735,-3.277101 -5.328164,-3.965545 -1.040734,-0.512352 -1.138364,-0.618779 -2.07716,-2.264355 -1.712266,-3.001358 -2.847001,-6.111322 -3.457513,-9.475995 -0.389732,-2.1479 -0.512021,-6.594446 -0.259831,-9.447667 0.328479,-3.716347 1.43923,-9.23721 1.888399,-9.386083 0.100169,-0.03319 0.982254,1.604159 1.960189,3.638575 l 1.778067,3.698939 -0.158919,3.296683 c -0.409806,8.501079 1.14765,15.477496 4.61955,20.692699 3.884925,5.835614 10.116824,9.396007 18.978016,10.842487 4.781199,0.780468 13.93878,0.912386 19.291414,0.277889 7.755503,-0.919325 13.512733,-3.465206 17.75665,-7.8521 3.852461,-3.98225 5.955686,-8.803024 6.994115,-16.031117 0.307732,-2.141986 0.311275,-9.748628 0.0054,-11.366741 l -0.22869,-1.209396 1.219939,-2.710983 c 1.49468,-3.321516 1.690367,-3.43051 2.307734,-1.285393 2.265255,7.870851 1.815085,17.077239 -1.121046,22.926099 -1.061442,2.114435 -2.346786,3.818827 -4.192232,5.558976 -0.951068,0.896812 -2.204204,2.231988 -2.784735,2.96706 -3.480111,4.406506 -8.998509,7.642132 -15.464343,9.067269 -3.947092,0.869979 -5.015845,0.955849 -12.563033,1.009339 -3.969385,0.0281 -7.898675,-0.0222 -8.731755,-0.11183 z M 59.247237,83.311267 C 57.783265,80.247579 56.039786,77.792533 53.583517,75.336011 49.426815,71.178883 47.314476,70.168534 32.506406,65.254648 l -5.561581,-1.845545 -1.076334,-3.207706 c -0.591985,-1.764239 -1.076335,-3.260674 -1.076335,-3.32541 0,-0.06474 0.541279,0.246202 1.202844,0.690974 2.324598,1.562837 8.47247,4.356897 16.795262,7.633046 3.239845,1.275318 4.3313,1.795881 5.686027,2.711922 5.131987,3.470148 9.00227,7.789169 10.963199,12.234325 0.774707,1.756152 0.751023,1.759915 1.839728,-0.292411 3.328135,-6.27389 7.50298,-10.735489 12.94906,-13.83849 1.621417,-0.923827 2.08927,-1.121533 6.391473,-2.700908 5.687589,-2.087965 11.103976,-4.576364 13.741017,-6.312908 0.676095,-0.445223 1.29449,-0.809496 1.374213,-0.809496 0.235519,0 -1.235693,4.081221 -1.957936,5.431425 -0.539177,1.007965 -0.78166,1.28416 -1.27912,1.456927 -0.337596,0.117252 -2.538366,0.828304 -4.890593,1.58012 -9.571711,3.059293 -16.374108,6.206132 -19.335383,8.944695 -2.037866,1.884601 -5.021632,6.094825 -6.843364,9.656286 -0.556192,1.087348 -1.068104,1.975356 -1.137584,1.973353 -0.06948,-0.002 -0.539174,-0.867613 -1.043762,-1.92358 z M 28.979834,51.092066 C 27.486146,50.192268 26.024539,48.98851 24.262881,47.207251 l -1.509368,-1.526162 0.885671,-0.90724 c 2.209573,-2.263378 6.091216,-4.969293 9.439229,-6.580136 5.474817,-2.634123 11.549002,-4.182159 19.245499,-4.904814 3.591108,-0.337183 11.836059,-0.383689 15.414221,-0.08695 11.861379,0.98369 20.532731,4.030196 26.997158,9.484912 2.070505,1.747104 2.879042,2.593659 2.663728,2.788982 -0.388457,0.352391 -7.383129,5.547016 -7.527428,5.590282 -0.08665,0.02598 -0.636749,-0.554186 -1.222432,-1.289256 -3.324504,-4.172468 -8.326481,-7.054932 -14.941356,-8.610179 -7.758028,-1.824016 -19.687201,-1.724145 -27.230577,0.227976 -3.873469,1.002399 -7.028547,2.33756 -9.647124,4.082454 -1.595244,1.062993 -4.146462,3.489769 -5.301098,5.042521 -0.497906,0.669578 -1.034589,1.217212 -1.192629,1.21696 -0.15804,-1.78e-4 -0.768484,-0.290294 -1.356541,-0.64454 z m -0.445497,-4.460444 c 5.997902,-5.281314 12.786411,-8.276646 21.829386,-9.631902 3.161605,-0.473824 16.817574,-0.472511 19.945387,0.0019 8.840431,1.340925 15.472056,4.088723 21.377046,8.857537 l 1.405848,1.135346 1.488838,-0.791762 c 0.818858,-0.435469 1.489308,-0.889064 1.489888,-1.007988 0.002,-0.362599 -3.004966,-2.885869 -4.988521,-4.1864 -5.591965,-3.666386 -12.664658,-5.881921 -21.772042,-6.820116 -7.218994,-0.743663 -16.711785,-0.444546 -23.134122,0.728954 -8.974243,1.639788 -15.659051,4.71567 -20.776776,9.560023 l -1.501094,1.420909 1.560736,0.942507 c 0.858402,0.51838 1.600828,0.948201 1.649832,0.955162 0.04901,0.007 0.690521,-0.516914 1.425594,-1.164164 z"
       id="path12043" />
  </g>
</svg>
