<?xml version="1.0" encoding="UTF-8" standalone="no"?>
<!-- Created with Inkscape (http://www.inkscape.org/) -->

<svg
   width="50.000004mm"
   height="50mm"
   viewBox="0 0 50.000004 50"
   version="1.1"
   id="svg5"
   inkscape:version="1.1 (ce6663b3b7, 2021-05-25)"
   sodipodi:docname="mercedes.svg"
   xmlns:inkscape="http://www.inkscape.org/namespaces/inkscape"
   xmlns:sodipodi="http://sodipodi.sourceforge.net/DTD/sodipodi-0.dtd"
   xmlns="http://www.w3.org/2000/svg"
   xmlns:svg="http://www.w3.org/2000/svg">
  <sodipodi:namedview
     id="namedview7"
     pagecolor="#ffffff"
     bordercolor="#666666"
     borderopacity="1.0"
     inkscape:pageshadow="2"
     inkscape:pageopacity="0.0"
     inkscape:pagecheckerboard="0"
     inkscape:document-units="mm"
     showgrid="false"
     inkscape:zoom="3.0075196"
     inkscape:cx="56.691235"
     inkscape:cy="68.328732"
     inkscape:window-width="1848"
     inkscape:window-height="1016"
     inkscape:window-x="72"
     inkscape:window-y="27"
     inkscape:window-maximized="1"
     inkscape:current-layer="layer1" />
  <defs
     id="defs2" />
  <g
     inkscape:label="Слой 1"
     inkscape:groupmode="layer"
     id="layer1"
     transform="translate(-10.484808,-13.461171)">
    <ellipse
       style="fill:none;fill-rule:evenodd;stroke:#fe0000;stroke-width:0.131942;stroke-opacity:1"
       id="path31"
       cx="35.48481"
       cy="38.46117"
       rx="24.934031"
       ry="24.934029" />
    <circle
       style="fill:none;stroke:#fe0000;stroke-width:0.128881;stroke-opacity:1"
       id="path1082"
       cx="35.43325"
       cy="19.149445"
       r="2.4355593" />
    <path
       style="fill:none;stroke-width:0.0581426;stroke:#0000ff;stroke-opacity:1"
       d="m 37.908692,13.934659 c 7.951444,0.790371 14.880688,5.259898 18.859347,12.164731 1.708067,2.964284 2.757206,6.272951 3.106425,9.796632 0.110601,1.116052 0.113849,3.40638 0.0062,4.551757 -0.898719,9.584768 -7.246109,17.668903 -16.355637,20.830785 -1.782953,0.618854 -3.800351,1.044591 -5.838939,1.232215 -0.97804,0.09001 -3.268631,0.08089 -4.30758,-0.01712 -5.802111,-0.547511 -11.095751,-3.055001 -15.147975,-7.175291 -4.010313,-4.077666 -6.432677,-9.342841 -6.924649,-15.051185 -0.0791,-0.917244 -0.08219,-3.086416 -0.0061,-4.023424 0.609726,-7.480136 4.612458,-14.250217 10.861281,-18.370411 3.402207,-2.243247 7.020571,-3.522863 11.124952,-3.934268 1.049151,-0.105154 3.584228,-0.107588 4.622118,-0.0044 z m -4.744716,1.284672 c -4.606421,0.495529 -8.842211,2.302843 -12.460957,5.316808 -0.806091,0.67136 -2.108668,1.979366 -2.776337,2.787881 -0.968871,1.173269 -2.289276,3.099787 -2.184977,3.187966 0.08686,0.0734 19.826838,8.007285 19.882204,7.991031 0.150451,-0.04418 19.641286,-8.159065 19.683577,-8.195143 0.05747,-0.04909 -0.430136,-0.842115 -1.021862,-1.661819 -1.09747,-1.520309 -2.850233,-3.364841 -4.275316,-4.499173 -2.191675,-1.74451 -4.598124,-3.046681 -7.211101,-3.902043 -2.040146,-0.66786 -3.618054,-0.957528 -6.225391,-1.14288 -0.549616,-0.03917 -2.617141,0.03214 -3.40984,0.117372 z m 14.301311,18.237762 c -4.491814,3.64283 -8.228636,6.682548 -8.304047,6.754929 -0.146757,0.140859 0.0013,-0.809124 -2.761607,17.749455 -0.253229,1.701039 -0.460317,3.134968 -0.460223,3.186502 1.15e-4,0.08185 0.06816,0.08931 0.537919,0.05891 2.509182,-0.162371 4.292138,-0.487721 6.292641,-1.148265 2.68502,-0.886566 5.091711,-2.197659 7.345377,-4.001535 0.997585,-0.798484 2.637542,-2.445941 3.444785,-3.46052 4.510968,-5.669644 6.130037,-12.913237 4.44334,-19.879144 -0.349057,-1.441566 -0.97357,-3.194764 -1.58893,-4.460646 -0.384504,-0.790966 -0.718082,-1.423136 -0.750936,-1.423071 -0.01725,6.5e-5 -3.706509,2.98056 -8.198323,6.62339 z M 15.002554,27.782902 c -3.281329,6.579414 -3.276015,14.178569 0.01446,20.713022 2.788653,5.537872 7.600534,9.66754 13.506116,11.591271 2.015425,0.656521 3.785462,0.971225 6.297196,1.119611 0.426069,0.02518 0.479707,0.01716 0.479764,-0.0716 4.1e-5,-0.104948 -1.341745,-9.456096 -2.409437,-16.791653 L 32.263302,40.033343 23.96554,33.64209 c -4.563764,-3.515188 -8.348183,-6.439525 -8.409818,-6.498526 -0.06159,-0.05901 -0.134481,-0.09335 -0.161872,-0.07634 -0.02734,0.01699 -0.203493,0.339064 -0.391323,0.715676 z"
       id="path12608" />
  </g>
</svg>
